<?xml version="1.0" standalone="no"?>
<!DOCTYPE svg PUBLIC "-//W3C//DTD SVG 1.1//EN" "http://www.w3.org/Graphics/SVG/1.1/DTD/svg11.dtd" >
<svg xmlns="http://www.w3.org/2000/svg">
<metadata></metadata>
<defs>
<font id="league_gothic_strokeregular" horiz-adv-x="724" >
<font-face units-per-em="2048" ascent="1505" descent="-543" />
<missing-glyph horiz-adv-x="315" />
<glyph horiz-adv-x="2048" />
<glyph horiz-adv-x="2048" />
<glyph unicode="&#xd;" horiz-adv-x="681" />
<glyph unicode=" "  horiz-adv-x="315" />
<glyph unicode="&#x09;" horiz-adv-x="315" />
<glyph unicode="&#xa0;" horiz-adv-x="315" />
<glyph unicode="!" horiz-adv-x="387" d="M23 1503q-2 20 14 36.5t37 16.5h239q23 0 37.5 -16t14.5 -37l-56 -1100q-2 -20 -17.5 -34.5t-33.5 -14.5h-129q-20 0 -34.5 14.5t-16.5 34.5zM35 0v227q0 20 15.5 36t35.5 16h215q20 0 35.5 -15.5t15.5 -36.5v-227q0 -20 -15 -35.5t-36 -15.5h-215q-20 0 -35.5 15.5 t-15.5 35.5zM127 1454l51 -997h31l51 997h-133zM137 51h113v125h-113v-125z" />
<glyph unicode="&#x22;" horiz-adv-x="329" d="M6 1503q-2 20 14.5 36.5t36.5 16.5h215q23 0 38.5 -16t13.5 -37l-31 -551q-2 -20 -17.5 -34.5t-33.5 -14.5h-154q-20 0 -34.5 14.5t-16.5 34.5zM111 1454l26 -448h56l26 448h-108z" />
<glyph unicode="#" horiz-adv-x="1232" d="M-2 444l27 195q2 20 17 32.5t34 12.5h153l23 156h-137q-23 0 -38.5 18.5t-13.5 38.5l27 195q2 20 17.5 32.5t33.5 12.5h152l51 374q2 20 17.5 32.5t33.5 12.5h197q23 0 38 -18t13 -39l-49 -362h156l51 374q2 20 17.5 32.5t33.5 12.5h197q23 0 38 -18t13 -39l-49 -362h133 q23 0 38 -18.5t13 -39.5l-27 -194q-2 -20 -17 -32.5t-34 -12.5h-147l-23 -156h131q23 0 38 -18.5t13 -38.5l-26 -195q-2 -20 -17.5 -32.5t-33.5 -12.5h-146l-53 -393q-2 -20 -17.5 -32.5t-33.5 -12.5h-197q-23 0 -38 18.5t-13 38.5l51 381h-156l-53 -393q-2 -20 -17.5 -32.5 t-33.5 -12.5h-197q-23 0 -38 18.5t-13 38.5l51 381h-139q-23 0 -38 18.5t-13 38.5zM109 489h139q18 0 35.5 -17t15.5 -40l-51 -381h92l53 393q2 20 17.5 32.5t33.5 12.5h261q18 0 35.5 -17t15.5 -40l-51 -381h92l53 393q2 20 17.5 32.5t33.5 12.5h146l12 93h-131 q-20 0 -37 17t-14 42l36 258q4 18 18.5 30.5t33.5 12.5h147l12 92h-133q-20 0 -36.5 17.5t-14.5 40.5l49 362h-92l-51 -375q-2 -20 -17.5 -32.5t-33.5 -12.5h-260q-20 0 -37 17.5t-15 40.5l49 362h-92l-51 -375q-2 -20 -17.5 -32.5t-33.5 -12.5h-152l-12 -92h137 q20 0 37 -17.5t14 -41.5l-36 -258q-4 -18 -18.5 -30.5t-33.5 -12.5h-153zM420 641l37 258q4 18 18 30.5t33 12.5h260q20 0 36.5 -17.5t14.5 -41.5l-37 -258q-4 -18 -18 -30.5t-33 -12.5h-260q-20 0 -36.5 17t-14.5 42zM530 684h156l23 156h-156z" />
<glyph unicode="$" horiz-adv-x="692" d="M-14 356q0 20 14 36t33 18l192 12q23 2 38.5 -14.5t17.5 -32.5q8 -139 77 -139q8 0 16.5 10t15.5 43t9 80q0 20 -4 39.5t-15 44t-20.5 41t-29 46t-27.5 43t-32.5 47.5t-30.5 42t-17 20q-45 63 -70.5 102.5t-61.5 104t-53.5 128t-17.5 128.5q0 59 11.5 112.5t34 108 t66.5 96t104 64.5v92q0 20 15.5 35.5t35.5 15.5h123q20 0 35.5 -15t15.5 -36v-82q199 -51 235 -319q2 -20 -12 -38t-33 -20l-192 -24q-20 -2 -38 12t-20 33q-4 33 -11 51.5t-13 23.5t-15 5q-6 0 -13 -8.5t-13 -36t-8 -66.5q0 -16 4 -35.5t9 -35t17.5 -39t20.5 -37t26.5 -41 t25.5 -38.5t29.5 -42t28.5 -41q8 -10 39 -53t43.5 -62.5t39 -61.5t39 -71t28.5 -69.5t22.5 -80.5t6.5 -81q0 -70 -12.5 -131.5t-39 -120t-76 -100.5t-118.5 -60v-174q0 -20 -15.5 -35.5t-35.5 -15.5h-123q-20 0 -35.5 15t-15.5 36v180q-86 27 -143.5 91.5t-80 137 t-26.5 162.5zM92 311q29 -225 203 -254q18 -4 30.5 -18t12.5 -33v-170h20v166q0 16 12.5 32.5t32.5 18.5q197 25 201 318q0 25 -3 49t-12 51l-15.5 46.5t-22.5 50t-23.5 44t-30 48t-28.5 43t-32.5 46t-28.5 44.5q-8 8 -46 59t-52.5 74.5t-39 67.5t-35 84t-10.5 81 q6 209 133 213q57 2 90 -33.5t46 -85.5l92 11q-18 86 -60.5 133t-122.5 55q-18 2 -31.5 16.5t-13.5 34.5v74h-20v-80q0 -16 -11.5 -30.5t-27.5 -18.5q-172 -41 -176 -293q0 -68 35 -149.5t68.5 -134t95.5 -138.5q8 -12 42.5 -58t51 -71.5t41 -68.5t35 -84t10.5 -82 q-4 -236 -144 -236q-80 0 -120.5 53.5t-53.5 130.5z" />
<glyph unicode="%" horiz-adv-x="1001" d="M4 889v22v437q0 8 1 23t12.5 54t31 69t63.5 54.5t103 24.5t102 -23.5t62.5 -56.5t31 -65.5t13.5 -57.5v-22v-437q0 -10 -1 -25.5t-12.5 -54t-31 -68.5t-62.5 -54.5t-102 -24.5t-103 23.5t-63.5 57.5t-31 66.5t-13.5 57.5zM106 0q0 8 5 18l553 1506q12 33 47 32h131 q20 0 35.5 -15t15.5 -36q0 -8 -4 -18l-547 -1505q-10 -33 -47 -33h-137q-20 0 -36 15.5t-16 35.5zM106 911q0 -12 3.5 -26.5t11.5 -40t32.5 -42t61.5 -16.5q35 0 58.5 16.5t32.5 41t12.5 40t3.5 27.5v437q0 10 -3.5 25.5t-12.5 40t-32.5 40.5t-58.5 16q-37 0 -61.5 -16 t-32.5 -40.5t-11.5 -39t-3.5 -26.5v-437zM127 887v26v433q2 2 0 12t3 26.5t12.5 32t26.5 26.5t46 11q43 0 64.5 -26.5t21.5 -53.5v-26v-437q0 -4 1 -11t-2 -25.5t-11 -33t-26.5 -25.5t-47.5 -11q-43 0 -64.5 26.5t-23.5 55.5zM231 51h27l510 1403h-23zM580 158v436 q0 8 1 23.5t11 55.5t30.5 69.5t63.5 54t105 24.5q59 0 102 -23.5t62.5 -56t30.5 -66.5t11 -57l2 -24v-436q0 -10 -1 -24.5t-12 -53.5t-30.5 -68.5t-62.5 -54.5t-102 -25q-166 0 -203 164q-8 61 -8 62zM682 158q0 -12 3 -26.5t11.5 -39t33 -41t61.5 -16.5q35 0 58 16.5 t32.5 41t12.5 39t3 26.5v436q0 12 -3 26.5t-12.5 40t-33 42t-57.5 16.5q-37 0 -60.5 -16.5t-33 -41t-12.5 -40t-3 -27.5v-436zM702 131v29v432q2 2 0 12t3.5 26.5t12.5 32t26.5 26.5t46.5 11q43 0 64.5 -26.5t21.5 -52.5v-27v-436q0 -4 1 -11.5t-2.5 -26t-11.5 -32.5 t-26.5 -26.5t-46.5 -12.5q-43 0 -66 27.5t-23 54.5z" />
<glyph unicode="&#x26;" horiz-adv-x="854" d="M-2 315q0 119 44 222.5t118 218.5q-98 221 -99 438v2q0 14 1 30.5t7.5 55.5t17.5 74t35.5 77t57.5 70.5t85 49t118 20.5q68 0 121 -21.5t86 -52.5t55.5 -75t32.5 -78.5t15 -74.5t5 -54.5v-22.5q0 -102 -51 -207.5t-145 -232.5q37 -82 69 -146q10 49 15 84q2 23 20.5 35 t40.5 10l176 -32q18 -4 30.5 -20.5t10.5 -35.5q-14 -193 -82 -344q29 -29 47 -37q35 -14 35 -49v-235q0 -20 -15 -36t-36 -16q-78 0 -207 117q-123 -117 -254 -117q-154 0 -254 113.5t-100 269.5zM100 315q0 -117 73 -198.5t179.5 -81.5t212.5 121q14 16 37 17t39 -15 q55 -57 121 -97v127q-41 29 -80 74q-23 25 -6 57q59 113 82 293l-78 15q-18 -100 -41 -168q-6 -16 -21 -27q-18 -12 -39.5 -7t-31.5 21q-74 115 -152 293q-12 27 6 52q195 260 195 403q0 16 -1 37.5t-11.5 68t-31 81t-64.5 62t-105 27.5q-59 0 -103 -25.5t-64.5 -58 t-34 -76.5t-15.5 -68.5t-2 -45.5v-2q0 -205 102 -420q12 -27 -4 -51q-78 -119 -120 -212.5t-42 -195.5zM211 326q-2 160 59 258q6 12 19 18q18 10 38.5 4t30.5 -24q84 -156 172 -291q18 -31 -2 -60q-80 -106 -166 -106q-72 0 -110.5 60.5t-40.5 140.5zM253 1214.5 q-1 14.5 3 49t15.5 61.5t40 49.5t71.5 22.5q33 0 56.5 -11.5t36.5 -34t21.5 -41t11.5 -46t3 -34.5v-20v-12q-2 -113 -109 -278q-8 -12 -24 -19q-18 -8 -37.5 0t-28.5 29q-59 143 -59 262q0 8 -1 22.5zM313 326q0 -35 10.5 -58.5t20.5 -32t18 -8.5q29 0 62 39 q-51 82 -100 168q-10 -51 -11 -108zM356 1194q0 -61 17 -123q37 80 37 129v2v8q0 33 -9.5 58.5t-17.5 25.5q-10 0 -19.5 -36.5t-7.5 -61.5v-2z" />
<glyph unicode="'" horiz-adv-x="309" d="M-6 1012q0 6 2 12l53 203h-4q-20 0 -35.5 15t-15.5 36v227q0 20 15.5 35.5t35.5 15.5h215q20 0 35.5 -15.5t15.5 -35.5v-227q0 -10 -4 -21l-112 -266q-12 -31 -48 -30h-102q-20 0 -35.5 15t-15.5 36zM96 1329h21q6 0 12 -2q20 -6 31.5 -24.5t5.5 -36.5 q-8 -35 -25.5 -101.5t-27.5 -101.5q16 37 48 111.5t48 113.5v166h-113v-125z" />
<glyph unicode="(" horiz-adv-x="561" d="M14 644.5q0 148.5 32 305t72 264t92 213t72.5 138t34.5 55.5q27 34 66 14l162 -84q20 -10 24 -33.5t-6 -39.5q-12 -14 -29.5 -42t-59.5 -113t-74.5 -176t-59.5 -228.5t-27 -272.5t27 -271t58.5 -227.5t74.5 -175.5t60.5 -111.5t29.5 -43.5q12 -20 6 -42t-24 -32l-162 -84 q-18 -8 -37.5 -3t-30.5 19q-12 20 -32.5 52t-72.5 137.5t-91 212t-72 263.5t-33 305.5zM117 645q0 -141 29.5 -286.5t75.5 -263.5t83 -191.5t72 -132.5l69 34q-35 57 -67.5 126t-74.5 178.5t-67.5 250t-25.5 286t25.5 285.5t66.5 249.5t75 179.5t68 127l-69 35 q-35 -57 -71 -132t-83 -194t-76.5 -264.5t-29.5 -286.5z" />
<glyph unicode=")" horiz-adv-x="561" d="M-8 -224.5q-4 23.5 6 40.5q12 14 29.5 41.5t59.5 112.5t75 175.5t59.5 227.5t26.5 273t-26.5 272.5t-59.5 227.5t-75 176t-59.5 112.5t-29.5 42.5q-12 20 -6 41.5t24 31.5l162 84q20 8 39 3t29 -19q14 -20 34.5 -54t73 -139.5t91 -213t70.5 -263t32 -303.5 q0 -150 -33 -306.5t-72 -263t-91 -212t-72.5 -137t-32.5 -52.5q-12 -16 -31.5 -20t-36.5 4l-162 84q-20 10 -24 33.5zM115 -195l69 -34q35 57 71 130.5t83 192.5t76.5 264.5t29.5 286.5t-29.5 286.5t-75.5 263.5t-83 192.5t-72 134.5l-69 -35q35 -57 67.5 -126t74.5 -179.5 t67.5 -250.5t25.5 -285.5t-25.5 -286t-66.5 -249t-74.5 -178t-68.5 -127.5z" />
<glyph unicode="*" horiz-adv-x="677" d="M25 1266l43 147q6 23 27.5 32t41.5 1l84 -35l-10 88q-2 25 14.5 41t36.5 16h154q23 0 38 -18t13 -39l-10 -88l84 35q23 8 43 -2t26 -31l43 -147q6 -23 -7 -42.5t-32 -23.5l-88 -16l60 -72q14 -18 11 -41.5t-24 -34.5l-131 -80q-18 -12 -39.5 -6t-31.5 27l-33 61l-31 -61 q-10 -20 -33.5 -26.5t-37.5 5.5l-132 80q-20 12 -23 36t11 40l60 72l-89 16q-23 6 -34 26.5t-4 39.5zM139 1290l117 -22q12 -4 23 -13q16 -12 18 -33.5t-12 -37.5l-76 -92l33 -21l51 103q6 16 22 22q18 10 39 4t29 -26l53 -103l33 21l-76 92q-8 10 -12 22q-4 20 8 38t33 24 l117 22l-11 39l-110 -47q-12 -6 -27 -4q-20 2 -33.5 18.5t-11.5 38.5l12 119h-39l13 -119q2 -14 -4 -26q-8 -18 -27.5 -26.5t-40.5 -0.5l-110 47z" />
<glyph unicode="+" horiz-adv-x="1060" d="M23 649v172q0 20 15 35.5t36 15.5h319v295q0 20 15.5 36t35.5 16h172q20 0 36 -15.5t16 -36.5v-295h319q20 0 35.5 -15t15.5 -36v-172q0 -20 -15 -35.5t-36 -15.5h-319v-295q0 -20 -15.5 -35.5t-36.5 -15.5h-172q-20 0 -35.5 15.5t-15.5 35.5v295h-319q-20 0 -35.5 15.5 t-15.5 35.5zM125 700h319q20 0 36 -15t16 -36v-295h69v295q0 20 15.5 35.5t35.5 15.5h320v70h-320q-20 0 -35.5 15.5t-15.5 35.5v295h-69v-295q0 -20 -15.5 -35.5t-36.5 -15.5h-319v-70z" />
<glyph unicode="," horiz-adv-x="309" d="M-6 0v227q0 20 15.5 36t35.5 16h215q20 0 35.5 -16t15.5 -36v-227q0 -10 -4 -20l-112 -267q-12 -31 -48 -30h-102q-20 0 -35.5 15t-15.5 36q0 6 2 12l53 203h-4q-20 0 -35.5 15.5t-15.5 35.5zM96 51h21q6 0 12 -2q20 -6 31.5 -24.5t5.5 -36.5q-8 -35 -25.5 -101.5 t-27.5 -101.5q16 37 48 111.5t48 113.5v166h-113v-125z" />
<glyph unicode="-" horiz-adv-x="444" d="M23 455v194q0 20 15 35.5t36 15.5h297q20 0 35.5 -15t15.5 -36v-194q0 -20 -15.5 -36t-35.5 -16h-297q-20 0 -35.5 16t-15.5 36zM125 506h194v92h-194v-92z" />
<glyph unicode="." horiz-adv-x="321" d="M2 0v227q0 20 15.5 36t35.5 16h215q20 0 35.5 -15.5t15.5 -36.5v-227q0 -20 -15 -35.5t-36 -15.5h-215q-20 0 -35.5 15.5t-15.5 35.5zM104 51h113v125h-113v-125z" />
<glyph unicode="/" horiz-adv-x="720" d="M-43 -147l2 16l543 1653q12 35 49 34h162q20 0 35.5 -15t15.5 -36q0 -8 -2 -16l-537 -1653q-12 -35 -49 -35h-168q-20 0 -35.5 15.5t-15.5 36.5zM80 -96h59l504 1550h-55z" />
<glyph unicode="0" d="M16 289v20v887q0 8 1 21.5t7.5 52.5t17.5 74.5t37.5 79.5t61.5 75t92.5 52.5t129 21.5t129 -20.5t92 -54.5t61.5 -74t38 -79.5t17.5 -73.5t8.5 -54v-21v-887q0 -8 -1 -21.5t-7.5 -52t-18.5 -74.5t-38 -80t-60.5 -75t-92 -52.5t-129.5 -21.5t-129 20.5t-93 54.5t-61.5 74 t-36.5 80t-18.5 73.5t-7.5 54.5zM119 309q0 -14 2 -34.5t15.5 -66.5t37 -82t72.5 -63.5t116.5 -27.5t116.5 27.5t72.5 62.5t37 81t15.5 67.5t2 35.5v887q0 14 -2 34.5t-15.5 66.5t-37 82t-72.5 63.5t-116.5 27.5t-116.5 -27.5t-72.5 -62t-37 -81t-15.5 -68t-2 -35.5v-887z M238 293v16v887q2 0 0 16.5t4 41t16 47t38 40t66.5 17.5t65.5 -16.5t38 -41t16 -48t5 -40.5v-16v-887q-2 0 0 -16.5t-4 -41t-16 -47t-38 -40t-66.5 -17.5t-65.5 16.5t-38 41t-16 48t-5 40.5zM340 309q0 -20 7 -39.5t15 -19.5q10 0 16.5 19.5t6.5 39.5v887q0 20 -7 39.5 t-16 19.5q-10 0 -16 -19t-6 -40v-887z" />
<glyph unicode="1" horiz-adv-x="475" d="M-27 1180v141q0 18 12.5 32.5t28.5 18.5q43 8 79 26.5t56.5 37t36 41t19.5 32t8 15.5q12 33 47 32h133q20 0 35.5 -15t15.5 -36v-1505q0 -20 -15 -35.5t-36 -15.5h-221q-20 0 -35.5 15.5t-15.5 35.5v1128h-96q-20 0 -36 15.5t-16 36.5zM76 1231h96q20 0 35.5 -15.5 t15.5 -35.5v-1129h119v1403h-49q-70 -127 -217 -172v-51z" />
<glyph unicode="2" horiz-adv-x="731" d="M4 0v219q0 16 8 29q12 16 40 61t87.5 152.5t108.5 214t89 234.5t42 223q0 49 -7 88t-16 45q-4 -4 -9 -20.5t-9 -47.5t-4 -65v-105q0 -20 -15.5 -35.5t-35.5 -15.5h-222q-20 0 -35.5 15.5t-15.5 35.5v105q0 440 346 440q125 0 206 -63.5t110.5 -154.5t29.5 -208 q0 -326 -309 -877h262q20 0 36 -15t16 -36v-219q0 -20 -15.5 -35.5t-36.5 -15.5h-600q-20 0 -35.5 15.5t-15.5 35.5zM106 51h498v117h-299q-14 0 -26 6q-16 12 -22.5 32.5t3.5 39.5q53 88 102.5 184t107.5 226t94 260.5t36 230.5q0 158 -55.5 240.5t-188.5 82.5 q-139 0 -191 -86t-52 -251v-54h118v54q0 43 2.5 71.5t12.5 72.5t38.5 67.5t71.5 23.5q35 0 60.5 -18.5t38 -41t18.5 -59.5t7 -57.5t1 -50.5v-8q-4 -125 -51 -279t-122 -296t-116.5 -216t-85.5 -137v-154z" />
<glyph unicode="3" horiz-adv-x="686" d="M-6 1071q0 47 1 79t7 89t18.5 97t37 88.5t59.5 78t89 50t122 20.5q92 0 160.5 -37t100.5 -84t51 -108.5t22.5 -92t3.5 -53.5q0 -274 -91 -395q66 -74 87.5 -175.5t21.5 -242.5q0 -27 -2 -60.5t-20.5 -109.5t-50 -133t-101.5 -103.5t-164 -46.5q-344 0 -344 502 q0 20 15.5 35.5t35.5 15.5h217q20 0 36 -15t16 -36q2 -174 22 -205h1h3q16 18 17 140q0 29 1 69.5t1 58t-1 43t-6.5 35t-12.5 22.5t-21.5 17t-32.5 8.5t-47 6.5h-17q-20 0 -35.5 15t-15.5 36v184q0 20 14.5 34.5t34.5 16.5q35 2 53.5 3.5t34 9.5t20.5 12t10 26.5t4 36 t-2 56.5t-1 74q0 123 -18 143q-12 -33 -15 -205q0 -23 -16 -37t-35 -14h-217q-20 0 -35.5 15.5t-15.5 35.5zM96 1122h115q2 45 3 68.5t5 58.5t11.5 54.5t19.5 39t31.5 27.5t46.5 8q25 0 44 -9t32.5 -20.5t22.5 -33t13 -36.5t6.5 -43t2.5 -40v-36.5v-26.5v-31q0 -55 -1.5 -84 t-9.5 -71t-25.5 -62.5t-50 -40t-81.5 -27.5v-88q35 -4 62.5 -13t46 -25.5t32.5 -30t22.5 -40t13.5 -42t7 -50t3 -50t0 -55.5t-1 -54q0 -2 1 -34t0 -45.5t-5 -42t-11.5 -45t-21.5 -34.5t-37 -31q-20 -10 -47 -10q-31 0 -53 12q-45 27 -57.5 80t-16.5 164h-115q2 -57 8.5 -102 t22 -93.5t41 -80t69.5 -52t101 -20.5q61 0 107.5 32.5t70 75.5t37.5 97.5t17.5 88t3.5 56.5q0 289 -107 373q-16 12 -19 34.5t13 43.5l2 2q92 90 92 360q0 29 -6 62.5t-25.5 87t-72.5 88t-131 34.5q-57 0 -100.5 -20t-67 -51t-37.5 -79t-19.5 -93t-7.5 -105z" />
<glyph unicode="4" horiz-adv-x="684" d="M-27 328v194q0 8 2 17l324 983q12 35 49 34h221q20 0 36 -15t16 -36v-932h51q20 0 35.5 -15t15.5 -36v-194q0 -20 -15.5 -36t-35.5 -16h-51v-276q0 -20 -15.5 -35.5t-36.5 -15.5h-202q-20 0 -36 15.5t-16 35.5v276h-290q-20 0 -36 15.5t-16 36.5zM76 379h291 q20 0 35.5 -15.5t15.5 -35.5v-277h100v277q0 20 15.5 35.5t35.5 15.5h52v92h-52q-20 0 -35.5 15.5t-15.5 35.5v932h-133l-309 -940v-135zM164 537l129 471l12 45q4 14 18.5 25.5t30.5 11.5h13q20 0 35.5 -15.5t15.5 -36.5v-516q0 -20 -15.5 -35.5t-35.5 -15.5h-154 q-6 0 -14 2q-18 6 -29.5 24.5t-5.5 39.5zM281 573h34v129z" />
<glyph unicode="5" horiz-adv-x="704" d="M23 438q0 20 15 35.5t36 15.5h221q20 0 35.5 -15t15.5 -36v-59q0 -123 16 -152q16 31 17 150v336q0 27 -4 41t-10 16l-5 2q-6 -2 -20 -25.5t-14 -33.5q0 -20 -15.5 -35.5t-36.5 -15.5h-186q-20 0 -35.5 15t-15.5 36v792q0 20 15.5 35.5t35.5 15.5h535q20 0 35.5 -15 t15.5 -36v-219q0 -20 -15.5 -35.5t-35.5 -15.5h-293v-174q41 16 78 14q80 0 138 -34.5t87 -80t46 -102.5t20 -89t3 -56v-336q0 -444 -340 -445q-92 0 -158.5 36t-100 85t-53 126t-23.5 131.5t-4 127.5zM125 387q2 -63 7 -110.5t20.5 -95.5t41 -77.5t68.5 -49t100 -19.5 q63 0 108.5 22.5t70 55t39 83t17.5 89.5t3 92v336q0 29 -7 64.5t-24.5 83.5t-60.5 80t-102 32h-5q-16 2 -49 -15.5t-43 -25.5q-12 -10 -30 -10q-20 0 -36 15t-16 36v313q0 20 15.5 35.5t36.5 15.5h292v117h-432v-690h94q41 111 127 110q63 0 92 -50t29 -111v-336 q0 -123 -23.5 -187.5t-95.5 -64.5q-74 0 -96 64.5t-22 189.5v8h-119z" />
<glyph unicode="6" horiz-adv-x="700" d="M14 309v856q0 43 3 83t22.5 103.5t53.5 108.5t101.5 79t159.5 34t160 -34t101.5 -79t53 -108.5t22.5 -103.5t3 -83v-94q0 -20 -15 -35.5t-36 -15.5h-221q-20 0 -35.5 15.5t-15.5 35.5q0 178 -13 207h-4h-4q-12 -20 -12 -113v-188q31 8 59 8q80 0 138.5 -31.5t87 -73.5 t46 -99.5t21.5 -93.5t4 -71v-307q0 -31 -4 -67.5t-24.5 -95t-53 -102.5t-100.5 -78t-158 -34t-157.5 34t-100.5 78t-53 102.5t-24.5 95.5t-4.5 67zM117 309q0 -39 7 -75.5t27.5 -87t72.5 -81t130 -30.5t130.5 30.5t73 81t27.5 87t7 75.5v307q0 266 -195 267q-37 0 -84 -29 q-12 -8 -26 -8q-20 0 -35.5 15.5t-15.5 35.5v268q0 57 2 83t15 62t42 54q25 16 59 16q37 0 64 -18q10 -6 17 -14.5t13.5 -19.5t10.5 -20.5t7 -25.5t4 -25.5t2 -30t1 -30.5v-36.5v-37.5h119v43q0 43 -3 75t-16.5 79t-37 76.5t-69.5 52t-111.5 22.5t-111.5 -22.5t-69.5 -52 t-37 -76.5t-16.5 -79t-3 -75v-856zM236 244v456v5q4 37 33.5 72.5t84.5 35.5q57 0 88 -40t31 -79v-450q0 -37 -30.5 -78t-88.5 -41q-61 0 -89.5 41t-28.5 78zM338 244q2 -16 16 -17q12 0 17 19v446q-4 18 -17 19q-12 0 -16 -15v-452z" />
<glyph unicode="7" horiz-adv-x="589" d="M-43 1286v219q0 20 15.5 35.5t35.5 15.5h557q20 0 35.5 -15t15.5 -36v-221v-8l-221 -1284q-4 -18 -18.5 -30.5t-32.5 -12.5h-229q-25 0 -39.5 19.5t-12.5 39.5l216 1227h-271q-20 0 -35.5 15.5t-15.5 35.5zM59 1337h281h8q20 -4 32.5 -21.5t10.5 -37.5l-215 -1227h125 l213 1237v166h-455v-117z" />
<glyph unicode="8" horiz-adv-x="696" d="M2 322v176q0 174 98 299q-86 115 -86 274v127q0 25 3 54.5t20.5 91t50.5 108.5t100.5 84t159.5 37t159.5 -37t100.5 -84t50.5 -108.5t20.5 -91t3 -54.5v-127q0 -160 -86 -274q98 -125 98 -299v-176q0 -25 -3 -55.5t-21.5 -95.5t-51 -113t-103.5 -87t-167 -39t-166.5 39 t-103.5 87t-51.5 113t-21.5 95.5t-3 55.5zM104 322q0 -25 2.5 -49.5t15.5 -70.5t36.5 -80t73 -60.5t117 -26.5t116.5 26.5t72.5 60.5t37 80t15.5 70.5t2 49.5v176q0 76 -26.5 145.5t-71.5 114.5q-14 12 -15.5 33.5t13.5 39.5q41 41 64.5 105.5t23.5 134.5v127 q0 23 -2.5 46.5t-15.5 67.5t-35.5 75.5t-68.5 57t-109.5 25.5t-109.5 -25.5t-69 -57t-36 -75.5t-15 -67.5t-2 -46.5v-127q0 -70 23.5 -134.5t64.5 -105.5q12 -14 13 -35.5t-15 -37.5q-45 -45 -72 -115t-27 -145v-176zM217 410v24q0 49 1 75t4 66.5t11.5 62t21.5 45.5 t36.5 34t56.5 10t56.5 -10t37 -35t21.5 -45.5t11 -62.5t4 -64.5t1 -73.5v-26v-15q0 -41 -1 -61.5t-4 -56t-11 -56t-21.5 -43t-37 -33t-56.5 -10.5q-35 0 -61 17q-33 20 -48.5 64t-17.5 78t-4 116zM231 1104v16q0 51 2.5 81t8.5 69t18 59.5t34.5 34.5t53.5 14q29 0 50.5 -9 t33.5 -33.5t19.5 -41t10.5 -57.5t3 -56.5v-60.5q0 -174 -25 -223q-29 -55 -92 -55q-29 0 -49 9t-32.5 30.5t-20.5 41t-10.5 56.5t-3.5 59.5t-1 65.5zM319 410q0 -55 5.5 -98.5t10.5 -57.5t7 -16h6q29 0 29 172q0 215 -29 215t-29 -215zM334 1120q0 -143 14 -174 q14 31 14 174q0 123 -14 154q-12 -33 -14 -154z" />
<glyph unicode="9" horiz-adv-x="700" d="M6 340v94q0 20 15.5 35.5t35.5 15.5h222q20 0 35.5 -15t15.5 -36q0 -178 12 -207h4h4q12 20 12 113v203q-31 -8 -59 -8q-80 0 -138.5 31.5t-87 73.5t-46 99.5t-21.5 93t-4 70.5v293q0 31 4 67.5t24.5 95t53.5 102.5t100.5 78t157.5 34t157.5 -34t100.5 -78t53.5 -102.5 t24.5 -95t4 -67.5v-856q0 -43 -3 -83t-22.5 -103.5t-53.5 -108.5t-101.5 -79t-159.5 -34t-159.5 34t-101.5 79t-53.5 108.5t-22.5 103.5t-3 83zM109 340q0 -43 3 -75t16 -79t36.5 -76.5t70 -52t112 -22.5t111.5 22.5t69.5 52t37 76.5t16.5 79t3 75v856q0 39 -7.5 76t-28 87 t-72.5 80.5t-130 30.5t-130 -30.5t-72.5 -80.5t-27.5 -87t-7 -76v-293q0 -266 194 -266q37 0 84 29q12 8 27 8q20 0 35.5 -15.5t15.5 -35.5v-283q0 -57 -2 -83t-15.5 -61.5t-41.5 -54.5q-25 -16 -60 -16q-37 0 -63 18q-10 6 -17.5 14.5t-13.5 19.5t-10 20.5t-7.5 26 t-4.5 25.5t-2 29.5t-1 30.5v37v37h-118v-43zM227 825v437q0 37 31 77.5t88 40.5q61 0 90 -41t29 -77v-443v-4q-4 -37 -34 -72.5t-85 -35.5q-57 0 -88 39.5t-31 78.5zM330 827q4 -18 16 -18t16 14v439q-2 16 -16 16q-12 0 -16 -18v-433z" />
<glyph unicode=":" horiz-adv-x="362" d="M23 0v227q0 20 15 36t36 16h215q20 0 35.5 -15.5t15.5 -36.5v-227q0 -20 -15.5 -35.5t-35.5 -15.5h-215q-20 0 -35.5 15.5t-15.5 35.5zM23 893v227q0 20 15 35.5t36 15.5h215q20 0 35.5 -15t15.5 -36v-227q0 -20 -15.5 -35.5t-35.5 -15.5h-215q-20 0 -35.5 15.5 t-15.5 35.5zM125 51h113v125h-113v-125zM125 944h113v125h-113v-125z" />
<glyph unicode=";" horiz-adv-x="362" d="M23 0v227q0 20 15 36t36 16h215q20 0 35.5 -16t15.5 -36v-227q0 -10 -4 -20l-113 -267q-12 -31 -47 -30h-102q-20 0 -35.5 15t-15.5 36q0 6 2 12l53 203h-4q-20 0 -35.5 15.5t-15.5 35.5zM23 893v227q0 20 15 35.5t36 15.5h215q20 0 35.5 -15t15.5 -36v-227 q0 -20 -15.5 -35.5t-35.5 -15.5h-215q-20 0 -35.5 15.5t-15.5 35.5zM125 51h20q6 0 13 -2q20 -6 31.5 -24.5t5.5 -36.5q-8 -35 -25.5 -101.5t-28.5 -101.5q16 37 48 111.5t49 113.5v166h-113v-125zM125 944h113v125h-113v-125z" />
<glyph unicode="&#x3c;" horiz-adv-x="1058" d="M23 649v160q0 31 26 45l912 475q18 10 38.5 4t30.5 -24q6 -12 6 -25v-199q0 -31 -28 -45l-609 -311l609 -311q29 -14 28 -45v-199q0 -20 -15 -35.5t-36 -15.5q-12 0 -24 6l-912 475q-26 14 -26 45zM125 680l809 -422v84l-670 342q-16 6 -22 23q-10 18 -3 38.5t25 28.5 l670 342v84l-809 -422v-98z" />
<glyph unicode="=" horiz-adv-x="1058" d="M23 477v172q0 20 15 35.5t36 15.5h911q20 0 35.5 -15t15.5 -36v-172q0 -20 -15 -35.5t-36 -15.5h-911q-20 0 -35.5 15.5t-15.5 35.5zM23 864v172q0 20 15 35.5t36 15.5h911q20 0 35.5 -15t15.5 -36v-172q0 -20 -15 -35.5t-36 -15.5h-911q-20 0 -35.5 15.5t-15.5 35.5z M125 528h809v70h-809v-70zM125 915h809v70h-809v-70z" />
<glyph unicode="&#x3e;" horiz-adv-x="1058" d="M23 174v199q0 31 28 45l608 311l-608 311q-29 14 -28 45v199q0 20 15 35.5t36 15.5q12 0 24 -6l912 -475q26 -14 26 -45v-160q0 -31 -26 -45l-912 -475q-18 -10 -38.5 -4t-30.5 25q-6 12 -6 24zM125 258l809 422v98l-809 422v-84l670 -342q16 -6 22 -22q10 -18 3 -39 t-25 -29l-670 -342v-84z" />
<glyph unicode="?" horiz-adv-x="645" d="M-23.5 1242q-7.5 20 0.5 36q10 27 25.5 56.5t47.5 73.5t70 78t96 57.5t122 21.5q78 -2 138.5 -30t93 -66.5t53 -88t26.5 -85t6 -68.5q0 -47 -15 -95.5t-28.5 -73t-44.5 -77.5q-37 -61 -54 -93t-38.5 -97.5t-21.5 -128.5v-256q0 -20 -16 -36t-36 -16h-190 q-20 0 -35.5 15.5t-15.5 36.5v256q0 106 25.5 206.5t51 151.5t68.5 121q39 63 47 96q0 14 -6 23.5t-12 9.5q-18 0 -45 -36t-37 -73q-6 -23 -28.5 -32t-43.5 -1l-178 84q-18 10 -25.5 30zM92 1284l84 -39q61 129 158 127q63 0 92 -45t29 -88q0 -12 -4 -25q-10 -47 -60 -127 q-39 -68 -61.5 -112.5t-45 -130.5t-22.5 -182v-205h88v205q0 59 11.5 114t37 109.5t38 76t44.5 72.5q27 45 39 69.5t22.5 57.5t10.5 66q0 35 -8 68.5t-28.5 73.5t-67 65.5t-111.5 27.5q-82 2 -144.5 -51t-101.5 -127zM147 0v227q0 20 15.5 36t36.5 16h215q20 0 35.5 -15.5 t15.5 -36.5v-227q0 -20 -15.5 -35.5t-35.5 -15.5h-215q-20 0 -36 15.5t-16 35.5zM250 51h112v125h-112v-125z" />
<glyph unicode="@" horiz-adv-x="872" d="M14 303v889q0 39 11.5 85t42 99.5t76.5 96.5t123 71.5t173.5 28.5t173 -28.5t122.5 -71.5t77 -96.5t42 -99.5t11 -85v-793q0 -20 -15 -35.5t-36 -15.5h-164q-23 0 -37 17q-45 -29 -96 -29q-100 0 -148 65.5t-48 157.5v485q0 90 48 156t148 66q14 0 27 -2q-37 35 -105 34 q-55 0 -89 -22.5t-42 -44t-8 -39.5v-889q0 -12 5 -27.5t18.5 -34t43 -29.5t72.5 -11q92 0 127 45q12 14 31.5 17t34.5 -5l151 -86q20 -12 24.5 -35.5t-7.5 -40.5q-123 -164 -361 -164q-119 0 -207 41t-133 103.5t-65.5 120t-20.5 106.5zM117 303q0 -35 14 -75t46 -86 t100.5 -76.5t162.5 -30.5q152 0 240 80l-64 35q-61 -51 -176 -52q-123 0 -182 66.5t-59 138.5v889q0 70 59 139.5t182 69.5t182.5 -69.5t59.5 -139.5v-45q0 -33 -29 -45q-18 -10 -37.5 -4t-27.5 22q-25 43 -70 43q-51 0 -72.5 -28.5t-21.5 -90.5v-485q0 -63 20.5 -92 t73.5 -29q45 0 66 39q10 18 28 25q20 8 40 -1t26 -28l8 -22h78v741q0 37 -14.5 79t-47 89t-101.5 78.5t-161 31.5t-160.5 -31.5t-101.5 -78.5t-47 -89t-14 -79v-889zM483 573v455q0 43 28 74t71 31t71.5 -31t28.5 -74v-455q0 -45 -29.5 -74.5t-70.5 -29.5q-43 0 -71 30.5 t-28 73.5z" />
<glyph unicode="A" horiz-adv-x="765" d="M-31 8l228 1505q4 18 18 30.5t33 12.5h270q18 0 32.5 -12t18.5 -31l228 -1505v-5q1 -20 -13 -36q-16 -18 -39 -18h-215q-18 0 -33.5 13t-17.5 32l-35 262h-122l-35 -262q-2 -20 -18.5 -32.5t-32.5 -12.5h-216q-23 1 -38 19q-13 16 -13 35v5zM80 51h110l35 262 q2 18 17.5 31.5t33.5 13.5h213q16 0 33 -12t19 -33l34 -262h111l-213 1403h-180zM256 547l63 477l7 39q4 18 18 30.5t33 12.5h12q18 0 32.5 -12.5t18.5 -30.5l6 -39l64 -477q2 -18 -12.5 -38t-38.5 -20h-152q-18 0 -35.5 17.5t-15.5 40.5zM367 592h32l-16 129z" />
<glyph unicode="B" horiz-adv-x="745" d="M31 0v1505q0 20 15 35.5t36 15.5h194q455 0 455 -450q0 -190 -108 -307q125 -123 125 -373q0 -92 -19.5 -171t-62.5 -148.5t-122 -111.5t-190 -46h-272q-20 0 -35.5 15.5t-15.5 35.5zM133 51h221q158 6 224.5 104.5t66.5 270.5q0 74 -13.5 134.5t-28.5 92t-37.5 57 t-31 30.5t-14.5 8q-10 6 -16 14q-14 14 -12 35.5t18 36.5q72 61 95.5 117.5t23.5 154.5q0 199 -81 273.5t-272 74.5h-143v-1403zM252 219v463q0 20 15.5 35.5t35.5 15.5h2q213 0 213 -282q0 -86 -20.5 -145.5t-53 -87.5t-62.5 -39t-63 -11h-9h-7q-20 0 -35.5 15.5 t-15.5 35.5zM252 885v401q0 20 15.5 35.5t35.5 15.5q29 0 55.5 -6t67.5 -27.5t66.5 -78t25.5 -140.5t-25.5 -140t-66.5 -77.5t-67.5 -27.5t-55.5 -6q-20 0 -35.5 15t-15.5 36zM354 274q62 23 62 176.5t-62 176.5v-353zM354 942q62 21 62 143.5t-62 143.5v-287z" />
<glyph unicode="C" horiz-adv-x="708" d="M16 289v20v887q0 8 1 21.5t7.5 52.5t17.5 74.5t37.5 79.5t61.5 75t92.5 52.5t129 21.5t129 -20.5t92 -54.5t61.5 -74t38 -79.5t17.5 -73.5t8.5 -54v-21v-207q0 -20 -15.5 -35.5t-36.5 -15.5h-206q-20 0 -36 15.5t-16 35.5v207v4v6q0 49 -32 49q-10 0 -18.5 -20.5 t-8.5 -38.5v-887q0 -18 8 -38.5t19 -20.5q32 0 32 47v8v4v207q0 20 16 35.5t36 15.5h206q20 0 36 -15t16 -36v-207q0 -8 -1 -21.5t-7.5 -52t-18.5 -74.5t-38 -80t-60.5 -75t-92 -52.5t-129.5 -21.5t-129 20.5t-93 54.5t-61.5 74t-36.5 80t-18.5 73.5t-7.5 54.5zM119 309 q0 -14 2 -34.5t15.5 -66.5t37 -82t72.5 -63.5t116.5 -27.5t116.5 27.5t72.5 62.5t37 81t15.5 67.5t2 35.5v156h-104v-154v-19t-6.5 -39t-18.5 -49.5t-40.5 -39t-69.5 -17.5q-39 0 -67 16.5t-39 40t-17 48t-6 41.5v16v887v17.5t6 39t17 49t39 39t67 17.5q41 0 68.5 -17.5 t40.5 -38t19.5 -48t6.5 -40v-20.5v-154h104v156q0 14 -2 34.5t-15.5 66.5t-37 82t-72.5 63.5t-116.5 27.5t-116.5 -27.5t-72.5 -62t-37 -81t-15.5 -68t-2 -35.5v-887z" />
<glyph unicode="D" horiz-adv-x="761" d="M31 0v1505q0 20 15 35.5t36 15.5h174q84 0 149.5 -10t116.5 -34.5t87 -55.5t61.5 -84t40 -108.5t22.5 -140.5t11.5 -167.5t3.5 -203.5t-3.5 -203t-11.5 -168t-22.5 -140.5t-40 -107.5t-61.5 -84t-87 -55.5t-116.5 -34.5t-149.5 -10h-174q-20 0 -35.5 15.5t-15.5 35.5z M133 51h123q57 0 100 3t82 14.5t65.5 22.5t49 38t37 50.5t26 70.5t16.5 89t8 113.5t4 135t1 164t-1 165t-4 136t-8 113.5t-16.5 88t-26 71t-37 51.5t-49 37.5t-65.5 22.5t-82 14.5t-100 3h-123v-1403zM252 221v1063q0 20 15.5 35.5t35.5 15.5q59 0 96 -14t61.5 -44t37 -92.5 t16.5 -140t4 -206.5v-84q0 -133 -1 -210t-8 -152t-20.5 -110.5t-39 -64.5t-59.5 -38t-87 -9q-20 0 -35.5 15.5t-15.5 35.5zM354 276q25 4 36 29t18.5 129.5t7.5 319.5q0 213 -7.5 317.5t-18.5 129t-36 28.5v-953z" />
<glyph unicode="E" horiz-adv-x="628" d="M31 0v1505q0 20 15 35.5t36 15.5h506q20 0 35.5 -15t15.5 -36v-227q0 -20 -15.5 -35.5t-35.5 -15.5h-234v-293h154q20 0 35.5 -15.5t15.5 -35.5v-242q0 -20 -15.5 -35.5t-35.5 -15.5h-154v-311h234q20 0 35.5 -15.5t15.5 -36.5v-227q0 -20 -15.5 -35.5t-35.5 -15.5h-506 q-20 0 -35.5 15.5t-15.5 35.5zM133 51h404v125h-234q-20 0 -35.5 15.5t-15.5 35.5v414q0 20 15.5 35.5t35.5 15.5h154v139h-154q-20 0 -35.5 15.5t-15.5 36.5v395q0 20 15.5 35.5t35.5 15.5h234v125h-404v-1403z" />
<glyph unicode="F" horiz-adv-x="616" d="M31 0v1505q0 20 15 35.5t36 15.5h526q20 0 35.5 -15.5t15.5 -35.5v-227q0 -20 -15 -35.5t-36 -15.5h-254v-293h154q20 0 35.5 -15.5t15.5 -35.5v-228q0 -20 -15.5 -35.5t-35.5 -15.5h-154v-604q0 -20 -15 -35.5t-36 -15.5h-221q-20 0 -35.5 15.5t-15.5 35.5zM133 51h119 v604q0 20 15.5 36t35.5 16h154v124h-154q-20 0 -35.5 15.5t-15.5 36.5v395q0 20 15.5 35.5t35.5 15.5h254v125h-424v-1403z" />
<glyph unicode="G" horiz-adv-x="737" d="M16 286q2 21 0 25v885q0 8 1 21.5t7.5 52.5t17.5 74.5t37.5 79.5t61.5 75t92.5 52.5t129 21.5t129 -20.5t92 -54.5t61.5 -74t38 -79.5t17.5 -73.5t8.5 -54v-21v-231q0 -20 -15.5 -36t-36.5 -16h-221q-20 0 -35.5 15.5t-15.5 36.5v231q0 20 -7 39.5t-16 19.5 q-10 0 -16 -19t-6 -40v-395h8h309q20 0 36 -15.5t16 -35.5v-750q0 -20 -15.5 -35.5t-36.5 -15.5h-131q-35 0 -47 33q-72 -49 -151 -50q-68 0 -121 20.5t-85 53.5t-55.5 73t-31.5 79t-15 74q-4 26 -4 44v10zM118 280q3 -22 5 -51.5t17.5 -64.5t36 -63.5t60 -47t91.5 -18.5 q78 0 131 69q10 10 22 15q20 8 40 -1t26 -28l14 -39h45v647h-207v-84h37q20 0 35.5 -15t15.5 -36v-272q-2 0 0 -16.5t-4 -41t-16 -47t-38 -40t-66.5 -17.5t-65.5 16.5t-38 41t-16 48t-5 39.5v17v905q2 0 0 16.5t4 41t16 47t38 40t66.5 17.5t65.5 -16.5t38 -41t16 -48 t5 -40.5v-16v-180h119v180q0 14 -2 34.5t-15.5 66.5t-37 82t-72.5 63.5t-116.5 27.5t-116.5 -27.5t-72.5 -62t-37 -81t-15.5 -68t-2 -35.5v-887v-2q-2 -3 -2 -12q0 -6 1 -15zM340 291q0 -20 7 -40t15 -20q10 0 16.5 19.5t6.5 40.5v221h-37h-8v-221z" />
<glyph unicode="H" horiz-adv-x="778" d="M31 0v1505q0 20 15 35.5t36 15.5h221q20 0 35.5 -15t15.5 -36v-571h70v571q0 20 15.5 35.5t35.5 15.5h221q20 0 36 -15t16 -36v-1505q0 -20 -15.5 -35.5t-36.5 -15.5h-221q-20 0 -35.5 15.5t-15.5 35.5v604h-70v-604q0 -20 -15 -35.5t-36 -15.5h-221q-20 0 -35.5 15.5 t-15.5 35.5zM133 51h119v604q0 20 15.5 36t35.5 16h172q20 0 35.5 -15.5t15.5 -36.5v-604h119v1403h-119v-571q0 -20 -15 -36t-36 -16h-172q-20 0 -35.5 15.5t-15.5 36.5v571h-119v-1403z" />
<glyph unicode="I" horiz-adv-x="385" d="M31 0v1505q0 20 15 35.5t36 15.5h221q20 0 35.5 -15t15.5 -36v-1505q0 -20 -15 -35.5t-36 -15.5h-221q-20 0 -35.5 15.5t-15.5 35.5zM133 51h119v1403h-119v-1403z" />
<glyph unicode="J" horiz-adv-x="423" d="M-39 -14v217q0 25 19.5 39t37.5 12q8 -2 15 -2h4q12 0 19 2t15.5 16.5t8.5 42.5v1192q0 20 15.5 35.5t35.5 15.5h221q20 0 35.5 -15t15.5 -36v-1226v-29q-8 -143 -104 -234q-87 -83 -252 -83q-18 0 -37 1q-20 2 -34.5 18t-14.5 34zM63 37q133 4 185.5 67.5t52.5 174.5 v1175h-119v-1141q0 -72 -34.5 -111.5t-84.5 -49.5v-115z" />
<glyph unicode="K" horiz-adv-x="768" d="M31 0v1505q0 20 15.5 35.5t35.5 15.5h221q20 0 35.5 -15t15.5 -36v-264l105 283q12 32 45 32h2h215q20 0 35.5 -15t15.5 -36q0 -10 -4 -18l-197 -481l226 -994q2 -7 2 -13q1 -17 -11 -31q-16 -19 -40 -19h-216q-18 0 -31.5 11t-17.5 28l-127 538l-2 -4v-522 q0 -20 -15 -35.5t-36 -15.5h-221q-20 0 -35.5 15.5t-15.5 35.5zM133 51h119v481q0 10 4 21l51 121l12 31q12 33 48 32h6q16 0 31.5 -11t19.5 -30l4 -30l145 -615h111l-215 946q-4 16 2 31l174 426h-104l-172 -469l-11 -27q-12 -31 -47 -30h-8q-20 0 -35.5 15t-15.5 36v475 h-119v-1403z" />
<glyph unicode="L" horiz-adv-x="604" d="M31 0v1505q0 20 15 35.5t36 15.5h221q20 0 35.5 -15t15.5 -36v-1249h242q20 0 35.5 -15.5t15.5 -35.5v-205q0 -20 -15.5 -35.5t-35.5 -15.5h-514q-20 0 -35.5 15.5t-15.5 35.5zM133 51h412v103h-242q-20 0 -35.5 15t-15.5 36v1249h-119v-1403z" />
<glyph unicode="M" horiz-adv-x="991" d="M31 0v1505q0 20 15 35.5t36 15.5h270q18 0 32.5 -12t18.5 -28l93 -490l92 490q4 18 19.5 29t31.5 11h270q20 0 36 -15t16 -36v-1505q0 -20 -15.5 -35.5t-36.5 -15.5h-204q-20 0 -36 15.5t-16 35.5v393l-59 -401q-4 -18 -18.5 -30.5t-32.5 -12.5h-94q-18 0 -33 12t-19 31 l-59 401v-393q0 -20 -15.5 -35.5t-35.5 -15.5h-205q-20 0 -35.5 15.5t-15.5 35.5zM133 51h103v959q0 20 15 35.5t36 15.5h12q18 0 33.5 -12.5t17.5 -32.5l8 -64l136 -901h4l135 901l8 64q2 18 16.5 31.5t34.5 13.5h13q20 0 35.5 -15.5t15.5 -35.5v-959h102v1403h-176 l-123 -645l-10 -78q-2 -18 -16.5 -31.5t-34.5 -13.5h-4q-18 0 -34 12.5t-18 32.5l-10 78l-123 645h-176v-1403z" />
<glyph unicode="N" horiz-adv-x="808" d="M31 0v1505q0 20 15 35.5t36 15.5h197q16 0 30.5 -11t18.5 -25l145 -531v516q0 20 15.5 35.5t35.5 15.5h203q20 0 35.5 -15t15.5 -36v-1505q0 -20 -15 -35.5t-36 -15.5h-197q-16 0 -30.5 11.5t-18.5 25.5l-145 530v-516q0 -20 -15.5 -35.5t-35.5 -15.5h-203 q-20 0 -35.5 15.5t-15.5 35.5zM133 51h100v803q0 20 15.5 35.5t36.5 15.5h12q16 0 30.5 -10t18.5 -29l19 -67l204 -748h107v1403h-101v-803q0 -20 -15 -35.5t-36 -15.5h-12q-16 0 -30.5 10.5t-18.5 28.5l-19 68l-204 747h-107v-1403z" />
<glyph unicode="O" d="M16 289v20v887q0 8 1 21.5t7.5 52.5t17.5 74.5t37.5 79.5t61.5 75t92.5 52.5t129 21.5t129 -20.5t92 -54.5t61.5 -74t38 -79.5t17.5 -73.5t8.5 -54v-21v-887q0 -8 -1 -21.5t-7.5 -52t-18.5 -74.5t-38 -80t-60.5 -75t-92 -52.5t-129.5 -21.5t-129 20.5t-93 54.5t-61.5 74 t-36.5 80t-18.5 73.5t-7.5 54.5zM119 309q0 -14 2 -34.5t15.5 -66.5t37 -82t72.5 -63.5t116.5 -27.5t116.5 27.5t72.5 62.5t37 81t15.5 67.5t2 35.5v887q0 14 -2 34.5t-15.5 66.5t-37 82t-72.5 63.5t-116.5 27.5t-116.5 -27.5t-72.5 -62t-37 -81t-15.5 -68t-2 -35.5v-887z M238 293v16v887q2 0 0 16v9q0 15 4 33q6 24 16 46.5t38 40t66.5 17.5t65.5 -16.5t38 -41t16 -48t5 -40.5v-16v-887q-2 -1 0 -17v-8q0 -14 -4 -32q-6 -24 -16 -47t-38 -40.5t-66.5 -17.5t-65.5 16.5t-38 41t-16 48t-5 40.5zM340 309q0 -20 7 -39.5t15 -19.5q10 0 16.5 19.5 t6.5 39.5v887q0 20 -7 39.5t-16 19.5q-10 0 -16 -19t-6 -40v-887z" />
<glyph unicode="P" horiz-adv-x="720" d="M31 0v1505q0 20 15 35.5t36 15.5h221q184 0 312 -121.5t128 -379.5q0 -123 -31.5 -219.5t-88 -153.5t-124 -89t-145.5 -40v-553q0 -20 -15 -35.5t-36 -15.5h-221q-20 0 -35.5 15.5t-15.5 35.5zM133 51h119v551q0 20 15.5 35.5t35.5 15.5q147 0 242.5 91.5t95.5 310.5 q0 399 -338 399h-170v-1403zM252 827v453q0 20 15.5 35.5t35.5 15.5q123 0 170 -71.5t47 -212.5q0 -139 -47 -205t-170 -66q-20 0 -35.5 15.5t-15.5 35.5zM354 883q39 6 51.5 33.5t12.5 130t-13.5 136.5t-50.5 42v-342z" />
<glyph unicode="Q" horiz-adv-x="729" d="M16 289v20v887q0 8 1 21.5t7.5 52.5t17.5 74.5t37.5 79.5t61.5 75t92.5 52.5t129 21.5t129 -20.5t92 -54.5t61.5 -74t38 -79.5t17.5 -73.5t8.5 -54v-21v-887q0 -84 -35 -172q14 -8 37 -12q18 -4 29.5 -19.5t11.5 -31.5v-189q0 -20 -15.5 -35.5t-36.5 -15.5 q-164 0 -249 109q-43 -10 -89 -11q-72 0 -129 20.5t-93 54.5t-61.5 74t-36.5 80t-18.5 73.5t-7.5 54.5zM119 309q0 -14 2 -34.5t15.5 -66.5t37 -82t72.5 -63.5t116 -27.5q47 0 95 16q10 3 19 3q26 0 42 -25q41 -74 131 -88v94q-47 20 -78 61q-18 25 -4 54q39 75 39 159v887 q0 14 -2 34.5t-15.5 66.5t-37 82t-72.5 63.5t-116.5 27.5t-116.5 -27.5t-72.5 -62t-37 -81t-15.5 -68t-2 -35.5v-887zM238 293v16v887q2 0 0 16v9q0 14 4 33q6 24 16 46.5t38 40t66.5 17.5t65.5 -16.5t38 -41t16 -48t5 -40.5v-16v-887q-2 0 0 -17q1 -4 1 -8q0 -14 -5 -32 q-6 -25 -16 -47.5t-38 -40t-66.5 -17.5t-65.5 16.5t-38 41t-16 48t-5 40.5zM340 309q0 -20 7 -39.5t15 -19.5q10 0 16.5 19.5t6.5 39.5v887q0 20 -7 39.5t-16 19.5q-10 0 -16 -19t-6 -40v-887z" />
<glyph unicode="R" horiz-adv-x="739" d="M31 0v1505q0 20 15 35.5t36 15.5h221q215 0 321.5 -126.5t106.5 -358.5q0 -252 -119 -362l138 -699q1 -5 1 -9q1 -19 -13 -34q-16 -18 -40 -18h-221q-18 0 -32.5 12t-18.5 31l-72 401v-393q0 -20 -15 -35.5t-36 -15.5h-221q-20 0 -35.5 15.5t-15.5 35.5zM133 51h119v584 q0 20 15.5 35.5t35.5 15.5h59q16 0 32 -12t20 -31l106 -592h117l-131 668q-6 33 22 53q45 31 73 112t28 187q0 201 -77 292t-249 91h-170v-1403zM252 840v446q0 20 15.5 35.5t35.5 15.5q35 0 66.5 -9t68.5 -35.5t58.5 -85t21.5 -144.5t-21.5 -144.5t-58.5 -85t-68.5 -36 t-66.5 -9.5q-20 0 -35.5 15.5t-15.5 36.5zM354 897q62 25 62 166t-62 166v-332z" />
<glyph unicode="S" horiz-adv-x="702" d="M-14 422q0 20 13 34.5t34 16.5l217 21q23 2 39 -14.5t16 -37.5q0 -204 52 -204h1q39 0 39 114q0 12 -3 25.5t-9 30t-12 30t-18.5 35t-20.5 35.5t-24.5 39.5t-25 39t-28.5 43t-29 42.5q-68 100 -104.5 160.5t-71.5 155.5t-35 181q0 70 18.5 137.5t56.5 128t106.5 98.5 t156.5 40h11q83 0 148 -29q69 -31 105.5 -78t60 -111.5t31 -118.5t7.5 -114q0 -20 -13.5 -34.5t-33.5 -16.5l-217 -20q-23 -2 -39.5 14t-16.5 37q0 53 -8 93t-15 56.5t-14 16.5q-24 -2 -24 -92v-7q0 -35 26.5 -91t52 -95t87.5 -127q6 -10 18 -31q66 -94 98.5 -148 t65.5 -144.5t33 -170.5q0 -182 -83 -306t-276 -124q-117 0 -195.5 43t-114.5 121t-49 153t-13 173zM88 375q4 -82 14.5 -138.5t38 -105.5t81.5 -72.5t136 -23.5q143 0 199.5 85t56.5 242q0 66 -31.5 147t-64.5 134t-102 156q-8 14 -40 59t-45.5 63.5t-36 57.5t-32.5 64.5 t-19.5 60.5t-9.5 65q0 197 127 201q125 0 138 -213l114 12q-2 63 -15 113.5t-40 95.5t-77 70q-45 22 -107 22h-15q-121 -2 -180 -89t-59 -212q0 -96 49 -198.5t145 -241.5q12 -20 48 -71.5t53.5 -79t41 -70.5t34 -81t10.5 -75q0 -217 -142 -217q-47 0 -79.5 23.5t-47 66.5 t-20.5 79t-8 83z" />
<glyph unicode="T" horiz-adv-x="647" d="M-47 1278v227q0 20 15.5 35.5t35.5 15.5h639q20 0 35.5 -15t15.5 -36v-227q0 -20 -15 -35.5t-36 -15.5h-158v-1227q0 -20 -15 -35.5t-36 -15.5h-221q-20 0 -35.5 15.5t-15.5 35.5v1227h-158q-20 0 -35.5 15t-15.5 36zM55 1329h158q20 0 35.5 -15.5t15.5 -35.5v-1227h119 v1227q0 20 15.5 35.5t35.5 15.5h158v125h-537v-125z" />
<glyph unicode="U" horiz-adv-x="749" d="M29 289v20v1196q0 20 15 35.5t36 15.5h221q20 0 35.5 -15t15.5 -36v-1196q0 -20 7.5 -39.5t15.5 -19.5q10 0 16 19.5t6 39.5v1196q0 20 16 35.5t36 15.5h221q20 0 35.5 -15t15.5 -36v-1196q0 -8 -1 -21.5t-7 -52t-18.5 -74.5t-38 -80t-60.5 -75t-92.5 -52.5t-128.5 -21.5 q-72 0 -129.5 20.5t-93 54.5t-61 74t-37 80t-18.5 73.5t-7 54.5zM131 309q0 -14 2 -34.5t15.5 -66.5t37 -82t72.5 -63.5t116.5 -27.5t117 27.5t73 62.5t36.5 81t15 67.5t2 35.5v1145h-118v-1145q-2 0 0 -16.5t-4.5 -41t-16.5 -47t-37.5 -40t-66.5 -17.5t-65.5 16.5t-38 41 t-16.5 48t-5 40.5v16v1145h-119v-1145z" />
<glyph unicode="V" horiz-adv-x="716" d="M-33 1497v5q-1 20 13 36q16 18 38 18h215q18 0 34 -13t18 -32l73 -555l74 555q2 20 18.5 32.5t32.5 12.5h215q22 0 38 -18q14 -16 14 -36v-5l-230 -1505q-4 -18 -18.5 -30.5t-32.5 -12.5h-221q-18 0 -32.5 12t-18.5 31zM78 1454l213 -1403h135l213 1403h-111l-104 -782 l-8 -64q-2 -18 -16.5 -31.5t-34.5 -13.5h-13q-18 0 -33.5 12.5t-17.5 32.5l-8 64l-105 782h-110z" />
<glyph unicode="W" horiz-adv-x="1036" d="M-27 1499v5q-1 20 13 35q16 17 39 17h204q20 0 35 -13t17 -32l51 -460l55 460q2 18 17.5 31.5t33.5 13.5h160q20 0 34.5 -13t16.5 -32l56 -460l51 460q2 18 17 31.5t34 13.5h205q23 0 38 -18t13 -39l-203 -1505q-2 -20 -17.5 -32.5t-33.5 -12.5h-172q-18 0 -32.5 12 t-18.5 31l-68 475l-67 -475q-4 -18 -18.5 -30.5t-33.5 -12.5h-172q-18 0 -33.5 12t-17.5 33zM84 1454l188 -1403h82l97 670l12 86q4 20 18.5 32.5t32.5 12.5h8q18 0 32.5 -12.5t18.5 -32.5l13 -86l96 -670h82l188 1403h-100l-82 -735l-4 -49q-2 -20 -16.5 -33.5t-34.5 -13.5 h-17q-18 0 -33.5 12t-17.5 33l-6 49l-88 737h-70l-88 -737l-6 -49q-2 -18 -16.5 -31.5t-34.5 -13.5h-16q-18 0 -34 13t-18 34l-4 49l-82 735h-100z" />
<glyph unicode="X" horiz-adv-x="737" d="M-35 0q0 8 2 14l240 777l-236 698q-6 20 3.5 38.5t29.5 26.5q8 2 16 2h218q37 0 49 -34l82 -260l82 260q12 34 47 34h2h217q20 0 35.5 -15t15.5 -36l-2 -16l-236 -698l240 -777q2 -7 2 -14q0 -12 -6 -24q-10 -20 -31 -25q-6 -2 -14 -2h-217q-39 0 -49 37l-86 303 l-86 -303q-10 -37 -50 -37h-217q-20 0 -35.5 15.5t-15.5 35.5zM86 51h109l116 410l4 16q2 18 16.5 29.5t33.5 11.5h8q16 0 31.5 -11t17.5 -30l4 -16l117 -410h108l-223 725q-4 14 0 31l217 647h-108l-109 -346l-6 -18q-12 -35 -49 -35h-8q-37 0 -50 35l-6 18l-108 346h-109 l217 -647q4 -16 0 -31z" />
<glyph unicode="Y" horiz-adv-x="700" d="M-35 1493q-2 7 -2 14q0 12 7 25q12 18 32 22q6 2 12 2h217q18 0 33 -11t17 -27l69 -301l70 301q4 16 18.5 27t30.5 11h217q20 0 35.5 -15t15.5 -36l-2 -12l-223 -858v-635q0 -20 -15.5 -35.5t-35.5 -15.5h-221q-20 0 -36 15.5t-16 35.5v635zM80 1454l209 -801q2 -6 2 -12 v-590h119v590q0 6 2 12l209 801h-111l-102 -442q0 -4 -2 -8l-7 -15q-14 -31 -47 -31h-4q-33 0 -47 31l-6 15q-2 4 -2 8l-103 442h-110z" />
<glyph unicode="Z" horiz-adv-x="626" d="M-31 0v238q0 8 2 16l324 981h-225q-20 0 -36 15.5t-16 35.5v219q0 20 15.5 35.5t36.5 15.5h536q20 0 35.5 -15t15.5 -36v-219q0 -8 -2 -16l-329 -1000h280q20 0 35.5 -15t15.5 -36v-219q0 -20 -15 -35.5t-36 -15.5h-586q-20 0 -35.5 15.5t-15.5 35.5zM72 51h483v117h-301 q-8 0 -16 2q-20 6 -29.5 25.5t-3.5 40.5l350 1058v160h-434v-117h246q8 0 16 -2q20 -6 29.5 -25.5t3.5 -39.5l-344 -1041v-178z" />
<glyph unicode="[" horiz-adv-x="538" d="M31 -213v1718q0 20 15 35.5t36 15.5h399q20 0 35.5 -15.5t15.5 -35.5v-196q0 -20 -15 -36t-36 -16h-151v-1222h151q20 0 35.5 -15.5t15.5 -35.5v-197q0 -20 -15 -35.5t-36 -15.5h-399q-20 0 -35.5 15.5t-15.5 35.5zM133 -162h297v94h-151q-20 0 -36 15.5t-16 36.5v1325 q0 20 15.5 35.5t36.5 15.5h151v94h-297v-1616z" />
<glyph unicode="\" horiz-adv-x="792" d="M-41 1675q-6 20 4 40t29 26q8 2 16 2h162q37 0 49 -35l615 -1872q6 -20 -3.5 -39.5t-29.5 -25.5l-17 -2h-168q-37 0 -49 34zM78 1640l575 -1769h60l-580 1769h-55z" />
<glyph unicode="]" horiz-adv-x="538" d="M6 -16q0 20 15.5 35.5t35.5 15.5h152v1222h-152q-20 0 -35.5 16t-15.5 36v196q0 20 15.5 35.5t35.5 15.5h400q20 0 35.5 -15t15.5 -36v-1718q0 -20 -15.5 -35.5t-35.5 -15.5h-400q-20 0 -35.5 15.5t-15.5 35.5v197zM109 -68v-94h297v1616h-297v-94h151q20 0 35.5 -15.5 t15.5 -35.5v-1325q0 -20 -15 -36t-36 -16h-151z" />
<glyph unicode="^" horiz-adv-x="1101" d="M2 809q0 12 6 25l381 696q14 26 45 26h234q31 0 45 -26l381 -696q10 -18 4 -39t-25 -31q-12 -6 -24 -6h-199q-31 0 -45 26l-254 461l-254 -461q-14 -27 -45 -26h-199q-20 0 -35.5 15t-15.5 36zM139 860h82l285 516q8 12 20 21q18 10 39 4t31 -25l285 -516h82l-326 594 h-172z" />
<glyph unicode="_" horiz-adv-x="1210" d="M23 -154q0 20 15 36t36 16h1063q20 0 35.5 -15.5t15.5 -36.5v-172q0 -20 -15.5 -35.5t-35.5 -15.5h-1063q-20 0 -35.5 15.5t-15.5 35.5v172zM125 -205v-69h960v69h-960z" />
<glyph unicode="`" horiz-adv-x="1024" d="M242 1491.5q2 21.5 18 36.5q15 12 33 12h215q29 0 45 -24l106 -185q10 -18 4 -39.5t-22 -31.5q-12 -6 -27 -7h-159q-23 0 -39 19l-162 184q-14 14 -12 35.5zM406 1438l71 -82h49l-47 82h-73z" />
<glyph unicode="a" horiz-adv-x="681" d="M-2 260q0 86 22.5 159t54 120t76 86t78 59.5t70.5 38.5t45 25v106q0 39 -6 53q-4 -12 -8 -119q0 -20 -15.5 -34.5t-35.5 -14.5h-207q-20 0 -36 15.5t-16 36.5v47q0 143 95.5 246.5t234.5 103.5q123 0 213 -88t90 -217v-688q0 -104 15 -187q1 -5 1 -9q-1 -19 -15 -33 q-18 -17 -38 -17h-202q-23 0 -39 16q-8 10 -15 23q-68 -55 -145 -56q-82 0 -149.5 78t-67.5 250zM100 260q0 -61 10.5 -106t23.5 -66.5t30.5 -35t29 -15.5t21.5 -2q37 0 72 26.5t49 53.5t45 26h14q20 0 35.5 -15t15.5 -36q0 -23 3 -39h108q-6 59 -6 144v688q0 86 -59.5 144 t-141.5 58q-94 0 -159.5 -69.5t-67.5 -173.5h104q2 166 110.5 166t108.5 -154v-123q0 -8 -2 -14q-10 -37 -41.5 -63.5t-68.5 -43t-79 -43t-76 -59.5t-56.5 -96.5t-22.5 -151.5zM201 291q0 96 43 178t131 119q10 4 20 4q20 0 35.5 -15.5t15.5 -35.5v-287q0 -53 -42 -86 t-95 -33q-108 0 -108 156zM303 291q0 -35 10 -53q12 2 19.5 5t9.5 7l2 4v182q-41 -57 -41 -145z" />
<glyph unicode="b" horiz-adv-x="686" d="M31 0v1505q0 20 15 35.5t36 15.5h207q20 0 35.5 -15t15.5 -36v-354q61 37 113 37q74 0 125 -49t68.5 -106.5t17.5 -114.5v-715q0 -57 -17.5 -114.5t-69 -107t-124.5 -49.5q-55 0 -121 41q-14 -25 -43 -24h-207q-20 0 -35.5 15.5t-15.5 35.5zM133 51h105v23q0 20 15 35.5 t36.5 15.5t36.5 -14q6 -6 25.5 -22.5t51 -35t50.5 -18.5q47 0 77.5 50t30.5 118v715q0 68 -30.5 117.5t-77.5 49.5q-18 0 -51 -19t-52.5 -34.5t-23.5 -21.5q-16 -14 -37 -15q-20 0 -35.5 15.5t-15.5 36.5v407h-105v-1403zM238 246v628q0 45 32.5 82t79.5 37t77 -35.5 t30 -83.5v-628q0 -47 -30 -83t-77 -36q-45 0 -78.5 35t-33.5 84zM340 246q0 -10 10 -17q4 6 4 17v628q0 10 -4 17q-10 -8 -10 -17v-628z" />
<glyph unicode="c" horiz-adv-x="645" d="M14 315v490q0 193 87 288t229 95q317 0 317 -373v-88q0 -20 -15.5 -35.5t-35.5 -15.5h-207q-20 0 -35.5 15.5t-15.5 35.5v135q0 27 -2 39h-6h-2q-4 -10 -4 -39v-604q0 -29 4 -39h2h6q2 12 2 39v156q0 20 15.5 35.5t35.5 15.5h207q20 0 35.5 -15.5t15.5 -35.5v-109 q0 -373 -317 -373q-141 0 -228.5 95.5t-87.5 287.5zM117 315q0 -160 55 -220t158 -60q119 0 167 53t48 217v57h-105v-104q0 -86 -37 -119q-28 -22 -69 -22h-4q-43 0 -72 26q-8 6 -14 14.5t-9.5 15.5t-6.5 16.5t-4 15.5t-2 16t-1 13.5v12.5v11v604v10v15t1 14t2 16.5t4 15.5 t7.5 16t10.5 15.5t14 14.5q29 25 70 25q47 0 76 -25q35 -33 34 -117v-84h105v37q0 164 -48 217t-167 53q-102 0 -157.5 -60t-55.5 -220v-490z" />
<glyph unicode="d" horiz-adv-x="686" d="M23 203v715q0 57 17 114.5t68.5 106.5t124.5 49q51 0 113 -37v354q0 20 15.5 35.5t35.5 15.5h207q20 0 35.5 -15.5t15.5 -35.5v-1505q0 -20 -15 -35.5t-36 -15.5h-207q-29 0 -43 24q-66 -41 -121 -41q-74 0 -125 49.5t-68 106.5t-17 115zM125 203q0 -68 30.5 -118 t77.5 -50q18 0 50 18.5t51.5 34.5t25.5 23q16 14 37 14q20 0 36 -15.5t16 -35.5v-23h104v1403h-104v-407q0 -20 -15.5 -36t-37 -16t-36.5 15q-4 6 -23.5 21.5t-52 34.5t-51.5 19q-47 0 -77.5 -50t-30.5 -117v-715zM229 246v628q0 47 30 83t77 36t80 -36.5t33 -82.5v-628 q0 -49 -34 -84t-79 -35q-47 0 -77 36t-30 83zM332 246q0 -10 4 -17q10 7 10 17v628q0 8 -10 17q-4 -6 -4 -17v-628z" />
<glyph unicode="e" horiz-adv-x="659" d="M14 279v563q0 8 1 20t7.5 48t16.5 69t34.5 73t56.5 68.5t85 48t118.5 19.5t119 -18.5t85 -49t55 -66.5t35 -72t17.5 -66.5t6 -49.5v-18v-326q0 -20 -15 -35.5t-36 -15.5h-291v-192q0 -18 8.5 -40t16.5 -22t15 20.5t7 41.5v122q0 20 16 36t36 16h192q20 0 35.5 -15.5 t15.5 -36.5v-129q0 -6 -1 -18t-7 -48t-16.5 -68t-35 -71.5t-56 -67.5t-85 -47.5t-119 -19.5t-117.5 19.5t-85 49.5t-56.5 66.5t-34.5 74.5t-16.5 68t-6.5 50zM117 279q0 -12 2 -32t14 -60t32.5 -71.5t63.5 -56t103 -24.5q59 0 103 24.5t64.5 54t33 69.5t14.5 58.5t2 30.5v78 h-90v-71q-2 0 0 -16.5t-4 -41t-16.5 -48t-38 -41t-66.5 -17.5t-66.5 16t-39 41t-16.5 48.5t-5 41.5v17v243q0 20 15.5 35.5t35.5 15.5h291v275q0 12 -2 30.5t-13.5 58.5t-32 69.5t-64.5 54t-103 24.5t-102.5 -24.5t-65 -55t-33.5 -71.5t-14 -60.5t-2 -31.5v-563zM207 684 v158q2 2 0 17v7q0 14 5 34q7 26 17.5 49.5t38 41t66.5 17.5t65.5 -17.5t38 -42t16.5 -49.5t5 -41v-16v-158q0 -20 -15.5 -35.5t-35.5 -15.5h-150q-20 0 -35.5 15.5t-15.5 35.5zM309 735h47v107q0 20 -7 41.5t-15 21.5t-16.5 -22.5t-8.5 -40.5v-107z" />
<glyph unicode="f" horiz-adv-x="475" d="M-31 934v186q0 20 15.5 35.5t35.5 15.5h54q2 393 288 394q76 0 117 -19q31 -14 31 -47v-178q0 -20 -15.5 -35.5t-35.5 -15.5q-8 0 -15 2q-25 6 -45 6q-16 -23 -16 -107h53q20 0 35.5 -15t15.5 -36v-186q0 -20 -15 -35.5t-36 -15.5h-53v-883q0 -20 -15.5 -35.5 t-35.5 -15.5h-207q-20 0 -35.5 15.5t-15.5 35.5v883h-54q-20 0 -35.5 15t-15.5 36zM72 985h53q20 0 35.5 -15.5t15.5 -35.5v-883h105v883q0 20 15 35.5t36 15.5h53v84h-53q-20 0 -35.5 15.5t-15.5 35.5v29l-2 14v30.5t2 37t5 42t12 40t21.5 35t33 23.5t44.5 9h11v80 q-20 2 -46 2q-63 0 -104 -27.5t-57.5 -82t-20.5 -95t-4 -106.5v-31q0 -20 -15.5 -35.5t-35.5 -15.5h-53v-84z" />
<glyph unicode="g" horiz-adv-x="700" d="M-39 -184q0 92 107 168q-70 57 -70 151q0 88 98 172q-86 98 -88 240v305q0 8 1 19.5t7.5 46t17.5 66.5t34.5 71t55.5 66.5t83 47t115 19.5q127 0 210 -80q90 80 166 80q20 0 36 -15.5t16 -35.5v-185q0 -20 -15.5 -35.5t-36.5 -15.5q-33 0 -61 -6q2 -23 2 -37v-317 q0 -8 -1 -19.5t-7 -44.5t-17.5 -63.5t-35 -67.5t-54 -64.5t-82 -47t-112.5 -21.5q20 -6 90 -16q330 -47 330 -312q0 -92 -37 -161.5t-99.5 -105.5t-130 -53.5t-139.5 -17.5q-82 2 -145.5 15.5t-119.5 42t-87 82t-31 129.5zM63 -184q0 -88 63.5 -125t217.5 -41q135 0 219 55 t84 180q0 55 -18.5 94t-55 61.5t-75.5 34t-95 19.5q-4 2 -31.5 5t-44 6.5t-43 11.5t-42 19t-27.5 31.5t-12 47.5q0 49 47 90q16 16 41 12q8 -2 31 -2q57 0 99 22.5t63.5 51.5t33.5 66t15.5 55t3.5 31v317q0 25 -9 57q-4 16 3.5 33t23.5 25q39 20 92 26v68q-35 -23 -82 -70 l-8 -4q-16 -12 -37.5 -9t-32.5 22q-56 79 -162 79h-3q-55 0 -98.5 -23.5t-64 -53t-32.5 -68.5t-14 -57.5t-2 -30.5v-305q0 -14 4 -42t28.5 -81t63.5 -78q10 -8 16 -18q10 -18 4 -39t-24 -31q-39 -20 -71 -60t-32 -63q0 -76 88 -100q23 -6 33 -27q8 -20 1 -39.5t-25 -29.5 q-59 -27 -96.5 -62t-37.5 -61zM162 -150q0 84 102 144q16 8 35 6l107 -20q111 -20 139 -74q12 -23 12 -58q0 -53 -43 -83.5t-83 -37t-83 -6.5q-80 0 -133 34t-53 95zM210 859v5q0 11 3 33q4 27 14.5 47.5t34 36.5t60.5 16q29 0 53 -12q61 -37 61 -131v-12v-303v-12 q0 -94 -61 -130q-25 -12 -53 -12q-27 0 -50 12q-61 34 -61 128v14v303q0 6 -1 17zM264 -150q-2 -26 78 -26h6q35 0 67 9t40 17v7q-16 12 -70 20l-86 19q-35 -25 -35 -46zM313 535q0 -6 2 -24.5t7 -23.5h2q4 4 7 22.5t3 25.5v2v307v2q0 6 -3 25.5t-7 23.5h-2 q-2 -4 -4.5 -16.5t-3.5 -21.5t-1 -10v-3v-307v-2z" />
<glyph unicode="h" horiz-adv-x="690" d="M31 0v1505q0 20 15 35.5t36 15.5h207q20 0 35.5 -15t15.5 -36v-364q63 47 117 47q106 0 156.5 -87t50.5 -183v-918q0 -20 -15.5 -35.5t-36.5 -15.5h-206q-20 0 -36 15.5t-16 35.5v883q-6 -4 -14 -15v-868q0 -20 -15.5 -35.5t-35.5 -15.5h-207q-20 0 -35.5 15.5 t-15.5 35.5zM133 51h105v832q0 12 6 22q0 4 3 9.5t12 19.5t20.5 24.5t31.5 19.5t45 9q35 0 68 -24.5t33 -75.5v-836h104v867q0 68 -29.5 117.5t-74.5 49.5q-16 0 -42 -19t-54.5 -47t-45.5 -36q-12 -8 -26 -8q-20 0 -35.5 15.5t-15.5 35.5v428h-105v-1403z" />
<glyph unicode="i" horiz-adv-x="370" d="M31 0v1120q0 20 15 35.5t36 15.5h207q20 0 35.5 -15t15.5 -36v-1120q0 -20 -15.5 -35.5t-35.5 -15.5h-207q-20 0 -35.5 15.5t-15.5 35.5zM31 1298v207q0 20 15 35.5t36 15.5h207q20 0 35.5 -15t15.5 -36v-207q0 -20 -15.5 -35.5t-35.5 -15.5h-207q-20 0 -35.5 15.5 t-15.5 35.5zM133 51h105v1018h-105v-1018zM133 1350h105v104h-105v-104z" />
<glyph unicode="j" horiz-adv-x="364" d="M-96 -182q0 20 15 35.5t36 15.5q6 0 14 -2q23 -6 43 -6q12 18 13 112v1147q0 20 15.5 35.5t35.5 15.5h207q20 0 35.5 -15t15.5 -36v-1149q0 -43 -1 -68.5t-8.5 -82t-25.5 -94t-48 -78.5t-83 -62.5t-123 -21.5q-76 0 -113 18q-29 12 -28 45v191zM6 -242v-90q18 -2 39 -2 q53 0 90 20.5t55.5 48t27.5 75t11 79t2 82.5v1098h-104v-1096v-14q2 -14 2 -28.5t-2 -35t-5 -38t-12.5 -37t-21.5 -32.5t-31.5 -21.5t-44.5 -8.5h-6zM25 1298v207q0 20 15 35.5t36 15.5h207q20 0 35.5 -15t15.5 -36v-207q0 -20 -15.5 -35.5t-35.5 -15.5h-207 q-20 0 -35.5 15.5t-15.5 35.5zM127 1350h104v104h-104v-104z" />
<glyph unicode="k" horiz-adv-x="641" d="M31 0v1505q0 20 15.5 35.5t35.5 15.5h207q20 0 35.5 -15t15.5 -36v-436l22 68q12 34 48 34h2h186q20 0 35.5 -15t15.5 -36q0 -10 -4 -18l-143 -350l184 -740q2 -7 2 -14q0 -12 -7 -24q-11 -18 -32 -23l-12 -2h-199q-18 0 -32.5 11t-16.5 28l-49 215v-203 q0 -20 -15.5 -35.5t-35.5 -15.5h-207q-20 0 -35.5 15.5t-15.5 35.5zM133 51h105v336q0 10 4 19l26 65l6 16q12 33 48 33h10q16 0 30.5 -11t18.5 -28l4 -16l94 -414h92l-172 692q-4 16 2 31l121 295h-73l-89 -258l-12 -37q-12 -35 -49 -35h-10q-20 0 -35.5 15.5t-15.5 36.5 v663h-105v-1403z" />
<glyph unicode="l" horiz-adv-x="370" d="M31 0v1505q0 20 15 35.5t36 15.5h207q20 0 35.5 -15t15.5 -36v-1505q0 -20 -15.5 -35.5t-35.5 -15.5h-207q-20 0 -35.5 15.5t-15.5 35.5zM133 51h105v1403h-105v-1403z" />
<glyph unicode="m" horiz-adv-x="1021" d="M31 0v1120q0 20 15 35.5t36 15.5h207q35 0 49 -34q66 51 123 51q98 0 155 -92q31 29 48.5 43t53.5 31.5t70 17.5q106 0 156.5 -87t50.5 -183v-918q0 -20 -15 -35.5t-36 -15.5h-194q-20 0 -36 15.5t-16 35.5v885h-4q-10 -2 -26 -21v-864q0 -20 -15.5 -35.5t-36.5 -15.5 h-194q-20 0 -35.5 15.5t-15.5 35.5v885h-4q-10 -2 -27 -21v-864q0 -20 -15.5 -35.5t-35.5 -15.5h-207q-20 0 -35.5 15.5t-15.5 35.5zM133 51h105v832q0 16 10 28q4 8 12 21.5t40 34t67 20.5q47 0 76.5 -27.5t29.5 -72.5v-836h92v832q0 16 10 28q4 8 12.5 21.5t40 34 t66.5 20.5q47 0 77 -27.5t30 -72.5v-836h92v867q0 68 -29.5 117.5t-75.5 49.5q-16 0 -42.5 -19t-63.5 -52t-51 -43q-6 -6 -17 -8q-18 -6 -37.5 4t-25.5 30q-27 88 -90 88q-16 0 -43 -19t-57.5 -47t-45.5 -36q-12 -8 -26 -8q-20 0 -35.5 15.5t-15.5 35.5v43h-105v-1018z" />
<glyph unicode="n" horiz-adv-x="690" d="M31 0v1120q0 20 15 35.5t36 15.5h207q35 0 47 -32q66 49 121 49q106 0 156.5 -87t50.5 -183v-918q0 -20 -15.5 -35.5t-36.5 -15.5h-206q-20 0 -36 15.5t-16 35.5v883q-6 -4 -14 -15v-868q0 -20 -15.5 -35.5t-35.5 -15.5h-207q-20 0 -35.5 15.5t-15.5 35.5zM133 51h105 v832q0 12 6 22q0 4 3 9.5t12 19.5t20.5 24.5t31.5 19.5t45 9q35 0 68 -24.5t33 -75.5v-836h104v867q0 68 -29.5 117.5t-74.5 49.5q-16 0 -42 -19t-54.5 -47t-45.5 -36q-12 -8 -26 -8q-20 0 -35.5 15.5t-15.5 35.5v43h-105v-1018z" />
<glyph unicode="o" horiz-adv-x="657" d="M12 259v20v563q0 6 1 19t6.5 49t16.5 69t34.5 73t55.5 68.5t84 48t118 19.5t119 -18.5t84.5 -49t55 -66.5t35 -73t17.5 -66.5t6 -38.5v-28v-576v-18t-6 -48t-17.5 -68t-35 -71.5t-55 -67.5t-85 -47.5t-119 -19.5t-117.5 19.5t-85 48.5t-56.5 70t-33.5 72.5t-16.5 68.5 t-6.5 48zM115 279q0 -14 2 -33t13 -59t31.5 -71.5t63.5 -56t103 -24.5q59 0 103 24.5t64.5 54t32 69.5t13.5 57.5t2 31.5v576q0 12 -2 30.5t-13.5 58.5t-32 69.5t-64.5 54t-103 24.5q-57 0 -101.5 -24.5t-65 -55t-31.5 -71.5t-13 -59.5t-2 -32.5v-563zM206 858q-1 5 -1 12 q0 13 4 30q6 26 16.5 49.5t37 41t65.5 17.5t65.5 -17.5t36.5 -42t16 -49.5q5 -19 5 -33v-8v-18v-559q-2 -3 0 -19v-8q-1 -14 -5 -32q-6 -24 -16 -48t-36.5 -41.5t-65.5 -17.5t-64.5 17.5t-37 41t-16.5 48t-3 40.5v19v559q2 2 -1 18zM309 276q0 -18 6.5 -38.5t12.5 -20.5 q8 0 14 20.5t6 38.5v3v563v2q0 20 -6 40.5t-14 20.5q-6 0 -12.5 -21.5t-6.5 -39.5v-2v-563v-3z" />
<glyph unicode="p" horiz-adv-x="686" d="M31 -385v1505q0 20 15 35.5t36 15.5h207q29 0 43 -24q66 41 121 41q74 0 125 -49t68.5 -106.5t17.5 -114.5v-715q0 -57 -17.5 -114.5t-69 -107t-124.5 -49.5q-51 0 -113 37v-354q0 -20 -15.5 -35.5t-35.5 -15.5h-207q-20 0 -35.5 15.5t-15.5 35.5zM133 -334h105v408 q0 20 15 35.5t36.5 15.5t36.5 -14q6 -6 25.5 -22.5t51 -35t50.5 -18.5q47 0 77.5 50t30.5 118v715q0 68 -30.5 117.5t-77.5 49.5q-18 0 -51 -19t-52.5 -34.5t-23.5 -21.5q-16 -14 -37 -15q-20 0 -35.5 15.5t-15.5 36.5v22h-105v-1403zM238 246v628q0 49 33.5 84t78.5 35 q47 0 77 -35.5t30 -83.5v-628q0 -47 -30 -83t-77 -36t-79.5 37t-32.5 82zM340 246q0 -8 10 -17q4 6 4 17v628q0 10 -4 17q-10 -7 -10 -17v-628z" />
<glyph unicode="q" horiz-adv-x="686" d="M23 203v715q0 57 17 114.5t68.5 106.5t124.5 49q55 0 121 -41q14 25 43 24h207q20 0 35.5 -15.5t15.5 -35.5v-1505q0 -20 -15 -35.5t-36 -15.5h-207q-20 0 -35.5 15t-15.5 36v354q-61 -37 -113 -37q-74 0 -125 49.5t-68 106.5t-17 115zM125 203q0 -68 30.5 -118t77.5 -50 q18 0 50 18.5t51.5 34.5t25.5 23q16 14 37 14q20 0 36 -15.5t16 -35.5v-408h104v1403h-104v-22q0 -20 -15.5 -36t-37 -16t-36.5 15q-4 6 -23.5 21.5t-52 34.5t-51.5 19q-47 0 -77.5 -50t-30.5 -117v-715zM229 246v628q0 47 30 83t77 36q45 0 79 -35t34 -84v-628 q0 -45 -33 -82t-80 -37t-77 36t-30 83zM332 246q0 -10 4 -17q10 8 10 17v628q0 10 -10 17q-4 -6 -4 -17v-628z" />
<glyph unicode="r" horiz-adv-x="503" d="M31 0v1120q0 20 15 35.5t36 15.5h207q31 0 47 -30q68 47 160 47q20 0 35.5 -15.5t15.5 -35.5v-230q0 -20 -15.5 -35.5t-35.5 -15.5q-6 0 -13 2q-4 6 -48 6t-66 -22q-29 -25 -29 -64v-778q0 -20 -15.5 -35.5t-35.5 -15.5h-207q-20 0 -35.5 15.5t-15.5 35.5zM133 51h105 v727q0 86 61 142q55 47 138 47h7v112q-35 -8 -60.5 -30.5t-34.5 -39t-11 -24.5q-2 -18 -16.5 -29.5t-32.5 -11.5q-20 0 -35.5 15.5t-15.5 35.5v74h-105v-1018z" />
<glyph unicode="s" horiz-adv-x="630" d="M-14 326q0 20 15 35.5t36 15.5h192q20 0 36 -15.5t16 -35.5q0 -119 45 -119q20 0 20 84q0 51 -113 162q-47 43 -61 57t-52 59t-53.5 77t-31 83.5t-15.5 104.5q0 59 14.5 115.5t46.5 111.5t94.5 90t148.5 37h12q73 0 128 -24q60 -26 93 -61.5t52.5 -87.5t24.5 -93t5 -88 q0 -20 -15.5 -36t-35.5 -16h-193q-20 0 -35.5 15.5t-15.5 36.5q0 68 -12 79h-2q-14 -16 -15 -79q0 -49 119 -164q59 -55 97 -100.5t74 -122t36 -156.5q0 -61 -16.5 -120.5t-51 -115t-99 -89.5t-148.5 -34q-104 0 -177 42t-106 110t-45 126t-12 116zM90 274q25 -239 234 -239 h2q109 0 161 73.5t52 182.5q0 82 -47.5 154.5t-126.5 150.5q-4 4 -23.5 22.5t-27 25.5t-25 25.5t-24.5 29t-19.5 28.5t-18.5 33.5t-10 35t-4 38.5q0 178 115 182q33 0 59 -17q49 -31 57 -114h91q-2 45 -11.5 76.5t-31 63.5t-63.5 47q-37 13 -90 13h-15q-109 -2 -155 -73.5 t-46 -177.5q0 -49 12 -90.5t44 -82t53.5 -63.5t70.5 -72q47 -45 69.5 -68.5t49.5 -72.5t27 -94q0 -186 -123 -187q-39 0 -69 17.5t-44 47.5t-21.5 54.5t-11.5 50.5h-90z" />
<glyph unicode="t" horiz-adv-x="501" d="M-31 934v186q0 20 15.5 35.5t35.5 15.5h54v226q0 20 15.5 35.5t35.5 15.5h207q20 0 35.5 -15.5t15.5 -35.5v-226h90q20 0 35.5 -15t15.5 -36v-186q0 -20 -15 -35.5t-36 -15.5h-90v-506q0 -109 16 -133l64 8q25 4 43 -12.5t18 -38.5v-203q0 -37 -35 -49q-53 -16 -127 -17 q-70 0 -123 21.5t-82.5 64.5t-48 82t-25.5 99.5t-8 87t-1 73.5v523h-54q-20 0 -35.5 15t-15.5 36zM72 985h53q20 0 35.5 -15.5t15.5 -35.5v-574q0 -55 2 -89.5t11.5 -85t29 -79t55 -50t88.5 -21.5q29 0 60 4v102h-25q-27 0 -49 13q-18 12 -32.5 30.5t-21.5 36t-10 45t-4 42 t0 41t1 28.5v557q0 20 15 35.5t36 15.5h90v84h-90q-20 0 -35.5 15.5t-15.5 35.5v226h-105v-226q0 -20 -15.5 -35.5t-35.5 -15.5h-53v-84z" />
<glyph unicode="u" horiz-adv-x="690" d="M27 203v917q0 20 15 35.5t36 15.5h207q20 0 35.5 -15t15.5 -36v-882q6 4 14 14v868q0 20 15.5 35.5t35.5 15.5h207q20 0 35.5 -15t15.5 -36v-1120q0 -20 -15 -35.5t-36 -15.5h-207q-35 0 -47 33q-66 -49 -121 -50q-106 0 -156 87t-50 184zM129 203q0 -68 29.5 -118 t74.5 -50q16 0 42 19.5t54.5 47t45.5 35.5q12 8 26 8q20 0 36 -15t16 -36v-43h104v1018h-104v-831q0 -12 -7 -23q0 -4 -3 -9t-12 -19.5t-20.5 -24.5t-31.5 -19.5t-45 -9.5q-35 0 -68 24.5t-33 75.5v836h-104v-866z" />
<glyph unicode="v" horiz-adv-x="602" d="M-35 1112q-1 5 -1 9q0 19 14 33q18 17 38 17h201q20 0 34.5 -13t16.5 -32l33 -317l33 317q2 18 17.5 31.5t33.5 13.5h201q25 0 39 -19q12 -17 12 -35v-5l-182 -1120q-4 -18 -19 -30.5t-33 -12.5h-204q-18 0 -32.5 12t-19.5 31zM76 1069l166 -1018h118l166 1018h-94 l-63 -604l-9 -72q-2 -18 -16 -31.5t-35 -13.5h-16q-18 0 -33.5 13.5t-17.5 31.5l-9 72l-63 604h-94z" />
<glyph unicode="w" horiz-adv-x="905" d="M-31 1112v6q-1 21 13 36q16 17 38 17h189q20 0 34.5 -13t16.5 -32l35 -311l45 313q4 18 18.5 30.5t32.5 12.5h123q18 0 32.5 -12t18.5 -31l45 -313l35 311q2 18 17.5 31.5t33.5 13.5h189q23 0 38 -18q13 -16 13 -36v-5l-166 -1120q-4 -18 -18.5 -30.5t-32.5 -12.5h-172 q-18 0 -32.5 12t-18.5 31l-43 293l-43 -293q-4 -18 -18.5 -30.5t-33.5 -12.5h-172q-18 0 -32.5 12t-18.5 31zM80 1069l151 -1018h82l74 492l10 63q4 18 18.5 30.5t33.5 12.5h8q18 0 32.5 -12t18.5 -31l10 -63l74 -492h82l151 1018h-84l-59 -541l-8 -63q-2 -18 -16.5 -31.5 t-34.5 -13.5h-13q-18 0 -32.5 12t-18.5 31l-10 63l-80 543h-33l-80 -543l-10 -63q-4 -18 -18.5 -30.5t-32.5 -12.5h-12q-18 0 -34 12t-18 33l-8 63l-59 541h-84z" />
<glyph unicode="x" horiz-adv-x="618" d="M-35 0q0 6 2 16l189 562l-172 526q-6 20 4 39.5t28 25.5q8 2 17 2h194q39 0 49 -36l33 -117l33 117q10 36 47 36h2h195q20 0 35.5 -15t15.5 -36q0 -8 -2 -16l-172 -526l188 -562q2 -8 2 -16q0 -12 -5 -22q-9 -18 -30 -27l-16 -2h-201q-39 0 -49 37l-43 145l-43 -145 q-10 -37 -49 -37h-201q-20 0 -35.5 15.5t-15.5 35.5zM88 51h90l74 244l4 29q4 16 18.5 28.5t32.5 12.5h4q16 0 31.5 -11.5t19.5 -29.5l5 -29l73 -244h90l-170 510q-4 16 0 33l156 475h-86l-63 -223l-5 -29q-4 -16 -18 -28.5t-33 -12.5h-4q-16 0 -31.5 11.5t-19.5 29.5l-4 29 l-64 223h-86l156 -475q4 -16 0 -33z" />
<glyph unicode="y" horiz-adv-x="634" d="M-27 1112q-1 5 -1 9q0 19 14 33q18 17 39 17h202q20 0 34.5 -13t17.5 -32l38 -329l39 329q2 18 17.5 31.5t34.5 13.5h202q25 0 40 -19q12 -17 12 -35v-5l-199 -1204q-12 -88 -52 -168t-115 -136.5t-171 -56.5q-25 0 -94 4q-20 2 -34.5 18t-14.5 34v184q0 25 19 39t40 12 q16 -4 39 -4q33 4 57.5 42t26.5 87zM84 -268v-80q31 -2 41 -2q90 0 155.5 80t79.5 194l191 1145h-98l-76 -641l-4 -57q-2 -18 -16.5 -32.5t-34.5 -14.5h-9q-18 0 -33.5 13t-17.5 34l-4 57l-76 641h-98l182 -1094v-8q0 -82 -46 -154.5t-134 -80.5h-2z" />
<glyph unicode="z" horiz-adv-x="532" d="M-39 0v168q0 10 4 18l258 695h-166q-20 0 -35.5 15t-15.5 36v188q0 20 15.5 35.5t35.5 15.5h459q20 0 35.5 -15t15.5 -36v-168q0 -10 -4 -18l-258 -694h211q20 0 35.5 -15.5t15.5 -36.5v-188q0 -20 -15 -35.5t-36 -15.5h-504q-20 0 -35.5 15.5t-15.5 35.5zM63 51h402v86 h-234q-10 0 -18 4q-18 6 -27.5 25.5t-1.5 40.5l281 756v106h-356v-86h188q10 0 18 -4q18 -6 27.5 -25.5t1.5 -40.5l-281 -755v-107z" />
<glyph unicode="{" horiz-adv-x="688" d="M10 453v163q0 20 15.5 36t35.5 16q43 0 61.5 30.5t18.5 57.5v397q0 242 117 333t373 87q23 0 37 -16.5t14 -34.5v-172q0 -23 -16.5 -37.5t-34.5 -14.5q-125 2 -158 -22.5t-33 -122.5v-397q0 -137 -92 -221q92 -86 92 -222v-397q0 -98 33 -122.5t158 -22.5 q20 0 35.5 -16.5t15.5 -35.5v-172q0 -20 -15.5 -35.5t-35.5 -15.5h-35q-238 0 -346.5 93.5t-108.5 326.5v397q0 23 -19.5 54.5t-62.5 33.5q-20 2 -34.5 17.5t-14.5 34.5zM113 496q51 -16 82.5 -56.5t40 -71t8.5 -55.5v-397q0 -100 14 -159.5t55 -95.5t101.5 -49t165.5 -13 v69q-121 6 -181.5 65.5t-60.5 182.5v397q0 63 -24.5 103.5t-77.5 75.5q-10 6 -17 16q-12 18 -7 38.5t24 31.5q55 35 78.5 73.5t23.5 104.5v397q0 123 60.5 182.5t181.5 65.5v69q-104 0 -165 -12t-102 -48t-55 -96.5t-14 -160.5v-397q0 -16 -5.5 -39t-17.5 -52.5t-39.5 -55 t-68.5 -38.5v-75z" />
<glyph unicode="|" horiz-adv-x="356" d="M31 -512v2204q0 20 15 35.5t36 15.5h192q20 0 36 -15.5t16 -35.5v-2204q0 -20 -16 -35.5t-36 -15.5h-192q-20 0 -35.5 15.5t-15.5 35.5zM133 -461h90v2101h-90v-2101z" />
<glyph unicode="}" horiz-adv-x="688" d="M6 -281q0 23 16.5 37.5t34.5 14.5q125 -2 158 22.5t33 122.5v397q0 135 92 222q-92 84 -92 221v397q0 98 -33 122.5t-158 22.5q-20 0 -35.5 16.5t-15.5 35.5v172q0 20 15.5 35.5t35.5 15.5h35q238 0 346.5 -93.5t108.5 -326.5v-397q0 -27 19.5 -57.5t60.5 -30.5 q20 0 35.5 -15.5t15.5 -36.5v-163q0 -20 -14.5 -35t-34.5 -17q-43 -2 -62.5 -32.5t-19.5 -55.5v-397q0 -242 -117 -333t-373 -87q-23 0 -37 16.5t-14 34.5v172zM109 -332v-69q104 0 164.5 12t101.5 48t55 96.5t14 160.5v397q0 16 5.5 38t16.5 50.5t40 54t69 40.5v75 q-51 14 -82.5 55.5t-40 73t-8.5 56.5v397q0 100 -14 159.5t-55 95.5t-101.5 49t-164.5 13v-69q121 -6 181 -65.5t60 -182.5v-397q0 -66 23.5 -105t79.5 -73q10 -6 16 -17q12 -16 7 -37.5t-23 -31.5q-53 -35 -78 -75t-25 -104v-397q0 -123 -60.5 -182.5t-180.5 -65.5z" />
<glyph unicode="~" horiz-adv-x="1280" d="M63 1368q4 12 12.5 35.5t41.5 83t72.5 104.5t109.5 82t150 37q63 0 126.5 -20.5t90 -37t88.5 -53.5q94 -63 145 -63q35 0 71 37t51 65.5t19 44.5q8 20 29 29.5t41 1.5l135 -57q18 -8 25.5 -26.5t3.5 -35.5q-4 -14 -7 -22t-20.5 -48t-36 -69t-51.5 -71t-68.5 -69.5 t-86 -47t-105.5 -19.5q-61 0 -120.5 18.5t-94.5 38t-86 52.5q-100 65 -149 65q-33 0 -63 -19.5t-48.5 -49t-28.5 -48t-14 -30.5q-8 -20 -29.5 -28.5t-38.5 -0.5l-135 58q-18 8 -26.5 26.5t-2.5 36.5zM178 1378l43 -16q85 164 228 164q39 0 80.5 -15.5t61 -26.5t64.5 -40 q72 -47 124 -69.5t120 -22.5q86 0 152.5 70.5t107.5 160.5l-43 16q-84 -166 -217 -165q-37 0 -77 13t-63.5 27.5t-62.5 38.5q-53 35 -77.5 49.5t-72.5 30t-97 15.5t-95.5 -22.5t-79 -60.5t-56 -73t-40.5 -74z" />
<glyph unicode="&#xa1;" horiz-adv-x="387" d="M23 -383l55 1100q2 20 17.5 34.5t33.5 14.5h129q20 0 34.5 -14.5t16.5 -34.5l56 -1100q2 -20 -14.5 -36.5t-37.5 -16.5h-239q-23 0 -37 16.5t-14 36.5zM35 893v227q0 20 15.5 35.5t35.5 15.5h215q20 0 35.5 -15t15.5 -36v-227q0 -20 -15 -35.5t-36 -15.5h-215 q-20 0 -35.5 15.5t-15.5 35.5zM127 -334h133l-51 998h-31zM137 944h113v125h-113v-125z" />
<glyph unicode="&#xa2;" horiz-adv-x="636" d="M14 508v489q0 154 55.5 247t153.5 122v201q0 20 15.5 35.5t35.5 15.5h123q20 0 36 -15.5t16 -35.5v-203q190 -57 190 -356v-88q0 -20 -15.5 -36t-35.5 -16h-189q-20 0 -35.5 15.5t-15.5 36.5v135v22t-3 12.5t-4 5.5t-7 0t-8 -1q-20 0 -21 -39v-604q0 -39 21 -39h10h6l2 4 q4 4 4 12v23v155q0 20 15.5 35.5t35.5 15.5h189q20 0 35.5 -15t15.5 -36v-108q0 -301 -190 -359v-262q0 -20 -15.5 -35.5t-36.5 -15.5h-123q-20 0 -35.5 15.5t-15.5 35.5v260q-209 61 -209 371zM117 508q0 -143 43 -205.5t123 -73.5q18 -4 30.5 -18t12.5 -33v-250h20v252 q0 18 12.5 32.5t30.5 18.5q78 12 113 67.5t35 199.5v57h-86v-104q0 -66 -35 -104t-90 -38q-66 0 -94.5 46t-28.5 96v604q0 49 28.5 95t94.5 46q57 0 91 -38t34 -103v-84h86v37q0 143 -35 197.5t-113 66.5q-18 4 -30.5 18.5t-12.5 32.5v193h-20v-191q0 -18 -12.5 -32.5 t-30.5 -18.5q-80 -10 -123 -71.5t-43 -205.5v-489z" />
<glyph unicode="&#xa3;" horiz-adv-x="817" d="M-45 80q6 12 10 23.5t24.5 48t43 64.5t60.5 58.5t81 44.5q27 90 27 156q0 49 -19 123h-149q-20 0 -35.5 15.5t-15.5 35.5v137q0 20 15 36t36 16h78q-66 219 -66 311q0 74 17.5 143.5t55.5 134t107.5 104.5t165.5 42q88 2 157.5 -25.5t110.5 -71.5t68 -105.5t37 -122 t10 -128.5q0 -20 -15.5 -35.5t-35.5 -15.5h-213q-20 0 -35.5 15.5t-15.5 35.5q0 147 -62 146q-8 0 -16 -11.5t-16.5 -39t-8.5 -66.5q0 -104 64 -311h172q20 0 35.5 -15.5t15.5 -36.5v-137q0 -20 -15.5 -35.5t-35.5 -15.5h-111q12 -70 13 -123q0 -90 -43 -196q47 -27 63 -31 q31 27 35 141q2 23 18.5 37t38.5 12l189 -22q20 -2 33.5 -18.5t11.5 -37.5q-12 -195 -94 -311.5t-209 -116.5q-74 0 -168.5 51.5t-104.5 51.5q-16 0 -38.5 -27.5t-28.5 -42.5q-8 -23 -31 -30t-41 4l-145 79q-16 10 -22.5 27.5t-2.5 34.5zM70 86l59 -33q57 84 135 84 q63 0 154.5 -51t118.5 -51q68 0 123 69.5t73 214.5l-86 11q-23 -178 -127 -185h-4q-31 2 -58.5 12.5t-56 29t-39.5 22.5q-16 8 -24 28.5t2 41.5q51 104 51 196q0 68 -22 162q-2 6 -2 12q0 20 15 35.5t36 15.5h123v35h-160q-16 0 -30.5 11.5t-18.5 27.5l-6 23 q-72 231 -72 352q0 33 5 64.5t18.5 69.5t43 60.5t73.5 23.5t76 -16.5t50.5 -49t26.5 -62.5t12 -68h111q-8 143 -70.5 222.5t-208.5 76.5q-125 -2 -184.5 -93t-59.5 -228q0 -80 76 -328l6 -20q2 -6 2 -15q0 -20 -15 -35.5t-36 -15.5h-96v-35h137q39 0 49 -36q33 -113 33 -189 q0 -96 -39 -215q-10 -29 -41 -35q-86 -14 -153 -139z" />
<glyph unicode="&#xa5;" horiz-adv-x="720" d="M-25 1493q-6 20 5.5 38.5t31.5 22.5q6 2 13 2h217q18 0 32.5 -11t16.5 -27l69 -301l70 301q4 16 18.5 27t30.5 11h217q20 0 36 -15t16 -36l-3 -12l-180 -690h82q20 0 35.5 -15.5t15.5 -35.5v-138q0 -20 -15 -35.5t-36 -15.5h-125v-35h125q20 0 35.5 -15t15.5 -36v-137 q0 -20 -15 -35.5t-36 -15.5h-125v-289q0 -20 -15 -35.5t-36 -15.5h-221q-20 0 -35.5 15.5t-15.5 35.5v289h-125q-20 0 -35.5 15.5t-15.5 35.5v137q0 20 15 35.5t36 15.5h125v35h-125q-20 0 -35.5 15.5t-15.5 35.5v138q0 20 15 35.5t36 15.5h82zM90 1454l180 -690q2 -6 2 -12 q0 -20 -15 -36t-36 -16h-96v-34h125q20 0 35.5 -15.5t15.5 -36.5v-137q0 -20 -15.5 -35.5t-35.5 -15.5h-125v-35h125q20 0 35.5 -15.5t15.5 -35.5v-289h119v289q0 20 15.5 35.5t35.5 15.5h125v35h-125q-20 0 -35.5 15.5t-15.5 35.5v137q0 20 15.5 36t35.5 16h125v34h-96 q-6 0 -13 2q-20 4 -31.5 22.5t-4.5 39.5l180 690h-111l-102 -442q0 -4 -2 -8l-6 -15q-14 -31 -48 -31h-4q-33 0 -47 31l-6 15q-2 4 -2 8l-102 442h-111z" />
<glyph unicode="&#xa8;" horiz-adv-x="1024" d="M221 1305v200q0 20 15.5 35.5t35.5 15.5h191q20 0 35.5 -15t15.5 -36v-200q0 -20 -15.5 -36t-35.5 -16h-191q-20 0 -35.5 16t-15.5 36zM324 1356h88v98h-88v-98zM510 1305v200q0 20 15.5 35.5t35.5 15.5h191q20 0 35.5 -15t15.5 -36v-200q0 -20 -15.5 -36t-35.5 -16h-191 q-20 0 -35.5 16t-15.5 36zM612 1356h88v98h-88v-98z" />
<glyph unicode="&#xa9;" horiz-adv-x="1644" d="M2 752q0 340 240.5 580.5t578.5 240.5q340 0 580.5 -240.5t240.5 -580.5q0 -338 -240.5 -579t-580.5 -241q-338 0 -578.5 241t-240.5 579zM104 752q0 -295 211 -506t506 -211q297 0 508 211t211 506q0 297 -211 507.5t-508 210.5q-295 0 -506 -210.5t-211 -507.5z M121 752q0 289 207 495.5t493 206.5q289 0 496 -207t207 -495q0 -287 -207 -494t-496 -207q-287 0 -493.5 207t-206.5 494zM223 752q0 -244 177.5 -421t420.5 -177q246 0 423 177t177 421q0 246 -177 423t-423 177q-244 0 -421 -177t-177 -423zM575 487v531q0 10 1.5 26.5 t14.5 59.5t35.5 75.5t74 59.5t118.5 27q68 0 117 -26t71.5 -61.5t36 -72.5t13.5 -64l2 -24v-125q0 -20 -15.5 -35.5t-35.5 -15.5h-138q-31 0 -47 30v-239q16 31 47 31h138q20 0 35.5 -15.5t15.5 -36.5v-125q0 -10 -1 -26.5t-14.5 -59.5t-36 -75.5t-71.5 -59t-117 -26.5 q-70 0 -120 25.5t-72.5 62.5t-35.5 72.5t-13 62.5zM678 487q0 -14 3 -29.5t14.5 -46t44 -50t79.5 -19.5q45 0 76 19.5t43 49t15 46t3 30.5v74h-34v-72v-13t-5.5 -27.5t-14.5 -36t-29.5 -27.5t-51.5 -12q-47 0 -72.5 28.5t-25.5 57.5l-2 28v531v12t4 27.5t13.5 35t31 28 t51.5 12.5q29 0 50.5 -12.5t30.5 -27t14.5 -34t5.5 -28.5v-15v-72h34v74q0 12 -3 28.5t-14 47t-43 50t-77 19.5q-47 0 -79.5 -19.5t-44 -49t-14.5 -46t-3 -30.5v-531z" />
<glyph unicode="&#xad;" horiz-adv-x="444" d="M23 455v194q0 20 15 35.5t36 15.5h297q20 0 35.5 -15t15.5 -36v-194q0 -20 -15.5 -36t-35.5 -16h-297q-20 0 -35.5 16t-15.5 36zM125 506h194v92h-194v-92z" />
<glyph unicode="&#xae;" horiz-adv-x="1644" d="M2 752q0 340 240.5 580.5t578.5 240.5q340 0 580.5 -240.5t240.5 -580.5q0 -338 -240.5 -579t-580.5 -241q-338 0 -578.5 241t-240.5 579zM104 752q0 -295 211 -506t506 -211q297 0 508 211t211 506q0 297 -211 507.5t-508 210.5q-295 0 -506 -210.5t-211 -507.5z M121 752q0 289 207 495.5t493 206.5q289 0 496 -207t207 -495q0 -287 -207 -494t-496 -207q-287 0 -493.5 207t-206.5 494zM223 752q0 -244 177.5 -421t420.5 -177q246 0 423 177t177 421q0 246 -177 423t-423 177q-244 0 -421 -177t-177 -423zM573 313v879q0 20 16 35.5 t36 15.5h196q139 0 211 -85t72 -224q0 -74 -15.5 -130t-66.5 -108l98 -370q6 -18 -5 -38t-32 -24q-6 -2 -12 -2h-151q-18 0 -32 11.5t-18 27.5l-49 188v-176q0 -20 -15 -35.5t-36 -15.5h-145q-20 0 -36 15.5t-16 35.5zM676 365h43v313q0 20 15.5 35.5t35.5 15.5h55 q16 0 30.5 -10t18.5 -29l84 -325h46l-89 335q-8 31 17 52q47 39 58 74.5t11 107.5q0 109 -41.5 158t-138.5 49h-145v-776zM719 805v258q0 20 15.5 35.5t35.5 15.5h45q150 0 150 -182q0 -178 -150 -178h-45q-20 0 -35.5 15t-15.5 36zM821 856q27 2 34 15.5t7 60.5t-7 62.5 t-34 17.5v-156z" />
<glyph unicode="&#xaf;" horiz-adv-x="1024" d="M262 1315v162q0 20 15.5 35.5t35.5 15.5h398q20 0 35.5 -15.5t15.5 -35.5v-162q0 -20 -15.5 -35.5t-35.5 -15.5h-398q-20 0 -35.5 15.5t-15.5 35.5zM365 1366h294v59h-294v-59z" />
<glyph unicode="&#xb4;" horiz-adv-x="1024" d="M358 1305q0 14 7 26l106 185q16 24 45 24h215q20 0 35.5 -15.5t15.5 -35.5q0 -18 -12 -33l-162 -184q-16 -18 -39 -19h-159q-20 0 -36 15.5t-16 36.5zM498 1356h49l71 82h-73z" />
<glyph unicode="&#xb7;" horiz-adv-x="215" d="M-51 649v228q0 20 15.5 35.5t35.5 15.5h215q20 0 35.5 -15.5t15.5 -35.5v-228q0 -20 -15 -35.5t-36 -15.5h-215q-20 0 -35.5 15.5t-15.5 35.5zM51 700h113v125h-113v-125z" />
<glyph unicode="&#xb8;" horiz-adv-x="1024" d="M375 -111q0 20 15.5 36t35.5 16h172q20 0 35.5 -16t15.5 -36v-141q0 -8 -2 -16l-45 -133q-12 -35 -49 -35h-104q-20 0 -36 15t-16 36q0 8 2 14l21 68q-45 8 -45 51v141zM477 -162v-39h12q8 0 15 -2q20 -6 30.5 -25.5t4.5 -37.5l-4 -17l12 39v82h-70z" />
<glyph unicode="&#xbf;" horiz-adv-x="645" d="M-10 -106q0 47 15 95t28.5 72.5t44.5 77.5q37 61 54.5 93t39 97.5t21.5 129.5v256q0 20 15.5 35.5t35.5 15.5h190q20 0 35.5 -15.5t15.5 -35.5v-256q0 -106 -25.5 -206.5t-51 -152t-68.5 -120.5q-39 -63 -47 -97q0 -14 6 -23.5t12 -9.5q18 0 45 36t37 73q6 23 28.5 32 t43.5 1l178 -84q18 -10 25.5 -29.5t-0.5 -36.5q-10 -27 -25.5 -56.5t-47.5 -73.5t-70 -77.5t-96 -57t-122 -21.5q-78 2 -138 29.5t-93 66.5t-53.5 88t-26.5 85t-6 69zM92 -106q0 -35 8.5 -69t29 -74t66.5 -65.5t111 -27.5q82 -2 144.5 51t101.5 127l-84 39 q-61 -129 -158 -127q-63 0 -92 45t-29 88q0 12 5 25q10 47 59 127q39 68 61.5 112.5t45 130.5t22.5 183v205h-88v-205q0 -59 -11.5 -114.5t-37 -110t-37.5 -76t-45 -72.5q-27 -45 -39 -69.5t-22.5 -57.5t-10.5 -65zM180 893v227q0 20 15.5 35.5t35.5 15.5h215q20 0 36 -15.5 t16 -35.5v-227q0 -20 -15.5 -35.5t-36.5 -15.5h-215q-20 0 -35.5 15t-15.5 36zM283 944h112v125h-112v-125z" />
<glyph unicode="&#xc0;" horiz-adv-x="765" d="M-31 8l228 1505q4 18 18 30.5t33 12.5h270q18 0 32.5 -12t18.5 -31l228 -1505q2 -23 -13.5 -41t-38.5 -18h-215q-18 0 -33.5 13t-17.5 32l-35 262h-122l-35 -262q-2 -20 -18.5 -32.5t-32.5 -12.5h-216q-23 0 -38 18.5t-13 40.5zM80 51h110l35 262q2 18 17.5 31.5 t33.5 13.5h213q16 0 33 -12t19 -33l34 -262h111l-213 1403h-180zM90 1825.5q2 21.5 19 36.5q14 12 32 12h215q29 0 45 -25l107 -184q10 -18 4 -39.5t-23 -32.5q-12 -6 -26 -6h-160q-23 0 -39 19l-162 184q-14 14 -12 35.5zM254 1772l72 -82h49l-47 82h-74zM256 547l63 477 l7 39q4 18 18 30.5t33 12.5h12q18 0 32.5 -12.5t18.5 -30.5l6 -39l64 -477q2 -18 -12.5 -38t-38.5 -20h-152q-18 0 -35.5 17.5t-15.5 40.5zM367 592h32l-16 129z" />
<glyph unicode="&#xc1;" horiz-adv-x="765" d="M-31 8l228 1505q4 18 18 30.5t33 12.5h270q18 0 32.5 -12t18.5 -31l228 -1505q2 -23 -13.5 -41t-38.5 -18h-215q-18 0 -33.5 13t-17.5 32l-35 262h-122l-35 -262q-2 -20 -18.5 -32.5t-32.5 -12.5h-216q-23 0 -38 18.5t-13 40.5zM80 51h110l35 262q2 18 17.5 31.5 t33.5 13.5h213q16 0 33 -12t19 -33l34 -262h111l-213 1403h-180zM242 1638q0 14 6 27l106 184q16 25 45 25h215q20 0 36 -15.5t16 -35.5q0 -18 -13 -33l-161 -184q-16 -18 -39 -19h-160q-20 0 -35.5 15.5t-15.5 35.5zM256 547l63 477l7 39q4 18 18 30.5t33 12.5h12 q18 0 32.5 -12.5t18.5 -30.5l6 -39l64 -477q2 -18 -12.5 -38t-38.5 -20h-152q-18 0 -35.5 17.5t-15.5 40.5zM367 592h32l-16 129zM381 1690h49l72 82h-74z" />
<glyph unicode="&#xc2;" horiz-adv-x="765" d="M-31 8l228 1505q4 18 18 30.5t33 12.5h270q18 0 32.5 -12t18.5 -31l228 -1505q2 -23 -13.5 -41t-38.5 -18h-215q-18 0 -33.5 13t-17.5 32l-35 262h-122l-35 -262q-2 -20 -18.5 -32.5t-32.5 -12.5h-216q-23 0 -38 18.5t-13 40.5zM80 51h110l35 262q2 18 17.5 31.5 t33.5 13.5h213q16 0 33 -12t19 -33l34 -262h111l-213 1403h-180zM82 1638q0 16 10 31l141 184q16 21 41 21h220q25 0 41 -21l141 -184q12 -16 9 -37.5t-19 -34.5q-14 -10 -31 -10h-189q-23 0 -38 17l-25 28l-23 -26q-16 -18 -38 -19h-189q-20 0 -35.5 15.5t-15.5 35.5z M238 1690h61l45 53q12 16 35.5 17t42.5 -15l47 -55h61l-61 82h-170zM256 547l63 477l7 39q4 18 18 30.5t33 12.5h12q18 0 32.5 -12.5t18.5 -30.5l6 -39l64 -477q2 -18 -12.5 -38t-38.5 -20h-152q-18 0 -35.5 17.5t-15.5 40.5zM367 592h32l-16 129z" />
<glyph unicode="&#xc3;" horiz-adv-x="765" d="M-31 8l228 1505q4 18 18 30.5t33 12.5h270q18 0 32.5 -12t18.5 -31l228 -1505q2 -23 -13.5 -41t-38.5 -18h-215q-18 0 -33.5 13t-17.5 32l-35 262h-122l-35 -262q-2 -20 -18.5 -32.5t-32.5 -12.5h-216q-23 0 -38 18.5t-13 40.5zM80 51h110l35 262q2 18 17.5 31.5 t33.5 13.5h213q16 0 33 -12t19 -33l34 -262h111l-213 1403h-180zM133 1632v152q0 25 19 39q66 51 141 51q47 0 107.5 -18.5t74.5 -20.5q41 0 80 25q16 12 37.5 7t32.5 -24q8 -12 8 -26v-152q0 -25 -21 -41q-66 -49 -139 -49q-47 0 -106.5 19.5t-73.5 19.5q-43 0 -82 -25 q-16 -12 -37.5 -7t-32.5 24q-8 12 -8 26zM236 1708q30 8 57 8q49 -2 106.5 -20.5t73.5 -18.5q25 0 57 17v47q-31 -8 -57 -8h-4q-43 2 -99.5 20.5t-76.5 18.5q-27 0 -57 -17v-47zM256 547l63 477l7 39q4 18 18 30.5t33 12.5h12q18 0 32.5 -12.5t18.5 -30.5l6 -39l64 -477 q2 -18 -12.5 -38t-38.5 -20h-152q-18 0 -35.5 17.5t-15.5 40.5zM367 592h32l-16 129z" />
<glyph unicode="&#xc4;" horiz-adv-x="765" d="M-31 8l228 1505q4 18 18 30.5t33 12.5h270q18 0 32.5 -12t18.5 -31l228 -1505q2 -23 -13.5 -41t-38.5 -18h-215q-18 0 -33.5 13t-17.5 32l-35 262h-122l-35 -262q-2 -20 -18.5 -32.5t-32.5 -12.5h-216q-23 0 -38 18.5t-13 40.5zM80 51h110l35 262q2 18 17.5 31.5 t33.5 13.5h213q16 0 33 -12t19 -33l34 -262h111l-213 1403h-180zM92 1638v201q0 20 15.5 35.5t35.5 15.5h191q20 0 35.5 -15t15.5 -36v-201q0 -20 -15.5 -35.5t-35.5 -15.5h-191q-20 0 -35.5 15.5t-15.5 35.5zM195 1690h88v98h-88v-98zM256 547l63 477l7 39q4 18 18 30.5 t33 12.5h12q18 0 32.5 -12.5t18.5 -30.5l6 -39l64 -477q2 -18 -12.5 -38t-38.5 -20h-152q-18 0 -35.5 17.5t-15.5 40.5zM367 592h32l-16 129zM381 1638v201q0 20 15.5 35.5t35.5 15.5h191q20 0 35.5 -15t15.5 -36v-201q0 -20 -15.5 -35.5t-35.5 -15.5h-191q-20 0 -35.5 15.5 t-15.5 35.5zM483 1690h88v98h-88v-98z" />
<glyph unicode="&#xc5;" horiz-adv-x="765" d="M-31 8l228 1505q4 18 18 30.5t33 12.5h270q18 0 32.5 -12t18.5 -31l228 -1505q2 -23 -13.5 -41t-38.5 -18h-215q-18 0 -33.5 13t-17.5 32l-35 262h-122l-35 -262q-2 -20 -18.5 -32.5t-32.5 -12.5h-216q-23 0 -38 18.5t-13 40.5zM80 51h110l35 262q2 18 17.5 31.5 t33.5 13.5h213q16 0 33 -12t19 -33l34 -262h111l-213 1403h-180zM180 1761q0 84 60.5 139.5t144.5 55.5t143.5 -55.5t59.5 -139.5t-59.5 -139t-143.5 -55t-144.5 55t-60.5 139zM256 547l63 477l7 39q4 18 18 30.5t33 12.5h12q18 0 32.5 -12.5t18.5 -30.5l6 -39l64 -477 q2 -18 -12.5 -38t-38.5 -20h-152q-18 0 -35.5 17.5t-15.5 40.5zM258 1761q0 51 39 87t88 36t88 -36t39 -87t-39 -87t-88 -36t-88 36t-39 87zM283 1761q0 -39 28.5 -65.5t73.5 -26.5t72.5 25.5t27.5 66.5t-27.5 66.5t-72.5 25.5t-73.5 -26.5t-28.5 -65.5zM360 1761 q0 -6 8.5 -13t16.5 -7t16.5 7t8.5 13t-8.5 13.5t-16.5 7.5t-16.5 -7.5t-8.5 -13.5zM367 592h32l-16 129z" />
<glyph unicode="&#xc6;" horiz-adv-x="1099" d="M-35 0q0 6 2 14l420 1506q10 37 49 36h623q20 0 35.5 -15t15.5 -36v-227q0 -20 -15.5 -35.5t-35.5 -15.5h-234v-293h154q20 0 35.5 -15.5t15.5 -35.5v-242q0 -20 -15.5 -35.5t-35.5 -15.5h-154v-311h234q20 0 35.5 -15.5t15.5 -36.5v-227q0 -20 -15.5 -35.5t-35.5 -15.5 h-506q-20 0 -35.5 15.5t-15.5 35.5v256h-137l-80 -270q-10 -37 -49 -37h-220q-20 0 -35.5 15.5t-15.5 35.5zM84 51h113l79 271q10 37 50 36h227q20 0 35.5 -15t15.5 -36v-256h404v125h-234q-20 0 -35.5 15.5t-15.5 35.5v414q0 20 15.5 35.5t35.5 15.5h154v139h-154 q-20 0 -35.5 15.5t-15.5 36.5v395q0 20 15.5 35.5t35.5 15.5h234v125h-533zM344 555l150 514q10 37 49 37h10q20 0 35.5 -15.5t15.5 -35.5v-514q0 -20 -15.5 -36t-35.5 -16h-160q-8 0 -14 3q-20 6 -30.5 24.5t-4.5 38.5zM461 592h41v139z" />
<glyph unicode="&#xc7;" horiz-adv-x="708" d="M16 289v20v887q0 8 1 21.5t7.5 52.5t17.5 74.5t37.5 79.5t61.5 75t92.5 52.5t129 21.5t129 -20.5t92 -54.5t61.5 -74t38 -79.5t17.5 -73.5t8.5 -54v-21v-207q0 -20 -15.5 -35.5t-36.5 -15.5h-206q-20 0 -36 15.5t-16 35.5v207v4q2 55 -32 55q-10 0 -18.5 -20.5 t-8.5 -38.5v-887q0 -18 8 -38.5t19 -20.5q35 0 32 55v4v207q0 20 16 35.5t36 15.5h206q20 0 36 -15t16 -36v-207q0 -8 -1 -21.5t-7.5 -52t-18.5 -74.5t-38 -80t-60.5 -75t-92 -52.5t-129.5 -21.5t-129 20.5t-93 54.5t-61.5 74t-36.5 80t-18.5 73.5t-7.5 54.5zM119 309 q0 -14 2 -34.5t15.5 -66.5t37 -82t72.5 -63.5t116.5 -27.5t116.5 27.5t72.5 62.5t37 81t15.5 67.5t2 35.5v156h-104v-154v-19t-6.5 -39t-18.5 -49.5t-40.5 -39t-69.5 -17.5q-39 0 -67 16.5t-39 40t-17 48t-6 41.5v16v887v17.5t6 39t17 49t39 39t67 17.5q41 0 68.5 -17.5 t40.5 -38t19.5 -48t6.5 -40v-20.5v-154h104v156q0 14 -2 34.5t-15.5 66.5t-37 82t-72.5 63.5t-116.5 27.5t-116.5 -27.5t-72.5 -62t-37 -81t-15.5 -68t-2 -35.5v-887zM217 -111q0 20 15.5 36t35.5 16h172q20 0 36 -15.5t16 -36.5v-141q0 -8 -3 -16l-45 -133q-12 -35 -49 -35 h-104q-8 0 -15 2q-20 6 -30 25.5t-4 37.5l20 68q-18 4 -31.5 17.5t-13.5 33.5v141zM319 -162v-39h13q20 0 35.5 -15t15.5 -36q0 -8 -2 -14l-4 -17l12 39v82h-70z" />
<glyph unicode="&#xc8;" horiz-adv-x="628" d="M31 0v1505q0 20 15 35.5t36 15.5h506q20 0 35.5 -15t15.5 -36v-227q0 -20 -15.5 -35.5t-35.5 -15.5h-234v-293h154q20 0 35.5 -15.5t15.5 -35.5v-242q0 -20 -15.5 -35.5t-35.5 -15.5h-154v-311h234q20 0 35.5 -15.5t15.5 -36.5v-227q0 -20 -15.5 -35.5t-35.5 -15.5h-506 q-20 0 -35.5 15.5t-15.5 35.5zM59.5 1825.5q1.5 21.5 18.5 36.5q15 12 33 12h215q29 0 45 -25l106 -184q10 -18 4 -39.5t-22 -32.5q-12 -6 -27 -6h-160q-23 0 -39 19l-161 184q-14 14 -12.5 35.5zM133 51h404v125h-234q-20 0 -35.5 15.5t-15.5 35.5v414q0 20 15.5 35.5 t35.5 15.5h154v139h-154q-20 0 -35.5 15.5t-15.5 36.5v395q0 20 15.5 35.5t35.5 15.5h234v125h-404v-1403zM223 1772l72 -82h49l-47 82h-74z" />
<glyph unicode="&#xc9;" horiz-adv-x="628" d="M31 0v1505q0 20 15 35.5t36 15.5h506q20 0 35.5 -15t15.5 -36v-227q0 -20 -15.5 -35.5t-35.5 -15.5h-234v-293h154q20 0 35.5 -15.5t15.5 -35.5v-242q0 -20 -15.5 -35.5t-35.5 -15.5h-154v-311h234q20 0 35.5 -15.5t15.5 -36.5v-227q0 -20 -15.5 -35.5t-35.5 -15.5h-506 q-20 0 -35.5 15.5t-15.5 35.5zM133 51h404v125h-234q-20 0 -35.5 15.5t-15.5 35.5v414q0 20 15.5 35.5t35.5 15.5h154v139h-154q-20 0 -35.5 15.5t-15.5 36.5v395q0 20 15.5 35.5t35.5 15.5h234v125h-404v-1403zM184 1638q0 14 6 27l107 184q16 25 45 25h215 q20 0 35.5 -15.5t15.5 -35.5q0 -18 -12 -33l-162 -184q-16 -18 -39 -19h-159q-20 0 -36 15.5t-16 35.5zM324 1690h49l71 82h-73z" />
<glyph unicode="&#xca;" horiz-adv-x="628" d="M31 0v1505q0 20 15 35.5t36 15.5h506q20 0 35.5 -15t15.5 -36v-227q0 -20 -15.5 -35.5t-35.5 -15.5h-234v-293h154q20 0 35.5 -15.5t15.5 -35.5v-242q0 -20 -15.5 -35.5t-35.5 -15.5h-154v-311h234q20 0 35.5 -15.5t15.5 -36.5v-227q0 -20 -15.5 -35.5t-35.5 -15.5h-506 q-20 0 -35.5 15.5t-15.5 35.5zM33 1638q0 16 10 31l141 184q16 21 41 21h219q25 0 41 -21l142 -184q12 -16 9 -37.5t-20 -34.5q-14 -10 -30 -10h-189q-23 0 -39 17l-24 28l-23 -26q-16 -18 -39 -19h-188q-20 0 -35.5 15.5t-15.5 35.5zM133 51h404v125h-234q-20 0 -35.5 15.5 t-15.5 35.5v414q0 20 15.5 35.5t35.5 15.5h154v139h-154q-20 0 -35.5 15.5t-15.5 36.5v395q0 20 15.5 35.5t35.5 15.5h234v125h-404v-1403zM188 1690h62l45 53q12 16 35.5 17t42.5 -15l47 -55h61l-61 82h-170z" />
<glyph unicode="&#xcb;" horiz-adv-x="628" d="M31 0v1505q0 20 15 35.5t36 15.5h506q20 0 35.5 -15t15.5 -36v-227q0 -20 -15.5 -35.5t-35.5 -15.5h-234v-293h154q20 0 35.5 -15.5t15.5 -35.5v-242q0 -20 -15.5 -35.5t-35.5 -15.5h-154v-311h234q20 0 35.5 -15.5t15.5 -36.5v-227q0 -20 -15.5 -35.5t-35.5 -15.5h-506 q-20 0 -35.5 15.5t-15.5 35.5zM43 1638v201q0 20 15.5 35.5t35.5 15.5h191q20 0 35.5 -15t15.5 -36v-201q0 -20 -15.5 -35.5t-35.5 -15.5h-191q-20 0 -35.5 15.5t-15.5 35.5zM133 51h404v125h-234q-20 0 -35.5 15.5t-15.5 35.5v414q0 20 15.5 35.5t35.5 15.5h154v139h-154 q-20 0 -35.5 15.5t-15.5 36.5v395q0 20 15.5 35.5t35.5 15.5h234v125h-404v-1403zM145 1690h88v98h-88v-98zM332 1638v201q0 20 15 35.5t36 15.5h190q20 0 36 -15t16 -36v-201q0 -20 -15.5 -35.5t-36.5 -15.5h-190q-20 0 -35.5 15.5t-15.5 35.5zM434 1690h88v98h-88v-98z " />
<glyph unicode="&#xcc;" horiz-adv-x="401" d="M-57 1825.5q2 21.5 18 36.5q15 12 33 12h215q29 0 45 -25l106 -184q10 -18 4 -39.5t-22 -32.5q-12 -6 -27 -6h-159q-23 0 -39 19l-162 184q-14 14 -12 35.5zM47 0v1505q0 20 15.5 35.5t35.5 15.5h221q20 0 36 -15t16 -36v-1505q0 -20 -15.5 -35.5t-36.5 -15.5h-221 q-20 0 -35.5 15.5t-15.5 35.5zM106 1772l72 -82h49l-47 82h-74zM150 51h118v1403h-118v-1403z" />
<glyph unicode="&#xcd;" horiz-adv-x="401" d="M31 0v1505q0 20 15 35.5t36 15.5h221q20 0 35.5 -15t15.5 -36v-1505q0 -20 -15 -35.5t-36 -15.5h-221q-20 0 -35.5 15.5t-15.5 35.5zM35 1638q0 14 6 27l106 184q17 25 46 25h215q20 0 35.5 -15.5t15.5 -35.5q0 -18 -13 -33l-161 -184q-16 -18 -39 -19h-160 q-20 0 -35.5 15.5t-15.5 35.5zM133 51h119v1403h-119v-1403zM174 1690h49l72 82h-74z" />
<glyph unicode="&#xce;" horiz-adv-x="370" d="M-117 1638q0 16 11 31l141 184q16 21 41 21h219q25 0 41 -21l141 -184q12 -16 9 -37.5t-19 -34.5q-14 -10 -31 -10h-188q-23 0 -39 17l-25 28l-22 -26q-16 -18 -39 -19h-189q-20 0 -35.5 15.5t-15.5 35.5zM23 0v1505q0 20 15 35.5t36 15.5h221q20 0 35.5 -15t15.5 -36 v-1505q0 -20 -15.5 -35.5t-35.5 -15.5h-221q-20 0 -35.5 15.5t-15.5 35.5zM39 1690h61l45 53q12 16 36 17t42 -15l47 -55h62l-62 82h-170zM125 51h119v1403h-119v-1403z" />
<glyph unicode="&#xcf;" horiz-adv-x="372" d="M-104 1638v201q0 20 15 35.5t36 15.5h190q20 0 35.5 -15t15.5 -36v-201q0 -20 -15 -35.5t-36 -15.5h-190q-20 0 -35.5 15.5t-15.5 35.5zM-2 1690h88v98h-88v-98zM25 0v1505q0 20 15 35.5t36 15.5h221q20 0 35.5 -15t15.5 -36v-1505q0 -20 -15.5 -35.5t-35.5 -15.5h-221 q-20 0 -35.5 15.5t-15.5 35.5zM127 51h119v1403h-119v-1403zM184 1638v201q0 20 15.5 35.5t36.5 15.5h190q20 0 35.5 -15t15.5 -36v-201q0 -20 -15.5 -35.5t-35.5 -15.5h-190q-20 0 -36 15.5t-16 35.5zM287 1690h88v98h-88v-98z" />
<glyph unicode="&#xd0;" horiz-adv-x="761" d="M-31 655v228q0 20 15.5 35.5t35.5 15.5h11v571q0 20 15 35.5t36 15.5h174q84 0 149.5 -10t116.5 -34.5t87 -55.5t61.5 -84t40 -108.5t22.5 -140.5t11.5 -168t3.5 -203q0 -121 -3.5 -203t-11.5 -168t-22.5 -140.5t-40 -107.5t-61.5 -84t-87 -55.5t-116.5 -34.5t-149.5 -10 h-174q-20 0 -35.5 15.5t-15.5 35.5v604h-11q-20 0 -35.5 15.5t-15.5 35.5zM72 707h10q20 0 35.5 -15.5t15.5 -36.5v-604h123q57 0 100 3t82 14.5t65.5 22.5t49 38t37 50.5t26 70.5t16.5 89t8 113.5t4 135t1 164t-1 165t-4 136t-8 113.5t-16.5 88t-26 71t-37 51.5t-49 37.5 t-65.5 22.5t-82 14.5t-100 3h-123v-571q0 -20 -15.5 -36t-35.5 -16h-10v-124zM252 221v434q0 20 15.5 36t35.5 16h33v124h-33q-20 0 -35.5 15.5t-15.5 36.5v401q0 20 15.5 35.5t35.5 15.5q59 0 96 -14t61.5 -44t37 -92.5t16.5 -140t4 -206.5v-84q0 -133 -1 -210t-8 -152 t-20.5 -110.5t-39 -64.5t-59.5 -38t-87 -9q-20 0 -35.5 15.5t-15.5 35.5zM354 276q23 4 33 19.5t19.5 91t9.5 225.5q-14 -8 -29 -8h-33v-328zM354 934h33q15 0 29 -8q-2 135 -10.5 203.5t-18.5 83t-33 16.5v-295z" />
<glyph unicode="&#xd1;" horiz-adv-x="808" d="M31 0v1505q0 20 15 35.5t36 15.5h197q16 0 30.5 -11t18.5 -25l145 -531v516q0 20 15.5 35.5t35.5 15.5h203q20 0 35.5 -15t15.5 -36v-1505q0 -20 -15 -35.5t-36 -15.5h-197q-16 0 -30.5 11.5t-18.5 25.5l-145 530v-516q0 -20 -15.5 -35.5t-35.5 -15.5h-203 q-20 0 -35.5 15.5t-15.5 35.5zM133 51h100v803q0 20 15.5 35.5t36.5 15.5h12q16 0 30.5 -10t18.5 -29l19 -67l204 -748h107v1403h-101v-803q0 -20 -15 -35.5t-36 -15.5h-12q-16 0 -30.5 10.5t-18.5 28.5l-19 68l-204 747h-107v-1403zM156 1632v152q0 25 18 39q66 51 141 51 q47 0 107.5 -18.5t75.5 -20.5q41 0 80 25q16 12 37.5 7t31.5 -24q8 -12 8 -26v-152q0 -25 -20 -41q-66 -49 -139 -49q-47 0 -107 19.5t-74 19.5q-43 0 -82 -25q-16 -12 -37.5 -7t-31.5 24q-8 12 -8 26zM258 1708q30 8 57 8q49 -2 106.5 -20.5t74.5 -18.5q25 0 57 17v47 q-31 -8 -57 -8h-4q-43 2 -99.5 20.5t-77.5 18.5q-27 0 -57 -17v-47z" />
<glyph unicode="&#xd2;" d="M16 289v20v887q0 8 1 21.5t7.5 52.5t17.5 74.5t37.5 79.5t61.5 75t92.5 52.5t129 21.5t129 -20.5t92 -54.5t61.5 -74t38 -79.5t17.5 -73.5t8.5 -54v-21v-887q0 -8 -1 -21.5t-7.5 -52t-18.5 -74.5t-38 -80t-60.5 -75t-92 -52.5t-129.5 -21.5t-129 20.5t-93 54.5t-61.5 74 t-36.5 80t-18.5 73.5t-7.5 54.5zM70 1825.5q2 21.5 18 36.5q15 12 33 12h215q29 0 45 -25l106 -184q10 -18 4 -39.5t-22 -32.5q-12 -6 -27 -6h-159q-23 0 -39 19l-162 184q-14 14 -12 35.5zM119 309q0 -14 2 -34.5t15.5 -66.5t37 -82t72.5 -63.5t116.5 -27.5t116.5 27.5 t72.5 62.5t37 81t15.5 67.5t2 35.5v887q0 14 -2 34.5t-15.5 66.5t-37 82t-72.5 63.5t-116.5 27.5t-116.5 -27.5t-72.5 -62t-37 -81t-15.5 -68t-2 -35.5v-887zM233 1772l72 -82h49l-47 82h-74zM238 293v16v887q2 0 0 16.5t4 41t16 47t38 40t66.5 17.5t65.5 -16.5t38 -41 t16 -48t5 -40.5v-16v-887q-2 0 0 -16.5t-4 -41t-16 -47t-38 -40t-66.5 -17.5t-65.5 16.5t-38 41t-16 48t-5 40.5zM340 309q0 -20 7 -39.5t15 -19.5q10 0 16.5 19.5t6.5 39.5v887q0 20 -7 39.5t-16 19.5q-10 0 -16 -19t-6 -40v-887z" />
<glyph unicode="&#xd3;" d="M16 289v20v887q0 8 1 21.5t7.5 52.5t17.5 74.5t37.5 79.5t61.5 75t92.5 52.5t129 21.5t129 -20.5t92 -54.5t61.5 -74t38 -79.5t17.5 -73.5t8.5 -54v-21v-887q0 -8 -1 -21.5t-7.5 -52t-18.5 -74.5t-38 -80t-60.5 -75t-92 -52.5t-129.5 -21.5t-129 20.5t-93 54.5t-61.5 74 t-36.5 80t-18.5 73.5t-7.5 54.5zM119 309q0 -14 2 -34.5t15.5 -66.5t37 -82t72.5 -63.5t116.5 -27.5t116.5 27.5t72.5 62.5t37 81t15.5 67.5t2 35.5v887q0 14 -2 34.5t-15.5 66.5t-37 82t-72.5 63.5t-116.5 27.5t-116.5 -27.5t-72.5 -62t-37 -81t-15.5 -68t-2 -35.5v-887z M233 1638q0 14 7 27l106 184q16 25 45 25h215q20 0 35.5 -15.5t15.5 -35.5q0 -18 -12 -33l-162 -184q-16 -18 -39 -19h-159q-20 0 -36 15.5t-16 35.5zM238 293v16v887q2 0 0 16.5t4 41t16 47t38 40t66.5 17.5t65.5 -16.5t38 -41t16 -48t5 -40.5v-16v-887q-2 0 0 -16.5 t-4 -41t-16 -47t-38 -40t-66.5 -17.5t-65.5 16.5t-38 41t-16 48t-5 40.5zM340 309q0 -20 7 -39.5t15 -19.5q10 0 16.5 19.5t6.5 39.5v887q0 20 -7 39.5t-16 19.5q-10 0 -16 -19t-6 -40v-887zM373 1690h49l72 82h-74z" />
<glyph unicode="&#xd4;" d="M16 289v20v887q0 8 1 21.5t7.5 52.5t17.5 74.5t37.5 79.5t61.5 75t92.5 52.5t129 21.5t129 -20.5t92 -54.5t61.5 -74t38 -79.5t17.5 -73.5t8.5 -54v-21v-887q0 -8 -1 -21.5t-7.5 -52t-18.5 -74.5t-38 -80t-60.5 -75t-92 -52.5t-129.5 -21.5t-129 20.5t-93 54.5t-61.5 74 t-36.5 80t-18.5 73.5t-7.5 54.5zM61 1638q0 16 11 31l141 184q16 21 41 21h219q25 0 41 -21l141 -184q12 -16 9.5 -37.5t-19.5 -34.5q-14 -10 -31 -10h-188q-23 0 -39 17l-25 28l-22 -26q-16 -18 -39 -19h-188q-20 0 -36 15.5t-16 35.5zM119 309q0 -14 2 -34.5t15.5 -66.5 t37 -82t72.5 -63.5t116.5 -27.5t116.5 27.5t72.5 62.5t37 81t15.5 67.5t2 35.5v887q0 14 -2 34.5t-15.5 66.5t-37 82t-72.5 63.5t-116.5 27.5t-116.5 -27.5t-72.5 -62t-37 -81t-15.5 -68t-2 -35.5v-887zM217 1690h62l45 53q12 16 35.5 17t41.5 -15l48 -55h61l-61 82h-170z M238 293v16v887q2 0 0 16.5t4 41t16 47t38 40t66.5 17.5t65.5 -16.5t38 -41t16 -48t5 -40.5v-16v-887q-2 0 0 -16.5t-4 -41t-16 -47t-38 -40t-66.5 -17.5t-65.5 16.5t-38 41t-16 48t-5 40.5zM340 309q0 -20 7 -39.5t15 -19.5q10 0 16.5 19.5t6.5 39.5v887q0 20 -7 39.5 t-16 19.5q-10 0 -16 -19t-6 -40v-887z" />
<glyph unicode="&#xd5;" d="M16 289v20v887q0 8 1 21.5t7.5 52.5t17.5 74.5t37.5 79.5t61.5 75t92.5 52.5t129 21.5t129 -20.5t92 -54.5t61.5 -74t38 -79.5t17.5 -73.5t8.5 -54v-21v-887q0 -8 -1 -21.5t-7.5 -52t-18.5 -74.5t-38 -80t-60.5 -75t-92 -52.5t-129.5 -21.5t-129 20.5t-93 54.5t-61.5 74 t-36.5 80t-18.5 73.5t-7.5 54.5zM113 1632v152q0 25 18 39q66 51 141 51q47 0 107.5 -18.5t75.5 -20.5q41 0 80 25q16 12 37.5 7t31.5 -24q8 -12 8 -26v-152q0 -25 -20 -41q-66 -49 -139 -49q-47 0 -107 19.5t-74 19.5q-43 0 -82 -25q-16 -12 -37.5 -7t-31.5 24q-8 12 -8 26 zM119 309q0 -14 2 -34.5t15.5 -66.5t37 -82t72.5 -63.5t116.5 -27.5t116.5 27.5t72.5 62.5t37 81t15.5 67.5t2 35.5v887q0 14 -2 34.5t-15.5 66.5t-37 82t-72.5 63.5t-116.5 27.5t-116.5 -27.5t-72.5 -62t-37 -81t-15.5 -68t-2 -35.5v-887zM215 1708q30 8 57 8 q49 -2 106.5 -20.5t74.5 -18.5q25 0 57 17v47q-31 -8 -57 -8h-4q-43 2 -99.5 20.5t-77.5 18.5q-27 0 -57 -17v-47zM238 293v16v887q2 0 0 16.5t4 41t16 47t38 40t66.5 17.5t65.5 -16.5t38 -41t16 -48t5 -40.5v-16v-887q-2 0 0 -16.5t-4 -41t-16 -47t-38 -40t-66.5 -17.5 t-65.5 16.5t-38 41t-16 48t-5 40.5zM340 309q0 -20 7 -39.5t15 -19.5q10 0 16.5 19.5t6.5 39.5v887q0 20 -7 39.5t-16 19.5q-10 0 -16 -19t-6 -40v-887z" />
<glyph unicode="&#xd6;" d="M16 289v20v887q0 8 1 21.5t7.5 52.5t17.5 74.5t37.5 79.5t61.5 75t92.5 52.5t129 21.5t129 -20.5t92 -54.5t61.5 -74t38 -79.5t17.5 -73.5t8.5 -54v-21v-887q0 -8 -1 -21.5t-7.5 -52t-18.5 -74.5t-38 -80t-60.5 -75t-92 -52.5t-129.5 -21.5t-129 20.5t-93 54.5t-61.5 74 t-36.5 80t-18.5 73.5t-7.5 54.5zM72 1638v201q0 20 15 35.5t36 15.5h190q20 0 36 -15t16 -36v-201q0 -20 -15.5 -35.5t-36.5 -15.5h-190q-20 0 -35.5 15.5t-15.5 35.5zM119 309q0 -14 2 -34.5t15.5 -66.5t37 -82t72.5 -63.5t116.5 -27.5t116.5 27.5t72.5 62.5t37 81 t15.5 67.5t2 35.5v887q0 14 -2 34.5t-15.5 66.5t-37 82t-72.5 63.5t-116.5 27.5t-116.5 -27.5t-72.5 -62t-37 -81t-15.5 -68t-2 -35.5v-887zM174 1690h88v98h-88v-98zM238 293v16v887q2 0 0 16.5t4 41t16 47t38 40t66.5 17.5t65.5 -16.5t38 -41t16 -48t5 -40.5v-16v-887 q-2 0 0 -16.5t-4 -41t-16 -47t-38 -40t-66.5 -17.5t-65.5 16.5t-38 41t-16 48t-5 40.5zM340 309q0 -20 7 -39.5t15 -19.5q10 0 16.5 19.5t6.5 39.5v887q0 20 -7 39.5t-16 19.5q-10 0 -16 -19t-6 -40v-887zM360 1638v201q0 20 15.5 35.5t36.5 15.5h190q20 0 35.5 -15 t15.5 -36v-201q0 -20 -15 -35.5t-36 -15.5h-190q-20 0 -36 15.5t-16 35.5zM463 1690h88v98h-88v-98z" />
<glyph unicode="&#xd8;" d="M8 -20q0 8 2 14l41 139q-37 90 -35 176v887q0 8 1 21.5t7.5 52.5t17.5 74.5t37.5 79.5t61.5 75t92.5 52.5t128.5 21.5q70 0 127 -23q16 27 46 27h122q20 0 36 -15.5t16 -35.5q0 -8 -2 -15l-39 -131q41 -90 41 -184v-887q0 -8 -1 -21.5t-7.5 -52t-18.5 -74.5t-38 -80 t-60.5 -75t-92 -52.5t-129.5 -21.5q-70 0 -129 23q-16 -27 -45 -27h-129q-20 0 -35.5 15.5t-15.5 36.5zM119 307q-2 -76 33 -147q10 -18 4 -37l-27 -92h21l4 10q2 8 6 14q12 18 33.5 21.5t37.5 -6.5q49 -35 131 -35q68 0 117 27.5t72.5 62.5t37 81t15.5 67.5t2 35.5v887 q0 82 -39 156q-10 18 -4 39l25 84h-15l-4 -11q-2 -8 -6 -14q-12 -16 -32.5 -21.5t-38.5 7.5q-53 35 -130 34q-68 0 -116.5 -27.5t-72 -62t-37 -81t-15.5 -68t-2 -35.5v-887v-2zM238 274q-2 37 0 37q0 6 2 13l147 487q10 37 49 37q20 0 35.5 -15.5t15.5 -35.5v-488 q-2 0 0 -16.5t-4 -41t-16 -47t-38 -40t-67 -17.5q-113 0 -124 127zM238 727v469q2 0 0 16.5t4 41t16 47t38 40t66 17.5q111 0 125 -148q0 -10 -2 -18l-147 -479q-12 -37 -49 -37q-20 0 -35.5 15.5t-15.5 35.5zM340 301q2 -51 22 -51q10 0 16.5 19.5t6.5 39.5v142zM340 1067 l45 145q-6 43 -23 43q-10 0 -16 -19.5t-6 -39.5v-129z" />
<glyph unicode="&#xd9;" horiz-adv-x="749" d="M29 289v20v1196q0 20 15 35.5t36 15.5h221q20 0 35.5 -15t15.5 -36v-1196q0 -20 6.5 -39.5t16.5 -19.5q8 0 15 19.5t7 39.5v1196q0 20 15.5 35.5t36.5 15.5h221q20 0 35.5 -15t15.5 -36v-1196q0 -8 -1 -21.5t-7 -52t-17.5 -74.5t-38 -80t-61.5 -75t-92.5 -52.5 t-129 -21.5t-129 20.5t-92 54.5t-61 74t-38 80t-17.5 73.5t-8 54.5zM94 1825.5q2 21.5 19 36.5q14 12 32 12h215q29 0 46 -25l106 -184q10 -18 4 -39.5t-22 -32.5q-12 -6 -27 -6h-160q-23 0 -39 19l-162 184q-14 14 -12 35.5zM131 309q0 -14 2 -35.5t15.5 -67.5t37 -81 t72.5 -62.5t116.5 -27.5t117 27.5t73 63.5t36.5 82t15 66.5t2 34.5v1145h-118v-1145q-2 0 0 -16.5t-5.5 -41t-17.5 -47t-36.5 -40t-65.5 -17.5t-65.5 16.5t-38 41t-17.5 48t-4 40.5v16v1145h-119v-1145zM258 1772l72 -82h49l-47 82h-74z" />
<glyph unicode="&#xda;" horiz-adv-x="749" d="M29 289v20v1196q0 20 15 35.5t36 15.5h221q20 0 35.5 -15t15.5 -36v-1196q0 -20 6.5 -39.5t16.5 -19.5q8 0 15 19.5t7 39.5v1196q0 20 15.5 35.5t36.5 15.5h221q20 0 35.5 -15t15.5 -36v-1196q0 -8 -1 -21.5t-7 -52t-17.5 -74.5t-38 -80t-61.5 -75t-92.5 -52.5 t-129 -21.5t-129 20.5t-92 54.5t-61 74t-38 80t-17.5 73.5t-8 54.5zM131 309q0 -14 2 -35.5t15.5 -67.5t37 -81t72.5 -62.5t116.5 -27.5t117 27.5t73 63.5t36.5 82t15 66.5t2 34.5v1145h-118v-1145q-2 0 0 -16.5t-5.5 -41t-17.5 -47t-36.5 -40t-65.5 -17.5t-65.5 16.5 t-38 41t-17.5 48t-4 40.5v16v1145h-119v-1145zM256 1638q0 14 6 27l107 184q16 25 45 25h215q20 0 35.5 -15.5t15.5 -35.5q0 -18 -12 -33l-162 -184q-16 -18 -39 -19h-160q-20 0 -35.5 15.5t-15.5 35.5zM395 1690h49l72 82h-74z" />
<glyph unicode="&#xdb;" horiz-adv-x="749" d="M29 289v20v1196q0 20 15 35.5t36 15.5h221q20 0 35.5 -15t15.5 -36v-1196q0 -20 6.5 -39.5t16.5 -19.5q8 0 15 19.5t7 39.5v1196q0 20 15.5 35.5t36.5 15.5h221q20 0 35.5 -15t15.5 -36v-1196q0 -8 -1 -21.5t-7 -52t-17.5 -74.5t-38 -80t-61.5 -75t-92.5 -52.5 t-129 -21.5t-129 20.5t-92 54.5t-61 74t-38 80t-17.5 73.5t-8 54.5zM74 1638q0 16 10 31l141 184q16 21 41 21h219q25 0 41 -21l142 -184q12 -16 9 -37.5t-20 -34.5q-14 -10 -30 -10h-189q-23 0 -39 17l-24 28l-23 -26q-16 -18 -39 -19h-188q-20 0 -35.5 15.5t-15.5 35.5z M131 309q0 -14 2 -35.5t15.5 -67.5t37 -81t72.5 -62.5t116.5 -27.5t117 27.5t73 63.5t36.5 82t15 66.5t2 34.5v1145h-118v-1145q-2 0 0 -16.5t-5.5 -41t-17.5 -47t-36.5 -40t-65.5 -17.5t-65.5 16.5t-38 41t-17.5 48t-4 40.5v16v1145h-119v-1145zM229 1690h62l45 53 q12 16 35.5 17t42.5 -15l47 -55h61l-61 82h-170z" />
<glyph unicode="&#xdc;" horiz-adv-x="749" d="M29 289v20v1196q0 20 15 35.5t36 15.5h221q20 0 35.5 -15t15.5 -36v-1196q0 -20 7.5 -39.5t15.5 -19.5q10 0 16 19.5t6 39.5v1196q0 20 16 35.5t36 15.5h221q20 0 35.5 -15t15.5 -36v-1196q0 -8 -1 -21.5t-7 -52t-18.5 -74.5t-38 -80t-60.5 -75t-92.5 -52.5t-128.5 -21.5 q-72 0 -129.5 20.5t-93 54.5t-61 74t-37 80t-18.5 73.5t-7 54.5zM84 1638v201q0 20 15.5 35.5t35.5 15.5h191q20 0 35.5 -15t15.5 -36v-201q0 -20 -15.5 -35.5t-35.5 -15.5h-191q-20 0 -35.5 15.5t-15.5 35.5zM131 309q0 -14 2 -34.5t15.5 -66.5t37 -82t72.5 -63.5 t116.5 -27.5t117 27.5t73 62.5t36.5 81t15 67.5t2 35.5v1145h-118v-1145q-2 0 0 -16.5t-4.5 -41t-16.5 -47t-37.5 -40t-66.5 -17.5t-65.5 16.5t-38 41t-16.5 48t-5 40.5v16v1145h-119v-1145zM186 1690h88v98h-88v-98zM373 1638v201q0 20 15 35.5t36 15.5h190q20 0 36 -15 t16 -36v-201q0 -20 -15.5 -35.5t-36.5 -15.5h-190q-20 0 -35.5 15.5t-15.5 35.5zM475 1690h88v98h-88v-98z" />
<glyph unicode="&#xdd;" horiz-adv-x="704" d="M-35 1505q0 20 15.5 35.5t35.5 15.5h217q16 0 31 -11t19 -27l69 -301l70 301q2 16 16.5 27t32.5 11h217q6 0 12 -2q20 -4 31.5 -22.5t5.5 -38.5l-223 -858v-635q0 -20 -15.5 -35.5t-35.5 -15.5h-221q-20 0 -36 15.5t-16 35.5v635l-223 858q-2 6 -2 12zM82 1454l209 -801 q2 -6 2 -12v-590h119v590q0 6 2 12l209 801h-111l-102 -442q0 -4 -2 -8l-7 -15q-14 -31 -47 -31h-4q-33 0 -47 31l-6 15q-2 4 -2 8l-102 442h-111zM203 1638q0 14 6 27l106 184q16 25 45 25h215q20 0 36 -15.5t16 -35.5q0 -18 -13 -33l-161 -184q-16 -18 -39 -19h-160 q-20 0 -35.5 15.5t-15.5 35.5zM342 1690h49l72 82h-74z" />
<glyph unicode="&#xde;" d="M31 0v1505q0 20 15 35.5t36 15.5h219q20 0 35.5 -15t15.5 -36v-192q80 -8 147.5 -39t124 -89.5t88 -153.5t31.5 -218t-31.5 -219t-88 -153.5t-124 -89.5t-145.5 -40v-311q0 -20 -15 -35.5t-36 -15.5h-221q-20 0 -35.5 15.5t-15.5 35.5zM133 51h119v309q0 20 15.5 36 t35.5 16q147 0 242.5 91t95.5 310q0 399 -338 399h-2q-20 0 -35.5 15.5t-15.5 36.5v190h-117v-1403zM252 586v452q0 20 15.5 36t35.5 16q123 0 170 -72t47 -213q0 -139 -47 -204.5t-170 -65.5q-20 0 -35.5 15t-15.5 36zM354 641q39 6 51.5 33.5t12.5 130t-13.5 136.5 t-50.5 42v-342z" />
<glyph unicode="&#xdf;" horiz-adv-x="733" d="M14 0v1235q0 141 86 239.5t246 98.5q156 0 239 -98.5t83 -237.5q0 -98 -62 -170q125 -125 125 -492q0 -186 -24.5 -310t-75.5 -192.5t-119 -96t-166 -27.5q-21 0 -37 16q-16 -16 -37 -16h-206q-20 0 -36 15.5t-16 35.5zM117 51h104v1184q0 57 31 105.5t94 48.5 q66 0 101.5 -46.5t35.5 -105.5q0 -53 -22.5 -95t-63.5 -61v-57q76 -27 101.5 -125t25.5 -324q0 -213 -25.5 -308t-101.5 -120v-94q47 4 79 15.5t63.5 44t49 88t29 148.5t11.5 226q0 371 -127 443q-8 6 -15 14q-12 16 -9 38t20 34q68 49 67 133q0 106 -54 169.5t-165 63.5 q-117 0 -173 -64.5t-56 -170.5v-1184zM324 240q12 4 22 4q14 0 20.5 1t19.5 17.5t19.5 49t11.5 99t5 164.5q0 102 -5 174t-11.5 106t-19.5 51.5t-19.5 19.5t-20.5 2q-10 0 -22 4v-692zM324 1167q12 4 22 4q4 0 11.5 5.5t15.5 20.5t8 40q0 49 -35 49q-23 0 -22 -51v-68z" />
<glyph unicode="&#xe0;" horiz-adv-x="681" d="M-2 260q0 86 22.5 159t54 120t76 86t78 59.5t70.5 38.5t45 25v106q0 39 -6 53q-4 -12 -8 -119q0 -20 -15.5 -34.5t-35.5 -14.5h-207q-20 0 -36 15.5t-16 36.5v47q0 143 95.5 246.5t234.5 103.5q123 0 213 -88t90 -217v-688q0 -104 15 -187q4 -25 -13.5 -42t-38.5 -17 h-202q-23 0 -39 16q-8 10 -15 23q-68 -55 -145 -56q-82 0 -149.5 78t-67.5 250zM51 1491.5q2 21.5 19 36.5q14 12 32 12h215q29 0 45 -24l107 -185q10 -18 4 -39.5t-22 -31.5q-12 -6 -27 -7h-160q-23 0 -39 19l-162 184q-14 14 -12 35.5zM100 260q0 -61 10.5 -106 t23.5 -66.5t30.5 -35t29 -15.5t21.5 -2q37 0 72 26.5t49 53.5t45 26h14q20 0 35.5 -15t15.5 -36q0 -23 3 -39h108q-6 59 -6 144v688q0 86 -59.5 144t-141.5 58q-94 0 -159.5 -69.5t-67.5 -173.5h104q2 166 110.5 166t108.5 -154v-123q0 -8 -2 -14q-10 -37 -41.5 -63.5 t-68.5 -43t-79 -43t-76 -59.5t-56.5 -96.5t-22.5 -151.5zM201 291q0 96 43 178t131 119q10 4 20 4q20 0 35.5 -15.5t15.5 -35.5v-287q0 -53 -42 -86t-95 -33q-108 0 -108 156zM215 1438l72 -82h49l-47 82h-74zM303 291q0 -35 10 -53q12 2 19.5 5t9.5 7l2 4v182 q-41 -57 -41 -145z" />
<glyph unicode="&#xe1;" horiz-adv-x="681" d="M-2 260q0 86 22.5 159t54 120t76 86t78 59.5t70.5 38.5t45 25v106q0 39 -6 53q-4 -12 -8 -119q0 -20 -15.5 -34.5t-35.5 -14.5h-207q-20 0 -36 15.5t-16 36.5v47q0 143 95.5 246.5t234.5 103.5q123 0 213 -88t90 -217v-688q0 -104 15 -187q4 -25 -13.5 -42t-38.5 -17 h-202q-23 0 -39 16q-8 10 -15 23q-68 -55 -145 -56q-82 0 -149.5 78t-67.5 250zM100 260q0 -61 10.5 -106t23.5 -66.5t30.5 -35t29 -15.5t21.5 -2q37 0 72 26.5t49 53.5t45 26h14q20 0 35.5 -15t15.5 -36q0 -23 3 -39h108q-6 59 -6 144v688q0 86 -59.5 144t-141.5 58 q-94 0 -159.5 -69.5t-67.5 -173.5h104q2 166 110.5 166t108.5 -154v-123q0 -8 -2 -14q-10 -37 -41.5 -63.5t-68.5 -43t-79 -43t-76 -59.5t-56.5 -96.5t-22.5 -151.5zM201 291q0 96 43 178t131 119q10 4 20 4q20 0 35.5 -15.5t15.5 -35.5v-287q0 -53 -42 -86t-95 -33 q-108 0 -108 156zM213 1305q0 14 6 26l107 185q16 24 45 24h215q20 0 35.5 -15.5t15.5 -35.5q0 -18 -12 -33l-162 -184q-16 -18 -39 -19h-160q-20 0 -35.5 15.5t-15.5 36.5zM303 291q0 -35 10 -53q12 2 19.5 5t9.5 7l2 4v182q-41 -57 -41 -145zM352 1356h49l72 82h-74z" />
<glyph unicode="&#xe2;" horiz-adv-x="681" d="M-2 260q0 86 22.5 159t54 120t76 86t78 59.5t70.5 38.5t45 25v106q0 39 -6 53q-4 -12 -8 -119q0 -20 -15.5 -34.5t-35.5 -14.5h-207q-20 0 -36 15.5t-16 36.5v47q0 143 95.5 246.5t234.5 103.5q123 0 213 -88t90 -217v-688q0 -104 15 -187q4 -25 -13.5 -42t-38.5 -17 h-202q-23 0 -39 16q-8 10 -15 23q-68 -55 -145 -56q-82 0 -149.5 78t-67.5 250zM39 1305q0 16 10 30l141 185q16 20 41 20h220q25 0 41 -20l141 -185q12 -16 9 -37.5t-19 -33.5q-14 -10 -31 -11h-189q-23 0 -38 17l-25 28l-23 -26q-16 -18 -38 -19h-189q-20 0 -35.5 15.5 t-15.5 36.5zM100 260q0 -61 10.5 -106t23.5 -66.5t30.5 -35t29 -15.5t21.5 -2q37 0 72 26.5t49 53.5t45 26h14q20 0 35.5 -15t15.5 -36q0 -23 3 -39h108q-6 59 -6 144v688q0 86 -59.5 144t-141.5 58q-94 0 -159.5 -69.5t-67.5 -173.5h104q2 166 110.5 166t108.5 -154v-123 q0 -8 -2 -14q-10 -37 -41.5 -63.5t-68.5 -43t-79 -43t-76 -59.5t-56.5 -96.5t-22.5 -151.5zM195 1356h61l45 53q12 16 35.5 17t42.5 -15l47 -55h61l-61 82h-170zM201 291q0 96 43 178t131 119q10 4 20 4q20 0 35.5 -15.5t15.5 -35.5v-287q0 -53 -42 -86t-95 -33 q-108 0 -108 156zM303 291q0 -35 10 -53q12 2 19.5 5t9.5 7l2 4v182q-41 -57 -41 -145z" />
<glyph unicode="&#xe3;" horiz-adv-x="681" d="M-2 260q0 86 22.5 159t54 120t76 86t78 59.5t70.5 38.5t45 25v106q0 39 -6 53q-4 -12 -8 -119q0 -20 -15.5 -34.5t-35.5 -14.5h-207q-20 0 -36 15.5t-16 36.5v47q0 143 95.5 246.5t234.5 103.5q123 0 213 -88t90 -217v-688q0 -104 15 -187q4 -25 -13.5 -42t-38.5 -17 h-202q-23 0 -39 16q-8 10 -15 23q-68 -55 -145 -56q-82 0 -149.5 78t-67.5 250zM92 1305v151q0 25 19 39q66 51 141 51q47 0 107.5 -18.5t74.5 -20.5q41 0 80 25q16 12 37.5 7t32.5 -23q8 -12 8 -27v-152q0 -25 -21 -41q-66 -49 -139 -49q-47 0 -106.5 19.5t-73.5 19.5 q-43 0 -82 -24q-16 -12 -37.5 -7t-32.5 23q-8 12 -8 27zM100 260q0 -61 10.5 -106t23.5 -66.5t30.5 -35t29 -15.5t21.5 -2q37 0 72 26.5t49 53.5t45 26h14q20 0 35.5 -15t15.5 -36q0 -23 3 -39h108q-6 59 -6 144v688q0 86 -59.5 144t-141.5 58q-94 0 -159.5 -69.5 t-67.5 -173.5h104q2 166 110.5 166t108.5 -154v-123q0 -8 -2 -14q-10 -37 -41.5 -63.5t-68.5 -43t-79 -43t-76 -59.5t-56.5 -96.5t-22.5 -151.5zM195 1380q30 9 57 9q49 -2 106.5 -20.5t73.5 -18.5q25 0 57 16v47q-31 -8 -57 -8h-4q-43 2 -99.5 20.5t-76.5 18.5 q-27 0 -57 -17v-47zM201 291q0 96 43 178t131 119q10 4 20 4q20 0 35.5 -15.5t15.5 -35.5v-287q0 -53 -42 -86t-95 -33q-108 0 -108 156zM303 291q0 -35 10 -53q12 2 19.5 5t9.5 7l2 4v182q-41 -57 -41 -145z" />
<glyph unicode="&#xe4;" horiz-adv-x="681" d="M-2 260q0 86 22.5 159t54 120t76 86t78 59.5t70.5 38.5t45 25v106q0 39 -6 53q-4 -12 -8 -119q0 -20 -15.5 -34.5t-35.5 -14.5h-207q-20 0 -36 15.5t-16 36.5v47q0 143 95.5 246.5t234.5 103.5q123 0 213 -88t90 -217v-688q0 -104 15 -187q4 -25 -13.5 -42t-38.5 -17 h-202q-23 0 -39 16q-8 10 -15 23q-68 -55 -145 -56q-82 0 -149.5 78t-67.5 250zM51 1305v200q0 20 15.5 35.5t35.5 15.5h191q20 0 35.5 -15t15.5 -36v-200q0 -20 -15.5 -36t-35.5 -16h-191q-20 0 -35.5 16t-15.5 36zM100 260q0 -61 10.5 -106t23.5 -66.5t30.5 -35t29 -15.5 t21.5 -2q37 0 72 26.5t49 53.5t45 26h14q20 0 35.5 -15t15.5 -36q0 -23 3 -39h108q-6 59 -6 144v688q0 86 -59.5 144t-141.5 58q-94 0 -159.5 -69.5t-67.5 -173.5h104q2 166 110.5 166t108.5 -154v-123q0 -8 -2 -14q-10 -37 -41.5 -63.5t-68.5 -43t-79 -43t-76 -59.5 t-56.5 -96.5t-22.5 -151.5zM154 1356h88v98h-88v-98zM201 291q0 96 43 178t131 119q10 4 20 4q20 0 35.5 -15.5t15.5 -35.5v-287q0 -53 -42 -86t-95 -33q-108 0 -108 156zM303 291q0 -35 10 -53q12 2 19.5 5t9.5 7l2 4v182q-41 -57 -41 -145zM340 1305v200q0 20 15.5 35.5 t35.5 15.5h191q20 0 35.5 -15t15.5 -36v-200q0 -20 -15.5 -36t-35.5 -16h-191q-20 0 -35.5 16t-15.5 36zM442 1356h88v98h-88v-98z" />
<glyph unicode="&#xe5;" horiz-adv-x="681" d="M-2 260q0 86 22.5 159t54 120t76 86t78 59.5t70.5 38.5t45 25v106q0 39 -6 53q-4 -12 -8 -119q0 -20 -15.5 -34.5t-35.5 -14.5h-207q-20 0 -36 15.5t-16 36.5v47q0 143 95.5 246.5t234.5 103.5q123 0 213 -88t90 -217v-688q0 -104 15 -187q4 -25 -13.5 -42t-38.5 -17 h-202q-23 0 -39 16q-8 10 -15 23q-68 -55 -145 -56q-82 0 -149.5 78t-67.5 250zM100 260q0 -61 10.5 -106t23.5 -66.5t30.5 -35t29 -15.5t21.5 -2q37 0 72 26.5t49 53.5t45 26h14q20 0 35.5 -15t15.5 -36q0 -23 3 -39h108q-6 59 -6 144v688q0 86 -59.5 144t-141.5 58 q-94 0 -159.5 -69.5t-67.5 -173.5h104q2 166 110.5 166t108.5 -154v-123q0 -8 -2 -14q-10 -37 -41.5 -63.5t-68.5 -43t-79 -43t-76 -59.5t-56.5 -96.5t-22.5 -151.5zM137 1421q0 84 60.5 139.5t144.5 55.5t143.5 -55.5t59.5 -139.5t-59.5 -139t-143.5 -55t-144.5 55 t-60.5 139zM201 291q0 96 43 178t131 119q10 4 20 4q20 0 35.5 -15.5t15.5 -35.5v-287q0 -53 -42 -86t-95 -33q-108 0 -108 156zM215 1421.5q0 51.5 39 87t88 35.5t88 -35.5t39 -87t-39 -87.5t-88 -36t-88 36t-39 87.5zM240 1421q0 -39 28.5 -65.5t73.5 -26.5t72.5 25.5 t27.5 66.5t-27.5 66.5t-72.5 25.5t-73.5 -26.5t-28.5 -65.5zM303 291q0 -35 10 -53q12 2 19.5 5t9.5 7l2 4v182q-41 -57 -41 -145zM317 1421q0 -6 8.5 -13t16.5 -7t16.5 7t8.5 13t-8.5 13.5t-16.5 7.5t-16.5 -7.5t-8.5 -13.5z" />
<glyph unicode="&#xe6;" horiz-adv-x="989" d="M-2 260q0 86 22.5 159t54 120t76 86t78 59.5t70.5 38.5t45 25v106q0 39 -6 53q-4 -12 -8 -119q0 -20 -15.5 -34.5t-35.5 -14.5h-207q-20 0 -36 15.5t-16 36.5v47q0 143 95.5 246.5t234.5 103.5q80 0 152 -41q70 41 162 41q66 0 119 -18.5t84.5 -49t55 -66.5t35 -72 t17.5 -66.5t6 -49.5v-18v-326q0 -20 -15.5 -35.5t-35.5 -15.5h-291v-192q0 -18 8 -40t17 -22q8 0 15 20.5t7 41.5v122q0 20 15.5 36t35.5 16h193q20 0 35.5 -15.5t15.5 -36.5v-129q0 -6 -1 -18t-7 -48t-16.5 -68t-35 -71.5t-56 -67.5t-85 -47.5t-118.5 -19.5q-145 0 -232 99 q-98 -98 -215 -99q-82 0 -149.5 78t-67.5 250zM100 260q0 -61 10.5 -106t23.5 -66.5t30.5 -35t29 -15.5t21.5 -2q94 0 180 110q8 10 19 15q18 10 38.5 4t28.5 -27q53 -102 181 -102q59 0 103 24.5t64.5 54t32.5 69.5t14.5 58.5t2.5 30.5v78h-91v-71q-2 0 0.5 -16.5t-4 -41 t-16.5 -48t-38 -41t-66.5 -17.5t-66.5 16t-39 41t-16 48.5t-5 41.5v17v243q0 20 15 35.5t36 15.5h291v275q0 12 -2.5 30.5t-13.5 58.5t-31.5 69.5t-64.5 54t-103 24.5q-80 0 -132 -41q-31 -25 -61 0q-53 41 -121 41q-94 0 -159.5 -69.5t-67.5 -173.5h104q2 166 110.5 166 t108.5 -154v-123q0 -8 -2 -14q-10 -37 -41.5 -63.5t-68.5 -43t-79 -43t-76 -59.5t-56.5 -96.5t-22.5 -151.5zM201 291q0 96 43 178t131 119q10 4 20 4q20 0 35.5 -15.5t15.5 -35.5v-287q0 -53 -42 -86t-95 -33q-108 0 -108 156zM303 291q0 -35 10 -53q12 2 19.5 5t9.5 7l2 4 v182q-41 -57 -41 -145zM537 684v158q2 2 0 17t5 41t17 49.5t38 41t66.5 17.5t65.5 -17.5t38 -42t16 -49.5t5 -41v-16v-158q0 -20 -15 -35.5t-36 -15.5h-149q-20 0 -35.5 15.5t-15.5 35.5zM639 735h47v107q0 20 -7 41.5t-15 21.5t-16.5 -22.5t-8.5 -40.5v-107z" />
<glyph unicode="&#xe7;" horiz-adv-x="645" d="M14 315v490q0 193 87 288t229 95q317 0 317 -373v-88q0 -20 -15.5 -35.5t-35.5 -15.5h-207q-20 0 -35.5 15.5t-15.5 35.5v135q0 27 -2 39h-6h-2q-4 -10 -4 -39v-604q0 -29 4 -39h2h6q2 12 2 39v156q0 20 15.5 35.5t35.5 15.5h207q20 0 35.5 -15.5t15.5 -35.5v-109 q0 -373 -317 -373q-141 0 -228.5 95.5t-87.5 287.5zM117 315q0 -160 55 -220t158 -60q119 0 167 53t48 217v57h-105v-104q0 -86 -37 -119q-29 -23 -73 -22q-43 0 -72 26q-8 6 -14 14.5t-9.5 15.5t-6.5 16.5t-4 15.5t-2 16t-1 13.5v12.5v11v604v10v15t1 14t2 16.5t4 15.5 t7.5 16t10.5 15.5t14 14.5q29 25 70 25q47 0 76 -25q35 -33 34 -117v-84h105v37q0 164 -48 217t-167 53q-102 0 -157.5 -60t-55.5 -220v-490zM186 -111q0 20 15.5 36t36.5 16h172q20 0 35.5 -15.5t15.5 -36.5v-141q0 -8 -2 -16l-45 -133q-12 -35 -49 -35h-105q-8 0 -14 2 q-20 6 -30.5 25.5t-4.5 37.5l20 68q-18 4 -31.5 17.5t-13.5 33.5v141zM289 -162v-39h12q20 0 35.5 -15t15.5 -36q0 -8 -2 -14l-4 -17l12 39v82h-69z" />
<glyph unicode="&#xe8;" horiz-adv-x="659" d="M14 279v563q0 8 1 20t7.5 48t16.5 69t34.5 73t56.5 68.5t85 48t118.5 19.5t119 -18.5t85 -49t55 -66.5t35 -72t17.5 -66.5t6 -49.5v-18v-326q0 -20 -15 -35.5t-36 -15.5h-291v-192q0 -18 8.5 -40t16.5 -22t15 20.5t7 41.5v122q0 20 16 36t36 16h192q20 0 35.5 -15.5 t15.5 -36.5v-129q0 -6 -1 -18t-7 -48t-16.5 -68t-35 -71.5t-56 -67.5t-85 -47.5t-119 -19.5t-117.5 19.5t-85 49.5t-56.5 66.5t-34.5 74.5t-16.5 68t-6.5 50zM51 1491.5q2 21.5 19 36.5q14 12 32 12h215q29 0 45 -24l107 -185q10 -18 4 -39.5t-22 -31.5q-12 -6 -27 -7h-160 q-23 0 -39 19l-162 184q-14 14 -12 35.5zM117 279q0 -12 2 -32t14 -60t32.5 -71.5t63.5 -56t103 -24.5q59 0 103 24.5t64.5 54t33 69.5t14.5 58.5t2 30.5v78h-90v-71q-2 0 0 -16.5t-4 -41t-16.5 -48t-38 -41t-66.5 -17.5t-66.5 16t-39 41t-16.5 48.5t-5 41.5v17v243 q0 20 15.5 35.5t35.5 15.5h291v275q0 12 -2 30.5t-13.5 58.5t-32 69.5t-64.5 54t-103 24.5t-102.5 -24.5t-65 -55t-33.5 -71.5t-14 -60.5t-2 -31.5v-563zM207 684v158q2 2 0 17t5 41t17.5 49.5t38 41t66.5 17.5t65.5 -17.5t38 -42t16.5 -49.5t5 -41v-16v-158 q0 -20 -15.5 -35.5t-35.5 -15.5h-150q-20 0 -35.5 15.5t-15.5 35.5zM215 1438l72 -82h49l-47 82h-74zM309 735h47v107q0 20 -7 41.5t-15 21.5t-16.5 -22.5t-8.5 -40.5v-107z" />
<glyph unicode="&#xe9;" horiz-adv-x="659" d="M14 279v563q0 8 1 20t7.5 48t16.5 69t34.5 73t56.5 68.5t85 48t118.5 19.5t119 -18.5t85 -49t55 -66.5t35 -72t17.5 -66.5t6 -49.5v-18v-326q0 -20 -15 -35.5t-36 -15.5h-291v-192q0 -18 8.5 -40t16.5 -22t15 20.5t7 41.5v122q0 20 16 36t36 16h192q20 0 35.5 -15.5 t15.5 -36.5v-129q0 -6 -1 -18t-7 -48t-16.5 -68t-35 -71.5t-56 -67.5t-85 -47.5t-119 -19.5t-117.5 19.5t-85 49.5t-56.5 66.5t-34.5 74.5t-16.5 68t-6.5 50zM117 279q0 -12 2 -32t14 -60t32.5 -71.5t63.5 -56t103 -24.5q59 0 103 24.5t64.5 54t33 69.5t14.5 58.5t2 30.5v78 h-90v-71q-2 0 0 -16.5t-4 -41t-16.5 -48t-38 -41t-66.5 -17.5t-66.5 16t-39 41t-16.5 48.5t-5 41.5v17v243q0 20 15.5 35.5t35.5 15.5h291v275q0 12 -2 30.5t-13.5 58.5t-32 69.5t-64.5 54t-103 24.5t-102.5 -24.5t-65 -55t-33.5 -71.5t-14 -60.5t-2 -31.5v-563zM207 684 v158q2 2 0 17t5 41t17.5 49.5t38 41t66.5 17.5t65.5 -17.5t38 -42t16.5 -49.5t5 -41v-16v-158q0 -20 -15.5 -35.5t-35.5 -15.5h-150q-20 0 -35.5 15.5t-15.5 35.5zM213 1305q0 14 6 26l107 185q16 24 45 24h215q20 0 35.5 -15.5t15.5 -35.5q0 -18 -12 -33l-162 -184 q-16 -18 -39 -19h-160q-20 0 -35.5 15.5t-15.5 36.5zM309 735h47v107q0 20 -7 41.5t-15 21.5t-16.5 -22.5t-8.5 -40.5v-107zM352 1356h49l72 82h-74z" />
<glyph unicode="&#xea;" horiz-adv-x="659" d="M14 279v563q0 8 1 20t7.5 48t16.5 69t34.5 73t56.5 68.5t85 48t118.5 19.5t119 -18.5t85 -49t55 -66.5t35 -72t17.5 -66.5t6 -49.5v-18v-326q0 -20 -15 -35.5t-36 -15.5h-291v-192q0 -18 8.5 -40t16.5 -22t15 20.5t7 41.5v122q0 20 16 36t36 16h192q20 0 35.5 -15.5 t15.5 -36.5v-129q0 -6 -1 -18t-7 -48t-16.5 -68t-35 -71.5t-56 -67.5t-85 -47.5t-119 -19.5t-117.5 19.5t-85 49.5t-56.5 66.5t-34.5 74.5t-16.5 68t-6.5 50zM29 1305q0 16 10 30l141 185q16 20 41 20h219q25 0 41 -20l142 -185q12 -16 9 -37.5t-20 -33.5q-14 -10 -30 -11 h-189q-23 0 -39 17l-24 28l-23 -26q-16 -18 -39 -19h-188q-20 0 -35.5 15.5t-15.5 36.5zM117 279q0 -12 2 -32t14 -60t32.5 -71.5t63.5 -56t103 -24.5q59 0 103 24.5t64.5 54t33 69.5t14.5 58.5t2 30.5v78h-90v-71q-2 0 0 -16.5t-4 -41t-16.5 -48t-38 -41t-66.5 -17.5 t-66.5 16t-39 41t-16.5 48.5t-5 41.5v17v243q0 20 15.5 35.5t35.5 15.5h291v275q0 12 -2 30.5t-13.5 58.5t-32 69.5t-64.5 54t-103 24.5t-102.5 -24.5t-65 -55t-33.5 -71.5t-14 -60.5t-2 -31.5v-563zM184 1356h62l45 53q12 16 35.5 17t42.5 -15l47 -55h61l-61 82h-170z M207 684v158q2 2 0 17t5 41t17.5 49.5t38 41t66.5 17.5t65.5 -17.5t38 -42t16.5 -49.5t5 -41v-16v-158q0 -20 -15.5 -35.5t-35.5 -15.5h-150q-20 0 -35.5 15.5t-15.5 35.5zM309 735h47v107q0 20 -7 41.5t-15 21.5t-16.5 -22.5t-8.5 -40.5v-107z" />
<glyph unicode="&#xeb;" horiz-adv-x="659" d="M14 279v563q0 8 1 20t7.5 48t16.5 69t34.5 73t56.5 68.5t85 48t118.5 19.5t119 -18.5t85 -49t55 -66.5t35 -72t17.5 -66.5t6 -49.5v-18v-326q0 -20 -15 -35.5t-36 -15.5h-291v-192q0 -18 8.5 -40t16.5 -22t15 20.5t7 41.5v122q0 20 16 36t36 16h192q20 0 35.5 -15.5 t15.5 -36.5v-129q0 -6 -1 -18t-7 -48t-16.5 -68t-35 -71.5t-56 -67.5t-85 -47.5t-119 -19.5t-117.5 19.5t-85 49.5t-56.5 66.5t-34.5 74.5t-16.5 68t-6.5 50zM39 1305v200q0 20 15.5 35.5t35.5 15.5h191q20 0 35.5 -15t15.5 -36v-200q0 -20 -15.5 -36t-35.5 -16h-191 q-20 0 -35.5 16t-15.5 36zM117 279q0 -12 2 -32t14 -60t32.5 -71.5t63.5 -56t103 -24.5q59 0 103 24.5t64.5 54t33 69.5t14.5 58.5t2 30.5v78h-90v-71q-2 0 0 -16.5t-4 -41t-16.5 -48t-38 -41t-66.5 -17.5t-66.5 16t-39 41t-16.5 48.5t-5 41.5v17v243q0 20 15.5 35.5 t35.5 15.5h291v275q0 12 -2 30.5t-13.5 58.5t-32 69.5t-64.5 54t-103 24.5t-102.5 -24.5t-65 -55t-33.5 -71.5t-14 -60.5t-2 -31.5v-563zM141 1356h88v98h-88v-98zM207 684v158q2 2 0 17t5 41t17.5 49.5t38 41t66.5 17.5t65.5 -17.5t38 -42t16.5 -49.5t5 -41v-16v-158 q0 -20 -15.5 -35.5t-35.5 -15.5h-150q-20 0 -35.5 15.5t-15.5 35.5zM309 735h47v107q0 20 -7 41.5t-15 21.5t-16.5 -22.5t-8.5 -40.5v-107zM328 1305v200q0 20 15 35.5t36 15.5h190q20 0 36 -15t16 -36v-200q0 -20 -15.5 -36t-36.5 -16h-190q-20 0 -35.5 16t-15.5 36z M430 1356h88v98h-88v-98z" />
<glyph unicode="&#xec;" horiz-adv-x="370" d="M-84 1491.5q2 21.5 18 36.5q15 12 33 12h215q29 0 45 -24l107 -185q10 -18 4 -39.5t-23 -31.5q-12 -6 -26 -7h-160q-23 0 -39 19l-162 184q-14 14 -12 35.5zM31 0v1120q0 20 15 35.5t36 15.5h207q20 0 35.5 -15t15.5 -36v-1120q0 -20 -15.5 -35.5t-35.5 -15.5h-207 q-20 0 -35.5 15.5t-15.5 35.5zM80 1438l72 -82h49l-47 82h-74zM133 51h105v1018h-105v-1018z" />
<glyph unicode="&#xed;" horiz-adv-x="370" d="M31 0v1120q0 20 15 35.5t36 15.5h207q20 0 35.5 -15t15.5 -36v-1120q0 -20 -15.5 -35.5t-35.5 -15.5h-207q-20 0 -35.5 15.5t-15.5 35.5zM31 1305q0 14 6 26l106 185q16 24 45 24h215q20 0 36 -15.5t16 -35.5q0 -18 -13 -33l-161 -184q-16 -18 -39 -19h-160 q-20 0 -35.5 15.5t-15.5 36.5zM133 51h105v1018h-105v-1018zM170 1356h49l72 82h-74z" />
<glyph unicode="&#xee;" horiz-adv-x="370" d="M-117 1305q0 16 11 30l141 185q16 20 41 20h219q25 0 41 -20l141 -185q12 -16 9 -37.5t-19 -33.5q-14 -10 -31 -11h-188q-23 0 -39 17l-25 28l-22 -26q-16 -18 -39 -19h-189q-20 0 -35.5 15.5t-15.5 36.5zM31 0v1120q0 20 15 35.5t36 15.5h207q20 0 35.5 -15t15.5 -36 v-1120q0 -20 -15.5 -35.5t-35.5 -15.5h-207q-20 0 -35.5 15.5t-15.5 35.5zM39 1356h61l45 53q12 16 36 17t42 -15l47 -55h62l-62 82h-170zM133 51h105v1018h-105v-1018z" />
<glyph unicode="&#xef;" horiz-adv-x="372" d="M-104 1305v200q0 20 15 35.5t36 15.5h190q20 0 35.5 -15t15.5 -36v-200q0 -20 -15 -36t-36 -16h-190q-20 0 -35.5 16t-15.5 36zM-2 1356h88v98h-88v-98zM31 0v1120q0 20 15 35.5t36 15.5h207q20 0 35.5 -15t15.5 -36v-1120q0 -20 -15.5 -35.5t-35.5 -15.5h-207 q-20 0 -35.5 15.5t-15.5 35.5zM133 51h105v1018h-105v-1018zM184 1305v200q0 20 15.5 35.5t36.5 15.5h190q20 0 35.5 -15t15.5 -36v-200q0 -20 -15.5 -36t-35.5 -16h-190q-20 0 -36 16t-16 36zM287 1356h88v98h-88v-98z" />
<glyph unicode="&#xf0;" horiz-adv-x="673" d="M25 259v20v579q0 291 182 326l-31 37q-14 16 -12 36.5t18 34.5l68 60q-10 14 -19 20q-14 20 -12 40t17 32l108 100q18 14 38.5 12t33.5 -14q10 -12 22 -24l56 49q18 14 38.5 11t32.5 -17l56 -66q14 -16 11 -37.5t-18 -34.5l-67 -59q111 -199 110 -436v-656v-18t-6 -48 t-17 -68t-35 -71.5t-55.5 -67.5t-84.5 -47.5t-119 -19.5t-118 19.5t-85 48.5t-56.5 70t-33.5 72.5t-16 68.5t-6 48zM127 279q0 -14 2 -33t13.5 -59t32 -71.5t63.5 -56t102 -24.5t103 24.5t64.5 54t32 69.5t13.5 57.5t2 31.5v656q0 231 -117 420q-14 23 -4 47q-27 0 -41 18 q-8 10 -18 21l-35 -33q10 -16 20 -35q14 -27 -2 -53q31 -6 41 -33q41 -100 56 -215q2 -23 -13 -39q-14 -16 -34.5 -18t-36.5 12q-78 66 -123 65q-39 0 -64.5 -22.5t-37 -60t-15.5 -69.5t-4 -65v-5v-5v-579zM218 858q-3 16 3 42t16.5 49.5t37 41t65.5 17.5t65.5 -17.5t37 -42 t16.5 -49.5t4 -41v-18v-559q-2 -2 0 -18.5t-4 -41t-16.5 -48t-37 -41t-65.5 -17.5t-64.5 17.5t-37 41t-16.5 48t-3 40.5v19v559q2 2 -1 18zM322 276q0 -18 6 -38.5t12 -20.5q8 0 14 20.5t6 38.5v3v563v2q0 20 -6 40.5t-14 20.5q-6 0 -12 -21.5t-6 -39.5v-2v-563v-3z M326 1169l4 -2l-2 7q0 -1 -2 -5z" />
<glyph unicode="&#xf1;" horiz-adv-x="690" d="M31 0v1120q0 20 15 35.5t36 15.5h207q35 0 47 -32q66 49 121 49q106 0 156.5 -87t50.5 -183v-918q0 -20 -15.5 -35.5t-36.5 -15.5h-206q-20 0 -36 15.5t-16 35.5v883q-6 -4 -14 -15v-868q0 -20 -15.5 -35.5t-35.5 -15.5h-207q-20 0 -35.5 15.5t-15.5 35.5zM96 1305v151 q0 25 19 39q66 51 141 51q47 0 107.5 -18.5t74.5 -20.5q41 0 80 25q16 12 38 7t32 -23q8 -12 8 -27v-152q0 -25 -21 -41q-66 -49 -139 -49q-47 0 -106.5 19.5t-73.5 19.5q-43 0 -82 -24q-16 -12 -37.5 -7t-32.5 23q-8 12 -8 27zM133 51h105v832q0 12 6 22q0 4 3 9.5t12 19.5 t20.5 24.5t31.5 19.5t45 9q35 0 68 -24.5t33 -75.5v-836h104v867q0 68 -29.5 117.5t-74.5 49.5q-16 0 -42 -19t-54.5 -47t-45.5 -36q-12 -8 -26 -8q-20 0 -35.5 15.5t-15.5 35.5v43h-105v-1018zM199 1380q30 9 57 9q49 -2 106.5 -20.5t73.5 -18.5q25 0 58 16v47 q-31 -8 -58 -8h-4q-43 2 -99.5 20.5t-76.5 18.5q-27 0 -57 -17v-47z" />
<glyph unicode="&#xf2;" horiz-adv-x="657" d="M12 259v20v563q0 6 1 19t6.5 49t16.5 69t34.5 73t55.5 68.5t84 48t118 19.5t119 -18.5t84.5 -49t55 -66.5t35 -73t17.5 -66.5t6 -38.5v-28v-576v-18t-6 -48t-17.5 -68t-35 -71.5t-55 -67.5t-85 -47.5t-119 -19.5t-117.5 19.5t-85 48.5t-56.5 70t-33.5 72.5t-16.5 68.5 t-6.5 48zM47 1491.5q2 21.5 19 36.5q14 12 32 12h215q29 0 45 -24l107 -185q10 -18 4 -39.5t-23 -31.5q-12 -6 -26 -7h-160q-23 0 -39 19l-162 184q-14 14 -12 35.5zM115 279q0 -14 2 -33t13 -59t31.5 -71.5t63.5 -56t103 -24.5q59 0 103 24.5t64.5 54t32 69.5t13.5 57.5 t2 31.5v576q0 12 -2 30.5t-13.5 58.5t-32 69.5t-64.5 54t-103 24.5q-57 0 -101.5 -24.5t-65 -55t-31.5 -71.5t-13 -59.5t-2 -32.5v-563zM206 858q-3 16 3 42t16.5 49.5t37 41t65.5 17.5t65.5 -17.5t36.5 -42t16.5 -49.5t4.5 -41v-18v-559q-2 -2 0 -18.5t-4.5 -41t-16.5 -48 t-36.5 -41t-65.5 -17.5t-64.5 17.5t-37 41t-16.5 48t-3 40.5v19v559q2 2 -1 18zM211 1438l72 -82h49l-47 82h-74zM309 276q0 -18 6.5 -38.5t12.5 -20.5q8 0 14 20.5t6 38.5v3v563v2q0 20 -6 40.5t-14 20.5q-6 0 -12.5 -21.5t-6.5 -39.5v-2v-563v-3z" />
<glyph unicode="&#xf3;" horiz-adv-x="657" d="M12 259v20v563q0 6 1 19t6.5 49t16.5 69t34.5 73t55.5 68.5t84 48t118 19.5t119 -18.5t84.5 -49t55 -66.5t35 -73t17.5 -66.5t6 -38.5v-28v-576v-18t-6 -48t-17.5 -68t-35 -71.5t-55 -67.5t-85 -47.5t-119 -19.5t-117.5 19.5t-85 48.5t-56.5 70t-33.5 72.5t-16.5 68.5 t-6.5 48zM115 279q0 -14 2 -33t13 -59t31.5 -71.5t63.5 -56t103 -24.5q59 0 103 24.5t64.5 54t32 69.5t13.5 57.5t2 31.5v576q0 12 -2 30.5t-13.5 58.5t-32 69.5t-64.5 54t-103 24.5q-57 0 -101.5 -24.5t-65 -55t-31.5 -71.5t-13 -59.5t-2 -32.5v-563zM206 858q-3 16 3 42 t16.5 49.5t37 41t65.5 17.5t65.5 -17.5t36.5 -42t16.5 -49.5t4.5 -41v-18v-559q-2 -2 0 -18.5t-4.5 -41t-16.5 -48t-36.5 -41t-65.5 -17.5t-64.5 17.5t-37 41t-16.5 48t-3 40.5v19v559q2 2 -1 18zM209 1305q0 14 6 26l107 185q16 24 45 24h215q20 0 35.5 -15.5t15.5 -35.5 q0 -18 -12 -33l-162 -184q-16 -18 -39 -19h-160q-20 0 -35.5 15.5t-15.5 36.5zM309 276q0 -18 6.5 -38.5t12.5 -20.5q8 0 14 20.5t6 38.5v3v563v2q0 20 -6 40.5t-14 20.5q-6 0 -12.5 -21.5t-6.5 -39.5v-2v-563v-3zM348 1356h49l72 82h-74z" />
<glyph unicode="&#xf4;" horiz-adv-x="657" d="M12 259v20v563q0 6 1 19t6.5 49t16.5 69t34.5 73t55.5 68.5t84 48t118 19.5t119 -18.5t84.5 -49t55 -66.5t35 -73t17.5 -66.5t6 -38.5v-28v-576v-18t-6 -48t-17.5 -68t-35 -71.5t-55 -67.5t-85 -47.5t-119 -19.5t-117.5 19.5t-85 48.5t-56.5 70t-33.5 72.5t-16.5 68.5 t-6.5 48zM27 1305q0 16 10 30l141 185q16 20 41 20h219q25 0 41 -20l142 -185q12 -16 9 -37.5t-20 -33.5q-14 -10 -30 -11h-189q-23 0 -39 17l-24 28l-23 -26q-16 -18 -39 -19h-188q-20 0 -35.5 15.5t-15.5 36.5zM115 279q0 -14 2 -33t13 -59t31.5 -71.5t63.5 -56t103 -24.5 q59 0 103 24.5t64.5 54t32 69.5t13.5 57.5t2 31.5v576q0 12 -2 30.5t-13.5 58.5t-32 69.5t-64.5 54t-103 24.5q-57 0 -101.5 -24.5t-65 -55t-31.5 -71.5t-13 -59.5t-2 -32.5v-563zM182 1356h62l45 53q12 16 35.5 17t42.5 -15l47 -55h61l-61 82h-170zM206 858q-3 16 3 42 t16.5 49.5t37 41t65.5 17.5t65.5 -17.5t36.5 -42t16.5 -49.5t4.5 -41v-18v-559q-2 -2 0 -18.5t-4.5 -41t-16.5 -48t-36.5 -41t-65.5 -17.5t-64.5 17.5t-37 41t-16.5 48t-3 40.5v19v559q2 2 -1 18zM309 276q0 -18 6.5 -38.5t12.5 -20.5q8 0 14 20.5t6 38.5v3v563v2 q0 20 -6 40.5t-14 20.5q-6 0 -12.5 -21.5t-6.5 -39.5v-2v-563v-3z" />
<glyph unicode="&#xf5;" horiz-adv-x="657" d="M12 259v20v563q0 6 1 19t6.5 49t16.5 69t34.5 73t55.5 68.5t84 48t118 19.5t119 -18.5t84.5 -49t55 -66.5t35 -73t17.5 -66.5t6 -38.5v-28v-576v-18t-6 -48t-17.5 -68t-35 -71.5t-55 -67.5t-85 -47.5t-119 -19.5t-117.5 19.5t-85 48.5t-56.5 70t-33.5 72.5t-16.5 68.5 t-6.5 48zM80 1305v151q0 25 18 39q66 51 142 51q47 0 107.5 -18.5t74.5 -20.5q41 0 80 25q16 12 37.5 7t31.5 -23q8 -12 9 -27v-152q0 -25 -21 -41q-66 -49 -139 -49q-47 0 -106.5 19.5t-73.5 19.5q-43 0 -82 -24q-16 -12 -38 -7t-32 23q-8 12 -8 27zM115 279q0 -14 2 -33 t13 -59t31.5 -71.5t63.5 -56t103 -24.5q59 0 103 24.5t64.5 54t32 69.5t13.5 57.5t2 31.5v576q0 12 -2 30.5t-13.5 58.5t-32 69.5t-64.5 54t-103 24.5q-57 0 -101.5 -24.5t-65 -55t-31.5 -71.5t-13 -59.5t-2 -32.5v-563zM182 1380q31 9 58 9q49 -2 106 -20.5t74 -18.5 q25 0 57 16v47q-31 -8 -57 -8h-4q-43 2 -99.5 20.5t-76.5 18.5q-27 0 -58 -17v-47zM206 858q-3 16 3 42t16.5 49.5t37 41t65.5 17.5t65.5 -17.5t36.5 -42t16.5 -49.5t4.5 -41v-18v-559q-2 -2 0 -18.5t-4.5 -41t-16.5 -48t-36.5 -41t-65.5 -17.5t-64.5 17.5t-37 41t-16.5 48 t-3 40.5v19v559q2 2 -1 18zM309 276q0 -18 6.5 -38.5t12.5 -20.5q8 0 14 20.5t6 38.5v3v563v2q0 20 -6 40.5t-14 20.5q-6 0 -12.5 -21.5t-6.5 -39.5v-2v-563v-3z" />
<glyph unicode="&#xf6;" horiz-adv-x="657" d="M12 259v20v563q0 6 1 19t6.5 49t16.5 69t34.5 73t55.5 68.5t84 48t118 19.5t119 -18.5t84.5 -49t55 -66.5t35 -73t17.5 -66.5t6 -38.5v-28v-576v-18t-6 -48t-17.5 -68t-35 -71.5t-55 -67.5t-85 -47.5t-119 -19.5t-117.5 19.5t-85 48.5t-56.5 70t-33.5 72.5t-16.5 68.5 t-6.5 48zM39 1305v200q0 20 15.5 35.5t35.5 15.5h191q20 0 35.5 -15t15.5 -36v-200q0 -20 -15.5 -36t-35.5 -16h-191q-20 0 -35.5 16t-15.5 36zM115 279q0 -14 2 -33t13 -59t31.5 -71.5t63.5 -56t103 -24.5q59 0 103 24.5t64.5 54t32 69.5t13.5 57.5t2 31.5v576 q0 12 -2 30.5t-13.5 58.5t-32 69.5t-64.5 54t-103 24.5q-57 0 -101.5 -24.5t-65 -55t-31.5 -71.5t-13 -59.5t-2 -32.5v-563zM141 1356h88v98h-88v-98zM206 858q-3 16 3 42t16.5 49.5t37 41t65.5 17.5t65.5 -17.5t36.5 -42t16.5 -49.5t4.5 -41v-18v-559q-2 -2 0 -18.5 t-4.5 -41t-16.5 -48t-36.5 -41t-65.5 -17.5t-64.5 17.5t-37 41t-16.5 48t-3 40.5v19v559q2 2 -1 18zM309 276q0 -18 6.5 -38.5t12.5 -20.5q8 0 14 20.5t6 38.5v3v563v2q0 20 -6 40.5t-14 20.5q-6 0 -12.5 -21.5t-6.5 -39.5v-2v-563v-3zM328 1305v200q0 20 15 35.5t36 15.5 h190q20 0 36 -15t16 -36v-200q0 -20 -15.5 -36t-36.5 -16h-190q-20 0 -35.5 16t-15.5 36zM430 1356h88v98h-88v-98z" />
<glyph unicode="&#xf8;" horiz-adv-x="657" d="M12 279v563q0 6 1 19t6.5 49t16.5 69t34.5 73t55.5 68.5t84 48t118 19.5q35 0 69 -6l9 28q4 18 18 28.5t31 10.5h75q20 0 36 -15t16 -36l-2 -12l-23 -92q88 -102 88 -246v-576v-18t-6 -48t-17.5 -68t-35 -71.5t-55 -67.5t-85 -47.5t-118.5 -19.5q-35 0 -66 7l-8 -29 q-4 -18 -18.5 -28.5t-30.5 -10.5h-80q-20 0 -35.5 15.5t-15.5 35.5l2 12l22 95q-88 100 -86 250zM115 279q0 -14 3 -41t21.5 -77t50.5 -81q15 -13 17 -33q18 8 35 2q39 -14 86 -14q59 0 103 24.5t64.5 54t32 69.5t13.5 57.5t2 31.5v576q0 12 -3 37.5t-22.5 75t-52.5 77.5 q-12 12 -16 31q-16 -4 -31 0q-47 16 -90 16q-57 0 -101.5 -24.5t-65 -55t-31.5 -71.5t-13 -59.5t-2 -32.5v-563zM206 858q-3 16 3 42t16.5 49.5t37 41t65.5 17.5q70 0 100 -64q10 -16 4 -35l-125 -485q-4 -16 -18.5 -27.5t-30.5 -11.5q-20 0 -35.5 15.5t-15.5 35.5v404 q2 2 -1 18zM225 209l125 485q4 16 18.5 27.5t30.5 11.5q20 0 36 -15.5t16 -35.5v-401q-2 -2 0 -18.5t-4.5 -41t-16.5 -48t-36.5 -41t-65.5 -17.5q-66 0 -99 57q-10 18 -4 37zM309 842q14 57 17 63q-4 0 -10.5 -21.5t-6.5 -39.5v-2zM332 217q6 2 11 24.5t5 34.5v3z" />
<glyph unicode="&#xf9;" horiz-adv-x="690" d="M27 203v917q0 20 15 35.5t36 15.5h207q20 0 35.5 -15t15.5 -36v-882q6 4 14 14v868q0 20 15.5 35.5t35.5 15.5h207q20 0 35.5 -15t15.5 -36v-1120q0 -20 -15 -35.5t-36 -15.5h-207q-35 0 -47 33q-66 -49 -121 -50q-106 0 -156 87t-50 184zM61.5 1491.5 q1.5 21.5 18.5 36.5q15 12 33 12h215q29 0 45 -24l106 -185q10 -18 4 -39.5t-22 -31.5q-12 -6 -27 -7h-160q-23 0 -38 19l-162 184q-14 14 -12.5 35.5zM129 203q0 -68 29.5 -118t74.5 -50q16 0 42 19.5t54.5 47t45.5 35.5q12 8 26 8q20 0 36 -15t16 -36v-43h104v1018h-104 v-831q0 -12 -7 -23q0 -4 -3 -9t-12 -19.5t-20.5 -24.5t-31.5 -19.5t-45 -9.5q-35 0 -68 24.5t-33 75.5v836h-104v-866zM225 1438l72 -82h49l-47 82h-74z" />
<glyph unicode="&#xfa;" horiz-adv-x="690" d="M27 203v917q0 20 15 35.5t36 15.5h207q20 0 35.5 -15t15.5 -36v-882q6 4 14 14v868q0 20 15.5 35.5t35.5 15.5h207q20 0 35.5 -15t15.5 -36v-1120q0 -20 -15 -35.5t-36 -15.5h-207q-35 0 -47 33q-66 -49 -121 -50q-106 0 -156 87t-50 184zM129 203q0 -68 29.5 -118 t74.5 -50q16 0 42 19.5t54.5 47t45.5 35.5q12 8 26 8q20 0 36 -15t16 -36v-43h104v1018h-104v-831q0 -12 -7 -23q0 -4 -3 -9t-12 -19.5t-20.5 -24.5t-31.5 -19.5t-45 -9.5q-35 0 -68 24.5t-33 75.5v836h-104v-866zM223 1305q0 14 6 26l107 185q16 24 45 24h215 q20 0 35.5 -15.5t15.5 -35.5q0 -18 -12 -33l-162 -184q-16 -18 -39 -19h-160q-20 0 -35.5 15.5t-15.5 36.5zM362 1356h50l71 82h-73z" />
<glyph unicode="&#xfb;" horiz-adv-x="690" d="M27 203v917q0 20 15 35.5t36 15.5h207q20 0 35.5 -15t15.5 -36v-882q6 4 14 14v868q0 20 15.5 35.5t35.5 15.5h207q20 0 35.5 -15t15.5 -36v-1120q0 -20 -15 -35.5t-36 -15.5h-207q-35 0 -47 33q-66 -49 -121 -50q-106 0 -156 87t-50 184zM43 1305q0 16 10 30l142 185 q16 20 41 20h219q25 0 41 -20l141 -185q12 -16 9 -37.5t-19 -33.5q-14 -10 -31 -11h-188q-23 0 -39 17l-25 28l-22 -26q-16 -18 -39 -19h-189q-20 0 -35.5 15.5t-15.5 36.5zM129 203q0 -68 29.5 -118t74.5 -50q16 0 42 19.5t54.5 47t45.5 35.5q12 8 26 8q20 0 36 -15t16 -36 v-43h104v1018h-104v-831q0 -12 -7 -23q0 -4 -3 -9t-12 -19.5t-20.5 -24.5t-31.5 -19.5t-45 -9.5q-35 0 -68 24.5t-33 75.5v836h-104v-866zM199 1356h61l45 53q12 16 36 17t42 -15l47 -55h62l-62 82h-170z" />
<glyph unicode="&#xfc;" horiz-adv-x="690" d="M27 203v917q0 20 15 35.5t36 15.5h207q20 0 35.5 -15t15.5 -36v-882q6 4 14 14v868q0 20 15.5 35.5t35.5 15.5h207q20 0 35.5 -15t15.5 -36v-1120q0 -20 -15 -35.5t-36 -15.5h-207q-35 0 -47 33q-66 -49 -121 -50q-106 0 -156 87t-50 184zM55 1305v200q0 20 15.5 35.5 t35.5 15.5h191q20 0 35.5 -15t15.5 -36v-200q0 -20 -15.5 -36t-35.5 -16h-191q-20 0 -35.5 16t-15.5 36zM129 203q0 -68 29.5 -118t74.5 -50q16 0 42 19.5t54.5 47t45.5 35.5q12 8 26 8q20 0 36 -15t16 -36v-43h104v1018h-104v-831q0 -12 -7 -23q0 -4 -3 -9t-12 -19.5 t-20.5 -24.5t-31.5 -19.5t-45 -9.5q-35 0 -68 24.5t-33 75.5v836h-104v-866zM158 1356h88v98h-88v-98zM344 1305v200q0 20 15.5 35.5t35.5 15.5h191q20 0 35.5 -15t15.5 -36v-200q0 -20 -15.5 -36t-35.5 -16h-191q-20 0 -35.5 16t-15.5 36zM446 1356h89v98h-89v-98z" />
<glyph unicode="&#xfd;" horiz-adv-x="634" d="M-27 1112v8q0 20 15.5 35.5t36.5 15.5h202q18 0 33.5 -13t18.5 -32l38 -329l39 329q2 18 16.5 31.5t35.5 13.5h202h8q20 -4 33 -21t11 -38l-199 -1204q-12 -88 -51 -167t-115 -136.5t-172 -57.5q-25 0 -94 4q-20 2 -34.5 16.5t-14.5 35.5v184q0 6 2 12q4 18 20 29.5 t37 9.5q16 -4 39 -4q33 4 57.5 42t26.5 87zM84 -268v-80q31 -2 41 -2q90 0 155.5 80t79.5 194l191 1145h-98l-76 -641l-4 -57q-2 -20 -17.5 -33.5t-33.5 -13.5h-9q-20 0 -34.5 14t-16.5 33l-4 57l-76 641h-98l182 -1094v-8q0 -82 -46 -154.5t-134 -80.5h-2zM180 1305 q0 14 6 26l107 185q16 24 45 24h215q20 0 35.5 -15.5t15.5 -35.5q0 -18 -12 -33l-162 -184q-16 -18 -39 -19h-160q-20 0 -35.5 15.5t-15.5 36.5zM319 1356h50l71 82h-73z" />
<glyph unicode="&#xfe;" horiz-adv-x="686" d="M31 -385v1890q0 20 15 35.5t36 15.5h207q20 0 35.5 -15t15.5 -36v-354q61 37 113 37q74 0 125 -49t68.5 -106.5t17.5 -114.5v-715q0 -57 -17.5 -114.5t-69 -107t-124.5 -49.5q-51 0 -113 37v-354q0 -20 -15.5 -35.5t-35.5 -15.5h-207q-20 0 -35.5 15.5t-15.5 35.5z M133 -334h105v408q0 20 15 35.5t36.5 15.5t36.5 -14q6 -6 25.5 -22.5t51 -35t50.5 -18.5q47 0 77.5 50t30.5 118v715q0 68 -30.5 117.5t-77.5 49.5q-18 0 -51 -19t-52.5 -34.5t-23.5 -21.5q-16 -14 -37 -15q-20 0 -35.5 15.5t-15.5 36.5v407h-105v-1788zM238 246v628 q0 49 33.5 84t78.5 35q47 0 77 -35.5t30 -83.5v-628q0 -47 -30 -83t-77 -36t-79.5 37t-32.5 82zM340 246q0 -8 10 -17q4 6 4 17v628q0 10 -4 17q-10 -7 -10 -17v-628z" />
<glyph unicode="&#xff;" horiz-adv-x="634" d="M-27 1112q-4 25 13.5 42t38.5 17h202q20 0 34.5 -13t17.5 -32l38 -329l39 329q2 18 17.5 31.5t34.5 13.5h202q25 0 39.5 -19t12.5 -40l-199 -1204q-12 -88 -52 -168t-115 -136.5t-171 -56.5q-25 0 -94 4q-20 2 -34.5 18t-14.5 34v184q0 25 19 39t40 12q16 -4 39 -4 q33 4 57.5 42t26.5 87zM27 1305v200q0 20 15 35.5t36 15.5h190q20 0 35.5 -15t15.5 -36v-200q0 -20 -15 -36t-36 -16h-190q-20 0 -35.5 16t-15.5 36zM84 -268v-80q31 -2 41 -2q90 0 155.5 80t79.5 194l191 1145h-98l-76 -641l-4 -57q-2 -18 -16.5 -32.5t-34.5 -14.5h-9 q-18 0 -33.5 13t-17.5 34l-4 57l-76 641h-98l182 -1094v-8q0 -82 -46 -154.5t-134 -80.5h-2zM129 1356h88v98h-88v-98zM315 1305v200q0 20 15.5 35.5t36.5 15.5h190q20 0 35.5 -15t15.5 -36v-200q0 -20 -15 -36t-36 -16h-190q-20 0 -36 16t-16 36zM418 1356h88v98h-88v-98z " />
<glyph unicode="&#x152;" horiz-adv-x="983" d="M16 289v20v887q0 8 1 20.5t7.5 50.5t18.5 71.5t37.5 75.5t60.5 72t92.5 50t128.5 20h580q20 0 35.5 -15t15.5 -36v-227q0 -20 -15 -35.5t-36 -15.5h-233v-293h153q20 0 35.5 -15.5t15.5 -35.5v-242q0 -20 -15 -35.5t-36 -15.5h-153v-311h233q20 0 35.5 -15.5t15.5 -36.5 v-227q0 -20 -15 -35.5t-36 -15.5h-580q-72 0 -129 19.5t-92 51t-61.5 70.5t-37.5 78t-17.5 70.5t-8.5 50.5zM119 309q0 -14 2 -32.5t15.5 -62.5t36 -77t72 -59.5t117.5 -26.5h529v125h-234q-20 0 -35.5 15.5t-15.5 35.5v414q0 20 15.5 35.5t35.5 15.5h154v139h-154 q-20 0 -35.5 15.5t-15.5 36.5v395q0 20 15.5 35.5t35.5 15.5h234v125h-529q-68 0 -117.5 -26.5t-72 -59.5t-36 -76t-15.5 -62.5t-2 -33.5v-887zM238 293v16v887q2 0 0 16.5t4 41t16 47t38 40t66 17.5q39 0 67 -17.5t39 -47t14 -46.5t5 -33v-4v-901q-2 0 0 -16.5t-4 -41 t-16 -47t-38 -40t-66.5 -17.5t-65.5 16.5t-38 41t-16 48t-5 40.5zM340 309q0 -20 7 -39.5t15 -19.5q10 0 16.5 19.5t6.5 39.5v899q-4 47 -23 47q-10 0 -16 -19t-6 -40v-887z" />
<glyph unicode="&#x153;" horiz-adv-x="995" d="M12 259v20v563q0 6 1 19t6.5 49t16.5 69t34.5 73t55.5 68.5t84 48t118 19.5q98 0 172 -47q72 47 170 47q66 0 119 -18.5t84.5 -49t55 -66.5t35 -72t17.5 -66.5t6 -49.5v-18v-326q0 -20 -15.5 -35.5t-35.5 -15.5h-291v-199q0 -18 8.5 -36.5t16.5 -18.5t15 20.5t7 41.5v122 q0 20 15.5 36t35.5 16h193q20 0 35.5 -15.5t15.5 -36.5v-129q0 -6 -1 -18t-7 -48t-16.5 -68t-35 -71.5t-56 -67.5t-85 -47.5t-118.5 -19.5q-98 0 -170 45q-74 -45 -170 -45q-66 0 -118 19.5t-85 48.5t-56.5 70t-33.5 72.5t-16.5 68.5t-6.5 48zM115 279q0 -14 2 -33t13 -59 t31.5 -71.5t63.5 -56t103 -24.5q84 0 137 45q14 12 33.5 12t33.5 -12q49 -45 136 -45q59 0 103 24.5t64.5 54t33 69.5t14.5 58.5t2 30.5v78h-90v-71q-2 0 0 -16.5t-4.5 -41t-16.5 -48t-37.5 -41t-66.5 -17.5q-43 0 -72 21.5t-39 54t-13 50t-3 31.5v250q0 20 15 35.5t36 15.5 h291v275q0 12 -2 30.5t-13.5 58.5t-32 69.5t-64.5 54t-103 24.5q-84 0 -135 -47q-14 -12 -34 -12t-36 12q-51 47 -137 47q-57 0 -101.5 -24.5t-65 -55t-31.5 -71.5t-13 -59.5t-2 -32.5v-563zM206 858q-3 16 3 42t16.5 49.5t37 41t65.5 17.5t65.5 -17.5t36.5 -42t16.5 -49.5 t4.5 -41v-18v-559q-2 -2 0 -18.5t-4.5 -41t-16.5 -48t-36.5 -41t-65.5 -17.5t-64.5 17.5t-37 41t-16.5 48t-3 40.5v19v559q2 2 -1 18zM309 276q0 -18 6.5 -38.5t12.5 -20.5q8 0 14 20.5t6 38.5v3v563v2q0 20 -6 40.5t-14 20.5q-6 0 -12.5 -21.5t-6.5 -39.5v-2v-563v-3z M543 684v164q0 14 3 32.5t13 51.5t39 54.5t72 21.5q39 0 65.5 -17.5t37.5 -42t16.5 -49.5t5.5 -41v-16v-158q0 -20 -15.5 -35.5t-36.5 -15.5h-149q-20 0 -35.5 15.5t-15.5 35.5zM645 735h47v107q0 20 -7 41.5t-15 21.5t-16.5 -18.5t-8.5 -38.5v-113z" />
<glyph unicode="&#x178;" horiz-adv-x="704" d="M-33 1493q-6 20 5.5 38.5t31.5 22.5q6 2 12 2h217q18 0 33 -11t17 -27l69 -301l70 301q4 16 18.5 27t30.5 11h217q20 0 35.5 -15t15.5 -36l-2 -12l-223 -858v-635q0 -20 -15.5 -35.5t-35.5 -15.5h-221q-20 0 -36 15.5t-16 35.5v635zM61 1638v201q0 20 15.5 35.5 t36.5 15.5h190q20 0 35.5 -15t15.5 -36v-201q0 -20 -15 -35.5t-36 -15.5h-190q-20 0 -36 15.5t-16 35.5zM82 1454l209 -801q2 -6 2 -12v-590h119v590q0 6 2 12l209 801h-111l-102 -442q0 -4 -2 -8l-7 -15q-14 -31 -47 -31h-4q-33 0 -47 31l-6 15q-2 4 -2 8l-102 442h-111z M164 1690h88v98h-88v-98zM350 1638v201q0 20 15.5 35.5t35.5 15.5h191q20 0 35.5 -15t15.5 -36v-201q0 -20 -15.5 -35.5t-35.5 -15.5h-191q-20 0 -35.5 15.5t-15.5 35.5zM453 1690h88v98h-88v-98z" />
<glyph unicode="&#x2c6;" horiz-adv-x="1021" d="M209 1305q0 16 10 30l141 185q16 20 41 20h220q25 0 41 -20l141 -185q12 -16 9 -37.5t-19 -33.5q-14 -10 -31 -11h-189q-23 0 -38 17l-25 28l-23 -26q-16 -18 -38 -19h-189q-20 0 -35.5 15.5t-15.5 36.5zM365 1356h61l45 53q12 16 35.5 17t42.5 -15l47 -55h61l-61 82 h-170z" />
<glyph unicode="&#x2dc;" horiz-adv-x="1024" d="M262 1305v151q0 25 19 39q66 51 141 51q47 0 107.5 -18.5t74.5 -20.5q41 0 80 25q16 12 37.5 7t32.5 -23q8 -12 8 -27v-152q0 -25 -21 -41q-66 -49 -139 -49q-47 0 -106.5 19.5t-73.5 19.5q-43 0 -82 -24q-16 -12 -37.5 -7t-32.5 23q-8 12 -8 27zM365 1380q30 9 57 9 q49 -2 106.5 -20.5t73.5 -18.5q25 0 57 16v47q-31 -8 -57 -8h-4q-43 2 -99.5 20.5t-76.5 18.5q-27 0 -57 -17v-47z" />
<glyph unicode="&#x2000;" horiz-adv-x="978" />
<glyph unicode="&#x2001;" horiz-adv-x="1956" />
<glyph unicode="&#x2002;" horiz-adv-x="978" />
<glyph unicode="&#x2003;" horiz-adv-x="1956" />
<glyph unicode="&#x2004;" horiz-adv-x="652" />
<glyph unicode="&#x2005;" horiz-adv-x="489" />
<glyph unicode="&#x2006;" horiz-adv-x="326" />
<glyph unicode="&#x2007;" horiz-adv-x="326" />
<glyph unicode="&#x2008;" horiz-adv-x="244" />
<glyph unicode="&#x2009;" horiz-adv-x="391" />
<glyph unicode="&#x200a;" horiz-adv-x="108" />
<glyph unicode="&#x2010;" horiz-adv-x="444" d="M23 455v194q0 20 15 35.5t36 15.5h297q20 0 35.5 -15t15.5 -36v-194q0 -20 -15.5 -36t-35.5 -16h-297q-20 0 -35.5 16t-15.5 36zM125 506h194v92h-194v-92z" />
<glyph unicode="&#x2011;" horiz-adv-x="444" d="M23 455v194q0 20 15 35.5t36 15.5h297q20 0 35.5 -15t15.5 -36v-194q0 -20 -15.5 -36t-35.5 -16h-297q-20 0 -35.5 16t-15.5 36zM125 506h194v92h-194v-92z" />
<glyph unicode="&#x2012;" horiz-adv-x="444" d="M23 455v194q0 20 15 35.5t36 15.5h297q20 0 35.5 -15t15.5 -36v-194q0 -20 -15.5 -36t-35.5 -16h-297q-20 0 -35.5 16t-15.5 36zM125 506h194v92h-194v-92z" />
<glyph unicode="&#x2013;" horiz-adv-x="806" d="M23 649v195q0 20 15 35.5t36 15.5h659q20 0 35.5 -15.5t15.5 -35.5v-195q0 -20 -15 -35.5t-36 -15.5h-659q-20 0 -35.5 15.5t-15.5 35.5zM125 700h557v93h-557v-93z" />
<glyph unicode="&#x2014;" horiz-adv-x="972" d="M23 649v195q0 20 15 35.5t36 15.5h825q20 0 35.5 -15.5t15.5 -35.5v-195q0 -20 -15 -35.5t-36 -15.5h-825q-20 0 -35.5 15.5t-15.5 35.5zM125 700h723v93h-723v-93z" />
<glyph unicode="&#x2018;" horiz-adv-x="309" d="M-2 1012v227q0 10 4 21l113 266q12 31 47 30h102q20 0 35.5 -15t15.5 -36q0 -6 -2 -12l-53 -203h4q20 0 35.5 -15t15.5 -36v-227q0 -20 -15 -35.5t-36 -15.5h-215q-20 0 -35.5 15.5t-15.5 35.5zM100 1063h113v125h-20q-6 0 -13 2q-20 6 -31.5 24.5t-5.5 36.5 q8 35 25.5 101.5t28.5 101.5q-16 -37 -48 -111.5t-49 -113.5v-166z" />
<glyph unicode="&#x2019;" horiz-adv-x="309" d="M-6 1012q0 6 2 12l53 203h-4q-20 0 -35.5 15t-15.5 36v227q0 20 15.5 35.5t35.5 15.5h215q20 0 35.5 -15.5t15.5 -35.5v-227q0 -10 -4 -21l-112 -266q-12 -31 -48 -30h-102q-20 0 -35.5 15t-15.5 36zM96 1329h21q6 0 12 -2q20 -6 31.5 -24.5t5.5 -36.5 q-8 -35 -25.5 -101.5t-27.5 -101.5q16 37 48 111.5t48 113.5v166h-113v-125z" />
<glyph unicode="&#x201a;" horiz-adv-x="309" d="M-6 0v227q0 20 15.5 36t35.5 16h215q20 0 35.5 -16t15.5 -36v-227q0 -10 -4 -20l-112 -267q-12 -31 -48 -30h-102q-20 0 -35.5 15t-15.5 36q0 6 2 12l53 203h-4q-20 0 -35.5 15.5t-15.5 35.5zM96 51h21q6 0 12 -2q20 -6 31.5 -24.5t5.5 -36.5q-8 -35 -25.5 -101.5 t-27.5 -101.5q16 37 48 111.5t48 113.5v166h-113v-125z" />
<glyph unicode="&#x201c;" horiz-adv-x="624" d="M2 1012v227q0 10 4 21l113 266q12 31 47 30h102q20 0 35.5 -15t15.5 -36q0 -6 -2 -12l-53 -203h4q20 0 35.5 -15t15.5 -36v-227q0 -20 -15 -35.5t-36 -15.5h-215q-20 0 -35.5 15.5t-15.5 35.5zM104 1063h113v125h-20q-6 0 -13 2q-20 6 -31.5 24.5t-5.5 36.5 q8 35 25.5 101.5t28.5 101.5q-16 -37 -48 -111.5t-49 -113.5v-166zM305 1012v227q0 10 4 21l113 266q12 31 47 30h102q20 0 36 -15t16 -36q0 -6 -2 -12l-54 -203h4q20 0 36 -15t16 -36v-227q0 -20 -15.5 -35.5t-36.5 -15.5h-215q-20 0 -35.5 15.5t-15.5 35.5zM408 1063h112 v125h-20q-6 0 -13 2q-20 6 -31.5 24.5t-4.5 36.5q8 35 25.5 101.5t27.5 101.5q-16 -37 -48 -111.5t-48 -113.5v-166z" />
<glyph unicode="&#x201d;" horiz-adv-x="624" d="M2 1012q0 6 2 12l53 203h-4q-20 0 -35.5 15t-15.5 36v227q0 20 15.5 35.5t35.5 15.5h215q20 0 35.5 -15.5t15.5 -35.5v-227q0 -10 -4 -21l-112 -266q-12 -31 -47 -30h-103q-20 0 -35.5 15t-15.5 36zM104 1329h21q6 0 12 -2q20 -6 31.5 -24.5t5.5 -36.5 q-8 -35 -25.5 -101.5t-27.5 -101.5q16 37 48 111.5t48 113.5v166h-113v-125zM305 1012q0 6 2 12l53 203h-4q-20 0 -35.5 15t-15.5 36v227q0 20 15.5 35.5t35.5 15.5h215q20 0 36 -15.5t16 -35.5v-227q0 -10 -5 -21l-112 -266q-12 -31 -47 -30h-103q-20 0 -35.5 15t-15.5 36z M408 1329h20q6 0 12 -2q20 -6 31.5 -24.5t5.5 -36.5q-8 -35 -25.5 -101.5t-27.5 -101.5q16 37 48 111.5t48 113.5v166h-112v-125z" />
<glyph unicode="&#x201e;" horiz-adv-x="624" d="M2 0v227q0 20 15.5 36t35.5 16h215q20 0 35.5 -16t15.5 -36v-227q0 -10 -4 -20l-112 -267q-12 -31 -47 -30h-103q-20 0 -35.5 15t-15.5 36q0 6 2 12l53 203h-4q-20 0 -35.5 15.5t-15.5 35.5zM104 51h21q6 0 12 -2q20 -6 31.5 -24.5t5.5 -36.5q-8 -35 -25.5 -101.5 t-27.5 -101.5q16 37 48 111.5t48 113.5v166h-113v-125zM305 0v227q0 20 15.5 36t35.5 16h215q20 0 36 -16t16 -36v-227q0 -10 -5 -20l-112 -267q-12 -31 -47 -30h-103q-20 0 -35.5 15t-15.5 36q0 6 2 12l53 203h-4q-20 0 -35.5 15.5t-15.5 35.5zM408 51h20q6 0 12 -2 q20 -6 31.5 -24.5t5.5 -36.5q-8 -35 -25.5 -101.5t-27.5 -101.5q16 37 48 111.5t48 113.5v166h-112v-125z" />
<glyph unicode="&#x2022;" horiz-adv-x="663" d="M31 817q0 125 88 212t215 87q125 0 212 -87t87 -212q0 -127 -87 -215t-212 -88q-127 0 -215 88t-88 215zM133 817q0 -86 57.5 -143.5t143.5 -57.5q82 0 139 58.5t57 142.5q0 82 -57 139.5t-139 57.5q-84 0 -142.5 -57.5t-58.5 -139.5z" />
<glyph unicode="&#x2026;" horiz-adv-x="964" d="M2 0v227q0 20 15.5 36t35.5 16h215q20 0 35.5 -15.5t15.5 -36.5v-227q0 -20 -15 -35.5t-36 -15.5h-215q-20 0 -35.5 15.5t-15.5 35.5zM104 51h113v125h-113v-125zM324 0v227q0 20 15 36t36 16h215q20 0 35.5 -15.5t15.5 -36.5v-227q0 -20 -15.5 -35.5t-35.5 -15.5h-215 q-20 0 -35.5 15.5t-15.5 35.5zM426 51h113v125h-113v-125zM645 0v227q0 20 15.5 36t35.5 16h215q20 0 36 -15.5t16 -36.5v-227q0 -20 -15.5 -35.5t-36.5 -15.5h-215q-20 0 -35.5 15.5t-15.5 35.5zM748 51h112v125h-112v-125z" />
<glyph unicode="&#x202f;" horiz-adv-x="391" />
<glyph unicode="&#x205f;" horiz-adv-x="489" />
<glyph unicode="&#x20ac;" horiz-adv-x="813" d="M2 547v137q0 20 15.5 35.5t35.5 15.5h56v35h-56q-20 0 -35.5 15.5t-15.5 35.5v137q0 20 15.5 36t35.5 16h56v186q0 8 1 21.5t7 52.5t17 74.5t38 79.5t61.5 75t92 52.5t129 21.5t129 -20.5t92.5 -54.5t61.5 -74t37.5 -79.5t17.5 -73.5t8.5 -54v-21v-84q0 -20 -15.5 -35.5 t-35.5 -15.5h-207q-20 0 -35.5 15.5t-15.5 35.5v84v4q2 55 -33 55q-10 0 -18.5 -20.5t-8.5 -38.5v-186h182q20 0 36 -15.5t16 -36.5v-137q0 -20 -15.5 -35.5t-36.5 -15.5h-182v-35h182q20 0 36 -15t16 -36v-137q0 -20 -15.5 -35.5t-36.5 -15.5h-182v-187q0 -18 8.5 -38.5 t18.5 -20.5q35 0 33 55v4v84q0 20 15 35.5t36 15.5h207q20 0 35.5 -15t15.5 -36v-84q0 -8 -1 -21.5t-7.5 -52t-18.5 -74.5t-37.5 -80t-60.5 -75t-92.5 -52.5t-128.5 -21.5q-72 0 -129.5 20.5t-93 54.5t-61.5 74t-37 80t-18 73.5t-7 54.5v20v187h-56q-20 0 -35.5 15t-15.5 36 zM104 598h56q20 0 35.5 -15.5t15.5 -35.5v-238q0 -14 2 -34.5t15.5 -66.5t37 -82t72.5 -63.5t116.5 -27.5t117 27.5t73 62.5t36.5 81t15 67.5t2 35.5v33h-104v-31v-19t-6 -39t-18.5 -49.5t-41 -39t-69.5 -17.5q-39 0 -66.5 16.5t-39 40t-17.5 48t-6 41.5v16v238 q0 20 15 35.5t36 15.5h182v35h-182q-20 0 -35.5 15.5t-15.5 35.5v137q0 20 15 35.5t36 15.5h182v35h-182q-20 0 -35.5 15.5t-15.5 35.5v238v17.5t6 39t17.5 49t39 39t66.5 17.5q41 0 68.5 -17.5t41 -38t19.5 -48t6 -40v-20.5v-31h104v33q0 14 -2 34.5t-15 66.5t-36.5 82 t-73 63.5t-117 27.5t-116.5 -27.5t-72.5 -62t-37 -81t-15.5 -68t-2 -35.5v-238q0 -20 -15.5 -35.5t-35.5 -15.5h-56v-35h56q20 0 35.5 -15t15.5 -36v-137q0 -20 -15.5 -35.5t-35.5 -15.5h-56v-35z" />
<glyph unicode="&#x2122;" horiz-adv-x="937" d="M23 1401v104q0 20 15 35.5t36 15.5h321q20 0 35.5 -15t15.5 -36v-104q0 -20 -15 -35.5t-36 -15.5h-53v-529q0 -20 -15.5 -35.5t-35.5 -15.5h-113q-20 0 -35.5 15.5t-15.5 35.5v529h-53q-20 0 -35.5 15t-15.5 36zM125 1452h53q20 0 35.5 -15.5t15.5 -35.5v-529h11v529 q0 20 15 35.5t36 15.5h53v2h-219v-2zM389 821v684q0 20 15.5 35.5t35.5 15.5h138q18 0 32.5 -11t16.5 -29l20 -97l23 97q2 18 16 29t33 11h137q20 0 35.5 -15t15.5 -36v-684q0 -20 -15 -35.5t-36 -15.5h-104q-20 0 -39 18q-16 -18 -39 -18h-51q-25 0 -39 18q-16 -18 -41 -18 h-103q-20 0 -35.5 15.5t-15.5 35.5zM492 1270q0 18 12 32.5t31 18.5q16 2 30 -6l-28 139h-45v-184zM616 1143l31 -172l31 170q-14 -6 -27 -6h-6q-14 0 -29 8zM731 1317q10 4 21 4q20 0 35.5 -15.5t15.5 -35.5v-398h2v582h-45z" />
<glyph unicode="&#xe000;" horiz-adv-x="1167" d="M0 0v1167h1167v-1167h-1167z" />
<glyph unicode="&#xfb01;" horiz-adv-x="772" d="M-31 934v186q0 20 15.5 35.5t35.5 15.5h54q2 399 305 400q80 0 158 -15q18 -4 29.5 -19t11.5 -32v-184q0 -20 -15.5 -35.5t-36.5 -15.5l-12 2q-39 10 -98 10q-33 0 -33 -111h307q20 0 35.5 -15t15.5 -36v-1120q0 -20 -15.5 -35.5t-35.5 -15.5h-207q-20 0 -35.5 15.5 t-15.5 35.5v883h-49v-883q0 -20 -15.5 -35.5t-35.5 -15.5h-207q-20 0 -35.5 15.5t-15.5 35.5v883h-54q-20 0 -35.5 15t-15.5 36zM72 985h53q20 0 35.5 -15.5t15.5 -35.5v-883h105v883q0 20 15 35.5t36 15.5h151q20 0 36 -15.5t16 -35.5v-883h104v1018h-307q-20 0 -35.5 15.5 t-15.5 35.5v29l-2 14q0 14 1 26.5t2 32t4 36t9 37t16.5 34.5t24.5 27.5t34.5 20.5t45.5 7q31 0 59 -2v80q-51 6 -96 6q-59 0 -99 -22.5t-60.5 -50t-31 -78.5t-11.5 -81t-1 -85v-31q0 -20 -15.5 -35.5t-35.5 -15.5h-53v-84z" />
<glyph unicode="&#xfb02;" horiz-adv-x="772" d="M-31 934v186q0 20 15.5 35.5t35.5 15.5h54q2 399 305 400q74 0 151 -15h160q20 0 35.5 -15t15.5 -36v-1505q0 -20 -15 -35.5t-36 -15.5h-207q-20 0 -35.5 15.5t-15.5 35.5v883h-49v-883q0 -20 -15.5 -35.5t-35.5 -15.5h-207q-20 0 -35.5 15.5t-15.5 35.5v883h-54 q-20 0 -35.5 15t-15.5 36zM72 985h53q20 0 35.5 -15.5t15.5 -35.5v-883h105v883q0 20 15 35.5t36 15.5h53v84h-53q-20 0 -35.5 15.5t-15.5 35.5v29l-2 14q0 14 1 26.5t2 32t4 36t9 37t16.5 34.5t24.5 27.5t34.5 20.5t45.5 7q33 0 73 -4q18 -2 32 -16t14 -35v-1278h104v1403 h-113h-10q-66 14 -137 14q-59 0 -99 -22.5t-60.5 -50t-31 -78.5t-11.5 -81t-1 -85v-31q0 -20 -15.5 -35.5t-35.5 -15.5h-53v-84zM383 1171h49v111h-16q-33 0 -33 -111z" />
</font>
</defs>
</svg>
