<?xml version="1.0" standalone="no"?>
<!DOCTYPE svg PUBLIC "-//W3C//DTD SVG 1.1//EN" "http://www.w3.org/Graphics/SVG/1.1/DTD/svg11.dtd" >
<svg xmlns="http://www.w3.org/2000/svg">
<metadata>
This is a custom SVG webfont generated by Font Squirrel.
Copyright   : PropCourier was designed by Manufactura Independente Ana Carvalho  Ricardo Lafuente in October 2010 It is a friendly fork of OSPs NotCourierNotCourier was designed by OSP Ludivine Loiseau in July 2008 It is based on Nimbus Mono copyright URWCopyright 1999 by URW Design  Development Cyrillic glyphs added by Valek Filippov C 20012005
Designer    : Harrisson Pierre Huyghebaert Femke Snelting Ivan MonroyLopez Yi Jiang Nicolas Malev Ludivine Loiseau
Foundry     : OSP
</metadata>
<defs>
<font id="PropCourierSansBold" horiz-adv-x="1191" >
<font-face units-per-em="2048" ascent="1638" descent="-410" />
<missing-glyph horiz-adv-x="768" />
<glyph unicode=" "  horiz-adv-x="768" />
<glyph unicode="&#x09;" horiz-adv-x="768" />
<glyph unicode="&#xa0;" horiz-adv-x="768" />
<glyph unicode="!" horiz-adv-x="772" d="M221 1143q0 72 47 118t119 46t118 -47.5t46 -116.5q0 -14 -4 -68l-60 -608q-10 -100 -100 -100q-43 0 -70.5 26.5t-31.5 73.5l-60 608q-4 50 -4 68zM231 104.5q0 55.5 40 95.5t98 40h34q57 0 96.5 -39t39.5 -96.5t-39 -96.5t-97 -39h-34q-57 0 -97.5 40t-40.5 95.5z" />
<glyph unicode="&#x22;" horiz-adv-x="970" d="M150 1233h262l-64 -520q-6 -41 -20.5 -57.5t-44.5 -16.5q-55 0 -64 72zM559 1233h262l-63 -520q-6 -41 -20.5 -57.5t-45.5 -16.5q-55 0 -63 72z" />
<glyph unicode="#" horiz-adv-x="1187" d="M106 387q0 57 50 86q20 14 86 14h67l15 218h-39q-68 0 -95 18q-43 33 -43 84q0 59 50 88q20 14 88 14h53l24 344q2 61 23 90q33 39 82 39q43 0 72.5 -30.5t29.5 -71.5v-4l-2 -37l-22 -330h145l25 344q2 66 22 90q33 39 82 39q39 0 71 -29.5t32 -62.5v-6l-4 -45l-23 -330 h51q66 0 92 -18q43 -33 43 -84q0 -59 -49 -88q-27 -14 -86 -14h-65l-17 -218h39q70 0 94 -18q43 -33 43 -84q0 -57 -49 -86q-27 -14 -86 -14h-55l-23 -344q-4 -63 -26 -91q-33 -39 -80 -38q-39 0 -69.5 29.5t-30.5 68.5v6l4 39l22 330h-147l-25 -344q0 -129 -102 -129 q-45 0 -74 29.5t-29 76.5q0 23 2 37l23 330h-53q-66 0 -92 18q-44 33 -44 84zM514 487h147l15 218h-146z" />
<glyph unicode="$" horiz-adv-x="1118" d="M123 356q0 39 18 70q27 43 84 43q41 0 74 -29q14 -16 31 -71q12 -47 82.5 -81t154.5 -34q100 0 166 45t66 111q0 53 -39 84.5t-125 48.5l-152 30q-311 63 -311 318q0 121 83 210t214 111v54q0 66 18 94q35 41 84 41q57 0 86 -49q14 -20 15 -86v-54q102 -18 137 -36 q72 -39 116 -100.5t44 -119.5q0 -35 -19 -59q-31 -43 -84 -43q-88 0 -106 86q-4 29 -56.5 51.5t-115.5 22.5q-92 0 -147.5 -35t-55.5 -92q0 -84 154 -115l133 -29q178 -37 254 -112q86 -86 86 -223q0 -133 -90.5 -227.5t-249.5 -125.5v-170q0 -72 -19 -94q-33 -43 -82 -43 q-59 0 -88 49q-14 23 -14 88v170q-76 16 -162 52q-70 29 -127 103t-57 146z" />
<glyph unicode="%" horiz-adv-x="1001" d="M49 494q0 43 62 63l741 242q25 8 41 8q23 0 41 -19.5t18 -46.5q0 -47 -61 -63l-741 -242q-29 -8 -41 -8q-23 0 -41.5 19.5t-18.5 46.5zM68 979q0 117 84 201t200 84q121 0 204 -84t83 -205q0 -115 -84 -199t-201 -84q-119 0 -202.5 84t-83.5 203zM201 979 q0 -63 45 -108.5t106 -45.5q63 0 108.5 45t45.5 107q0 63 -44 108t-110 45q-61 0 -106 -45t-45 -106zM354 256q0 117 84 201t201 84q121 0 204 -84t83 -205q0 -115 -84 -199t-203 -84q-117 0 -201 84t-84 203zM487 256q0 -63 45.5 -108.5t108.5 -45.5q61 0 106.5 45.5 t45.5 106.5q0 66 -44 110t-110 44q-61 0 -106.5 -45.5t-45.5 -106.5z" />
<glyph unicode="&#x26;" horiz-adv-x="1030" d="M94 295q0 211 197 326q-70 119 -70 196q0 125 93.5 217t217.5 92q37 0 78 -9t107.5 -54t113.5 -121l-167 -90q-78 70 -129 70q-45 0 -77 -30t-32 -73q0 -35 57 -117l205 -296l47 167h203q-51 -264 -109 -368l136 -205h-244l-23 31q-84 -59 -231 -60q-170 0 -271.5 88.5 t-101.5 235.5zM299 295q0 -119 168 -119q63 0 113 29l-172 246q-109 -50 -109 -156z" />
<glyph unicode="'" horiz-adv-x="561" d="M150 1233h262l-64 -520q-6 -41 -20.5 -57.5t-44.5 -16.5q-55 0 -64 72z" />
<glyph unicode="(" horiz-adv-x="718" d="M135 498q0 164 62.5 350t175.5 354q35 55 58.5 73.5t57.5 18.5q45 0 75 -29.5t30 -70.5q0 -31 -25 -70q-207 -332 -207 -632q0 -299 207 -635q25 -39 25 -70q0 -41 -29.5 -70.5t-75.5 -29.5q-37 0 -63.5 23.5t-71.5 94.5q-219 349 -219 693z" />
<glyph unicode=")" horiz-adv-x="718" d="M125 -213q0 31 25 70q207 332 206 632q0 299 -206 635q-25 39 -25 70q0 41 29.5 70.5t74.5 29.5q37 0 63.5 -23.5t72.5 -94.5q219 -348 219 -693q0 -164 -62.5 -351t-175.5 -355q-35 -53 -58.5 -71.5t-58.5 -18.5q-45 0 -74.5 29.5t-29.5 70.5z" />
<glyph unicode="*" horiz-adv-x="950" d="M31 926q0 41 28.5 71.5t67.5 30.5q20 0 70 -14l176 -58v183q0 68 18 92q33 43 84 43q59 0 88 -49q14 -27 15 -86v-183l176 58q49 14 67 14q39 0 69 -30.5t30 -71.5q0 -76 -103 -107l-176 -57l107 -146q39 -55 38 -88q0 -41 -30.5 -71.5t-71.5 -30.5q-33 0 -51.5 13.5 t-50.5 56.5l-107 147l-106 -147q-31 -43 -51.5 -56.5t-51.5 -13.5q-41 0 -71.5 30.5t-30.5 71.5q0 31 39 88l106 146l-176 57q-57 16 -79.5 41t-22.5 66z" />
<glyph unicode="+" horiz-adv-x="1388" d="M166 573q0 59 49 89q20 14 86 14h291v336q0 70 20 92q29 43 82 43q59 0 88 -49q14 -20 15 -86v-336h288q68 0 95 -19q43 -33 43 -84q0 -59 -49 -88q-23 -14 -89 -14h-288v-336q0 -66 -19 -92q-33 -43 -84 -43q-59 0 -88 49q-14 27 -14 86v336h-291q-68 0 -92 18 q-43 33 -43 84z" />
<glyph unicode="," horiz-adv-x="661" d="M84 -266q0 16 6 39l141 501h271l-289 -548q-25 -49 -66 -50q-27 0 -45 17.5t-18 40.5z" />
<glyph unicode="-" horiz-adv-x="1224" d="M84 571q0 55 49 88q20 14 86 15h787q68 0 94 -19q41 -31 41 -84q0 -59 -49 -88q-23 -14 -86 -14h-787q-68 0 -92 18q-43 33 -43 84z" />
<glyph unicode="." horiz-adv-x="626" d="M160 104.5q0 55.5 40 95.5t95 40h37q57 0 96 -39t39 -96.5t-39 -96.5t-96 -39h-37q-55 0 -95 40t-40 95.5z" />
<glyph unicode="/" horiz-adv-x="888" d="M0 -133q0 29 25 78l657 1388q23 51 45.5 70.5t58.5 19.5q41 0 72 -29.5t31 -68.5q0 -27 -25 -76l-655 -1390q-23 -51 -46.5 -70.5t-60.5 -19.5q-41 0 -71.5 29.5t-30.5 68.5z" />
<glyph unicode="0" horiz-adv-x="1036" d="M74 541v194q0 293 159 459q106 113 284.5 113t285.5 -113q160 -166 160 -459v-194q0 -293 -160 -459q-106 -113 -284.5 -113t-285.5 113q-159 166 -159 459zM279 526q0 -160 65.5 -256t174 -96t174 96.5t65.5 255.5v224q0 160 -65.5 256t-174 96t-174 -96.5t-65.5 -255.5 v-224z" />
<glyph unicode="1" horiz-adv-x="829" d="M178 1089.5q0 45.5 23.5 67t85.5 37.5l434 113v-1307h-205v1042l-178 -47q-47 -12 -66 -12q-39 0 -66.5 30.5t-27.5 76z" />
<glyph unicode="2" d="M125 0v215q377 311 475 401q154 139 197 193.5t43 108.5q0 78 -67.5 131t-168.5 53q-127 0 -199 -84q-23 -27 -45 -94q-18 -59 -92 -60q-41 0 -71.5 30t-30.5 69q0 49 36 115.5t87 113.5q127 115 319 115q186 0 311 -114t125 -284q0 -100 -50 -179t-201 -216 q-53 -49 -355 -309h617v-205h-930z" />
<glyph unicode="3" horiz-adv-x="1177" d="M104 143q0 43 30 73t73 30q27 0 65 -25q72 -47 246 -47q195 0 273 70q57 53 57 131q0 57 -42 107t-114 79q-51 23 -157 27q-106 6 -107 94q0 45 29.5 73.5t77.5 28.5h81q76 0 131.5 48.5t55.5 113.5q0 72 -61.5 114t-168.5 42q-84 0 -135 -20.5t-100 -73.5 q-31 -31 -74 -31q-41 0 -70.5 30.5t-29.5 71.5q0 88 129 158t293 70q203 0 319 -119q102 -98 103 -238q0 -84 -43 -146.5t-144 -121.5q231 -113 232 -309q0 -188 -152 -307q-129 -96 -377 -97q-188 0 -304 48t-116 126z" />
<glyph unicode="4" horiz-adv-x="1028" d="M70 283v170l493 821h268v-787q125 0 125 -102q0 -98 -125 -102v-283h-204v283h-557zM319 487h308v496z" />
<glyph unicode="5" horiz-adv-x="1177" d="M121 172q0 41 30.5 70.5t71.5 29.5q35 0 74 -30q47 -39 101.5 -53.5t154.5 -14.5q160 0 235.5 58.5t75.5 179.5q0 113 -63.5 182.5t-165.5 69.5q-111 0 -246 -70q-35 -16 -57 -16q-45 0 -74 32.5t-29 81.5v582h619q66 0 94 -19q41 -35 41 -84q0 -59 -49 -88 q-20 -14 -86 -14h-414v-235q115 35 203 34q186 0 309 -129t123 -325q0 -182 -113 -305q-127 -139 -401 -140q-184 0 -309 58.5t-125 144.5z" />
<glyph unicode="6" horiz-adv-x="1071" d="M96 584q0 270 158 469q207 254 494 254q109 0 174 -37t65 -96q0 -43 -30.5 -74t-73.5 -31q-29 0 -72 16q-29 10 -51 11q-162 0 -290 -122t-163 -310q74 78 138.5 110.5t142.5 32.5q162 0 275.5 -123t113.5 -297q0 -180 -107 -297q-109 -121 -311 -121q-256 0 -373 209 q-90 166 -90 406zM328 428q23 -133 80 -193.5t157 -60.5q96 0 151.5 57.5t55.5 157.5q0 88 -57.5 150.5t-141.5 62.5q-66 0 -135 -49t-110 -125z" />
<glyph unicode="7" horiz-adv-x="1116" d="M104 1069v205h887v-203l-325 -973q-20 -55 -44 -77.5t-63 -22.5q-41 0 -72.5 29.5t-31.5 68.5q0 20 14 70l307 903h-672z" />
<glyph unicode="8" horiz-adv-x="1081" d="M96 338q0 190 199 315q-180 121 -180 279t123.5 266.5t302.5 108.5q176 0 301 -108.5t125 -262.5q0 -162 -181 -283q199 -125 199 -315q0 -164 -124 -266.5t-322 -102.5q-197 0 -320 102.5t-123 266.5zM301 354q0 -78 67.5 -129t172 -51t172 50t67.5 128t-69.5 132.5 t-169.5 54.5q-98 0 -169 -54.5t-71 -130.5zM319 923.5q0 -77.5 62.5 -128t159 -50.5t159 49.5t62.5 127.5q0 80 -61.5 130t-160 50t-160 -50.5t-61.5 -128z" />
<glyph unicode="9" horiz-adv-x="1071" d="M80 102q0 43 30.5 74t73.5 31q29 0 72 -17q29 -10 51 -10q162 0 290 122t163 310q-135 -143 -279 -143q-162 0 -276.5 123t-114.5 297q0 180 107 297q109 121 311 121q256 0 373 -209q90 -164 90 -406q0 -270 -158 -469q-207 -254 -494 -254q-109 0 -174 37t-65 96z M295 887q0 -88 57.5 -150.5t141.5 -62.5q66 0 135 49t110 125q-23 133 -80 193.5t-157 60.5q-96 0 -151.5 -57.5t-55.5 -157.5z" />
<glyph unicode=":" horiz-adv-x="659" d="M176 104.5q0 55.5 40 95.5t95 40h37q57 0 96 -39t39 -96.5t-38.5 -96.5t-96.5 -39h-37q-55 0 -95 40t-40 95.5zM176 758q0 57 40 97t95 40h37q57 0 96 -40t39 -97.5t-38.5 -96t-96.5 -38.5h-37q-55 0 -95 40t-40 95z" />
<glyph unicode=";" horiz-adv-x="692" d="M98 -266q0 16 6 39l142 501h270l-289 -548q-25 -49 -65 -50q-27 0 -45.5 17.5t-18.5 40.5zM209 760q0 59 42 97t111.5 38t111.5 -37t42 -100q0 -61 -42 -98t-111.5 -37t-111.5 38t-42 99z" />
<glyph unicode="&#x3c;" horiz-adv-x="1359" d="M166 573l881 435q37 18 61 18q51 0 74 -51l2 -4q10 -20 10 -39q0 -53 -66 -88l-534 -273l534 -278q66 -35 66 -88q0 -14 -10 -39l-2 -4q-23 -51 -74 -51q-29 0 -61 18z" />
<glyph unicode="=" horiz-adv-x="1388" d="M166 385q0 59 49 88q20 14 86 14h786q66 0 93 -18q43 -33 43 -84q0 -59 -49 -88q-23 -14 -87 -14h-786q-70 0 -92 20q-43 31 -43 82zM166 762q0 59 49 88q20 14 86 14h786q66 0 93 -18q43 -33 43 -84q0 -59 -49 -88q-23 -14 -87 -15h-786q-70 0 -92 21q-43 31 -43 82z " />
<glyph unicode="&#x3e;" horiz-adv-x="1359" d="M166 205q0 51 65 86l535 272l-535 281q-66 31 -65 84q0 16 10 41l2 4q8 20 30.5 35.5t43.5 15.5q29 0 61 -18l881 -445l-881 -434q-37 -18 -61 -18q-51 0 -74 51l-2 4q-10 25 -10 41z" />
<glyph unicode="?" horiz-adv-x="1056" d="M109 1104q147 72 233 96.5t184 24.5q190 0 309 -107.5t119 -279.5q0 -125 -74.5 -207t-261.5 -164q-12 -111 -102 -111q-59 0 -88 50q-14 27 -14 86v114q197 76 266.5 126t69.5 116q0 76 -61.5 124t-160.5 48q-113 0 -215 -49zM360 104.5q0 55.5 40 95.5t98 40h34 q57 0 96.5 -39t39.5 -96.5t-39 -96.5t-97 -39h-34q-57 0 -97.5 40t-40.5 95.5z" />
<glyph unicode="@" horiz-adv-x="1099" d="M102 315v347q0 264 130 436t331 172q166 0 272.5 -110.5t106.5 -280.5v-576q47 -20 47 -72q0 -84 -112 -84h-97v7q-47 -6 -67 -7q-131 0 -225.5 94.5t-94.5 221.5q0 143 107.5 240.5t279.5 109.5v66q0 102 -60.5 165.5t-154.5 63.5q-129 0 -215 -131t-86 -328v-319 q0 -233 105 -379q70 -102 202 -103q150 0 211 66q35 35 64 35q35 0 58.5 -24.5t23.5 -59.5q0 -72 -107.5 -124t-255.5 -52q-242 0 -366 219q-97 174 -97 407zM555 461q0 -63 49 -105.5t123 -42.5q25 0 53 4v330q-102 -10 -163.5 -60t-61.5 -126z" />
<glyph unicode="A" horiz-adv-x="1218" d="M6 0l486 1194h229l491 -1194h-237l-127 324h-488l-127 -324h-227zM442 528h322l-160 394z" />
<glyph unicode="B" horiz-adv-x="1230" d="M143 0v1194h488q174 0 287.5 -96.5t113.5 -241.5q0 -131 -129 -231q217 -109 217 -297q0 -147 -110.5 -237.5t-292.5 -90.5h-574zM348 205h359q209 0 208 110q0 82 -88 136q-76 45 -202 45h-277v-291zM348 700h232q111 0 179 44t68 114q0 61 -55 96t-151 35h-273v-289z " />
<glyph unicode="C" horiz-adv-x="1265" d="M78 510v135q0 246 159.5 412t397.5 166q145 0 291 -70q88 -43 148.5 -127t60.5 -160q0 -41 -19 -71q-27 -43 -84 -43q-43 0 -71 28q-18 18 -29 80q-8 37 -27.5 60.5t-62.5 48.5q-88 49 -199 49q-156 0 -258 -105.5t-102 -267.5v-131q0 -154 109.5 -246t293.5 -92 q147 0 225 47q23 12 78 70q33 33 74 33t71.5 -31t30.5 -72q0 -74 -108 -149q-141 -102 -377 -103q-260 0 -431 153t-171 386z" />
<glyph unicode="D" horiz-adv-x="1208" d="M143 1194h114h226h115q223 0 375.5 -164t152.5 -405v-97q0 -225 -143 -374q-145 -154 -401 -154h-430v1194h-9zM356 205h228q92 0 149.5 20.5t104.5 69.5q84 92 84 240v94q0 147 -93 256q-90 104 -247 104h-226v-784z" />
<glyph unicode="E" d="M143 0v1194h889v-205h-684v-289h377v-202h-377v-293h729v-205h-934z" />
<glyph unicode="F" horiz-adv-x="1208" d="M143 0v1194h934v-205h-729v-289h377v-202h-377v-498h-205z" />
<glyph unicode="G" horiz-adv-x="1253" d="M78 504v145q0 117 46 225.5t126 190.5q162 158 409 158q170 0 297 -66q57 -29 120 -98.5t63 -147.5q0 -39 -21 -75q-23 -43 -84 -43q-43 0 -71 30q-12 14 -29 78q-14 53 -87 85t-185 32q-174 0 -271 -96q-49 -51 -78.5 -124t-29.5 -149v-131q0 -174 92 -252 q106 -90 301 -90q143 0 256 51v142h-230v204l435 -2v-473q-135 -72 -231.5 -99.5t-217.5 -27.5q-150 0 -274.5 42t-200.5 120q-61 66 -98 165.5t-37 205.5z" />
<glyph unicode="H" horiz-adv-x="1134" d="M143 0v1196h205v-498h438v498h205v-1196h-205v494h-438v-494h-205z" />
<glyph unicode="I" horiz-adv-x="493" d="M143 0v1196h205v-1196h-205z" />
<glyph unicode="J" horiz-adv-x="950" d="M-88 104l205 136q141 -63 239 -64q117 0 195 74q33 33 41 59.5t8 96.5v788h205v-811q0 -100 -30 -166.5t-101 -130.5q-133 -115 -322 -115q-172 0 -440 133z" />
<glyph unicode="K" horiz-adv-x="1017" d="M143 0v1196h205v-512l432 510h74h211l-428 -518q111 -59 232.5 -241.5t168.5 -434.5h-215q-72 219 -165 360.5t-187 169.5l-123 -104v-426h-205z" />
<glyph unicode="L" horiz-adv-x="1036" d="M143 0v1194h205v-989h645v-205h-850z" />
<glyph unicode="M" horiz-adv-x="1353" d="M143 0v1194h252l283 -608l276 608h254v-1194h-204v797l-228 -514h-186q-242 512 -242 514v-797h-205z" />
<glyph unicode="N" horiz-adv-x="1224" d="M143 0v1194h205l529 -803v803h204v-1194h-202l-531 807v-807h-205z" />
<glyph unicode="O" horiz-adv-x="1298" d="M78 598q0 258 168 441.5t403 183.5q211 0 379 -158q193 -184 193 -477q0 -252 -169 -434.5t-403 -182.5q-238 0 -404.5 183.5t-166.5 443.5zM283 598q0 -174 107.5 -298t258.5 -124q150 0 258.5 123t108.5 293q0 176 -107.5 301t-259.5 125q-150 0 -258 -124t-108 -296z " />
<glyph unicode="P" horiz-adv-x="1097" d="M143 0v1194h447q195 0 319.5 -108.5t124.5 -278.5q0 -150 -102 -262q-68 -76 -154 -105.5t-229 -29.5h-201v-410h-205zM348 614h242q106 0 166.5 50.5t60.5 136.5q0 88 -60.5 138t-166.5 50h-242v-375z" />
<glyph unicode="Q" horiz-adv-x="1298" d="M78 598q0 258 168 441.5t403.5 183.5t403.5 -182.5t168 -438.5q0 -170 -81 -314.5t-227 -232.5q-115 -70 -286 -69q-20 0 -37 2l-8 -49q61 10 104 10q78 0 172 -27q55 -14 84 -14q39 0 88 31q53 35 82 34q45 0 75 -29.5t30 -72.5q0 -59 -78 -104q-104 -63 -195 -64 q-39 0 -61.5 6t-96.5 35q-45 16 -98 16q-90 0 -258 -43q-41 -10 -57 -10q-39 0 -69 32t-30 75q0 39 41 77l127 123q-115 66 -173 117t-101 123q-90 158 -90 344zM283 596q0 -172 108.5 -297t258 -125t258 123t108.5 293q0 178 -107.5 303t-259 125t-259 -124t-107.5 -298z " />
<glyph unicode="R" horiz-adv-x="1189" d="M143 0v1194h426q199 0 325 -101.5t126 -263.5q0 -188 -221 -309q121 -113 200.5 -232.5t159.5 -287.5h-237q-76 147 -194 289.5t-183 165.5h-197v-455h-205zM348 659h156q129 0 214 50.5t85 126.5q0 66 -63.5 109.5t-161.5 43.5h-230v-330z" />
<glyph unicode="S" horiz-adv-x="1202" d="M113 297q0 37 18 70q25 41 84 41q45 0 74 -29q14 -14 30 -70q14 -55 98.5 -94t186.5 -39q115 0 193 45t78 111q0 68 -74 108q-49 27 -215 56q-174 29 -264 79q-78 45 -123 121t-45 164q0 156 127 259.5t317 103.5q131 0 266 -68q78 -39 129 -115.5t51 -150.5 q0 -43 -18 -76q-25 -43 -82 -43q-45 0 -74 29q-14 16 -28 82q-14 61 -81 99t-163 38t-163.5 -45t-67.5 -111q0 -33 21.5 -64.5t53.5 -47.5q47 -25 205 -54q233 -43 320 -112q121 -96 120.5 -256t-129.5 -258.5t-340 -98.5q-150 0 -319 80q-72 33 -129 104.5t-57 141.5z" />
<glyph unicode="T" horiz-adv-x="1071" d="M6 989v207h1057v-207h-428v-989h-205v989h-424z" />
<glyph unicode="U" horiz-adv-x="1224" d="M143 420v774h205v-793q0 -94 78 -159.5t186.5 -65.5t186.5 65.5t78 159.5v793h204v-774q0 -219 -172 -348q-131 -100 -297 -100.5t-297 100.5q-172 133 -172 348z" />
<glyph unicode="V" horiz-adv-x="1222" d="M6 1194h230l380 -899l383 901h218l-508 -1196h-203z" />
<glyph unicode="W" horiz-adv-x="1228" d="M47 1194h211l100 -762l156 463h213l156 -463l98 762h199l-150 -1194h-225l-191 567l-186 -567h-227z" />
<glyph unicode="X" horiz-adv-x="1105" d="M29 0l389 610l-379 584h262l250 -426l242 426h262l-373 -586l393 -608h-264l-258 451l-258 -451h-266z" />
<glyph unicode="Y" horiz-adv-x="1134" d="M-14 1194h245l338 -481l334 481h246l-477 -692v-502h-205v502z" />
<glyph unicode="Z" horiz-adv-x="1071" d="M70 0v205l618 784h-571v205h835v-199l-620 -790h669v-205h-931z" />
<glyph unicode="[" horiz-adv-x="702" d="M135 -303v1587h324q66 0 94 -18q41 -31 41 -84q0 -59 -49 -88q-23 -14 -86 -15h-119v-1177h121q66 0 92 -19q43 -33 43 -84q0 -55 -49 -88q-23 -14 -86 -14h-326z" />
<glyph unicode="\" horiz-adv-x="888" d="M0 1325q0 39 30.5 68.5t71.5 29.5q37 0 59.5 -19.5t45.5 -70.5l657 -1388q25 -49 25 -78q0 -39 -31 -68.5t-72 -29.5q-37 0 -59 19t-47 71l-655 1390q-25 49 -25 76z" />
<glyph unicode="]" horiz-adv-x="702" d="M106 1182q0 55 50 88q23 14 86 14h325v-1587h-323q-66 0 -94 18q-41 31 -41 84q0 59 49 88q23 14 86 15h118v1177h-120q-66 0 -92 19q-44 33 -44 84z" />
<glyph unicode="^" horiz-adv-x="1208" d="M160 768q0 37 45 90l397 477l402 -477q45 -53 45 -90q0 -41 -31 -71.5t-72 -30.5q-29 0 -48 11t-52 50l-244 285l-240 -283q-35 -41 -52 -52t-48 -11q-41 0 -71.5 30.5t-30.5 71.5z" />
<glyph unicode="_" horiz-adv-x="1277" d="M0 -154h1278v-102h-1278v102z" />
<glyph unicode="`" horiz-adv-x="813" d="M72 1352q0 31 21.5 52t53.5 21q25 0 66 -32l272 -228q47 -39 47 -75q0 -29 -22.5 -51.5t-52.5 -22.5q-25 0 -66 33l-272 229q-47 37 -47 74z" />
<glyph unicode="a" horiz-adv-x="1105" d="M68 244q0 100 79 190q139 156 416 156q92 0 213 -21v47q0 100 -190 101q-104 0 -238 -35q-51 -12 -82 -12q-43 0 -71.5 29.5t-28.5 74.5q0 66 61 86q174 61 353 62q188 0 295.5 -80t107.5 -224v-618h-207v47q-154 -80 -340 -80q-152 0 -260 81t-108 196zM285 252 q0 -35 45 -57.5t110 -22.5q168 0 338 104v103q-129 23 -227 22q-104 0 -185 -45t-81 -104z" />
<glyph unicode="b" horiz-adv-x="1218" d="M131 0v1278h205v-457q129 102 307 103q223 0 363 -133q143 -137 143 -345q0 -203 -143 -342q-139 -133 -361 -133q-164 0 -309 101v-72h-205zM336 451q0 -121 85 -198t220 -77q139 0 223 82q80 80 80 191q0 104 -80 188q-84 82 -223 82q-143 0 -225 -82q-80 -80 -80 -186 z" />
<glyph unicode="c" horiz-adv-x="1218" d="M68 424q0 219 146 358.5t378 139.5q164 0 295 -62q72 -35 124 -108.5t52 -143.5q0 -41 -19 -71q-27 -43 -83 -43q-45 0 -74 28q-18 14 -31 70q-10 49 -47 74q-84 51 -217 51q-152 0 -238 -88q-82 -82 -82 -205q0 -252 361 -252q135 0 215 27q39 12 102 63q27 25 62 25 q41 0 71.5 -31t30.5 -74q0 -82 -131 -149q-135 -66 -365 -66q-283 0 -425 142q-125 125 -125 315z" />
<glyph unicode="d" horiz-adv-x="1220" d="M70 448.5q0 204.5 143 342.5q139 133 365 133q178 0 307 -103v457h205v-1278h-205v72q-147 -100 -310 -101q-223 0 -362 133q-143 140 -143 344.5zM274 449q0 -106 80 -191q84 -82 225.5 -82t225.5 82q80 80 80 186q0 113 -80 193q-84 82 -227 82q-141 0 -224 -82 q-80 -79 -80 -188z" />
<glyph unicode="e" horiz-adv-x="1202" d="M68 442q0 203 152.5 341.5t375.5 138.5q229 0 379.5 -139.5t150.5 -350.5v-80h-835q70 -180 336 -180q115 0 334 57q41 10 67 11q41 0 69.5 -30t28.5 -73q0 -59 -71 -92q-70 -31 -204 -54.5t-243 -23.5q-238 0 -389 133t-151 342zM297 532h602q-25 84 -106.5 134.5 t-194.5 50.5t-195.5 -51.5t-105.5 -133.5z" />
<glyph unicode="f" horiz-adv-x="1009" d="M29 793q0 59 49 88q20 14 88 14h94v76q0 141 106.5 223t288.5 82q164 0 281 -33q86 -23 86 -96q0 -45 -27.5 -75t-68.5 -30q-20 0 -58 7q-127 23 -231 22q-172 0 -172 -100v-76h309q66 0 92 -18q43 -33 43 -84q0 -55 -49 -88q-23 -14 -86 -15h-309v-690h-205v690h-96 q-70 0 -92 21q-43 31 -43 82z" />
<glyph unicode="g" horiz-adv-x="1177" d="M70 446q0 205 138 341.5t345 136.5q168 0 289 -103v74h205v-936q0 -162 -112 -270.5t-280 -108.5h-229q-70 0 -92 21q-43 31 -43 82q0 59 49 88q20 14 86 14h223q88 0 140.5 47t52.5 127v113q-135 -100 -289 -101q-207 0 -345 136t-138 339zM274 448.5 q0 -112.5 83 -192.5t200 -80t201 79t84 189q0 115 -83 195t-202 80q-117 0 -200 -79t-83 -191.5z" />
<glyph unicode="h" horiz-adv-x="1101" d="M131 0l2 1278h203v-481q123 125 280 125q164 0 263.5 -93.5t99.5 -246.5v-582h-205v555q0 53 -8 77.5t-35 45.5q-47 39 -137 39q-72 0 -121 -26.5t-137 -110.5v-580h-205z" />
<glyph unicode="i" horiz-adv-x="503" d="M131 1061v215h242v-215h-242zM150 0v893l204 2v-895h-204z" />
<glyph unicode="j" horiz-adv-x="636" d="M-51 -317q0 57 49 88q20 14 86 14h6q88 0 140.5 47t52.5 127v731h-90q-70 0 -93 21q-43 31 -43 82q0 59 49 88q23 14 87 14h294v-936q0 -162 -111.5 -270.5t-279.5 -108.5h-12q-70 0 -92 21q-43 31 -43 82zM262 1061v215h244v-215h-244z" />
<glyph unicode="k" horiz-adv-x="1064" d="M131 0v1278h205v-690l385 307h303l-492 -401l562 -494h-310l-411 365l-37 -29v-336h-205z" />
<glyph unicode="l" horiz-adv-x="620" d="M131 1176q0 59 49 88q20 14 88 14h221v-1278h-204v1073h-17q-72 0 -94 21q-43 29 -43 82z" />
<glyph unicode="m" horiz-adv-x="1327" d="M131 0v895h207v-49q94 76 174 76q117 0 209 -101q92 100 213 101q115 0 191.5 -77t76.5 -192v-653h-205v637q0 45 -15 62.5t-56 17.5t-73 -18.5t-83 -73.5v-625h-205v637q0 43 -16.5 61.5t-54.5 18.5q-74 0 -156 -92v-625h-207z" />
<glyph unicode="n" horiz-adv-x="1101" d="M131 0v895h203v-98q74 70 135 97.5t145 27.5q139 0 244 -76q121 -90 121 -268v-578h-205v569q0 147 -184 148q-72 0 -128 -31t-128 -108v-578h-203z" />
<glyph unicode="o" d="M68 444q0 203 153.5 340.5t380.5 137.5q217 0 369.5 -139.5t152.5 -338.5q0 -201 -153.5 -339t-374.5 -138t-374.5 138t-153.5 339zM272 444q0 -115 93.5 -193.5t230.5 -78.5t230.5 79t93.5 193.5t-93.5 193.5t-226.5 79q-139 0 -233.5 -78t-94.5 -195z" />
<glyph unicode="p" horiz-adv-x="1218" d="M131 -420v1315h205v-92q139 119 313 119q215 0 357.5 -132.5t142.5 -330.5q0 -188 -141.5 -313.5t-354.5 -125.5q-168 0 -317 115v-555h-205zM336 473q0 -109 85 -178.5t220 -69.5q133 0 218 70t85 176q0 51 -26.5 102.5t-71.5 83.5q-78 59 -205 60q-129 0 -207 -60 q-45 -33 -71.5 -84t-26.5 -100z" />
<glyph unicode="q" horiz-adv-x="1220" d="M70 459q0 199 142 331t357 132q96 0 168 -27t148 -92v92h205v-1315h-205v555q-150 -115 -320 -115q-213 0 -354 125.5t-141 313.5zM274 471q0 -113 99 -186q78 -59 207 -59.5t206 59.5q45 33 72 84t27 100q0 109 -85 178.5t-222 69.5q-123 0 -205 -60q-99 -73 -99 -186z " />
<glyph unicode="r" horiz-adv-x="940" d="M131 0v895h205v-133q123 92 194.5 125t147.5 33q109 0 201 -78q57 -47 57 -97q0 -43 -31 -73.5t-71 -30.5q-37 0 -80 37t-80 37q-49 0 -120 -44t-218 -165v-506h-205z" />
<glyph unicode="s" horiz-adv-x="1083" d="M80 238q0 35 20 61q33 43 84 43q78 0 105 -90q90 -80 256 -80q98 0 168.5 26.5t70.5 61.5q0 45 -69 72q-47 18 -189 35q-215 23 -311 88t-96 186q0 123 118.5 202t303.5 79q154 0 264 -54q70 -33 116 -83t46 -105q0 -33 -19 -64q-29 -41 -84 -41q-61 0 -96 64l-10 18 q-84 59 -211 60q-78 0 -140.5 -21.5t-62.5 -50.5t53 -49q31 -10 172 -31q209 -29 297 -78q68 -37 106 -98t38 -133q0 -125 -129 -207t-328 -82q-166 0 -303 60q-74 31 -122 92.5t-48 118.5z" />
<glyph unicode="t" horiz-adv-x="1112" d="M20 793q0 59 50 88q20 14 86 14h71v180q0 68 21 94q31 41 82 41q59 0 88 -49q14 -23 14 -86v-180h371q66 0 94 -18q41 -35 41 -84q0 -59 -49 -88q-23 -14 -86 -15h-371v-401q0 -57 17 -76q37 -41 159 -41q162 0 299 70q43 23 72 22q41 0 69.5 -30.5t28.5 -73.5 q0 -37 -22.5 -60.5t-79.5 -50.5q-74 -35 -181.5 -58.5t-187.5 -23.5q-174 0 -276.5 76t-102.5 207v440h-71q-70 0 -95 21q-41 31 -41 82z" />
<glyph unicode="u" horiz-adv-x="1103" d="M123 319v576h205v-569q0 -147 180 -148q78 0 129 27.5t131 111.5v578h205v-895h-205v98q-76 -72 -136.5 -98.5t-144.5 -26.5q-143 0 -243 76q-121 90 -121 270z" />
<glyph unicode="v" horiz-adv-x="1146" d="M23 895h229l328 -645l321 645h223l-444 -895h-213z" />
<glyph unicode="w" horiz-adv-x="1222" d="M55 895h217l131 -516l123 323h181l124 -323l136 516h202l-223 -895h-188l-146 371l-139 -371h-192z" />
<glyph unicode="x" horiz-adv-x="1116" d="M23 0l364 467l-340 428h297l205 -295l199 295h305l-353 -430l394 -465h-303l-242 330l-230 -330h-296z" />
<glyph unicode="y" horiz-adv-x="1193" d="M18 895h236l338 -662l356 662h219l-684 -1315h-223l217 426z" />
<glyph unicode="z" horiz-adv-x="1032" d="M70 0v170l534 520h-510v205h838v-166l-537 -524h563v-205h-888z" />
<glyph unicode="{" horiz-adv-x="937" d="M197 491.5q0 92.5 100 102.5q39 4 52 20.5t13 57.5v336q0 109 79 188.5t186 79.5q51 0 82.5 -27.5t31.5 -74.5q0 -43 -27.5 -73t-72.5 -32q-43 -2 -58.5 -18.5t-15.5 -57.5v-321q0 -66 -12 -101.5t-47 -78.5q37 -45 48 -83t11 -118v-322q0 -41 15.5 -56t58.5 -19 q45 -2 72.5 -32t27.5 -73q0 -47 -30.5 -74.5t-81.5 -27.5q-109 0 -188 79.5t-79 188.5v354q0 43 -12 58.5t-53 19.5q-100 12 -100 104.5z" />
<glyph unicode="|" horiz-adv-x="606" d="M201 -178v1317q0 68 18 94q35 41 84 41q59 0 88 -49q14 -27 15 -86v-1317q0 -66 -19 -92q-33 -43 -84 -43q-55 0 -88 49q-14 23 -14 86z" />
<glyph unicode="}" horiz-adv-x="937" d="M197 -211q0 43 27.5 72.5t72.5 32.5q43 2 58.5 18t15.5 57v322q0 66 12 101.5t47 78.5q-37 45 -48 83t-11 118v321q0 41 -15.5 56.5t-58.5 19.5q-45 2 -72.5 31.5t-27.5 73.5q0 47 30.5 74.5t81.5 27.5q109 0 187.5 -80t78.5 -188v-355q0 -43 12.5 -58t53.5 -20 q100 -12 100 -104t-100 -102q-39 -4 -52.5 -20.5t-13.5 -57.5v-336q0 -109 -78.5 -188.5t-185.5 -79.5q-51 0 -82.5 27.5t-31.5 74.5z" />
<glyph unicode="~" horiz-adv-x="1306" d="M166 516q0 55 80 143q113 129 229 129q66 0 121 -31.5t160 -127.5q57 -47 80 -47q29 0 100 94q31 41 51.5 55t50.5 14q41 0 72 -30.5t31 -71.5q0 -51 -84 -149q-106 -127 -217 -127t-281 153q-66 55 -86 55q-27 0 -96 -86q-41 -49 -60.5 -63t-46.5 -14q-41 0 -72.5 31.5 t-31.5 72.5z" />
<glyph unicode="&#xa1;" horiz-adv-x="772" d="M221 -301q0 18 4 68l60 608q10 100 100 100q43 0 70.5 -26.5t31.5 -73.5l60 -608q4 -53 4 -68q0 -72 -47 -118t-119 -46q-70 0 -117 46t-47 118zM231 737.5q0 57.5 40 96t98 38.5h34q57 0 96.5 -38.5t39.5 -96t-39 -96.5t-97 -39h-34q-57 0 -97.5 39t-40.5 96.5z" />
<glyph unicode="&#xa2;" horiz-adv-x="1187" d="M133 639q0 150 96.5 266.5t247.5 153.5v158q0 70 21 94q31 43 82 43q59 0 88 -49q14 -23 14 -88v-138q86 -14 149 -49q57 -33 101.5 -100.5t44.5 -132.5q0 -41 -19 -72q-34 -43 -84 -43q-41 0 -71 27q-14 16 -31 77q-20 88 -154 88q-121 0 -200.5 -68.5t-79.5 -170.5 q0 -96 74.5 -164t185.5 -68q115 0 215 74q37 25 70 25q41 0 71.5 -32t30.5 -73q0 -63 -84 -117.5t-219 -76.5v-158q0 -66 -18 -92q-33 -43 -84 -43q-55 0 -88 49q-14 23 -15 86v166q-158 39 -251 154.5t-93 273.5z" />
<glyph unicode="&#xa3;" horiz-adv-x="1286" d="M96 600q0 59 49 88q23 14 86 14h91q-35 104 -35 183q0 150 99 245t255 95q121 0 222.5 -66.5t101.5 -144.5q0 -43 -30 -74t-71 -31q-29 0 -45 9.5t-51 48.5q-47 53 -129 53q-63 0 -105 -36t-42 -89q0 -47 40 -193h140q68 0 94 -18q43 -33 43 -84q0 -55 -49 -88 q-27 -14 -88 -14h-92q2 -25 2 -56q0 -121 -47 -237h415q12 94 101 94q47 0 75.5 -30.5t28.5 -84.5q0 -90 -57.5 -137t-163.5 -47h-658q-66 0 -92 20q-43 31 -43 84q0 80 103 101q68 14 92 65q39 76 39 189q0 23 -2 39h-142q-68 0 -92 18q-43 33 -43 84z" />
<glyph unicode="&#xa4;" horiz-adv-x="1040" d="M55 236q0 41 54 96l65 69q-51 100 -51 197q0 100 51 197l-68 65q-51 51 -51 101q0 41 31 71.5t74 30.5q41 0 96 -53l66 -64q98 53 198 53q96 0 199 -55l63 62q53 53 96.5 53t74 -31t30.5 -74q0 -27 -9 -43t-44 -51l-64 -65q51 -100 52 -197q0 -98 -54 -197l68 -69 q53 -53 53 -94q0 -43 -31.5 -75t-74.5 -32q-27 0 -43.5 9.5t-51.5 43.5l-69 66q-96 -51 -194.5 -51t-196.5 53l-68 -66q-35 -35 -52.5 -45t-43.5 -10q-43 0 -74 31t-31 74zM328 600q0 -80 57 -138.5t135 -58.5t135.5 58.5t57.5 136.5q0 84 -55.5 140.5t-137.5 56.5 q-80 0 -136 -56.5t-56 -138.5z" />
<glyph unicode="&#xa5;" horiz-adv-x="1193" d="M18 1188h246l332 -475l340 475h240l-428 -613h147q63 0 63 -57t-63 -57h-199v-70h199q63 0 63 -57.5t-63 -57.5h-199v-276h-204v276h-199q-63 0 -63.5 57.5t63.5 57.5h199v70h-199q-63 0 -63.5 57t63.5 57h147z" />
<glyph unicode="&#xa6;" horiz-adv-x="606" d="M201 723v416q0 68 18 92q33 43 84 43q88 0 100 -92q2 -23 3 -43v-416q0 -66 -19 -92q-33 -43 -84 -43q-59 0 -88 49q-14 23 -14 86zM201 -178v416q0 68 18 94q35 41 84 41q59 0 88 -49q14 -27 15 -86v-416q0 -66 -19 -92q-33 -43 -84 -43q-55 0 -88 49q-14 23 -14 86z " />
<glyph unicode="&#xa7;" horiz-adv-x="1097" d="M10 580q0 186 207 243q-10 31 -10 62q0 121 86 211q90 98 246 98h460v-186l-475 2q-59 0 -101 -32t-42 -77q0 -76 219 -201l188 -104q178 -100 241 -168t63 -164q0 -94 -54.5 -157.5t-154.5 -86.5q10 -43 10 -77q0 -104 -78 -195q-88 -96 -240 -96h-473v180h478 q55 0 96 33t41 76q0 80 -215 200l-217 125q-154 88 -214.5 157t-60.5 157zM207 598q0 -76 176 -178l211 -119q133 -82 176 -121h12h23q39 2 64.5 20.5t25.5 47.5q0 76 -199 190l-202 117q-78 43 -164 113q-123 0 -123 -70z" />
<glyph unicode="&#xa8;" horiz-adv-x="974" d="M152 1216.5q0 51.5 35.5 87t87 35.5t87 -35.5t35.5 -89.5q0 -49 -35.5 -84.5t-87 -35.5t-87 35.5t-35.5 87zM578 1216.5q0 51.5 35.5 87t87 35.5t87 -35.5t35.5 -89.5q0 -49 -35.5 -84.5t-87 -35.5t-87 35.5t-35.5 87z" />
<glyph unicode="&#xa9;" horiz-adv-x="1689" d="M217 598q0 260 183.5 443.5t443.5 183.5t444.5 -183.5t184.5 -443.5q0 -262 -184.5 -445.5t-450.5 -183.5q-254 0 -437.5 185.5t-183.5 443.5zM367 598q0 -197 139 -338t334 -141q203 0 343 139t140 340q0 199 -140.5 338t-336.5 139q-199 0 -339 -139t-140 -338z M508 551v74q0 141 91 235t228 94q84 0 162 -39q57 -25 90 -74.5t33 -97.5q0 -35 -17.5 -57t-52.5 -22q-59 0 -73 73q-4 29 -45 50.5t-93 21.5q-78 0 -128 -52t-50 -134v-70q0 -76 54.5 -121t144.5 -45q59 0 89 11.5t65 47.5q23 23 51 23t50.5 -22.5t22.5 -51.5 q0 -59 -86 -106t-194 -47q-147 0 -244.5 88t-97.5 221z" />
<glyph unicode="&#xaa;" horiz-adv-x="999" d="M121 756q0 70 57 133q96 109 299 108q53 0 127 -10v17q0 55 -119 55q-72 0 -161 -23q-37 -10 -58 -10q-33 0 -55.5 23.5t-22.5 58.5q0 49 50 70q117 41 239 41q137 0 212 -56.5t75 -158.5v-263h12q104 0 104.5 -79.5t-102.5 -79.5h-174v22q-113 -45 -221.5 -45t-185 57.5 t-76.5 139.5zM133 465q0 39 21.5 52t85.5 13h522q106 0 106 -77q0 -80 -104 -80h-524q-68 0 -87.5 16.5t-19.5 75.5zM307 766q0 -20 24.5 -32.5t63.5 -12.5q117 0 209 63v56q-76 14 -135 14q-66 0 -114 -26.5t-48 -61.5z" />
<glyph unicode="&#xab;" horiz-adv-x="1370" d="M121 446l508 377q35 27 59 27q27 0 46.5 -18.5t19.5 -43.5q0 -29 -33 -55l-309 -287l309 -288q33 -31 33 -55.5t-20.5 -43t-47.5 -18.5q-23 0 -57 27zM590 446l508 377q35 27 59 27q27 0 46.5 -18.5t19.5 -43.5q0 -29 -33 -55l-309 -287l309 -288q33 -31 33 -55.5 t-20.5 -43t-47.5 -18.5q-23 0 -57 27z" />
<glyph unicode="&#xac;" horiz-adv-x="1198" d="M166 809q0 59 49 88q20 14 86 14h731v-540q0 -66 -18 -92q-33 -43 -84 -43q-59 0 -88 49q-14 27 -15 86v336h-526q-70 0 -92 20q-43 31 -43 82z" />
<glyph unicode="&#xad;" horiz-adv-x="1224" d="M84 571q0 55 49 88q20 14 86 15h787q68 0 94 -19q41 -31 41 -84q0 -59 -49 -88q-23 -14 -86 -14h-787q-68 0 -92 18q-43 33 -43 84z" />
<glyph unicode="&#xae;" horiz-adv-x="1689" d="M217 598q0 258 184.5 442.5t444.5 184.5q258 0 442.5 -183.5t184.5 -443.5q0 -262 -184.5 -445.5t-450.5 -183.5q-254 0 -437.5 185.5t-183.5 443.5zM367 598q0 -197 139 -338t334 -141q203 0 343 139t140 340q0 197 -140.5 337t-336.5 140q-199 0 -339 -140t-140 -337z M635 258v680h194q115 0 188 -59.5t73 -153.5q0 -57 -34 -105.5t-91 -74.5q117 -106 159 -287h-149q-18 74 -68.5 149.5t-93.5 96.5h-31v-246h-147zM782 647h52q47 0 78.5 22.5t31.5 57.5q0 29 -29.5 47.5t-80.5 18.5h-52v-146z" />
<glyph unicode="&#xaf;" horiz-adv-x="1019" d="M152 1200q0 82 108 82h500q66 0 86 -22q23 -27 22 -60q0 -82 -108 -82h-500q-63 0 -86 25q-22 30 -22 57z" />
<glyph unicode="&#xb0;" horiz-adv-x="991" d="M137 860.5q0 149.5 104.5 255t254 105.5t254 -105.5t104.5 -255.5q0 -152 -105.5 -257t-256.5 -105q-145 0 -250 106.5t-105 256zM262 860q0 -96 68.5 -166.5t163.5 -70.5q98 0 166.5 69.5t68.5 167.5q0 96 -68.5 166t-165 70t-165 -70t-68.5 -166z" />
<glyph unicode="&#xb1;" horiz-adv-x="1388" d="M166 778q0 57 49 88q20 14 86 15h291v262q0 70 20 92q31 43 82 43q59 0 88 -49q14 -20 15 -86v-262h288q68 0 95 -19q43 -33 43 -84q0 -59 -49 -88q-23 -14 -89 -14h-288v-205q0 -66 -19 -92q-33 -43 -84 -43q-57 0 -88 49q-14 27 -14 86v205h-291q-70 0 -92 20 q-43 31 -43 82zM166 102q0 57 49 88q20 14 86 15h786q66 0 93 -19q43 -33 43 -84q0 -59 -49 -88q-23 -14 -87 -14h-786q-70 0 -92 20q-43 31 -43 82z" />
<glyph unicode="&#xb2;" horiz-adv-x="745" d="M84 506v139q285 236 356.5 306.5t71.5 113.5t-38 72.5t-95 29.5q-76 0 -115 -49q-12 -14 -24 -53q-14 -41 -62 -41q-29 0 -49 19.5t-20 48.5q0 31 21.5 71.5t53.5 69.5q82 72 197 72t191.5 -70t76.5 -176q0 -78 -61.5 -150.5t-290.5 -265.5h360v-137h-573z" />
<glyph unicode="&#xb3;" horiz-adv-x="735" d="M68 598q0 29 19 49.5t48 20.5q23 0 45 -17q41 -27 146 -26q188 0 188 106q0 70 -90 111q-29 12 -92 14q-70 6 -70 68q0 29 20.5 48t49.5 19h51q41 0 72.5 28t31.5 62q0 39 -34.5 62.5t-94.5 23.5q-88 0 -137 -55q-20 -20 -49 -20q-27 0 -47.5 20.5t-20.5 48.5 q0 57 79 100.5t182 43.5q113 0 186.5 -62.5t73.5 -159.5q0 -100 -99 -161q-4 -2 -6 -4q131 -68 131 -191q0 -113 -94 -182q-78 -57 -227 -58q-121 0 -191.5 30t-70.5 81z" />
<glyph unicode="&#xb4;" horiz-adv-x="813" d="M281 1090q0 37 47 75l272 228q41 33 66 32q33 0 54 -21.5t21 -53.5q0 -35 -47 -72l-272 -229q-41 -33 -66 -33q-31 0 -53 22.5t-22 51.5z" />
<glyph unicode="&#xb5;" horiz-adv-x="1032" d="M133 -178v1073h205v-600q0 -66 30.5 -94.5t102.5 -28.5q125 0 307 111v612h205v-895h-205v45q-162 -78 -321 -78q-57 0 -119 19v-164q0 -66 -19 -92q-33 -43 -83 -43q-55 0 -89 49q-14 23 -14 86z" />
<glyph unicode="&#xb6;" horiz-adv-x="1273" d="M98 739v95q0 150 154 255t371 105h403q111 0 111 -80t-111 -80h-70v-1390h-155v1390h-90v-1390h-160v735q-199 20 -326 121.5t-127 238.5zM330 739q0 -70 59.5 -121t161.5 -73v479q-102 -23 -161.5 -74t-59.5 -121v-90z" />
<glyph unicode="&#xb7;" horiz-adv-x="626" d="M160 573.5q0 55.5 40 95.5t95 40h37q57 0 96 -39t39 -96.5t-39 -96.5t-96 -39h-37q-55 0 -95 40t-40 95.5z" />
<glyph unicode="&#xb8;" horiz-adv-x="903" d="M201 -340q0 29 21.5 50.5t49.5 21.5q18 0 60 -23q63 -35 117 -35q74 0 73 52q0 70 -108 69q-18 0 -45 -4v209h143v-84q154 -33 154 -186q0 -88 -61.5 -143.5t-158.5 -55.5q-98 0 -188 49q-57 33 -57 80z" />
<glyph unicode="&#xb9;" horiz-adv-x="522" d="M94 1167.5q0 28.5 15.5 44t54.5 25.5l270 70v-801h-137v622l-98 -24q-31 -8 -41 -8q-27 0 -45.5 21.5t-18.5 50z" />
<glyph unicode="&#xba;" horiz-adv-x="913" d="M90 453q0 43 37 65q20 12 70 12h520q106 0 106 -77q0 -80 -106 -80h-520q-107 0 -107 80zM109 881q0 139 102 238.5t246 99.5q145 0 246.5 -99.5t101.5 -242.5q0 -131 -102.5 -224.5t-245.5 -93.5q-145 0 -246.5 94.5t-101.5 227.5zM270 881q0 -63 56.5 -112.5t130 -49.5 t130 49t56.5 113q0 72 -55.5 125t-131 53t-131 -53t-55.5 -125z" />
<glyph unicode="&#xbb;" horiz-adv-x="1370" d="M147 102q0 29 33 56l309 286l-309 289q-33 31 -33 55.5t20.5 43t47.5 18.5q23 0 57 -27l506 -379l-506 -376q-35 -27 -59 -27q-27 0 -46.5 18t-19.5 43zM618 102q0 29 33 56l310 286l-310 289q-33 31 -33 55.5t20.5 43t47.5 18.5q23 0 57 -27l506 -379l-506 -376 q-35 -27 -59 -27q-27 0 -46.5 18t-19.5 43z" />
<glyph unicode="&#xbc;" horiz-adv-x="1552" d="M76 1167.5q0 28.5 15 44t54 25.5l271 70v-801h-137v622l-99 -24q-31 -8 -41 -8q-27 0 -45 21.5t-18 50zM438 172q0 20 21 53l532 924q33 53 72 53q27 0 48.5 -20.5t21.5 -44.5q0 -18 -23 -56l-532 -923q-31 -53 -70 -54q-27 0 -48.5 20.5t-21.5 47.5zM883 170v113 l299 495h172v-471q76 -4 76 -67q0 -66 -76 -70v-170h-137v170h-334zM1055 307h162v264z" />
<glyph unicode="&#xbd;" horiz-adv-x="1505" d="M76 1167.5q0 28.5 15 44t54 25.5l271 70v-801h-137v622l-99 -24q-31 -8 -41 -8q-27 0 -45 21.5t-18 50zM438 172q0 20 21 53l532 924q33 53 72 53q27 0 48.5 -20.5t21.5 -44.5q0 -18 -23 -56l-532 -923q-31 -53 -70 -54q-27 0 -48.5 20.5t-21.5 47.5zM856 0v139 q285 236 356.5 306.5t71.5 113.5t-38 73t-95 30q-76 0 -115 -50q-12 -14 -24 -53q-14 -41 -62 -41q-29 0 -49 19.5t-20 48.5q0 31 21.5 71.5t53.5 69.5q82 72 197 72t191.5 -70t76.5 -176q0 -78 -61.5 -150.5t-290.5 -265.5h361v-137h-574z" />
<glyph unicode="&#xbe;" horiz-adv-x="1579" d="M80 598q0 29 19.5 49.5t47.5 20.5q23 0 46 -17q41 -27 145 -26q188 0 188 106q0 70 -90 111q-29 12 -92 14q-70 6 -70 68q0 29 20.5 48t49.5 19h51q41 0 73 28t32 62q0 39 -35 62.5t-94 23.5q-88 0 -138 -55q-20 -20 -49 -20q-27 0 -47 20.5t-20 48.5q0 57 78.5 100.5 t181.5 43.5q113 0 186.5 -62.5t73.5 -159.5q0 -100 -98 -161q-4 -2 -7 -4q131 -68 132 -191q0 -113 -95 -182q-78 -57 -227 -58q-121 0 -191.5 30t-70.5 81zM465 172q0 20 20 53l535 924q29 53 70 53q27 0 48 -20.5t21 -44.5q0 -18 -20 -56l-535 -923q-31 -53 -69 -54 q-29 0 -49.5 20.5t-20.5 47.5zM909 170v113l299 495h172v-471q76 -4 76 -67q0 -66 -76 -70v-170h-137v170h-334zM1081 307h162v264z" />
<glyph unicode="&#xbf;" horiz-adv-x="1056" d="M109 -78q0 125 74.5 207t260.5 164q12 111 103 110q59 0 88 -49q14 -27 14 -86v-114q-197 -76 -266.5 -126.5t-69.5 -115.5q0 -76 61.5 -124t160.5 -48q113 0 215 49l204 -133q-147 -72 -233 -96.5t-184 -24.5q-190 0 -309 107.5t-119 279.5zM395 655.5q0 57.5 39 96.5 t96 39h35q57 0 97 -40t40 -95.5t-39.5 -95.5t-97.5 -40h-35q-57 0 -96 39t-39 96.5z" />
<glyph unicode="&#xc0;" horiz-adv-x="1218" d="M-90 0l485 1194h230l491 -1194h-237l-127 324h-488l-127 -324h-227zM4 1647q0 31 21.5 52t54.5 21q25 0 65 -32l273 -228q47 -39 47 -76q0 -29 -22.5 -51t-53.5 -22q-25 0 -65 32l-273 230q-47 37 -47 74zM346 528h322l-160 394z" />
<glyph unicode="&#xc1;" horiz-adv-x="1218" d="M-90 0l485 1194h230l491 -1194h-237l-127 324h-488l-127 -324h-227zM94 1384q0 37 47 76l273 228q41 33 65 32q33 0 54.5 -21.5t21.5 -53.5q0 -35 -47 -72l-272 -230q-41 -33 -66 -32q-31 0 -53.5 22t-22.5 51zM346 528h322l-160 394z" />
<glyph unicode="&#xc2;" horiz-adv-x="1218" d="M-90 0l485 1194h230l491 -1194h-237l-127 324h-488l-127 -324h-227zM2 1382q0 23 8 34t41 38l311 264l310 -264q12 -8 18 -14q31 -25 31 -58q0 -29 -21.5 -50t-48 -21t-59.5 26l-230 199l-231 -199q-33 -27 -57 -26q-29 0 -50.5 21t-21.5 50zM346 528h322l-160 394z" />
<glyph unicode="&#xc3;" horiz-adv-x="1218" d="M-90 0l485 1194h230l491 -1194h-237l-127 324h-488l-127 -324h-227zM-10 1432q0 45 55 112q80 92 170 92q59 0 184 -77q90 -53 119 -54q23 0 36 11.5t48 58.5q43 61 80 61q27 0 46.5 -17t19.5 -40q0 -41 -60 -117q-78 -98 -164 -98q-70 0 -202 88q-63 43 -103 43 q-27 0 -47 -17.5t-66 -76.5q-23 -31 -53 -31q-27 0 -45 18.5t-18 43.5zM346 528h322l-160 394z" />
<glyph unicode="&#xc4;" horiz-adv-x="1218" d="M-90 0l485 1194h230l491 -1194h-237l-127 324h-488l-127 -324h-227zM47 1511.5q0 51.5 36 87t87 35.5t87 -35.5t36 -89.5q0 -49 -36 -84.5t-87 -35.5t-87 35.5t-36 87zM346 528h322l-160 394zM473 1511.5q0 51.5 36 87t87 35.5t87 -35.5t36 -89.5q0 -49 -36 -84.5 t-87 -35.5t-87 35.5t-36 87z" />
<glyph unicode="&#xc5;" horiz-adv-x="1218" d="M-90 0l485 1194h230l491 -1194h-237l-127 324h-488l-127 -324h-227zM39 1538q0 100 74.5 173t177.5 73q104 0 178 -74t74 -176q0 -98 -75 -171t-177.5 -73t-177 74t-74.5 174zM147 1538q0 -55 43 -96t100.5 -41t100.5 41t43 94q0 57 -42 98t-101 41q-57 0 -100.5 -41 t-43.5 -96zM346 528h322l-160 394z" />
<glyph unicode="&#xc6;" horiz-adv-x="1325" d="M0 0l358 1194h809v-205h-462v-289h243v-202h-243v-293h505v-205h-710v324h-191l-94 -324h-215zM369 530h131v435z" />
<glyph unicode="&#xc7;" horiz-adv-x="1265" d="M78 510v135q0 246 160.5 412t396.5 166q86 0 146.5 -14.5t144.5 -55.5q88 -43 148.5 -127t60.5 -160q0 -41 -19 -71q-27 -43 -84 -43q-43 0 -71 28q-18 18 -29 80q-8 37 -27.5 60.5t-62.5 48.5q-88 49 -199 49q-152 0 -256 -105.5t-104 -267.5v-131q0 -154 109.5 -246 t291.5 -92q150 0 227 47q23 12 78 70q33 33 74 33t71.5 -31t30.5 -74q0 -41 -41 -88t-108 -86q-117 -63 -316 -76v-57q154 -31 154 -184q0 -86 -61.5 -142.5t-153.5 -56.5q-121 0 -213 61q-37 27 -37 68q0 29 21.5 50.5t50.5 21.5q16 0 59 -23q57 -35 117 -35q74 0 74 52 q0 70 -103 69q-16 0 -51 -4v191q-166 35 -266 106q-102 76 -157.5 186.5t-55.5 235.5z" />
<glyph unicode="&#xc8;" d="M55 1647q0 31 21.5 52t54.5 21q25 0 66 -32l272 -228q47 -39 47 -76q0 -29 -22.5 -51t-53.5 -22q-25 0 -65 32l-273 230q-47 37 -47 74zM143 0v1194h889v-205h-684v-289h377v-202h-377v-293h729v-205h-934z" />
<glyph unicode="&#xc9;" d="M143 0v1194h889v-205h-684v-289h377v-202h-377v-293h729v-205h-934zM160 1384q0 37 47 76l272 228q41 33 66 32q33 0 54.5 -21.5t21.5 -53.5q0 -35 -48 -72l-272 -230q-41 -33 -65 -32q-31 0 -53.5 22t-22.5 51z" />
<glyph unicode="&#xca;" d="M35 1382q0 23 8 34t41 38l311 264l310 -264q12 -8 18 -14q31 -25 31 -58q0 -29 -21.5 -50t-48.5 -21t-59 26l-230 199l-231 -199q-33 -27 -58 -26q-29 0 -50 21t-21 50zM143 0v1194h889v-205h-684v-289h377v-202h-377v-293h729v-205h-934z" />
<glyph unicode="&#xcb;" d="M84 1511.5q0 51.5 36 87t87 35.5t87 -35.5t36 -89.5q0 -49 -36 -84.5t-87 -35.5t-87 35.5t-36 87zM143 0v1194h889v-205h-684v-289h377v-202h-377v-293h729v-205h-934zM510 1511.5q0 51.5 36 87t87 35.5t87 -35.5t36 -89.5q0 -49 -36 -84.5t-87 -35.5t-87 35.5t-36 87z " />
<glyph unicode="&#xcc;" horiz-adv-x="622" d="M16 1647q0 31 21.5 52t54.5 21q25 0 66 -32l272 -228q47 -39 47 -76q0 -29 -22.5 -51t-53.5 -22q-25 0 -65 32l-273 230q-47 37 -47 74zM219 0v1196h205v-1196h-205z" />
<glyph unicode="&#xcd;" horiz-adv-x="659" d="M143 0v1196h205v-1196h-205zM143 1384q0 37 47 76l273 228q41 33 65 32q33 0 54.5 -21.5t21.5 -53.5q0 -35 -47 -72l-272 -230q-41 -33 -66 -32q-31 0 -53.5 22t-22.5 51z" />
<glyph unicode="&#xce;" horiz-adv-x="722" d="M2 1382q0 23 8 34t41 38l311 264l310 -264q12 -8 18 -14q31 -25 31 -58q0 -29 -21.5 -50t-48 -21t-59.5 26l-230 199l-231 -199q-33 -27 -57 -26q-29 0 -50.5 21t-21.5 50zM260 0v1196h205v-1196h-205z" />
<glyph unicode="&#xcf;" horiz-adv-x="772" d="M-78 1511.5q0 51.5 36 87t87 35.5t87 -35.5t36 -89.5q0 -49 -36 -84.5t-87 -35.5t-87 35.5t-36 87zM283 0v1196h204v-1196h-204zM348 1511.5q0 51.5 36 87t87 35.5t87 -35.5t36 -89.5q0 -49 -36 -84.5t-87 -35.5t-87 35.5t-36 87z" />
<glyph unicode="&#xd0;" horiz-adv-x="1230" d="M25 600q0 59 49 88q20 14 88 14h14v287q-125 0 -125 103q0 59 49 88q23 14 88 14h435q223 0 375.5 -164t152.5 -405v-97q0 -225 -143 -374q-145 -154 -402 -154h-420q-66 0 -92 20q-43 31 -43 82q0 49 33 76t92 27v293h-16q-66 0 -92 20q-43 31 -43 82zM381 205h227 q92 0 149.5 20.5t104.5 69.5q84 92 84 240v94q0 147 -92 256q-90 104 -248 104h-225v-287h151q66 0 93 -18q43 -31 43 -84q0 -102 -136 -102h-151v-293z" />
<glyph unicode="&#xd1;" horiz-adv-x="1224" d="M117 1432q0 45 55 112q80 92 170 92q59 0 184 -77q90 -53 119 -54q23 0 36 11.5t48 58.5q43 61 80 61q27 0 46 -17t19 -40q0 -41 -59 -117q-78 -98 -164 -98q-70 0 -202 88q-63 43 -103 43q-27 0 -47 -17.5t-66 -76.5q-23 -31 -53 -31q-27 0 -45 18.5t-18 43.5zM143 0 v1194h205l529 -803v803h204v-1194h-202l-531 807v-807h-205z" />
<glyph unicode="&#xd2;" horiz-adv-x="1298" d="M74 598q0 258 168 441.5t403 183.5q211 0 379 -158q193 -184 193 -477q0 -252 -169 -434.5t-403 -182.5q-238 0 -404.5 183.5t-166.5 443.5zM160 1647q0 31 21.5 52t54.5 21q25 0 65 -32l272 -228q47 -39 48 -76q0 -29 -23 -51t-53 -22q-25 0 -66 32l-272 230 q-47 37 -47 74zM279 598q0 -174 107.5 -298t258.5 -124q150 0 258.5 123t108.5 293q0 176 -107.5 301t-259.5 125q-150 0 -258 -124t-108 -296z" />
<glyph unicode="&#xd3;" horiz-adv-x="1298" d="M74 598q0 258 168 441.5t403 183.5q211 0 379 -158q193 -184 193 -477q0 -252 -169 -434.5t-403 -182.5q-238 0 -404.5 183.5t-166.5 443.5zM252 1384q0 37 47 76l272 228q41 33 66 32q33 0 54.5 -21.5t21.5 -53.5q0 -35 -47 -72l-273 -230q-41 -33 -65 -32 q-31 0 -53.5 22t-22.5 51zM279 598q0 -174 107.5 -298t258.5 -124q150 0 258.5 123t108.5 293q0 176 -107.5 301t-259.5 125q-150 0 -258 -124t-108 -296z" />
<glyph unicode="&#xd4;" horiz-adv-x="1298" d="M74 598q0 258 168 441.5t403 183.5q211 0 379 -158q193 -184 193 -477q0 -252 -169 -434.5t-403 -182.5q-238 0 -404.5 183.5t-166.5 443.5zM131 1382q0 23 8 34t41 38l312 264l309 -264q12 -8 18 -14q31 -25 31 -58q0 -29 -21.5 -50t-48 -21t-59.5 26l-229 199 l-232 -199q-33 -27 -57 -26q-29 0 -50.5 21t-21.5 50zM279 598q0 -174 107.5 -298t258.5 -124q150 0 258.5 123t108.5 293q0 176 -107.5 301t-259.5 125q-150 0 -258 -124t-108 -296z" />
<glyph unicode="&#xd5;" horiz-adv-x="1298" d="M74 598q0 258 168 441.5t403 183.5q211 0 379 -158q193 -184 193 -477q0 -252 -169 -434.5t-403 -182.5q-238 0 -404.5 183.5t-166.5 443.5zM170 1432q0 45 55 112q80 92 170 92q59 0 185 -77q90 -53 118 -54q23 0 36.5 11.5t47.5 58.5q43 61 80 61q27 0 46.5 -17 t19.5 -40q0 -41 -60 -117q-78 -98 -163 -98q-70 0 -203 88q-63 43 -103 43q-27 0 -47 -17.5t-65 -76.5q-23 -31 -54 -31q-27 0 -45 18.5t-18 43.5zM279 598q0 -174 107.5 -298t258.5 -124q150 0 258.5 123t108.5 293q0 176 -107.5 301t-259.5 125q-150 0 -258 -124 t-108 -296z" />
<glyph unicode="&#xd6;" horiz-adv-x="1298" d="M74 598q0 258 168 441.5t403 183.5q211 0 379 -158q193 -184 193 -477q0 -252 -169 -434.5t-403 -182.5q-238 0 -404.5 183.5t-166.5 443.5zM182 1511.5q0 51.5 36 87t87 35.5t87 -35.5t36 -89.5q0 -49 -36 -84.5t-87 -35.5t-87 35.5t-36 87zM279 598q0 -174 107.5 -298 t258.5 -124q150 0 258.5 123t108.5 293q0 176 -107.5 301t-259.5 125q-150 0 -258 -124t-108 -296zM608 1511.5q0 51.5 36 87t87 35.5t87 -35.5t36 -89.5q0 -49 -36 -84.5t-87 -35.5t-87 35.5t-36 87z" />
<glyph unicode="&#xd7;" horiz-adv-x="1212" d="M197 268q0 41 53 94l211 211l-211 211q-53 55 -53 96.5t30.5 72t71.5 30.5t96 -53l211 -211l211 211q55 53 96 53t72 -30.5t31 -71.5t-53 -97l-211 -211l211 -211q53 -53 53 -96q0 -41 -31 -71.5t-72 -30.5q-43 0 -96 53l-211 211l-211 -211q-55 -53 -96 -53t-71.5 30.5 t-30.5 73.5z" />
<glyph unicode="&#xd8;" horiz-adv-x="1263" d="M33 -47q0 33 43 86l117 149q-137 180 -138 410q0 258 168 441.5t406 183.5q158 0 305 -99l94 119q29 39 48.5 51.5t47.5 12.5q41 0 70 -29t29 -70q0 -33 -41 -86l-107 -133q125 -164 125 -393q0 -258 -168 -441.5t-403 -183.5q-152 0 -289 86l-111 -139q-31 -39 -49 -50 t-47 -11q-41 0 -70.5 28.5t-29.5 67.5zM260 598q0 -131 66 -242l481 609q-90 53 -180 53q-150 0 -258.5 -124t-108.5 -296zM467 219q76 -43 162 -43q150 0 258 124t108 294q0 125 -55 225z" />
<glyph unicode="&#xd9;" horiz-adv-x="1224" d="M127 1647q0 31 21.5 52t54.5 21q25 0 65 -32l273 -228q47 -39 47 -76q0 -29 -22.5 -51t-53.5 -22q-25 0 -66 32l-272 230q-47 37 -47 74zM143 420v774h205v-793q0 -94 78 -159.5t186.5 -65.5t186.5 65.5t78 159.5v793h204v-774q0 -219 -172 -348q-131 -100 -297 -100.5 t-297 100.5q-172 133 -172 348z" />
<glyph unicode="&#xda;" horiz-adv-x="1224" d="M143 420v774h205v-793q0 -94 78 -159.5t186.5 -65.5t186.5 65.5t78 159.5v793h204v-774q0 -219 -172 -348q-131 -100 -297 -100.5t-297 100.5q-172 133 -172 348zM219 1384q0 37 47 76l273 228q41 33 65 32q33 0 54.5 -21.5t21.5 -53.5q0 -35 -47 -72l-273 -230 q-41 -33 -65 -32q-31 0 -53.5 22t-22.5 51z" />
<glyph unicode="&#xdb;" horiz-adv-x="1224" d="M98 1382q0 23 8.5 34t40.5 38l312 264l309 -264q12 -8 18 -14q31 -25 31 -58q0 -29 -21.5 -50t-48 -21t-59.5 26l-229 199l-232 -199q-33 -27 -57 -26q-29 0 -50.5 21t-21.5 50zM143 420v774h205v-793q0 -94 78 -159.5t186.5 -65.5t186.5 65.5t78 159.5v793h204v-774 q0 -219 -172 -348q-131 -100 -297 -100.5t-297 100.5q-172 133 -172 348z" />
<glyph unicode="&#xdc;" horiz-adv-x="1224" d="M143 420v774h205v-793q0 -94 78 -159.5t186.5 -65.5t186.5 65.5t78 159.5v793h204v-774q0 -219 -172 -348q-131 -100 -297 -100.5t-297 100.5q-172 133 -172 348zM276 1511.5q0 51.5 36 87t87.5 35.5t87 -35.5t35.5 -89.5q0 -49 -35.5 -84.5t-87 -35.5t-87.5 35.5t-36 87 zM702 1511.5q0 51.5 36 87t87.5 35.5t87 -35.5t35.5 -89.5q0 -49 -35.5 -84.5t-87 -35.5t-87.5 35.5t-36 87z" />
<glyph unicode="&#xdd;" horiz-adv-x="1134" d="M-131 1194h246l338 -481l333 481h246l-477 -692v-502h-205v502zM66 1384q0 37 47 76l272 228q41 33 66 32q33 0 54 -21.5t21 -53.5q0 -35 -47 -72l-272 -230q-41 -33 -66 -32q-31 0 -53 22t-22 51z" />
<glyph unicode="&#xde;" horiz-adv-x="1091" d="M143 0v1194h205v-287h201q158 0 247 -27.5t152 -97.5q72 -78 72 -184q0 -109 -72 -186q-63 -70 -152 -97.5t-247 -27.5h-201v-287h-205zM348 492h268q102 0 148.5 24.5t46.5 79.5q0 57 -46 81.5t-149 24.5h-268v-210z" />
<glyph unicode="&#xdf;" horiz-adv-x="1087" d="M131 0v979q0 131 99.5 214t255 83t260 -98.5t104.5 -243.5q0 -102 -72 -186q242 -141 242 -410q0 -166 -87 -268.5t-231 -102.5q-106 0 -174.5 65.5t-68.5 166.5q0 57 27.5 88.5t74.5 31.5t72 -28q14 -16 24 -60q12 -59 62 -59q43 0 69.5 45t26.5 119q0 115 -84 194 q-76 74 -225 91q-113 12 -113 102t109 100q66 8 92 27q51 33 51 90t-45 94t-115 37q-150 0 -149 -127v-944h-205z" />
<glyph unicode="&#xe0;" horiz-adv-x="1105" d="M53 244q0 100 80 190q139 156 416 156q92 0 213 -21v47q0 100 -191 101q-104 0 -237 -35q-51 -12 -82 -12q-43 0 -71.5 29.5t-28.5 74.5q0 66 61 86q174 61 352 62q188 0 296 -80t108 -224v-618h-207v47q-154 -80 -340 -80q-152 0 -260.5 81t-108.5 196zM63 1352 q0 31 21.5 52t54.5 21q25 0 66 -32l272 -228q47 -39 47 -75q0 -29 -22.5 -51.5t-52.5 -22.5q-25 0 -66 33l-272 229q-48 37 -48 74zM270 252q0 -35 45 -57.5t111 -22.5q168 0 338 104v103q-129 23 -227 22q-104 0 -185.5 -45t-81.5 -104z" />
<glyph unicode="&#xe1;" horiz-adv-x="1105" d="M53 244q0 100 80 190q139 156 416 156q92 0 213 -21v47q0 100 -191 101q-104 0 -237 -35q-51 -12 -82 -12q-43 0 -71.5 29.5t-28.5 74.5q0 66 61 86q174 61 352 62q188 0 296 -80t108 -224v-618h-207v47q-154 -80 -340 -80q-152 0 -260.5 81t-108.5 196zM180 1090 q0 37 47 75l273 228q41 33 65 32q33 0 54.5 -21.5t21.5 -53.5q0 -35 -47 -72l-272 -229q-41 -33 -66 -33q-31 0 -53.5 22.5t-22.5 51.5zM270 252q0 -35 45 -57.5t111 -22.5q168 0 338 104v103q-129 23 -227 22q-104 0 -185.5 -45t-81.5 -104z" />
<glyph unicode="&#xe2;" horiz-adv-x="1105" d="M47 1090q0 23 8 34t41 37l312 264l309 -264q12 -8 18 -14q31 -25 31 -57q0 -29 -21.5 -50.5t-48 -21.5t-59.5 26l-229 199l-232 -199q-33 -27 -57 -26q-29 0 -50.5 21.5t-21.5 50.5zM53 244q0 100 80 190q139 156 416 156q92 0 213 -21v47q0 100 -191 101 q-104 0 -237 -35q-51 -12 -82 -12q-43 0 -71.5 29.5t-28.5 74.5q0 66 61 86q174 61 352 62q188 0 296 -80t108 -224v-618h-207v47q-154 -80 -340 -80q-152 0 -260.5 81t-108.5 196zM270 252q0 -35 45 -57.5t111 -22.5q168 0 338 104v103q-129 23 -227 22q-104 0 -185.5 -45 t-81.5 -104z" />
<glyph unicode="&#xe3;" horiz-adv-x="1105" d="M53 244q0 100 80 190q139 156 416 156q92 0 213 -21v47q0 100 -191 101q-104 0 -237 -35q-51 -12 -82 -12q-43 0 -71.5 29.5t-28.5 74.5q0 66 61 86q174 61 352 62q188 0 296 -80t108 -224v-618h-207v47q-154 -80 -340 -80q-152 0 -260.5 81t-108.5 196zM78 1139 q0 45 55 112q80 92 170 92q59 0 184 -77q90 -53 119 -54q23 0 36 11.5t48 58.5q43 61 80 61q27 0 46.5 -17t19.5 -40q0 -41 -60 -117q-78 -98 -164 -98q-70 0 -202 88q-63 43 -103 43q-27 0 -47 -17.5t-65 -76.5q-23 -31 -54 -31q-27 0 -45 18.5t-18 43.5zM270 252 q0 -35 45 -57.5t111 -22.5q168 0 338 104v103q-129 23 -227 22q-104 0 -185.5 -45t-81.5 -104z" />
<glyph unicode="&#xe4;" horiz-adv-x="1105" d="M53 244q0 100 80 190q139 156 416 156q92 0 213 -21v47q0 100 -191 101q-104 0 -237 -35q-51 -12 -82 -12q-43 0 -71.5 29.5t-28.5 74.5q0 66 61 86q174 61 352 62q188 0 296 -80t108 -224v-618h-207v47q-154 -80 -340 -80q-152 0 -260.5 81t-108.5 196zM96 1216.5 q0 51.5 36 87t87 35.5t87 -35.5t36 -89.5q0 -49 -36 -84.5t-87 -35.5t-87 35.5t-36 87zM270 252q0 -35 45 -57.5t111 -22.5q168 0 338 104v103q-129 23 -227 22q-104 0 -185.5 -45t-81.5 -104zM522 1216.5q0 51.5 36 87t87 35.5t87 -35.5t36 -89.5q0 -49 -36 -84.5 t-87 -35.5t-87 35.5t-36 87z" />
<glyph unicode="&#xe5;" horiz-adv-x="1105" d="M53 244q0 100 80 190q139 156 416 156q92 0 213 -21v47q0 100 -191 101q-104 0 -237 -35q-51 -12 -82 -12q-43 0 -71.5 29.5t-28.5 74.5q0 66 61 86q174 61 352 62q188 0 296 -80t108 -224v-618h-207v47q-154 -80 -340 -80q-152 0 -260.5 81t-108.5 196zM119 1243 q0 100 74.5 173t177.5 73q104 0 178 -74t74 -176q0 -98 -75 -171t-177.5 -73t-177 74t-74.5 174zM227 1243q0 -55 43 -96t100.5 -41t100.5 41t43 94q0 57 -42 98t-101 41q-57 0 -100.5 -41t-43.5 -96zM270 252q0 -35 45 -57.5t111 -22.5q168 0 338 104v103q-129 23 -227 22 q-104 0 -185.5 -45t-81.5 -104z" />
<glyph unicode="&#xe6;" horiz-adv-x="1421" d="M68 297q0 68 27.5 114t90.5 85q61 39 147.5 64.5t160.5 25.5q35 0 122 -11v41q0 43 -27.5 72t-70.5 29q-39 0 -184 -43q-25 -8 -47 -8q-41 0 -70 30.5t-29 73.5q0 74 84 102q152 49 246 50q135 0 238 -115q106 115 229 115q152 0 262 -142q98 -127 99 -334v-94h-515 q27 -96 65 -138t101 -42q61 0 140 35q84 35 116 35q41 0 68 -31t27 -76q0 -57 -52 -90q-53 -33 -138 -55.5t-159 -22.5q-109 0 -204 66q-29 -35 -76 -35q-43 0 -74 35q-104 -66 -225 -66q-160 0 -256 90t-96 240zM274 291q0 -53 39 -86t105 -33q88 0 198 94v121 q-63 16 -114 16q-129 0 -201 -53q-27 -22 -27 -59zM836 528h286q-12 80 -30 113q-39 76 -113 76q-35 0 -67.5 -24.5t-49.5 -63.5q-14 -33 -26 -101z" />
<glyph unicode="&#xe7;" horiz-adv-x="1218" d="M68 424q0 219 146 358.5t378 139.5q164 0 295 -62q72 -35 124 -108.5t52 -143.5q0 -41 -19 -71q-27 -43 -83 -43q-45 0 -74 28q-18 14 -31 70q-10 49 -47 74q-84 51 -217 51q-152 0 -238 -88q-82 -82 -82 -205q0 -252 361 -252q135 0 215 27q39 12 102 63q27 25 62 25 q41 0 71.5 -31t30.5 -74q0 -82 -131 -149q-135 -66 -365 -66q-283 0 -425 142q-125 125 -125 315zM346 -340q0 29 21.5 50.5t50.5 21.5q18 0 59 -23q63 -35 117 -35q74 0 74 52q0 70 -115 69q-2 0 -39 -4v180q-43 5 -42 24q0 13 20 34q47 47 104 57h12q39 -2 80 -49 q21 -25 21 -41q0 -20 -31 -27q-10 -2 -21 -2v-53q154 -31 154 -186q0 -84 -61.5 -140.5t-153.5 -56.5q-121 0 -213 61q-37 27 -37 68z" />
<glyph unicode="&#xe8;" horiz-adv-x="1202" d="M53 442q0 203 152.5 341.5t376.5 138.5q229 0 379.5 -139.5t150.5 -350.5v-80h-836q70 -180 336 -180q115 0 334 57q41 10 68 11q41 0 69.5 -30t28.5 -73q0 -59 -72 -92q-70 -31 -204 -54.5t-242 -23.5q-238 0 -389.5 133t-151.5 342zM106 1352q0 31 22 52t54 21 q25 0 66 -32l272 -228q47 -39 47 -75q0 -29 -22.5 -51.5t-52.5 -22.5q-25 0 -66 33l-272 229q-48 37 -48 74zM283 532h602q-25 84 -107 134.5t-194.5 50.5t-195 -51.5t-105.5 -133.5z" />
<glyph unicode="&#xe9;" horiz-adv-x="1202" d="M53 442q0 203 152.5 341.5t376.5 138.5q229 0 379.5 -139.5t150.5 -350.5v-80h-836q70 -180 336 -180q115 0 334 57q41 10 68 11q41 0 69.5 -30t28.5 -73q0 -59 -72 -92q-70 -31 -204 -54.5t-242 -23.5q-238 0 -389.5 133t-151.5 342zM223 1090q0 37 47 75l273 228 q41 33 65 32q33 0 54.5 -21.5t21.5 -53.5q0 -35 -47 -72l-272 -229q-41 -33 -66 -33q-31 0 -53.5 22.5t-22.5 51.5zM283 532h602q-25 84 -107 134.5t-194.5 50.5t-195 -51.5t-105.5 -133.5z" />
<glyph unicode="&#xea;" horiz-adv-x="1202" d="M53 442q0 203 152.5 341.5t376.5 138.5q229 0 379.5 -139.5t150.5 -350.5v-80h-836q70 -180 336 -180q115 0 334 57q41 10 68 11q41 0 69.5 -30t28.5 -73q0 -59 -72 -92q-70 -31 -204 -54.5t-242 -23.5q-238 0 -389.5 133t-151.5 342zM94 1090q0 23 8.5 34t40.5 37 l312 264l309 -264q12 -8 18 -14q31 -25 31 -57q0 -29 -21.5 -50.5t-48 -21.5t-59.5 26l-229 199l-232 -199q-33 -27 -57 -26q-29 0 -50.5 21.5t-21.5 50.5zM283 532h602q-25 84 -107 134.5t-194.5 50.5t-195 -51.5t-105.5 -133.5z" />
<glyph unicode="&#xeb;" horiz-adv-x="1202" d="M53 442q0 203 152.5 341.5t376.5 138.5q229 0 379.5 -139.5t150.5 -350.5v-80h-836q70 -180 336 -180q115 0 334 57q41 10 68 11q41 0 69.5 -30t28.5 -73q0 -59 -72 -92q-70 -31 -204 -54.5t-242 -23.5q-238 0 -389.5 133t-151.5 342zM145 1216.5q0 51.5 36 87t87 35.5 t87 -35.5t36 -89.5q0 -49 -36 -84.5t-87 -35.5t-87 35.5t-36 87zM283 532h602q-25 84 -107 134.5t-194.5 50.5t-195 -51.5t-105.5 -133.5zM571 1216.5q0 51.5 36 87t87 35.5t87 -35.5t36 -89.5q0 -49 -36 -84.5t-87 -35.5t-87 35.5t-36 87z" />
<glyph unicode="&#xec;" horiz-adv-x="626" d="M-150 1352q0 31 22 52t54 21q25 0 66 -32l272 -228q47 -39 47 -75q0 -29 -22.5 -51.5t-52.5 -22.5q-25 0 -66 33l-272 229q-48 37 -48 74zM-117 793q0 59 49 88q23 14 88 14h365v-895h-205v690h-160q-72 0 -94 21q-43 31 -43 82z" />
<glyph unicode="&#xed;" horiz-adv-x="733" d="M47 793q0 59 49 88q23 14 88 14h365v-895h-205v690h-160q-72 0 -94 21q-43 31 -43 82zM111 1090q0 37 47 75l272 228q41 33 66 32q33 0 54 -21.5t21 -53.5q0 -35 -47 -72l-272 -229q-41 -33 -66 -33q-31 0 -53 22.5t-22 51.5z" />
<glyph unicode="&#xee;" horiz-adv-x="686" d="M-168 1090q0 23 8 34t41 37l312 264l309 -264q12 -8 18 -14q31 -25 31 -57q0 -29 -21.5 -50.5t-48 -21.5t-59.5 26l-229 199l-232 -199q-33 -27 -57 -26q-29 0 -50.5 21.5t-21.5 50.5zM-104 793q0 59 49 88q23 14 88 14h364v-895h-204v690h-160q-72 0 -94 21 q-43 31 -43 82z" />
<glyph unicode="&#xef;" horiz-adv-x="753" d="M-72 1216.5q0 51.5 36 87t87 35.5t87 -35.5t36 -89.5q0 -49 -36 -84.5t-87 -35.5t-87 35.5t-36 87zM-57 793q0 59 49 88q23 14 88 14h364v-895h-204v690h-160q-72 0 -94 21q-43 31 -43 82zM354 1216.5q0 51.5 36 87t87 35.5t87 -35.5t36 -89.5q0 -49 -36 -84.5t-87 -35.5 t-87 35.5t-36 87z" />
<glyph unicode="&#xf0;" d="M68 432q0 197 146 336t353 139q78 0 138.5 -19.5t156.5 -76.5q-129 162 -280 250l-189 -103q-43 -25 -65 -24q-27 0 -44.5 21.5t-17.5 54.5q0 20 8.5 30.5t40.5 28.5l103 59q-37 16 -43 19q-20 8 -37 16l-33 11q-53 18 -53 63q0 29 24.5 51.5t57.5 22.5q70 0 203 -64 l57 -26l158 84q37 18 67 18q27 0 45.5 -19.5t18.5 -48.5q0 -39 -47 -61l-93 -51q199 -137 290 -298t91 -368q0 -236 -141 -364q-162 -145 -387 -146q-219 0 -373.5 136t-154.5 329zM276 434q0 -109 93.5 -185.5t226.5 -76.5q131 0 225 76t94 182q0 121 -92 204t-227 83 q-133 0 -226.5 -82t-93.5 -201z" />
<glyph unicode="&#xf1;" horiz-adv-x="1101" d="M35 1139q0 45 55 112q80 92 170 92q59 0 184 -77q90 -53 119 -54q23 0 36 11.5t48 58.5q43 61 80 61q27 0 46.5 -17t19.5 -40q0 -41 -60 -117q-78 -98 -164 -98q-70 0 -202 88q-63 43 -103 43q-27 0 -47 -17.5t-65 -76.5q-23 -31 -54 -31q-27 0 -45 18.5t-18 43.5zM119 0 v895h203v-98q74 70 135 97.5t145 27.5q139 0 244 -76q121 -90 121 -268v-578h-205v569q0 147 -184 148q-72 0 -128.5 -31t-127.5 -108v-578h-203z" />
<glyph unicode="&#xf2;" d="M53 444q0 203 153.5 340.5t381.5 137.5q217 0 369.5 -139.5t152.5 -338.5q0 -201 -153.5 -339t-375 -138t-375 138t-153.5 339zM86 1352q0 31 21.5 52t54.5 21q25 0 65 -32l273 -228q47 -39 47 -75q0 -29 -22.5 -51.5t-53.5 -22.5q-25 0 -65 33l-273 229q-47 37 -47 74z M258 444q0 -115 93 -193.5t230.5 -78.5t230.5 79t93 193.5t-93 193.5t-226 79q-139 0 -233.5 -78t-94.5 -195z" />
<glyph unicode="&#xf3;" d="M53 444q0 203 153.5 340.5t381.5 137.5q217 0 369.5 -139.5t152.5 -338.5q0 -201 -153.5 -339t-375 -138t-375 138t-153.5 339zM203 1090q0 37 47 75l272 228q41 33 66 32q33 0 54.5 -21.5t21.5 -53.5q0 -35 -48 -72l-272 -229q-41 -33 -65 -33q-31 0 -53.5 22.5 t-22.5 51.5zM258 444q0 -115 93 -193.5t230.5 -78.5t230.5 79t93 193.5t-93 193.5t-226 79q-139 0 -233.5 -78t-94.5 -195z" />
<glyph unicode="&#xf4;" d="M53 444q0 203 153.5 340.5t381.5 137.5q217 0 369.5 -139.5t152.5 -338.5q0 -201 -153.5 -339t-375 -138t-375 138t-153.5 339zM70 1090q0 23 8 34t41 37l311 264l309 -264q12 -8 19 -14q31 -25 30 -57q0 -29 -21.5 -50.5t-48 -21.5t-59.5 26l-229 199l-231 -199 q-33 -27 -58 -26q-29 0 -50 21.5t-21 50.5zM258 444q0 -115 93 -193.5t230.5 -78.5t230.5 79t93 193.5t-93 193.5t-226 79q-139 0 -233.5 -78t-94.5 -195z" />
<glyph unicode="&#xf5;" d="M53 444q0 203 153.5 340.5t381.5 137.5q217 0 369.5 -139.5t152.5 -338.5q0 -201 -153.5 -339t-375 -138t-375 138t-153.5 339zM109 1139q0 45 55 112q80 92 170 92q59 0 184 -77q90 -53 119 -54q23 0 36 11.5t48 58.5q43 61 80 61q27 0 46 -17t19 -40q0 -41 -59 -117 q-78 -98 -164 -98q-70 0 -203 88q-63 43 -102 43q-27 0 -47.5 -17.5t-65.5 -76.5q-23 -31 -53 -31q-27 0 -45 18.5t-18 43.5zM258 444q0 -115 93 -193.5t230.5 -78.5t230.5 79t93 193.5t-93 193.5t-226 79q-139 0 -233.5 -78t-94.5 -195z" />
<glyph unicode="&#xf6;" d="M53 444q0 203 153.5 340.5t381.5 137.5q217 0 369.5 -139.5t152.5 -338.5q0 -201 -153.5 -339t-375 -138t-375 138t-153.5 339zM119 1216.5q0 51.5 35.5 87t87 35.5t87.5 -35.5t36 -89.5q0 -49 -36 -84.5t-87.5 -35.5t-87 35.5t-35.5 87zM258 444q0 -115 93 -193.5 t230.5 -78.5t230.5 79t93 193.5t-93 193.5t-226 79q-139 0 -233.5 -78t-94.5 -195zM545 1216.5q0 51.5 35.5 87t87 35.5t87.5 -35.5t36 -89.5q0 -49 -36 -84.5t-87.5 -35.5t-87 35.5t-35.5 87z" />
<glyph unicode="&#xf7;" horiz-adv-x="1388" d="M166 573q0 57 49 89q20 14 86 14h786q66 0 93 -19q43 -33 43 -84q0 -59 -49 -88q-23 -14 -87 -14h-786q-70 0 -92 21q-43 30 -43 81zM541 192.5q0 59.5 42 97.5t111.5 38t111.5 -37t42 -101q0 -59 -42 -96t-111.5 -37t-111.5 38t-42 97.5zM541 954.5q0 59.5 42 97.5 t111.5 38t111.5 -37t42 -101q0 -59 -42 -96t-111.5 -37t-111.5 38t-42 97.5z" />
<glyph unicode="&#xf8;" horiz-adv-x="1251" d="M59 -45q0 39 52 90l98 102q-111 137 -111 297q0 199 152.5 338.5t372.5 139.5q154 0 274 -64l98 100q53 53 94 53.5t69 -28.5t28 -68q0 -43 -51 -92l-86 -88q106 -135 106 -291q0 -201 -153.5 -339t-374.5 -138q-135 0 -262 62l-115 -119q-53 -53 -92 -53q-41 0 -70 28.5 t-29 69.5zM303 444q0 -78 51 -147l389 403q-70 16 -116 17q-137 0 -230.5 -79t-93.5 -194zM518 186q51 -14 107 -14q137 0 231 79t94 193q0 70 -45 142z" />
<glyph unicode="&#xf9;" horiz-adv-x="1103" d="M23 1352q0 31 21.5 52t53.5 21q25 0 66 -32l272 -228q47 -39 47 -75q0 -29 -22.5 -51.5t-52.5 -22.5q-25 0 -66 33l-272 229q-47 37 -47 74zM102 319v576h205v-569q0 -147 180 -148q78 0 129.5 27.5t131.5 111.5v578h204v-895h-204v98q-76 -72 -136.5 -98.5t-144.5 -26.5 q-143 0 -244 76q-121 90 -121 270z" />
<glyph unicode="&#xfa;" horiz-adv-x="1103" d="M102 319v576h205v-569q0 -147 180 -148q78 0 129.5 27.5t131.5 111.5v578h204v-895h-204v98q-76 -72 -136.5 -98.5t-144.5 -26.5q-143 0 -244 76q-121 90 -121 270zM119 1090q0 37 47 75l272 228q41 33 66 32q33 0 54.5 -21.5t21.5 -53.5q0 -35 -48 -72l-272 -229 q-41 -33 -65 -33q-31 0 -53.5 22.5t-22.5 51.5z" />
<glyph unicode="&#xfb;" horiz-adv-x="1103" d="M0 1090q0 23 8 34t41 37l311 264l310 -264q12 -8 18 -14q31 -25 31 -57q0 -29 -21.5 -50.5t-48 -21.5t-59.5 26l-230 199l-231 -199q-33 -27 -57 -26q-29 0 -50.5 21.5t-21.5 50.5zM102 319v576h205v-569q0 -147 180 -148q78 0 129.5 27.5t131.5 111.5v578h204v-895h-204 v98q-76 -72 -136.5 -98.5t-144.5 -26.5q-143 0 -244 76q-121 90 -121 270z" />
<glyph unicode="&#xfc;" horiz-adv-x="1103" d="M49 1216.5q0 51.5 36 87t87 35.5t87 -35.5t36 -89.5q0 -49 -36 -84.5t-87 -35.5t-87 35.5t-36 87zM102 319v576h205v-569q0 -147 180 -148q78 0 129.5 27.5t131.5 111.5v578h204v-895h-204v98q-76 -72 -136.5 -98.5t-144.5 -26.5q-143 0 -244 76q-121 90 -121 270z M475 1216.5q0 51.5 36 87t87 35.5t87 -35.5t36 -89.5q0 -49 -36 -84.5t-87 -35.5t-87 35.5t-36 87z" />
<glyph unicode="&#xfd;" horiz-adv-x="1193" d="M-66 895h236l338 -662l356 662h219l-684 -1315h-223l217 426zM178 1090q0 37 47 75l273 228q41 33 65 32q33 0 54.5 -21.5t21.5 -53.5q0 -35 -47 -72l-273 -229q-41 -33 -65 -33q-31 0 -53.5 22.5t-22.5 51.5z" />
<glyph unicode="&#xfe;" horiz-adv-x="1218" d="M131 -420v1698h205v-475q76 66 147.5 92.5t167.5 26.5q213 0 355.5 -132.5t142.5 -330.5q0 -188 -141.5 -313.5t-354.5 -125.5q-168 0 -317 115v-555h-205zM336 473q0 -109 85 -178.5t220 -69.5q133 0 218 70t85 176q0 51 -26.5 102.5t-71.5 83.5q-78 59 -205 60 q-129 0 -207 -60q-45 -33 -71.5 -84t-26.5 -100z" />
<glyph unicode="&#xff;" horiz-adv-x="1193" d="M-66 895h236l338 -662l356 662h219l-684 -1315h-223l217 426zM49 1216.5q0 51.5 36 87t87 35.5t87 -35.5t36 -89.5q0 -49 -36 -84.5t-87 -35.5t-87 35.5t-36 87zM475 1216.5q0 51.5 36 87t87 35.5t87 -35.5t36 -89.5q0 -49 -36 -84.5t-87 -35.5t-87 35.5t-36 87z" />
<glyph unicode="&#x152;" horiz-adv-x="1486" d="M78 598q0 260 160.5 428t410.5 168h684l-4 -205h-461v-289h242v-202h-242v-293h504v-205h-723q-250 0 -410.5 169t-160.5 429zM283 596q0 -102 49 -198.5t127 -143.5q82 -49 205 -49v784q-145 -2 -228 -63q-70 -51 -111.5 -142.5t-41.5 -187.5z" />
<glyph unicode="&#x153;" horiz-adv-x="1421" d="M68 434q0 205 107.5 346.5t262.5 141.5q158 0 273 -164q109 164 272 164q139 0 248 -125q113 -125 112 -355v-92h-516q41 -178 172 -178q66 0 197 57q27 10 49 11q41 0 71 -31t30 -76q0 -66 -76 -104q-51 -25 -136 -43.5t-147 -18.5q-170 0 -276 152q-111 -152 -271 -152 q-156 0 -264 136t-108 331zM272 442q0 -111 50.5 -190.5t119.5 -79.5q72 0 122 79t50 189q0 115 -50 195t-122 80q-70 0 -120 -80t-50 -193zM834 526h288q-12 63 -32 109q-41 80 -111 80q-76 0 -115 -88q-16 -38 -30 -101z" />
<glyph unicode="&#x178;" horiz-adv-x="1134" d="M-14 1194h245l338 -481l334 481h246l-477 -692v-502h-205v502zM233 1511.5q0 51.5 36 87t87.5 35.5t87 -35.5t35.5 -89.5q0 -49 -35.5 -84.5t-87 -35.5t-87.5 35.5t-36 87zM659 1511.5q0 51.5 36 87t87.5 35.5t87 -35.5t35.5 -89.5q0 -49 -35.5 -84.5t-87 -35.5 t-87.5 35.5t-36 87z" />
<glyph unicode="&#x2c6;" horiz-adv-x="923" d="M102 1090q0 23 8.5 34t41.5 37l311 264l309 -264q12 -8 19 -14q31 -25 30 -57q0 -29 -21.5 -50.5t-48 -21.5t-59.5 26l-229 199l-232 -199q-33 -27 -57 -26q-29 0 -50.5 21.5t-21.5 50.5z" />
<glyph unicode="&#x2dc;" horiz-adv-x="1007" d="M125 1139q0 45 55 112q80 92 170 92q59 0 185 -77q90 -53 118 -54q23 0 36 11.5t48 58.5q43 61 80 61q27 0 46.5 -17t19.5 -40q0 -41 -60 -117q-78 -98 -164 -98q-70 0 -202 88q-63 43 -103 43q-27 0 -47 -17.5t-65 -76.5q-23 -31 -54 -31q-27 0 -45 18.5t-18 43.5z" />
<glyph unicode="&#x2013;" horiz-adv-x="1224" d="M84 571q0 55 49 88q20 14 86 15h787q68 0 94 -19q41 -31 41 -84q0 -59 -49 -88q-23 -14 -86 -14h-787q-68 0 -92 18q-43 33 -43 84z" />
<glyph unicode="&#x2014;" horiz-adv-x="1515" d="M84 571q0 59 49 88q20 14 86 15h1077q68 0 93 -19q43 -31 43 -84q0 -59 -50 -88q-23 -14 -86 -14h-1077q-68 0 -92 18q-43 33 -43 84z" />
<glyph unicode="&#x2018;" horiz-adv-x="675" d="M162 1233h270l141 -424q6 -31 7 -39q0 -23 -19.5 -40t-44.5 -17q-35 0 -65 49z" />
<glyph unicode="&#x2019;" horiz-adv-x="675" d="M98 735q0 16 6 39l142 502h270l-289 -549q-25 -49 -65 -49q-27 0 -45.5 17t-18.5 40z" />
<glyph unicode="&#x201a;" horiz-adv-x="675" d="M113 -266q0 16 6 39l141 501h270l-288 -548q-25 -49 -66 -50q-27 0 -45 17.5t-18 40.5z" />
<glyph unicode="&#x201c;" horiz-adv-x="1134" d="M162 1233h270l141 -424q6 -31 7 -39q0 -23 -19.5 -40t-44.5 -17q-35 0 -65 49zM571 1233h271l141 -424q6 -31 6 -39q0 -23 -19.5 -40t-43.5 -17q-35 0 -66 49z" />
<glyph unicode="&#x201d;" horiz-adv-x="1132" d="M143 770q0 20 7 39l141 424h270l-289 -471q-31 -49 -65 -49q-25 0 -44.5 17t-19.5 40zM553 770q0 20 6 39l141 424h271l-289 -471q-31 -49 -66 -49q-25 0 -44 17t-19 40z" />
<glyph unicode="&#x201e;" horiz-adv-x="1134" d="M113 -188q0 20 6 38l141 424h270l-288 -471q-31 -49 -66 -49q-25 0 -44 17.5t-19 40.5zM522 -188q0 20 6 38l142 424h270l-289 -471q-31 -49 -65 -49q-25 0 -44.5 17.5t-19.5 40.5z" />
<glyph unicode="&#x2022;" horiz-adv-x="1067" d="M227 623q0 127 90.5 216t214.5 89q129 0 218.5 -89t89.5 -221q0 -125 -90.5 -214t-217 -89t-216 90.5t-89.5 217.5z" />
<glyph unicode="&#x2026;" horiz-adv-x="1376" d="M125 104.5q0 55.5 40 95.5t95 40h37q57 0 96 -39t39 -96.5t-39 -96.5t-96 -39h-37q-55 0 -95 40t-40 95.5zM535 104.5q0 55.5 39.5 95.5t95.5 40h37q57 0 96 -39t39 -96.5t-39 -96.5t-96 -39h-37q-55 0 -95 40t-40 95.5zM944 104.5q0 55.5 40 95.5t95 40h37q57 0 96 -39 t39 -96.5t-38.5 -96.5t-96.5 -39h-37q-55 0 -95 40t-40 95.5z" />
<glyph unicode="&#x2039;" horiz-adv-x="901" d="M121 446l508 377q35 27 59 27q27 0 46.5 -18.5t19.5 -43.5q0 -29 -33 -55l-309 -287l309 -288q33 -31 33 -55.5t-20.5 -43t-47.5 -18.5q-23 0 -57 27z" />
<glyph unicode="&#x203a;" horiz-adv-x="899" d="M147 102q0 29 33 56l309 286l-309 289q-33 31 -33 55.5t20.5 43t47.5 18.5q23 0 57 -27l506 -379l-506 -376q-35 -27 -59 -27q-27 0 -46.5 18t-19.5 43z" />
<glyph unicode="&#x20ac;" horiz-adv-x="1169" d="M-29 477.5q0 57.5 56 57.5h57v86h-57q-55 0 -55.5 57t55.5 57h63q25 213 165 350.5t333 137.5h4q135 0 258 -70q80 -45 132 -131t52 -162q0 -39 -14 -65q-23 -43 -76 -43q-76 0 -92 108q-8 63 -80 109q-78 49 -176 49q-106 0 -181 -76t-98 -207h400q57 0 57 -57t-57 -57 h-408v-86h353q55 0 55 -57.5t-55 -57.5h-343q25 -115 109 -179.5t209 -64.5t199 47q20 12 71 70q31 33 64 33q39 0 66.5 -31t27.5 -72q0 -74 -98 -149q-129 -102 -338 -103q-211 0 -357.5 122t-181.5 327h-63q-56 0 -56 57.5z" />
<glyph unicode="&#x2122;" horiz-adv-x="1822" d="M227 1044v150h594v-150h-223v-593h-149v593h-222zM913 451v743h181l108 -264l107 264h182v-743h-150v428l-114 -258h-39l-125 262v-432h-150z" />
<glyph unicode="&#xe000;" horiz-adv-x="895" d="M0 895h895v-895h-895v895z" />
<glyph unicode="&#xfb01;" horiz-adv-x="1243" d="M33 793q0 59 49 88q20 14 88 14h78v80q0 127 81 214t197 87q127 0 203 -49q45 -29 45 -82q0 -43 -29.5 -74t-70.5 -31q-20 0 -62 15q-49 18 -80 18q-33 0 -56 -29.5t-23 -68.5v-80h67q66 0 92 -18q43 -33 43 -84q0 -55 -49 -88q-23 -14 -86 -15h-67v-690h-205v690h-78 q-68 0 -94 21q-43 31 -43 82zM731 793q0 59 49 88q23 14 86 14h246v-895h-205v690h-41q-68 0 -92 21q-43 31 -43 82zM836 1063v215h241v-215h-241z" />
<glyph unicode="&#xfb02;" horiz-adv-x="1132" d="M29 793q0 59 49 88q20 14 88 14h76v78q0 125 79.5 214t192.5 89h221h266v-1276h-204v1071h-70h-199q-82 0 -82 -98v-78h68q66 0 92 -18q43 -33 43 -84q0 -55 -49 -88q-23 -14 -86 -15h-68v-690h-204v690h-76q-68 0 -94 21q-43 31 -43 82z" />
<glyph unicode="&#xfb03;" horiz-adv-x="2523" d="M29 793q0 59 49 88q20 14 88 14h94v76q0 141 106.5 223t288.5 82q164 0 281 -33q86 -23 86 -96q0 -45 -27.5 -75t-68.5 -30q-20 0 -58 7q-127 23 -231 22q-172 0 -172 -100v-76h309q66 0 92 -18q43 -33 43 -84q0 -55 -49 -88q-23 -14 -86 -15h-309v-690h-205v690h-96 q-70 0 -92 21q-43 31 -43 82zM1038 793q0 59 49 88q20 14 89 14h94v76q0 141 106.5 223t288.5 82q164 0 281 -33q86 -23 86 -96q0 -45 -28 -75t-69 -30q-20 0 -57 7q-127 23 -231 22q-172 0 -172 -100v-76h309q66 0 92 -18q43 -33 43 -84q0 -55 -49 -88q-23 -14 -86 -15 h-309v-690h-205v690h-96q-70 0 -93 21q-43 31 -43 82zM2150 1061v215h242v-215h-242zM2169 0v893l205 2v-895h-205z" />
<glyph unicode="&#xfb04;" horiz-adv-x="2639" d="M29 793q0 59 49 88q20 14 88 14h94v76q0 141 106.5 223t288.5 82q164 0 281 -33q86 -23 86 -96q0 -45 -27.5 -75t-68.5 -30q-20 0 -58 7q-127 23 -231 22q-172 0 -172 -100v-76h309q66 0 92 -18q43 -33 43 -84q0 -55 -49 -88q-23 -14 -86 -15h-309v-690h-205v690h-96 q-70 0 -92 21q-43 31 -43 82zM1038 793q0 59 49 88q20 14 89 14h94v76q0 141 106.5 223t288.5 82q164 0 281 -33q86 -23 86 -96q0 -45 -28 -75t-69 -30q-20 0 -57 7q-127 23 -231 22q-172 0 -172 -100v-76h309q66 0 92 -18q43 -33 43 -84q0 -55 -49 -88q-23 -14 -86 -15 h-309v-690h-205v690h-96q-70 0 -93 21q-43 31 -43 82zM2150 1176q0 59 50 88q20 14 88 14h221v-1278h-205v1073h-16q-72 0 -95 21q-43 29 -43 82z" />
</font>
</defs>
</svg>
