<?xml version="1.0" encoding="UTF-8" standalone="no"?>
<!-- Created with Inkscape (http://www.inkscape.org/) -->

<svg
   xmlns:dc="http://purl.org/dc/elements/1.1/"
   xmlns:cc="http://creativecommons.org/ns#"
   xmlns:rdf="http://www.w3.org/1999/02/22-rdf-syntax-ns#"
   xmlns:svg="http://www.w3.org/2000/svg"
   xmlns="http://www.w3.org/2000/svg"
   version="1.1"
   width="708.66248"
   height="152"
   id="svg2"
   xml:space="preserve"><metadata
     id="metadata8"><rdf:RDF><cc:Work
         rdf:about=""><dc:format>image/svg+xml</dc:format><dc:type
           rdf:resource="http://purl.org/dc/dcmitype/StillImage" /><dc:title></dc:title></cc:Work></rdf:RDF></metadata><defs
     id="defs6" /><g
     transform="matrix(1.25,0,0,-1.25,0,152)"
     id="g10"><g
       transform="scale(0.1,0.1)"
       id="g12"><path
         d="m 3194.25,952.953 c 0,0 -0.04,36.465 -0.04,36.485 l -0.13,142.282 -0.02,17.76 c -61.17,-0.06 -113.13,-39.34 -132.15,-94.07 -5.02,-14.39 -7.77,-29.84 -7.77,-45.97 0,-1.86 0.07,-3.69 0.13,-5.53 l 0,-51.308 139.98,0.351"
         id="path14"
         style="fill:#e40477;fill-opacity:1;fill-rule:nonzero;stroke:none" /><path
         d="m 3055.62,19.3398 136.719,0 0,828.34 -136.719,0 0,-828.34 z"
         id="path16"
         style="fill:#201d1c;fill-opacity:1;fill-rule:nonzero;stroke:none" /><path
         d="m 3806.73,743.129 c -152.79,0 -279.88,-136.719 -279.88,-307.207 0,-172.129 128.69,-310.453 279.88,-310.453 152.84,0 278.27,135.121 278.27,310.453 0,172.09 -125.43,307.207 -278.27,307.207 z M 3806.73,0 c -234.82,0 -416.58,189.828 -416.58,435.922 l 0,780.098 131.88,0 0,-487.364 c 67.57,85.254 172.14,139.942 286.32,139.942 230.02,0 413.36,-185 413.36,-432.676 C 4221.71,186.59 4035.13,0 3806.73,0"
         id="path18"
         style="fill:#201d1c;fill-opacity:1;fill-rule:nonzero;stroke:none" /><path
         d="m 4773.41,743.129 c -152.81,0 -279.9,-136.719 -279.9,-307.207 0,-172.129 128.69,-310.453 279.9,-310.453 152.78,0 278.26,135.121 278.26,310.453 0,172.09 -125.48,307.207 -278.26,307.207 z M 4773.41,0 c -234.84,0 -416.58,189.828 -416.58,435.922 l 0,780.098 131.86,0 0,-487.364 c 67.59,85.254 172.13,139.942 286.34,139.942 229.98,0 413.36,-185 413.36,-432.676 C 5188.39,186.59 5001.81,0 4773.41,0"
         id="path20"
         style="fill:#201d1c;fill-opacity:1;fill-rule:nonzero;stroke:none" /><path
         d="M 5669.29,19.3398 C 5476.28,-3.17969 5342.79,111 5342.79,321.723 l 0,702.867 135.1,0 0,-176.91 188.18,0 0,-130.293 -188.18,0 0,-395.664 c 0,-146.383 88.47,-183.383 191.4,-176.934 l 0,-125.4492"
         id="path22"
         style="fill:#201d1c;fill-opacity:1;fill-rule:nonzero;stroke:none" /><path
         d="m 145.234,1213.02 -145.234,0 0,-723.801 145.234,39.062 0,684.739"
         id="path24"
         style="fill:#e40477;fill-opacity:1;fill-rule:nonzero;stroke:none" /><path
         d="m 145.234,2.33984 0,526.82816 L 0,490.156 0,2.33984 l 145.234,0"
         id="path26"
         style="fill:#e9348e;fill-opacity:1;fill-rule:nonzero;stroke:none" /><path
         d="m 606.621,1213.02 -317.656,0 0,-650.122 317.656,85.739 0,564.383"
         id="path28"
         style="fill:#e40477;fill-opacity:1;fill-rule:nonzero;stroke:none" /><path
         d="m 607.227,568.016 c 0,8.515 -0.254,16.914 -0.606,25.312 l 0,59.649 -317.656,-85.079 0,-565.54644 C 478.691,112 607.227,324.168 607.227,568.016"
         id="path30"
         style="fill:#e9348e;fill-opacity:1;fill-rule:nonzero;stroke:none" /><path
         d="m 1352.77,1213.02 -603.122,0 0.606,-529.145 602.516,165.332 0,363.813"
         id="path32"
         style="fill:#e40477;fill-opacity:1;fill-rule:nonzero;stroke:none" /><path
         d="m 1319.9,405.777 c 21.58,62.231 33.48,129.164 33.48,198.743 0,7.96 -0.37,15.894 -0.61,23.73 l 0,224.648 L 750.254,690.855 750.859,76.25 1319.9,405.777"
         id="path34"
         style="fill:#e9348e;fill-opacity:1;fill-rule:nonzero;stroke:none" /><path
         d="M 750.977,2.35156 C 1014.26,2.55859 1237.93,171.762 1319.9,407.215 L 750.859,78.75 750.977,2.35156"
         id="path36"
         style="fill:#ec4c9b;fill-opacity:1;fill-rule:nonzero;stroke:none" /><path
         d="m 2123.54,1213.02 c -7.91,0 -15.73,-0.36 -23.64,-0.59 l -579.37,0 0,-321.379 892.54,247.699 c -85.22,46.25 -185.86,74.27 -289.53,74.27"
         id="path38"
         style="fill:#e40477;fill-opacity:1;fill-rule:nonzero;stroke:none" /><path
         d="m 1520.64,607.074 c 0,-26.746 2.58,-57.734 5.94,-83.5 l 966.9,562.076 c -25.56,19.65 -55.06,39.43 -83.62,54.86 l -889.33,-239.127 0,-294.309 0.11,0"
         id="path40"
         style="fill:#e9348e;fill-opacity:1;fill-rule:nonzero;stroke:none" /><path
         d="M 2490.98,1087.61 1525.94,528.293 c 17.4,-133.234 80.63,-255.621 169.79,-346.965 l 850.39,858.032 c -17.27,16.99 -36.06,33.43 -55.14,48.25"
         id="path42"
         style="fill:#ec4c9b;fill-opacity:1;fill-rule:nonzero;stroke:none" /><path
         d="M 2545.45,1040.04 1692.85,184.219 C 1782.03,92.8984 1900.84,29.4883 2032.62,9.12109 L 2593.98,986.258 c -15,18.672 -31.48,37.022 -48.53,53.782"
         id="path44"
         style="fill:#ef65a7;fill-opacity:1;fill-rule:nonzero;stroke:none" /><path
         d="m 2031.88,9.30078 c 30.12,-4.57031 60.84,-6.96094 92.15,-6.96094 8.05,0 15.84,0.21094 23.77,0.57032 l 257.63,0 242.32,904.78484 c -15.72,27.465 -34.11,54.532 -53.8,79.098 L 2031.88,9.30078"
         id="path46"
         style="fill:#f17eb5;fill-opacity:1;fill-rule:nonzero;stroke:none" /><path
         d="m 2726.54,2.91016 0,605.35584 c 0,109.39 -29.16,211.8 -79.8,300.328 l -241.8,-905.68384 321.6,0"
         id="path48"
         style="fill:#f497c2;fill-opacity:1;fill-rule:nonzero;stroke:none" /></g></g></svg>