<?xml version="1.0" encoding="UTF-8" ?>
<!DOCTYPE svg PUBLIC "-//W3C//DTD SVG 1.1//EN" "http://www.w3.org/Graphics/SVG/1.1/DTD/svg11.dtd">
<svg width="339pt" height="227pt" viewBox="0 0 339 227" version="1.1" xmlns="http://www.w3.org/2000/svg">
<g id="#f0163aff">
<path fill="#f0163a" opacity="1.00" d=" M 0.00 0.00 L 339.00 0.00 L 339.00 227.00 L 0.00 227.00 L 0.00 0.00 M 45.02 34.26 C 44.99 42.92 44.98 51.58 45.02 60.24 C 55.92 60.23 66.83 60.23 77.73 60.24 C 77.74 51.58 77.73 42.92 77.74 34.26 C 66.83 34.26 55.93 34.27 45.02 34.26 M 218.26 34.26 C 218.27 42.92 218.26 51.58 218.27 60.24 C 254.00 60.23 289.74 60.25 325.48 60.22 C 325.49 51.57 325.47 42.92 325.49 34.27 C 289.75 34.25 254.01 34.27 218.26 34.26 M 168.65 70.82 C 163.43 85.83 157.92 100.75 152.64 115.74 C 165.95 142.82 179.01 170.02 192.26 197.12 C 209.87 155.81 227.63 114.57 245.19 73.25 C 234.37 73.29 223.56 73.25 212.74 73.27 C 205.95 88.77 199.20 104.28 192.38 119.76 C 184.41 103.47 176.66 87.08 168.65 70.82 M 45.01 73.27 C 44.99 113.76 44.98 154.25 45.02 194.74 C 55.92 194.72 66.83 194.74 77.73 194.73 C 77.74 154.24 77.73 113.76 77.73 73.27 C 66.83 73.26 55.92 73.27 45.01 73.27 M 89.68 73.27 C 107.35 114.49 125.08 155.69 142.70 196.94 C 147.98 183.54 153.39 170.20 158.64 156.80 C 145.90 128.98 133.28 101.10 120.60 73.25 C 110.29 73.29 99.99 73.25 89.68 73.27 M 257.27 73.27 C 257.26 113.76 257.26 154.25 257.28 194.74 C 268.26 194.72 279.25 194.74 290.24 194.73 C 290.24 154.24 290.23 113.76 290.24 73.27 C 279.25 73.27 268.26 73.26 257.27 73.27 Z" />
</g>
<g id="#ffffffff">
<path fill="#ffffff" opacity="1.00" d=" M 45.02 34.26 C 55.93 34.27 66.83 34.26 77.74 34.26 C 77.73 42.92 77.74 51.58 77.73 60.24 C 66.83 60.23 55.92 60.23 45.02 60.24 C 44.98 51.58 44.99 42.92 45.02 34.26 Z" />
<path fill="#ffffff" opacity="1.00" d=" M 218.26 34.26 C 254.01 34.27 289.75 34.25 325.49 34.27 C 325.47 42.92 325.49 51.57 325.48 60.22 C 289.74 60.25 254.00 60.23 218.27 60.24 C 218.26 51.58 218.27 42.92 218.26 34.26 Z" />
<path fill="#ffffff" opacity="1.00" d=" M 168.65 70.82 C 176.66 87.08 184.41 103.47 192.38 119.76 C 199.20 104.28 205.95 88.77 212.74 73.27 C 223.56 73.25 234.37 73.29 245.19 73.25 C 227.63 114.57 209.87 155.81 192.26 197.12 C 179.01 170.02 165.95 142.82 152.64 115.74 C 157.92 100.75 163.43 85.83 168.65 70.82 Z" />
<path fill="#ffffff" opacity="1.00" d=" M 45.01 73.27 C 55.92 73.27 66.83 73.26 77.73 73.27 C 77.73 113.76 77.74 154.24 77.73 194.73 C 66.83 194.74 55.92 194.72 45.02 194.74 C 44.98 154.25 44.99 113.76 45.01 73.27 Z" />
<path fill="#ffffff" opacity="1.00" d=" M 89.68 73.27 C 99.99 73.25 110.29 73.29 120.60 73.25 C 133.28 101.10 145.90 128.98 158.64 156.80 C 153.39 170.20 147.98 183.54 142.70 196.94 C 125.08 155.69 107.35 114.49 89.68 73.27 Z" />
<path fill="#ffffff" opacity="1.00" d=" M 257.27 73.27 C 268.26 73.26 279.25 73.27 290.24 73.27 C 290.23 113.76 290.24 154.24 290.24 194.73 C 279.25 194.74 268.26 194.72 257.28 194.74 C 257.26 154.25 257.26 113.76 257.27 73.27 Z" />
</g>
</svg>
