<?xml version="1.0" encoding="UTF-8" standalone="no"?>
<!-- Created with Inkscape (http://www.inkscape.org/) -->

<svg
   xmlns:dc="http://purl.org/dc/elements/1.1/"
   xmlns:cc="http://creativecommons.org/ns#"
   xmlns:rdf="http://www.w3.org/1999/02/22-rdf-syntax-ns#"
   xmlns:svg="http://www.w3.org/2000/svg"
   xmlns="http://www.w3.org/2000/svg"
   xmlns:sodipodi="http://sodipodi.sourceforge.net/DTD/sodipodi-0.dtd"
   xmlns:inkscape="http://www.inkscape.org/namespaces/inkscape"
   id="svg2"
   version="1.1"
   inkscape:version="0.48.2 r9819"
   width="492.33087"
   height="105.1225"
   xml:space="preserve"
   sodipodi:docname="MSFT_logo_c_B-Blk.pdf"><metadata
     id="metadata8"><rdf:RDF><cc:Work
         rdf:about=""><dc:format>image/svg+xml</dc:format><dc:type
           rdf:resource="http://purl.org/dc/dcmitype/StillImage" /><dc:title></dc:title></cc:Work></rdf:RDF></metadata><defs
     id="defs6"><clipPath
       clipPathUnits="userSpaceOnUse"
       id="clipPath16"><path
         d="M 0,185 503,185 503,0 0,0 0,185 z"
         id="path18"
         inkscape:connector-curvature="0" /></clipPath></defs><sodipodi:namedview
     pagecolor="#ffffff"
     bordercolor="#666666"
     borderopacity="1"
     objecttolerance="10"
     gridtolerance="10"
     guidetolerance="10"
     inkscape:pageopacity="0"
     inkscape:pageshadow="2"
     inkscape:window-width="679"
     inkscape:window-height="729"
     id="namedview4"
     showgrid="false"
     fit-margin-top="0"
     fit-margin-left="0"
     fit-margin-right="0"
     fit-margin-bottom="0"
     inkscape:zoom="0.60596421"
     inkscape:cx="245.91125"
     inkscape:cy="52.86125"
     inkscape:window-x="683"
     inkscape:window-y="18"
     inkscape:window-maximized="0"
     inkscape:current-layer="g10" /><g
     id="g10"
     inkscape:groupmode="layer"
     inkscape:label="MSFT_logo_c_B-Blk"
     transform="matrix(1.25,0,0,-1.25,-68.46375,167.88625)"><g
       id="g12"><g
         id="g14"
         clip-path="url(#clipPath16)"><g
           id="g20"
           transform="translate(193.793,85.8525)"><path
             d="m 0,0 -2.36,-6.607 -0.135,0 c -0.422,1.548 -1.129,3.744 -2.236,6.535 l -12.635,31.695 -12.353,0 0,-50.392 8.148,0 0,30.978 c 0,1.912 -0.041,4.223 -0.122,6.867 -0.042,1.338 -0.194,2.41 -0.232,3.227 l 0.18,0 c 0.414,-1.899 0.844,-3.345 1.155,-4.313 l 15.151,-36.759 5.7,0 15.037,37.091 c 0.342,0.846 0.703,2.496 1.035,3.981 l 0.179,0 c -0.197,-3.671 -0.364,-7.026 -0.386,-9.05 l 0,-32.022 8.691,0 0,50.392 -11.863,0 L 0,0 z"
             style="fill:#231f20;fill-opacity:1;fill-rule:nonzero;stroke:none"
             id="path22"
             inkscape:connector-curvature="0" /></g><path
           d="m 226.793,67.084 8.495,0 0,36.112 -8.495,0 0,-36.112 z"
           style="fill:#231f20;fill-opacity:1;fill-rule:nonzero;stroke:none"
           id="path24"
           inkscape:connector-curvature="0" /><g
           id="g26"
           transform="translate(231.1279,118.543)"><path
             d="m 0,0 c -1.4,0 -2.617,-0.478 -3.619,-1.419 -1.006,-0.945 -1.516,-2.138 -1.516,-3.543 0,-1.383 0.504,-2.551 1.499,-3.473 0.99,-0.918 2.214,-1.383 3.636,-1.383 1.422,0 2.65,0.465 3.652,1.382 1.008,0.923 1.519,2.091 1.519,3.474 0,1.357 -0.497,2.535 -1.478,3.504 C 2.713,-0.49 1.471,0 0,0"
             style="fill:#231f20;fill-opacity:1;fill-rule:nonzero;stroke:none"
             id="path28"
             inkscape:connector-curvature="0" /></g><g
           id="g30"
           transform="translate(265.3613,103.5576)"><path
             d="m 0,0 c -1.634,0.338 -3.23,0.509 -4.747,0.509 -3.899,0 -7.374,-0.835 -10.331,-2.484 -2.962,-1.65 -5.255,-4.007 -6.812,-7.005 -1.554,-2.991 -2.341,-6.482 -2.341,-10.377 0,-3.413 0.765,-6.542 2.273,-9.303 1.512,-2.766 3.65,-4.928 6.357,-6.428 2.705,-1.497 5.829,-2.257 9.287,-2.257 4.037,0 7.485,0.807 10.247,2.399 l 0.112,0.065 0,7.781 -0.357,-0.26 c -1.253,-0.912 -2.652,-1.64 -4.156,-2.163 -1.502,-0.524 -2.871,-0.79 -4.07,-0.79 -3.333,0 -6.008,1.043 -7.951,3.1 -1.948,2.059 -2.934,4.947 -2.934,8.586 0,3.662 1.028,6.628 3.057,8.815 2.023,2.182 4.704,3.289 7.967,3.289 2.794,0 5.514,-0.946 8.087,-2.813 l 0.357,-0.259 0,8.2 -0.114,0.065 C 2.962,-0.788 1.64,-0.341 0,0"
             style="fill:#231f20;fill-opacity:1;fill-rule:nonzero;stroke:none"
             id="path32"
             inkscape:connector-curvature="0" /></g><g
           id="g34"
           transform="translate(293.3506,103.8232)"><path
             d="M 0,0 C -2.133,0 -4.044,-0.686 -5.681,-2.037 -7.117,-3.223 -8.154,-4.85 -8.949,-6.88 l -0.09,0 0,6.253 -8.494,0 0,-36.112 8.494,0 0,18.473 c 0,3.142 0.713,5.722 2.117,7.67 1.388,1.926 3.236,2.902 5.494,2.902 0.766,0 1.625,-0.126 2.555,-0.375 0.92,-0.248 1.587,-0.518 1.98,-0.801 l 0.358,-0.258 0,8.564 -0.138,0.058 C 2.537,-0.17 1.417,0 0,0"
             style="fill:#231f20;fill-opacity:1;fill-rule:nonzero;stroke:none"
             id="path36"
             inkscape:connector-curvature="0" /></g><g
           id="g38"
           transform="translate(323.1768,76.2607)"><path
             d="m 0,0 c -1.596,-2.002 -3.997,-3.016 -7.138,-3.016 -3.12,0 -5.582,1.034 -7.315,3.073 -1.744,2.049 -2.629,4.97 -2.629,8.683 0,3.828 0.885,6.826 2.629,8.91 1.735,2.073 4.173,3.123 7.246,3.123 2.981,0 5.355,-1.003 7.056,-2.986 C 1.558,15.796 2.424,12.822 2.424,8.949 2.424,5.026 1.608,2.016 0,0 m -6.754,27.806 c -5.956,0 -10.685,-1.745 -14.057,-5.187 -3.371,-3.44 -5.079,-8.204 -5.079,-14.158 0,-5.654 1.668,-10.201 4.958,-13.515 3.29,-3.313 7.768,-4.994 13.307,-4.994 5.771,0 10.408,1.769 13.779,5.258 3.369,3.486 5.078,8.202 5.078,14.018 0,5.745 -1.603,10.326 -4.764,13.616 -3.163,3.293 -7.613,4.962 -13.222,4.962"
             style="fill:#231f20;fill-opacity:1;fill-rule:nonzero;stroke:none"
             id="path40"
             inkscape:connector-curvature="0" /></g><g
           id="g42"
           transform="translate(353.248,88.2744)"><path
             d="m 0,0 c -2.678,1.076 -4.394,1.968 -5.099,2.651 -0.682,0.662 -1.029,1.597 -1.029,2.782 0,1.05 0.428,1.892 1.307,2.573 0.883,0.685 2.114,1.033 3.658,1.033 1.434,0 2.9,-0.226 4.357,-0.67 C 4.649,7.926 5.93,7.332 6.999,6.605 l 0.352,-0.239 0,7.853 -0.137,0.058 c -0.985,0.422 -2.283,0.784 -3.861,1.077 -1.574,0.291 -2.999,0.438 -4.238,0.438 -4.051,0 -7.401,-1.036 -9.962,-3.079 -2.574,-2.055 -3.88,-4.75 -3.88,-8.012 0,-1.695 0.282,-3.201 0.837,-4.476 0.557,-1.283 1.422,-2.413 2.571,-3.359 1.136,-0.938 2.896,-1.922 5.226,-2.924 1.957,-0.805 3.418,-1.487 4.347,-2.025 0.907,-0.526 1.551,-1.056 1.913,-1.571 0.354,-0.505 0.534,-1.194 0.534,-2.047 0,-2.428 -1.817,-3.607 -5.555,-3.607 -1.388,0 -2.969,0.289 -4.702,0.86 -1.734,0.57 -3.354,1.391 -4.814,2.441 l -0.357,0.257 0,-8.28 0.13,-0.061 c 1.218,-0.561 2.751,-1.035 4.56,-1.408 1.808,-0.374 3.446,-0.563 4.868,-0.563 4.398,0 7.936,1.042 10.519,3.096 2.598,2.068 3.916,4.827 3.916,8.204 0,2.434 -0.708,4.522 -2.107,6.204 C 5.771,-2.888 3.362,-1.354 0,0"
             style="fill:#231f20;fill-opacity:1;fill-rule:nonzero;stroke:none"
             id="path44"
             inkscape:connector-curvature="0" /></g><g
           id="g46"
           transform="translate(392.1104,76.2607)"><path
             d="m 0,0 c -1.596,-2.002 -3.998,-3.016 -7.138,-3.016 -3.12,0 -5.582,1.034 -7.316,3.073 -1.744,2.049 -2.628,4.97 -2.628,8.683 0,3.828 0.885,6.826 2.629,8.91 1.734,2.073 4.172,3.123 7.246,3.123 2.98,0 5.355,-1.003 7.056,-2.986 C 1.558,15.796 2.424,12.822 2.424,8.949 2.424,5.026 1.607,2.016 0,0 m -6.755,27.806 c -5.956,0 -10.684,-1.745 -14.057,-5.187 -3.37,-3.44 -5.079,-8.204 -5.079,-14.158 0,-5.654 1.668,-10.201 4.959,-13.515 3.29,-3.313 7.767,-4.994 13.307,-4.994 5.771,0 10.407,1.769 13.778,5.258 3.37,3.486 5.079,8.202 5.079,14.018 0,5.745 -1.603,10.326 -4.765,13.616 -3.163,3.293 -7.613,4.962 -13.222,4.962"
             style="fill:#231f20;fill-opacity:1;fill-rule:nonzero;stroke:none"
             id="path48"
             inkscape:connector-curvature="0" /></g><g
           id="g50"
           transform="translate(448.6357,96.2686)"><path
             d="m 0,0 0,6.928 -8.603,0 0,10.771 -0.29,-0.089 -8.08,-2.473 -0.159,-0.049 0,-8.16 -12.746,0 0,4.546 c 0,2.116 0.474,3.736 1.408,4.815 0.927,1.07 2.251,1.612 3.939,1.612 1.215,0 2.473,-0.287 3.74,-0.852 l 0.316,-0.141 0,7.297 -0.148,0.053 c -1.18,0.425 -2.787,0.64 -4.778,0.64 -2.51,0 -4.79,-0.548 -6.777,-1.628 -1.99,-1.085 -3.555,-2.632 -4.651,-4.599 -1.094,-1.964 -1.648,-4.233 -1.648,-6.744 l 0,-4.999 -5.99,0 0,-6.928 5.99,0 0,-29.185 8.599,0 0,29.185 12.746,0 0,-18.547 c 0,-7.637 3.603,-11.509 10.708,-11.509 1.168,0 2.398,0.137 3.652,0.406 1.278,0.275 2.147,0.55 2.659,0.843 l 0.113,0.065 0,6.995 -0.35,-0.233 c -0.465,-0.312 -1.047,-0.566 -1.729,-0.755 -0.685,-0.192 -1.256,-0.288 -1.698,-0.288 -1.665,0 -2.897,0.448 -3.661,1.333 -0.773,0.893 -1.165,2.454 -1.165,4.641 L -8.603,0 0,0 z"
             style="fill:#231f20;fill-opacity:1;fill-rule:nonzero;stroke:none"
             id="path52"
             inkscape:connector-curvature="0" /></g><path
           d="m 94.732,94.348 -39.961,0 0,39.961 39.961,0 0,-39.961 z"
           style="fill:#231f20;fill-opacity:1;fill-rule:nonzero;stroke:none"
           id="path54"
           inkscape:connector-curvature="0" /><path
           d="m 138.853,94.348 -39.96,0 0,39.961 39.96,0 0,-39.961 z"
           style="fill:#231f20;fill-opacity:1;fill-rule:nonzero;stroke:none"
           id="path56"
           inkscape:connector-curvature="0" /><path
           d="m 94.731,50.211 -39.96,0 0,39.961 39.96,0 0,-39.961 z"
           style="fill:#231f20;fill-opacity:1;fill-rule:nonzero;stroke:none"
           id="path58"
           inkscape:connector-curvature="0" /><path
           d="m 138.853,50.211 -39.96,0 0,39.961 39.96,0 0,-39.961 z"
           style="fill:#231f20;fill-opacity:1;fill-rule:nonzero;stroke:none"
           id="path60"
           inkscape:connector-curvature="0" /></g></g></g></svg>