<?xml version="1.0" encoding="utf-8"?>
<!-- Generator: Adobe Illustrator 14.0.0, SVG Export Plug-In . SVG Version: 6.00 Build 43363)  -->
<!DOCTYPE svg PUBLIC "-//W3C//DTD SVG 1.1//EN" "http://www.w3.org/Graphics/SVG/1.1/DTD/svg11.dtd">
<svg version="1.1" id="Layer_1" xmlns="http://www.w3.org/2000/svg" xmlns:xlink="http://www.w3.org/1999/xlink" x="0px" y="0px"
	 width="76.267px" height="64.335px" viewBox="0 0 76.267 64.335" enable-background="new 0 0 76.267 64.335" xml:space="preserve">
<path fill="#46B75C" d="M30.693,19.756h-2.708v-7.638h2.708V19.756z M30.858,9.186c0,0.833-0.685,1.518-1.519,1.518
	c-0.833,0-1.518-0.685-1.518-1.518c0-0.835,0.685-1.52,1.518-1.52C30.173,7.666,30.858,8.351,30.858,9.186"/>
<path fill="#46B75C" d="M30.693,34.818h-2.708V27.18h2.708V34.818z M30.858,24.248c0,0.833-0.685,1.518-1.52,1.518
	c-0.833,0-1.517-0.685-1.517-1.518c0-0.835,0.684-1.52,1.517-1.52C30.173,22.728,30.858,23.413,30.858,24.248"/>
<path fill="#46B75C" d="M36.52,13.205h-2.708V5.567h2.708V13.205z M36.684,2.633c0,0.835-0.685,1.52-1.518,1.52
	c-0.834,0-1.519-0.685-1.519-1.52c0-0.833,0.685-1.518,1.519-1.518C35.999,1.115,36.684,1.8,36.684,2.633"/>
<path fill="#46B75C" d="M36.52,27.44h-2.71v-7.639h2.71V27.44z M36.685,16.87c0,0.833-0.685,1.519-1.521,1.519
	c-0.832,0-1.517-0.686-1.517-1.519c0-0.834,0.685-1.519,1.517-1.519C36,15.351,36.685,16.036,36.685,16.87"/>
<path fill="#46B75C" d="M42.557,22.386h-2.709v-7.639h2.709V22.386z M42.721,11.813c0,0.834-0.685,1.519-1.521,1.519
	c-0.831,0-1.515-0.685-1.515-1.519s0.684-1.519,1.515-1.519C42.036,10.294,42.721,10.979,42.721,11.813"/>
<path fill="#46B75C" d="M24.875,13.205h-2.71V5.567h2.71V13.205z M25.039,2.633c0,0.835-0.686,1.52-1.519,1.52
	c-0.834,0-1.518-0.685-1.518-1.52c0-0.833,0.684-1.518,1.518-1.518C24.353,1.115,25.039,1.8,25.039,2.633"/>
<path fill="#46B75C" d="M24.876,27.44h-2.709v-7.639h2.709V27.44z M25.039,16.87c0,0.834-0.684,1.52-1.519,1.52
	c-0.832,0-1.518-0.686-1.518-1.52s0.686-1.519,1.518-1.519C24.355,15.351,25.039,16.036,25.039,16.87"/>
<path fill="#46B75C" d="M19.018,22.386h-2.709v-7.639h2.709V22.386z M19.182,11.814c0,0.833-0.685,1.518-1.521,1.518
	c-0.831,0-1.515-0.685-1.515-1.518s0.684-1.519,1.515-1.519C18.497,10.295,19.182,10.981,19.182,11.814"/>
<path fill="#893A96" d="M11.546,31.084l-0.001,6.312c0,1.444-0.061,2.874-1.176,3.96c-0.94,0.924-2.415,1.25-3.725,1.249
	c-1.309,0.001-2.784-0.327-3.722-1.251c-1.115-1.086-1.175-2.516-1.175-3.961l0.002-6.312h2.918l-0.002,5.911
	c-0.001,1.46,0.104,3.054,1.98,3.055c1.876,0,1.981-1.595,1.981-3.054l0.002-5.911L11.546,31.084z"/>
<path fill="#893A96" d="M16.047,35.656h0.031c0.624-0.922,1.385-1.236,2.442-1.235c2.054,0.001,2.873,1.295,2.873,3.172l-0.001,4.72
	l-2.711-0.001l0.001-3.723c0-0.729,0.119-2.01-1.22-2.011c-1.101,0.001-1.415,0.819-1.415,1.771l-0.001,3.961h-2.71l0.002-7.639
	l2.709,0.001V35.656z"/>
<rect x="23.186" y="29.957" fill="#893A96" width="2.709" height="12.356"/>
<polygon fill="#893A96" points="35.494,37.432 38.307,34.679 42.016,34.681 38.189,38.208 42.251,42.317 38.455,42.317 
	35.493,39.203 35.493,42.316 32.783,42.314 32.786,29.956 35.496,29.958 "/>
<path fill="#893A96" d="M48.364,37.391c-0.134-0.729-0.805-1.206-1.532-1.206c-0.791-0.001-1.447,0.417-1.611,1.206H48.364z
	 M50.881,38.955h-5.703c-0.002,1.1,0.58,1.695,1.697,1.696c0.578,0,0.998-0.194,1.295-0.7h2.606
	c-0.209,0.895-0.745,1.549-1.446,1.98c-0.699,0.432-1.563,0.641-2.441,0.64c-2.531,0-4.424-1.43-4.424-4.065
	c0.002-2.547,1.744-4.079,4.232-4.077c2.65,0,4.184,1.636,4.182,4.243L50.881,38.955z"/>
<path fill="#893A96" d="M67.031,31.098l-0.002,6.313c0,1.443-0.062,2.872-1.179,3.959c-0.936,0.923-2.413,1.25-3.722,1.25
	c-1.311,0-2.785-0.328-3.723-1.251c-1.115-1.087-1.176-2.518-1.174-3.961v-6.313l2.918,0.002l-0.002,5.909
	c0,1.459,0.106,3.053,1.981,3.054c1.877,0.002,1.981-1.594,1.981-3.052l0.002-5.91H67.031z"/>
<path fill="#893A96" d="M73.869,36.653c-0.418-0.225-0.998-0.373-1.459-0.373c-0.312,0-0.85,0.133-0.849,0.519
	c0,0.521,0.849,0.598,1.222,0.674c1.265,0.251,2.219,0.848,2.219,2.263c-0.002,2.01-1.834,2.843-3.606,2.842
	c-1.087,0.001-2.157-0.312-3.083-0.879l0.986-1.89c0.548,0.387,1.473,0.773,2.143,0.773c0.344,0,0.848-0.164,0.848-0.581
	c0.002-0.594-0.848-0.625-1.696-0.848c-0.849-0.225-1.697-0.641-1.697-2.01c0.001-1.878,1.697-2.711,3.367-2.71
	c0.862,0,1.726,0.135,2.515,0.492L73.869,36.653z"/>
<path fill="#46B75C" d="M4.802,49.264v1.981c0,0.452-0.018,0.9-0.368,1.241c-0.295,0.289-0.757,0.394-1.168,0.394
	s-0.874-0.104-1.168-0.394c-0.35-0.341-0.369-0.789-0.369-1.241v-1.981h0.916v1.855c0,0.458,0.032,0.957,0.621,0.957
	s0.621-0.499,0.621-0.957v-1.855H4.802z"/>
<polygon fill="#46B75C" points="5.521,49.264 6.436,49.264 8.113,51.418 8.123,51.418 8.123,49.264 9.038,49.264 9.038,52.786 
	8.123,52.786 6.446,50.628 6.436,50.628 6.436,52.786 5.521,52.786 "/>
<path fill="#46B75C" d="M9.773,49.264h1.299c0.981,0,1.789,0.771,1.789,1.761c0,0.99-0.812,1.762-1.789,1.762H9.773V49.264z
	 M10.689,52.01h0.206c0.546,0,1.013-0.299,1.013-0.985c0-0.63-0.415-0.985-1.004-0.985h-0.215V52.01z"/>
<polygon fill="#46B75C" points="14.341,50.039 14.341,50.628 15.374,50.628 15.374,51.402 14.341,51.402 14.341,52.01 15.43,52.01 
	15.43,52.786 13.425,52.786 13.425,49.264 15.43,49.264 15.43,50.039 "/>
<path fill="#46B75C" d="M19.062,52.786h-1.139l-0.865-1.354h-0.009v1.354h-0.916v-3.522h1.369c0.696,0,1.224,0.331,1.224,1.083
	c0,0.487-0.271,0.908-0.771,0.996L19.062,52.786z M17.049,50.843h0.089c0.299,0,0.635-0.056,0.635-0.439s-0.336-0.438-0.635-0.438
	h-0.089V50.843z"/>
<path fill="#46B75C" d="M21.382,50.17c-0.167-0.14-0.383-0.234-0.607-0.234c-0.167,0-0.393,0.1-0.393,0.295
	c0,0.205,0.248,0.284,0.407,0.337l0.234,0.068c0.49,0.146,0.869,0.394,0.869,0.963c0,0.352-0.084,0.71-0.365,0.948
	c-0.275,0.235-0.645,0.332-1,0.332c-0.443,0-0.877-0.149-1.238-0.402l0.393-0.736c0.229,0.2,0.5,0.362,0.813,0.362
	c0.215,0,0.444-0.106,0.444-0.354c0-0.257-0.36-0.346-0.557-0.401c-0.574-0.164-0.952-0.312-0.952-0.995
	c0-0.715,0.509-1.182,1.214-1.182c0.355,0,0.789,0.112,1.102,0.29L21.382,50.17z"/>
<polygon fill="#46B75C" points="23.866,52.785 22.95,52.785 22.95,50.039 22.194,50.039 22.194,49.264 24.623,49.264 24.623,50.039 
	23.866,50.039 "/>
<path fill="#46B75C" d="M25.71,52.174l-0.243,0.612h-0.971l1.354-3.522h1l1.327,3.522h-0.976l-0.23-0.612H25.71z M26.35,50.353
	h-0.009l-0.379,1.12h0.762L26.35,50.353z"/>
<polygon fill="#46B75C" points="28.601,49.264 29.517,49.264 31.192,51.418 31.202,51.418 31.202,49.264 32.118,49.264 
	32.118,52.786 31.202,52.786 29.524,50.628 29.517,50.628 29.517,52.786 28.601,52.786 "/>
<path fill="#46B75C" d="M32.854,49.264h1.299c0.981,0,1.789,0.771,1.789,1.761c0,0.99-0.813,1.762-1.789,1.762h-1.299V49.264z
	 M33.77,52.01h0.205c0.546,0,1.014-0.299,1.014-0.985c0-0.63-0.416-0.985-1.005-0.985H33.77V52.01z"/>
<rect x="36.504" y="49.264" fill="#46B75C" width="0.916" height="3.522"/>
<polygon fill="#46B75C" points="38.158,49.264 39.074,49.264 40.75,51.418 40.76,51.418 40.76,49.264 41.676,49.264 41.676,52.786 
	40.76,52.786 39.082,50.628 39.074,50.628 39.074,52.786 38.158,52.786 "/>
<path fill="#46B75C" d="M45.924,50.819c-0.008,0.514-0.047,0.953-0.359,1.393c-0.346,0.481-0.864,0.69-1.453,0.69
	c-1.107,0-1.878-0.752-1.878-1.859c0-1.145,0.776-1.896,1.912-1.896c0.723,0,1.282,0.327,1.587,0.987l-0.869,0.362
	c-0.126-0.336-0.393-0.561-0.761-0.561c-0.603,0-0.915,0.575-0.915,1.112c0,0.547,0.326,1.103,0.928,1.103
	c0.398,0,0.702-0.205,0.739-0.611h-0.747v-0.72H45.924z"/>
<path fill="#46B75C" d="M3.682,55.276c-0.168-0.14-0.383-0.233-0.607-0.233c-0.168,0-0.393,0.099-0.393,0.294
	c0,0.206,0.249,0.284,0.407,0.337l0.233,0.069c0.491,0.146,0.87,0.393,0.87,0.962c0,0.352-0.085,0.711-0.365,0.948
	c-0.276,0.234-0.645,0.333-0.999,0.333c-0.444,0-0.879-0.15-1.238-0.402l0.392-0.738c0.228,0.202,0.5,0.365,0.813,0.365
	c0.214,0,0.443-0.107,0.443-0.354c0-0.258-0.359-0.347-0.556-0.402c-0.574-0.164-0.953-0.312-0.953-0.996
	c0-0.714,0.51-1.182,1.215-1.182c0.355,0,0.79,0.113,1.103,0.291L3.682,55.276z"/>
<path fill="#46B75C" d="M8.482,56.066c0,1.14-0.817,1.944-1.947,1.944c-1.131,0-1.949-0.805-1.949-1.944
	c0-1.066,0.935-1.813,1.949-1.813C7.548,54.253,8.482,55,8.482,56.066 M5.54,56.071c0,0.606,0.448,1.05,0.995,1.05
	c0.546,0,0.994-0.443,0.994-1.05c0-0.487-0.448-0.93-0.994-0.93C5.988,55.142,5.54,55.584,5.54,56.071"/>
<path fill="#46B75C" d="M11.563,55.552c-0.187-0.251-0.49-0.387-0.803-0.387c-0.56,0-0.938,0.429-0.938,0.977
	c0,0.555,0.382,0.958,0.952,0.958c0.299,0,0.598-0.146,0.789-0.375v1.098c-0.303,0.094-0.523,0.164-0.808,0.164
	c-0.49,0-0.957-0.188-1.321-0.519c-0.388-0.352-0.566-0.809-0.566-1.332c0-0.481,0.183-0.942,0.518-1.288
	c0.347-0.355,0.846-0.57,1.341-0.57c0.295,0,0.565,0.066,0.836,0.177V55.552z"/>
<rect x="12.267" y="54.371" fill="#46B75C" width="0.916" height="3.521"/>
<path fill="#46B75C" d="M14.817,57.28l-0.243,0.612h-0.971l1.354-3.522h1l1.327,3.522h-0.977l-0.229-0.612H14.817z M15.457,55.459
	h-0.009l-0.379,1.12h0.762L15.457,55.459z"/>
<polygon fill="#46B75C" points="18.623,57.116 19.721,57.116 19.721,57.893 17.707,57.893 17.707,54.37 18.623,54.37 "/>
<polygon fill="#46B75C" points="22.288,54.37 23.188,54.37 23.904,56.253 24.661,54.37 25.571,54.37 26.104,57.893 25.188,57.893 
	24.932,55.864 24.921,55.864 24.077,57.893 23.712,57.893 22.905,55.864 22.895,55.864 22.601,57.893 21.689,57.893 "/>
<polygon fill="#46B75C" points="27.545,55.146 27.545,55.734 28.578,55.734 28.578,56.51 27.545,56.51 27.545,57.116 28.634,57.116 
	28.634,57.893 26.629,57.893 26.629,54.37 28.634,54.37 28.634,55.146 "/>
<path fill="#46B75C" d="M29.337,54.37h1.298c0.981,0,1.79,0.771,1.79,1.762c0,0.989-0.813,1.761-1.79,1.761h-1.298V54.37z
	 M30.252,57.116h0.207c0.546,0,1.012-0.298,1.012-0.984c0-0.631-0.415-0.986-1.004-0.986h-0.215V57.116z"/>
<rect x="32.988" y="54.371" fill="#46B75C" width="0.917" height="3.521"/>
<path fill="#46B75C" d="M35.539,57.28l-0.243,0.612h-0.972l1.355-3.522h1l1.326,3.522h-0.976L36.8,57.28H35.539z M36.179,55.459
	H36.17l-0.379,1.12h0.762L36.179,55.459z"/>
<polygon fill="#46B75C" points="40.558,54.37 41.459,54.37 42.174,56.253 42.931,54.37 43.842,54.37 44.373,57.893 43.459,57.893 
	43.201,55.864 43.191,55.864 42.347,57.893 41.982,57.893 41.175,55.864 41.166,55.864 40.871,57.893 39.959,57.893 "/>
<path fill="#46B75C" d="M48.619,56.066c0,1.14-0.818,1.944-1.948,1.944c-1.131,0-1.949-0.805-1.949-1.944
	c0-1.066,0.935-1.813,1.949-1.813C47.684,54.253,48.619,55,48.619,56.066 M45.676,56.071c0,0.606,0.448,1.05,0.995,1.05
	c0.546,0,0.995-0.443,0.995-1.05c0-0.487-0.449-0.93-0.995-0.93C46.124,55.142,45.676,55.584,45.676,56.071"/>
<polygon fill="#46B75C" points="49.182,54.37 50.098,54.37 51.773,56.523 51.783,56.523 51.783,54.37 52.699,54.37 52.699,57.893 
	51.783,57.893 50.106,55.734 50.098,55.734 50.098,57.893 49.182,57.893 "/>
<path fill="#46B75C" d="M57.154,56.066c0,1.14-0.819,1.944-1.948,1.944c-1.131,0-1.949-0.805-1.949-1.944
	c0-1.066,0.935-1.813,1.949-1.813S57.154,55,57.154,56.066 M54.21,56.071c0,0.606,0.449,1.05,0.996,1.05
	c0.546,0,0.995-0.443,0.995-1.05c0-0.487-0.449-0.93-0.995-0.93C54.659,55.142,54.21,55.584,54.21,56.071"/>
<path fill="#46B75C" d="M57.717,54.371h1.4c0.758,0,1.282,0.349,1.282,1.157c0,0.831-0.451,1.195-1.248,1.195h-0.519v1.169h-0.916
	V54.371z M58.633,55.988h0.153c0.331,0,0.659,0,0.659-0.432c0-0.442-0.303-0.448-0.659-0.448h-0.153V55.988z"/>
<path fill="#46B75C" d="M64.66,56.066c0,1.14-0.816,1.944-1.947,1.944s-1.947-0.805-1.947-1.944c0-1.066,0.934-1.813,1.947-1.813
	C63.728,54.253,64.66,55,64.66,56.066 M61.719,56.071c0,0.606,0.447,1.05,0.994,1.05s0.996-0.443,0.996-1.05
	c0-0.487-0.449-0.93-0.996-0.93S61.719,55.584,61.719,56.071"/>
<polygon fill="#46B75C" points="66.141,57.116 67.239,57.116 67.239,57.893 65.225,57.893 65.225,54.37 66.141,54.37 "/>
<rect x="67.676" y="54.371" fill="#46B75C" width="0.915" height="3.521"/>
<polygon fill="#46B75C" points="70.244,55.146 70.244,55.734 71.277,55.734 71.277,56.51 70.244,56.51 70.244,57.116 71.332,57.116 
	71.332,57.893 69.33,57.893 69.33,54.37 71.332,54.37 71.332,55.146 "/>
<path fill="#46B75C" d="M73.971,55.276c-0.168-0.14-0.383-0.233-0.606-0.233c-0.169,0-0.394,0.099-0.394,0.294
	c0,0.206,0.248,0.284,0.406,0.337l0.234,0.069c0.49,0.146,0.869,0.393,0.869,0.962c0,0.352-0.084,0.711-0.364,0.948
	c-0.276,0.234-0.646,0.333-1,0.333c-0.444,0-0.878-0.15-1.239-0.402l0.395-0.738c0.228,0.202,0.498,0.365,0.811,0.365
	c0.217,0,0.445-0.107,0.445-0.354c0-0.258-0.361-0.347-0.557-0.402c-0.574-0.164-0.953-0.312-0.953-0.996
	c0-0.714,0.511-1.182,1.216-1.182c0.354,0,0.788,0.113,1.101,0.291L73.971,55.276z"/>
<path fill="#46B75C" d="M2.645,62.388l-0.243,0.611H1.431l1.354-3.521h1l1.327,3.521H4.136l-0.23-0.611H2.645z M3.285,60.565H3.276
	l-0.378,1.121h0.761L3.285,60.565z"/>
<polygon fill="#46B75C" points="5.535,59.478 6.451,59.478 8.126,61.631 8.137,61.631 8.137,59.478 9.052,59.478 9.052,62.999 
	8.137,62.999 6.459,60.841 6.451,60.841 6.451,62.999 5.535,62.999 "/>
<path fill="#46B75C" d="M9.789,59.479h1.298c0.981,0,1.789,0.769,1.789,1.761c0,0.989-0.813,1.76-1.789,1.76H9.789V59.479z
	 M10.704,62.224h0.206c0.546,0,1.013-0.299,1.013-0.984c0-0.632-0.415-0.986-1.004-0.986h-0.215V62.224z"/>
<polygon fill="#46B75C" points="16.583,62.999 15.667,62.999 15.667,60.253 14.911,60.253 14.911,59.478 17.339,59.478 
	17.339,60.253 16.583,60.253 "/>
<polygon fill="#46B75C" points="20.047,60.836 20.047,59.478 20.963,59.478 20.963,62.999 20.047,62.999 20.047,61.556 
	18.726,61.556 18.726,62.999 17.81,62.999 17.81,59.478 18.726,59.478 18.726,60.836 "/>
<polygon fill="#46B75C" points="22.614,60.253 22.614,60.841 23.647,60.841 23.647,61.616 22.614,61.616 22.614,62.224 
	23.702,62.224 23.702,62.999 21.699,62.999 21.699,59.478 23.702,59.478 23.702,60.253 "/>
<rect x="24.406" y="59.478" fill="#46B75C" width="0.916" height="3.521"/>
<path fill="#46B75C" d="M28.989,62.999H27.85l-0.865-1.354h-0.009v1.354H26.06v-3.521h1.369c0.696,0,1.223,0.331,1.223,1.083
	c0,0.487-0.271,0.907-0.77,0.995L28.989,62.999z M26.976,61.056h0.089c0.298,0,0.635-0.055,0.635-0.438
	c0-0.383-0.337-0.438-0.635-0.438h-0.089V61.056z"/>
<path fill="#46B75C" d="M32.013,62.388l-0.243,0.611h-0.971l1.354-3.521h1l1.327,3.521h-0.977l-0.229-0.611H32.013z M32.653,60.565
	h-0.009l-0.379,1.121h0.762L32.653,60.565z"/>
<polygon fill="#46B75C" points="35.819,62.224 36.917,62.224 36.917,62.999 34.903,62.999 34.903,59.479 35.819,59.479 "/>
<polygon fill="#46B75C" points="38.499,62.999 37.583,62.999 37.583,60.253 36.827,60.253 36.827,59.478 39.255,59.478 
	39.255,60.253 38.499,60.253 "/>
<polygon fill="#46B75C" points="40.642,60.253 40.642,60.841 41.674,60.841 41.674,61.616 40.642,61.616 40.642,62.224 
	41.729,62.224 41.729,62.999 39.726,62.999 39.726,59.478 41.729,59.478 41.729,60.253 "/>
<path fill="#46B75C" d="M45.363,62.999h-1.14l-0.864-1.354h-0.01v1.354h-0.915v-3.521h1.368c0.695,0,1.225,0.331,1.225,1.083
	c0,0.487-0.271,0.907-0.771,0.995L45.363,62.999z M43.35,61.056h0.089c0.3,0,0.636-0.055,0.636-0.438
	c0-0.383-0.336-0.438-0.636-0.438H43.35V61.056z"/>
<polygon fill="#46B75C" points="45.749,59.478 46.665,59.478 48.342,61.631 48.352,61.631 48.352,59.478 49.268,59.478 
	49.268,62.999 48.352,62.999 46.674,60.841 46.665,60.841 46.665,62.999 45.749,62.999 "/>
<path fill="#46B75C" d="M50.899,62.388l-0.243,0.611h-0.971l1.354-3.521h1l1.328,3.521h-0.977l-0.229-0.611H50.899z M51.539,60.565
	h-0.008l-0.379,1.121h0.762L51.539,60.565z"/>
<polygon fill="#46B75C" points="54.91,62.999 53.996,62.999 53.996,60.253 53.24,60.253 53.24,59.478 55.668,59.478 55.668,60.253 
	54.91,60.253 "/>
<rect x="56.139" y="59.478" fill="#46B75C" width="0.916" height="3.521"/>
<polygon fill="#46B75C" points="59.268,61.616 60.122,59.479 61.117,59.479 59.614,62.999 58.903,62.999 57.422,59.479 
	58.417,59.479 "/>
<polygon fill="#46B75C" points="62.4,60.253 62.4,60.841 63.432,60.841 63.432,61.616 62.4,61.616 62.4,62.224 63.488,62.224 
	63.488,62.999 61.484,62.999 61.484,59.478 63.488,59.478 63.488,60.253 "/>
<path fill="#46B75C" d="M66.127,60.384c-0.168-0.141-0.383-0.234-0.607-0.234c-0.168,0-0.393,0.098-0.393,0.296
	c0,0.204,0.248,0.283,0.406,0.335l0.234,0.07c0.488,0.146,0.868,0.392,0.868,0.962c0,0.351-0.085,0.711-0.364,0.948
	c-0.275,0.233-0.645,0.332-0.999,0.332c-0.446,0-0.878-0.149-1.239-0.402l0.393-0.738c0.229,0.202,0.5,0.365,0.812,0.365
	c0.215,0,0.444-0.108,0.444-0.355c0-0.257-0.358-0.346-0.556-0.4c-0.574-0.164-0.953-0.314-0.953-0.995
	c0-0.715,0.51-1.183,1.214-1.183c0.356,0,0.791,0.111,1.103,0.29L66.127,60.384z"/>
</svg>
