<?xml version="1.0" encoding="UTF-8" standalone="no"?>
<svg viewBox="0 0 1000 1000"
 xmlns="http://www.w3.org/2000/svg" xmlns:xlink="http://www.w3.org/1999/xlink"  version="1.2" baseProfile="tiny">
<title>Qt Svg Document</title>
<desc>Generated with Qt</desc>
<defs>
</defs>
<g fill="none" stroke="black" stroke-width="1" fill-rule="evenodd" stroke-linecap="square" stroke-linejoin="bevel" >

<g fill="#ffffff" fill-opacity="1" stroke="none" transform="matrix(1,0,0,1,0,0)"
font-family="Ubuntu" font-size="10" font-weight="400" font-style="normal" 
>
<path vector-effect="non-scaling-stroke" fill-rule="evenodd" d="M0,0 L-1,0 L-1,-1 L0,-1 L0,0"/>
</g>

<g fill="none" stroke="#000000" stroke-opacity="1" stroke-width="1" stroke-linecap="square" stroke-linejoin="bevel" transform="matrix(1,0,0,1,0,0)"
font-family="Ubuntu" font-size="10" font-weight="400" font-style="normal" 
>
<path vector-effect="non-scaling-stroke" fill-rule="evenodd" d=""/>
</g>

<g fill="#ffffff" fill-opacity="1" stroke="#000000" stroke-opacity="1" stroke-width="1" stroke-linecap="square" stroke-linejoin="bevel" transform="matrix(1,0,0,1,0,0)"
font-family="Ubuntu" font-size="10" font-weight="400" font-style="normal" 
>
<path vector-effect="non-scaling-stroke" fill-rule="evenodd" d="M0,0"/>
</g>

<g fill="#ffffff" fill-opacity="1" stroke="#ffffff" stroke-opacity="1" stroke-width="1" stroke-linecap="square" stroke-linejoin="bevel" transform="matrix(1,0,0,1,0,0)"
font-family="Ubuntu" font-size="10" font-weight="400" font-style="normal" 
>
<path vector-effect="non-scaling-stroke" fill-rule="evenodd" d="M0,0 L1200,0 L1200,400 L0,400 L0,0"/>
</g>

<g fill="#ffffff" fill-opacity="1" stroke="#ffffff" stroke-opacity="1" stroke-width="1" stroke-linecap="square" stroke-linejoin="bevel" transform="matrix(1,0,0,1,0,0)"
font-family="Reglo" font-size="280" font-weight="1000" font-style="normal" 
>
<path vector-effect="non-scaling-stroke" fill-rule="evenodd" d="M0,0"/>
</g>

<g fill="#ffffff" fill-opacity="1" stroke="#000000" stroke-opacity="1" stroke-width="1" stroke-linecap="square" stroke-linejoin="bevel" transform="matrix(1,0,0,1,0,0)"
font-family="Reglo" font-size="280" font-weight="1000" font-style="normal" 
>
<text fill="#000000" fill-opacity="1" stroke="none" xml:space="preserve" x="0" y="280" font-family="Reglo" font-size="280" font-weight="1000" font-style="normal" 
 >SPION</text>
</g>

<g fill="#ffffff" fill-opacity="1" stroke="#000000" stroke-opacity="1" stroke-width="1" stroke-linecap="square" stroke-linejoin="bevel" transform="matrix(0.157982,-0.766244,0.766244,0.157982,-30.7348,252.927)"
font-family="Reglo" font-size="280" font-weight="1000" font-style="normal" 
>
</g>

<g fill="#ffffff" fill-opacity="1" stroke="none" transform="matrix(0.157982,-0.766244,0.766244,0.157982,60.9772,386.591)"
font-family="Reglo" font-size="280" font-weight="1000" font-style="normal" 
>
<path vector-effect="non-scaling-stroke" fill-rule="nonzero" d="M-6.04752,56.5663 L456.808,126.687 L426.978,-141.734 L-9.96552,21.3105 L-6.04752,56.5663"/>
</g>

<g fill="none" stroke="#000000" stroke-opacity="1" stroke-width="0.10184" stroke-linecap="butt" stroke-linejoin="miter" stroke-miterlimit="4" transform="matrix(0.157982,-0.766244,0.766244,0.157982,60.9772,386.591)"
font-family="Reglo" font-size="280" font-weight="1000" font-style="normal" 
>
<path vector-effect="none" fill-rule="nonzero" d="M-6.04752,56.5663 L456.808,126.687 L426.978,-141.734 L-9.96552,21.3105 L-6.04752,56.5663"/>
</g>

<g fill="#ffffff" fill-opacity="1" stroke="#000000" stroke-opacity="1" stroke-width="1" stroke-linecap="square" stroke-linejoin="bevel" transform="matrix(0.157982,-0.766244,0.766244,0.157982,-30.7348,252.927)"
font-family="Reglo" font-size="280" font-weight="1000" font-style="normal" 
>
</g>

<g fill="#ffffff" fill-opacity="1" stroke="#000000" stroke-opacity="1" stroke-width="1" stroke-linecap="square" stroke-linejoin="bevel" transform="matrix(1,0,0,1,0,0)"
font-family="Reglo" font-size="280" font-weight="1000" font-style="normal" 
>
</g>

<g fill="#ffffff" fill-opacity="1" stroke="#000000" stroke-opacity="1" stroke-width="1" stroke-linecap="square" stroke-linejoin="bevel" transform="matrix(-0.277935,0.259712,-0.259712,-0.277935,366.75,215.719)"
font-family="Reglo" font-size="280" font-weight="1000" font-style="normal" 
>
</g>

<g fill="#ffffff" fill-opacity="1" stroke="none" transform="matrix(-0.277935,0.259712,-0.259712,-0.277935,367.9,136.912)"
font-family="Reglo" font-size="280" font-weight="1000" font-style="normal" 
>
<path vector-effect="non-scaling-stroke" fill-rule="nonzero" d="M-6.04752,56.5663 L456.808,126.687 L426.978,-141.734 L-9.96552,21.3105 L-6.04752,56.5663"/>
</g>

<g fill="none" stroke="#000000" stroke-opacity="1" stroke-width="0.10184" stroke-linecap="butt" stroke-linejoin="miter" stroke-miterlimit="4" transform="matrix(-0.277935,0.259712,-0.259712,-0.277935,367.9,136.912)"
font-family="Reglo" font-size="280" font-weight="1000" font-style="normal" 
>
<path vector-effect="none" fill-rule="nonzero" d="M-6.04752,56.5663 L456.808,126.687 L426.978,-141.734 L-9.96552,21.3105 L-6.04752,56.5663"/>
</g>

<g fill="#ffffff" fill-opacity="1" stroke="#000000" stroke-opacity="1" stroke-width="1" stroke-linecap="square" stroke-linejoin="bevel" transform="matrix(-0.277935,0.259712,-0.259712,-0.277935,366.75,215.719)"
font-family="Reglo" font-size="280" font-weight="1000" font-style="normal" 
>
</g>

<g fill="#ffffff" fill-opacity="1" stroke="#000000" stroke-opacity="1" stroke-width="1" stroke-linecap="square" stroke-linejoin="bevel" transform="matrix(1,0,0,1,0,0)"
font-family="Reglo" font-size="280" font-weight="1000" font-style="normal" 
>
</g>

<g fill="#ffffff" fill-opacity="1" stroke="#000000" stroke-opacity="1" stroke-width="1" stroke-linecap="square" stroke-linejoin="bevel" transform="matrix(0.0362459,0.00864469,-0.00864469,0.0362459,497.672,193.699)"
font-family="Reglo" font-size="280" font-weight="1000" font-style="normal" 
>
</g>

<g fill="#ffffff" fill-opacity="1" stroke="none" transform="matrix(0.0362459,0.00864469,-0.00864469,0.0362459,491.174,197.869)"
font-family="Reglo" font-size="280" font-weight="1000" font-style="normal" 
>
<path vector-effect="non-scaling-stroke" fill-rule="nonzero" d="M-6.04752,56.5663 L456.808,126.687 L426.978,-141.734 L-9.96552,21.3105 L-6.04752,56.5663"/>
</g>

<g fill="none" stroke="#000000" stroke-opacity="1" stroke-width="0.10184" stroke-linecap="butt" stroke-linejoin="miter" stroke-miterlimit="4" transform="matrix(0.0362459,0.00864469,-0.00864469,0.0362459,491.174,197.869)"
font-family="Reglo" font-size="280" font-weight="1000" font-style="normal" 
>
<path vector-effect="none" fill-rule="nonzero" d="M-6.04752,56.5663 L456.808,126.687 L426.978,-141.734 L-9.96552,21.3105 L-6.04752,56.5663"/>
</g>

<g fill="#ffffff" fill-opacity="1" stroke="#000000" stroke-opacity="1" stroke-width="1" stroke-linecap="square" stroke-linejoin="bevel" transform="matrix(0.0362459,0.00864469,-0.00864469,0.0362459,497.672,193.699)"
font-family="Reglo" font-size="280" font-weight="1000" font-style="normal" 
>
</g>

<g fill="#ffffff" fill-opacity="1" stroke="#000000" stroke-opacity="1" stroke-width="1" stroke-linecap="square" stroke-linejoin="bevel" transform="matrix(1,0,0,1,0,0)"
font-family="Reglo" font-size="280" font-weight="1000" font-style="normal" 
>
</g>

<g fill="#ffffff" fill-opacity="1" stroke="#000000" stroke-opacity="1" stroke-width="1" stroke-linecap="square" stroke-linejoin="bevel" transform="matrix(-0.375575,0.195757,-0.195757,-0.375575,766.921,236.761)"
font-family="Reglo" font-size="280" font-weight="1000" font-style="normal" 
>
</g>

<g fill="#ffffff" fill-opacity="1" stroke="none" transform="matrix(-0.375575,0.195757,-0.195757,-0.375575,791.646,152.562)"
font-family="Reglo" font-size="280" font-weight="1000" font-style="normal" 
>
<path vector-effect="non-scaling-stroke" fill-rule="nonzero" d="M-6.04752,56.5663 L456.808,126.687 L426.978,-141.734 L-9.96552,21.3105 L-6.04752,56.5663"/>
</g>

<g fill="none" stroke="#000000" stroke-opacity="1" stroke-width="0.10184" stroke-linecap="butt" stroke-linejoin="miter" stroke-miterlimit="4" transform="matrix(-0.375575,0.195757,-0.195757,-0.375575,791.646,152.562)"
font-family="Reglo" font-size="280" font-weight="1000" font-style="normal" 
>
<path vector-effect="none" fill-rule="nonzero" d="M-6.04752,56.5663 L456.808,126.687 L426.978,-141.734 L-9.96552,21.3105 L-6.04752,56.5663"/>
</g>

<g fill="#ffffff" fill-opacity="1" stroke="#000000" stroke-opacity="1" stroke-width="1" stroke-linecap="square" stroke-linejoin="bevel" transform="matrix(-0.375575,0.195757,-0.195757,-0.375575,766.921,236.761)"
font-family="Reglo" font-size="280" font-weight="1000" font-style="normal" 
>
</g>

<g fill="#ffffff" fill-opacity="1" stroke="#000000" stroke-opacity="1" stroke-width="1" stroke-linecap="square" stroke-linejoin="bevel" transform="matrix(1,0,0,1,0,0)"
font-family="Reglo" font-size="280" font-weight="1000" font-style="normal" 
>
</g>

<g fill="#ffffff" fill-opacity="1" stroke="#000000" stroke-opacity="1" stroke-width="1" stroke-linecap="square" stroke-linejoin="bevel" transform="matrix(0.367079,-0.737193,0.737193,0.367079,752.713,218.658)"
font-family="Reglo" font-size="280" font-weight="1000" font-style="normal" 
>
</g>

<g fill="#ffffff" fill-opacity="1" stroke="none" transform="matrix(0.367079,-0.737193,0.737193,0.367079,810.049,379.368)"
font-family="Reglo" font-size="280" font-weight="1000" font-style="normal" 
>
<path vector-effect="non-scaling-stroke" fill-rule="nonzero" d="M-6.04752,56.5663 L456.808,126.687 L426.978,-141.734 L-9.96552,21.3105 L-6.04752,56.5663"/>
</g>

<g fill="none" stroke="#000000" stroke-opacity="1" stroke-width="0.10184" stroke-linecap="butt" stroke-linejoin="miter" stroke-miterlimit="4" transform="matrix(0.367079,-0.737193,0.737193,0.367079,810.049,379.368)"
font-family="Reglo" font-size="280" font-weight="1000" font-style="normal" 
>
<path vector-effect="none" fill-rule="nonzero" d="M-6.04752,56.5663 L456.808,126.687 L426.978,-141.734 L-9.96552,21.3105 L-6.04752,56.5663"/>
</g>

<g fill="#ffffff" fill-opacity="1" stroke="#000000" stroke-opacity="1" stroke-width="1" stroke-linecap="square" stroke-linejoin="bevel" transform="matrix(0.367079,-0.737193,0.737193,0.367079,752.713,218.658)"
font-family="Reglo" font-size="280" font-weight="1000" font-style="normal" 
>
</g>

<g fill="#ffffff" fill-opacity="1" stroke="#000000" stroke-opacity="1" stroke-width="1" stroke-linecap="square" stroke-linejoin="bevel" transform="matrix(1,0,0,1,0,0)"
font-family="Reglo" font-size="280" font-weight="1000" font-style="normal" 
>
<path vector-effect="non-scaling-stroke" fill-rule="evenodd" d="M0,428"/>
</g>

<g fill="#ffffff" fill-opacity="1" stroke="#000000" stroke-opacity="1" stroke-width="1" stroke-linecap="square" stroke-linejoin="bevel" transform="matrix(0.0439478,0.213156,-0.213156,0.0439478,127.579,550.092)"
font-family="Reglo" font-size="280" font-weight="1000" font-style="normal" 
>
</g>

<g fill="#000000" fill-opacity="1" stroke="none" transform="matrix(0.0439478,0.213156,-0.213156,0.0439478,89.4392,526.033)"
font-family="Reglo" font-size="280" font-weight="1000" font-style="normal" 
>
<path vector-effect="non-scaling-stroke" fill-rule="nonzero" d="M-6.04752,56.5663 L456.808,126.687 L426.978,-141.734 L-9.96552,21.3105 L-6.04752,56.5663"/>
</g>

<g fill="none" stroke="#000000" stroke-opacity="1" stroke-width="0.10184" stroke-linecap="butt" stroke-linejoin="miter" stroke-miterlimit="4" transform="matrix(0.0439478,0.213156,-0.213156,0.0439478,89.4392,526.033)"
font-family="Reglo" font-size="280" font-weight="1000" font-style="normal" 
>
<path vector-effect="none" fill-rule="nonzero" d="M-6.04752,56.5663 L456.808,126.687 L426.978,-141.734 L-9.96552,21.3105 L-6.04752,56.5663"/>
</g>

<g fill="#ffffff" fill-opacity="1" stroke="#000000" stroke-opacity="1" stroke-width="1" stroke-linecap="square" stroke-linejoin="bevel" transform="matrix(0.0439478,0.213156,-0.213156,0.0439478,127.579,550.092)"
font-family="Reglo" font-size="280" font-weight="1000" font-style="normal" 
>
</g>

<g fill="#ffffff" fill-opacity="1" stroke="#000000" stroke-opacity="1" stroke-width="1" stroke-linecap="square" stroke-linejoin="bevel" transform="matrix(1,0,0,1,0,0)"
font-family="Reglo" font-size="280" font-weight="1000" font-style="normal" 
>
</g>

<g fill="#ffffff" fill-opacity="1" stroke="#000000" stroke-opacity="1" stroke-width="1" stroke-linecap="square" stroke-linejoin="bevel" transform="matrix(-0.452718,-0.423037,0.423037,-0.452718,281.816,688.211)"
font-family="Reglo" font-size="280" font-weight="1000" font-style="normal" 
>
</g>

<g fill="#000000" fill-opacity="1" stroke="none" transform="matrix(-0.452718,-0.423037,0.423037,-0.452718,410.015,681.388)"
font-family="Reglo" font-size="280" font-weight="1000" font-style="normal" 
>
<path vector-effect="non-scaling-stroke" fill-rule="nonzero" d="M-6.04752,56.5663 L456.808,126.687 L426.978,-141.734 L-9.96552,21.3105 L-6.04752,56.5663"/>
</g>

<g fill="none" stroke="#000000" stroke-opacity="1" stroke-width="0.10184" stroke-linecap="butt" stroke-linejoin="miter" stroke-miterlimit="4" transform="matrix(-0.452718,-0.423037,0.423037,-0.452718,410.015,681.388)"
font-family="Reglo" font-size="280" font-weight="1000" font-style="normal" 
>
<path vector-effect="none" fill-rule="nonzero" d="M-6.04752,56.5663 L456.808,126.687 L426.978,-141.734 L-9.96552,21.3105 L-6.04752,56.5663"/>
</g>

<g fill="#ffffff" fill-opacity="1" stroke="#000000" stroke-opacity="1" stroke-width="1" stroke-linecap="square" stroke-linejoin="bevel" transform="matrix(-0.452718,-0.423037,0.423037,-0.452718,281.816,688.211)"
font-family="Reglo" font-size="280" font-weight="1000" font-style="normal" 
>
</g>

<g fill="#ffffff" fill-opacity="1" stroke="#000000" stroke-opacity="1" stroke-width="1" stroke-linecap="square" stroke-linejoin="bevel" transform="matrix(1,0,0,1,0,0)"
font-family="Reglo" font-size="280" font-weight="1000" font-style="normal" 
>
</g>

<g fill="#ffffff" fill-opacity="1" stroke="#000000" stroke-opacity="1" stroke-width="1" stroke-linecap="square" stroke-linejoin="bevel" transform="matrix(0.936471,-0.22335,0.22335,0.936471,372.85,459.864)"
font-family="Reglo" font-size="280" font-weight="1000" font-style="normal" 
>
</g>

<g fill="#000000" fill-opacity="1" stroke="none" transform="matrix(0.936471,-0.22335,0.22335,0.936471,271.669,631.773)"
font-family="Reglo" font-size="280" font-weight="1000" font-style="normal" 
>
<path vector-effect="non-scaling-stroke" fill-rule="nonzero" d="M-6.04752,56.5663 L456.808,126.687 L426.978,-141.734 L-9.96552,21.3105 L-6.04752,56.5663"/>
</g>

<g fill="none" stroke="#000000" stroke-opacity="1" stroke-width="0.10184" stroke-linecap="butt" stroke-linejoin="miter" stroke-miterlimit="4" transform="matrix(0.936471,-0.22335,0.22335,0.936471,271.669,631.773)"
font-family="Reglo" font-size="280" font-weight="1000" font-style="normal" 
>
<path vector-effect="none" fill-rule="nonzero" d="M-6.04752,56.5663 L456.808,126.687 L426.978,-141.734 L-9.96552,21.3105 L-6.04752,56.5663"/>
</g>

<g fill="#ffffff" fill-opacity="1" stroke="#000000" stroke-opacity="1" stroke-width="1" stroke-linecap="square" stroke-linejoin="bevel" transform="matrix(0.936471,-0.22335,0.22335,0.936471,372.85,459.864)"
font-family="Reglo" font-size="280" font-weight="1000" font-style="normal" 
>
</g>

<g fill="#ffffff" fill-opacity="1" stroke="#000000" stroke-opacity="1" stroke-width="1" stroke-linecap="square" stroke-linejoin="bevel" transform="matrix(1,0,0,1,0,0)"
font-family="Reglo" font-size="280" font-weight="1000" font-style="normal" 
>
</g>

<g fill="#ffffff" fill-opacity="1" stroke="#000000" stroke-opacity="1" stroke-width="1" stroke-linecap="square" stroke-linejoin="bevel" transform="matrix(-0.511199,-0.266447,0.266447,-0.511199,711.153,681.325)"
font-family="Reglo" font-size="280" font-weight="1000" font-style="normal" 
>
</g>

<g fill="#000000" fill-opacity="1" stroke="none" transform="matrix(-0.511199,-0.266447,0.266447,-0.511199,824.373,643.275)"
font-family="Reglo" font-size="280" font-weight="1000" font-style="normal" 
>
<path vector-effect="non-scaling-stroke" fill-rule="nonzero" d="M-6.04752,56.5663 L456.808,126.687 L426.978,-141.734 L-9.96552,21.3105 L-6.04752,56.5663"/>
</g>

<g fill="none" stroke="#000000" stroke-opacity="1" stroke-width="0.10184" stroke-linecap="butt" stroke-linejoin="miter" stroke-miterlimit="4" transform="matrix(-0.511199,-0.266447,0.266447,-0.511199,824.373,643.275)"
font-family="Reglo" font-size="280" font-weight="1000" font-style="normal" 
>
<path vector-effect="none" fill-rule="nonzero" d="M-6.04752,56.5663 L456.808,126.687 L426.978,-141.734 L-9.96552,21.3105 L-6.04752,56.5663"/>
</g>

<g fill="#ffffff" fill-opacity="1" stroke="#000000" stroke-opacity="1" stroke-width="1" stroke-linecap="square" stroke-linejoin="bevel" transform="matrix(-0.511199,-0.266447,0.266447,-0.511199,711.153,681.325)"
font-family="Reglo" font-size="280" font-weight="1000" font-style="normal" 
>
</g>

<g fill="#ffffff" fill-opacity="1" stroke="#000000" stroke-opacity="1" stroke-width="1" stroke-linecap="square" stroke-linejoin="bevel" transform="matrix(1,0,0,1,0,0)"
font-family="Reglo" font-size="280" font-weight="1000" font-style="normal" 
>
</g>

<g fill="#ffffff" fill-opacity="1" stroke="#000000" stroke-opacity="1" stroke-width="1" stroke-linecap="square" stroke-linejoin="bevel" transform="matrix(0.0786597,0.15797,-0.15797,0.0786597,915.83,550.404)"
font-family="Reglo" font-size="280" font-weight="1000" font-style="normal" 
>
</g>

<g fill="#000000" fill-opacity="1" stroke="none" transform="matrix(0.0786597,0.15797,-0.15797,0.0786597,880.943,539.455)"
font-family="Reglo" font-size="280" font-weight="1000" font-style="normal" 
>
<path vector-effect="non-scaling-stroke" fill-rule="nonzero" d="M-6.04752,56.5663 L456.808,126.687 L426.978,-141.734 L-9.96552,21.3105 L-6.04752,56.5663"/>
</g>

<g fill="none" stroke="#000000" stroke-opacity="1" stroke-width="0.10184" stroke-linecap="butt" stroke-linejoin="miter" stroke-miterlimit="4" transform="matrix(0.0786597,0.15797,-0.15797,0.0786597,880.943,539.455)"
font-family="Reglo" font-size="280" font-weight="1000" font-style="normal" 
>
<path vector-effect="none" fill-rule="nonzero" d="M-6.04752,56.5663 L456.808,126.687 L426.978,-141.734 L-9.96552,21.3105 L-6.04752,56.5663"/>
</g>

<g fill="#ffffff" fill-opacity="1" stroke="#000000" stroke-opacity="1" stroke-width="1" stroke-linecap="square" stroke-linejoin="bevel" transform="matrix(0.0786597,0.15797,-0.15797,0.0786597,915.83,550.404)"
font-family="Reglo" font-size="280" font-weight="1000" font-style="normal" 
>
</g>

<g fill="#ffffff" fill-opacity="1" stroke="#000000" stroke-opacity="1" stroke-width="1" stroke-linecap="square" stroke-linejoin="bevel" transform="matrix(1,0,0,1,0,0)"
font-family="Reglo" font-size="280" font-weight="1000" font-style="normal" 
>
<path vector-effect="non-scaling-stroke" fill-rule="evenodd" d="M0,428"/>
</g>

<g fill="#ffffff" fill-opacity="1" stroke="#0000ff" stroke-opacity="1" stroke-width="1" stroke-linecap="square" stroke-linejoin="bevel" transform="matrix(1,0,0,1,0,0)"
font-family="Reglo" font-size="280" font-weight="1000" font-style="normal" 
>
<path vector-effect="non-scaling-stroke" fill-rule="evenodd" d="M15,803 L15,32 M7,350 L963,350 M943,795 L943,26"/>
</g>
</g>
</svg>
