<?xml version="1.0" encoding="UTF-8" standalone="no"?>
<!-- Created with Inkscape (http://www.inkscape.org/) -->

<svg
   xmlns:dc="http://purl.org/dc/elements/1.1/"
   xmlns:cc="http://creativecommons.org/ns#"
   xmlns:rdf="http://www.w3.org/1999/02/22-rdf-syntax-ns#"
   xmlns:svg="http://www.w3.org/2000/svg"
   xmlns="http://www.w3.org/2000/svg"
   xmlns:sodipodi="http://sodipodi.sourceforge.net/DTD/sodipodi-0.dtd"
   xmlns:inkscape="http://www.inkscape.org/namespaces/inkscape"
   version="1.1"
   width="291.0004"
   height="154.1917"
   id="svg3193"
   inkscape:version="0.48.2 r9819"
   sodipodi:docname="SPIONlogo.svg">
  <sodipodi:namedview
     pagecolor="#ffffff"
     bordercolor="#666666"
     borderopacity="1"
     objecttolerance="10"
     gridtolerance="10"
     guidetolerance="10"
     inkscape:pageopacity="0"
     inkscape:pageshadow="2"
     inkscape:window-width="1440"
     inkscape:window-height="844"
     id="namedview4395"
     showgrid="false"
     inkscape:zoom="2.6116803"
     inkscape:cx="102.18054"
     inkscape:cy="87.925761"
     inkscape:window-x="0"
     inkscape:window-y="26"
     inkscape:window-maximized="1"
     inkscape:current-layer="svg3193" />
  <defs
     id="defs3195" />
  <metadata
     id="metadata3198">
    <rdf:RDF>
      <cc:Work
         rdf:about="">
        <dc:format>image/svg+xml</dc:format>
        <dc:type
           rdf:resource="http://purl.org/dc/dcmitype/StillImage" />
        <dc:title />
      </cc:Work>
    </rdf:RDF>
  </metadata>
  <g
     id="g4526">
    <path
       id="path4099"
       d="M 32.125 40.8125 C 24.5259 40.8126 18.02935 43.34035 12.65625 48.40625 C 7.28315 53.47235 4.59375 59.80725 4.59375 67.40625 C 4.59375 72.62585 5.9385 77.22745 8.625 81.21875 C 11.3883 85.21025 14.8068 88.3848 18.875 90.6875 C 20.794 91.7621 23.4351 93.0756 26.8125 94.6875 C 30.1898 96.2227 32.8793 97.5022 34.875 98.5 C 35.575514 98.850275 36.253019 99.261575 36.90625 99.6875 C 37.164306 99.506838 43.935786 94.764534 52.21875 88.90625 C 49.677206 86.398813 46.531083 84.10375 42.71875 82.03125 C 41.33715 81.26375 39.42495 80.30765 36.96875 79.15625 C 34.51245 78.00485 32.50395 77.04895 30.96875 76.28125 C 30.158326 75.812133 29.323374 75.289375 28.46875 74.75 C 28.437383 74.739682 28.406283 74.729378 28.375 74.71875 C 26.916226 74.223166 25.55031 73.38551 24.40625 72.21875 C 23.881839 71.683943 23.439725 71.107665 23.0625 70.5 C 22.93971 70.351505 22.797232 70.212158 22.6875 70.0625 C 21.9199 68.8345 21.53125 67.5549 21.53125 66.25 C 21.53125 65.692233 21.561858 65.163247 21.625 64.65625 C 21.808328 62.358422 22.825947 60.121485 24.65625 58.40625 C 25.91145 57.22995 27.39605 56.43765 28.96875 56.03125 L 50.8125 48.125 C 45.612409 43.24502 39.387585 40.812595 32.125 40.8125 z M 56.6875 55.5625 C 51.705271 60.231506 47.565469 64.115815 43.6875 67.75 C 43.715697 68.018127 43.736865 68.286833 43.75 68.5625 L 59.875 68.5625 C 59.874938 63.775287 58.811101 59.450905 56.6875 55.5625 z M 57.90625 97 L 39.90625 102.03125 C 40.039627 102.15805 40.181651 102.27541 40.3125 102.40625 C 42.0011 104.01815 42.84365 105.79985 42.84375 107.71875 C 42.84365 110.40535 41.83945 112.59265 39.84375 114.28125 C 37.84805 115.96995 35.2721 116.8126 32.125 116.8125 C 29.0547 116.8126 26.4135 115.69475 24.1875 113.46875 C 22.0383 111.24275 20.87225 108.55335 20.71875 105.40625 L 4.59375 105.40625 C 4.59375 112.92855 7.28315 119.4252 12.65625 124.875 C 18.10605 130.2481 24.6027 132.9375 32.125 132.9375 C 39.8776 132.9375 46.4394 130.40985 51.8125 125.34375 C 57.1855 120.27775 59.8749 114.0081 59.875 106.5625 C 59.874966 103.152 59.20211 99.966964 57.90625 97 z "
       style="font-size:280px;font-style:normal;fill:#ff3481;fill-opacity:1;stroke:none;font-family:Reglo" />
    <path
       id="path4113"
       d="M 72.03125 40.8125 L 72.03125 56.9375 L 72.03125 74.75 C 78.531641 70.065159 84.489786 65.740145 88.15625 62.90625 L 88.15625 56.9375 L 99.53125 56.9375 C 102.67825 56.9376 105.36775 58.10355 107.59375 60.40625 C 109.89645 62.63225 111.07925 65.3388 111.15625 68.5625 L 111.15625 71 C 111.51687 75.251313 109.818 79.5875 106.25 82.46875 C 104.4474 83.92445 102.3798 84.83935 100.25 85.21875 L 72.03125 93.0625 L 72.03125 99.53125 L 72.03125 132.9375 L 88.15625 132.9375 L 88.15625 99.53125 L 99.53125 99.53125 C 107.20705 99.53125 113.7519 96.84195 119.125 91.46875 C 124.5748 86.01905 127.28115 79.55365 127.28125 72.03125 L 127.28125 68.5625 C 127.28115 60.8868 124.5748 54.3732 119.125 49 C 113.7519 43.5503 107.20705 40.8125 99.53125 40.8125 L 72.03125 40.8125 z "
       style="font-size:280px;font-style:normal;fill:#ff3481;fill-opacity:1;stroke:none;font-family:Reglo" />
    <path
       id="path4103"
       d="M 138.59375 40.8125 L 138.59375 95.21875 C 139.03299 94.899295 146.11941 89.744055 154.71875 83.40625 L 154.71875 40.8125 L 138.59375 40.8125 z M 154.71875 95.09375 L 138.625 99.78125 L 138.59375 99.4375 L 138.59375 132.9375 L 154.71875 132.9375 L 154.71875 95.09375 z "
       style="font-size:280px;font-style:normal;fill:#ff3481;fill-opacity:1;stroke:none;font-family:Reglo" />
    <path
       id="path4105"
       d="M 195.28125 40.25 C 187.75895 40.2501 181.2623 42.95655 175.8125 48.40625 C 170.4394 53.77945 167.78125 60.3242 167.78125 68 L 167.78125 73.71875 C 175.7872 67.731457 183.20206 62.072584 186.6875 59.125 C 188.69866 57.565241 191.03344 56.727432 193.375 56.5625 C 193.40525 56.556739 193.43842 56.56802 193.46875 56.5625 C 194.06235 56.454473 194.65579 56.390685 195.28125 56.375 C 198.35155 56.3751 201.04095 57.5098 203.34375 59.8125 C 205.64645 62.1153 206.82925 64.8529 206.90625 68 L 206.90625 69.96875 L 206.90625 90.71875 L 223.03125 86.40625 L 223.03125 68 C 223.03115 60.3242 220.29355 53.77945 214.84375 48.40625 C 209.47065 42.95655 202.95705 40.2501 195.28125 40.25 z M 183.875 86.59375 L 167.78125 91.28125 L 167.78125 106 C 167.78125 113.5224 170.4394 119.9877 175.8125 125.4375 C 181.2623 130.8106 187.75895 133.5 195.28125 133.5 C 202.95705 133.5 209.47065 130.8106 214.84375 125.4375 C 220.29355 119.9877 223.03115 113.5224 223.03125 106 L 223.03125 102.6875 C 215.42492 107.76136 208.472 112.45749 204.40625 115.625 C 200.68118 118.28647 195.87407 118.65403 191.875 116.9375 C 191.86521 116.93489 191.85353 116.94013 191.84375 116.9375 C 190.09197 116.46616 188.55454 115.61539 187.21875 114.375 C 185.06945 112.3025 183.952 109.5309 183.875 106 L 183.875 86.59375 z "
       style="font-size:280px;font-style:normal;fill:#ff3481;fill-opacity:1;stroke:none;font-family:Reglo" />
    <path
       id="path4107"
       d="M 235.75 40.8125 L 235.75 82.96875 L 251.84375 78.65625 C 251.84375 78.65625 251.84337 78.686317 251.84375 78.6875 L 251.875 78.75 L 274.78125 132.9375 L 274.875 132.9375 L 290.875 132.9375 L 291 132.9375 L 291 40.8125 L 274.875 40.8125 L 274.875 95.0625 L 251.96875 40.8125 L 251.84375 40.8125 L 235.84375 40.8125 L 235.75 40.8125 z M 251.84375 82.75 C 247.5222 86.103774 241.78442 90.099536 235.75 94.1875 L 235.75 132.9375 L 251.84375 132.9375 L 251.84375 82.75 z "
       style="font-size:280px;font-style:normal;fill:#ff3481;fill-opacity:1;stroke:none;font-family:Reglo" />
    <path
       d="M 0,154.1917"
       id="path4117"
       style="font-size:280px;font-style:normal;fill:none;stroke:#000000;stroke-width:0.41120449;stroke-linecap:square;stroke-linejoin:bevel;stroke-opacity:1;font-family:Reglo"
       inkscape:connector-curvature="0" />
  </g>
</svg>
