<?xml version="1.0" encoding="UTF-8" standalone="no"?>
<!-- Created with Inkscape (http://www.inkscape.org/) -->

<svg
   xmlns:dc="http://purl.org/dc/elements/1.1/"
   xmlns:cc="http://creativecommons.org/ns#"
   xmlns:rdf="http://www.w3.org/1999/02/22-rdf-syntax-ns#"
   xmlns:svg="http://www.w3.org/2000/svg"
   xmlns="http://www.w3.org/2000/svg"
   version="1.1"
   width="291.0004"
   height="154.1917"
   id="svg3193">
  <defs
     id="defs3195" />
  <metadata
     id="metadata3198">
    <rdf:RDF>
      <cc:Work
         rdf:about="">
        <dc:format>image/svg+xml</dc:format>
        <dc:type
           rdf:resource="http://purl.org/dc/dcmitype/StillImage" />
        <dc:title></dc:title>
      </cc:Work>
    </rdf:RDF>
  </metadata>
  <g
     transform="translate(-229.6026,-455.16353)"
     id="layer1">
    <path
       d="m 272.4337,562.87613 c -10e-5,-1.9189 -0.8444,-3.6844 -2.533,-5.2963 -1.612,-1.6119 -3.4158,-2.9168 -5.4115,-3.9147 -1.9957,-0.9978 -4.6823,-2.2643 -8.0596,-3.7995 -3.3774,-1.6119 -6.0255,-2.9552 -7.9445,-4.0298 -4.0682,-2.3027 -7.4839,-5.4498 -10.2472,-9.4413 -2.6865,-3.9913 -4.0298,-8.5968 -4.0298,-13.8164 0,-7.599 2.6865,-13.9316 8.0596,-18.9977 5.3731,-5.0659 11.8591,-7.5989 19.4582,-7.599 7.6758,1e-4 14.2002,2.725 19.5733,8.1747 5.4498,5.3732 8.1747,11.8976 8.1748,19.5733 l -16.1192,0 c -0.1536,-3.2237 -1.3433,-5.9487 -3.5693,-8.1747 -2.226,-2.3027 -4.9125,-3.454 -8.0596,-3.4541 -3.2239,10e-5 -5.7953,0.806 -7.7142,2.4179 -1.919,1.5352 -2.8784,3.8379 -2.8784,6.9082 0,1.3049 0.3838,2.5715 1.1514,3.7995 0.8443,1.1515 2.0724,2.2644 3.6844,3.339 1.6118,1.0747 3.147,2.0342 4.6054,2.8784 1.5352,0.7677 3.5309,1.7271 5.9872,2.8785 2.4562,1.1514 4.3752,2.1109 5.7568,2.8784 11.437,6.2175 17.1554,14.3922 17.1555,24.5242 -10e-5,7.4456 -2.6866,13.7014 -8.0596,18.7674 -5.3731,5.0661 -11.9359,7.5991 -19.6885,7.5991 -7.5223,0 -14.0084,-2.6866 -19.4582,-8.0597 -5.3731,-5.4498 -8.0596,-11.9358 -8.0596,-19.4581 l 16.1192,0 c 0.1535,3.1471 1.3049,5.8336 3.4541,8.0596 2.226,2.226 4.8742,3.339 7.9445,3.3389 3.1471,10e-5 5.7185,-0.8443 7.7142,-2.533 1.9957,-1.6886 2.9935,-3.8762 2.9936,-6.5628"
       id="path4099"
       style="font-size:280px;font-style:normal;fill:#000000;fill-opacity:1;stroke:none;font-family:Reglo" />
    <path
       d="m 356.8923,527.18353 c -10e-5,7.5224 -2.725,14.0085 -8.1748,19.4583 -5.3731,5.3731 -11.8975,8.0596 -19.5733,8.0596 l -11.3986,0 0,33.3898 -16.1192,0 0,-33.3898 0,-16.1193 0,-26.4815 0,-16.1192 27.5178,0 c 7.6758,1e-4 14.2002,2.725 19.5733,8.1747 5.4498,5.3732 8.1747,11.8976 8.1748,19.5733 l 0,3.4541 m -16.1193,0 0,-3.4541 c -0.077,-3.2237 -1.2665,-5.9487 -3.5692,-8.1747 -2.226,-2.3027 -4.9126,-3.454 -8.0596,-3.4541 l -11.3986,0 0,26.4815 11.3986,0 c 3.147,-0.077 5.8719,-1.228 8.1747,-3.4541 2.3027,-2.2259 3.4541,-4.8741 3.4541,-7.9445"
       id="path4101"
       style="font-size:280px;font-style:normal;fill:#000000;fill-opacity:1;stroke:none;font-family:Reglo" />
    <path
       d="m 384.3201,588.09123 -16.1192,0 0,-92.1098 16.1192,0 0,92.1098"
       id="path4103"
       style="font-size:280px;font-style:normal;fill:#000000;fill-opacity:1;stroke:none;font-family:Reglo" />
    <path
       d="m 452.6361,561.14903 c -10e-5,7.5224 -2.725,14.0084 -8.1748,19.4582 -5.3731,5.3731 -11.8975,8.0596 -19.5733,8.0596 -7.5223,0 -14.0084,-2.6865 -19.4582,-8.0596 -5.3731,-5.4498 -8.0596,-11.9358 -8.0596,-19.4582 l 0,-37.9952 c 0,-7.6758 2.6865,-14.2002 8.0596,-19.5734 5.4498,-5.4497 11.9359,-8.1746 19.4582,-8.1747 7.6758,10e-5 14.2002,2.725 19.5733,8.1747 5.4498,5.3732 8.1747,11.8976 8.1748,19.5734 l 0,37.9952 m -16.1192,0 0,-37.9952 c -0.077,-3.1471 -1.2666,-5.872 -3.5693,-8.1748 -2.3028,-2.3027 -4.9893,-3.454 -8.0596,-3.4541 -3.0704,0.077 -5.7569,1.2666 -8.0596,3.5692 -2.226,2.2261 -3.339,4.9126 -3.339,8.0597 l 0,37.9952 c 0.077,3.5309 1.1897,6.3326 3.339,8.4051 2.1492,1.9957 4.8357,2.9936 8.0596,2.9935 3.147,-0.077 5.872,-1.2281 8.1747,-3.4541 2.3027,-2.2259 3.4541,-4.8741 3.4542,-7.9445"
       id="path4105"
       style="font-size:280px;font-style:normal;fill:#000000;fill-opacity:1;stroke:none;font-family:Reglo" />
    <path
       d="m 481.4564,588.09123 -16.1192,0 0,-92.1098 0.1151,0 16.0041,0 0.1151,0 22.9123,54.2296 0,-54.2296 16.1192,0 0,92.1098 -0.1151,0 -16.0041,0 -0.1151,0 -22.9123,-54.2297 0,54.2297"
       id="path4107"
       style="font-size:280px;font-style:normal;fill:#000000;fill-opacity:1;stroke:none;font-family:Reglo" />
    <path
       d="m 416.8324,568.64933 c 4.2259,5.0591 11.8082,5.963 17.1685,2.1332 l 0,0.012 c 9.53755,-7.43043 34.84566,-23.06111 47.6392,-33.02817 0.86204,-0.67158 -0.19128,-3.94056 -0.19128,-3.94056 l -57.08742,15.34453 c -2.0062,0.3448 -3.954,1.1704 -5.652,2.4933 -5.3774,4.1894 -6.2197,11.7921 -1.8817,16.9854 z"
       id="path4109"
       style="fill:#ffffff;fill-opacity:1;fill-rule:nonzero;stroke:none" />
    <path
       d="m 254.0196,527.38633 c 3.7395,3.8137 9.8465,4.0589 13.8344,0.6252 l 9e-4,0.01 c 7.5252,-7.0522 26.099,-24.4582 35.0622,-32.858 l -44.3358,16.0191 c -1.5727,0.4064 -3.0636,1.1973 -4.3188,2.3736 -3.975,3.7251 -4.0854,9.9157 -0.2467,13.8305 z"
       id="path4111"
       style="fill:#ffffff;fill-opacity:1;fill-rule:nonzero;stroke:none" />
    <path
       d="m 356.8923,527.18353 c -10e-5,7.5224 -2.725,14.0085 -8.1748,19.4582 -5.3731,5.3732 -11.8975,8.0597 -19.5733,8.0597 l -11.3986,0 0,33.3898 -16.1192,0 0,-33.3898 0,-16.1193 0,-26.4815 0,-16.1192 27.5178,0 c 7.6758,0 14.2002,2.725 19.5733,8.1747 5.4498,5.3732 8.1747,11.8976 8.1748,19.5733 l 0,3.4541 m -16.1193,0 0,-3.4541 c -0.077,-3.2237 -1.2665,-5.9487 -3.5692,-8.1747 -2.226,-2.3027 -4.9126,-3.454 -8.0596,-3.4541 l -11.3986,0 0,26.4815 11.3986,0 c 3.147,-0.077 5.8719,-1.228 8.1747,-3.4541 2.3027,-2.2259 3.4541,-4.8741 3.4541,-7.9445"
       id="path4113"
       style="font-size:280px;font-style:normal;fill:#000000;fill-opacity:1;stroke:none;font-family:Reglo" />
    <path
       d="m 337.8558,518.95223 c -4.4863,-5.5669 -12.5359,-6.5616 -18.2265,-2.3474 l 0,-0.014 c -10.05906,8.12285 -53.35062,38.42635 -53.35062,38.42635 l 2.99542,2.23655 60.5887,-16.8678 c 2.1298,-0.3794 4.1977,-1.2879 6.0003,-2.7436 5.7088,-4.61 6.603,-12.9759 1.9977,-18.6906 z"
       id="path4115"
       style="fill:#ffffff;fill-opacity:1;fill-rule:nonzero;stroke:none" />
    <path
       d="M 229.6026,609.35523"
       id="path4117"
       style="font-size:280px;font-style:normal;fill:none;stroke:#000000;stroke-width:0.41120449;stroke-linecap:square;stroke-linejoin:bevel;stroke-opacity:1;font-family:Reglo" />
    <path
       d="m 433.7011,516.64513 c -4.2839,-5.567 -11.9701,-6.5616 -17.4039,-2.3474 l 0,-0.014 c -9.53101,8.06024 -48.45491,36.36102 -48.45491,36.36102 l 0.37241,4.30188 57.8541,-16.8678 c 2.0337,-0.3794 4.0083,-1.2879 5.7295,-2.7436 5.4511,-4.61 6.305,-12.9759 1.9075,-18.6906 z"
       id="path4119"
       style="fill:#ffffff;fill-opacity:1;fill-rule:nonzero;stroke:none" />
  </g>
</svg>
