<?xml version="1.0" encoding="UTF-8" standalone="no"?>
<!-- Created with Inkscape (http://www.inkscape.org/) -->

<svg
   xmlns:dc="http://purl.org/dc/elements/1.1/"
   xmlns:cc="http://creativecommons.org/ns#"
   xmlns:rdf="http://www.w3.org/1999/02/22-rdf-syntax-ns#"
   xmlns:svg="http://www.w3.org/2000/svg"
   xmlns="http://www.w3.org/2000/svg"
   xmlns:sodipodi="http://sodipodi.sourceforge.net/DTD/sodipodi-0.dtd"
   xmlns:inkscape="http://www.inkscape.org/namespaces/inkscape"
   width="293.12122"
   height="113.23459"
   id="svg3193"
   version="1.1"
   inkscape:version="0.48.2 r9819"
   sodipodi:docname="SPIONlogoblack.svg">
  <defs
     id="defs3195" />
  <sodipodi:namedview
     id="base"
     pagecolor="#ffffff"
     bordercolor="#666666"
     borderopacity="1.0"
     inkscape:pageopacity="0.0"
     inkscape:pageshadow="2"
     inkscape:zoom="2.8284271"
     inkscape:cx="94.872996"
     inkscape:cy="9.4484383"
     inkscape:document-units="px"
     inkscape:current-layer="layer1"
     showgrid="false"
     fit-margin-top="0"
     fit-margin-left="0"
     fit-margin-right="0"
     fit-margin-bottom="0"
     inkscape:window-width="1440"
     inkscape:window-height="844"
     inkscape:window-x="0"
     inkscape:window-y="26"
     inkscape:window-maximized="1" />
  <metadata
     id="metadata3198">
    <rdf:RDF>
      <cc:Work
         rdf:about="">
        <dc:format>image/svg+xml</dc:format>
        <dc:type
           rdf:resource="http://purl.org/dc/dcmitype/StillImage" />
        <dc:title></dc:title>
      </cc:Work>
    </rdf:RDF>
  </metadata>
  <g
     inkscape:label="Layer 1"
     inkscape:groupmode="layer"
     id="layer1"
     transform="translate(-226.33392,-490.76329)">
    <g
       id="g3176"
       transform="translate(-4,0)">
      <path
         transform="translate(226.33392,490.76329)"
         id="path4099-4"
         d="M 35.25,9.90625 C 27.6509,9.90635 21.15435,12.4341 15.78125,17.5 c -5.3731,5.0661 -8.0625,11.401 -8.0625,19 0,5.2196 1.34475,9.8212 4.03125,13.8125 2.7633,3.9915 6.1818,7.16605 10.25,9.46875 1.919,1.0746 4.5601,2.3881 7.9375,4 3.3773,1.5352 6.0668,2.8147 8.0625,3.8125 0.703741,0.351888 1.376074,0.760623 2.03125,1.1875 0.281365,-0.196983 7.032482,-4.956203 15.3125,-10.8125 -2.536338,-2.496223 -5.703551,-4.779885 -9.5,-6.84375 C 44.46215,50.3575 42.5187,49.4014 40.0625,48.25 37.6062,47.0986 35.62895,46.1427 34.09375,45.375 33.25941,44.89204 32.384574,44.370915 31.5,43.8125 c -1.458774,-0.495584 -2.82469,-1.33324 -3.96875,-2.5 -0.479837,-0.48935 -0.893407,-1.011292 -1.25,-1.5625 -0.0049,-0.0076 0.0049,-0.02369 0,-0.03125 -0.165399,-0.193203 -0.356711,-0.367075 -0.5,-0.5625 -0.7676,-1.228 -1.125,-2.5076 -1.125,-3.8125 0,-0.654927 0.03769,-1.258675 0.125,-1.84375 0.0078,-0.07304 0.02182,-0.145879 0.03125,-0.21875 0.0085,-0.04985 -0.0091,-0.106925 0,-0.15625 0.30257,-2.077303 1.303547,-4.064485 2.96875,-5.625 1.2552,-1.1763 2.7398,-1.9686 4.3125,-2.375 L 53.9375,17.21875 C 48.736368,12.340003 42.512585,9.9063446 35.25,9.90625 z M 59.8125,24.6875 c -4.988544,4.674924 -9.153681,8.55369 -13.03125,12.1875 0.02671,0.258747 0.0811,0.515736 0.09375,0.78125 l 16.125,0 C 62.999938,32.883913 61.919229,28.569749 59.8125,24.6875 z M 61.03125,66.09375 43,71.125 c 0.133313,0.126693 0.275401,0.244159 0.40625,0.375 1.6886,1.6119 2.53115,3.3936 2.53125,5.3125 -1e-4,2.6866 -1.0043,4.8739 -3,6.5625 -1.9957,1.6887 -4.5404,2.53135 -7.6875,2.53125 -3.0703,1e-4 -5.74275,-1.11775 -7.96875,-3.34375 -2.1492,-2.226 -3.284,-4.9154 -3.4375,-8.0625 l -16.125,0 c 0,7.5223 2.6894,14.01895 8.0625,19.46875 5.4498,5.3731 11.94645,8.0625 19.46875,8.0625 7.7526,0 14.3144,-2.52765 19.6875,-7.59375 5.373,-5.066 8.0624,-11.33565 8.0625,-18.78125 -3.4e-5,-3.410501 -0.672778,-6.594476 -1.96875,-9.5625 z"
         style="font-size:280px;font-style:normal;fill:#000000;fill-opacity:1;stroke:none;font-family:Reglo"
         inkscape:connector-curvature="0" />
      <path
         transform="translate(226.33392,490.76329)"
         id="path4101-3"
         d="m 75.125,9.90625 0,16.125 0,17.84375 C 81.639639,39.180141 87.576785,34.839113 91.25,32 l 0,-5.96875 11.40625,0 c 3.147,10e-5 5.8365,1.16605 8.0625,3.46875 2.3027,2.226 3.4855,4.93255 3.5625,8.15625 l 0,2.4375 c 0.36062,4.251313 -1.33825,8.5875 -4.90625,11.46875 -1.8026,1.4557 -3.8702,2.3706 -6,2.75 l -28.25,7.875 0,6.4375 0,33.40625 16.125,0 0,-33.40625 11.40625,0 c 7.6758,0 14.1894,-2.6894 19.5625,-8.0625 5.4498,-5.4498 8.1874,-11.9151 8.1875,-19.4375 l 0,-3.46875 c -1e-4,-7.6757 -2.7377,-14.1893 -8.1875,-19.5625 -5.3731,-5.4497 -11.8867,-8.1874 -19.5625,-8.1875 l -27.53125,0 z"
         style="font-size:280px;font-style:normal;fill:#000000;fill-opacity:1;stroke:none;font-family:Reglo"
         inkscape:connector-curvature="0" />
      <path
         transform="translate(226.33392,490.76329)"
         id="path4103-8"
         d="m 141.71875,9.90625 0,54.375 c 0.48117,-0.349956 7.53947,-5.48471 16.125,-11.8125 l 0,-42.5625 -16.125,0 z m 16.125,54.28125 -16.125,4.6875 0,33.15625 16.125,0 0,-37.84375 z"
         style="font-size:280px;font-style:normal;fill:#000000;fill-opacity:1;stroke:none;font-family:Reglo"
         inkscape:connector-curvature="0" />
      <path
         transform="translate(226.33392,490.76329)"
         id="path4105-1"
         d="m 198.40625,9.34375 c -7.5223,10e-5 -14.01895,2.70655 -19.46875,8.15625 -5.3731,5.3732 -8.0625,11.91795 -8.0625,19.59375 l 0,5.71875 c 8.00654,-5.987715 15.45184,-11.645979 18.9375,-14.59375 2.01116,-1.559759 4.31469,-2.397568 6.65625,-2.5625 0.0294,-0.0056 0.0642,0.0054 0.0937,0 0.59704,-0.109258 1.21446,-0.171718 1.84375,-0.1875 3.0703,10e-5 5.7597,1.1348 8.0625,3.4375 2.3027,2.3028 3.4855,5.0404 3.5625,8.1875 l 0,1.96875 0,20.75 16.125,-4.3125 0,-18.40625 C 226.1561,29.41795 223.4185,22.8732 217.9687,17.5 212.5956,12.0503 206.082,9.34385 198.4062,9.34375 z M 187,55.6875 l -16.125,4.6875 0,14.71875 c 0,7.5224 2.6894,13.9877 8.0625,19.4375 5.4498,5.3731 11.94645,8.0625 19.46875,8.0625 7.6758,0 14.1894,-2.6894 19.5625,-8.0625 5.4498,-5.4498 8.1874,-11.9151 8.1875,-19.4375 l 0,-3.3125 c -7.60633,5.073862 -14.5905,9.769991 -18.65625,12.9375 -3.68521,2.632987 -8.40202,3.028854 -12.375,1.375 -0.01,-0.0024 -0.0215,0.0025 -0.0312,0 -1.8024,-0.454719 -3.38313,-1.324507 -4.75,-2.59375 C 188.19445,81.4275 187.077,78.62465 187,75.09375 l 0,-19.40625 z"
         style="font-size:280px;font-style:normal;fill:#000000;fill-opacity:1;stroke:none;font-family:Reglo"
         inkscape:connector-curvature="0" />
      <path
         transform="translate(226.33392,490.76329)"
         id="path4107-2"
         d="m 238.84375,9.90625 0,42.1875 16.125,-4.34375 c 0,0 -3.8e-4,0.03007 0,0.03125 l 0.0312,0.0625 22.875,54.1875 0.125,0 16,0 0.125,0 0,-92.125 -16.125,0 0,54.25 -22.90625,-54.25 -0.125,0 -16,0 -0.125,0 z m 16.125,41.9375 c -4.32672,3.357785 -10.08258,7.34439 -16.125,11.4375 l 0,38.75 16.125,0 0,-50.1875 z"
         style="font-size:280px;font-style:normal;fill:#000000;fill-opacity:1;stroke:none;font-family:Reglo"
         inkscape:connector-curvature="0" />
      <path
         style="font-size:280px;font-style:normal;fill:none;stroke:#000000;stroke-width:0.41120449;stroke-linecap:square;stroke-linejoin:bevel;stroke-opacity:1;font-family:Reglo"
         vector-effect="non-scaling-stroke"
         d="M 229.44784,614.04884"
         id="path4117-9"
         inkscape:connector-curvature="0" />
    </g>
  </g>
</svg>
