<?xml version="1.0" encoding="UTF-8" standalone="no"?>
<!-- Created with Inkscape (http://www.inkscape.org/) -->

<svg
   xmlns:dc="http://purl.org/dc/elements/1.1/"
   xmlns:cc="http://creativecommons.org/ns#"
   xmlns:rdf="http://www.w3.org/1999/02/22-rdf-syntax-ns#"
   xmlns:svg="http://www.w3.org/2000/svg"
   xmlns="http://www.w3.org/2000/svg"
   xmlns:sodipodi="http://sodipodi.sourceforge.net/DTD/sodipodi-0.dtd"
   xmlns:inkscape="http://www.inkscape.org/namespaces/inkscape"
   width="120"
   height="46"
   id="svg3193"
   version="1.1"
   inkscape:version="0.48.3.1 r9886"
   sodipodi:docname="SPIONlogoblack.svg">
  <defs
     id="defs3195" />
  <sodipodi:namedview
     id="base"
     pagecolor="#ffffff"
     bordercolor="#666666"
     borderopacity="1.0"
     inkscape:pageopacity="0.0"
     inkscape:pageshadow="2"
     inkscape:zoom="1.4142136"
     inkscape:cx="151.44154"
     inkscape:cy="164.42349"
     inkscape:document-units="px"
     inkscape:current-layer="layer1"
     showgrid="false"
     fit-margin-top="0"
     fit-margin-left="0"
     fit-margin-right="0"
     fit-margin-bottom="0"
     inkscape:window-width="1362"
     inkscape:window-height="729"
     inkscape:window-x="0"
     inkscape:window-y="18"
     inkscape:window-maximized="0" />
  <metadata
     id="metadata3198">
    <rdf:RDF>
      <cc:Work
         rdf:about="">
        <dc:format>image/svg+xml</dc:format>
        <dc:type
           rdf:resource="http://purl.org/dc/dcmitype/StillImage" />
        <dc:title />
      </cc:Work>
    </rdf:RDF>
  </metadata>
  <g
     inkscape:label="Layer 1"
     inkscape:groupmode="layer"
     id="layer1"
     transform="translate(-226.33392,-557.99788)">
    <g
       id="g4058"
       transform="matrix(0,-5.5384078,5.5384078,0,-2380.8748,986.40585)">
      <path
         inkscape:connector-curvature="0"
         id="path4105-6"
         style="font-size:280px;font-style:normal;fill:#000000;fill-opacity:1;stroke:none;font-family:Reglo"
         d="m 193.68833,461.94433 c -1e-4,7.5224 -2.725,14.0084 -8.1748,19.4582 -5.3731,5.3731 -11.8975,8.0596 -19.5733,8.0596 -7.5223,0 -14.0084,-2.6865 -19.4582,-8.0596 -5.3731,-5.4498 -8.0596,-11.9358 -8.0596,-19.4582 l 0,-37.9952 c 0,-7.6758 2.6865,-14.2002 8.0596,-19.5734 5.4498,-5.4497 11.9359,-8.1746 19.4582,-8.1747 7.6758,10e-5 14.2002,2.725 19.5733,8.1747 5.4498,5.3732 8.1747,11.8976 8.1748,19.5734 l 0,37.9952 m -16.1192,0 0,-37.9952 c -0.077,-3.1471 -1.2666,-5.872 -3.5693,-8.1748 -2.3028,-2.3027 -4.9893,-3.454 -8.0596,-3.4541 -3.0704,0.077 -5.7569,1.2666 -8.0596,3.5692 -2.226,2.2261 -3.339,4.9126 -3.339,8.0597 l 0,37.9952 c 0.077,3.5309 1.1897,6.3326 3.339,8.4051 2.1492,1.9957 4.8357,2.9936 8.0596,2.9935 3.147,-0.077 5.872,-1.2281 8.1747,-3.4541 2.3027,-2.2259 3.4541,-4.8741 3.4542,-7.9445" />
      <path
         sodipodi:nodetypes="cccsccssc"
         inkscape:connector-curvature="0"
         id="path4109-2"
         d="m 157.88463,469.44463 c 4.2259,5.0591 11.8082,5.963 17.1685,2.1332 l 0,0.012 c 9.53755,-7.43043 34.84566,-23.06111 47.6392,-33.02817 0.86204,-0.67158 -0.19128,-3.94056 -0.19128,-3.94056 l -57.08742,15.34453 c -2.0062,0.3448 -3.954,1.1704 -5.652,2.4933 -5.3774,4.1894 -6.2197,11.7921 -1.8817,16.9854 z"
         style="fill:#ffffff;fill-opacity:1;fill-rule:nonzero;stroke:none" />
      <path
         sodipodi:nodetypes="ccccccssc"
         inkscape:connector-curvature="0"
         id="path4119-4"
         d="m 174.75333,417.44043 c -4.2839,-5.567 -11.9701,-6.5616 -17.4039,-2.3474 l 0,-0.014 c -9.53101,8.06024 -48.45491,36.36102 -48.45491,36.36102 l 0.37241,4.30188 57.8541,-16.8678 c 2.0337,-0.3794 4.0083,-1.2879 5.7295,-2.7436 5.4511,-4.61 6.305,-12.9759 1.9075,-18.6906 z"
         style="fill:#ffffff;fill-opacity:1;fill-rule:nonzero;stroke:none" />
    </g>
    <g
       id="g4162"
       transform="translate(-386.73001,-168.10765)">
      <path
         inkscape:connector-curvature="0"
         id="path4099-4"
         style="font-size:280px;font-style:normal;fill:#000000;fill-opacity:1;stroke:none;font-family:Reglo"
         d="m 403.0363,336.86918 c -10e-5,-1.9189 -0.8444,-3.6844 -2.533,-5.2963 -1.612,-1.6119 -3.4158,-2.9168 -5.4115,-3.9147 -1.9957,-0.9978 -4.6823,-2.2643 -8.0596,-3.7995 -3.3774,-1.6119 -6.0255,-2.9552 -7.9445,-4.0298 -4.0682,-2.3027 -7.4839,-5.4498 -10.2472,-9.4413 -2.6865,-3.9913 -4.0298,-8.5968 -4.0298,-13.8164 0,-7.599 2.6865,-13.9316 8.0596,-18.9977 5.3731,-5.0659 11.8591,-7.5989 19.4582,-7.599 7.6758,10e-5 14.2002,2.725 19.5733,8.1747 5.4498,5.3732 8.1747,11.8976 8.1748,19.5733 l -16.1192,0 c -0.1536,-3.2237 -1.3433,-5.9487 -3.5693,-8.1747 -2.226,-2.3027 -4.9125,-3.454 -8.0596,-3.4541 -3.2239,10e-5 -5.7953,0.806 -7.7142,2.4179 -1.919,1.5352 -2.8784,3.8379 -2.8784,6.9082 0,1.3049 0.3838,2.5715 1.1514,3.7995 0.8443,1.1515 2.0724,2.2644 3.6844,3.339 1.6118,1.0747 3.147,2.0342 4.6054,2.8784 1.5352,0.7677 3.5309,1.7271 5.9872,2.8785 2.4562,1.1514 4.3752,2.1109 5.7568,2.8784 11.437,6.2175 17.1554,14.3922 17.1555,24.5242 -10e-5,7.4456 -2.6866,13.7014 -8.0596,18.7674 -5.3731,5.0661 -11.9359,7.5991 -19.6885,7.5991 -7.5223,0 -14.0084,-2.6866 -19.4582,-8.0597 -5.3731,-5.4498 -8.0596,-11.9358 -8.0596,-19.4581 l 16.1192,0 c 0.1535,3.1471 1.3049,5.8336 3.4541,8.0596 2.226,2.226 4.8742,3.339 7.9445,3.3389 3.1471,10e-5 5.7185,-0.8443 7.7142,-2.533 1.9957,-1.6886 2.9935,-3.8762 2.9936,-6.5628" />
      <path
         inkscape:connector-curvature="0"
         id="path4101-3"
         style="font-size:280px;font-style:normal;fill:#000000;fill-opacity:1;stroke:none;font-family:Reglo"
         d="m 487.4949,301.17658 c -10e-5,7.5224 -2.725,14.0085 -8.1748,19.4583 -5.3731,5.3731 -11.8975,8.0596 -19.5733,8.0596 l -11.3986,0 0,33.3898 -16.1192,0 0,-33.3898 0,-16.1193 0,-26.4815 0,-16.1192 27.5178,0 c 7.6758,10e-5 14.2002,2.725 19.5733,8.1747 5.4498,5.3732 8.1747,11.8976 8.1748,19.5733 l 0,3.4541 m -16.1193,0 0,-3.4541 c -0.077,-3.2237 -1.2665,-5.9487 -3.5692,-8.1747 -2.226,-2.3027 -4.9126,-3.454 -8.0596,-3.4541 l -11.3986,0 0,26.4815 11.3986,0 c 3.147,-0.077 5.8719,-1.228 8.1747,-3.4541 2.3027,-2.2259 3.4541,-4.8741 3.4541,-7.9445" />
      <path
         inkscape:connector-curvature="0"
         id="path4103-8"
         style="font-size:280px;font-style:normal;fill:#000000;fill-opacity:1;stroke:none;font-family:Reglo"
         d="m 514.9227,362.08428 -16.1192,0 0,-92.1098 16.1192,0 0,92.1098" />
      <path
         inkscape:connector-curvature="0"
         id="path4105-1"
         style="font-size:280px;font-style:normal;fill:#000000;fill-opacity:1;stroke:none;font-family:Reglo"
         d="m 583.2387,335.14208 c -10e-5,7.5224 -2.725,14.0084 -8.1748,19.4582 -5.3731,5.3731 -11.8975,8.0596 -19.5733,8.0596 -7.5223,0 -14.0084,-2.6865 -19.4582,-8.0596 -5.3731,-5.4498 -8.0596,-11.9358 -8.0596,-19.4582 l 0,-37.9952 c 0,-7.6758 2.6865,-14.2002 8.0596,-19.5734 5.4498,-5.4497 11.9359,-8.1746 19.4582,-8.1747 7.6758,1e-4 14.2002,2.725 19.5733,8.1747 5.4498,5.3732 8.1747,11.8976 8.1748,19.5734 l 0,37.9952 m -16.1192,0 0,-37.9952 c -0.077,-3.1471 -1.2666,-5.872 -3.5693,-8.1748 -2.3028,-2.3027 -4.9893,-3.454 -8.0596,-3.4541 -3.0704,0.077 -5.7569,1.2666 -8.0596,3.5692 -2.226,2.2261 -3.339,4.9126 -3.339,8.0597 l 0,37.9952 c 0.077,3.5309 1.1897,6.3326 3.339,8.4051 2.1492,1.9957 4.8357,2.9936 8.0596,2.9935 3.147,-0.077 5.872,-1.2281 8.1747,-3.4541 2.3027,-2.2259 3.4541,-4.8741 3.4542,-7.9445" />
      <path
         inkscape:connector-curvature="0"
         id="path4107-2"
         style="font-size:280px;font-style:normal;fill:#000000;fill-opacity:1;stroke:none;font-family:Reglo"
         d="m 612.059,362.08428 -16.1192,0 0,-92.1098 0.1151,0 16.0041,0 0.1151,0 22.9123,54.2296 0,-54.2296 16.1192,0 0,92.1098 -0.1151,0 -16.0041,0 -0.1151,0 -22.9123,-54.2297 0,54.2297" />
      <path
         sodipodi:nodetypes="cccsccssc"
         inkscape:connector-curvature="0"
         id="path4109-7"
         d="m 547.435,342.64238 c 4.2259,5.0591 11.8082,5.963 17.1685,2.1332 l 0,0.012 c 9.53755,-7.43043 34.84566,-23.06111 47.6392,-33.02817 0.86204,-0.67158 -0.19128,-3.94056 -0.19128,-3.94056 L 554.964,323.16338 c -2.0062,0.3448 -3.954,1.1704 -5.652,2.4933 -5.3774,4.1894 -6.2197,11.7921 -1.8817,16.9854 z"
         style="fill:#ffffff;fill-opacity:1;fill-rule:nonzero;stroke:none" />
      <path
         sodipodi:nodetypes="sccccss"
         inkscape:connector-curvature="0"
         id="path4111-1"
         d="m 384.6222,301.37938 c 3.7395,3.8137 9.8465,4.0589 13.8344,0.6252 l 9e-4,0.01 c 7.5252,-7.0522 26.099,-24.4582 35.0622,-32.858 l -44.3358,16.0191 c -1.5727,0.4064 -3.0636,1.1973 -4.3188,2.3736 -3.975,3.7251 -4.0854,9.9157 -0.2467,13.8305 z"
         style="fill:#ffffff;fill-opacity:1;fill-rule:nonzero;stroke:none" />
      <path
         d="m 487.4949,301.17658 c -10e-5,7.5224 -2.725,14.0085 -8.1748,19.4582 -5.3731,5.3732 -11.8975,8.0597 -19.5733,8.0597 l -11.3986,0 0,33.3898 -16.1192,0 0,-33.3898 0,-16.1193 0,-26.4815 0,-16.1192 27.5178,0 c 7.6758,0 14.2002,2.725 19.5733,8.1747 5.4498,5.3732 8.1747,11.8976 8.1748,19.5733 l 0,3.4541 m -16.1193,0 0,-3.4541 c -0.077,-3.2237 -1.2665,-5.9487 -3.5692,-8.1747 -2.226,-2.3027 -4.9126,-3.454 -8.0596,-3.4541 l -11.3986,0 0,26.4815 11.3986,0 c 3.147,-0.077 5.8719,-1.228 8.1747,-3.4541 2.3027,-2.2259 3.4541,-4.8741 3.4541,-7.9445"
         style="font-size:280px;font-style:normal;fill:#000000;fill-opacity:1;stroke:none;font-family:Reglo"
         id="path4113-5"
         inkscape:connector-curvature="0" />
      <path
         style="fill:#ffffff;fill-opacity:1;fill-rule:nonzero;stroke:none"
         d="m 468.4584,292.94528 c -4.4863,-5.5669 -12.5359,-6.5616 -18.2265,-2.3474 l 0,-0.014 c -10.05906,8.12285 -53.35062,38.42635 -53.35062,38.42635 l 2.99542,2.23655 60.5887,-16.8678 c 2.1298,-0.3794 4.1977,-1.2879 6.0003,-2.7436 5.7088,-4.61 6.603,-12.9759 1.9977,-18.6906 z"
         id="path4115-5"
         inkscape:connector-curvature="0"
         sodipodi:nodetypes="ccccccssc" />
      <path
         style="font-size:280px;font-style:normal;fill:none;stroke:#000000;stroke-width:0.41120449;stroke-linecap:square;stroke-linejoin:bevel;stroke-opacity:1;font-family:Reglo"
         vector-effect="non-scaling-stroke"
         d="M 360.2052,383.34828"
         id="path4117-9"
         inkscape:connector-curvature="0" />
      <path
         sodipodi:nodetypes="ccccccssc"
         inkscape:connector-curvature="0"
         id="path4119-5"
         d="m 564.3037,290.63818 c -4.2839,-5.567 -11.9701,-6.5616 -17.4039,-2.3474 l 0,-0.014 c -9.53101,8.06024 -48.45491,36.36102 -48.45491,36.36102 l 0.37241,4.30188 57.8541,-16.8678 c 2.0337,-0.3794 4.0083,-1.2879 5.7295,-2.7436 5.4511,-4.61 6.305,-12.9759 1.9075,-18.6906 z"
         style="fill:#ffffff;fill-opacity:1;fill-rule:nonzero;stroke:none" />
    </g>
    <g
       id="g5344"
       transform="matrix(0.40944091,0,0,0.40944091,133.25868,361.39084)">
      <path
         inkscape:connector-curvature="0"
         id="path4099"
         d="m 259.87313,491.32579 c -7.5991,1e-4 -14.09565,2.52785 -19.46875,7.59375 -5.3731,5.0661 -8.0625,11.401 -8.0625,19 0,5.2196 1.34475,9.8212 4.03125,13.8125 2.7633,3.9915 6.1818,7.16605 10.25,9.46875 1.919,1.0746 4.5601,2.3881 7.9375,4 3.3773,1.5352 6.0668,2.8147 8.0625,3.8125 0.70051,0.35027 1.37802,0.76158 2.03125,1.1875 0.25806,-0.18066 7.02954,-4.92297 15.3125,-10.78125 -2.54154,-2.50744 -5.68767,-4.8025 -9.5,-6.875 -1.3816,-0.7675 -3.2938,-1.7236 -5.75,-2.875 -2.4563,-1.1514 -4.4648,-2.1073 -6,-2.875 -0.81042,-0.46912 -1.64538,-0.99188 -2.5,-1.53125 -0.0314,-0.0103 -0.0625,-0.0206 -0.0937,-0.0312 -1.45877,-0.49558 -2.82469,-1.33324 -3.96875,-2.5 -0.52441,-0.53481 -0.96652,-1.11108 -1.34375,-1.71875 -0.12279,-0.14849 -0.26527,-0.28784 -0.375,-0.4375 -0.7676,-1.228 -1.15625,-2.5076 -1.15625,-3.8125 0,-0.55777 0.0306,-1.08675 0.0937,-1.59375 0.18333,-2.29783 1.20095,-4.53477 3.03125,-6.25 1.2552,-1.1763 2.7398,-1.9686 4.3125,-2.375 l 21.84375,-7.90625 c -5.20009,-4.87998 -11.42491,-7.31241 -18.6875,-7.3125 z m 24.5625,14.75 c -4.98223,4.66901 -9.12203,8.55331 -13,12.1875 0.0282,0.26813 0.0494,0.53683 0.0625,0.8125 l 16.125,0 c -6e-5,-4.78721 -1.0639,-9.1116 -3.1875,-13 z m 1.21875,41.4375 -18,5.03125 c 0.13338,0.1268 0.2754,0.24416 0.40625,0.375 1.6886,1.6119 2.53115,3.3936 2.53125,5.3125 -10e-5,2.6866 -1.0043,4.8739 -3,6.5625 -1.9957,1.6887 -4.57165,2.53135 -7.71875,2.53125 -3.0703,10e-5 -5.7115,-1.11775 -7.9375,-3.34375 -2.1492,-2.226 -3.31525,-4.9154 -3.46875,-8.0625 l -16.125,0 c 0,7.5223 2.6894,14.01895 8.0625,19.46875 5.4498,5.3731 11.94645,8.0625 19.46875,8.0625 7.7526,0 14.3144,-2.52765 19.6875,-7.59375 5.373,-5.066 8.0624,-11.33565 8.0625,-18.78125 -3e-5,-3.4105 -0.67289,-6.59554 -1.96875,-9.5625 z"
         style="font-size:280px;font-style:normal;fill:#000000;fill-opacity:1;stroke:none;font-family:Reglo" />
      <path
         inkscape:connector-curvature="0"
         id="path4113"
         d="m 299.77938,491.32579 0,16.125 0,17.8125 c 6.50039,-4.68484 12.45854,-9.00985 16.125,-11.84375 l 0,-5.96875 11.375,0 c 3.147,1e-4 5.8365,1.16605 8.0625,3.46875 2.3027,2.226 3.4855,4.93255 3.5625,8.15625 l 0,2.4375 c 0.36062,4.25131 -1.33825,8.5875 -4.90625,11.46875 -1.8026,1.4557 -3.8702,2.3706 -6,2.75 l -28.21875,7.84375 0,6.46875 0,33.40625 16.125,0 0,-33.40625 11.375,0 c 7.6758,0 14.22065,-2.6893 19.59375,-8.0625 5.4498,-5.4497 8.15615,-11.9151 8.15625,-19.4375 l 0,-3.46875 c -10e-5,-7.6757 -2.70645,-14.1893 -8.15625,-19.5625 -5.3731,-5.4497 -11.91795,-8.1875 -19.59375,-8.1875 l -27.5,0 z"
         style="font-size:280px;font-style:normal;fill:#000000;fill-opacity:1;stroke:none;font-family:Reglo" />
      <path
         inkscape:connector-curvature="0"
         id="path4103"
         d="m 366.34188,491.32579 0,54.40625 c 0.43924,-0.31946 7.52566,-5.4747 16.125,-11.8125 l 0,-42.59375 -16.125,0 z m 16.125,54.28125 -16.09375,4.6875 -0.0312,-0.34375 0,33.5 16.125,0 0,-37.84375 z"
         style="font-size:280px;font-style:normal;fill:#000000;fill-opacity:1;stroke:none;font-family:Reglo" />
      <path
         inkscape:connector-curvature="0"
         id="path4105"
         d="m 423.02938,490.76329 c -7.5223,1e-4 -14.01895,2.70655 -19.46875,8.15625 -5.3731,5.3732 -8.03125,11.91795 -8.03125,19.59375 l 0,5.71875 c 8.00595,-5.98729 15.42081,-11.64617 18.90625,-14.59375 2.01116,-1.55976 4.34594,-2.39757 6.6875,-2.5625 0.0302,-0.006 0.0634,0.006 0.0937,0 0.5936,-0.10803 1.18704,-0.17182 1.8125,-0.1875 3.0703,1e-4 5.7597,1.1348 8.0625,3.4375 2.3027,2.3028 3.4855,5.0404 3.5625,8.1875 l 0,1.96875 0,20.75 16.125,-4.3125 0,-18.40625 c -1e-4,-7.6758 -2.7377,-14.22055 -8.1875,-19.59375 -5.3731,-5.4497 -11.8867,-8.15615 -19.5625,-8.15625 z m -11.40625,46.34375 -16.09375,4.6875 0,14.71875 c 0,7.5224 2.65815,13.9877 8.03125,19.4375 5.4498,5.3731 11.94645,8.0625 19.46875,8.0625 7.6758,0 14.1894,-2.6894 19.5625,-8.0625 5.4498,-5.4498 8.1874,-11.9151 8.1875,-19.4375 l 0,-3.3125 c -7.60633,5.07386 -14.55925,9.76999 -18.625,12.9375 -3.72507,2.66147 -8.53218,3.02903 -12.53125,1.3125 -0.01,-0.003 -0.0215,0.003 -0.0312,0 -1.75178,-0.47134 -3.28921,-1.32211 -4.625,-2.5625 -2.1493,-2.0725 -3.26675,-4.8441 -3.34375,-8.375 l 0,-19.40625 z"
         style="font-size:280px;font-style:normal;fill:#000000;fill-opacity:1;stroke:none;font-family:Reglo" />
      <path
         inkscape:connector-curvature="0"
         id="path4107"
         d="m 463.49813,491.32579 0,42.15625 16.09375,-4.3125 c 0,0 -3.8e-4,0.0301 0,0.0312 l 0.0312,0.0625 22.90625,54.1875 0.0937,0 16,0 0.125,0 0,-92.125 -16.125,0 0,54.25 -22.90625,-54.25 -0.125,0 -16,0 -0.0937,0 z m 16.09375,41.9375 c -4.32155,3.35377 -10.05933,7.34954 -16.09375,11.4375 l 0,38.75 16.09375,0 0,-50.1875 z"
         style="font-size:280px;font-style:normal;fill:#000000;fill-opacity:1;stroke:none;font-family:Reglo" />
      <path
         d="M 225.62681,603.99788"
         id="path4117"
         style="font-size:280px;font-style:normal;fill:#000000;fill-opacity:1;stroke:#000000;stroke-width:1.00430727;stroke-linecap:square;stroke-linejoin:bevel;stroke-opacity:1;font-family:Reglo"
         inkscape:connector-curvature="0" />
    </g>
  </g>
</svg>
