<?xml version="1.0" encoding="UTF-8" standalone="no"?>
<!-- Created with Inkscape (http://www.inkscape.org/) -->

<svg
   xmlns:dc="http://purl.org/dc/elements/1.1/"
   xmlns:cc="http://creativecommons.org/ns#"
   xmlns:rdf="http://www.w3.org/1999/02/22-rdf-syntax-ns#"
   xmlns:svg="http://www.w3.org/2000/svg"
   xmlns="http://www.w3.org/2000/svg"
   xmlns:sodipodi="http://sodipodi.sourceforge.net/DTD/sodipodi-0.dtd"
   xmlns:inkscape="http://www.inkscape.org/namespaces/inkscape"
   width="293.12122"
   height="120"
   id="svg3193"
   version="1.1"
   inkscape:version="0.48.3.1 r9886"
   sodipodi:docname="SPIONlogoblackFORSITE.svg">
  <defs
     id="defs3195" />
  <sodipodi:namedview
     id="base"
     pagecolor="#ffffff"
     bordercolor="#666666"
     borderopacity="1.0"
     inkscape:pageopacity="0.0"
     inkscape:pageshadow="2"
     inkscape:zoom="0.7071068"
     inkscape:cx="58.864267"
     inkscape:cy="153.82517"
     inkscape:document-units="px"
     inkscape:current-layer="layer1"
     showgrid="false"
     fit-margin-top="0"
     fit-margin-left="0"
     fit-margin-right="0"
     fit-margin-bottom="0"
     inkscape:window-width="1362"
     inkscape:window-height="729"
     inkscape:window-x="0"
     inkscape:window-y="27"
     inkscape:window-maximized="0"
     showguides="true"
     inkscape:guide-bbox="true" />
  <metadata
     id="metadata3198">
    <rdf:RDF>
      <cc:Work
         rdf:about="">
        <dc:format>image/svg+xml</dc:format>
        <dc:type
           rdf:resource="http://purl.org/dc/dcmitype/StillImage" />
        <dc:title />
      </cc:Work>
    </rdf:RDF>
  </metadata>
  <g
     inkscape:label="Layer 1"
     inkscape:groupmode="layer"
     id="layer1"
     transform="translate(-224.33392,-495.99788)">
    <g
       id="g3193"
       transform="translate(0,84)">
      <g
         transform="translate(-5.2928932,-70)"
         id="g5344">
        <path
           style="font-size:280px;font-style:normal;fill:#000000;fill-opacity:1;stroke:none;font-family:Reglo"
           d="M 259.87313,491.32579 C 252.27403,491.32589 245.77748,493.85364 240.40438,498.91954 235.03128,503.98564 232.34188,510.32054 232.34188,517.91954 232.34188,523.13914 233.68663,527.74074 236.37313,531.73204 239.13643,535.72354 242.55493,538.89809 246.62313,541.20079 248.54213,542.27539 251.18323,543.58889 254.56063,545.20079 257.93793,546.73599 260.62743,548.01549 262.62313,549.01329 263.32364,549.36356 264.00115,549.77487 264.65438,550.20079 264.91244,550.02013 271.68392,545.27782 279.96688,539.41954 277.42534,536.9121 274.27921,534.61704 270.46688,532.54454 269.08528,531.77704 267.17308,530.82094 264.71688,529.66954 262.26058,528.51814 260.25208,527.56224 258.71688,526.79454 257.90646,526.32542 257.0715,525.80266 256.21688,525.26329 256.18548,525.25299 256.15438,525.24269 256.12318,525.23209 254.66441,524.73651 253.29849,523.89885 252.15443,522.73209 251.63002,522.19728 251.18791,521.62101 250.81068,521.01334 250.68789,520.86485 250.54541,520.7255 250.43568,520.57584 249.66808,519.34784 249.27943,518.06824 249.27943,516.76334 249.27943,516.20557 249.31003,515.67659 249.37313,515.16959 249.55646,512.87176 250.57408,510.63482 252.40438,508.91959 253.65958,507.74329 255.14418,506.95099 256.71688,506.54459 L 278.56063,498.63834 C 273.36054,493.75836 267.13572,491.32593 259.87313,491.32584 z M 284.43563,506.07579 C 279.4534,510.7448 275.3136,514.6291 271.43563,518.26329 271.46383,518.53142 271.48503,518.80012 271.49813,519.07579 L 287.62313,519.07579 C 287.62307,514.28858 286.55923,509.96419 284.43563,506.07579 z M 285.65438,547.51329 267.65438,552.54454 C 267.78776,552.67134 267.92978,552.7887 268.06063,552.91954 269.74923,554.53144 270.59178,556.31314 270.59188,558.23204 270.59178,560.91864 269.58758,563.10594 267.59188,564.79454 265.59618,566.48324 263.02023,567.32589 259.87313,567.32579 256.80283,567.32589 254.16163,566.20804 251.93563,563.98204 249.78643,561.75604 248.62038,559.06664 248.46688,555.91954 L 232.34188,555.91954 C 232.34188,563.44184 235.03128,569.93849 240.40438,575.38829 245.85418,580.76139 252.35083,583.45079 259.87313,583.45079 267.62573,583.45079 274.18753,580.92314 279.56063,575.85704 284.93363,570.79104 287.62303,564.52139 287.62313,557.07579 287.6231,553.66529 286.95024,550.48025 285.65438,547.51329 z"
           id="path4099"
           inkscape:connector-curvature="0" />
        <path
           style="font-size:280px;font-style:normal;fill:#000000;fill-opacity:1;stroke:none;font-family:Reglo"
           d="M 299.77938,491.32579 299.77938,507.45079 299.77938,525.26329 C 306.27977,520.57845 312.23792,516.25344 315.90438,513.41954 L 315.90438,507.45079 327.27938,507.45079 C 330.42638,507.45089 333.11588,508.61684 335.34188,510.91954 337.64458,513.14554 338.82738,515.85209 338.90438,519.07579 L 338.90438,521.51329 C 339.265,525.7646 337.56613,530.10079 333.99813,532.98204 332.19553,534.43774 330.12793,535.35264 327.99813,535.73204 L 299.77938,543.57579 299.77938,550.04454 299.77938,583.45079 315.90438,583.45079 315.90438,550.04454 327.27938,550.04454 C 334.95518,550.04454 341.50003,547.35524 346.87313,541.98204 352.32293,536.53234 355.02928,530.06694 355.02938,522.54454 L 355.02938,519.07579 C 355.02928,511.40009 352.32293,504.88649 346.87313,499.51329 341.50003,494.06359 334.95518,491.32579 327.27938,491.32579 L 299.77938,491.32579 z"
           id="path4113"
           inkscape:connector-curvature="0" />
        <path
           style="font-size:280px;font-style:normal;fill:#000000;fill-opacity:1;stroke:none;font-family:Reglo"
           d="M 366.34188,491.32579 366.34188,545.73204 C 366.78112,545.41258 373.86754,540.25734 382.46688,533.91954 L 382.46688,491.32579 366.34188,491.32579 z M 382.46688,545.60704 366.37313,550.29454 366.34193,549.95079 366.34193,583.45079 382.46693,583.45079 382.46693,545.60704 z"
           id="path4103"
           inkscape:connector-curvature="0" />
        <path
           style="font-size:280px;font-style:normal;fill:#000000;fill-opacity:1;stroke:none;font-family:Reglo"
           d="M 423.02938,490.76329 C 415.50708,490.76339 409.01043,493.46984 403.56063,498.91954 398.18753,504.29274 395.52938,510.83749 395.52938,518.51329 L 395.52938,524.23204 C 403.53533,518.24475 410.95019,512.58587 414.43563,509.63829 416.44679,508.07853 418.78157,507.24072 421.12313,507.07579 421.15333,507.06979 421.18653,507.08179 421.21683,507.07579 421.81043,506.96776 422.40387,506.90397 423.02933,506.88829 426.09963,506.88839 428.78903,508.02309 431.09183,510.32579 433.39453,512.62859 434.57733,515.36619 434.65433,518.51329 L 434.65433,520.48204 434.65433,541.23204 450.77933,536.91954 450.77933,518.51329 C 450.77923,510.83749 448.04163,504.29274 442.59183,498.91954 437.21873,493.46984 430.70513,490.76339 423.02933,490.76329 z M 411.62313,537.10704 395.52938,541.79454 395.52938,556.51329 C 395.52938,564.03569 398.18753,570.50099 403.56063,575.95079 409.01043,581.32389 415.50708,584.01329 423.02938,584.01329 430.70518,584.01329 437.21878,581.32389 442.59188,575.95079 448.04168,570.50099 450.77928,564.03569 450.77938,556.51329 L 450.77938,553.20079 C 443.17305,558.27465 436.22013,562.97078 432.15438,566.13829 428.42931,568.79976 423.6222,569.16732 419.62313,567.45079 419.61313,567.44779 419.60163,567.45379 419.59193,567.45079 417.84015,566.97945 416.30272,566.12868 414.96693,564.88829 412.81763,562.81579 411.70018,560.04419 411.62318,556.51329 L 411.62318,537.10704 z"
           id="path4105"
           inkscape:connector-curvature="0" />
        <path
           style="font-size:280px;font-style:normal;fill:#000000;fill-opacity:1;stroke:none;font-family:Reglo"
           d="M 463.49813,491.32579 463.49813,533.48204 479.59188,529.16954 C 479.59188,529.16954 479.5915,529.19964 479.59188,529.20074 L 479.62308,529.26324 502.52933,583.45074 502.62303,583.45074 518.62303,583.45074 518.74803,583.45074 518.74803,491.32574 502.62303,491.32574 502.62303,545.57574 479.71678,491.32574 479.59178,491.32574 463.59178,491.32574 463.49808,491.32574 z M 479.59188,533.26329 C 475.27033,536.61706 469.53255,540.61283 463.49813,544.70079 L 463.49813,583.45079 479.59188,583.45079 479.59188,533.26329 z"
           id="path4107"
           inkscape:connector-curvature="0" />
        <path
           inkscape:connector-curvature="0"
           style="font-size:280px;font-style:normal;fill:#000000;fill-opacity:1;stroke:#000000;stroke-width:0.41120449;stroke-linecap:square;stroke-linejoin:bevel;stroke-opacity:1;font-family:Reglo"
           id="path4117"
           d="M 225.62681,603.99788" />
      </g>
      <g
         id="flowRoot3100"
         style="font-size:12px;font-style:normal;font-variant:normal;font-weight:bold;font-stretch:normal;text-align:start;line-height:125%;letter-spacing:0px;word-spacing:0px;writing-mode:lr-tb;text-anchor:start;fill:#000000;fill-opacity:1;stroke:none;font-family:Karla;-inkscape-font-specification:Karla Bold"
         transform="matrix(1.1341332,0,0,1.1341332,224.42434,387.77153)">
        <path
           id="path3113"
           d="M 5.03025,112.49972 C 5.8622455,112.49972 6.4942449,112.71172 6.92625,113.13572 7.366244,113.55172 7.5862438,114.11572 7.58625,114.82772 7.5862438,115.53972 7.366244,116.10372 6.92625,116.51972 6.4942449,116.92772 5.8622455,117.13172 5.03025,117.13172 L 3.54225,117.13172 3.54225,120.04772 2.59425,120.04772 2.59425,112.49972 5.03025,112.49972 M 5.03025,116.31572 C 5.5502459,116.31572 5.9422455,116.18372 6.20625,115.91972 6.4782449,115.65572 6.6142448,115.29572 6.61425,114.83972 6.6142448,114.37572 6.4782449,114.00772 6.20625,113.73572 5.9422455,113.45572 5.5502459,113.31572 5.03025,113.31572 L 3.54225,113.31572 3.54225,116.31572 5.03025,116.31572"
           inkscape:connector-curvature="0" />
        <path
           id="path3115"
           d="M 11.6145,115.11572 C 10.710497,115.11572 10.242498,115.82772 10.2105,117.25172 L 10.2105,120.04772 9.2625,120.04772 9.2625,114.29972 10.2105,114.29972 10.2105,115.40372 C 10.498498,114.60372 11.006497,114.20372 11.7345,114.20372 11.966496,114.20372 12.186496,114.23972 12.3945,114.31172 L 12.3465,115.23572 C 12.106496,115.15572 11.862496,115.11572 11.6145,115.11572"
           inkscape:connector-curvature="0" />
        <path
           id="path3117"
           d="M 13.904813,114.29972 14.852813,114.29972 14.852813,120.04772 13.904813,120.04772 13.904813,114.29972 M 14.372813,112.95572 C 14.180811,112.95572 14.028811,112.90372 13.916813,112.79972 13.812811,112.68772 13.760811,112.54372 13.760813,112.36772 13.760811,112.18372 13.812811,112.03973 13.916813,111.93572 14.028811,111.82373 14.180811,111.76773 14.372813,111.76772 14.564811,111.76773 14.71681,111.82373 14.828813,111.93572 14.94881,112.03973 15.00881,112.18372 15.008812,112.36772 15.00881,112.54372 14.94881,112.68772 14.828813,112.79972 14.71681,112.90372 14.564811,112.95572 14.372813,112.95572"
           inkscape:connector-curvature="0" />
        <path
           id="path3119"
           d="M 17.50275,114.31172 19.23075,119.05172 20.97075,114.31172 22.03875,114.31172 19.75875,120.04772 18.71475,120.04772 16.43475,114.31172 17.50275,114.31172"
           inkscape:connector-curvature="0" />
        <path
           id="path3121"
           d="M 27.029625,116.32772 C 27.02962,115.80772 26.92162,115.43572 26.705625,115.21172 26.489621,114.98772 26.173621,114.87572 25.757625,114.87572 25.349622,114.87572 25.017622,114.95972 24.761625,115.12772 24.513623,115.28772 24.389623,115.54372 24.389625,115.89572 L 23.345625,115.89572 C 23.345624,115.01572 23.817623,114.47172 24.761625,114.26372 25.049622,114.19972 25.361622,114.16772 25.697625,114.16772 26.409621,114.16772 26.96562,114.34772 27.365625,114.70772 27.765619,115.06772 27.965619,115.61572 27.965625,116.35172 L 27.965625,120.04772 27.149625,120.04772 27.053625,119.08772 C 26.701621,119.81572 26.065621,120.17972 25.145625,120.17972 24.529623,120.17972 24.033623,120.00772 23.657625,119.66372 23.289624,119.31972 23.105624,118.89172 23.105625,118.37972 23.105624,117.86772 23.309624,117.46772 23.717625,117.17972 24.133623,116.89172 24.649623,116.74772 25.265625,116.74772 25.881621,116.74772 26.469621,116.85172 27.029625,117.05972 L 27.029625,116.32772 M 27.029625,117.65972 C 26.461621,117.49972 25.965621,117.41972 25.541625,117.41972 25.117622,117.41972 24.773622,117.49572 24.509625,117.64772 24.245623,117.79972 24.113623,118.03972 24.113625,118.36772 24.113623,119.08772 24.521623,119.44772 25.337625,119.44772 25.801621,119.44772 26.197621,119.28372 26.525625,118.95572 26.86162,118.61972 27.02962,118.18772 27.029625,117.65972"
           inkscape:connector-curvature="0" />
        <path
           id="path3123"
           d="M 32.112187,114.16772 C 32.792184,114.16772 33.332183,114.34372 33.732188,114.69572 34.132182,115.03972 34.392182,115.47172 34.512188,115.99172 L 33.552188,116.07572 C 33.448183,115.73972 33.280183,115.47972 33.048187,115.29572 32.816184,115.10372 32.560184,115.00772 32.280187,115.00772 31.768185,115.00772 31.352185,115.19972 31.032187,115.58372 30.720186,115.96772 30.564186,116.49172 30.564187,117.15572 30.564186,117.81172 30.716186,118.33972 31.020187,118.73972 31.332185,119.13972 31.716185,119.33972 32.172187,119.33972 32.636184,119.33972 32.980184,119.23572 33.204188,119.02772 33.436183,118.81172 33.552183,118.50772 33.552188,118.11572 L 34.524188,118.11572 C 34.524182,118.73172 34.308182,119.23172 33.876187,119.61572 33.452183,119.99172 32.896184,120.17972 32.208187,120.17972 31.480185,120.17972 30.860186,119.90372 30.348188,119.35172 29.844187,118.79972 29.592187,118.06772 29.592188,117.15572 29.592187,116.23572 29.844187,115.50772 30.348188,114.97172 30.852186,114.43572 31.440185,114.16772 32.112187,114.16772"
           inkscape:connector-curvature="0" />
        <path
           id="path3125"
           d="M 35.239688,121.71572 C 35.631687,122.01972 36.043687,122.17171 36.475687,122.17172 36.795686,122.17171 37.071686,122.01172 37.303688,121.69172 37.471685,121.45972 37.623685,121.10772 37.759687,120.63572 L 37.927687,120.04772 35.575687,114.31172 36.631687,114.31172 38.371687,118.88372 39.727688,114.31172 40.687688,114.31172 38.539687,121.18772 C 38.355684,121.77172 38.111685,122.21971 37.807687,122.53172 37.511685,122.84371 37.131686,122.99971 36.667687,122.99972 36.211686,122.99971 35.735687,122.85971 35.239688,122.57972 L 35.239688,121.71572"
           inkscape:connector-curvature="0" />
        <path
           id="path3127"
           d="M 48.615563,116.32772 C 48.615558,115.80772 48.507558,115.43572 48.291562,115.21172 48.075558,114.98772 47.759559,114.87572 47.343562,114.87572 46.935559,114.87572 46.60356,114.95972 46.347563,115.12772 46.09956,115.28772 45.97556,115.54372 45.975563,115.89572 L 44.931562,115.89572 C 44.931561,115.01572 45.403561,114.47172 46.347563,114.26372 46.63556,114.19972 46.947559,114.16772 47.283563,114.16772 47.995558,114.16772 48.551558,114.34772 48.951563,114.70772 49.351557,115.06772 49.551557,115.61572 49.551563,116.35172 L 49.551563,120.04772 48.735562,120.04772 48.639562,119.08772 C 48.287558,119.81572 47.651559,120.17972 46.731563,120.17972 46.11556,120.17972 45.619561,120.00772 45.243563,119.66372 44.875561,119.31972 44.691562,118.89172 44.691563,118.37972 44.691562,117.86772 44.895561,117.46772 45.303562,117.17972 45.719561,116.89172 46.23556,116.74772 46.851562,116.74772 47.467559,116.74772 48.055558,116.85172 48.615563,117.05972 L 48.615563,116.32772 M 48.615563,117.65972 C 48.047558,117.49972 47.551559,117.41972 47.127563,117.41972 46.70356,117.41972 46.35956,117.49572 46.095562,117.64772 45.831561,117.79972 45.699561,118.03972 45.699562,118.36772 45.699561,119.08772 46.10756,119.44772 46.923563,119.44772 47.387559,119.44772 47.783559,119.28372 48.111562,118.95572 48.447558,118.61972 48.615558,118.18772 48.615563,117.65972"
           inkscape:connector-curvature="0" />
        <path
           id="path3129"
           d="M 52.702125,115.41572 C 53.078122,114.58372 53.722122,114.16772 54.634125,114.16772 55.31412,114.16772 55.84212,114.39172 56.218125,114.83972 56.602119,115.28772 56.794119,115.89972 56.794125,116.67572 L 56.794125,120.04772 55.858125,120.04772 55.858125,116.67572 C 55.85812,116.12372 55.72612,115.70772 55.462125,115.42772 55.20612,115.14772 54.838121,115.00772 54.358125,115.00772 53.878122,115.00772 53.490122,115.20372 53.194125,115.59572 52.898123,115.98772 52.742123,116.53172 52.726125,117.22772 L 52.726125,120.04772 51.778125,120.04772 51.778125,114.31172 52.594125,114.31172 52.702125,115.41572"
           inkscape:connector-curvature="0" />
        <path
           id="path3131"
           d="M 62.788313,115.16372 62.788313,111.87572 63.724312,111.87572 63.724312,120.04772 62.956313,120.04772 62.836312,119.08772 C 62.652308,119.44772 62.408308,119.71972 62.104312,119.90372 61.800309,120.08772 61.468309,120.17972 61.108312,120.17972 60.38031,120.17972 59.768311,119.89972 59.272312,119.33972 58.784312,118.77972 58.540312,118.05172 58.540312,117.15572 58.540312,116.25172 58.780312,115.52772 59.260312,114.98372 59.748311,114.43972 60.36031,114.16772 61.096313,114.16772 61.840308,114.16772 62.404308,114.49972 62.788313,115.16372 M 61.156312,115.00772 C 60.69231,115.00772 60.30031,115.20372 59.980312,115.59572 59.668311,115.98772 59.512311,116.51172 59.512312,117.16772 59.512311,117.82372 59.672311,118.35172 59.992312,118.75172 60.31231,119.14372 60.69631,119.33972 61.144312,119.33972 61.592309,119.33972 61.972308,119.19172 62.284312,118.89572 62.604308,118.59172 62.772308,118.18772 62.788313,117.68372 L 62.788313,116.74772 C 62.788308,116.21172 62.632308,115.78772 62.320312,115.47572 62.008308,115.16372 61.620309,115.00772 61.156312,115.00772"
           inkscape:connector-curvature="0" />
        <path
           id="path3133"
           d="M 73.036687,114.33572 C 72.900682,113.59972 72.360683,113.23172 71.416687,113.23172 70.912684,113.23172 70.524685,113.34372 70.252687,113.56772 69.980685,113.78372 69.844685,114.04772 69.844688,114.35972 69.844685,114.66372 69.928685,114.89572 70.096688,115.05572 70.264685,115.21572 70.536685,115.35572 70.912688,115.47572 L 72.484688,116.01572 C 73.020682,116.19972 73.444682,116.45172 73.756687,116.77172 74.076681,117.09172 74.236681,117.54372 74.236688,118.12772 74.236681,118.70372 73.988681,119.19172 73.492688,119.59172 72.996682,119.98372 72.332683,120.17972 71.500687,120.17972 70.668685,120.17972 69.984685,119.97172 69.448688,119.55572 68.920686,119.13172 68.648687,118.53972 68.632688,117.77972 L 69.556687,117.77972 C 69.556686,118.27572 69.728686,118.65572 70.072687,118.91972 70.424685,119.18372 70.872684,119.31572 71.416687,119.31572 71.968683,119.31572 72.404683,119.19572 72.724688,118.95572 73.044682,118.70772 73.204682,118.41972 73.204688,118.09172 73.204682,117.75572 73.104682,117.49172 72.904687,117.29972 72.712683,117.10772 72.424683,116.94772 72.040688,116.81972 L 70.708687,116.32772 C 70.084685,116.11972 69.612686,115.87172 69.292687,115.58372 68.972686,115.29572 68.812686,114.87572 68.812687,114.32372 68.812686,113.76372 69.036686,113.29972 69.484688,112.93172 69.932685,112.55572 70.560685,112.36772 71.368687,112.36772 72.176683,112.36772 72.792683,112.54772 73.216688,112.90772 73.648682,113.25972 73.896681,113.73572 73.960688,114.33572 L 73.036687,114.33572"
           inkscape:connector-curvature="0" />
        <path
           id="path3135"
           d="M 78.262313,119.41172 C 79.054309,119.41172 79.506308,119.06372 79.618313,118.36772 L 80.590312,118.36772 C 80.502307,118.94372 80.246307,119.39172 79.822312,119.71172 79.406308,120.02372 78.886309,120.17972 78.262313,120.17972 77.49431,120.17972 76.870311,119.90772 76.390312,119.36372 75.910312,118.81172 75.670312,118.07972 75.670312,117.16772 75.670312,116.25572 75.910312,115.52772 76.390312,114.98372 76.878311,114.43972 77.52231,114.16772 78.322312,114.16772 79.130308,114.16772 79.730308,114.47972 80.122313,115.10372 80.522307,115.72772 80.662307,116.48772 80.542312,117.38372 L 76.618313,117.38372 C 76.618311,117.97572 76.762311,118.46372 77.050313,118.84772 77.33831,119.22372 77.74231,119.41172 78.262313,119.41172 M 78.958313,115.06772 C 78.774309,114.97172 78.550309,114.92372 78.286312,114.92372 77.79831,114.92372 77.41031,115.09172 77.122313,115.42772 76.842311,115.75572 76.678311,116.16772 76.630313,116.66372 L 79.690313,116.66372 C 79.690308,115.86372 79.446308,115.33172 78.958313,115.06772"
           inkscape:connector-curvature="0" />
        <path
           id="path3137"
           d="M 84.377813,114.16772 C 85.057809,114.16772 85.597808,114.34372 85.997812,114.69572 86.397807,115.03972 86.657807,115.47172 86.777812,115.99172 L 85.817813,116.07572 C 85.713808,115.73972 85.545808,115.47972 85.313812,115.29572 85.081809,115.10372 84.825809,115.00772 84.545812,115.00772 84.03381,115.00772 83.61781,115.19972 83.297813,115.58372 82.985811,115.96772 82.829811,116.49172 82.829813,117.15572 82.829811,117.81172 82.981811,118.33972 83.285813,118.73972 83.59781,119.13972 83.98181,119.33972 84.437813,119.33972 84.901809,119.33972 85.245809,119.23572 85.469813,119.02772 85.701808,118.81172 85.817808,118.50772 85.817813,118.11572 L 86.789812,118.11572 C 86.789807,118.73172 86.573807,119.23172 86.141812,119.61572 85.717808,119.99172 85.161809,120.17972 84.473812,120.17972 83.74581,120.17972 83.125811,119.90372 82.613812,119.35172 82.109812,118.79972 81.857812,118.06772 81.857812,117.15572 81.857812,116.23572 82.109812,115.50772 82.613812,114.97172 83.117811,114.43572 83.70581,114.16772 84.377813,114.16772"
           inkscape:connector-curvature="0" />
        <path
           id="path3139"
           d="M 92.557312,118.90772 C 92.165308,119.73972 91.529308,120.15572 90.649312,120.15572 90.00131,120.15572 89.47731,119.97572 89.077313,119.61572 88.685311,119.25572 88.489311,118.69972 88.489312,117.94772 L 88.489312,114.29972 89.437313,114.29972 89.437313,117.87572 C 89.437311,118.84372 89.88531,119.32772 90.781312,119.32772 91.301309,119.32772 91.721308,119.12772 92.041313,118.72772 92.369308,118.32772 92.541307,117.81572 92.557312,117.19172 L 92.557312,114.29972 93.505313,114.29972 93.505313,120.04772 92.557312,120.04772 92.557312,118.90772"
           inkscape:connector-curvature="0" />
        <path
           id="path3141"
           d="M 98.262938,115.11572 C 97.358935,115.11572 96.890935,115.82772 96.858937,117.25172 L 96.858937,120.04772 95.910938,120.04772 95.910938,114.29972 96.858937,114.29972 96.858937,115.40372 C 97.146935,114.60372 97.654935,114.20372 98.382937,114.20372 98.614934,114.20372 98.834933,114.23972 99.042937,114.31172 L 98.994938,115.23572 C 98.754933,115.15572 98.510934,115.11572 98.262938,115.11572"
           inkscape:connector-curvature="0" />
        <path
           id="path3143"
           d="M 100.55325,114.29972 101.50125,114.29972 101.50125,120.04772 100.55325,120.04772 100.55325,114.29972 M 101.02125,112.95572 C 100.82925,112.95572 100.67725,112.90372 100.56525,112.79972 100.46125,112.68772 100.40925,112.54372 100.40925,112.36772 100.40925,112.18372 100.46125,112.03973 100.56525,111.93572 100.67725,111.82373 100.82925,111.76773 101.02125,111.76772 101.21325,111.76773 101.36525,111.82373 101.47725,111.93572 101.59725,112.03973 101.65725,112.18372 101.65725,112.36772 101.65725,112.54372 101.59725,112.68772 101.47725,112.79972 101.36525,112.90372 101.21325,112.95572 101.02125,112.95572"
           inkscape:connector-curvature="0" />
        <path
           id="path3145"
           d="M 107.07919,119.87972 C 106.39118,120.19972 105.76318,120.26772 105.19519,120.08372 104.78719,119.95572 104.49919,119.68772 104.33119,119.27972 104.24319,119.07972 104.19919,118.83972 104.19919,118.55972 L 104.19919,115.03172 103.27519,115.03172 103.27519,114.31172 104.19919,114.31172 104.19919,112.71572 105.13519,112.71572 105.13519,114.31172 106.93519,114.31172 106.93519,115.03172 105.13519,115.03172 105.13519,118.54772 C 105.13519,119.13172 105.40718,119.42372 105.95119,119.42372 106.24718,119.42372 106.57918,119.35172 106.94719,119.20772 L 107.07919,119.87972"
           inkscape:connector-curvature="0" />
        <path
           id="path3147"
           d="M 107.45063,121.71572 C 107.84262,122.01972 108.25462,122.17171 108.68663,122.17172 109.00662,122.17171 109.28262,122.01172 109.51462,121.69172 109.68262,121.45972 109.83462,121.10772 109.97062,120.63572 L 110.13863,120.04772 107.78663,114.31172 108.84262,114.31172 110.58263,118.88372 111.93863,114.31172 112.89862,114.31172 110.75063,121.18772 C 110.56662,121.77172 110.32262,122.21971 110.01863,122.53172 109.72262,122.84371 109.34262,122.99971 108.87863,122.99972 108.42262,122.99971 107.94662,122.85971 107.45063,122.57972 L 107.45063,121.71572"
           inkscape:connector-curvature="0" />
        <path
           id="path3149"
           d="M 117.3345,114.29972 118.2825,114.29972 118.2825,120.04772 117.3345,120.04772 117.3345,114.29972 M 117.8025,112.95572 C 117.6105,112.95572 117.4585,112.90372 117.3465,112.79972 117.2425,112.68772 117.1905,112.54372 117.1905,112.36772 117.1905,112.18372 117.2425,112.03973 117.3465,111.93572 117.4585,111.82373 117.6105,111.76773 117.8025,111.76772 117.9945,111.76773 118.1465,111.82373 118.2585,111.93572 118.3785,112.03973 118.4385,112.18372 118.4385,112.36772 118.4385,112.54372 118.3785,112.68772 118.2585,112.79972 118.1465,112.90372 117.9945,112.95572 117.8025,112.95572"
           inkscape:connector-curvature="0" />
        <path
           id="path3151"
           d="M 121.77244,115.41572 C 122.14844,114.58372 122.79243,114.16772 123.70444,114.16772 124.38443,114.16772 124.91243,114.39172 125.28844,114.83972 125.67243,115.28772 125.86443,115.89972 125.86444,116.67572 L 125.86444,120.04772 124.92844,120.04772 124.92844,116.67572 C 124.92843,116.12372 124.79643,115.70772 124.53244,115.42772 124.27643,115.14772 123.90843,115.00772 123.42844,115.00772 122.94843,115.00772 122.56043,115.20372 122.26444,115.59572 121.96844,115.98772 121.81244,116.53172 121.79644,117.22772 L 121.79644,120.04772 120.84844,120.04772 120.84844,114.31172 121.66444,114.31172 121.77244,115.41572"
           inkscape:connector-curvature="0" />
        <path
           id="path3153"
           d="M 133.626,112.36772 C 134.602,112.36772 135.38999,112.70372 135.99,113.37572 136.59799,114.03972 136.90199,115.01172 136.902,116.29172 136.90199,117.56372 136.60199,118.53172 136.002,119.19572 135.40199,119.85172 134.61,120.17972 133.626,120.17972 132.642,120.17972 131.85,119.84772 131.25,119.18372 130.658,118.51172 130.362,117.54372 130.362,116.27972 130.362,115.00772 130.658,114.03972 131.25,113.37572 131.85,112.70372 132.642,112.36772 133.626,112.36772 M 133.626,113.21972 C 132.922,113.21972 132.366,113.48372 131.958,114.01172 131.55,114.53972 131.346,115.29972 131.346,116.29172 131.346,117.28372 131.55,118.03572 131.958,118.54772 132.366,119.05972 132.922,119.31572 133.626,119.31572 134.33,119.31572 134.88599,119.05972 135.294,118.54772 135.70999,118.03572 135.91799,117.28372 135.918,116.29172 135.91799,115.29972 135.70999,114.53972 135.294,114.01172 134.88599,113.48372 134.33,113.21972 133.626,113.21972"
           inkscape:connector-curvature="0" />
        <path
           id="path3155"
           d="M 139.63181,115.41572 C 140.00781,114.58372 140.65181,114.16772 141.56381,114.16772 142.24381,114.16772 142.77181,114.39172 143.14781,114.83972 143.53181,115.28772 143.72381,115.89972 143.72381,116.67572 L 143.72381,120.04772 142.78781,120.04772 142.78781,116.67572 C 142.78781,116.12372 142.65581,115.70772 142.39181,115.42772 142.13581,115.14772 141.76781,115.00772 141.28781,115.00772 140.80781,115.00772 140.41981,115.20372 140.12381,115.59572 139.82781,115.98772 139.67181,116.53172 139.65581,117.22772 L 139.65581,120.04772 138.70781,120.04772 138.70781,114.31172 139.52381,114.31172 139.63181,115.41572"
           inkscape:connector-curvature="0" />
        <path
           id="path3157"
           d="M 145.962,111.87572 146.91,111.87572 146.91,120.04772 145.962,120.04772 145.962,111.87572"
           inkscape:connector-curvature="0" />
        <path
           id="path3159"
           d="M 149.37356,114.29972 150.32156,114.29972 150.32156,120.04772 149.37356,120.04772 149.37356,114.29972 M 149.84156,112.95572 C 149.64956,112.95572 149.49756,112.90372 149.38556,112.79972 149.28156,112.68772 149.22956,112.54372 149.22956,112.36772 149.22956,112.18372 149.28156,112.03973 149.38556,111.93572 149.49756,111.82373 149.64956,111.76773 149.84156,111.76772 150.03356,111.76773 150.18556,111.82373 150.29756,111.93572 150.41756,112.03973 150.47756,112.18372 150.47756,112.36772 150.47756,112.54372 150.41756,112.68772 150.29756,112.79972 150.18556,112.90372 150.03356,112.95572 149.84156,112.95572"
           inkscape:connector-curvature="0" />
        <path
           id="path3161"
           d="M 153.8115,115.41572 C 154.1875,114.58372 154.8315,114.16772 155.7435,114.16772 156.4235,114.16772 156.95149,114.39172 157.3275,114.83972 157.71149,115.28772 157.90349,115.89972 157.9035,116.67572 L 157.9035,120.04772 156.9675,120.04772 156.9675,116.67572 C 156.96749,116.12372 156.83549,115.70772 156.5715,115.42772 156.3155,115.14772 155.9475,115.00772 155.4675,115.00772 154.9875,115.00772 154.5995,115.20372 154.3035,115.59572 154.0075,115.98772 153.8515,116.53172 153.8355,117.22772 L 153.8355,120.04772 152.8875,120.04772 152.8875,114.31172 153.7035,114.31172 153.8115,115.41572"
           inkscape:connector-curvature="0" />
        <path
           id="path3163"
           d="M 162.12169,119.41172 C 162.91368,119.41172 163.36568,119.06372 163.47769,118.36772 L 164.44969,118.36772 C 164.36168,118.94372 164.10568,119.39172 163.68169,119.71172 163.26568,120.02372 162.74568,120.17972 162.12169,120.17972 161.35369,120.17972 160.72969,119.90772 160.24969,119.36372 159.76969,118.81172 159.52969,118.07972 159.52969,117.16772 159.52969,116.25572 159.76969,115.52772 160.24969,114.98372 160.73769,114.43972 161.38169,114.16772 162.18169,114.16772 162.98968,114.16772 163.58968,114.47972 163.98169,115.10372 164.38168,115.72772 164.52168,116.48772 164.40169,117.38372 L 160.47769,117.38372 C 160.47769,117.97572 160.62169,118.46372 160.90969,118.84772 161.19769,119.22372 161.60168,119.41172 162.12169,119.41172 M 162.81769,115.06772 C 162.63368,114.97172 162.40968,114.92372 162.14569,114.92372 161.65768,114.92372 161.26969,115.09172 160.98169,115.42772 160.70169,115.75572 160.53769,116.16772 160.48969,116.66372 L 163.54969,116.66372 C 163.54968,115.86372 163.30568,115.33172 162.81769,115.06772"
           inkscape:connector-curvature="0" />
        <path
           id="path3165"
           d="M 173.20856,114.33572 C 173.07256,113.59972 172.53256,113.23172 171.58856,113.23172 171.08456,113.23172 170.69656,113.34372 170.42456,113.56772 170.15256,113.78372 170.01656,114.04772 170.01656,114.35972 170.01656,114.66372 170.10056,114.89572 170.26856,115.05572 170.43656,115.21572 170.70856,115.35572 171.08456,115.47572 L 172.65656,116.01572 C 173.19256,116.19972 173.61656,116.45172 173.92856,116.77172 174.24856,117.09172 174.40856,117.54372 174.40856,118.12772 174.40856,118.70372 174.16056,119.19172 173.66456,119.59172 173.16856,119.98372 172.50456,120.17972 171.67256,120.17972 170.84056,120.17972 170.15656,119.97172 169.62056,119.55572 169.09256,119.13172 168.82056,118.53972 168.80456,117.77972 L 169.72856,117.77972 C 169.72856,118.27572 169.90056,118.65572 170.24456,118.91972 170.59656,119.18372 171.04456,119.31572 171.58856,119.31572 172.14056,119.31572 172.57656,119.19572 172.89656,118.95572 173.21656,118.70772 173.37656,118.41972 173.37656,118.09172 173.37656,117.75572 173.27656,117.49172 173.07656,117.29972 172.88456,117.10772 172.59656,116.94772 172.21256,116.81972 L 170.88056,116.32772 C 170.25656,116.11972 169.78456,115.87172 169.46456,115.58372 169.14456,115.29572 168.98456,114.87572 168.98456,114.32372 168.98456,113.76372 169.20856,113.29972 169.65656,112.93172 170.10456,112.55572 170.73256,112.36772 171.54056,112.36772 172.34856,112.36772 172.96456,112.54772 173.38856,112.90772 173.82056,113.25972 174.06856,113.73572 174.13256,114.33572 L 173.20856,114.33572"
           inkscape:connector-curvature="0" />
        <path
           id="path3167"
           d="M 178.51819,114.16772 C 179.31818,114.16772 179.96218,114.42772 180.45019,114.94772 180.94618,115.46772 181.19418,116.21172 181.19419,117.17972 181.19418,118.13972 180.94618,118.87972 180.45019,119.39972 179.96218,119.91972 179.31818,120.17972 178.51819,120.17972 177.71819,120.17972 177.07019,119.91972 176.57419,119.39972 176.08619,118.87972 175.84219,118.13972 175.84219,117.17972 175.84219,116.21172 176.08619,115.46772 176.57419,114.94772 177.07019,114.42772 177.71819,114.16772 178.51819,114.16772 M 180.23419,117.17972 C 180.23418,116.49172 180.09018,115.95572 179.80219,115.57172 179.51418,115.17972 179.09018,114.98372 178.53019,114.98372 177.97818,114.98372 177.55419,115.17972 177.25819,115.57172 176.96219,115.95572 176.81419,116.49172 176.81419,117.17972 176.81419,117.85972 176.95419,118.39572 177.23419,118.78772 177.51419,119.17172 177.93018,119.36372 178.48219,119.36372 179.04218,119.36372 179.47418,119.17172 179.77819,118.78772 180.08218,118.39572 180.23418,117.85972 180.23419,117.17972"
           inkscape:connector-curvature="0" />
        <path
           id="path3169"
           d="M 184.92469,114.16772 C 185.60468,114.16772 186.14468,114.34372 186.54469,114.69572 186.94468,115.03972 187.20468,115.47172 187.32469,115.99172 L 186.36469,116.07572 C 186.26068,115.73972 186.09268,115.47972 185.86069,115.29572 185.62868,115.10372 185.37268,115.00772 185.09269,115.00772 184.58068,115.00772 184.16469,115.19972 183.84469,115.58372 183.53269,115.96772 183.37669,116.49172 183.37669,117.15572 183.37669,117.81172 183.52869,118.33972 183.83269,118.73972 184.14469,119.13972 184.52868,119.33972 184.98469,119.33972 185.44868,119.33972 185.79268,119.23572 186.01669,119.02772 186.24868,118.81172 186.36468,118.50772 186.36469,118.11572 L 187.33669,118.11572 C 187.33668,118.73172 187.12068,119.23172 186.68869,119.61572 186.26468,119.99172 185.70868,120.17972 185.02069,120.17972 184.29269,120.17972 183.67269,119.90372 183.16069,119.35172 182.65669,118.79972 182.40469,118.06772 182.40469,117.15572 182.40469,116.23572 182.65669,115.50772 183.16069,114.97172 183.66469,114.43572 184.25269,114.16772 184.92469,114.16772"
           inkscape:connector-curvature="0" />
        <path
           id="path3171"
           d="M 189.26419,114.29972 190.21219,114.29972 190.21219,120.04772 189.26419,120.04772 189.26419,114.29972 M 189.73219,112.95572 C 189.54019,112.95572 189.38819,112.90372 189.27619,112.79972 189.17219,112.68772 189.12019,112.54372 189.12019,112.36772 189.12019,112.18372 189.17219,112.03973 189.27619,111.93572 189.38819,111.82373 189.54019,111.76773 189.73219,111.76772 189.92419,111.76773 190.07619,111.82373 190.18819,111.93572 190.30819,112.03973 190.36819,112.18372 190.36819,112.36772 190.36819,112.54372 190.30819,112.68772 190.18819,112.79972 190.07619,112.90372 189.92419,112.95572 189.73219,112.95572"
           inkscape:connector-curvature="0" />
        <path
           id="path3173"
           d="M 196.34212,116.32772 C 196.34212,115.80772 196.23412,115.43572 196.01812,115.21172 195.80212,114.98772 195.48612,114.87572 195.07012,114.87572 194.66212,114.87572 194.33012,114.95972 194.07412,115.12772 193.82612,115.28772 193.70212,115.54372 193.70212,115.89572 L 192.65812,115.89572 C 192.65812,115.01572 193.13012,114.47172 194.07412,114.26372 194.36212,114.19972 194.67412,114.16772 195.01012,114.16772 195.72212,114.16772 196.27812,114.34772 196.67812,114.70772 197.07812,115.06772 197.27812,115.61572 197.27812,116.35172 L 197.27812,120.04772 196.46213,120.04772 196.36612,119.08772 C 196.01412,119.81572 195.37812,120.17972 194.45812,120.17972 193.84212,120.17972 193.34612,120.00772 192.97012,119.66372 192.60212,119.31972 192.41812,118.89172 192.41812,118.37972 192.41812,117.86772 192.62212,117.46772 193.03012,117.17972 193.44612,116.89172 193.96212,116.74772 194.57812,116.74772 195.19412,116.74772 195.78212,116.85172 196.34212,117.05972 L 196.34212,116.32772 M 196.34212,117.65972 C 195.77412,117.49972 195.27812,117.41972 194.85412,117.41972 194.43012,117.41972 194.08612,117.49572 193.82212,117.64772 193.55812,117.79972 193.42612,118.03972 193.42613,118.36772 193.42612,119.08772 193.83412,119.44772 194.65012,119.44772 195.11412,119.44772 195.51012,119.28372 195.83812,118.95572 196.17412,118.61972 196.34212,118.18772 196.34212,117.65972"
           inkscape:connector-curvature="0" />
        <path
           id="path3175"
           d="M 199.51669,111.87572 200.46469,111.87572 200.46469,120.04772 199.51669,120.04772 199.51669,111.87572"
           inkscape:connector-curvature="0" />
        <path
           id="path3177"
           d="M 206.83162,112.49972 210.57562,118.55972 210.57562,112.49972 211.52362,112.49972 211.52362,120.04772 210.46762,120.04772 206.66362,113.90372 206.66362,120.04772 205.70362,120.04772 205.70362,112.49972 206.83162,112.49972"
           inkscape:connector-curvature="0" />
        <path
           id="path3179"
           d="M 215.93419,119.41172 C 216.72618,119.41172 217.17818,119.06372 217.29019,118.36772 L 218.26219,118.36772 C 218.17418,118.94372 217.91818,119.39172 217.49419,119.71172 217.07818,120.02372 216.55818,120.17972 215.93419,120.17972 215.16619,120.17972 214.54219,119.90772 214.06219,119.36372 213.58219,118.81172 213.34219,118.07972 213.34219,117.16772 213.34219,116.25572 213.58219,115.52772 214.06219,114.98372 214.55019,114.43972 215.19419,114.16772 215.99419,114.16772 216.80218,114.16772 217.40218,114.47972 217.79419,115.10372 218.19418,115.72772 218.33418,116.48772 218.21419,117.38372 L 214.29019,117.38372 C 214.29019,117.97572 214.43419,118.46372 214.72219,118.84772 215.01019,119.22372 215.41418,119.41172 215.93419,119.41172 M 216.63019,115.06772 C 216.44618,114.97172 216.22218,114.92372 215.95819,114.92372 215.47018,114.92372 215.08219,115.09172 214.79419,115.42772 214.51419,115.75572 214.35019,116.16772 214.30219,116.66372 L 217.36219,116.66372 C 217.36218,115.86372 217.11818,115.33172 216.63019,115.06772"
           inkscape:connector-curvature="0" />
        <path
           id="path3181"
           d="M 223.14169,119.87972 C 222.45368,120.19972 221.82568,120.26772 221.25769,120.08372 220.84969,119.95572 220.56169,119.68772 220.39369,119.27972 220.30569,119.07972 220.26169,118.83972 220.26169,118.55972 L 220.26169,115.03172 219.33769,115.03172 219.33769,114.31172 220.26169,114.31172 220.26169,112.71572 221.19769,112.71572 221.19769,114.31172 222.99769,114.31172 222.99769,115.03172 221.19769,115.03172 221.19769,118.54772 C 221.19769,119.13172 221.46968,119.42372 222.01369,119.42372 222.30968,119.42372 222.64168,119.35172 223.00969,119.20772 L 223.14169,119.87972"
           inkscape:connector-curvature="0" />
        <path
           id="path3183"
           d="M 224.65312,114.31172 226.04513,118.88372 227.41312,114.58772 228.20512,114.58772 229.56112,118.93172 230.96512,114.31172 231.90112,114.31172 230.02912,120.04772 229.10512,120.04772 227.78512,116.02772 226.48912,120.04772 225.57712,120.04772 223.66912,114.31172 224.65312,114.31172"
           inkscape:connector-curvature="0" />
        <path
           id="path3185"
           d="M 235.42444,114.16772 C 236.22443,114.16772 236.86843,114.42772 237.35644,114.94772 237.85243,115.46772 238.10043,116.21172 238.10044,117.17972 238.10043,118.13972 237.85243,118.87972 237.35644,119.39972 236.86843,119.91972 236.22443,120.17972 235.42444,120.17972 234.62444,120.17972 233.97644,119.91972 233.48044,119.39972 232.99244,118.87972 232.74844,118.13972 232.74844,117.17972 232.74844,116.21172 232.99244,115.46772 233.48044,114.94772 233.97644,114.42772 234.62444,114.16772 235.42444,114.16772 M 237.14044,117.17972 C 237.14043,116.49172 236.99643,115.95572 236.70844,115.57172 236.42043,115.17972 235.99643,114.98372 235.43644,114.98372 234.88443,114.98372 234.46044,115.17972 234.16444,115.57172 233.86844,115.95572 233.72044,116.49172 233.72044,117.17972 233.72044,117.85972 233.86044,118.39572 234.14044,118.78772 234.42044,119.17172 234.83643,119.36372 235.38844,119.36372 235.94843,119.36372 236.38043,119.17172 236.68444,118.78772 236.98843,118.39572 237.14043,117.85972 237.14044,117.17972"
           inkscape:connector-curvature="0" />
        <path
           id="path3187"
           d="M 242.26294,115.11572 C 241.35893,115.11572 240.89094,115.82772 240.85894,117.25172 L 240.85894,120.04772 239.91094,120.04772 239.91094,114.29972 240.85894,114.29972 240.85894,115.40372 C 241.14694,114.60372 241.65493,114.20372 242.38294,114.20372 242.61493,114.20372 242.83493,114.23972 243.04294,114.31172 L 242.99494,115.23572 C 242.75493,115.15572 242.51093,115.11572 242.26294,115.11572"
           inkscape:connector-curvature="0" />
        <path
           id="path3189"
           d="M 246.20925,117.01172 245.44125,117.63572 245.44125,120.04772 244.49325,120.04772 244.49325,111.87572 245.44125,111.87572 245.44125,116.62772 248.21325,114.31172 249.53325,114.31172 246.89325,116.45972 249.66525,120.04772 248.50125,120.04772 246.20925,117.01172"
           inkscape:connector-curvature="0" />
        <path
           id="path3191"
           d="M 250.96669,115.71572 C 250.96669,115.24372 251.16669,114.86772 251.56669,114.58772 251.97469,114.30772 252.52269,114.16772 253.21069,114.16772 253.89868,114.16772 254.43468,114.31172 254.81869,114.59972 255.21068,114.88772 255.41468,115.25172 255.43069,115.69172 L 254.50669,115.69172 C 254.43468,115.17172 253.99468,114.91172 253.18669,114.91172 252.79468,114.91172 252.49069,114.99972 252.27469,115.17572 252.06669,115.35172 251.96269,115.54372 251.96269,115.75172 251.96269,115.95172 252.04269,116.12372 252.20269,116.26772 252.36269,116.40372 252.61868,116.52372 252.97069,116.62772 L 254.12269,117.01172 C 254.61068,117.16372 254.98268,117.35972 255.23869,117.59972 255.50268,117.83172 255.63468,118.15572 255.63469,118.57172 255.63468,118.97972 255.42268,119.35172 254.99869,119.68772 254.57468,120.01572 253.98268,120.17972 253.22269,120.17972 252.46269,120.17972 251.87069,120.01172 251.44669,119.67572 251.02269,119.33172 250.79869,118.89172 250.77469,118.35572 L 251.68669,118.35572 C 251.70269,118.71572 251.84669,118.98772 252.11869,119.17172 252.39869,119.34772 252.74668,119.43572 253.16269,119.43572 253.57868,119.43572 253.92268,119.34772 254.19469,119.17172 254.46668,118.99572 254.60268,118.78772 254.60269,118.54772 254.60268,118.29972 254.52268,118.11172 254.36269,117.98372 254.20268,117.85572 253.94268,117.74372 253.58269,117.64772 L 252.46669,117.27572 C 251.46669,116.97972 250.96669,116.45972 250.96669,115.71572"
           inkscape:connector-curvature="0" />
      </g>
    </g>
  </g>
</svg>
