<?xml version="1.0" encoding="UTF-8" standalone="no"?>
<!-- Created with Inkscape (http://www.inkscape.org/) -->

<svg
   xmlns:dc="http://purl.org/dc/elements/1.1/"
   xmlns:cc="http://creativecommons.org/ns#"
   xmlns:rdf="http://www.w3.org/1999/02/22-rdf-syntax-ns#"
   xmlns:svg="http://www.w3.org/2000/svg"
   xmlns="http://www.w3.org/2000/svg"
   xmlns:sodipodi="http://sodipodi.sourceforge.net/DTD/sodipodi-0.dtd"
   xmlns:inkscape="http://www.inkscape.org/namespaces/inkscape"
   width="442.91336"
   height="744.09448"
   id="svg2"
   version="1.1"
   inkscape:version="0.48.2 r9819"
   sodipodi:docname="New document 1">
  <defs
     id="defs4">
    <inkscape:path-effect
       is_visible="true"
       id="path-effect6363"
       effect="spiro" />
    <filter
       id="filter5802"
       inkscape:label="Drop shadow"
       width="1.5"
       height="1.5"
       x="-.25"
       y="-.25">
      <feGaussianBlur
         id="feGaussianBlur5804"
         in="SourceAlpha"
         stdDeviation="0.01"
         result="blur" />
      <feColorMatrix
         id="feColorMatrix5806"
         result="bluralpha"
         type="matrix"
         values="1 0 0 0 0 0 1 0 0 0 0 0 1 0 0 0 0 0 0.5 0 " />
      <feOffset
         id="feOffset5808"
         in="bluralpha"
         dx="4"
         dy="4"
         result="offsetBlur" />
      <feMerge
         id="feMerge5810"
         result="fbSourceGraphic">
        <feMergeNode
           id="feMergeNode5812"
           in="offsetBlur" />
        <feMergeNode
           id="feMergeNode5814"
           in="SourceGraphic" />
      </feMerge>
      <feColorMatrix
         result="fbSourceGraphicAlpha"
         in="fbSourceGraphic"
         values="0 0 0 -1 0 0 0 0 -1 0 0 0 0 -1 0 0 0 0 1 0"
         id="feColorMatrix5816" />
      <feGaussianBlur
         id="feGaussianBlur5818"
         in="fbSourceGraphicAlpha"
         stdDeviation="2"
         result="blur" />
      <feColorMatrix
         id="feColorMatrix5820"
         result="bluralpha"
         type="matrix"
         values="1 0 0 0 0 0 1 0 0 0 0 0 1 0 0 0 0 0 1 0 " />
      <feOffset
         id="feOffset5822"
         in="bluralpha"
         dx="4"
         dy="4"
         result="offsetBlur" />
      <feMerge
         id="feMerge5824"
         result="fbSourceGraphic">
        <feMergeNode
           id="feMergeNode5826"
           in="offsetBlur" />
        <feMergeNode
           id="feMergeNode5828"
           in="fbSourceGraphic" />
      </feMerge>
      <feColorMatrix
         result="fbSourceGraphicAlpha"
         in="fbSourceGraphic"
         values="0 0 0 -1 0 0 0 0 -1 0 0 0 0 -1 0 0 0 0 1 0"
         id="feColorMatrix5830" />
      <feGaussianBlur
         id="feGaussianBlur5832"
         in="fbSourceGraphicAlpha"
         stdDeviation="0"
         result="blur" />
      <feColorMatrix
         id="feColorMatrix5834"
         result="bluralpha"
         type="matrix"
         values="1 0 0 0 0 0 1 0 0 0 0 0 1 0 0 0 0 0 1 0 " />
      <feOffset
         id="feOffset5836"
         in="bluralpha"
         dx="4"
         dy="4"
         result="offsetBlur" />
      <feMerge
         id="feMerge5838"
         result="fbSourceGraphic">
        <feMergeNode
           id="feMergeNode5840"
           in="offsetBlur" />
        <feMergeNode
           id="feMergeNode5842"
           in="fbSourceGraphic" />
      </feMerge>
      <feColorMatrix
         result="fbSourceGraphicAlpha"
         in="fbSourceGraphic"
         values="0 0 0 -1 0 0 0 0 -1 0 0 0 0 -1 0 0 0 0 1 0"
         id="feColorMatrix5844" />
      <feGaussianBlur
         id="feGaussianBlur5846"
         in="fbSourceGraphicAlpha"
         stdDeviation="0"
         result="blur" />
      <feColorMatrix
         id="feColorMatrix5848"
         result="bluralpha"
         type="matrix"
         values="1 0 0 0 0 0 1 0 0 0 0 0 1 0 0 0 0 0 1 0 " />
      <feOffset
         id="feOffset5850"
         in="bluralpha"
         dx="4"
         dy="4"
         result="offsetBlur" />
      <feMerge
         id="feMerge5852"
         result="fbSourceGraphic">
        <feMergeNode
           id="feMergeNode5854"
           in="offsetBlur" />
        <feMergeNode
           id="feMergeNode5856"
           in="fbSourceGraphic" />
      </feMerge>
      <feColorMatrix
         result="fbSourceGraphicAlpha"
         in="fbSourceGraphic"
         values="0 0 0 -1 0 0 0 0 -1 0 0 0 0 -1 0 0 0 0 1 0"
         id="feColorMatrix5858" />
      <feGaussianBlur
         id="feGaussianBlur5860"
         in="fbSourceGraphicAlpha"
         stdDeviation="0"
         result="blur" />
      <feColorMatrix
         id="feColorMatrix5862"
         result="bluralpha"
         type="matrix"
         values="1 0 0 0 0 0 1 0 0 0 0 0 1 0 0 0 0 0 1 0 " />
      <feOffset
         id="feOffset5864"
         in="bluralpha"
         dx="4"
         dy="4"
         result="offsetBlur" />
      <feMerge
         id="feMerge5866"
         result="fbSourceGraphic">
        <feMergeNode
           id="feMergeNode5868"
           in="offsetBlur" />
        <feMergeNode
           id="feMergeNode5870"
           in="fbSourceGraphic" />
      </feMerge>
      <feColorMatrix
         result="fbSourceGraphicAlpha"
         in="fbSourceGraphic"
         values="0 0 0 -1 0 0 0 0 -1 0 0 0 0 -1 0 0 0 0 1 0"
         id="feColorMatrix5872" />
      <feGaussianBlur
         id="feGaussianBlur5874"
         in="fbSourceGraphicAlpha"
         stdDeviation="0"
         result="blur" />
      <feColorMatrix
         id="feColorMatrix5876"
         result="bluralpha"
         type="matrix"
         values="1 0 0 0 0 0 1 0 0 0 0 0 1 0 0 0 0 0 1 0 " />
      <feOffset
         id="feOffset5878"
         in="bluralpha"
         dx="4"
         dy="4"
         result="offsetBlur" />
      <feMerge
         id="feMerge5880"
         result="fbSourceGraphic">
        <feMergeNode
           id="feMergeNode5882"
           in="offsetBlur" />
        <feMergeNode
           id="feMergeNode5884"
           in="fbSourceGraphic" />
      </feMerge>
      <feColorMatrix
         result="fbSourceGraphicAlpha"
         in="fbSourceGraphic"
         values="0 0 0 -1 0 0 0 0 -1 0 0 0 0 -1 0 0 0 0 1 0"
         id="feColorMatrix5942" />
      <feGaussianBlur
         id="feGaussianBlur5944"
         in="fbSourceGraphicAlpha"
         stdDeviation="0"
         result="blur" />
      <feColorMatrix
         id="feColorMatrix5946"
         result="bluralpha"
         type="matrix"
         values="1 0 0 0 0 0 1 0 0 0 0 0 1 0 0 0 0 0 1 0 " />
      <feOffset
         id="feOffset5948"
         in="bluralpha"
         dx="0"
         dy="0"
         result="offsetBlur" />
      <feMerge
         id="feMerge5950"
         result="fbSourceGraphic">
        <feMergeNode
           id="feMergeNode5952"
           in="offsetBlur" />
        <feMergeNode
           id="feMergeNode5954"
           in="fbSourceGraphic" />
      </feMerge>
      <feColorMatrix
         result="fbSourceGraphicAlpha"
         in="fbSourceGraphic"
         values="0 0 0 -1 0 0 0 0 -1 0 0 0 0 -1 0 0 0 0 1 0"
         id="feColorMatrix5956" />
      <feGaussianBlur
         id="feGaussianBlur5958"
         in="fbSourceGraphicAlpha"
         stdDeviation="0"
         result="blur" />
      <feColorMatrix
         id="feColorMatrix5960"
         result="bluralpha"
         type="matrix"
         values="1 0 0 0 0 0 1 0 0 0 0 0 1 0 0 0 0 0 1 0 " />
      <feOffset
         id="feOffset5962"
         in="bluralpha"
         dx="0"
         dy="0"
         result="offsetBlur" />
      <feMerge
         id="feMerge5964"
         result="fbSourceGraphic">
        <feMergeNode
           id="feMergeNode5966"
           in="offsetBlur" />
        <feMergeNode
           id="feMergeNode5968"
           in="fbSourceGraphic" />
      </feMerge>
      <feColorMatrix
         result="fbSourceGraphicAlpha"
         in="fbSourceGraphic"
         values="0 0 0 -1 0 0 0 0 -1 0 0 0 0 -1 0 0 0 0 1 0"
         id="feColorMatrix5970" />
      <feGaussianBlur
         id="feGaussianBlur5972"
         in="fbSourceGraphicAlpha"
         stdDeviation="0.5"
         result="blur" />
      <feColorMatrix
         id="feColorMatrix5974"
         result="bluralpha"
         type="matrix"
         values="1 0 0 0 0 0 1 0 0 0 0 0 1 0 0 0 0 0 1 0 " />
      <feOffset
         id="feOffset5976"
         in="bluralpha"
         dx="0"
         dy="0"
         result="offsetBlur" />
      <feMerge
         id="feMerge5978"
         result="fbSourceGraphic">
        <feMergeNode
           id="feMergeNode5980"
           in="offsetBlur" />
        <feMergeNode
           id="feMergeNode5982"
           in="fbSourceGraphic" />
      </feMerge>
      <feColorMatrix
         result="fbSourceGraphicAlpha"
         in="fbSourceGraphic"
         values="0 0 0 -1 0 0 0 0 -1 0 0 0 0 -1 0 0 0 0 1 0"
         id="feColorMatrix5984" />
      <feGaussianBlur
         id="feGaussianBlur5986"
         in="fbSourceGraphicAlpha"
         stdDeviation="0.5"
         result="blur" />
      <feColorMatrix
         id="feColorMatrix5988"
         result="bluralpha"
         type="matrix"
         values="1 0 0 0 0 0 1 0 0 0 0 0 1 0 0 0 0 0 0.917 0 " />
      <feOffset
         id="feOffset5990"
         in="bluralpha"
         dx="0"
         dy="0"
         result="offsetBlur" />
      <feMerge
         id="feMerge5992">
        <feMergeNode
           id="feMergeNode5994"
           in="offsetBlur" />
        <feMergeNode
           id="feMergeNode5996"
           in="fbSourceGraphic" />
      </feMerge>
    </filter>
  </defs>
  <sodipodi:namedview
     id="base"
     pagecolor="#ffffff"
     bordercolor="#666666"
     borderopacity="1.0"
     inkscape:pageopacity="0.0"
     inkscape:pageshadow="2"
     inkscape:zoom="0.7"
     inkscape:cx="175.49881"
     inkscape:cy="504.83389"
     inkscape:document-units="px"
     inkscape:current-layer="layer1"
     showgrid="false"
     units="mm"
     showguides="true"
     inkscape:guide-bbox="true"
     inkscape:window-width="679"
     inkscape:window-height="729"
     inkscape:window-x="683"
     inkscape:window-y="18"
     inkscape:window-maximized="0" />
  <metadata
     id="metadata7">
    <rdf:RDF>
      <cc:Work
         rdf:about="">
        <dc:format>image/svg+xml</dc:format>
        <dc:type
           rdf:resource="http://purl.org/dc/dcmitype/StillImage" />
        <dc:title></dc:title>
      </cc:Work>
    </rdf:RDF>
  </metadata>
  <g
     inkscape:label="Layer 1"
     inkscape:groupmode="layer"
     id="layer1"
     transform="translate(0,-308.26758)">
    <rect
       style="fill:#000000;fill-opacity:0;stroke:#000000;stroke-width:0.93244034;stroke-linecap:round;stroke-linejoin:miter;stroke-miterlimit:4;stroke-opacity:0.94117647;stroke-dasharray:none"
       id="rect2985"
       width="419.9476"
       height="443.25143"
       x="12.883348"
       y="319.5311"
       ry="11.150134" />
    <flowRoot
       xml:space="preserve"
       id="flowRoot2987"
       style="fill:black;stroke:none;stroke-opacity:1;stroke-width:1px;stroke-linejoin:miter;stroke-linecap:butt;fill-opacity:1;font-family:League Gothic Stroke;font-style:normal;font-weight:normal;font-size:28px;line-height:125%;letter-spacing:0px;word-spacing:0px;-inkscape-font-specification:League Gothic Stroke;font-stretch:normal;font-variant:normal"><flowRegion
         id="flowRegion2989"><rect
           id="rect2991"
           width="365.71429"
           height="677.14288"
           x="38.57143"
           y="36.951626"
           style="-inkscape-font-specification:League Gothic Stroke;font-family:League Gothic Stroke;font-weight:normal;font-style:normal;font-stretch:normal;font-variant:normal;font-size:28px" /></flowRegion><flowPara
         id="flowPara2993"></flowPara></flowRoot>    <flowRoot
       xml:space="preserve"
       id="flowRoot2995"
       style="font-size:48px;font-style:normal;font-variant:normal;font-weight:normal;font-stretch:normal;line-height:125%;letter-spacing:0px;word-spacing:0px;fill:#000000;fill-opacity:1;stroke:none;font-family:OSP_Le-patin-helvete;-inkscape-font-specification:OSP_Le-patin-helvete"
       transform="translate(32.857143,346.83901)"><flowRegion
         id="flowRegion2997"><rect
           id="rect2999"
           width="357.14285"
           height="672.85712"
           x="41.42857"
           y="36.951626"
           style="fill:#000000;fill-opacity:1" /></flowRegion><flowPara
         style="font-size:24px;font-style:italic;font-variant:normal;font-weight:bold;font-stretch:normal;fill:#000000;fill-opacity:1;font-family:Allan;-inkscape-font-specification:Allan Bold Italic"
         id="flowPara3077">Alessandro Acquisti, Solon Barocas, Bettina Berendt, Dave Clarke, Lorrie Faith Cranor, Claudia Diaz, Shenja van der Graaf, Serge Gutwirth, Simone van der Hof, Adam Joinson, Eva Lievens, Orla Lynskey, Alice E. Marwick, Refik Molva, Deirdre Mulligan, Sandra Petronio, Ike Picone, Jo Pierson, Frank Piessens, Sören Preibusch, Bart Preneel, Nadezhda Purtova, James B. Rule, Trebor Scholz, Peggy Valcke, Mathias Vermeulen, Ellen Wauters, Ralf De Wolf, Airi Lampinen</flowPara><flowPara
         id="flowPara3017"
         style="font-size:36px;font-style:italic;font-variant:normal;font-weight:bold;font-stretch:normal;fill:#000000;fill-opacity:1;font-family:Allan;-inkscape-font-specification:Allan Bold Italic" /><flowPara
         id="flowPara3019"
         style="font-size:36px;font-style:normal;font-variant:normal;font-weight:normal;font-stretch:normal;fill:#000000;fill-opacity:1;font-family:League Gothic Stroke;-inkscape-font-specification:League Gothic Stroke" /><flowPara
         id="flowPara3021"
         style="font-size:36px;font-style:normal;font-variant:normal;font-weight:normal;font-stretch:normal;fill:#000000;fill-opacity:1;font-family:League Gothic Stroke;-inkscape-font-specification:League Gothic Stroke" /><flowPara
         id="flowPara3023"
         style="font-size:36px;font-style:normal;font-variant:normal;font-weight:normal;font-stretch:normal;fill:#000000;fill-opacity:1;font-family:League Gothic Stroke;-inkscape-font-specification:League Gothic Stroke" /><flowPara
         id="flowPara3025"
         style="font-size:36px;font-style:normal;font-variant:normal;font-weight:normal;font-stretch:normal;fill:#000000;fill-opacity:1;font-family:League Gothic Stroke;-inkscape-font-specification:League Gothic Stroke" /><flowPara
         id="flowPara3027"
         style="font-size:36px;font-style:normal;font-variant:normal;font-weight:normal;font-stretch:normal;fill:#000000;fill-opacity:1;font-family:League Gothic Stroke;-inkscape-font-specification:League Gothic Stroke" /><flowPara
         id="flowPara3029"
         style="font-size:36px;font-style:normal;font-variant:normal;font-weight:normal;font-stretch:normal;fill:#000000;fill-opacity:1;font-family:League Gothic Stroke;-inkscape-font-specification:League Gothic Stroke" /><flowPara
         id="flowPara3031"
         style="font-size:36px;font-style:normal;font-variant:normal;font-weight:normal;font-stretch:normal;fill:#000000;fill-opacity:1;font-family:League Gothic Stroke;-inkscape-font-specification:League Gothic Stroke" /><flowPara
         id="flowPara3033"
         style="font-size:36px;font-style:normal;font-variant:normal;font-weight:normal;font-stretch:normal;fill:#000000;fill-opacity:1;font-family:League Gothic Stroke;-inkscape-font-specification:League Gothic Stroke" /><flowPara
         id="flowPara3035"
         style="font-size:36px;font-style:normal;font-variant:normal;font-weight:normal;font-stretch:normal;fill:#000000;fill-opacity:1;font-family:League Gothic Stroke;-inkscape-font-specification:League Gothic Stroke" /><flowPara
         id="flowPara3037"
         style="font-size:36px;font-style:normal;font-variant:normal;font-weight:normal;font-stretch:normal;fill:#000000;fill-opacity:1;font-family:League Gothic Stroke;-inkscape-font-specification:League Gothic Stroke" /><flowPara
         id="flowPara3039"
         style="font-size:36px;font-style:normal;font-variant:normal;font-weight:normal;font-stretch:normal;fill:#000000;fill-opacity:1;font-family:League Gothic Stroke;-inkscape-font-specification:League Gothic Stroke" /><flowPara
         id="flowPara3041"
         style="font-size:36px;font-style:normal;font-variant:normal;font-weight:normal;font-stretch:normal;fill:#000000;fill-opacity:1;font-family:League Gothic Stroke;-inkscape-font-specification:League Gothic Stroke" /><flowPara
         id="flowPara3043"
         style="font-size:36px;font-style:normal;font-variant:normal;font-weight:normal;font-stretch:normal;fill:#000000;fill-opacity:1;font-family:League Gothic Stroke;-inkscape-font-specification:League Gothic Stroke" /><flowPara
         id="flowPara3045"
         style="font-size:36px;font-style:normal;font-variant:normal;font-weight:normal;font-stretch:normal;fill:#000000;fill-opacity:1;font-family:League Gothic Stroke;-inkscape-font-specification:League Gothic Stroke" /><flowPara
         id="flowPara3047"
         style="font-size:36px;font-style:normal;font-variant:normal;font-weight:normal;font-stretch:normal;fill:#000000;fill-opacity:1;font-family:League Gothic Stroke;-inkscape-font-specification:League Gothic Stroke" /><flowPara
         id="flowPara3049"
         style="font-size:36px;font-style:normal;font-variant:normal;font-weight:normal;font-stretch:normal;fill:#000000;fill-opacity:1;font-family:League Gothic Stroke;-inkscape-font-specification:League Gothic Stroke" /><flowPara
         id="flowPara3051"
         style="font-size:36px;font-style:normal;font-variant:normal;font-weight:normal;font-stretch:normal;fill:#000000;fill-opacity:1;font-family:League Gothic Stroke;-inkscape-font-specification:League Gothic Stroke" /><flowPara
         id="flowPara3053"
         style="font-size:36px;font-style:normal;font-variant:normal;font-weight:normal;font-stretch:normal;fill:#000000;fill-opacity:1;font-family:League Gothic Stroke;-inkscape-font-specification:League Gothic Stroke" /><flowPara
         id="flowPara3055"
         style="font-size:36px;font-style:normal;font-variant:normal;font-weight:normal;font-stretch:normal;fill:#000000;fill-opacity:1;font-family:League Gothic Stroke;-inkscape-font-specification:League Gothic Stroke" /><flowPara
         id="flowPara3057"
         style="font-size:36px;font-style:normal;font-variant:normal;font-weight:normal;font-stretch:normal;fill:#000000;fill-opacity:1;font-family:League Gothic Stroke;-inkscape-font-specification:League Gothic Stroke" /><flowPara
         id="flowPara3059"
         style="font-size:36px;font-style:normal;font-variant:normal;font-weight:normal;font-stretch:normal;fill:#000000;fill-opacity:1;font-family:League Gothic Stroke;-inkscape-font-specification:League Gothic Stroke" /></flowRoot>    <rect
       style="fill:#000000;fill-opacity:0;stroke:#000000;stroke-width:1.00621355;stroke-linecap:round;stroke-linejoin:miter;stroke-miterlimit:4;stroke-opacity:0.94117647;stroke-dasharray:none"
       id="rect3075"
       width="162.99393"
       height="177.27963"
       x="22.78875"
       y="789.43652"
       ry="9.5426502" />
    <flowRoot
       xml:space="preserve"
       id="flowRoot3079"
       style="fill:black;stroke:none;stroke-opacity:1;stroke-width:1px;stroke-linejoin:miter;stroke-linecap:butt;fill-opacity:1;font-family:OSP_Le-patin-helvete;font-style:normal;font-weight:normal;font-size:48px;line-height:125%;letter-spacing:0px;word-spacing:0px;-inkscape-font-specification:OSP_Le-patin-helvete;font-stretch:normal;font-variant:normal"><flowRegion
         id="flowRegion3081"><rect
           id="rect3083"
           width="125.71429"
           height="134.28572"
           x="54.285713"
           y="525.52307" /></flowRegion><flowPara
         id="flowPara3085"></flowPara></flowRoot>    <flowRoot
       xml:space="preserve"
       id="flowRoot3095"
       style="font-size:48px;font-style:normal;font-variant:normal;font-weight:normal;font-stretch:normal;line-height:125%;letter-spacing:0px;word-spacing:0px;fill:#000000;fill-opacity:1;stroke:#808080;font-family:OSP_Le-patin-helvete;-inkscape-font-specification:OSP_Le-patin-helvete"
       transform="translate(1.4285714,341.12472)"><flowRegion
         id="flowRegion3097"><rect
           id="rect3099"
           width="150"
           height="122.85712"
           x="47.142857"
           y="529.80878"
           style="stroke:#808080" /></flowRegion><flowPara
         id="flowPara3101"
         style="font-size:24px;font-style:italic;font-variant:normal;font-weight:bold;font-stretch:normal;stroke:#808080;font-family:Allan;-inkscape-font-specification:Allan Bold Italic">The Egg</flowPara><flowPara
         id="flowPara3105"
         style="font-size:24px;font-style:italic;font-variant:normal;font-weight:bold;font-stretch:normal;stroke:#808080;font-family:Allan;-inkscape-font-specification:Allan Bold Italic">Barastraat 175</flowPara><flowPara
         style="font-size:24px;font-style:italic;font-variant:normal;font-weight:bold;font-stretch:normal;stroke:#808080;font-family:Allan;-inkscape-font-specification:Allan Bold Italic"
         id="flowPara3111">1070 Brussel</flowPara><flowPara
         id="flowPara3107"
         style="font-size:24px;font-style:italic;font-variant:normal;font-weight:bold;font-stretch:normal;stroke:#808080;font-family:Allan;-inkscape-font-specification:Allan Bold Italic" /></flowRoot>    <rect
       style="fill:#000000;fill-opacity:0;stroke:#000000;stroke-width:1.28613067;stroke-linecap:round;stroke-linejoin:miter;stroke-miterlimit:4;stroke-opacity:0.94117647;stroke-dasharray:none"
       id="rect3113"
       width="191.28545"
       height="159.85687"
       x="215.78584"
       y="792.43365"
       ry="8.7526293" />
    <flowRoot
       xml:space="preserve"
       id="flowRoot3115"
       style="font-size:12px;font-style:italic;font-variant:normal;font-weight:bold;font-stretch:normal;line-height:125%;letter-spacing:0px;word-spacing:0px;fill:#000000;fill-opacity:1;stroke:none;font-family:Allan;-inkscape-font-specification:Allan Bold Italic"
       transform="translate(0,308.26758)"><flowRegion
         id="flowRegion3117"><rect
           id="rect3119"
           width="105.71429"
           height="118.57143"
           x="231.42857"
           y="529.80878"
           style="font-size:12px;font-style:italic;font-variant:normal;font-weight:bold;font-stretch:normal;font-family:Allan;-inkscape-font-specification:Allan Bold Italic" /></flowRegion><flowPara
         id="flowPara3121">one day €49</flowPara><flowPara
         id="flowPara3123">two days €89</flowPara></flowRoot>    <text
       xml:space="preserve"
       style="font-size:20px;font-style:italic;font-variant:normal;font-weight:bold;font-stretch:normal;line-height:125%;letter-spacing:0px;word-spacing:0px;fill:#000000;fill-opacity:1;stroke:none;font-family:Allan;-inkscape-font-specification:Allan Bold Italic"
       x="230"
       y="893.79071"
       id="text3125"
       sodipodi:linespacing="125%"><tspan
         sodipodi:role="line"
         id="tspan3127"
         x="230"
         y="893.79071">http://foryoureyesonly.be/</tspan></text>
    <g
       id="g4346"
       transform="matrix(0.79255312,0,0,0.79255312,366.89044,992.31945)">
      <path
         style="fill:#000000"
         id="path3364"
         d="m 30.693,19.756 h -2.708 v -7.638 h 2.708 v 7.638 z m 0.165,-10.57 c 0,0.833 -0.685,1.518 -1.519,1.518 -0.833,0 -1.518,-0.685 -1.518,-1.518 0,-0.835 0.685,-1.52 1.518,-1.52 0.834,0 1.519,0.685 1.519,1.52"
         inkscape:connector-curvature="0" />
      <path
         style="fill:#000000"
         id="path3366"
         d="M 30.693,34.818 H 27.985 V 27.18 h 2.708 v 7.638 z m 0.165,-10.57 c 0,0.833 -0.685,1.518 -1.52,1.518 -0.833,0 -1.517,-0.685 -1.517,-1.518 0,-0.835 0.684,-1.52 1.517,-1.52 0.835,0 1.52,0.685 1.52,1.52"
         inkscape:connector-curvature="0" />
      <path
         style="fill:#000000"
         id="path3368"
         d="M 36.52,13.205 H 33.812 V 5.567 h 2.708 v 7.638 z M 36.684,2.633 c 0,0.835 -0.685,1.52 -1.518,1.52 -0.834,0 -1.519,-0.685 -1.519,-1.52 0,-0.833 0.685,-1.518 1.519,-1.518 0.833,0 1.518,0.685 1.518,1.518"
         inkscape:connector-curvature="0" />
      <path
         style="fill:#000000"
         id="path3370"
         d="m 36.52,27.44 h -2.71 v -7.639 h 2.71 v 7.639 z m 0.165,-10.57 c 0,0.833 -0.685,1.519 -1.521,1.519 -0.832,0 -1.517,-0.686 -1.517,-1.519 0,-0.834 0.685,-1.519 1.517,-1.519 0.836,0 1.521,0.685 1.521,1.519"
         inkscape:connector-curvature="0" />
      <path
         style="fill:#000000"
         id="path3372"
         d="m 42.557,22.386 h -2.709 v -7.639 h 2.709 v 7.639 z m 0.164,-10.573 c 0,0.834 -0.685,1.519 -1.521,1.519 -0.831,0 -1.515,-0.685 -1.515,-1.519 0,-0.834 0.684,-1.519 1.515,-1.519 0.836,0 1.521,0.685 1.521,1.519"
         inkscape:connector-curvature="0" />
      <path
         style="fill:#000000"
         id="path3374"
         d="m 24.875,13.205 h -2.71 V 5.567 h 2.71 v 7.638 z M 25.039,2.633 c 0,0.835 -0.686,1.52 -1.519,1.52 -0.834,0 -1.518,-0.685 -1.518,-1.52 0,-0.833 0.684,-1.518 1.518,-1.518 0.833,0 1.519,0.685 1.519,1.518"
         inkscape:connector-curvature="0" />
      <path
         style="fill:#000000"
         id="path3376"
         d="m 24.876,27.44 h -2.709 v -7.639 h 2.709 v 7.639 z m 0.163,-10.57 c 0,0.834 -0.684,1.52 -1.519,1.52 -0.832,0 -1.518,-0.686 -1.518,-1.52 0,-0.834 0.686,-1.519 1.518,-1.519 0.835,0 1.519,0.685 1.519,1.519"
         inkscape:connector-curvature="0" />
      <path
         style="fill:#000000"
         id="path3378"
         d="m 19.018,22.386 h -2.709 v -7.639 h 2.709 v 7.639 z m 0.164,-10.572 c 0,0.833 -0.685,1.518 -1.521,1.518 -0.831,0 -1.515,-0.685 -1.515,-1.518 0,-0.833 0.684,-1.519 1.515,-1.519 0.836,0 1.521,0.686 1.521,1.519"
         inkscape:connector-curvature="0" />
      <path
         style="fill:#000000"
         id="path3380"
         d="m 11.546,31.084 -10e-4,6.312 c 0,1.444 -0.061,2.874 -1.176,3.96 -0.94,0.924 -2.415,1.25 -3.725,1.249 C 5.335,42.606 3.86,42.278 2.922,41.354 1.807,40.268 1.747,38.838 1.747,37.393 l 0.002,-6.312 h 2.918 l -0.002,5.911 c -0.001,1.46 0.104,3.054 1.98,3.055 1.876,0 1.981,-1.595 1.981,-3.054 l 0.002,-5.911 2.918,0.002 z"
         inkscape:connector-curvature="0" />
      <path
         style="fill:#000000"
         id="path3382"
         d="m 16.047,35.656 h 0.031 c 0.624,-0.922 1.385,-1.236 2.442,-1.235 2.054,10e-4 2.873,1.295 2.873,3.172 l -0.001,4.72 -2.711,-0.001 10e-4,-3.723 c 0,-0.729 0.119,-2.01 -1.22,-2.011 -1.101,10e-4 -1.415,0.819 -1.415,1.771 l -0.001,3.961 h -2.71 l 0.002,-7.639 2.709,10e-4 v 0.984 z"
         inkscape:connector-curvature="0" />
      <rect
         style="fill:#000000"
         id="rect3384"
         height="12.356"
         width="2.7090001"
         y="29.957001"
         x="23.186001" />
      <polygon
         style="fill:#000000"
         id="polygon3386"
         points="32.783,42.314 32.786,29.956 35.496,29.958 35.494,37.432 38.307,34.679 42.016,34.681 38.189,38.208 42.251,42.317 38.455,42.317 35.493,39.203 35.493,42.316 " />
      <path
         style="fill:#000000"
         id="path3388"
         d="m 48.364,37.391 c -0.134,-0.729 -0.805,-1.206 -1.532,-1.206 -0.791,-0.001 -1.447,0.417 -1.611,1.206 h 3.143 z m 2.517,1.564 h -5.703 c -0.002,1.1 0.58,1.695 1.697,1.696 0.578,0 0.998,-0.194 1.295,-0.7 h 2.606 c -0.209,0.895 -0.745,1.549 -1.446,1.98 -0.699,0.432 -1.563,0.641 -2.441,0.64 -2.531,0 -4.424,-1.43 -4.424,-4.065 0.002,-2.547 1.744,-4.079 4.232,-4.077 2.65,0 4.184,1.636 4.182,4.243 l 0.002,0.283 z"
         inkscape:connector-curvature="0" />
      <path
         style="fill:#000000"
         id="path3390"
         d="m 67.031,31.098 -0.002,6.313 c 0,1.443 -0.062,2.872 -1.179,3.959 -0.936,0.923 -2.413,1.25 -3.722,1.25 -1.311,0 -2.785,-0.328 -3.723,-1.251 -1.115,-1.087 -1.176,-2.518 -1.174,-3.961 v -6.313 l 2.918,0.002 -0.002,5.909 c 0,1.459 0.106,3.053 1.981,3.054 1.877,0.002 1.981,-1.594 1.981,-3.052 l 0.002,-5.91 h 2.92 z"
         inkscape:connector-curvature="0" />
      <path
         style="fill:#000000"
         id="path3392"
         d="M 73.869,36.653 C 73.451,36.428 72.871,36.28 72.41,36.28 c -0.312,0 -0.85,0.133 -0.849,0.519 0,0.521 0.849,0.598 1.222,0.674 1.265,0.251 2.219,0.848 2.219,2.263 -0.002,2.01 -1.834,2.843 -3.606,2.842 -1.087,10e-4 -2.157,-0.312 -3.083,-0.879 l 0.986,-1.89 c 0.548,0.387 1.473,0.773 2.143,0.773 0.344,0 0.848,-0.164 0.848,-0.581 0.002,-0.594 -0.848,-0.625 -1.696,-0.848 -0.849,-0.225 -1.697,-0.641 -1.697,-2.01 10e-4,-1.878 1.697,-2.711 3.367,-2.71 0.862,0 1.726,0.135 2.515,0.492 l -0.91,1.728 z"
         inkscape:connector-curvature="0" />
      <path
         style="fill:#000000"
         id="path3394"
         d="m 4.802,49.264 v 1.981 c 0,0.452 -0.018,0.9 -0.368,1.241 C 4.139,52.775 3.677,52.88 3.266,52.88 2.855,52.88 2.392,52.776 2.098,52.486 1.748,52.145 1.729,51.697 1.729,51.245 v -1.981 h 0.916 v 1.855 c 0,0.458 0.032,0.957 0.621,0.957 0.589,0 0.621,-0.499 0.621,-0.957 v -1.855 h 0.915 z"
         inkscape:connector-curvature="0" />
      <polygon
         style="fill:#000000"
         id="polygon3396"
         points="6.446,50.628 6.436,50.628 6.436,52.786 5.521,52.786 5.521,49.264 6.436,49.264 8.113,51.418 8.123,51.418 8.123,49.264 9.038,49.264 9.038,52.786 8.123,52.786 " />
      <path
         style="fill:#000000"
         id="path3398"
         d="m 9.773,49.264 h 1.299 c 0.981,0 1.789,0.771 1.789,1.761 0,0.99 -0.812,1.762 -1.789,1.762 H 9.773 v -3.523 z m 0.916,2.746 h 0.206 c 0.546,0 1.013,-0.299 1.013,-0.985 0,-0.63 -0.415,-0.985 -1.004,-0.985 h -0.215 v 1.97 z"
         inkscape:connector-curvature="0" />
      <polygon
         style="fill:#000000"
         id="polygon3400"
         points="13.425,52.786 13.425,49.264 15.43,49.264 15.43,50.039 14.341,50.039 14.341,50.628 15.374,50.628 15.374,51.402 14.341,51.402 14.341,52.01 15.43,52.01 15.43,52.786 " />
      <path
         style="fill:#000000"
         id="path3402"
         d="m 19.062,52.786 h -1.139 l -0.865,-1.354 h -0.009 v 1.354 h -0.916 v -3.522 h 1.369 c 0.696,0 1.224,0.331 1.224,1.083 0,0.487 -0.271,0.908 -0.771,0.996 l 1.107,1.443 z m -2.013,-1.943 h 0.089 c 0.299,0 0.635,-0.056 0.635,-0.439 0,-0.383 -0.336,-0.438 -0.635,-0.438 h -0.089 v 0.877 z"
         inkscape:connector-curvature="0" />
      <path
         style="fill:#000000"
         id="path3404"
         d="m 21.382,50.17 c -0.167,-0.14 -0.383,-0.234 -0.607,-0.234 -0.167,0 -0.393,0.1 -0.393,0.295 0,0.205 0.248,0.284 0.407,0.337 l 0.234,0.068 c 0.49,0.146 0.869,0.394 0.869,0.963 0,0.352 -0.084,0.71 -0.365,0.948 -0.275,0.235 -0.645,0.332 -1,0.332 -0.443,0 -0.877,-0.149 -1.238,-0.402 l 0.393,-0.736 c 0.229,0.2 0.5,0.362 0.813,0.362 0.215,0 0.444,-0.106 0.444,-0.354 0,-0.257 -0.36,-0.346 -0.557,-0.401 -0.574,-0.164 -0.952,-0.312 -0.952,-0.995 0,-0.715 0.509,-1.182 1.214,-1.182 0.355,0 0.789,0.112 1.102,0.29 l -0.364,0.709 z"
         inkscape:connector-curvature="0" />
      <polygon
         style="fill:#000000"
         id="polygon3406"
         points="23.866,52.785 22.95,52.785 22.95,50.039 22.194,50.039 22.194,49.264 24.623,49.264 24.623,50.039 23.866,50.039 " />
      <path
         style="fill:#000000"
         id="path3408"
         d="m 25.71,52.174 -0.243,0.612 h -0.971 l 1.354,-3.522 h 1 l 1.327,3.522 h -0.976 l -0.23,-0.612 H 25.71 z m 0.64,-1.821 h -0.009 l -0.379,1.12 h 0.762 l -0.374,-1.12 z"
         inkscape:connector-curvature="0" />
      <polygon
         style="fill:#000000"
         id="polygon3410"
         points="29.524,50.628 29.517,50.628 29.517,52.786 28.601,52.786 28.601,49.264 29.517,49.264 31.192,51.418 31.202,51.418 31.202,49.264 32.118,49.264 32.118,52.786 31.202,52.786 " />
      <path
         style="fill:#000000"
         id="path3412"
         d="m 32.854,49.264 h 1.299 c 0.981,0 1.789,0.771 1.789,1.761 0,0.99 -0.813,1.762 -1.789,1.762 h -1.299 v -3.523 z m 0.916,2.746 h 0.205 c 0.546,0 1.014,-0.299 1.014,-0.985 0,-0.63 -0.416,-0.985 -1.005,-0.985 H 33.77 v 1.97 z"
         inkscape:connector-curvature="0" />
      <rect
         style="fill:#000000"
         id="rect3414"
         height="3.5220001"
         width="0.91600001"
         y="49.264"
         x="36.504002" />
      <polygon
         style="fill:#000000"
         id="polygon3416"
         points="39.082,50.628 39.074,50.628 39.074,52.786 38.158,52.786 38.158,49.264 39.074,49.264 40.75,51.418 40.76,51.418 40.76,49.264 41.676,49.264 41.676,52.786 40.76,52.786 " />
      <path
         style="fill:#000000"
         id="path3418"
         d="m 45.924,50.819 c -0.008,0.514 -0.047,0.953 -0.359,1.393 -0.346,0.481 -0.864,0.69 -1.453,0.69 -1.107,0 -1.878,-0.752 -1.878,-1.859 0,-1.145 0.776,-1.896 1.912,-1.896 0.723,0 1.282,0.327 1.587,0.987 l -0.869,0.362 c -0.126,-0.336 -0.393,-0.561 -0.761,-0.561 -0.603,0 -0.915,0.575 -0.915,1.112 0,0.547 0.326,1.103 0.928,1.103 0.398,0 0.702,-0.205 0.739,-0.611 h -0.747 v -0.72 h 1.816 z"
         inkscape:connector-curvature="0" />
      <path
         style="fill:#000000"
         id="path3420"
         d="m 3.682,55.276 c -0.168,-0.14 -0.383,-0.233 -0.607,-0.233 -0.168,0 -0.393,0.099 -0.393,0.294 0,0.206 0.249,0.284 0.407,0.337 l 0.233,0.069 c 0.491,0.146 0.87,0.393 0.87,0.962 0,0.352 -0.085,0.711 -0.365,0.948 -0.276,0.234 -0.645,0.333 -0.999,0.333 -0.444,0 -0.879,-0.15 -1.238,-0.402 l 0.392,-0.738 c 0.228,0.202 0.5,0.365 0.813,0.365 0.214,0 0.443,-0.107 0.443,-0.354 0,-0.258 -0.359,-0.347 -0.556,-0.402 -0.574,-0.164 -0.953,-0.312 -0.953,-0.996 0,-0.714 0.51,-1.182 1.215,-1.182 0.355,0 0.79,0.113 1.103,0.291 l -0.365,0.708 z"
         inkscape:connector-curvature="0" />
      <path
         style="fill:#000000"
         id="path3422"
         d="m 8.482,56.066 c 0,1.14 -0.817,1.944 -1.947,1.944 -1.131,0 -1.949,-0.805 -1.949,-1.944 0,-1.066 0.935,-1.813 1.949,-1.813 1.013,0 1.947,0.747 1.947,1.813 M 5.54,56.071 c 0,0.606 0.448,1.05 0.995,1.05 0.546,0 0.994,-0.443 0.994,-1.05 0,-0.487 -0.448,-0.93 -0.994,-0.93 -0.547,0.001 -0.995,0.443 -0.995,0.93"
         inkscape:connector-curvature="0" />
      <path
         style="fill:#000000"
         id="path3424"
         d="m 11.563,55.552 c -0.187,-0.251 -0.49,-0.387 -0.803,-0.387 -0.56,0 -0.938,0.429 -0.938,0.977 0,0.555 0.382,0.958 0.952,0.958 0.299,0 0.598,-0.146 0.789,-0.375 v 1.098 c -0.303,0.094 -0.523,0.164 -0.808,0.164 -0.49,0 -0.957,-0.188 -1.321,-0.519 -0.388,-0.352 -0.566,-0.809 -0.566,-1.332 0,-0.481 0.183,-0.942 0.518,-1.288 0.347,-0.355 0.846,-0.57 1.341,-0.57 0.295,0 0.565,0.066 0.836,0.177 v 1.097 z"
         inkscape:connector-curvature="0" />
      <rect
         style="fill:#000000"
         id="rect3426"
         height="3.5209999"
         width="0.91600001"
         y="54.370998"
         x="12.267" />
      <path
         style="fill:#000000"
         id="path3428"
         d="m 14.817,57.28 -0.243,0.612 h -0.971 l 1.354,-3.522 h 1 l 1.327,3.522 H 16.307 L 16.078,57.28 h -1.261 z m 0.64,-1.821 h -0.009 l -0.379,1.12 h 0.762 l -0.374,-1.12 z"
         inkscape:connector-curvature="0" />
      <polygon
         style="fill:#000000"
         id="polygon3430"
         points="19.721,57.893 17.707,57.893 17.707,54.37 18.623,54.37 18.623,57.116 19.721,57.116 " />
      <polygon
         style="fill:#000000"
         id="polygon3432"
         points="24.921,55.864 24.077,57.893 23.712,57.893 22.905,55.864 22.895,55.864 22.601,57.893 21.689,57.893 22.288,54.37 23.188,54.37 23.904,56.253 24.661,54.37 25.571,54.37 26.104,57.893 25.188,57.893 24.932,55.864 " />
      <polygon
         style="fill:#000000"
         id="polygon3434"
         points="26.629,57.893 26.629,54.37 28.634,54.37 28.634,55.146 27.545,55.146 27.545,55.734 28.578,55.734 28.578,56.51 27.545,56.51 27.545,57.116 28.634,57.116 28.634,57.893 " />
      <path
         style="fill:#000000"
         id="path3436"
         d="m 29.337,54.37 h 1.298 c 0.981,0 1.79,0.771 1.79,1.762 0,0.989 -0.813,1.761 -1.79,1.761 H 29.337 V 54.37 z m 0.915,2.746 h 0.207 c 0.546,0 1.012,-0.298 1.012,-0.984 0,-0.631 -0.415,-0.986 -1.004,-0.986 h -0.215 v 1.97 z"
         inkscape:connector-curvature="0" />
      <rect
         style="fill:#000000"
         id="rect3438"
         height="3.5209999"
         width="0.917"
         y="54.370998"
         x="32.987999" />
      <path
         style="fill:#000000"
         id="path3440"
         d="m 35.539,57.28 -0.243,0.612 h -0.972 l 1.355,-3.522 h 1 l 1.326,3.522 H 37.029 L 36.8,57.28 h -1.261 z m 0.64,-1.821 H 36.17 l -0.379,1.12 h 0.762 l -0.374,-1.12 z"
         inkscape:connector-curvature="0" />
      <polygon
         style="fill:#000000"
         id="polygon3442"
         points="43.191,55.864 42.347,57.893 41.982,57.893 41.175,55.864 41.166,55.864 40.871,57.893 39.959,57.893 40.558,54.37 41.459,54.37 42.174,56.253 42.931,54.37 43.842,54.37 44.373,57.893 43.459,57.893 43.201,55.864 " />
      <path
         style="fill:#000000"
         id="path3444"
         d="m 48.619,56.066 c 0,1.14 -0.818,1.944 -1.948,1.944 -1.131,0 -1.949,-0.805 -1.949,-1.944 0,-1.066 0.935,-1.813 1.949,-1.813 1.013,0 1.948,0.747 1.948,1.813 m -2.943,0.005 c 0,0.606 0.448,1.05 0.995,1.05 0.546,0 0.995,-0.443 0.995,-1.05 0,-0.487 -0.449,-0.93 -0.995,-0.93 -0.547,0.001 -0.995,0.443 -0.995,0.93"
         inkscape:connector-curvature="0" />
      <polygon
         style="fill:#000000"
         id="polygon3446"
         points="50.106,55.734 50.098,55.734 50.098,57.893 49.182,57.893 49.182,54.37 50.098,54.37 51.773,56.523 51.783,56.523 51.783,54.37 52.699,54.37 52.699,57.893 51.783,57.893 " />
      <path
         style="fill:#000000"
         id="path3448"
         d="m 57.154,56.066 c 0,1.14 -0.819,1.944 -1.948,1.944 -1.131,0 -1.949,-0.805 -1.949,-1.944 0,-1.066 0.935,-1.813 1.949,-1.813 1.014,0 1.948,0.747 1.948,1.813 m -2.944,0.005 c 0,0.606 0.449,1.05 0.996,1.05 0.546,0 0.995,-0.443 0.995,-1.05 0,-0.487 -0.449,-0.93 -0.995,-0.93 -0.547,0.001 -0.996,0.443 -0.996,0.93"
         inkscape:connector-curvature="0" />
      <path
         style="fill:#000000"
         id="path3450"
         d="m 57.717,54.371 h 1.4 c 0.758,0 1.282,0.349 1.282,1.157 0,0.831 -0.451,1.195 -1.248,1.195 h -0.519 v 1.169 h -0.916 v -3.521 z m 0.916,1.617 h 0.153 c 0.331,0 0.659,0 0.659,-0.432 0,-0.442 -0.303,-0.448 -0.659,-0.448 h -0.153 v 0.88 z"
         inkscape:connector-curvature="0" />
      <path
         style="fill:#000000"
         id="path3452"
         d="m 64.66,56.066 c 0,1.14 -0.816,1.944 -1.947,1.944 -1.131,0 -1.947,-0.805 -1.947,-1.944 0,-1.066 0.934,-1.813 1.947,-1.813 1.015,0 1.947,0.747 1.947,1.813 m -2.941,0.005 c 0,0.606 0.447,1.05 0.994,1.05 0.547,0 0.996,-0.443 0.996,-1.05 0,-0.487 -0.449,-0.93 -0.996,-0.93 -0.547,0 -0.994,0.443 -0.994,0.93"
         inkscape:connector-curvature="0" />
      <polygon
         style="fill:#000000"
         id="polygon3454"
         points="67.239,57.893 65.225,57.893 65.225,54.37 66.141,54.37 66.141,57.116 67.239,57.116 " />
      <rect
         style="fill:#000000"
         id="rect3456"
         height="3.5209999"
         width="0.91500002"
         y="54.370998"
         x="67.676003" />
      <polygon
         style="fill:#000000"
         id="polygon3458"
         points="69.33,57.893 69.33,54.37 71.332,54.37 71.332,55.146 70.244,55.146 70.244,55.734 71.277,55.734 71.277,56.51 70.244,56.51 70.244,57.116 71.332,57.116 71.332,57.893 " />
      <path
         style="fill:#000000"
         id="path3460"
         d="m 73.971,55.276 c -0.168,-0.14 -0.383,-0.233 -0.606,-0.233 -0.169,0 -0.394,0.099 -0.394,0.294 0,0.206 0.248,0.284 0.406,0.337 l 0.234,0.069 c 0.49,0.146 0.869,0.393 0.869,0.962 0,0.352 -0.084,0.711 -0.364,0.948 -0.276,0.234 -0.646,0.333 -1,0.333 -0.444,0 -0.878,-0.15 -1.239,-0.402 l 0.395,-0.738 c 0.228,0.202 0.498,0.365 0.811,0.365 0.217,0 0.445,-0.107 0.445,-0.354 0,-0.258 -0.361,-0.347 -0.557,-0.402 -0.574,-0.164 -0.953,-0.312 -0.953,-0.996 0,-0.714 0.511,-1.182 1.216,-1.182 0.354,0 0.788,0.113 1.101,0.291 l -0.364,0.708 z"
         inkscape:connector-curvature="0" />
      <path
         style="fill:#000000"
         id="path3462"
         d="M 2.645,62.388 2.402,62.999 H 1.431 l 1.354,-3.521 h 1 l 1.327,3.521 H 4.136 L 3.906,62.388 H 2.645 z m 0.64,-1.823 H 3.276 L 2.898,61.686 H 3.659 L 3.285,60.565 z"
         inkscape:connector-curvature="0" />
      <polygon
         style="fill:#000000"
         id="polygon3464"
         points="6.459,60.841 6.451,60.841 6.451,62.999 5.535,62.999 5.535,59.478 6.451,59.478 8.126,61.631 8.137,61.631 8.137,59.478 9.052,59.478 9.052,62.999 8.137,62.999 " />
      <path
         style="fill:#000000"
         id="path3466"
         d="m 9.789,59.479 h 1.298 c 0.981,0 1.789,0.769 1.789,1.761 0,0.989 -0.813,1.76 -1.789,1.76 H 9.789 v -3.521 z m 0.915,2.745 h 0.206 c 0.546,0 1.013,-0.299 1.013,-0.984 0,-0.632 -0.415,-0.986 -1.004,-0.986 h -0.215 v 1.97 z"
         inkscape:connector-curvature="0" />
      <polygon
         style="fill:#000000"
         id="polygon3468"
         points="16.583,62.999 15.667,62.999 15.667,60.253 14.911,60.253 14.911,59.478 17.339,59.478 17.339,60.253 16.583,60.253 " />
      <polygon
         style="fill:#000000"
         id="polygon3470"
         points="17.81,62.999 17.81,59.478 18.726,59.478 18.726,60.836 20.047,60.836 20.047,59.478 20.963,59.478 20.963,62.999 20.047,62.999 20.047,61.556 18.726,61.556 18.726,62.999 " />
      <polygon
         style="fill:#000000"
         id="polygon3472"
         points="21.699,62.999 21.699,59.478 23.702,59.478 23.702,60.253 22.614,60.253 22.614,60.841 23.647,60.841 23.647,61.616 22.614,61.616 22.614,62.224 23.702,62.224 23.702,62.999 " />
      <rect
         style="fill:#000000"
         id="rect3474"
         height="3.5209999"
         width="0.91600001"
         y="59.478001"
         x="24.406" />
      <path
         style="fill:#000000"
         id="path3476"
         d="M 28.989,62.999 H 27.85 l -0.865,-1.354 h -0.009 v 1.354 H 26.06 v -3.521 h 1.369 c 0.696,0 1.223,0.331 1.223,1.083 0,0.487 -0.271,0.907 -0.77,0.995 l 1.107,1.443 z m -2.013,-1.943 h 0.089 c 0.298,0 0.635,-0.055 0.635,-0.438 0,-0.383 -0.337,-0.438 -0.635,-0.438 h -0.089 v 0.876 z"
         inkscape:connector-curvature="0" />
      <path
         style="fill:#000000"
         id="path3478"
         d="m 32.013,62.388 -0.243,0.611 h -0.971 l 1.354,-3.521 h 1 l 1.327,3.521 h -0.977 l -0.229,-0.611 h -1.261 z m 0.64,-1.823 h -0.009 l -0.379,1.121 h 0.762 l -0.374,-1.121 z"
         inkscape:connector-curvature="0" />
      <polygon
         style="fill:#000000"
         id="polygon3480"
         points="36.917,62.999 34.903,62.999 34.903,59.479 35.819,59.479 35.819,62.224 36.917,62.224 " />
      <polygon
         style="fill:#000000"
         id="polygon3482"
         points="38.499,62.999 37.583,62.999 37.583,60.253 36.827,60.253 36.827,59.478 39.255,59.478 39.255,60.253 38.499,60.253 " />
      <polygon
         style="fill:#000000"
         id="polygon3484"
         points="39.726,62.999 39.726,59.478 41.729,59.478 41.729,60.253 40.642,60.253 40.642,60.841 41.674,60.841 41.674,61.616 40.642,61.616 40.642,62.224 41.729,62.224 41.729,62.999 " />
      <path
         style="fill:#000000"
         id="path3486"
         d="m 45.363,62.999 h -1.14 l -0.864,-1.354 h -0.01 v 1.354 h -0.915 v -3.521 h 1.368 c 0.695,0 1.225,0.331 1.225,1.083 0,0.487 -0.271,0.907 -0.771,0.995 l 1.107,1.443 z M 43.35,61.056 h 0.089 c 0.3,0 0.636,-0.055 0.636,-0.438 0,-0.383 -0.336,-0.438 -0.636,-0.438 H 43.35 v 0.876 z"
         inkscape:connector-curvature="0" />
      <polygon
         style="fill:#000000"
         id="polygon3488"
         points="46.674,60.841 46.665,60.841 46.665,62.999 45.749,62.999 45.749,59.478 46.665,59.478 48.342,61.631 48.352,61.631 48.352,59.478 49.268,59.478 49.268,62.999 48.352,62.999 " />
      <path
         style="fill:#000000"
         id="path3490"
         d="m 50.899,62.388 -0.243,0.611 h -0.971 l 1.354,-3.521 h 1 l 1.328,3.521 H 52.39 l -0.229,-0.611 h -1.262 z m 0.64,-1.823 h -0.008 l -0.379,1.121 h 0.762 l -0.375,-1.121 z"
         inkscape:connector-curvature="0" />
      <polygon
         style="fill:#000000"
         id="polygon3492"
         points="54.91,62.999 53.996,62.999 53.996,60.253 53.24,60.253 53.24,59.478 55.668,59.478 55.668,60.253 54.91,60.253 " />
      <rect
         style="fill:#000000"
         id="rect3494"
         height="3.5209999"
         width="0.91600001"
         y="59.478001"
         x="56.139" />
      <polygon
         style="fill:#000000"
         id="polygon3496"
         points="60.122,59.479 61.117,59.479 59.614,62.999 58.903,62.999 57.422,59.479 58.417,59.479 59.268,61.616 " />
      <polygon
         style="fill:#000000"
         id="polygon3498"
         points="61.484,62.999 61.484,59.478 63.488,59.478 63.488,60.253 62.4,60.253 62.4,60.841 63.432,60.841 63.432,61.616 62.4,61.616 62.4,62.224 63.488,62.224 63.488,62.999 " />
      <path
         style="fill:#000000"
         id="path3500"
         d="M 66.127,60.384 C 65.959,60.243 65.744,60.15 65.52,60.15 c -0.168,0 -0.393,0.098 -0.393,0.296 0,0.204 0.248,0.283 0.406,0.335 l 0.234,0.07 c 0.488,0.146 0.868,0.392 0.868,0.962 0,0.351 -0.085,0.711 -0.364,0.948 -0.275,0.233 -0.645,0.332 -0.999,0.332 -0.446,0 -0.878,-0.149 -1.239,-0.402 l 0.393,-0.738 c 0.229,0.202 0.5,0.365 0.812,0.365 0.215,0 0.444,-0.108 0.444,-0.355 0,-0.257 -0.358,-0.346 -0.556,-0.4 -0.574,-0.164 -0.953,-0.314 -0.953,-0.995 0,-0.715 0.51,-1.183 1.214,-1.183 0.356,0 0.791,0.111 1.103,0.29 l -0.363,0.709 z"
         inkscape:connector-curvature="0" />
    </g>
    <g
       id="g4467"
       transform="matrix(0.64001519,0,0,0.64001519,283.84041,961.05187)">
      <path
         id="path6361"
         transform="scale(0.8,0.8)"
         d="m 1.84375,2.625 0,161.65625 132.5625,0 0,-144.46875 c 6.81738,1.64618 15.5,11.125 15.5,11.125 0,0 3.53698,-8.230201 5.375,-11.90625 C 145.23509,11.018241 137.61081,7.5010853 134.40625,6.25 l 0,-3.625 -132.5625,0 z"
         style="fill:#ffffff;fill-opacity:1;stroke:none"
         inkscape:connector-curvature="0" />
      <path
         d="M 0.86,1.91 C 35.56,1.81 108.82774,1.89 108.82774,1.89 l -0.0501,3.3393034 c 0,0 2.64732,1.2506966 4.09232,1.9306966 4.43,2.13 8.32,5.17 12.09,8.29 -1.65,3.42 -3.37,6.8 -5.07,10.2 -3.5,-3.13 -6.63,-7.84 -11.59,-8.49 -0.95911,37.938357 -0.24,114.57 -0.24,114.57 L 0.88,131.69 c 0,0 -0.0859861,-89.394222 -0.02,-129.78 m 95.61,2.77 c -9.06,1.99 -13.49,10.96 -17.29,18.5 -2.51,-1.24 -5,-2.49 -7.46,-3.81 -1.39,2.51 -2.73,5.05 -4.01,7.62 -1.57,0.21 -3.14,0.42 -4.71,0.61 5.35,-6.94 10.52,-14.02 15.95,-20.9 3.88,0.06 6.935318,0.06 10.815318,-0.03 0,0 0.708268,-0.7629375 1.930457,-1.1 C 77.095775,5.685 2.82,5.68 2.82,5.68 2.6100977,46.592156 2.85,128.37 2.85,128.37 l 41.427519,0.17393 0.575401,-1.432 -1.865248,-0.0613 c 0,0 -0.08267,-10.04563 -0.09767,-11.09063 -1.795,-0.705 -3.85,-1.5175 -5.89625,-1.85875 C 34.9475,113.76 32.91,113.89 31.15,115.07 c -1.55,3.86 -3.571794,12.24573 -3.571794,12.24573 L 8.88,127.32 c 0,0 8.12,-17.69 12.23,-26.51 2.05,1.48 4.16,2.93 6.54,3.86 -2.09,-2.51 -4.78,-4.51 -7.73,-5.87 -3.97,-0.48 -7.99,-0.21 -11.98,-0.51 -0.04,0.59 -0.13,1.79 -0.18,2.38 -1.23,1.49 -3.9412375,4.66083 -3.9412375,4.66083 L 3.9,99.7 c 0,0 2.7,-0.92 3.95,-1.6 C 6.93,98.08 5.1,98.04 4.18,98.02 3.94,82.67 3.6,67.32 3.77,51.96 c 4.45,-0.18 8.92,-0.27 13.37,-0.56 1.38,-0.16 2.97,-0.03 4.05,-1.09 3.73,-3.01 7.4,-6.11 11.35,-8.83 4.33,-3.2 10.4,-2.62 14.45,-6.34 3.98,-2.7 7.8,-6.88 13.04,-6.41 5.69,0.04 11.33,-0.77 16.96,-1.48 2.71,1.52 5.62,2.82 7.71,5.2 2.43,3.08 7.27,0.18 9.91,3.02 1.63,2.07 2.46,4.63 3.07,7.16 1.72,0.58 3.41,1.23 5.04,2.03 1.51,-2.41 2.8,-4.94 3.93,-7.55 -4.65,-2.37 -9.31,-4.72 -13.92,-7.17 2.76,-5.45 5.23,-12.56 11.72,-14.43 6.39,-0.81 10.98,4.74 15.37,8.48 1.31,-2.74 2.69,-5.46 4.08,-8.17 C 116.31,9.49 106.88,2.87 96.47,4.68 m -2.16,24.14 c 3.44,-1.67 10.22,-5.17 10.22,-5.17 L 104.34248,35.543817 105.05,35.93 c 0,0 0.34,-13.32 0.42,-19.96 -5.94,1.74 -8.75,7.69 -11.16,12.85 M 83.74,44.57 c 0.65,-0.01 1.93,-0.04 2.58,-0.05 1.33,2.44 2.02,5.15 2.95,7.76 -0.25,0.44 -0.73,1.31 -0.97,1.75 1.07,-0.12 2.09,-0.42 3.06,-0.9 -2.56,-6.08 -4.32,-12.51 -7.38,-18.36 -2.08,3 -0.81,6.55 -0.24,9.8 M 68.8,39.76 c -1.72,0.19 -3.44,0.43 -5.12,0.83 -2.21,-0.25 -4.43,-0.54 -6.64,-0.77 2.24,2.51 4.7,4.8 7.22,7.04 1.9,-0.12 3.8,-0.26 5.71,-0.41 -3.26,1.83 -4.22,5.55 -6.21,8.44 0.38,0.52 0.76,1.03 1.15,1.54 0.02,-3.23 3.77,-2.97 5.98,-3.32 -0.4,-2.25 -0.56,-4.52 -0.61,-6.79 1.26,-0.58 2.51,-1.18 3.75,-1.77 1.33,3.49 3.02,6.93 5.93,9.38 0.87,-0.01 2.63,-0.02 3.51,-0.03 -2.93,-1.34 -5.62,-3.43 -6.76,-6.55 -1.31,-3.85 -3.44,-7.3 -5.4,-10.84 -0.84,1.08 -1.68,2.16 -2.51,3.25 m 23.32,0.07 c 2.89,3.29 -1.31,8.59 2.87,10.87 0.81,-1.21 1.68,-2.4 2.35,-3.7 -0.63,-3.02 -1.81,-5.9 -3.1,-8.69 -1.03,-0.68 -1.43,1.05 -2.12,1.52 m 8.81,4.62 c -2.04,2.89 -3.35,6.24 -4.78,9.46 -0.03,2.37 0.51,4.7 0.92,7.03 -1.58,2.79 -3.46,5.43 -4.78,8.36 -0.87,3.79 0.25,7.82 -0.83,11.57 -1.78,2.28 -4.65,3.2 -7.12,4.52 0.17,2.23 0.37,4.47 0.23,6.71 0.18,2.06 -1.97,2.99 -3.25,4.17 -4.06,2.97 -7.69,6.71 -12.4,8.65 -4.76,0.55 -9.57,0.78 -14.23,2.05 2.03,6.67 4.89,20.28 4.89,20.28 L 54.252576,127.3444 53.72,128.27 c 0,0 34.55,0.19 51.82,0.14 0.17,-28.62 0.05,-86.367269 0.05,-86.367269 l -2.08324,3.627838 M 48.58,45.68 c -5.88,3.21 -11.21,7.28 -16.32,11.61 -2.91,3.09 -5.61,7.09 -5.25,11.52 3.18,2.94 8.01,1.81 11.92,1.47 5.13,-1.03 11.12,-1.34 14.8,-5.58 2.97,-3.06 6.06,-6.17 8.04,-10 1.82,-2.93 -0.12,-6.9 -2.8,-8.56 -3.31,-1.1 -7,-1.3 -10.39,-0.46 m 43.89,7.12 c 0.32,2.78 1.43,5.58 0.85,8.37 -3.07,0.45 -6.12,-0.8 -9.22,-0.58 -6.73,0.35 -13.68,1.95 -20.25,-0.43 0.25,1.05 0.76,3.15 1.02,4.2 4.37,-0.31 8.74,-0.57 13.12,-0.59 4.52,0 9.28,-0.44 13.44,1.73 1.37,-1.61 3.18,-3.13 3.6,-5.31 0.05,-2.67 0.19,-5.97 -2.56,-7.39 M 62.1,57.45 c -0.66,3.38 -2.6,6.26 -4.11,9.29 -4.52,8.96 -9.12,17.88 -13.62,26.84 -1.17,2.23 -2.29,4.64 -4.35,6.19 -4.29,3.38 -10.42,3.04 -14.46,6.84 -5.92,4.81 -5.12,15.14 1.32,19.15 1.2,-3.8 1.74,-7.82 3.43,-11.44 1.12,-1.41 3.08,-1.23 4.68,-1.29 4.48,-0.19 9.11,1.62 12.06,5.02 0.54,4.51 -1.87,8.79 -2.47,13.23 7.22,0.19 13.39,-7.25 11.58,-14.29 -0.4,-4.11 -3.73,-8.32 -1.52,-12.35 2.51,-4.92 4.93,-9.87 7.63,-14.69 C 59.59,88.88 56.13,88 55.15,84.9 54.05,81.79 55.56,78.4 58.26,76.67 57.45,71.86 57.6,65.28 63.33,63.75 63.32,62.28 63.35,60.8 63.41,59.32 62.98,58.69 62.54,58.07 62.1,57.45 m 25.54,8.03 c 0.05,2.24 0.17,4.47 0.27,6.71 C 84,71.87 80.09,70.71 76.16,71.4 c -4.78,0.64 -9.84,1.55 -14.52,-0.04 -1.09,-1.62 -0.08,-3.93 -0.52,-5.74 -2.26,2.76 -2.99,6.73 -1.84,10.09 0.68,1.39 2.38,1.31 3.69,1.38 7.38,-0.19 14.63,2.18 21.09,5.6 2.68,-0.98 6.61,-2.17 6.49,-5.71 -0.07,-3.83 0.81,-9.1 -2.91,-11.5 M 5.19,87.2 c -0.88,2.1 -0.34,4.36 -0.03,6.51 6.66,0.15 13.25,1.52 19.49,3.82 2.71,1.05 4.63,3.51 7.44,4.37 3.85,-0.55 7.72,-2.5 9.8,-5.88 1.46,-2.36 2.64,-4.87 4.02,-7.27 -0.45,-0.12 -1.36,-0.35 -1.82,-0.47 -0.52,-3.63 0.25,-7.54 -1.32,-10.95 -2.86,-0.66 -5.74,0.69 -7.7,2.73 -3.31,3.42 -5.05,7.95 -6.71,12.32 -0.91,-1.52 -1.83,-3.02 -2.74,-4.53 -1.28,0.8 -2.55,1.63 -3.81,2.46 C 19.29,83.46 17.15,76.34 13.2,70.15 8.99,74.98 7.19,81.25 5.19,87.2 m 50.39,-5.16 c 0.32,1.81 0.61,3.89 2.34,4.93 5.56,3.52 13.14,1.49 18.17,6.25 -3.57,1.27 -7.29,2.39 -11.11,2.34 -1.6,0.15 -3.46,-0.84 -4.88,0.22 -0.95,2.47 -1.47,5.08 -2.19,7.63 5.97,-0.21 12.61,-0.07 17.44,-4.17 5.05,-3.14 7.09,-9.48 6.76,-15.17 -1.12,-1.04 -2.42,-1.84 -3.67,-2.69 0.55,1.91 -0.24,3.69 -2.39,3.65 -3.26,0.65 -6.4,-0.58 -9.3,-1.9 -3.49,-1.63 -7.44,-1.31 -11.17,-1.09 z"
         id="path5091"
         inkscape:connector-curvature="0"
         style="fill:#000000"
         sodipodi:nodetypes="ccccccccccccccccccccccccsccccccccccccccccccccccccccccccccccccccccccccccccccccccccccccccccccccccccccccccccccccccccccccccccccccccccccccccccccccccccccccccccccccccccccccccccccccc" />
      <path
         d="M 3.83,6.75 C 8.27,6.74 12.72,6.76 17.17,6.68 22.68,17.59 28.22,28.49 33.44,39.54 32.29,40.28 31.14,41.02 30,41.77 21.26,31.15 12.59,20.48 3.79,9.91 3.8,9.12 3.82,7.54 3.83,6.75 z"
         id="path5093"
         inkscape:connector-curvature="0"
         style="fill:#000000" />
      <path
         d="m 28.94,6.75 c 3.78,-0.01 7.57,-0.01 11.36,-0.03 0.55,10.05 0.48,20.13 0.9,30.19 -1.39,0.38 -2.78,0.76 -4.16,1.14 -2.68,-10.44 -5.38,-20.87 -8.1,-31.3 z"
         id="path5095"
         inkscape:connector-curvature="0"
         style="fill:#000000" />
      <path
         d="M 51.523931,6.7803435 63.85,6.74 c 0,0 -5.81,12.94 -8.7,19.41 -1.47,4.1 -6.02,5.52 -9.18,7.99 1.95,-8.98 5.553931,-27.3596565 5.553931,-27.3596565 z"
         id="path5097"
         inkscape:connector-curvature="0"
         style="fill:#000000"
         sodipodi:nodetypes="ccccc" />
      <path
         d="m 3.82,26.64 c 7.81,5.68 15.22,11.88 22.95,17.67 -1.28,0.99 -2.56,1.99 -3.84,2.97 -6.38,-3.03 -12.91,-5.75 -19.21,-8.97 0.11,-3.89 0.1,-7.78 0.1,-11.67 z"
         id="path5099"
         inkscape:connector-curvature="0"
         style="fill:#000000" />
      <path
         d="m 3.77,47.89 c 3.09,0.57 6.17,1.16 9.2,1.98 C 9.99,50.45 6.7801718,50.59 3.7501718,50.76 3.7201718,50.04 3.81,48.61 3.77,47.89 z"
         id="path5101"
         inkscape:connector-curvature="0"
         style="fill:#000000"
         sodipodi:nodetypes="cccc" />
      <path
         d="m 97.35,54.59 c 2.4,-0.06 4.81,-0.12 7.21,-0.14 -0.04,4.82 0.01,9.65 -0.11,14.48 -3.15,-0.72 -6.31,-1.37 -9.47,-2 1.11,-1.92 2.42,-3.76 3.12,-5.88 -0.03,-2.17 -0.46,-4.32 -0.75,-6.46 z"
         id="path5103"
         inkscape:connector-curvature="0"
         style="fill:#000000" />
      <path
         d="m 93.43,79.36 c 3.69,1.6 7.33,3.3 11,4.94 0.21,6.56 0.07,13.12 0.09,19.68 -6.21,-4.74 -12.36,-9.56 -18.62,-14.25 -0.08,-1.22 -0.15,-2.44 -0.23,-3.65 3.13,-1.49 6.78,-3.01 7.76,-6.72 z"
         id="path5105"
         inkscape:connector-curvature="0"
         style="fill:#000000" />
      <path
         d="m 67.24,106.73 c 4.34,-1.17 7.83,-4.04 11.33,-6.7 7.58,9.09 15.17,18.19 22.75,27.29 -7.79,0.06 -15.57,-0.02 -23.35,0.04 -3.75,-6.78 -6.88,-13.89 -10.73,-20.63 z"
         id="path5107"
         inkscape:connector-curvature="0"
         style="fill:#000000" />
    </g>
    <g
       id="g4641"
       transform="matrix(0.14854846,0,0,0.14854846,30.077936,1006.6324)">
      <g
         style="fill:#000000"
         id="#f0163aff">
        <path
           style="fill:#000000"
           id="path4397"
           d="M 0,0 339,0 339,227 0,227 0,0 m 45.02,34.26 c -0.03,8.66 -0.04,17.32 0,25.98 10.9,-0.01 21.81,-0.01 32.71,0 0.01,-8.66 0,-17.32 0.01,-25.98 -10.91,0 -21.81,0.01 -32.72,0 m 173.24,0 c 0.01,8.66 0,17.32 0.01,25.98 35.73,-0.01 71.47,0.01 107.21,-0.02 0.01,-8.65 -0.01,-17.3 0.01,-25.95 -35.74,-0.02 -71.48,0 -107.23,-0.01 m -49.61,36.56 c -5.22,15.01 -10.73,29.93 -16.01,44.92 13.31,27.08 26.37,54.28 39.62,81.38 17.61,-41.31 35.37,-82.55 52.93,-123.87 -10.82,0.04 -21.63,0 -32.45,0.02 -6.79,15.5 -13.54,31.01 -20.36,46.49 -7.97,-16.29 -15.72,-32.68 -23.73,-48.94 M 45.01,73.27 c -0.02,40.49 -0.03,80.98 0.01,121.47 10.9,-0.02 21.81,0 32.71,-0.01 0.01,-40.49 0,-80.97 0,-121.46 -10.9,-0.01 -21.81,0 -32.72,0 m 44.67,0 c 17.67,41.22 35.4,82.42 53.02,123.67 5.28,-13.4 10.69,-26.74 15.94,-40.14 -12.74,-27.82 -25.36,-55.7 -38.04,-83.55 -10.31,0.04 -20.61,0 -30.92,0.02 m 167.59,0 c -0.01,40.49 -0.01,80.98 0.01,121.47 10.98,-0.02 21.97,0 32.96,-0.01 0,-40.49 -0.01,-80.97 0,-121.46 -10.99,0 -21.98,-0.01 -32.97,0 z"
           inkscape:connector-curvature="0" />
      </g>
      <g
         id="#ffffffff">
        <path
           id="path4400"
           d="m 45.02,34.26 c 10.91,0.01 21.81,0 32.72,0 -0.01,8.66 0,17.32 -0.01,25.98 -10.9,-0.01 -21.81,-0.01 -32.71,0 -0.04,-8.66 -0.03,-17.32 0,-25.98 z"
           inkscape:connector-curvature="0"
           style="fill:#ffffff" />
        <path
           id="path4402"
           d="m 218.26,34.26 c 35.75,0.01 71.49,-0.01 107.23,0.01 -0.02,8.65 0,17.3 -0.01,25.95 -35.74,0.03 -71.48,0.01 -107.21,0.02 -0.01,-8.66 0,-17.32 -0.01,-25.98 z"
           inkscape:connector-curvature="0"
           style="fill:#ffffff" />
        <path
           id="path4404"
           d="m 168.65,70.82 c 8.01,16.26 15.76,32.65 23.73,48.94 6.82,-15.48 13.57,-30.99 20.36,-46.49 10.82,-0.02 21.63,0.02 32.45,-0.02 -17.56,41.32 -35.32,82.56 -52.93,123.87 -13.25,-27.1 -26.31,-54.3 -39.62,-81.38 5.28,-14.99 10.79,-29.91 16.01,-44.92 z"
           inkscape:connector-curvature="0"
           style="fill:#ffffff" />
        <path
           id="path4406"
           d="m 45.01,73.27 c 10.91,0 21.82,-0.01 32.72,0 0,40.49 0.01,80.97 0,121.46 -10.9,0.01 -21.81,-0.01 -32.71,0.01 -0.04,-40.49 -0.03,-80.98 -0.01,-121.47 z"
           inkscape:connector-curvature="0"
           style="fill:#ffffff" />
        <path
           id="path4408"
           d="m 89.68,73.27 c 10.31,-0.02 20.61,0.02 30.92,-0.02 12.68,27.85 25.3,55.73 38.04,83.55 -5.25,13.4 -10.66,26.74 -15.94,40.14 C 125.08,155.69 107.35,114.49 89.68,73.27 z"
           inkscape:connector-curvature="0"
           style="fill:#ffffff" />
        <path
           id="path4410"
           d="m 257.27,73.27 c 10.99,-0.01 21.98,0 32.97,0 -0.01,40.49 0,80.97 0,121.46 -10.99,0.01 -21.98,-0.01 -32.96,0.01 -0.02,-40.49 -0.02,-80.98 -0.01,-121.47 z"
           inkscape:connector-curvature="0"
           style="fill:#ffffff" />
      </g>
    </g>
    <g
       id="g10"
       transform="matrix(0.21618242,0,0,-0.21618242,29.437762,998.76482)">
      <g
         id="g12"
         transform="scale(0.1,0.1)">
        <path
           style="fill:#747474;fill-opacity:1;fill-rule:nonzero;stroke:none"
           id="path14"
           d="m 3194.25,952.953 c 0,0 -0.04,36.465 -0.04,36.485 l -0.13,142.282 -0.02,17.76 c -61.17,-0.06 -113.13,-39.34 -132.15,-94.07 -5.02,-14.39 -7.77,-29.84 -7.77,-45.97 0,-1.86 0.07,-3.69 0.13,-5.53 l 0,-51.308 139.98,0.351"
           inkscape:connector-curvature="0" />
        <path
           style="fill:#201d1c;fill-opacity:1;fill-rule:nonzero;stroke:none"
           id="path16"
           d="m 3055.62,19.3398 136.719,0 0,828.34 -136.719,0 0,-828.34 z"
           inkscape:connector-curvature="0" />
        <path
           style="fill:#201d1c;fill-opacity:1;fill-rule:nonzero;stroke:none"
           id="path18"
           d="m 3806.73,743.129 c -152.79,0 -279.88,-136.719 -279.88,-307.207 0,-172.129 128.69,-310.453 279.88,-310.453 152.84,0 278.27,135.121 278.27,310.453 0,172.09 -125.43,307.207 -278.27,307.207 z M 3806.73,0 c -234.82,0 -416.58,189.828 -416.58,435.922 l 0,780.098 131.88,0 0,-487.364 c 67.57,85.254 172.14,139.942 286.32,139.942 230.02,0 413.36,-185 413.36,-432.676 C 4221.71,186.59 4035.13,0 3806.73,0"
           inkscape:connector-curvature="0" />
        <path
           style="fill:#201d1c;fill-opacity:1;fill-rule:nonzero;stroke:none"
           id="path20"
           d="m 4773.41,743.129 c -152.81,0 -279.9,-136.719 -279.9,-307.207 0,-172.129 128.69,-310.453 279.9,-310.453 152.78,0 278.26,135.121 278.26,310.453 0,172.09 -125.48,307.207 -278.26,307.207 z M 4773.41,0 c -234.84,0 -416.58,189.828 -416.58,435.922 l 0,780.098 131.86,0 0,-487.364 c 67.59,85.254 172.13,139.942 286.34,139.942 229.98,0 413.36,-185 413.36,-432.676 C 5188.39,186.59 5001.81,0 4773.41,0"
           inkscape:connector-curvature="0" />
        <path
           style="fill:#201d1c;fill-opacity:1;fill-rule:nonzero;stroke:none"
           id="path22"
           d="M 5669.29,19.3398 C 5476.28,-3.17969 5342.79,111 5342.79,321.723 l 0,702.867 135.1,0 0,-176.91 188.18,0 0,-130.293 -188.18,0 0,-395.664 c 0,-146.383 88.47,-183.383 191.4,-176.934 l 0,-125.4492"
           inkscape:connector-curvature="0" />
        <path
           style="fill:#747474;fill-opacity:1;fill-rule:nonzero;stroke:none"
           id="path24"
           d="m 145.234,1213.02 -145.234,0 0,-723.801 145.234,39.062 0,684.739"
           inkscape:connector-curvature="0" />
        <path
           style="fill:#8e8e8e;fill-opacity:1;fill-rule:nonzero;stroke:none"
           id="path26"
           d="m 145.234,2.33984 0,526.82816 L 0,490.156 0,2.33984 l 145.234,0"
           inkscape:connector-curvature="0" />
        <path
           style="fill:#747474;fill-opacity:1;fill-rule:nonzero;stroke:none"
           id="path28"
           d="m 606.621,1213.02 -317.656,0 0,-650.122 317.656,85.739 0,564.383"
           inkscape:connector-curvature="0" />
        <path
           style="fill:#8e8e8e;fill-opacity:1;fill-rule:nonzero;stroke:none"
           id="path30"
           d="m 607.227,568.016 c 0,8.515 -0.254,16.914 -0.606,25.312 l 0,59.649 -317.656,-85.079 0,-565.54644 C 478.691,112 607.227,324.168 607.227,568.016"
           inkscape:connector-curvature="0" />
        <path
           style="fill:#747474;fill-opacity:1;fill-rule:nonzero;stroke:none"
           id="path32"
           d="m 1352.77,1213.02 -603.122,0 0.606,-529.145 602.516,165.332 0,363.813"
           inkscape:connector-curvature="0" />
        <path
           style="fill:#8e8e8e;fill-opacity:1;fill-rule:nonzero;stroke:none"
           id="path34"
           d="m 1319.9,405.777 c 21.58,62.231 33.48,129.164 33.48,198.743 0,7.96 -0.37,15.894 -0.61,23.73 l 0,224.648 L 750.254,690.855 750.859,76.25 1319.9,405.777"
           inkscape:connector-curvature="0" />
        <path
           style="fill:#9c9c9c;fill-opacity:1;fill-rule:nonzero;stroke:none"
           id="path36"
           d="M 750.977,2.35156 C 1014.26,2.55859 1237.93,171.762 1319.9,407.215 L 750.859,78.75 750.977,2.35156"
           inkscape:connector-curvature="0" />
        <path
           style="fill:#747474;fill-opacity:1;fill-rule:nonzero;stroke:none"
           id="path38"
           d="m 2123.54,1213.02 c -7.91,0 -15.73,-0.36 -23.64,-0.59 l -579.37,0 0,-321.379 892.54,247.699 c -85.22,46.25 -185.86,74.27 -289.53,74.27"
           inkscape:connector-curvature="0" />
        <path
           style="fill:#8e8e8e;fill-opacity:1;fill-rule:nonzero;stroke:none"
           id="path40"
           d="m 1520.64,607.074 c 0,-26.746 2.58,-57.734 5.94,-83.5 l 966.9,562.076 c -25.56,19.65 -55.06,39.43 -83.62,54.86 l -889.33,-239.127 0,-294.309 0.11,0"
           inkscape:connector-curvature="0" />
        <path
           style="fill:#9c9c9c;fill-opacity:1;fill-rule:nonzero;stroke:none"
           id="path42"
           d="M 2490.98,1087.61 1525.94,528.293 c 17.4,-133.234 80.63,-255.621 169.79,-346.965 l 850.39,858.032 c -17.27,16.99 -36.06,33.43 -55.14,48.25"
           inkscape:connector-curvature="0" />
        <path
           style="fill:#aaaaaa;fill-opacity:1;fill-rule:nonzero;stroke:none"
           id="path44"
           d="M 2545.45,1040.04 1692.85,184.219 C 1782.03,92.8984 1900.84,29.4883 2032.62,9.12109 L 2593.98,986.258 c -15,18.672 -31.48,37.022 -48.53,53.782"
           inkscape:connector-curvature="0" />
        <path
           style="fill:#b7b7b7;fill-opacity:1;fill-rule:nonzero;stroke:none"
           id="path46"
           d="m 2031.88,9.30078 c 30.12,-4.57031 60.84,-6.96094 92.15,-6.96094 8.05,0 15.84,0.21094 23.77,0.57032 l 257.63,0 242.32,904.78484 c -15.72,27.465 -34.11,54.532 -53.8,79.098 L 2031.88,9.30078"
           inkscape:connector-curvature="0" />
        <path
           style="fill:#c5c5c5;fill-opacity:1;fill-rule:nonzero;stroke:none"
           id="path48"
           d="m 2726.54,2.91016 0,605.35584 c 0,109.39 -29.16,211.8 -79.8,300.328 l -241.8,-905.68384 321.6,0"
           inkscape:connector-curvature="0" />
      </g>
    </g>
    <text
       xml:space="preserve"
       style="font-size:28px;font-style:normal;font-variant:normal;font-weight:normal;font-stretch:normal;line-height:125%;letter-spacing:0px;word-spacing:0px;fill:#000000;fill-opacity:1;stroke:none;font-family:League Gothic Stroke;-inkscape-font-specification:League Gothic Stroke;"
       x="41.42857"
       y="51.237339"
       id="text6718"
       sodipodi:linespacing="125%"
       transform="translate(0,308.26758)"><tspan
         sodipodi:role="line"
         id="tspan6720"
         x="41.42857"
         y="51.237339"
         style="fill:#ff3481;fill-opacity:1">WHO</tspan></text>
  </g>
</svg>
