<svg style="overflow: hidden; position: relative;" xmlns="http://www.w3.org/2000/svg" xmlns:xlink="http://www.w3.org/1999/xlink" width="815" version="1.1" height="351"><rect transform="matrix(1,0,0,1,0,0)" x="0" y="0" width="815" height="351" r="0" rx="0" ry="0" fill="#ff3481" stroke="#000"></rect><path transform="matrix(1,0,0,1,0,0)" fill="#006bff" stroke="none" d="M10,17.379723809523
853L31.681818181818183,83.60809523809525L38.90909090909091,131.3666666666667L46.13636363636364,115.60476190476194L53.36363636363637,
99.37L60.59090909090909,117.02333333333337L89.5,165.41238095238097L96.72727272727273,175.65761904761905L103.95454545454545,153.43333
333333334L111.18181818181819,183.0657142857143L132.86363636363637,195.99047619047622L140.0909090909091,212.241L147.3181818181818,197
.40904761904764L154.54545454545456,205.29000000000002L161.77272727272728,192.83809523809524L183.45454545454547,194.33547619047621L19
0.6818181818182,188.10952380952384L197.9090909090909,190.15857142857146L205.13636363636365,174.0814285714286L212.36363636363637,146.
9079047619048L234.04545454545456,124.90428571428575L241.27272727272728,117.00757142857142L248.5,121.90952380952382L255.7272727272727
5,118.1266666666667L262.9545454545455,99.05476190476199L284.6363636363636,114.65904761904761L291.8636363636364,98.26666666666668L299
.0909090909091,111.9795238095239L306.3181818181818,125.692380952381L313.54545454545456,129.86928571428575L335.22727272727275,134.976
14285714286L342.45454545454544,128.21428571428575L356.90909090909093,123.95857142857147L364.1363636363636,119.86047619047622L385.818
1818181818,112.92523809523809L393.04545454545456,123.95857142857147L400.2727272727273,131.83952380952385L407.5,134.3614285714286L414
.72727272727275,135.78000000000003L436.40909090909093,174.7907142857143L443.6363636363636,177.23380952380955L450.8636363636364,161.1
566666666667L458.0909090909091,162.89047619047622L465.3181818181818,166.67333333333332L487,166.8309523809524L494.22727272727275,171.
55952380952385L501.4545454545455,157.5314285714286L508.6818181818182,196.857380952381L515.909090909091,246.34976190476192L537.590909
0909091,255.09761904761908L544.8181818181819,277.7947619047619L552.0454545454546,290.87714285714287L559.2727272727273,304.1171428571
429L566.5,287.56714285714287L588.1818181818182,274.48476190476185L595.4090909090909,293.3990476190476L602.6363636363636,293.39904761
90476L609.8636363636364,288.8280952380952L617.0909090909091,276.26585714285716L638.7727272727273,279.5285714285714L646,298.758095238
0953L653.2272727272727,285.83333333333337L660.4545454545455,306.7966666666666L667.6818181818182,319.72142857142853L689.3636363636364
,304.5742380952381L696.5909090909091,318.00338095238095L703.8181818181819,313.5900476190476L711.0454545454546,313.5742857142857L718.
2727272727273,314.06290476190475L739.9545454545455,318.1452380952381L747.1818181818182,315.1504761904762L754.4090909090909,318.93333
33333333L761.6363636363636,319.11459523809526L768.8636363636364,335.3572380952381L797.7727272727273,340.54290476190477L805,327.12952
380952385L805,341L10,341Z" opacity="1"></path></svg>