<?xml version="1.0" encoding="UTF-8" standalone="no"?>
<!-- Created with Inkscape (http://www.inkscape.org/) -->

<svg
   xmlns:dc="http://purl.org/dc/elements/1.1/"
   xmlns:cc="http://creativecommons.org/ns#"
   xmlns:rdf="http://www.w3.org/1999/02/22-rdf-syntax-ns#"
   xmlns:svg="http://www.w3.org/2000/svg"
   xmlns="http://www.w3.org/2000/svg"
   xmlns:xlink="http://www.w3.org/1999/xlink"
   xmlns:sodipodi="http://sodipodi.sourceforge.net/DTD/sodipodi-0.dtd"
   xmlns:inkscape="http://www.inkscape.org/namespaces/inkscape"
   width="1500"
   height="1100"
   id="svg5688"
   version="1.1"
   inkscape:version="0.48.2 r9819"
   sodipodi:docname="background.svg">
  <defs
     id="defs5690">
    <linearGradient
       id="linearGradient6281">
      <stop
         id="stop6283"
         offset="0"
         style="stop-color:#445f9b;stop-opacity:1;" />
      <stop
         id="stop6285"
         offset="1"
         style="stop-color:#4769b2;stop-opacity:1;" />
    </linearGradient>
    <radialGradient
       inkscape:collect="always"
       xlink:href="#linearGradient5678"
       id="radialGradient5686"
       cx="751.75"
       cy="387.9892"
       fx="751.75"
       fy="387.9892"
       r="726.25"
       gradientTransform="matrix(1,0,0,0.53426618,-2.275424,208.00478)"
       gradientUnits="userSpaceOnUse" />
    <linearGradient
       inkscape:collect="always"
       id="linearGradient5678">
      <stop
         style="stop-color:#aaffaa;stop-opacity:1;"
         offset="0"
         id="stop5680" />
      <stop
         style="stop-color:#aaffaa;stop-opacity:0;"
         offset="1"
         id="stop5682" />
    </linearGradient>
    <radialGradient
       r="726.25"
       fy="387.9892"
       fx="751.75"
       cy="387.9892"
       cx="751.75"
       gradientTransform="matrix(1,0,0,0.53426618,-1612.4,40.991254)"
       gradientUnits="userSpaceOnUse"
       id="radialGradient5711-8"
       xlink:href="#linearGradient5678-8"
       inkscape:collect="always" />
    <linearGradient
       id="linearGradient5678-8">
      <stop
         style="stop-color:#445f9b;stop-opacity:1;"
         offset="0"
         id="stop5680-5" />
      <stop
         style="stop-color:#3c5997;stop-opacity:0;"
         offset="1"
         id="stop5682-0" />
    </linearGradient>
    <radialGradient
       inkscape:collect="always"
       xlink:href="#linearGradient6281"
       id="radialGradient6289"
       cx="739.81744"
       cy="474.83923"
       fx="739.81744"
       fy="474.83923"
       r="726.24969"
       gradientTransform="matrix(0.9607437,-0.01984476,0.01138456,0.55116015,-27.791868,83.323389)"
       gradientUnits="userSpaceOnUse" />
  </defs>
  <sodipodi:namedview
     id="base"
     pagecolor="#ffffff"
     bordercolor="#666666"
     borderopacity="1.0"
     inkscape:pageopacity="0.0"
     inkscape:pageshadow="2"
     inkscape:zoom="0.35"
     inkscape:cx="754.09352"
     inkscape:cy="424.37729"
     inkscape:document-units="px"
     inkscape:current-layer="layer5"
     showgrid="false"
     fit-margin-top="0"
     fit-margin-left="0"
     fit-margin-right="0"
     fit-margin-bottom="0"
     showguides="true"
     inkscape:guide-bbox="true"
     inkscape:window-width="1366"
     inkscape:window-height="711"
     inkscape:window-x="0"
     inkscape:window-y="26"
     inkscape:window-maximized="1">
    <sodipodi:guide
       orientation="0,1"
       position="1169.7566,1181.8785"
       id="guide6291" />
  </sodipodi:namedview>
  <metadata
     id="metadata5693">
    <rdf:RDF>
      <cc:Work
         rdf:about="">
        <dc:format>image/svg+xml</dc:format>
        <dc:type
           rdf:resource="http://purl.org/dc/dcmitype/StillImage" />
        <dc:title></dc:title>
      </cc:Work>
    </rdf:RDF>
  </metadata>
  <g
     inkscape:label="Layer 1"
     inkscape:groupmode="layer"
     id="layer1"
     transform="translate(4.0406103,46.683785)"
     sodipodi:insensitive="true">
    <rect
       style="fill:#3c5997;fill-opacity:1;stroke:none"
       id="rect5730"
       width="1500"
       height="1100"
       x="-4.0406103"
       y="0.95403183"
       transform="translate(0,-47.637817)" />
  </g>
  <g
     inkscape:groupmode="layer"
     id="layer5"
     inkscape:label="above">
    <path
       style="fill:url(#radialGradient6289);fill-opacity:1"
       d="m 74.249249,692.84269 c 3.4375,-0.5502 6.25,-1.3875 6.25,-1.8608 0,-0.4732 1.575,-0.8604 3.5,-0.8604 1.925,0 3.5,-0.3982 3.5,-0.8848 0,-0.4866 2.475,-1.194 5.5,-1.572 3.025,-0.3779 5.5,-1.0591 5.5,-1.5137 0,-0.4546 3.150001,-1.1429 7.000001,-1.5295 3.85,-0.3867 7,-1.0632 7,-1.5033 0,-0.4402 2.7,-1.1137 6,-1.4967 3.3,-0.383 6,-1.1022 6,-1.5982 0,-0.496 1.3234,-0.9018 2.9409,-0.9018 1.6176,0 3.1918,-0.4057 3.4983,-0.9016 0.3064,-0.4959 3.258,-1.2151 6.559,-1.5982 3.301,-0.3831 6.0018,-1.0582 6.0018,-1.5002 0,-0.442 2.7,-1.117 6,-1.5 3.3,-0.383 6,-1.0498 6,-1.4817 0,-0.4319 2.925,-1.0986 6.5,-1.4814 3.575,-0.3829 6.5,-1.0661 6.5,-1.5183 0,-0.4523 2.7,-1.1356 6,-1.5186 3.3,-0.383 6,-1.1022 6,-1.5982 0,-0.496 1.575,-0.9018 3.5,-0.9018 1.925,0 3.5,-0.4058 3.5,-0.9018 0,-0.496 2.7,-1.2152 6,-1.5982 3.3,-0.383 6,-1.0441 6,-1.469 0,-0.4249 3.15,-1.083 7,-1.4624 3.85,-0.3793 7,-1.0767 7,-1.5496 0,-0.4729 2.925,-1.1731 6.5,-1.5559 3.575,-0.3829 6.5,-1.0418 6.5,-1.4644 0,-0.4226 2.475,-1.0775 5.5,-1.4555 3.025,-0.3779 5.5,-1.1048 5.5,-1.6152 0,-0.5104 1.575,-0.928 3.5,-0.928 1.925,0 3.5,-0.3976 3.5,-0.8835 0,-0.486 2.925,-1.1968 6.5,-1.5796 3.575,-0.3829 6.5,-1.0661 6.5,-1.5183 0,-0.4523 2.7,-1.1356 6,-1.5186 3.3,-0.383 6,-1.0395 6,-1.4589 0,-0.4194 2.3597,-1.042 5.2439,-1.3836 2.8841,-0.3416 5.3966,-1.0793 5.5833,-1.6393 0.1867,-0.56 2.1019,-1.0182 4.2561,-1.0182 2.1542,0 3.9167,-0.4142 3.9167,-0.9204 0,-0.5063 2.925,-1.2337 6.5,-1.6165 3.575,-0.3829 6.5,-1.0495 6.5,-1.4814 0,-0.432 2.7,-1.0987 6,-1.4817 3.3,-0.383 6,-1.058 6,-1.5 0,-0.442 2.7,-1.117 6,-1.5 3.3,-0.383 6,-1.0498 6,-1.4817 0,-0.4319 2.925,-1.0986 6.5,-1.4814 3.575,-0.3829 6.5,-1.1103 6.5,-1.6165 0,-0.5062 1.35,-0.9204 3,-0.9204 1.65,0 3,-0.3859 3,-0.8576 0,-0.4716 2.7873,-1.1488 6.194,-1.5049 3.4067,-0.3561 6.4442,-1.0343 6.75,-1.5072 0.3058,-0.4729 3.1435,-1.178 6.306,-1.567 3.1625,-0.389 5.75,-1.089 5.75,-1.5557 0,-0.4666 2.925,-1.1617 6.5,-1.5445 3.575,-0.3829 6.5,-1.0937 6.5,-1.5796 0,-0.4859 1.3234,-0.8835 2.9409,-0.8835 1.6176,0 3.1863,-0.3969 3.4861,-0.882 0.2999,-0.4851 3.4764,-1.196 7.0591,-1.5796 3.5826,-0.3837 6.5139,-1.0599 6.5139,-1.5028 0,-0.4428 2.475,-1.1144 5.5,-1.4924 3.025,-0.3779 5.5,-1.0418 5.5,-1.4753 0,-0.4335 2.5453,-1.0508 5.6563,-1.3719 3.1109,-0.3211 5.9234,-1.0122 6.25,-1.5359 0.3265,-0.5237 3.6312,-1.2764 7.3437,-1.6726 3.7125,-0.3963 6.75,-1.1181 6.75,-1.604 0,-0.4859 1.575,-0.8835 3.5,-0.8835 3.4688,0 3.5,-0.039 3.5,-4.393 0,-2.9824 -0.4817,-4.5779 -1.5,-4.9687 -0.825,-0.3165 -1.5,-1.2647 -1.5,-2.1069 0,-0.8423 -0.3439,-1.5314 -0.7641,-1.5314 -0.4203,0 -1.5711,-1.8626 -2.5573,-4.139 l -1.7931,-4.139 -10.1928,0.6962 c -5.606,0.383 -10.3427,1.1205 -10.5261,1.639 -0.1833,0.5185 -2.5458,0.9428 -5.25,0.9428 -2.7041,0 -4.9166,0.4022 -4.9166,0.8938 0,0.4916 -4.0532,1.2146 -9.007,1.6067 -4.9538,0.3921 -9.2257,1.0669 -9.493,1.4995 -0.2674,0.4326 -4.5393,1.1073 -9.4931,1.4994 -4.9538,0.3921 -9.0069,1.0504 -9.0069,1.463 0,0.4125 -3.6975,1.0584 -8.2166,1.4353 -4.5192,0.3768 -8.4567,1.0628 -8.75,1.5244 -0.2934,0.4616 -4.6959,1.1657 -9.7834,1.5647 -5.0875,0.399 -9.25,1.1277 -9.25,1.6193 0,0.4916 -1.9985,0.8939 -4.441,0.8939 -2.4426,0 -4.6859,0.3962 -4.9852,0.8805 -0.2993,0.4842 -4.4883,1.2075 -9.309,1.6073 -4.8207,0.3997 -9.0017,1.1047 -9.2912,1.5667 -0.2895,0.4619 -4.677,1.1532 -9.75,1.5361 -5.073,0.383 -9.2236,1.034 -9.2236,1.4467 0,0.4127 -4.1625,1.0768 -9.25,1.4758 -5.0875,0.399 -9.4901,1.1032 -9.7834,1.5647 -0.2934,0.4616 -4.2309,1.1476 -8.75,1.5245 -4.5192,0.3769 -8.2166,1.0705 -8.2166,1.5415 0,0.4709 -2.475,0.8562 -5.5,0.8562 -3.025,0 -5.5,0.4096 -5.5,0.9102 0,0.5006 -3.825,1.2289 -8.5,1.6183 -4.675,0.3894 -8.5,1.0644 -8.5,1.5 0,0.4356 -3.825,1.1106 -8.5,1.5 -4.675,0.3894 -8.5,1.0687 -8.5,1.5096 0,0.4409 -4.5,1.1206 -10,1.5106 -5.5,0.3899 -10,1.1009 -10,1.5801 0,0.4791 -1.8,0.8712 -4,0.8712 -2.2,0 -4,0.408 -4,0.9067 0,0.4986 -4.275,1.2271 -9.5,1.6189 -5.225,0.3917 -9.5,1.042 -9.5,1.4451 0,0.4031 -3.6811,1.0167 -8.1803,1.3637 -4.4991,0.3469 -8.4366,1.0308 -8.75,1.5197 -0.3133,0.4889 -4.9572,1.2137 -10.3197,1.6107 -5.3625,0.397 -9.75,1.0894 -9.75,1.5387 0,0.4493 -3.825,1.1356 -8.5,1.525 -4.675,0.3894 -8.5,1.1048 -8.5,1.5898 0,0.4849 -2.25,0.8817 -5,0.8817 -2.750001,0 -5.000001,0.4022 -5.000001,0.8938 0,0.4916 -4.1625,1.2203 -9.25,1.6193 -5.0875,0.399 -9.4901,1.1032 -9.7834,1.5647 -0.2934,0.4616 -4.3434,1.1502 -9,1.5303 -4.6567,0.3801 -8.7035,1.0499 -8.993,1.4886 -0.2895,0.4387 -4.677,1.111 -9.75,1.4939 -5.073,0.383 -9.2236,1.0285 -9.2236,1.4346 0,0.406 -3.825,1.0568 -8.5,1.4463 -4.675,0.3894 -8.5,1.1176 -8.5,1.6182 0,0.5007 -2.25,0.9103 -5,0.9103 -2.75,0 -5,0.3968 -5,0.8817 0,0.4849 -3.9374974,1.2082 -8.7499974,1.6073 -4.8125,0.3991 -8.975,1.069 -9.25,1.4887 -0.275,0.4197 -4.4375,1.0868 -9.2499996,1.4824 l -8.75,0.7194 0,-23.5898 0,-23.5897 8.5,0 c 4.675,0 8.4999996,-0.4081 8.4999996,-0.9069 0,-0.4988 6.29999997,-1.2315 14,-1.6282 7.6999974,-0.3967 13.9999974,-1.056 13.9999974,-1.4651 0,-0.409 6.75,-1.0692 15,-1.4671 8.25,-0.3978 15,-1.1304 15,-1.628 0,-0.4976 3.285,-0.9047 7.3,-0.9047 4.015,0 7.7275,-0.4176 8.25,-0.928 0.5225,-0.5105 7.3625,-1.2486 15.2,-1.6404 7.8375,-0.3918 14.25,-1.0486 14.25,-1.4595 0,-0.411 6.300001,-1.0734 14.000001,-1.4721 7.7,-0.3987 14,-1.0667 14,-1.4844 0,-0.4178 6.75,-1.085 15,-1.4829 8.25,-0.3978 15,-1.083 15,-1.5227 0,-0.4397 6.975,-1.1263 15.5,-1.5259 8.525,-0.3995 15.5,-1.1219 15.5,-1.6053 0,-0.4833 3.15,-0.8788 7,-0.8788 3.85,0 7,-0.3955 7,-0.8789 0,-0.4833 6.975,-1.2057 15.5,-1.6053 8.525,-0.3995 15.5,-1.0784 15.5,-1.5087 0,-0.4302 6.3,-1.1084 14,-1.5071 7.7,-0.3987 14,-1.056 14,-1.4608 0,-0.4047 6.6375,-1.0476 14.75,-1.4287 8.1125,-0.381 14.9,-1.1243 15.0833,-1.6517 0.1833,-0.5273 3.8958,-0.9588 8.25,-0.9588 4.3542,0 7.9167,-0.4026 7.9167,-0.8947 0,-0.4921 6.975,-1.2216 15.5,-1.6212 8.525,-0.3995 15.5,-1.0713 15.5,-1.4928 0,-0.4216 6.4125,-1.0917 14.25,-1.4892 7.8375,-0.3976 14.7,-1.0735 15.25,-1.5021 0.55,-0.4286 7.075,-1.1074 14.5,-1.5086 7.425,-0.4011 13.725,-1.0826 14,-1.5144 0.275,-0.4318 7.2306,-1.1184 15.4569,-1.5258 13.4889,-0.668 15.1279,-0.9473 16.6988,-2.846 1.2906,-1.5598 1.5925,-3.1416 1.1652,-6.1052 -0.3171,-2.2 -0.9691,-4.4275 -1.4488,-4.95 -0.4797,-0.5225 -0.8721,-2.12 -0.8721,-3.55 0,-1.43 -0.5054,-3.1054 -1.1231,-3.7231 -1.2836,-1.2836 -79.6426,-0.5674 -81.3769,0.7438 -0.55,0.4158 -24.4,1.0801 -53,1.4762 -28.6,0.3962 -52.4758,1.1045 -53.0572,1.5741 -0.5815,0.4696 -12.6222,0.9188 -26.7571,0.9983 -14.1349,0.079 -25.9101,0.4846 -26.1671,0.9005 -0.257,0.4159 -23.7664,1.0871 -52.243,1.4916 -28.4766,0.4045 -52.266201,1.1366 -52.865801,1.6268 -0.5996,0.4903 -24.3367,1.0085 -52.7491,1.1516 -28.4123974,0.1431 -51.659297,0.5977 -51.659797,1.0102 -5e-4,0.4125 -2.4759,0.75 -5.5009,0.75 l -5.5,0 0,-22 c 0,-18.8889 -0.2121,-22 -1.5,-22 -0.8896,0 -1.4991,-0.9156 -1.4977,-2.25 l 0,-2.25 26.4569,-0.307 c 15.5101996,-0.18 27.197797,0.088 28.247597,0.6467 0.9971,0.5311 21.8584,1.2816 47.066,1.6933 24.9014,0.4067 45.515401,1.1282 45.809001,1.6032 0.2936,0.4751 9.1923,0.8638 19.7748,0.8638 10.5826,0 19.6685,0.4047 20.191,0.8994 0.5225,0.4947 20.975,1.213 45.45,1.5964 24.475,0.3833 44.95,1.0575 45.5,1.4981 0.55,0.4407 20.575,1.125 44.5,1.5206 23.925,0.3956 43.95,1.0715 44.5,1.5021 0.55,0.4305 21.7,0.9404 47,1.133 l 46,0.3504 0,-5.9922 c 0,-5.8691 -0.072,-6.0258 -3.5,-7.6321 -2.4366,-1.1418 -8.8168,-1.9749 -21,-2.7423 -9.625,-0.6063 -24.8121,-1.7909 -33.7491,-2.6326 -8.937,-0.8416 -23.562,-2.2137 -32.5,-3.0491 -8.938,-0.8354 -20.0759,-1.9401 -24.7509,-2.4549 -4.675,-0.5147 -15.025,-1.3942 -23,-1.9545 -7.975,-0.5602 -15.85,-1.4367 -17.5,-1.9477 -1.65,-0.511 -9.75,-1.2245 -18,-1.5856 -8.25,-0.3612 -16.35,-1.0787 -18,-1.5947 -1.65,-0.5159 -9.525,-1.3943 -17.5,-1.9518 -32.1192,-2.2456 -47.5743,-3.5748 -49,-4.2141 -0.825,-0.37 -5.325,-0.8928 -10,-1.1619 -4.675,-0.269 -15.7,-1.1966 -24.5,-2.0613 -8.8,-0.8646 -23.5375,-2.2366 -32.750001,-3.0487 -43.3701,-3.8232 -50.817,-4.5173 -58.75,-5.4765 -11.4365,-1.3828 -40.3885974,-3.9793 -51.499997,-4.6187 -4.95,-0.2848 -9.4275,-0.9371 -9.95,-1.4496 -0.5225,-0.5124 -3.335,-0.9317 -6.25,-0.9317 -2.915,0 -5.3,-0.45 -5.3,-1 0,-0.55 -1.125,-1 -2.5,-1 -2.2963,0 -2.5,-0.3667 -2.5,-4.5 0,-3.3334 -0.3889,-4.5 -1.5,-4.5 -1.2802,0 -1.5,-2.7578 -1.5,-18.8201 l 0,-18.82 7.25,0.2015 c 3.9875,0.1108 7.25,0.3155 7.25,0.4549 0,0.1393 4.725,0.8491 10.5,1.5771 5.775,0.7281 12.9749996,1.7767 15.9999996,2.3303 15.2314974,2.7874 34.9704974,5.8074 52.4999974,8.0324 4.4,0.5585 8.9,1.2888 10,1.6229 1.1,0.3341 6.275,1.2162 11.5,1.9601 5.225,0.744 11.975,1.8446 15,2.4458 3.025,0.6013 9.1,1.5138 13.5,2.0279 4.400001,0.5141 8.900001,1.2182 10.000001,1.5646 1.9055,0.6001 9.7623,1.79 32,4.8464 5.5,0.756 11.8,1.9109 14,2.5664 2.2,0.6556 7.825,1.5942 12.5,2.0857 4.675,0.4915 10.075,1.318 12,1.8365 1.925,0.5186 7.325,1.4314 12,2.0284 4.675,0.5971 13,1.7661 18.5,2.5978 5.5,0.8318 13.6,1.9372 18,2.4565 4.4,0.5193 9.8,1.3834 12,1.9201 8.6691,2.1151 22.7093,4.4052 37.5,6.1168 4.675,0.541 9.4,1.3844 10.5,1.8742 1.1,0.4898 5.825,1.3877 10.5,1.9952 10.5595,1.3723 25.7304,3.686 33,5.0327 9.0935,1.6846 24.8534,4.0838 36,5.4805 5.775,0.7236 10.5,1.4311 10.5,1.5722 0,0.1411 4.05,0.8534 9,1.583 4.95,0.7295 11.475,1.8173 14.5,2.4172 10.2026,2.0234 18.4824,2.8591 19.4178,1.9597 1.5554,-1.4953 3.5649,-8.1711 4.2088,-13.9815 0.5943,-5.3636 0.5245,-5.5762 -2.2567,-6.871 -2.7886,-1.2983 -9.6422,-3.0869 -19.8699,-5.1855 -2.75,-0.5643 -7.505,-1.8996 -10.5666,-2.9674 -3.0616,-1.0677 -6.2725,-1.9413 -7.1352,-1.9413 -0.8627,0 -3.7577,-0.6386 -6.4334,-1.4192 -2.6757,-0.7805 -7.1148,-1.9202 -9.8648,-2.5326 -6.5528,-1.4591 -15.0118,-3.5886 -20,-5.0347 -2.2,-0.6378 -6.925,-1.7677 -10.5,-2.5108 -3.575,-0.7432 -9.425,-2.0736 -13,-2.9565 -3.575,-0.8828 -8.419,-2.0295 -10.7643,-2.5482 -2.3454,-0.5186 -5.0454,-1.3437 -6,-1.8334 -0.9547,-0.4897 -3.7607,-1.199 -6.2357,-1.5761 -2.475,-0.3771 -7.2,-1.5285 -10.5,-2.5586 -3.3,-1.0302 -8.25,-2.3174 -11,-2.8605 -2.75,-0.5431 -7.925,-1.723 -11.5,-2.6219 -3.575,-0.8989 -9.2,-2.2613 -12.5,-3.0275 -9.0726,-2.1065 -17.5449,-4.2177 -22,-5.4822 -4.7146,-1.3381 -14.257,-3.7113 -20.2643,-5.0398 -2.3454,-0.5186 -5.1283,-1.4053 -6.1843,-1.9705 -1.056,-0.5651 -3.2901,-1.0275 -4.9646,-1.0275 -1.6746,0 -6.3167,-1.0544 -10.3158,-2.343 -3.9991,-1.2886 -9.521,-2.8227 -12.271,-3.409 -2.75,-0.5863 -7.925,-1.7937 -11.5,-2.683 -7.137,-1.7753 -17.0356,-4.0918 -23.9576,-5.6067 -2.4517,-0.5365 -6.9816,-1.8716 -10.0666,-2.9669 -3.0849,-1.0953 -6.7872,-1.9914 -8.2273,-1.9914 -1.4401,0 -3.8851,-0.4994 -5.4334,-1.1097 -3.2147,-1.2672 -12.3015,-3.5 -20.1948,-4.9622 -2.958801,-0.5481 -6.108801,-1.3736 -7.000001,-1.8345 -0.8912,-0.4609 -3.8703,-1.1534 -6.6203,-1.5389 -4.5286,-0.6348 -7.5491,-1.4516 -22.6342,-6.1204 -2.5489,-0.7889 -5.4739,-1.4286 -6.5,-1.4215 -2.4938,0.017 -15.635,-2.8156 -21.8658,-4.7134 -4.8451,-1.4758 -10.506,-2.8988 -23,-5.7819 -3.2999974,-0.7615 -8.6999974,-2.0116 -11.99999743,-2.7781 -3.29999997,-0.7665 -6.98289997,-1.9214 -8.18429997,-2.5665 -1.2013,-0.6451 -3.3500996,-1.1729 -4.7749996,-1.1729 -1.4249,0 -5.1669,-0.9532 -8.3157,-2.1183 -3.1488,-1.165 -8.2,-2.6637 -11.225,-3.3303 -3.025,-0.6666 -7.4079,-2.0759 -9.7398,-3.1317 l -4.2399,-1.9197 -0.01,-14.75 c -0.01,-12.4399 -0.2451,-14.75 -1.5101,-14.75 -1.2526,0 -1.4975,-2.021 -1.4847,-12.25 0.01,-7.46964 0.3596,-11.70628 0.8976,-10.85663 0.5094,0.80449 1.7542,1.16541 2.9452,0.85395 2.0686,-0.54097 14.4763,2.29903 17.8453,4.08463 0.9881,0.52371 3.3716,1.172 5.2966,1.44066 1.925,0.26865 5.3,1.15209 7.5,1.96321 2.2,0.81111 6.4749996,2.17258 9.4999996,3.02538 12.2715,3.4598 20.9295974,6.1331 28.9998974,8.9544 4.675,1.6343 10.3,3.4249 12.5,3.9791 2.2,0.5543 5.418,1.6372 7.1512,2.4065 1.7331,0.7693 4.069,1.3988 5.1909,1.3988 1.122,0 2.2865,0.399 2.5879,0.8866 0.3014,0.4877 2.1833,1.1934 4.1821,1.5684 1.9988,0.375 4.3663,1.0746 5.2611,1.5548 0.8947,0.4801 4.3268,1.6193 7.6268,2.5316 3.3,0.9122 6.9,2.016 8,2.4528 5.5984,2.2231 19.4143,6.4757 24.499701,7.5412 1.9248,0.4032 5.2998,1.5468 7.5,2.5411 2.2002,0.9944 9.1753,3.3664 15.5003,5.2711 15.7322,4.7376 22.7265,6.9377 35,11.0099 5.775,1.9161 13.2,4.2443 16.5,5.174 3.3,0.9296 9.825,3.0429 14.5,4.6962 11.8315,4.1842 29.748,9.7992 36,11.2824 1.375,0.3261 4.525,1.4128 7,2.4146 2.475,1.0019 7.2,2.603 10.5,3.558 3.3,0.955 7.575,2.2954 9.5,2.9786 7.542,2.6769 13.841,4.5387 15.3557,4.5387 0.873,0 4.1311,1.125 7.2403,2.5 3.1091,1.375 6.5414,2.5 7.6273,2.5 1.086,0 3.3925,0.6332 5.1256,1.4072 1.7331,0.774 5.8511,2.1606 9.1511,3.0812 3.3,0.9207 8.925,2.7169 12.5,3.9918 3.575,1.2748 8.75,2.9966 11.5,3.8262 19.4366,5.8639 26.6225,8.1595 31,9.9036 2.75,1.0957 7.475,2.6385 10.5,3.4286 17.9055,4.6766 28.3938,7.8838 37,11.3141 2.475,0.9865 6.975,2.5065 10,3.3778 11.9495,3.4418 20.5544,5.9782 21.6411,6.379 1.2911,0.4762 8.6962,-14.3884 8.0311,-16.1215 -0.4698,-1.2243 -2.7845,-2.4369 -9.6722,-5.0669 -2.475,-0.9451 -6.75,-2.7644 -9.5,-4.043 -2.75,-1.2785 -6.9125,-3.0341 -9.25,-3.9014 -2.3375,-0.8672 -6.1625,-2.2898 -8.5,-3.1612 -2.3375,-0.8715 -6.3413,-2.6715 -8.8973,-4 -2.5561,-1.3286 -5.5076,-2.4155 -6.5589,-2.4155 -1.0513,0 -2.785,-0.6607 -3.8526,-1.4682 -1.0676,-0.8075 -2.6162,-1.4853 -3.4412,-1.5062 -0.825,-0.021 -2.7071,-0.6678 -4.1826,-1.4375 -1.4754,-0.7698 -4.0578,-1.7017 -5.7385,-2.0708 -1.6808,-0.3692 -3.3126,-1.0866 -3.6264,-1.5943 -0.3138,-0.5076 -1.2865,-0.923 -2.1616,-0.923 -0.875,0 -4.111,-1.1809 -7.1909,-2.6242 -3.08,-1.4433 -7.175,-3.2824 -9.1,-4.0868 -1.925,-0.8044 -4.7739,-2.0985 -6.331,-2.8758 -1.5571,-0.7773 -3.3571,-1.416 -4,-1.4194 -0.6429,0 -2.3239,-0.6089 -3.7356,-1.3456 -1.4117,-0.7366 -3.8238,-1.6549 -5.3604,-2.0405 -1.5365,-0.3857 -4.6565,-1.5229 -6.9333,-2.5272 -2.2768,-1.0044 -7.7397,-3.2893 -12.1397,-5.0777 -4.4,-1.7884 -10.3748,-4.3206 -13.2773,-5.6272 -2.9025,-1.3066 -5.6998,-2.3756 -6.2161,-2.3756 -0.5163,0 -2.4165,-0.6296 -4.2226,-1.3991 -1.8062,-0.7695 -5.084,-2.0711 -7.284,-2.8925 -5.5283,-2.0641 -23.6629,-9.6091 -25.5328,-10.623 -0.843,-0.4571 -2.9754,-1.148 -4.7385,-1.5352 -1.7632,-0.3873 -3.4624,-1.1195 -3.7762,-1.6272 -0.3138,-0.5076 -1.3314,-0.9258 -2.2615,-0.9292 -0.93,0 -2.9799,-0.6784 -4.5553,-1.5 -1.5753,-0.8216 -3.3995,-1.4938 -4.0536,-1.4938 -0.6542,0 -3.4152,-1.0811 -6.1357,-2.4025 -8.2921,-4.0274 -14.6164,-6.5959 -16.3235,-6.6293 -0.8926,-0.018 -2.4964,-0.6925 -3.564,-1.5 -1.0676,-0.8075 -2.8676,-1.4782 -4,-1.4905 -1.1324,-0.012 -3.1839,-0.9022 -4.5589,-1.9777 -1.375,-1.0756 -3.175,-1.9808 -4,-2.0117 -0.825,-0.031 -3.3,-0.9256 -5.5,-1.9883 -2.2,-1.0627 -4.5686,-1.9474 -5.2635,-1.9661 -0.695,-0.019 -2.045,-0.4681 -3,-0.9989 -3.1584,-1.755 -11.1081,-5.035 -12.2035,-5.035 -0.5923,0 -4.1045,-1.3745 -7.8049,-3.0545 -3.7004,-1.6799 -10.1031,-4.2016 -14.2281,-5.6036 -4.125,-1.4021 -8.4862,-3.1708 -9.6916,-3.9304 -2.1753,-1.3708 -4.2652,-2.214 -15.8084,-6.37811 -7.8715,-2.83955 -12.6385,-4.7641 -20.3197,-8.20358 -3.475901,-1.55641 -6.723101,-2.82984 -7.216101,-2.82984 -0.493,0 -2.5991,-0.72905 -4.6802,-1.6201 -11.8414,-5.06992 -32.3498,-13.35477 -39.784,-16.07161 -2.2,-0.804 -6.25,-2.5079 -9,-3.78644 -5.7562,-2.67622 -7.8352,-3.48207 -28.9999,-11.24108 -2.1999974,-0.80652 -5.7999974,-2.27796 -7.9999974,-3.26987 -2.2,-0.99191 -6.475,-2.80143 -9.5,-4.02117 -3.025,-1.21973 -6.3534996,-2.66138 -7.3964996,-3.20366 -1.0431,-0.54228 -4.7103,-2.04509 -8.1495,-3.33959 -3.4392,-1.2945 -7.7608,-3.27284 -9.6035,-4.39632 -1.8428,-1.12348 -4.2505,-2.04605 -5.3505,-2.05016 -2.2673,-0.008 -7.4516,-2.95151 -10.4092,-5.90914 -1.7283,-1.72827 -2.0555,-3.79663 -2.5375,-16.03751 -0.3043,-7.72934 -0.8021,-20.35335 -1.1061,-28.05335 -0.304,-7.7 -0.1915,-13.989 0.25,-13.97555 2.8991,0.0883 10.0237,2.34692 12.2028,3.86847 1.43,0.99849 3.95,2.14048 5.6,2.53777 1.65,0.39729 9.9184,4.06292 18.3742,8.14583 8.4557996,4.08291 15.7854996,7.42348 16.2881996,7.42348 0.5027,0 6.8593,3.09155 14.1257974,6.87011 7.2664,3.77855 14.3367,7.20733 15.7117,7.61949 1.375,0.41216 7.45,3.14547 13.5,6.07402 6.05,2.92854 11.675,5.5719 12.5,5.87414 0.825,0.30223 2.175,0.94218 3,1.42212 3.4933,2.03214 38.673101,19.14012 39.358601,19.14012 0.4132,0 10.064,4.55149 21.4463,10.11442 36.336,17.75865 42.6368,20.7302 45.4041,21.4132 1.49,0.36773 3.2326,1.29946 3.8725,2.07049 0.6399,0.77104 1.6424,1.40189 2.2278,1.40189 1.0495,0 8.1578,3.38265 42.7991,20.36684 9.6845,4.74824 17.8489,8.63319 18.1431,8.63319 1.057,0 25.3562,11.9835 30.2485,14.9175 2.75,1.6493 5.6628,3.0175 6.4728,3.0406 1.2659,0.036 25.7397,11.5526 30.0272,14.1298 1.9956,1.1996 14.0184,7.0301 21.5,10.4267 22.4508,10.1923 49.2802,23.3207 49.9832,24.4581 0.3492,0.565 1.3991,1.0273 2.3332,1.0273 0.9341,0 5.7451,2.0673 10.691,4.5941 17.0103,8.6901 18.4854,9.4059 19.3851,9.4059 0.929,0 11.2858,4.7779 16.6075,7.6616 1.65,0.8941 6.6,3.393 11,5.5533 4.4,2.1602 10.0914,5.0206 12.6474,6.3564 2.5561,1.3358 5.5395,2.4287 6.6299,2.4287 2.1235,0 10.2227,-9.7948 10.2227,-12.3629 0,-1.4922 -8.443,-7.6371 -10.4933,-7.6371 -0.6327,0 -2.918,-1.3375 -5.0785,-2.9722 -2.1605,-1.6347 -4.43,-2.9847 -5.0433,-3 -0.6133,-0.015 -2.3021,-0.9615 -3.7529,-2.1027 -1.4507,-1.1411 -6.0327,-3.7906 -10.1821,-5.8877 -4.1494,-2.0971 -8.3106,-4.4726 -9.2471,-5.2788 -0.9365,-0.8062 -3.0528,-2.1453 -4.7028,-2.9758 -8.7749,-4.4166 -21.1879,-11.1032 -22.5,-12.1202 -1.6148,-1.2516 -4.1071,-2.7056 -10.4618,-6.1032 -2.221,-1.1875 -5.1632,-2.885 -6.5382,-3.7723 -3.1435,-2.0286 -12.1042,-6.9902 -18,-9.9668 -2.475,-1.2495 -5.772,-3.2953 -7.3267,-4.5461 -1.5547,-1.2508 -3.3122,-2.2742 -3.9056,-2.2742 -0.5934,0 -2.4713,-1.0603 -4.1733,-2.3561 -1.7019,-1.2959 -4.2194,-2.701 -5.5944,-3.1224 -1.375,-0.4215 -3.1235,-1.2737 -3.8856,-1.8939 -1.9889,-1.6186 -11.69,-7.094 -18.1144,-10.224 -3.025,-1.4738 -6.4,-3.4601 -7.5,-4.4141 -1.1,-0.9539 -6.05,-3.95899 -11,-6.67792 -8.6171,-4.73319 -16.1065,-8.95192 -32.5,-18.30693 -4.125,-2.35395 -11.1,-6.29063 -15.5,-8.74816 -4.4,-2.45753 -8.736,-5.11877 -9.6356,-5.91386 -0.8996,-0.79508 -4.7246,-3.01492 -8.5,-4.93296 -11.1305,-5.65472 -12.7617,-6.57863 -14.8644,-8.41934 -1.1,-0.96295 -4.025,-2.73626 -6.5,-3.94069 -7.6959,-3.74516 -15.2534,-7.96976 -16.9115,-9.45353 -0.8737,-0.78178 -4.0635,-2.59265 -7.0885,-4.02417 -3.025,-1.43152 -7.975,-4.13935 -11,-6.0174 -5.4979,-3.4134 -13.9359,-8.28295 -36.5,-21.06421 -18.5712,-10.51954 -30.4854,-17.37678 -36.500001,-21.00765 -3.025,-1.82612 -7.75,-4.47026 -10.5,-5.87586 -5.4701,-2.79593 -7.3557,-3.93611 -12.2629,-7.41508 -1.7946,-1.27228 -5.8446,-3.44846 -9,-4.83593 -3.1554,-1.38748 -6.6432,-3.36367 -7.7507,-4.39154 -1.1075,-1.02786 -3.6642,-2.5585 -5.6816,-3.40142 -2.0174,-0.84292 -3.9284,-1.95394 -4.2467,-2.46896 -0.3183,-0.51502 -2.7116,-1.74124 -5.3184,-2.72494 -2.6068,-0.98369 -6.7647,-3.21295 -9.2397,-4.95391 -4.1099,-2.89096 -13.985,-8.50534 -21.5,-12.22351 -1.6499,-0.81637 -3.690697,-2.0756 -4.5348974,-2.79828 -0.8442,-0.72268 -4.2192,-2.73196 -7.5,-4.46507 -3.2808,-1.7331 -7.4308,-4.25131 -9.2222,-5.59603 -1.7915,-1.34471 -6.7414996,-4.26405 -10.9999996,-6.48743 -13.9188,-7.26692 -15.2428,-8.04315 -15.2428,-8.93582 0,-0.48515 -1.5645,-1.53574 -3.4766,-2.33466 -1.912,-0.79891 -4.4995,-2.41457 -5.75,-3.59034 -1.2504,-1.17578 -3.4711,-2.85167 -4.935,-3.724211 -2.5589,-1.52526 -2.6846,-2.01394 -3.2589,-12.67307 -0.3285,-6.09765 -0.7058,-21.212 -0.8384,-33.58744 l -0.2411,-22.50081 2.5963,8.1e-4 c 1.4279,4.4e-4 3.3884,0.65824 4.3566,1.46177 0.9682,0.80353 2.5912,1.92853 3.6068,2.5 5.3546,3.01327 17.9048,10.9392 29.4403,18.59271 7.1499996,4.74387 17.7249996,11.68691 23.499997,15.42897 18.8811,12.23456 21.4496,13.96627 25.6029,17.26178 2.2567,1.79057 4.3898,3.25557 4.7403,3.25557 0.3505,0 3.5951,2.025 7.2102,4.5 3.6151,2.475 6.7564,4.5 6.9805,4.5 0.2242,0 2.3332,1.29996 4.6868,2.888801 2.3536,1.58884 9.0042,5.91848 14.7792,9.62142 5.775,3.70295 12.3,8.02552 14.5,9.60573 6.1124,4.39039 15.688701,10.88405 16.050801,10.88405 0.1776,0 3.2806,2.025 6.8958,4.5 3.6151,2.475 6.7803,4.5 7.0339,4.5 1.0209,0 10.1038,6.61689 11.3247,8.25 0.7195,0.9625 1.6906,1.75 2.1579,1.75 0.7942,0 4.3651,2.27954 22.8842,14.60858 4.041,2.69027 8.091,5.3865 9,5.99161 12.8757,8.57117 16.8778,11.19872 19.5211,12.81639 1.7224,1.05413 5.2702,3.41663 7.884,5.25 2.6137,1.83338 4.9591,3.33341 5.212,3.33341 0.2528,0 4.1893,2.60399 8.7476,5.78664 4.5584,3.18265 11.213,7.53731 14.788,9.67702 3.575,2.13972 7.9017,5.04823 9.6149,6.46337 1.7131,1.41513 5.504,3.92297 8.4241,5.57297 2.9201,1.65 6.2746,3.675 7.4546,4.5 11.4705,8.02015 15.1728,10.51092 35.0064,23.55127 9.35,6.14748 18.9504,12.47583 21.3342,14.06299 2.3838,1.58716 7.8666,5.13574 12.1839,7.88574 4.3174,2.75 11.0844,7.25 15.0378,10 3.9535,2.75 11.3943,7.7 16.5352,11 11.2988,7.25287 28.4267,18.65893 33.9089,22.58123 2.2,1.574 8.275,5.7242 13.5,9.2226 28.033,18.7697 32.8941,21.9217 36,23.3423 0.825,0.3774 3.1398,1.9614 5.1439,3.52 2.0042,1.5586 3.9299,2.8339 4.2795,2.8339 0.3495,0 2.8432,1.6875 5.5415,3.75 2.6983,2.0625 8.359,6 12.5793,8.75 4.2203,2.75 10.2119,6.6558 13.3146,8.6796 6.2519,4.0779 8.2947,4.5453 10.1412,2.3204 0.6847,-0.825 1.8298,-1.5 2.5446,-1.5 1.5721,0 8.4554,-7.8422 8.4554,-9.6333 0,-0.7004 -1.2143,-2.0819 -2.6985,-3.07 -1.4842,-0.9882 -4.576,-3.7092 -6.8707,-6.0467 -2.2947,-2.3375 -4.5962,-4.25 -5.1144,-4.25 -0.5182,0 -2.2356,-1.35 -3.8164,-3 -1.5808,-1.65 -3.2775,-3 -3.7705,-3 -0.493,0 -4.6518,-3.2625 -9.2418,-7.25 -4.5901,-3.9875 -10.965,-9.406 -14.1666,-12.0411 -14.0397,-11.5556 -28.6745,-23.3271 -30.719,-24.70893 -1.2206,-0.825 -6.0179,-4.75106 -10.6607,-8.72459 -13.8502,-11.85373 -15.638,-13.27541 -16.6942,-13.27541 -0.5554,0 -2.2228,-1.59035 -3.7054,-3.53412 -1.4826,-1.94377 -4.1745,-4.53127 -5.9822,-5.75 -4.0167,-2.70816 -17.3421,-13.68055 -23.6402,-19.46588 -2.5447,-2.3375 -4.9641,-4.25 -5.3764,-4.25 -0.4123,0 -4.2951,-3.0375 -8.6283,-6.75 -20.4295,-17.50295 -23.1923,-19.80995 -24.749,-20.6659 -0.9161,-0.50374 -5.3172,-4.21624 -9.7803,-8.25 -4.463,-4.03375 -8.5413,-7.3341 -9.0629,-7.3341 -0.5215,0 -2.27,-1.40101 -3.8854,-3.11335 -1.6154,-1.71235 -4.5121,-4.1439 -6.4371,-5.40344 -1.925,-1.25955 -6.5368,-4.92104 -10.2485,-8.13665 -12.832,-11.11689 -49.0904,-41.25394 -52.1057,-43.30892 -1.1802,-0.8043 -5.1762,-4.1069 -8.8801,-7.33911 -3.7039,-3.23222 -8.0573,-6.84915 -9.6742,-8.03764 -1.6169,-1.18848 -7.2866,-5.76088 -12.5994,-10.16088 -5.3128,-4.4 -10.8526,-8.9 -12.3109,-10 -1.4582,-1.1 -6.8132,-5.6 -11.8999,-10.000001 -13.8545,-11.98388 -23.3088,-19.8804 -25.143,-21 -0.901,-0.55 -3.6633,-2.81976 -6.1383,-5.04392 -2.475,-2.22415 -6.9755,-5.86812 -10.0011,-8.09772 -3.0257,-2.2296 -6.1183,-4.79734 -6.8725,-5.70608 -0.7542,-0.90875 -1.8137,-1.65227 -2.3546,-1.65227 -0.5408,0 -4.4232,-3.21297 -8.6275,-7.13994 -4.2044,-3.92696 -8.7693,-7.84539 -10.1443,-8.70762 -1.375001,-0.86222 -5.530401,-4.21435 -9.234301,-7.44918 -3.7039,-3.23482 -8.06,-6.85389 -9.6802,-8.04238 -1.6202,-1.18848 -8.2025,-6.66088 -14.6274,-12.1609 -6.4249,-5.5 -12.4188,-10.45 -13.3198,-11 -1.6971,-1.03589 -17.7237,-14.45491 -29.7595,-24.91749 -2.2666,-1.97038 -4.4272,-3.58251 -4.8012,-3.58251 -0.374,0 -4.5944,-3.36462 -9.3787974,-7.47694 -9.44210003,-8.11585 -15.0884,-12.896139 -31.1986996,-26.413659 -5.775,-4.84556 -11.3573,-9.77744 -12.405,-10.95975 -1.0478,-1.1823 -2.4585,-2.14964 -3.135,-2.14964 -0.6765,0 -1.9907,-1.16101 -2.9205,-2.58001 -0.9298,-1.41901 -3.119,-3.20139 -4.865,-3.96086 -2.7576,-1.19949 3.2685,-1.38599 45.8811996,-1.41999 l 49.0556974,-0.0391 3.3478,2.46992 c 1.8412,1.35845 6.3581,5.52095 10.0375,9.25 3.6793,3.72904 12.8507,12.40508 20.3807,19.28008 17.455601,15.937059 32.353301,30.003079 50.665401,47.836919 7.9986,7.78969 14.9039,14.16307 15.3451,14.16307 0.4412,0 12.2721,11.13752 26.2909,24.75002 14.0189,13.6125 26.3134,25.2 27.3212,25.75 1.0078,0.55 7.6076,6.58142 14.6662,13.40316 20.5592,19.86938 37.1647,35.588311 53.4506,50.596831 8.3554,7.7 18.9031,17.6 23.4394,22 4.5364,4.4 14.2545,13.67171 21.5958,20.60381 7.3414,6.9321 19.9634,18.8571 28.049,26.5 8.0855,7.6429 16.4978,15.47118 18.6938,17.39618 2.1961,1.925 12.5183,11.6 22.9381,21.5 10.4199,9.9 27.1456,25.65 37.1683,35 10.0227,9.35 23.5564,22.175 30.0749,28.5 6.5185,6.32503 17.1556,16.52623 23.6379,22.66953 6.4823,6.1432 16.5366,15.7057 22.343,21.25 10.5892,10.1112 13.4118,11.6303 15.9429,8.5805 0.6847,-0.825 1.6267,-1.5 2.0933,-1.5 1.3507,0 9.9067,-6.2912 9.9067,-7.2844 0,-1.5479 -4.0597,-6.3696 -18,-21.378 -7.425,-7.994 -13.6753,-15.0162 -13.8895,-15.6049 -0.2143,-0.5886 -3.3643,-4.08979 -7,-7.78028 -3.6358,-3.69049 -8.8605,-9.47927 -11.6105,-12.86397 -2.75,-3.38469 -7.7,-8.97869 -11,-12.43111 -3.3,-3.45242 -9.7136,-10.52518 -14.2526,-15.71725 -4.5389,-5.19206 -10.903,-12.36512 -14.1424,-15.94012 -8.4455,-9.32055 -19.0896,-21.36135 -26.3367,-29.79236 -3.4475,-4.01079 -9.3058,-10.26076 -13.0183,-13.8888 -3.7125,-3.62805 -6.75,-7.01953 -6.75,-7.53663 0,-0.5171 -5.0122,-6.2761 -11.1384,-12.79778 -6.1261,-6.52168 -11.8636,-12.95692 -12.75,-14.30054 -0.8863,-1.34361 -4.3938,-5.30964 -7.7944,-8.8134 -5.7647,-5.93961 -18.469,-19.95997 -23.5807,-26.0234 -2.2539,-2.67356 -14.9093,-16.61625 -37.4865,-41.299461 -6.7375,-7.36598 -12.25,-13.72684 -12.25,-14.13523 0,-0.40839 -2.7462,-3.70575 -6.1028,-7.32745 -12.911,-13.93079 -53.5394,-58.91292 -58.8972,-65.20853 -1.375,-1.61569 -7.45,-8.33959 -13.5,-14.94201 -6.05,-6.60242 -11.9392,-13.29657 -13.0873,-14.87588 -1.148,-1.57931 -7.223,-8.42219 -13.5,-15.206389 -6.2769,-6.78421 -11.9613,-13.0138 -12.6319,-13.84353 -0.6706,-0.82973 -4.4956,-5.17369 -8.5,-9.65325 -4.0044,-4.47955 -7.861,-8.86705 -8.5702,-9.75 -1.1792,-1.46813 1.8823,-1.60535 35.8158,-1.60535 24.0449,0 37.7969,0.37025 39.0706,1.0519 1.081,0.57854 4.4228,4.29104 7.4262,8.25 3.0034,3.95895 7.0421,9.2231 8.9748,11.6981 1.9327,2.475 5.1988,6.66109 7.258,9.30242 2.0592,2.64134 6.669,8.375599 10.244,12.742789 8.6789,10.602 13.7415,17.08104 18.2034,23.29621 2.0369,2.83721 5.2994,6.79967 7.25,8.80547 1.9507,2.0058 3.5466,4.0882 3.5466,4.62756 0,0.53936 0.7362,1.59165 1.6361,2.33842 0.8998,0.74677 2.6865,3.02191 3.9705,5.05587 1.2839,2.03395 4.2602,5.96037 6.614,8.72537 2.3537,2.765 6.7544,8.20776 9.7794,12.095 3.025,3.88723 7.75,9.87532 10.5,13.30686 6.2595,7.8108 8.5901,10.91247 12.9269,17.20404 1.8956,2.75 5.05,6.55078 7.0099,8.44617 1.9598,1.89538 3.5632,3.87047 3.5632,4.38908 0,0.51862 2.475,3.762 5.5,7.20752 3.025,3.44552 5.5,6.54648 5.5,6.89101 0,0.34454 2.3625,3.48994 5.25,6.98978 2.8875,3.49984 7.725,9.645941 10.75,13.658001 3.025,4.01206 7.6322,9.79751 10.2381,12.85654 8.2015,9.62744 12.7619,15.54978 12.7619,16.57299 0,0.3826 3.0375,4.20904 6.75,8.5032 5.9123,6.8385 16.8443,20.90262 21.2338,27.31732 0.8161,1.1926 3.9661,5.18131 7,8.8638 3.034,3.68248 8.0909,9.98248 11.2377,14 3.1468,4.01751 8.0968,10.33834 11,14.04627 2.9032,3.70794 6.6285,8.5699 8.2785,10.80436 1.65,2.23447 5.8125,7.37761 9.25,11.42922 3.4375,4.05161 6.2521,7.73964 6.2545,8.19564 0,0.45599 2.4775,3.60123 5.5,6.98941 3.0226,3.38817 5.4955,6.44543 5.4955,6.79391 0,0.34847 3.9375,5.50961 8.75,11.46921 4.8125,5.95959 11.225,14.06536 14.25,18.01282 3.025,3.94746 7.8625,10.06312 10.75,13.59035 2.8875,3.52724 5.25,6.67061 5.25,6.98527 0,0.31466 2.925,3.92594 6.5,8.02514 3.57505,4.0991 6.50005,7.8648 6.50005,8.3682 0,1.2903 7.87923,11.1112 9.37489,11.6851 1.45667,0.559 15.62511,-5.6544 15.62511,-6.8522 0,-0.4505 -0.83113,-2.0384 -1.84696,-3.5286 -1.90213,-2.7905 -6.88336,-10.3071 -8.65304,-13.0574 -0.55,-0.8548 -2.43178,-3.6012 -4.18173,-6.10314 -5.84368,-8.35482 -22.81332,-33.53755 -23.18962,-34.41302 -0.2042,-0.47522 -2.4268,-3.85022 -4.939,-7.5 -5.2222,-7.58687 -12.199,-17.89054 -13.683,-20.20765 -4.5981,-7.17913 -10.1722,-15.54259 -14.2001,-21.30563 -4.4507,-6.36815 -8.4925,-12.52282 -18.8066,-28.63789 -2.2,-3.43736 -5.1532,-7.65264 -6.5626,-9.36728 -1.4095,-1.71463 -3.7869,-5.14252 -5.2833,-7.61752 -1.4963,-2.475 -4.7005,-7.2 -7.1205,-10.5 -2.4199,-3.29999 -6.0832,-8.69999 -8.1406,-11.99999 -2.0574,-3.3 -5.0012,-7.6255 -6.5417,-9.61222 -3.0697,-3.95871 -9.8513,-13.88882 -9.8513,-14.42506 0,-0.18497 -2.025,-3.29412 -4.5,-6.90923 -2.475,-3.61511 -4.5,-6.74227 -4.5,-6.94925 0,-0.40657 -6.2321,-9.62777 -10.884,-16.104241 -1.5802,-2.2 -5.9074,-8.725 -9.616,-14.5 -3.7085,-5.775 -8.0498,-12.3 -9.6472,-14.49999 -1.5975,-2.2 -5.5404,-8.05 -8.762,-13 -3.2216,-4.95 -6.8544,-10.07222 -8.0728,-11.38271 -1.2184,-1.31049 -3.3089,-4.43936 -4.6454,-6.95305 -1.3366,-2.51369 -3.0527,-5.26647 -3.8137,-6.11729 -1.7818,-1.99199 -8.5589,-12.09061 -8.5589,-12.75355 0,-0.27809 -1.2846,-2.14537 -2.8547,-4.14951 -1.5701,-2.00415 -3.0326,-4.10428 -3.25,-4.66695 -0.2174,-0.56267 -1.8815,-3.03767 -3.698,-5.5 -3.6297,-4.92016 -18.1973,-27.08043 -18.1973,-27.68176 0,-0.54579 -4.3137,-6.59338 -5.5522,-7.78379 -0.5787,-0.55628 -2.1996,-2.81141 -3.6021,-5.01141 -1.4024,-2.19999 -4.7539,-7.374989 -7.4478,-11.499989 -2.6938,-4.125 -5.0654,-7.95 -5.2703,-8.5 -0.2048,-0.55 -2.1173,-3.10573 -4.25,-5.67941 -2.1326,-2.57367 -3.8776,-4.98391 -3.8776,-5.35609 0,-0.37218 -1.35,-2.38121 -3,-4.4645 -1.65,-2.0833 -3,-4.28555 -3,-4.8939 0,-0.78367 8.786,-1.1061 30.1398,-1.1061 33.2458,0 30.9954,-0.42432 34.4733,6.5 1.6865,3.35764 2.3082,4.42676 7.6369,13.13408 2.0625,3.37015 3.75,6.41702 3.75,6.77084 0,0.35381 1.5485,2.89435 3.4411,5.64564 1.8925,2.75129 3.7573,6.00294 4.1438,7.225889 0.3866,1.22294 1.6518,3.57354 2.8115,5.22354 2.9966,4.26327 4.4465,6.63748 5.8017,9.5 0.651,1.375 1.9395,3.4 2.8634,4.5 0.9238,1.1 2.3005,3.20205 3.0591,4.67123 0.7587,1.46918 2.4955,4.84418 3.8595,7.5 1.3641,2.65582 4.6502,8.34894 7.3024,12.65137 2.6522,4.30243 5.2491,8.80243 5.7709,10 0.5217,1.19757 2.7304,4.8774 4.9081,8.17742 2.1777,3.3 5.125,8.25 6.5494,11 4.0872,7.89062 6.1919,11.50762 7.7503,13.31905 0.7953,0.92452 2.114,3.03095 2.9304,4.68095 2.8978,5.85688 9.106,17.03687 10.8282,19.49999 0.9614,1.375 3.4314,5.65 5.489,9.5 2.0575,3.85 5.206,9.06375 6.9967,11.58611 1.7907,2.52237 3.5906,5.64131 4,6.93098 0.4093,1.28968 2.038,4.130951 3.6194,6.313931 1.5813,2.18298 2.8751,4.77602 2.8751,5.76231 0,0.9863 0.8193,2.38128 1.8206,3.09997 1.0013,0.71868 2.5034,2.6567 3.3379,4.3067 3.338,6.59956 9.2121,17.14089 10.8662,19.5 0.9641,1.375 3.6627,6.1 5.9969,10.5 2.3342,4.4 4.8825,8.73603 5.6627,9.63562 0.7803,0.89959 2.988,4.72458 4.906,8.49999 5.7028,11.22502 6.5833,12.76986 8.4725,14.86438 0.9922,1.1 2.2921,3.125 2.8886,4.5 0.5966,1.375 2.4981,4.75 4.2257,7.5 1.7276,2.75 6.1612,10.4 9.8526,17 3.6913,6.6 8.7745,15.375 11.296,19.5 2.52138,4.125 5.52659,9.51939 6.6782,11.98754 1.15162,2.46815 2.91363,5.39315 3.91559,6.5 1.80822,1.99752 2.89355,3.85806 7.29902,12.51246 1.25988,2.475 3.10974,5.625 4.11079,7 1.72578,2.37045 8.71409,14.50819 19.86343,34.5 6.8398,12.26453 8.3723,13.81983 12.9053,13.09793 1.9789,-0.3151 5.2188,-1.2502 7.1998,-2.0779 l 3.6019,-1.505 -10.9498,-21.75038 c -6.0225,-11.96273 -10.9499,-22.10974 -10.9499,-22.54891 0,-0.43917 -6.3352,-13.71738 -14.07825,-29.50712 -19.13287,-39.01603 -35.44558,-72.46487 -38.87328,-79.70861 -3.4132,-7.21308 -7.0845,-14.53543 -12.1158,-24.16421 -2.0589,-3.94032 -4.0509,-8.13288 -4.4266,-9.3168 -0.3758,-1.18393 -2.4434,-5.25873 -4.5946,-9.05512 -2.1513,-3.79639 -3.9183,-7.47883 -3.9266,-8.1832 -0.01,-0.70437 -4.9584,-11.129641 -11,-23.167271 -6.0417,-12.03763 -10.9849,-22.28406 -10.9849,-22.76986 0,-0.4858 -1.107,-2.63694 -2.46,-4.78032 -1.3531,-2.14337 -2.7656,-5.11417 -3.139,-6.60178 -0.3734,-1.48761 -1.9651,-5.0125 -3.5372,-7.83309 -1.572,-2.82059 -4.6994,-8.95334 -6.9496,-13.62834 -4.7997,-9.97147 -7.6994,-15.69574 -11.2982,-22.30293 -1.4388,-2.64161 -2.618,-5.34161 -2.6204,-6 0,-0.6584 -6.3024,-13.74191 -14,-29.07448 -7.6976,-15.332549 -14.0013,-28.382549 -14.0082,-28.999989 -0.015,-1.33887 -5.0998,-11.51739 -7.3793,-14.77176 -0.8844,-1.26273 -1.6081,-3.05824 -1.6081,-3.99002 0,-0.93179 -0.5625,-1.92114 -1.25,-2.19855 -0.6875,-0.27741 10.5947,-0.53991 25.0715,-0.58333 20.2546,-0.0607 26.619,0.2186 27.6124,1.21202 1.4023,1.40238 7.5661,14.2606 7.5661,15.7837 0,0.51433 1.125,3.26715 2.5,6.11739 1.375,2.85023 2.5,5.59252 2.5,6.09396 0,0.50145 0.6202,2.32973 1.3782,4.06285 0.758,1.73312 3.5328,8.326119 6.1663,14.651119 2.6335,6.325 5.1633,11.9275 5.6219,12.45 0.4585,0.5225 0.8336,1.56383 0.8336,2.31408 0,0.75024 1.1801,3.92274 2.6223,7.05 1.4423,3.12725 2.9836,6.81092 3.4251,8.18592 1.2165,3.78819 4.4162,12.07066 6.1811,16 1.3777,3.06696 2.7651,6.29215 9.3712,21.78395 0.7702,1.80616 1.4147,4.05616 1.4321,5 0.018,0.94384 0.6925,2.58958 1.5,3.6572 0.8076,1.06762 1.4682,2.779 1.4682,3.80305 0,1.02406 1.125,3.51751 2.5,5.54101 1.375,2.02349 2.5,4.43815 2.5,5.3659 0,0.92776 0.6475,2.9608 1.4389,4.51787 2.1592,4.24847 4.5611,10.02425 4.5611,10.96781 0,0.79857 3.7031,8.92243 6.6175,14.51751 0.7604,1.45986 1.3969,3.48486 1.4143,4.5 0.018,1.01514 0.69255,2.71922 1.50005,3.78684 0.80751,1.06762 1.48251,2.86762 1.5,4 0.0175,1.132381 0.6925,2.932381 1.5,4.000001 0.80751,1.06762 1.4682,2.59254 1.4682,3.3887 0,0.79617 1.8,5.20114 4,9.78884 2.2,4.58769 4.01431,8.91277 4.0318,9.61129 0.0175,0.69852 0.6925,2.14355 1.5,3.21117 0.80751,1.06762 1.48251,2.86762 1.5,4 0.0175,1.13238 0.6925,2.93238 1.5,4 0.80751,1.06762 1.4682,2.779 1.4682,3.80305 0,1.02406 1.125,3.51751 2.5,5.54101 1.375,2.02349 2.5,4.45935 2.5,5.41302 0,0.95366 0.6441,3.2117 1.43133,5.01786 0.78724,1.80615 2.82391,6.88392 4.52595,11.28392 1.70203,4.4 3.93075,9.8 4.9527,12 4.32974,9.32082 8.0438,18.16959 8.6045,20.5 0.7516,3.12438 2.9804,8.86718 6.2095,16 3.0889,6.82308 3.6453,8.14813 6.2989,15 1.1715,3.025 2.9489,7.3 3.9498,9.5 1.9393,4.2625 4.8618,11.45644 7.3125,18 0.824,2.2 3.8428,9.625 6.7085,16.5 2.8657,6.875 6.1069,14.75 7.2026,17.5 3.8009,9.53983 4.1726,10.02833 7.3688,9.68213 1.6142,-0.1748 3.2687,-0.6436 3.6767,-1.0417 0.792,-0.77302 0.7668,-0.86659 -4.7592,-17.64043 -1.9931,-6.05 -4.0677,-12.79155 -4.6102,-14.98123 -0.5425,-2.18967 -3.0201,-9.83967 -5.5058,-17 -2.4857,-7.16032 -5.1125,-15.26877 -5.8375,-18.01877 -1.5886,-6.02642 -6.1646,-20.5533 -8.1176,-25.77024 -0.7763,-2.07363 -1.4115,-4.64909 -1.4115,-5.72325 0,-1.07415 -0.8756,-3.87755 -1.9457,-6.22976 -1.0702,-2.35221 -2.6993,-6.97675 -3.6203,-10.27675 -4.0779,-14.61083 -10.2979,-33.57962 -11.4929,-35.0496 -0.4694,-0.57729 -1.1693,-3.02569 -1.5556,-5.44088 -0.3862,-2.41519 -1.3031,-5.54287 -2.0377,-6.95039 -0.7345,-1.40751 -1.3382,-3.54506 -1.3416,-4.7501 0,-1.20504 -0.41702,-2.4449 -0.91917,-2.75524 -0.50214,-0.31034 -1.216,-2.35782 -1.58636,-4.54995 -0.37036,-2.19212 -1.5718,-5.8452 -2.66988,-8.11796 -1.09807,-2.27275 -2.24486,-5.66276 -2.54842,-7.53335 -0.30355,-1.8706 -0.94126,-3.64172 -1.41713,-3.93582 -0.47587,-0.2941 -0.8587,-1.29568 -0.85073,-2.22572 0.0154,-1.79584 -3.71156,-14.641921 -4.99702,-17.223801 -0.41974,-0.84306 -1.1026,-3.07829 -1.51747,-4.96718 -0.41487,-1.88889 -1.10224,-4.12412 -1.52749,-4.96718 -0.42525,-0.84305 -1.54903,-4.23282 -2.49729,-7.53282 -0.94826,-3.3 -2.08732,-6.73209 -2.53125,-7.62688 -0.44394,-0.89479 -1.11395,-3.26226 -1.48892,-5.26105 -0.37498,-1.99878 -1.04161,-3.85654 -1.4814,-4.12835 -0.43979,-0.2718 -1.08929,-2.40433 -1.44332,-4.73895 -0.35403,-2.33462 -1.01493,-5.14476 -1.46866,-6.24476 -3.12969,-7.58742 -11.23365,-32.26074 -12.48112,-38.00002 -0.3586,-1.65 -1.4652,-5.25 -2.4591,-8 -0.9938,-2.75 -2.5014,-7.25 -3.3503,-10 -4.9903,-16.16672 -9.6138,-30.726999 -13.8131,-43.499989 -2.6219,-7.975 -5.2112,-16.075 -5.7541,-18 -0.5429,-1.925 -1.309,-4.2875 -1.7025,-5.25 -0.6694,-1.63749 0.8043,-1.75 22.9229,-1.75 18.05704,0 23.72123,0.29514 23.98912,1.25 0.19289,0.6875 0.90063,3.275 1.57276,5.75 0.67213,2.475 1.65493,5.59895 2.184,6.94211 0.52908,1.34317 1.35858,4.26817 1.84334,6.5 0.48476,2.23184 1.60147,6.98289 2.48158,10.55789 0.88011,3.575 2.22635,9.424989 2.99164,12.999989 3.56544,16.65565 4.33684,19.73041 5.77031,23 0.84397,1.925 2.04156,5.975 2.66132,9 2.24156,10.94088 3.95206,18.62351 5.56606,25.00002 0.905,3.575 2.1056,9.2 2.6682,12.5 0.5625,3.3 1.4333,6.4275 1.935,6.95 0.5018,0.5225 0.9123,1.95844 0.9123,3.19098 0,1.23254 0.4185,2.49964 0.93,2.81577 0.5115,0.31612 1.2421,3.15518 1.6234,6.30901 0.3814,3.15383 1.0742,6.21388 1.5396,6.8001 0.4655,0.58622 1.1463,3.73622 1.5129,7 0.3667,3.26377 1.0045,6.38413 1.4173,6.93413 0.4129,0.55 1.0657,2.91014 1.4508,5.24476 0.385,2.33462 1.1109,4.49868 1.613,4.80902 0.5022,0.31034 0.913,1.86114 0.913,3.44622 0,1.58508 0.4185,3.14062 0.93,3.45675 0.5115,0.31612 1.2391,3.04863 1.6169,6.07223 0.3778,3.0236 1.0528,5.723601 1.5,6.000001 0.4472,0.2764 1.1252,3.08295 1.5065,6.23678 0.3814,3.15383 1.0742,6.21388 1.5396,6.8001 0.4655,0.58622 1.1572,3.71162 1.5373,6.94532 0.38,3.23371 1.2909,7.02907 2.0242,8.43414 0.7333,1.40508 1.336,4.02329 1.3394,5.81825 0,1.79496 0.4009,4.04496 0.8834,5 1.5084,2.98579 3.4613,9.54934 4.2358,14.23643 0.409,2.475 1.4759,7.42499 2.371,10.99999 0.895,3.575 2.0721,8.75 2.6156,11.5 0.5435,2.75 1.7088,6.8 2.5895,9 0.8807,2.2 2.1834,6.925 2.8948,10.5 0.7114,3.575 2.026,9.425 2.9213,13 0.8952,3.575 2.2508,9.2 3.0123,12.5 2.7033,11.71518 4.3164,18.04511 5.479,21.5 1.2228,3.63393 3.4288,13.03984 4.983,21.24729 0.4945,2.61102 1.2185,5.26419 1.6089,5.89595 0.7256,1.17391 2.5776,9.25763 4.7785,20.85676 1.1576,6.1006 1.4128,6.52074 4.1527,6.83761 2.7194,0.31447 10.1789,-1.45892 11.6159,-2.76149 0.6892,-0.62478 -0.3394,-7.89032 -2.1344,-15.07612 -1.0713,-4.28888 -2.6008,-13.9335 -4.9954,-31.5 -0.5998,-4.4 -1.3819,-8.675 -1.7381,-9.5 -0.6014,-1.39271 -2.5756,-13.51147 -3.9099,-24 -0.3148,-2.475 -0.9195,-4.95 -1.3436,-5.5 -0.4242,-0.55 -1.0729,-4.15 -1.4416,-8 -0.3686,-3.85 -1.0864,-8.125 -1.595,-9.5 -0.5086,-1.375 -1.3806,-6.1 -1.9377,-10.5 -2.1506,-16.98357 -3.5668,-26.04127 -4.2309,-27.05903 -0.38,-0.58247 -1.0057,-4.53247 -1.3904,-8.77778 -0.3847,-4.24531 -1.0863,-7.95781 -1.559,-8.24998 -0.4728,-0.29218 -0.8596,-2.27812 -0.8596,-4.4132 0,-2.13508 -0.402,-4.1304 -0.8933,-4.43405 -0.4913,-0.30364 -1.2143,-4.60832 -1.6067,-9.56595 -0.3924,-4.95763 -1.0683,-9.23322 -1.5021,-9.50132 -0.4338,-0.2681 -1.1078,-4.0925 -1.4979,-8.49868 -0.39,-4.406181 -1.0581,-8.226871 -1.4845,-8.490431 -0.4265,-0.26356 -1.0963,-4.76041 -1.4886,-9.99298 -0.3923,-5.23258 -1.0676,-9.73273 -1.5006,-10.00034 -0.433,-0.26761 -1.1063,-4.31656 -1.4962,-8.99766 -0.39,-4.68112 -1.1187,-8.76436 -1.6195,-9.07387 -0.5008,-0.30951 -0.9106,-2.11729 -0.9106,-4.0173 0,-1.9 -0.434,-4.23594 -0.9645,-5.19098 -0.5305,-0.95504 -1.4146,-5.33643 -1.9646,-9.73643 -0.9409,-7.52647 -2.0242,-14.47646 -5.6113,-36.00002 -0.825,-4.95 -1.8735,-11.25 -2.3301,-14 -0.4565,-2.75 -1.1198,-5.675 -1.4739,-6.5 -0.3541,-0.825 -1.0833,-4.875 -1.6204,-9 -0.5372,-4.125 -1.6899,-11.55 -2.5616,-16.499989 -0.8718,-4.95 -2.0326,-12.375 -2.5797,-16.5 -0.5471,-4.125 -1.422,-8.88195 -1.9443,-10.571 -0.5223,-1.68905 -0.9496,-4.27655 -0.9496,-5.75 l 0,-2.679 22,0 22,0 0.079,2.25 c 0.044,1.2375 0.506,6.075 1.0272,10.75 0.5212,4.675 1.592,15.475 2.3795,24 0.7876,8.524989 1.9166,18.424989 2.5089,21.999989 0.5923,3.575 1.5085,12.575 2.0361,20 0.5276,7.425 1.3871,14.85 1.9099,16.5 0.5229,1.65 1.258,9.07502 1.6335,16.50002 0.3755,7.425 1.0187,13.95 1.4294,14.5 0.4107,0.55 1.0685,7.3 1.4618,15 0.3934,7.69999 1.0843,14.44999 1.5354,14.99999 0.4511,0.55 1.0646,4.15 1.3634,8 1.8,23.196271 2.8399,33.232631 3.6263,35.000001 0.4895,1.1 1.1887,8.63993 1.5538,16.7554 0.365,8.11547 1.0669,15.00453 1.5595,15.30902 0.4927,0.30449 0.9236,3.78956 0.9576,7.7446 0.034,3.95503 0.4982,10.56597 1.0314,14.69097 0.5333,4.125 1.6169,14.025 2.4079,22 0.791,7.975 1.914,17.875 2.4955,22 0.5814,4.125 1.7092,14.925 2.5062,24 1.5407,17.54436 3.9328,39.92024 5.2384,49 0.5984,4.16227 1.1517,5.39659 2.2748,5.07482 0.8162,-0.23385 3.959,-0.68385 6.984,-1 l 5.5,-0.57482 -0.3684,-46 c -0.2026,-25.3 -0.7153,-46.675 -1.1394,-47.5 -0.424,-0.825 -1.0976,-24.675 -1.4969,-52.99999 -0.3993,-28.325 -1.0116,-51.950001 -1.3607,-52.500001 -0.349,-0.55 -1.179,-23.95 -1.8444,-51.99999 -0.6654,-28.05002 -1.4159,-54.82502 -1.6678,-59.50002 -0.252,-4.675 -0.7235,-20.9875 -1.0479,-36.249989 l -0.5898,-27.75 22.6212,0 22.6211,0 -0.7373,3.25 c -0.7915,3.48934 -1.0605,9.98667 -2.5566,61.749989 -0.5325,18.425 -1.663,54.42502 -2.5122,80.00002 -0.8492,25.57499 -1.7584,56.374601 -2.0206,68.443561 -0.2622,12.06896 -0.8616,22.41896 -1.332,23 -0.4704,0.58104 -1.1807,21.08142 -1.5783,45.55642 -0.3977,24.475 -1.0846,45.19055 -1.5264,46.03455 -0.4418,0.84401 -0.9191,11.64401 -1.0606,24 l -0.2573,22.46545 8.4272,0 8.4271,0 0.7803,-5.5 c 0.4292,-3.025 1.2002,-8.425 1.7134,-12 1.8798,-13.09505 4.0951,-30.83136 5.4956,-44 0.7896,-7.425 2.1361,-19.125 2.9921,-26 0.856,-6.875 2.0206,-18.125 2.588,-25 0.5674,-6.875 1.4354,-13.4 1.9289,-14.5 1.0671,-2.37841 1.717,-7.5794 3.1242,-24.99999 0.5776,-7.15 1.4365,-13.9 1.9087,-15 0.4721,-1.1 1.1571,-6.6161 1.5221,-12.258 0.365,-5.64191 1.0186,-10.47741 1.4525,-10.74556 0.4339,-0.26815 1.1147,-6.571781 1.513,-14.008051 0.3983,-7.43628 1.1195,-13.76483 1.6027,-14.06346 0.4832,-0.29863 0.8785,-3.18985 0.8785,-6.42493 0,-3.23507 0.4006,-6.12951 0.8901,-6.43208 0.4896,-0.30257 1.2141,-5.50813 1.6099,-11.56791 0.3959,-6.05978 1.1203,-11.26534 1.6099,-11.56791 0.4896,-0.30257 0.9132,-3.56107 0.9415,-7.24111 0.028,-3.68004 0.4979,-9.84098 1.0438,-13.691 0.9586,-6.76142 2.344,-18.19762 5.3906,-44.5 0.7964,-6.875 1.9197,-15.64999 2.4962,-19.499989 0.5766,-3.85 1.6376,-12.625 2.3579,-19.5 0.7203,-6.875 1.6616,-13.2875 2.0918,-14.25 0.7094,-1.58702 2.7563,-1.75 21.978,-1.75 l 21.1957,0 -0.7697,5.25 c -1.7171,11.71213 -3.5998,22.33547 -4.2091,23.75 -0.3554,0.825 -1.064,4.425 -1.5748,8 -0.5108,3.574989 -1.4362,8.524989 -2.0565,10.999989 -0.6202,2.475 -1.7473,8.325 -2.5046,13 -0.7573,4.675 -2.1019,11.875 -2.9878,16 -0.886,4.125 -2.2479,11.55 -3.0265,16.5 -0.7786,4.95 -1.9918,12.67783 -2.696,17.17293 -0.7042,4.49511 -1.6179,8.50761 -2.0304,8.91667 -0.4125,0.40906 -0.75,1.7672 -0.75,3.01807 0,1.25087 -0.3841,2.51172 -0.8536,2.80187 -0.4695,0.29015 -1.1623,4.22962 -1.5397,8.75438 -0.3773,4.52475 -1.0642,8.70141 -1.5264,9.28146 -0.4621,0.58005 -1.1651,4.62165 -1.5621,8.98133 -0.3971,4.35969 -1.1041,8.63469 -1.5711,9.5 -0.467,0.86532 -1.1277,4.15371 -1.4681,7.30754 -0.3404,3.15383 -1.0375,5.99289 -1.549,6.30901 -0.5115,0.31613 -0.93,2.09667 -0.93,3.95675 0,1.86008 -0.3912,3.623741 -0.8693,3.919231 -0.4781,0.2955 -1.1864,4.59109 -1.574,9.54576 -0.3876,4.95467 -1.0625,9.22957 -1.4997,9.49978 -0.4372,0.27021 -1.1091,4.09331 -1.4931,8.49577 -0.3841,4.40247 -1.0827,8.24209 -1.5526,8.5325 -0.4699,0.2904 -1.1438,3.56077 -1.4975,7.26748 -0.3538,3.70671 -1.0593,7.63948 -1.5679,8.73948 -0.5086,1.1 -1.3589,5.14999 -1.8896,8.99999 -0.5307,3.85 -1.4092,9.025 -1.9522,11.5 -2.9504,13.44692 -4.314,20.38625 -5.6001,28.5 -2.5131,15.8544 -4.3212,25.89455 -5.4026,30 -0.5795,2.2 -1.0644,5.66094 -1.0775,7.69098 -0.013,2.03004 -0.4264,3.93972 -0.9183,4.24374 -0.4919,0.30401 -1.1459,2.24306 -1.4535,4.30901 -1.5347,10.31036 -3.6783,22.52281 -5.1351,29.25627 -2.3668,10.93922 -2.8528,15.07085 -1.8803,15.98378 0.4748,0.44571 2.7464,1.11627 5.0479,1.49015 3.9199,0.63677 4.2816,0.49212 5.7189,-2.28731 0.8439,-1.63189 1.9711,-5.37897 2.5048,-8.32685 1.183,-6.53346 3.3761,-15.49513 5.5942,-22.85977 0.911,-3.025 2.0476,-7.075 2.5257,-9 0.4781,-1.925 1.6077,-5.975 2.5103,-9 0.9026,-3.025 2.2407,-8.2 2.9736,-11.5 2.2411,-10.09123 3.4923,-14.76493 5.4879,-20.5 1.9957,-5.73507 3.2468,-10.40877 5.488,-20.5 0.7329,-3.3 2.0714,-8.475 2.9746,-11.5 0.9031,-3.025 2.0949,-7.75 2.6484,-10.5 0.5534,-2.75 1.8532,-7.475 2.8883,-10.5 1.0351,-3.02499 2.1924,-7.29999 2.5717,-9.49999 0.3794,-2.2 1.0307,-4.45 1.4474,-5 0.4167,-0.55 1.0834,-3.475 1.4816,-6.5 0.3982,-3.025 1.0716,-5.95 1.4965,-6.5 0.7954,-1.02956 2.3818,-7.22649 4.0959,-16 0.5373,-2.75 1.4113,-6.0125 1.9423,-7.25 0.5309,-1.2375 1.3898,-3.2625 1.9086,-4.5 0.5189,-1.2375 1.2447,-4.275001 1.6131,-6.750001 0.3684,-2.475 1.018,-4.95 1.4436,-5.5 0.4256,-0.55 1.1006,-3.025 1.5,-5.5 0.3994,-2.475 1.0685,-4.95 1.4869,-5.5 0.4185,-0.55 1.0868,-3.25 1.4851,-6 0.3984,-2.75 1.5374,-6.68348 2.5311,-8.74106 0.9937,-2.05758 2.1249,-6.10758 2.5138,-8.99999 0.3889,-2.89242 1.0563,-5.70894 1.4831,-6.25894 0.4268,-0.55 1.0936,-3.362 1.4817,-6.24888 0.3881,-2.88689 1.1135,-5.50095 1.612,-5.80902 0.4985,-0.30807 0.9063,-1.6069 0.9063,-2.88628 0,-2.27344 0.6624,-4.77352 5.0488,-19.05584 1.1824,-3.85 2.7502,-9.7 3.484,-13 0.7338,-3.3 2.0638,-8.925 2.9554,-12.5 0.8917,-3.575 1.971,-8.075 2.3984,-10 0.4275,-1.925 1.2882,-5.075 1.9127,-7 3.0358,-9.35732 5.5221,-18.060729 6.7132,-23.499989 0.7226,-3.3 2.0513,-8.7 2.9528,-12 0.9014,-3.3 2.2351,-8.475 2.9638,-11.5 2.3862,-9.90531 -0.2578,-9 26.2849,-9 21.97715,0 23.45535,0.11341 22.81025,1.75 -0.3795,0.9625 -1.81625,5.35 -3.19285,9.75 -1.3766,4.4 -3.3547,10.25 -4.396,13 -1.0412,2.75 -3.5052,10.175 -5.4755,16.499989 -1.9704,6.325 -4.6799,13.79496 -6.0212,16.59991 -1.3413,2.80495 -2.4387,5.82133 -2.4387,6.70306 0,2.2091 -8.6484,28.92581 -11.5958,35.8221 -1.3223,3.09377 -2.4042,6.15922 -2.4042,6.8121 0,1.60432 -3.1218,11.31317 -4.0395,12.56285 -0.4039,0.55 -1.0494,2.91014 -1.4344,5.24476 -0.3851,2.33462 -1.111,4.49868 -1.6131,4.80902 -0.5021,0.31034 -0.913,1.36143 -0.913,2.33576 0,0.97433 -1.1231,3.98527 -2.4958,6.69098 -1.3727,2.70571 -2.5005,5.59448 -2.5062,6.41948 -0.01,0.825 -0.6192,2.66686 -1.3634,4.09302 -0.7442,1.42617 -1.6817,4.35117 -2.0833,6.5 -0.4017,2.14884 -1.0786,4.35697 -1.5043,4.90697 -0.4256,0.55 -1.0761,2.97763 -1.4454,5.39473 -0.3693,2.4171 -1.5558,5.63656 -2.6365,7.15437 -1.0808,1.5178 -1.9679,3.59017 -1.9712,4.60527 0,1.0151 -0.6327,3.04635 -1.3983,4.513901 -0.7657,1.46754 -1.7021,4.50269 -2.0809,6.74476 -0.3788,2.24207 -1.0604,4.30621 -1.5147,4.58697 -0.4543,0.28076 -1.1293,2.30576 -1.5,4.5 -0.3707,2.19424 -1.0849,4.24344 -1.587,4.55378 -0.5021,0.31034 -0.913,1.48219 -0.913,2.60411 0,1.86721 -1.7981,6.7448 -4.0841,11.07854 -0.5037,0.95504 -0.9187,2.53004 -0.922,3.5 0,0.96996 -0.6151,2.93044 -1.3593,4.3566 -0.7442,1.42617 -1.6817,4.35117 -2.0833,6.5 -0.4017,2.14884 -1.0811,4.35697 -1.5099,4.90697 -0.4288,0.55 -1.7974,4.37499 -3.0414,8.49999 -1.2439,4.125 -2.5713,7.95 -2.9498,8.5 -0.3784,0.55 -2.1745,5.725 -3.9914,11.5 -1.8169,5.775 -4.6241,14.325 -6.2383,19 -1.6142,4.675 -4.0667,12.1 -5.4501,16.5 -1.3833,4.4 -3.6088,10.7 -4.9456,14 -1.3368,3.3 -2.4292,6.80246 -2.4277,7.78324 0,0.98079 -1.1221,4.00333 -2.4971,6.71676 -1.375,2.71343 -2.5,5.83937 -2.5,6.94652 0,1.10715 -0.6265,3.70961 -1.3923,5.78324 -0.7657,2.07363 -2.3566,6.92024 -3.5353,10.77024 -1.1787,3.85 -2.9912,8.8 -4.0279,11 -2.8525,6.05365 -6.1014,16.85923 -5.2753,17.5453 0.4019,0.33382 2.7558,1.1629 5.2308,1.8424 2.475,0.67951 5.736,1.61811 7.2467,2.08578 2.3053,0.71365 3.0687,0.44095 4.75,-1.69644 1.1018,-1.40072 2.0033,-3.15255 2.0033,-3.89296 0,-0.74042 1.3097,-4.16723 2.9105,-7.61515 1.6007,-3.44791 3.6935,-8.29393 4.6505,-10.76893 0.957,-2.475 3.2172,-7.65 5.0227,-11.5 6.1793,-13.17708 12.4163,-27.51043 12.4163,-28.53393 0,-0.56271 1.35,-3.69744 3,-6.96607 1.65,-3.26863 3,-6.38381 3,-6.92261 0,-0.53881 2.8725,-7.18914 6.3834,-14.77852 3.5108,-7.58938 7.1583,-15.82387 8.1055,-18.29887 0.9471,-2.475 2.9945,-7.2 4.5497,-10.5 1.5551,-3.3 4.2258,-9.375 5.9347,-13.5 1.7089,-4.125 3.989,-9.16415 5.0669,-11.19811 1.0779,-2.03396 1.9598,-4.19615 1.9598,-4.80486 0,-0.95911 1.2273,-4.0265 5,-12.49702 0.49,-1.1 1.8553,-4.25 3.034,-7 1.1788,-2.75 3.6784,-8.15399 5.5546,-12.00886 1.8763,-3.85487 3.4114,-7.36706 3.4114,-7.80486 0,-0.86646 3.4795,-9.11512 5.0351,-11.936281 0.5307,-0.9625 1.3388,-2.5375 1.7957,-3.5 0.457,-0.9625 1.582,-3.24897 2.5,-5.08104 0.9181,-1.83207 1.6692,-3.76926 1.6692,-4.30486 0,-0.88426 0.7442,-2.69544 5.6965,-13.8641 0.8536,-1.925 3.0711,-6.69722 4.9278,-10.60492 1.8567,-3.90771 3.391,-7.50771 3.4097,-8 0.019,-0.49229 0.9034,-2.69507 1.96615,-4.89507 1.0626,-2.2 1.9357,-4.45 1.9403,-5 0,-0.55 1.5788,-4.15 3.4984,-8 4.6274,-9.28082 9.5612,-20.41101 9.5612,-21.56927 0,-0.51134 1.0888,-3.06744 2.4196,-5.68023 3.67,-7.20553 6.5804,-13.84771 6.5804,-15.01776 0,-0.5765 1.1073,-3.22722 2.4608,-5.89047 3.9548,-7.78224 10.5392,-22.38124 10.5392,-23.36756 0,-1.35209 3.061,-8.43162 10.4492,-24.167489 2.503,-5.33102 4.5508,-10.03553 4.5508,-10.45447 0,-0.41894 1.204,-3.36969 2.6757,-6.55723 l 2.6756,-5.79553 27.3244,0 c 15.02837,0 27.31437,0.3375 27.30217,0.75 -0.012,0.4125 -0.9023,1.875 -1.9778,3.25 -1.0755,1.375 -1.9655,2.9236 -1.9779,3.44134 -0.034,1.45293 -10.1017,21.85165 -11.6825,23.6713 -1.4529,1.67243 -22.33957,43.193249 -22.33957,44.409099 0,0.37851 -1.2967,2.60951 -2.8815,4.95777 -1.5848,2.34826 -4.9508,8.48852 -7.4799,13.64502 -2.5291,5.15651 -5.4756,10.95048 -6.5477,12.87548 -1.072,1.925 -3.7822,7.325 -6.0227,12 -2.2405,4.675 -5.3964,10.87609 -7.0131,13.78019 -1.6168,2.9041 -3.2437,6.2791 -3.6156,7.5 -0.3718,1.2209 -1.2625,2.89481 -1.9792,3.71981 -0.7168,0.825 -6.8905,12.52499 -13.7194,25.99999 -6.8288,13.475001 -13.6768,26.750001 -15.2176,29.500001 -1.5408,2.75 -4.5515,8.6 -6.6903,13 -2.1388,4.4 -5.31005,10.7 -7.04715,14 -1.7371,3.3 -4.987,9.64747 -7.2221,14.10549 -2.2351,4.45802 -4.6155,8.76605 -5.2898,9.57341 -0.6742,0.80735 -8.3242,15.51526 -17,32.68425 -28.8417,57.07674 -37.7795,74.51184 -45.5759,88.90628 -4.2507,7.8482 -7.8343,15.22759 -7.9634,16.39869 -0.1984,1.7995 0.6169,2.3501 5.2652,3.5556 10.1749,2.6386 9.7319,2.85 16.1851,-7.72373 3.1889,-5.225 6.2478,-10.4 6.7976,-11.5 0.5497,-1.1 1.8523,-3.125 2.8945,-4.5 1.6261,-2.14545 8.6749,-13.69669 15.6228,-25.60218 1.1,-1.88488 4.475,-7.29639 7.5,-12.02558 3.025,-4.72919 6.3342,-10.23511 7.3538,-12.23538 1.0195,-2.00027 2.5945,-4.46949 3.5,-5.48715 0.9054,-1.01765 2.5462,-3.5992 3.6462,-5.73677 3.6226,-7.03956 11.4564,-19.76794 12.6022,-20.47609 0.6185,-0.38222 1.9995,-2.54938 3.0689,-4.8159 2.22335,-4.71221 4.32025,-8.25281 10.73195,-18.12095 2.5016,-3.85 5.0995,-8.23615 5.7731,-9.747 0.6737,-1.51084 2.5557,-4.43584 4.1823,-6.5 1.6266,-2.06415 5.0708,-7.80299 7.6538,-12.75299 2.583,-4.95 6.2245,-11.08529 8.0921,-13.63398 1.8676,-2.54868 3.3957,-4.88863 3.3957,-5.19987 0,-0.31124 1.3501,-2.56621 3.0001,-5.01104 1.65,-2.44484 3,-4.90787 3,-5.47341 0,-0.56554 1.03,-2.30028 2.2889,-3.85497 1.2589,-1.5547 2.8518,-3.95173 3.5396,-5.32673 1.7484,-3.49491 3.0072,-5.54058 8.3189,-13.51922 2.5561,-3.839431 5.6821,-9.005781 6.9468,-11.480781 1.2647,-2.475 3.0405,-5.625 3.9462,-7 6.2733,-9.52376 7.5004,-11.42141 8.4232,-13.02644 5.2451,-9.12177 8.2884,-14.00738 10.5733,-16.97355 1.48277,-1.925 3.03487,-4.58625 3.44897,-5.91389 0.4141,-1.32763 2.2157,-4.47763 4.0035,-7 3.5467,-5.00399 7.9237,-12.31345 9.4552,-15.79011 0.9124,-2.07117 10.7408,-17.57633 17.1625,-27.07525 1.5911,-2.35358 2.8929,-4.56111 2.8929,-4.90562 0,-0.3445 1.125,-2.10132 2.5,-3.90404 1.375,-1.80272 2.5,-3.58738 2.5,-3.96592 0,-0.37853 3.3931,-6.14606 7.5402,-12.81672 4.147,-6.67066 8.0745,-13.02846 8.7276,-14.128459 1.4449,-2.43345 3.6513,-5.91864 5.9503,-9.39903 0.945,-1.43054 2.3486,-3.95097 3.1191,-5.60097 0.7705,-1.65 3.0348,-5.40772 5.0318,-8.35049 1.9971,-2.94277 3.631,-5.5692 3.631,-5.83652 0,-0.26732 1.4263,-2.4721 3.1695,-4.89951 l 3.1695,-4.41348 31.5805,0.0153 c 17.3693,0.008 31.1189,0.34592 30.5547,0.75 -1.4237,1.01959 -7.4742,8.87131 -7.4742,9.69918 0,0.37218 -1.8,2.81139 -4,5.42046 -2.2,2.60907 -4,5.19886 -4,5.75509 0,0.55623 -1.125,2.06821 -2.5,3.35996 -1.375,1.29174 -2.5,2.92952 -2.5,3.63951 0,0.70999 -1.35,2.82846 -3,4.70771 -1.65,1.87924 -3,3.74495 -3,4.14601 0,0.40106 -1.8,2.879099 -4,5.506759 -2.2,2.62765 -4,5.0796 -4,5.44877 0,0.66963 -5.691,8.70387 -8.1848,11.55477 -0.7234,0.82694 -4.363,6.00194 -8.088,11.5 -3.725,5.49804 -8.7909,12.69646 -11.2575,15.99646 -2.4666,3.3 -6.0995,8.475 -8.0732,11.5 -1.9737,3.02502 -4.4504,6.62502 -5.5038,8.00002 -1.0534,1.375 -4.8524,6.775 -8.4422,12 -3.5898,5.225 -8.5039,12.2 -10.9202,15.5 -6.2579,8.54677 -12.5303,17.64953 -12.5303,18.18454 0,0.25115 -1.7303,2.56237 -3.8452,5.13604 -2.1148,2.57368 -4.8778,6.40945 -6.1399,8.52393 -1.2622,2.11449 -3.2444,4.86056 -4.4049,6.10239 -1.1605,1.24182 -4.6972,6.26178 -7.8593,11.155471 -3.1621,4.89369 -7.7444,11.59762 -10.1829,14.89762 -2.4386,3.3 -4.46387,6.5625 -4.50077,7.25 -0.037,0.6875 -0.5015,1.25 -1.0325,1.25 -0.531,0 -3.4891,3.7125 -6.5735,8.25 -3.0845,4.5375 -7.3738,10.725 -9.5318,13.75 -2.1579,3.025 -5.502,7.75 -7.4313,10.5 -1.9293,2.74999 -5.5302,7.69999 -8.0022,10.99999 -2.4719,3.3 -4.8017,6.675 -5.1773,7.5 -0.3755,0.825 -2.3457,3.525 -4.3782,6 -2.0324,2.475 -3.863,4.95 -4.0678,5.5 -0.4792,1.28676 -8.9544,13.66692 -13.3493,19.5 -1.8647,2.475 -3.4203,4.84386 -3.4568,5.26413 -0.037,0.42027 -2.0604,3.21217 -4.4974,6.20422 -2.4371,2.99206 -5.6751,7.5982 -7.1955,10.23587 -1.5205,2.63768 -4.6232,7.04578 -6.8949,9.79578 -2.2716,2.75 -5.6155,7.46178 -7.43095,10.47063 -1.8153,3.00884 -5.0437,7.5378 -7.1741,10.06435 -2.1305,2.52655 -3.8735,4.95232 -3.8735,5.3906 0,0.43827 -1.8001,2.94676 -4.0001,5.57442 -2.2,2.62766 -4,5.03005 -4,5.33865 0,0.65605 -4.1561,6.69463 -10.435,15.16135 -2.4473,3.3 -6.1193,8.7 -8.16,12.00003 -2.0407,3.3 -4.7084,7.125 -5.9282,8.5 -1.2198,1.375 -3.0104,3.749 -3.9791,5.2756 -1.6722,2.6352 -1.6735,2.8726 -0.026,4.6933 0.9545,1.0548 3.1365,2.2254 4.8489,2.6015 1.7125,0.3762 3.8791,1.162 4.8148,1.7464 1.3621,0.8506 2.4898,0.3767 5.6566,-2.3772 2.1754,-1.8918 4.499,-4.5543 5.1635,-5.9167 1.213,-2.4867 6.3848,-9.0175 17.5443,-22.15467 3.3,-3.88481 6.675,-8.07003 7.5,-9.30048 0.825,-1.23046 4.46905,-5.57408 8.09765,-9.65249 3.6287,-4.07841 7.0038,-8.15788 7.5001,-9.06549 0.4963,-0.90761 4.0523,-5.32943 7.9023,-9.82628 8.7668,-10.23974 13.2801,-15.6949 21.5001,-25.98686 3.575,-4.47617 9.65,-11.93797 13.5,-16.58177 3.85,-4.64381 10.15,-12.26572 14,-16.93758 3.85,-4.67186 10.15,-12.28103 14,-16.90926 3.85,-4.62823 9.24997,-11.20165 11.99997,-14.6076 2.75,-3.40596 6.2375,-7.67131 7.75,-9.47855 1.5125,-1.80726 2.75,-3.59215 2.75,-3.96642 0,-0.37428 3.0375,-4.23798 6.75,-8.58601 3.7125,-4.34802 9.6264,-11.28095 13.1421,-15.4065 3.5156,-4.12555 7.1711,-8.75244 8.1232,-10.28198 0.9522,-1.52954 3.1383,-4.10267 4.858,-5.71807 1.7197,-1.6154 3.1354,-3.4154 3.146,-4 0.011,-0.5846 3.8672,-5.33791 8.5702,-10.562911 9.4932,-10.54697 11.5392,-12.99159 15.9105,-19.01096 1.65,-2.27206 6.7125,-8.33489 11.25,-13.47295 4.5375,-5.13807 8.25,-9.67392 8.25,-10.07966 0,-0.40575 1.823,-2.80743 4.0511,-5.33707 6.9524,-7.89327 16.4038,-19.24645 17.4489,-20.95986 0.55,-0.90172 4.0375,-5.08657 7.75,-9.29967 3.7125,-4.21312 6.75,-8.1251 6.75,-8.69332 0,-0.56821 0.8474,-1.62663 1.883,-2.35203 1.8391,-1.28817 9.6271,-10.45679 11.617,-13.6765 0.9035,-1.46185 9.663,-11.96591 18.9527,-22.72728 1.951,-2.26011 3.5473,-4.58754 3.5473,-5.17208 0,-0.58453 1.8,-2.60352 4,-4.48664 2.2,-1.88312 4,-3.85899 4,-4.39083 0,-0.53184 1.35,-2.260349 3,-3.841149 1.65,-1.5808 3,-3.39579 3,-4.0333 0,-0.63751 1.9125,-3.00399 4.25,-5.25885 4.9027,-4.72934 9.7393,-10.59097 9.7737,-11.8451 0.013,-0.47451 3.0874,-4.12525 6.8321,-8.11275 l 6.8084,-7.25 37.6679,0 c 20.7173,0 37.6679,0.26742 37.6679,0.59427 0,0.32685 -5.2875,5.98479 -11.75,12.57319 -6.4625,6.5884 -12.0503,12.73348 -12.4174,13.65573 -0.3671,0.92224 -5.5421,6.52091 -11.5,12.441469 -5.9579,5.92056 -16.2326,16.62007 -22.8326,23.77667 -6.6,7.15661 -22.4482,24.13752 -35.2183,37.73536 -12.7701,13.59783 -27.8,29.67332 -33.3997,35.72332 -12.5281,13.5354 -26.7523,28.74613 -43.5715,46.593561 -7.0458,7.47646 -16.9302,18.05146 -21.9654,23.5 -5.0352,5.44854 -20.4477,21.67187 -34.25,36.05184 -13.8023,14.37998 -25.0951,26.50533 -25.0951,26.94523 0,0.4399 -4.7864,5.77446 -10.6364,11.85458 -16.6247,17.27864 -59.63577,63.08694 -90.12327,95.9842 -5.6428,6.08881 -15.1936,16.0206 -21.224,22.0706 -9.86695,9.8988 -16.01645,17.3145 -16.01645,19.3143 0,0.3991 3.1289,2.6563 6.953,5.016 6.1613,3.802 7.2144,4.1512 9.25005,3.0669 2.2222,-1.1836 12.7214,-10.6184 29.297,-26.3269 4.4,-4.1698 12.2751,-11.4002 17.5001,-16.0674 5.225,-4.6673 12.425,-11.42597 16,-15.01928 3.575,-3.59332 6.9243,-6.52214 7.443,-6.50848 0.5186,0.0137 5.6936,-4.51746 11.5,-10.06915 5.8063,-5.55168 13.93197,-13.16051 18.05697,-16.90851 4.125,-3.74799 12,-11.04586 17.5,-16.21749 5.5,-5.17162 14.95,-13.72047 21,-18.99744 6.05,-5.27698 12.8,-11.49117 15,-13.80933 2.2,-2.31816 5.7924,-5.53755 7.9831,-7.15421 2.1907,-1.61665 11.2621,-9.8873 20.1587,-18.37921 8.8966,-8.4919 16.5542,-15.43692 17.0169,-15.43336 0.4627,0.004 4.8913,-4.00222 9.8413,-8.90171 8.2201,-8.13628 13.36,-12.88415 33.9542,-31.36439 3.8248,-3.4322 11.4748,-10.56658 17,-15.85418 5.5252,-5.2876 10.797,-10.012601 11.7151,-10.500001 0.9181,-0.4874 9.3611,-8.08618 18.7622,-16.88618 9.4011,-8.8 21.1663,-19.59999 26.145,-23.99999 4.9787,-4.4 12.4573,-11.4875 16.6191,-15.75 4.1619,-4.2625 8.0397,-7.75 8.6174,-7.75 0.5778,0 4.7062,-3.4875 9.1743,-7.75 4.4681,-4.2625 12.3287,-11.57502 17.4679,-16.25002 9.2458,-8.4107 21.6702,-19.76037 35.8826,-32.77872 4.0357,-3.6967 7.8607,-7.30534 8.5,-8.01918 0.6392,-0.71384 1.7721,-1.83884 2.5176,-2.5 22.207,-19.696129 36.6771,-32.694709 45.3097,-40.702089 l 7.0076,-6.5 10.9136,-0.33848 c 7.4079,-0.22975 10.9137,0.0112 10.9137,0.75 0,0.59866 -0.45,1.08848 -1,1.08848 -0.6447,0 -1,10.80555 -1,30.41666 0,16.729159 -0.3457,30.566659 -0.7683,30.749989 -0.4225,0.18334 -1.6604,1.48894 -2.7507,2.90135 -1.6953,2.19591 -6.6487,6.61511 -23.981,21.39458 -1.65,1.40698 -6.3434,5.14098 -10.4298,8.29778 -4.0863,3.1568 -9.801,7.76465 -12.6992,10.23965 -2.8982,2.475 -8.4524,6.975 -12.3426,10 -3.8902,3.025 -10.8704,8.65 -15.5117,12.5 -4.6412,3.85 -11.6237,9.475 -15.5166,12.5 -3.893,3.025 -10.614,8.53749 -14.9357,12.24999 -4.3217,3.7125 -8.1537,6.75 -8.5154,6.75 -0.3618,0 -3.8958,2.68691 -7.8534,5.97092 -3.9576,3.284 -9.4456,7.79471 -12.1956,10.0238 -2.75,2.22908 -8.0239,6.517171 -11.7199,9.529081 -3.6959,3.01191 -7.105,5.4762 -7.5757,5.4762 -0.4707,0 -1.9467,1.17801 -3.2801,2.6178 -2.2302,2.40817 -13.8053,11.79616 -21.0921,17.10673 -1.6788,1.22349 -5.8153,4.61444 -9.1923,7.53545 -3.3769,2.92101 -7.3647,6.0845 -8.8616,7.02998 -1.4969,0.94548 -5.0969,3.72515 -8,6.17705 -11.2396,9.49282 -12.5423,10.53298 -13.1919,10.53298 -0.3687,0 -3.9656,2.8125 -7.993,6.25 -10.0346,8.56465 -30.5347,25.0098 -32.7121,26.24154 -0.9804,0.55465 -4.7357,3.48346 -8.345,6.50846 -14.4987,12.1517 -23.801,19.76619 -30.5412,25 -3.8957,3.025 -10.2583,8.2 -14.1391,11.5 -3.8808,3.3 -7.8391,6.4556 -8.796,7.01244 -0.957,0.55685 -4.4606,3.36935 -7.7858,6.25 -3.3252,2.88066 -6.3855,5.23756 -6.8007,5.23756 -0.4152,0 -2.6041,1.59637 -4.8642,3.54749 -8.5114,7.34776 -21.63,18.1442 -28.4969,23.45251 -8.5423,6.6035 -19.599,15.3912 -27.1124,21.54853 -3.02497,2.479 -8.50427,6.9698 -12.17617,9.9794 -3.6719,3.0096 -6.9851,5.4721 -7.3627,5.4721 -0.3777,0 -2.0984,1.1479 -3.8239,2.5509 -1.7254,1.403 -6.8224,5.5655 -11.3265,9.25 -4.5041,3.6845 -12.1109,9.8491 -16.9041,13.6991 -4.7931,3.85 -10.3874,8.4625 -12.4319,10.25 -2.0445,1.7875 -4.1877,3.25 -4.7627,3.25 -0.575,0 -1.2471,0.5625 -1.4936,1.25 -0.6113,1.7048 1.0644,4.75 2.6137,4.75 0.6941,0 3.0196,1.8 5.1678,4 2.1482,2.2 4.3481,4 4.8886,4 0.5405,0 3.0366,-1.7105 5.547,-3.801 4.8521,-4.0406 13.7656,-10.199 14.7616,-10.199 0.3283,0 2.6375,-1.6722 5.1316,-3.7159 2.4942,-2.0437 5.7664,-4.4062 7.2717,-5.25 2.6111,-1.4636 12.2466,-8.0479 25.53717,-17.4504 3.3757,-2.3882 6.5257,-4.509 7,-4.7129 0.9675,-0.416 12,-7.9941 20.3624,-13.9867 5.9145,-4.2384 15.3475,-10.75774 17.9189,-12.38413 0.8696,-0.55 3.3811,-2.39608 5.5811,-4.10239 2.2,-1.70632 5.35,-3.85279 7,-4.76992 1.65,-0.91714 5.025,-3.20369 7.5,-5.08122 2.475,-1.87753 4.8679,-3.44356 5.3174,-3.48008 0.4496,-0.0365 3.2645,-2.05973 6.2553,-4.49602 2.9908,-2.4363 7.798,-5.8266 10.6826,-7.534 2.8846,-1.70741 8.7579,-5.56407 13.0519,-8.57037 4.294,-3.0063 8.0565,-5.466 8.3612,-5.466 0.3047,0 2.7039,-1.8 5.3316,-4 2.6277,-2.2 5.0208,-4 5.3181,-4 0.5068,0 6.7953,-4.21733 17.5377,-11.7616 2.5543,-1.79388 6.4442,-4.44826 8.6442,-5.89862 2.2,-1.45037 10.4578,-7.18265 18.3507,-12.7384 7.8929,-5.55576 17.0591,-11.79405 20.3693,-13.86286 3.3102,-2.06882 7.3001,-4.83985 8.8665,-6.15785 1.5664,-1.318 5.2252,-3.81168 8.1307,-5.54151 2.9055,-1.72982 7.1558,-4.58379 9.4449,-6.34215 2.2892,-1.75835 6.0684,-4.32201 8.3981,-5.69701 2.3298,-1.375 6.616,-4.3 9.525,-6.5 2.9089,-2.2 7.9048,-5.6691 11.1019,-7.70911 3.1971,-2.04 10.5379,-7.08695 16.3129,-11.21542 5.775,-4.12848 13.1395,-9.20938 16.3655,-11.29089 3.2261,-2.08151 8.2822,-5.69707 11.2359,-8.03457 2.9537,-2.3375 5.6126,-4.25 5.9086,-4.25 0.6581,0 9.2748,-5.89438 14.3057,-9.78602 2.0264,-1.5675 6.1461,-4.33883 9.1549,-6.1585 3.0089,-1.81968 7.5089,-4.94088 10,-6.93602 2.4912,-1.99514 5.4294,-4.16491 6.5294,-4.8217 10.8766,-6.494231 24.9744,-15.813571 31.84,-21.047761 3.066,-2.3375 5.8664,-4.25 6.2229,-4.25 0.3566,0 1.9854,-1.125 3.6195,-2.5 1.6341,-1.375 3.5689,-2.5 4.2997,-2.5 0.7308,0 3.242,-1.59851 5.5804,-3.55224 4.2185,-3.52443 9.9128,-6.44775 12.5596,-6.44775 1.1403,0 1.3779,5.23887 1.3779,30.37953 l 0,30.379541 -4.25,3.41831 c -5.2331,4.20906 -16.4537,11.81245 -17.4887,11.85088 -0.7498,0.0278 -10.38,6.11892 -15.2613,9.65271 -1.375,0.99542 -4.525,2.82796 -7,4.0723 -4.8353,2.43102 -11.1176,6.07767 -18.1249,10.52086 -7.7457,4.91138 -27.2822,16.61551 -30.3751,18.19745 -1.65,0.84393 -5.025,2.85397 -7.5,4.46676 -2.475,1.61279 -9.3152,5.66826 -15.2004,9.01216 -5.8852,3.34389 -10.9563,6.49394 -11.2691,7.00009 -0.3128,0.50616 -2.9226,2.07342 -5.7996,3.48281 -2.877,1.40939 -7.2559,3.88435 -9.7309,5.49991 -2.475,1.61555 -9.225,5.67292 -15,9.01637 -5.775,3.34345 -13.425,7.85951 -17,10.03568 -3.575,2.17617 -7.625,4.44969 -9,5.05226 -1.375,0.60257 -3.4,1.92061 -4.5,2.92898 -1.1,1.00837 -3.6377,2.6659 -5.6394,3.68339 -4.6514,2.3644 -11.8682,6.65174 -18.8606,11.20479 -3.025,1.96969 -7.525,4.60928 -10,5.86574 -2.475,1.25647 -6.525,3.6002 -9,5.2083 -6.6007,4.2887 -35.0793,20.99895 -40.8181,23.95057 -1.475,0.75867 -3.5819,2.17147 -4.6819,3.13954 -1.1,0.96808 -6.725,4.44174 -12.5,7.71924 -5.775,3.27751 -12.75,7.36914 -15.5,9.09244 -2.75,1.7233 -6.0751,3.6041 -7.3891,4.1795 -1.3139,0.5754 -3.711,2.1585 -5.3267,3.518 -1.6157,1.3595 -3.5329,2.4719 -4.2604,2.4719 -0.7276,0 -3.7305,1.6251 -6.6733,3.6113 -2.9428,1.9863 -6.2985,3.9756 -7.4573,4.4208 -1.8079,0.6946 -7.579,4.0682 -14.9176,8.7203 -1.0866,0.6888 -3.0119,1.6992 -4.2784,2.2453 -1.2666,0.5461 -3.9666,2.3248 -6,3.9527 -3.388,2.7123 -8.9689,6.0044 -16.6972,9.8497 -1.65,0.8209 -3.6961,2.0888 -4.5469,2.8175 -0.8509,0.7287 -3.5509,2.3988 -6,3.7115 -2.4492,1.3126 -7.1531,3.8362 -10.45307,5.6079 -3.3,1.7717 -6.5235,3.8933 -7.1633,4.7147 -0.6398,0.8213 -4.6208,3.2303 -8.8466,5.3532 -4.2258,2.1229 -8.4273,4.5055 -9.3367,5.2947 -1.6308,1.4151 -5.5092,3.6175 -9.9034,5.6237 -2.5706,1.1736 -2.761,2.187 -1.0034,5.3402 1.6132,2.8943 9.9222,11.7365 11.0288,11.7365 0.9713,0 10.9768,-4.5139 14.7246,-6.6429 1.375,-0.7811 7.675,-3.8977 13.99997,-6.9259 6.325,-3.0281 12.4,-6.0293 13.5,-6.6693 6.1345,-3.5691 18.7703,-9.7619 19.9184,-9.7619 0.7352,0 1.8426,-0.6096 2.4609,-1.3546 0.6183,-0.7451 5.2859,-3.3968 10.3725,-5.8928 5.0865,-2.496 11.4982,-5.6414 14.2482,-6.9897 7.2382,-3.5488 23.1905,-11.5055 29,-14.4646 2.75,-1.4007 8.6,-4.297 13,-6.4362 4.4,-2.1391 9.35,-4.6272 11,-5.5289 1.65,-0.9017 7.05,-3.6287 12,-6.0599 4.95,-2.4313 11.025,-5.5141 13.5,-6.8508 2.475,-1.3366 7.425,-3.8405 11,-5.5642 3.575,-1.7237 7.175,-3.5248 8,-4.0025 0.825,-0.4777 2.175,-1.1164 3,-1.4192 1.9455,-0.7143 18.4686,-8.97352 23,-11.49687 3.5329,-1.96733 9.3787,-4.89102 16.5789,-8.29177 2.1566,-1.0186 5.0461,-2.47106 6.4211,-3.22769 1.375,-0.75662 3.6707,-1.85644 5.1014,-2.44403 1.4308,-0.58759 4.1308,-1.9486 6,-3.02446 3.2449,-1.86766 14.2706,-7.32773 23.8986,-11.83486 2.475,-1.15862 5.175,-2.50073 6,-2.98246 0.825,-0.48174 3.525,-1.83174 6,-3 2.475,-1.16827 5.175,-2.49968 6,-2.95869 2.6269,-1.46155 10.4105,-5.49661 13,-6.73924 8.3996,-4.03081 46.0918,-22.75723 49,-24.34443 1.925,-1.05061 10.475,-5.33954 19,-9.53097 8.525,-4.19142 17.975,-8.94982 21,-10.57421 3.025,-1.62439 6.1054,-2.96098 6.8452,-2.9702 1.1024,-0.0137 9.5428,-3.75576 18.3912,-8.15369 0.9551,-0.47468 3.1451,-0.86306 4.8667,-0.86306 2.8239,0 3.0494,0.22017 2.3052,2.25 -0.4538,1.2375 -0.9716,13.1625 -1.1507,26.5 -0.22,16.38385 -0.6734,24.25 -1.3977,24.25 -0.5896,0 -1.9361,1.0984 -2.9921,2.44089 -1.056,1.34249 -2.9207,2.75247 -4.1439,3.13329 -1.2231,0.38082 -4.4739,1.78798 -7.2239,3.12701 -2.75,1.33903 -7.7774,3.49566 -11.172,4.79251 -3.3945,1.29686 -7.2195,3.01514 -8.5,3.8184 -1.2804,0.80327 -5.253,2.68938 -8.828,4.19136 -3.575,1.50198 -10.55,4.43357 -15.5,6.51464 -4.95,2.08108 -11.025,4.54917 -13.5,5.48465 -6.4998,2.45676 -15.5991,6.30936 -22.5,9.52648 -3.3,1.53842 -11.4,4.89499 -18,7.45906 -6.6,2.56407 -15.15,6.16964 -19,8.01244 -3.85,1.8427 -9.475,4.3239 -12.5,5.5138 -3.025,1.1899 -7.1642,3.0234 -9.1981,4.0744 -2.034,1.0511 -4.284,1.9263 -5,1.945 -0.7161,0.019 -3.1019,0.9034 -5.3019,1.9661 -2.2,1.0627 -4.6975,1.9474 -5.55,1.966 -0.8525,0.019 -1.9775,0.4096 -2.5,0.8687 -0.5225,0.4591 -3.2,1.6352 -5.95,2.6136 -2.75,0.9784 -6.6779,2.8528 -8.7286,4.1653 -2.0507,1.3125 -4.4562,2.3864 -5.3457,2.3864 -0.8894,0 -2.8115,0.6265 -4.2714,1.3922 -1.4599,0.7656 -4.6793,2.1715 -7.1543,3.1241 -2.475,0.9525 -7.2,2.9781 -10.5,4.5012 -9.9191,4.5781 -13.2557,5.9825 -14.214,5.9825 -0.5014,0 -3.2437,1.125 -6.0939,2.5 -2.8503,1.375 -5.6079,2.5 -6.128,2.5 -0.5201,0 -4.824,1.8 -9.5641,4 -4.7401,2.2 -9.0434,4 -9.5628,4 -0.5195,0 -2.6237,0.9 -4.676,2 -2.0524,1.1 -4.221,2 -4.8192,2 -0.5982,0 -3.9798,1.4077 -7.5148,3.1283 -3.535,1.7206 -7.5522,3.4869 -8.9272,3.9251 -7.4471,2.3733 -18.121,6.9852 -29.1543,12.5966 -1.4599,0.7425 -3.116,1.35 -3.6802,1.35 -0.5643,0 -3.9426,1.35 -7.5075,3 -3.5648,1.65 -6.887,3 -7.3826,3 -0.4956,0 -3.2331,1.125 -6.0833,2.5 -2.8503,1.375 -5.6031,2.5 -6.1174,2.5 -0.5144,0 -3.8518,1.35 -7.4167,3 -3.5648,1.65 -7.1062,3 -7.8697,3 -0.7636,0 -1.8158,0.3872 -2.3383,0.8605 -0.8166,0.7397 -6.7034,3.4337 -18.95,8.672 -1.65,0.7058 -5.025,2.0439 -7.5,2.9735 -9.34527,3.5103 -16.99997,7.7482 -16.99997,9.4116 0,0.9127 0.8499,3.3264 1.8886,5.3638 1.0387,2.0374 2.6161,5.5226 3.5052,7.7449 0.8892,2.2223 2.3238,4.3118 3.1881,4.6435 1.4378,0.5517 7.45317,-0.982 16.41807,-4.1862 1.925,-0.6881 7.55,-2.4739 12.5,-3.9686 4.95,-1.4946 10.575,-3.3014 12.5,-4.015 1.925,-0.7136 7.55,-2.5138 12.5,-4.0004 4.95,-1.4866 11.7,-3.5866 15,-4.6666 3.3,-1.0799 9.6,-3.1134 14,-4.5187 4.4,-1.4053 9.575,-3.1177 11.5,-3.8054 7.9425,-2.8372 13.598,-4.5185 15.1841,-4.5139 0.9262,0 4.3012,-1.069 7.5,-2.3817 3.1987,-1.3127 10.5409,-3.8535 16.3159,-5.6462 5.775,-1.7927 13.2,-4.2779 16.5,-5.5228 3.3,-1.2448 8.7,-3.0054 12,-3.9124 3.3,-0.9071 6.6898,-2.0156 7.5328,-2.4634 0.8431,-0.4478 3.0931,-1.1383 5,-1.5344 1.907,-0.3961 7.2922,-2.0592 11.9672,-3.6958 16.4863,-5.7713 32.6588,-10.8383 34.5927,-10.8383 0.7496,0 3.7355,-1.0955 6.6351,-2.4345 2.8997,-1.339 10.6722,-4.0902 17.2722,-6.1139 20.2867,-6.2202 21.844,-6.7115 27,-8.5178 2.75,-0.9635 12.425,-4.0967 21.5,-6.9627 9.075,-2.8661 21,-6.6667 26.5,-8.4459 5.5,-1.7792 13.15,-4.2278 17,-5.4415 6.9244,-2.1827 10.3647,-3.4852 13.7364,-5.2004 0.9551,-0.4858 3.0773,-0.8833 4.7161,-0.8833 1.6388,0 4.4574,-0.6423 6.2636,-1.4273 3.6436,-1.5836 18.6062,-6.1548 23.2839,-7.1135 1.65,-0.3381 3.9821,-1.0896 5.1825,-1.6699 1.2004,-0.5803 2.8879,-0.7844 3.75,-0.4536 1.3559,0.5203 1.5675,3.497 1.5675,22.0511 0,11.7973 -0.2731,22.1614 -0.607,23.0314 -0.3338,0.87 -1.4323,1.5818 -2.441,1.5818 -1.0087,0 -2.1121,0.45 -2.452,1 -0.3399,0.55 -1.6265,1 -2.859,1 -1.2326,0 -2.6685,0.3717 -3.191,0.8261 -0.5225,0.4544 -2.75,1.3329 -4.95,1.9524 -2.2,0.6194 -6.475,1.8315 -9.5,2.6936 -3.025,0.8621 -7.525,1.9936 -10,2.5146 -2.475,0.5209 -7.4253,1.5611 -11.0006,2.3116 -3.5753,0.7504 -7.5364,1.9187 -8.8023,2.5962 -1.2659,0.6775 -5.3157,1.9202 -8.9994,2.7615 -3.6837,0.8413 -9.3977,2.1993 -12.6977,3.0178 -3.3,0.8185 -8.7,2.1151 -12,2.8813 -5.8755,1.3642 -14.3938,3.4371 -21.6321,5.2642 -1.9976,0.5043 -4.2311,1.2871 -4.9634,1.7397 -0.7322,0.4526 -3.1478,1.1686 -5.3679,1.5912 -2.2201,0.4225 -6.9616,1.5026 -10.5366,2.4 -3.575,0.8975 -8.75,2.0818 -11.5,2.6319 -5.7767,1.1556 -12.1168,2.8228 -22,5.785 -3.85,1.154 -9.025,2.5202 -11.5,3.036 -2.475,0.5159 -7.2,1.6115 -10.5,2.4348 -3.3,0.8233 -8.25,1.9912 -11,2.5952 -2.75,0.6041 -7.7822,1.9767 -11.1826,3.0502 -3.4004,1.0735 -8.1254,2.3791 -10.5,2.9012 -16.4522,3.6176 -35.1479,8.2674 -44.8174,11.1465 -5.1512,1.5338 -14.7935,3.9096 -20.5,5.0511 -2.75,0.5502 -7.25,1.6126 -10,2.3611 -2.75,0.7484 -7.475,1.997 -10.5,2.7745 -3.025,0.7776 -8.425,2.1912 -12,3.1415 -8.7401,2.3231 -16.4614,4.2431 -22.5,5.595 -7.3783,1.6518 -15.0222,3.7358 -23.8192,6.4941 -4.3005,1.3484 -8.5436,2.4517 -9.429,2.4517 -0.8854,0 -3.2168,0.5075 -5.1808,1.1279 -7.9896,2.5235 -8.0719,2.5909 -8.0564,6.6006 0.028,7.1813 4.7582,17.1516 7.369,15.5316 0.614,-0.3809 5.1664,-1.2831 10.1164,-2.0048 4.95,-0.7217 13.275,-1.9917 18.5,-2.8222 5.225,-0.8304 13.775,-2.1537 19,-2.9406 5.225,-0.7868 11.975,-1.9085 15,-2.4925 5.1857,-1.0012 12.3633,-2.1325 33.5,-5.2799 4.95,-0.7371 9.675,-1.6375 10.5,-2.001 0.825,-0.3635 5.1,-1.1157 9.5,-1.6717 8.7538,-1.106 22.878,-3.384 31.5,-5.0804 3.025,-0.5952 9.1,-1.5388 13.5,-2.0969 4.4,-0.5582 9.575,-1.444 11.5,-1.9686 1.925,-0.5245 6.875,-1.3846 11,-1.9112 4.125,-0.5266 11.775,-1.665 17,-2.5298 5.225,-0.8648 14,-2.1916 19.5,-2.9485 10.9337,-1.5046 14.2153,-2.108 19.5,-3.5856 1.925,-0.5382 6.875,-1.398 11,-1.9106 4.125,-0.5125 11.775,-1.6374 17,-2.4997 5.225,-0.8624 13.775,-2.2473 19,-3.0776 5.225,-0.8304 11.75,-1.9336 14.5,-2.4517 2.75,-0.518 8.6,-1.4311 13,-2.029 4.4,-0.5979 9.575,-1.5198 11.5,-2.0486 3.472,-0.9537 9.2433,-1.7594 28.5,-3.9786 5.5,-0.6338 10.675,-1.3746 11.5,-1.6463 0.825,-0.2716 4.3125,-0.6072 7.75,-0.7459 l 6.25,-0.252 0,14.8568 c 0,12.5394 -0.234,14.8568 -1.5,14.8568 -1.1111,0 -1.5,1.1666 -1.5,4.5 0,3.8333 -0.2963,4.5 -2,4.5 -1.1,0 -2,0.45 -2,1 0,0.5517 -2.6,1 -5.8,1 -3.19,0 -6.2275,0.4085 -6.75,0.9078 -1.0893,1.0409 -6.6076,1.7169 -24.95,3.0564 -7.15,0.5221 -14.35,1.2241 -16,1.56 -5.5351,1.1267 -17.8928,2.4934 -31.5,3.4837 -7.425,0.5404 -14.85,1.4076 -16.5,1.927 -1.65,0.5195 -8.85,1.2155 -16,1.5466 -7.15,0.3311 -14.575,1.0354 -16.5,1.5652 -3.0863,0.8494 -13.0535,1.8593 -35,3.5462 -3.575,0.2748 -7.175,0.7925 -8,1.1504 -0.825,0.3579 -8.25,1.2193 -16.5,1.9143 -18.032,1.519 -42.6641,4.0199 -47.5,4.8227 -1.925,0.3195 -8.9,1.0168 -15.5,1.5495 -16.7912,1.3551 -40.6052,3.7486 -49.5,4.9751 -4.125,0.5688 -13.575,1.4732 -21,2.0099 -7.425,0.5366 -14.85,1.4034 -16.5,1.9263 -1.65,0.5229 -8.9599,1.2634 -16.2443,1.6455 -8.7003,0.4564 -13.6044,1.1286 -14.2938,1.9593 -0.5971,0.7195 -0.9228,4.6457 -0.7557,9.1093 l 0.2938,7.8448 33,-0.3746 c 18.15,-0.206 33.45,-0.7198 34,-1.1417 0.55,-0.422 19.7954,-1.0967 42.7675,-1.4993 22.9721,-0.4027 41.9775,-1.0718 42.2341,-1.487 0.2566,-0.4152 21.1809,-1.089 46.4984,-1.4974 25.3175,-0.4084 46.2762,-1.138 46.5749,-1.6213 0.2987,-0.4833 10.3266,-0.8787 22.2841,-0.8787 11.9576,0 22.1685,-0.3992 22.691,-0.8871 0.5225,-0.4879 14.675,-1.022 31.45,-1.1868 41.2848,-0.4058 55,-0.138 55,1.0739 0,0.55 -0.675,1 -1.5,1 -1.2775,0 -1.5,2.6582 -1.5,17.9244 l 0,17.9244 -14.25,0.3386 c -7.8375,0.1862 -14.7,0.039 -15.25,-0.3279 -0.55,-0.3666 -30.025,-0.9894 -65.5,-1.384 -35.475,-0.3946 -64.95,-1.0675 -65.5,-1.4955 -0.55,-0.4279 -30.25,-1.1016 -66,-1.497 -35.75,-0.3954 -65.45,-1.0622 -66,-1.4817 -0.55,-0.4195 -19.5764,-0.9676 -42.2809,-1.218 l -41.2809,-0.4554 -1.4498,3.0861 c -0.7975,1.6973 -1.5711,5.7684 -1.7192,9.0468 l -0.2692,5.9609 4,0.7315 c 2.2,0.4023 7.2074,0.7574 11.1276,0.7891 5.0602,0.041 7.4886,0.4927 8.3724,1.5577 0.8684,1.0464 3.1735,1.5 7.6224,1.5 3.5077,0 6.3776,0.3854 6.3776,0.8566 0,0.4711 7.533,1.1818 16.74,1.5792 9.2069,0.3975 16.9694,1.0863 17.25,1.5307 0.2805,0.4444 8.0549,1.1387 17.2764,1.5429 9.2216,0.4041 16.9786,1.078 17.238,1.4976 0.2593,0.4196 8.1269,1.0912 17.4835,1.4925 9.3567,0.4012 17.0121,1.0765 17.0121,1.5005 0,0.424 7.65,1.099 17,1.5 9.35,0.401 17,1.1275 17,1.6145 0,0.487 3.825,0.8855 8.5,0.8855 4.675,0 8.5,0.3851 8.5,0.8559 0,0.4708 7.082,1.1798 15.7378,1.5757 8.6558,0.3959 15.9683,1.0721 16.25,1.5026 0.2817,0.4306 8.1577,1.1072 17.5022,1.5036 9.3444,0.3964 17.2231,1.098 17.5081,1.5591 0.285,0.4611 8.502,1.1647 18.26,1.5635 9.7581,0.3988 17.7419,1.1109 17.7419,1.5823 0,0.4715 3.15,0.8573 7,0.8573 3.85,0 7,0.3982 7,0.8849 0,0.4867 8.1,1.2135 18,1.6151 9.9,0.4016 18,1.1284 18,1.6151 0,0.4867 2.4122,0.8849 5.3604,0.8849 2.9483,0 7.4483,0.2861 10,0.6359 l 4.6396,0.6359 0,18.9703 0,18.9702 -9.25,-0.7255 c -5.0875,-0.399 -9.475,-1.064 -9.75,-1.4777 -0.275,-0.4137 -4.8875,-1.077 -10.25,-1.474 -5.3625,-0.397 -9.75,-1.0806 -9.75,-1.5192 0,-0.4385 -4.95,-1.1207 -11,-1.5159 -6.05,-0.3952 -11,-1.1194 -11,-1.6093 0,-0.4899 -2.025,-0.8907 -4.5,-0.8907 -2.475,0 -4.5,-0.3963 -4.5,-0.8806 0,-0.4843 -4.725,-1.2026 -10.5,-1.5962 -5.775,-0.3936 -10.5,-1.0686 -10.5,-1.5 0,-0.4314 -4.725,-1.1064 -10.5,-1.5 -5.775,-0.3936 -10.5,-1.0686 -10.5,-1.5 0,-0.4314 -4.725,-1.1064 -10.5,-1.5 -5.775,-0.3936 -10.5,-1.1224 -10.5,-1.6195 0,-0.497 -2.025,-0.9037 -4.5,-0.9037 -2.475,0 -4.5,-0.3837 -4.5,-0.8527 0,-0.469 -4.8237,-1.1646 -10.7192,-1.5458 -5.8956,-0.3811 -10.9581,-1.0646 -11.25,-1.5188 -0.292,-0.4541 -4.9183,-1.1506 -10.2808,-1.5476 -5.3625,-0.397 -9.75,-1.0806 -9.75,-1.5192 0,-0.4385 -4.95,-1.1207 -11,-1.5159 -6.05,-0.3952 -11,-1.0834 -11,-1.5292 0,-0.4458 -4.5,-1.1296 -10,-1.5195 -5.5,-0.3899 -10,-1.101 -10,-1.5801 0,-0.4792 -2.25,-0.8712 -5,-0.8712 -2.75,0 -5,-0.4008 -5,-0.8907 0,-0.4899 -4.95,-1.2141 -11,-1.6093 -6.05,-0.3952 -11,-1.0578 -11,-1.4723 0,-0.4145 -4.3826,-1.0754 -9.7391,-1.4686 -5.3565,-0.3932 -9.9829,-1.1093 -10.2808,-1.5913 -0.2979,-0.482 -5.3653,-1.1882 -11.2609,-1.5694 -5.8955,-0.3811 -10.7192,-1.0429 -10.7192,-1.4706 0,-0.4277 -4.05,-1.0945 -9,-1.4817 -4.95,-0.3873 -9,-1.0961 -9,-1.5751 0,-0.4791 -2.475,-0.871 -5.5,-0.871 -3.025,0 -5.5,-0.4067 -5.5,-0.9038 0,-0.4971 -4.8375,-1.2295 -10.75,-1.6276 -5.9125,-0.3981 -10.9903,-1.0982 -11.2841,-1.5559 -0.2937,-0.4576 -6.0554,-1.1441 -12.8036,-1.5255 -11.99837,-0.678 -12.28187,-0.6458 -12.83247,1.4597 -0.3097,1.1842 -0.9105,2.1531 -1.3351,2.1531 -0.4247,0 -1.0676,1.575 -1.4287,3.5 -0.3612,1.925 -1.0505,3.5 -1.5319,3.5 -1.2172,0 -2.3146,5.541 -1.565,7.9026 0.4946,1.5584 1.908,2.0857 7.0745,2.6389 3.551,0.3803 6.4564,1.089 6.4564,1.575 0,0.4859 1.34997,0.8835 2.99997,0.8835 1.65,0 3,0.3918 3,0.8708 0,0.4789 3.15,1.1811 7,1.5605 3.85,0.3794 7,1.0853 7,1.5687 0,0.4834 3.15,1.1893 7,1.5686 3.85,0.3794 7,1.0375 7,1.4624 0,0.4249 2.7008,1.0861 6.0018,1.4692 3.301,0.3831 6.2307,1.067 6.5105,1.5197 0.2798,0.4527 3.4353,1.1365 7.0121,1.5196 3.5769,0.383 6.7487,1.0934 7.0485,1.5785 0.2998,0.4851 1.8686,0.882 3.4861,0.882 1.6176,0 2.941,0.4227 2.941,0.9394 0,0.5167 3.15,1.2499 7,1.6292 3.85,0.3794 7,1.0375 7,1.4624 0,0.4249 2.7,1.086 6,1.469 3.3,0.383 6,1.0497 6,1.4817 0,0.4319 2.925,1.0985 6.5,1.4814 3.575,0.3828 6.5,1.1102 6.5,1.6165 0,0.5062 1.8,0.9204 4,0.9204 2.2,0 4,0.4058 4,0.9018 0,0.496 2.7,1.2152 6,1.5982 3.3,0.383 6,1.044 6,1.469 0,0.4249 3.15,1.0829 7,1.4623 3.85,0.3794 7,1.0767 7,1.5496 0,0.473 2.925,1.1731 6.5,1.556 3.575,0.3828 6.5,1.0553 6.5,1.4943 0,0.439 3.375,1.1144 7.5,1.5009 4.125,0.3866 7.5,1.1 7.5,1.5854 0,0.4853 1.35,0.8825 3,0.8825 1.65,0 3,0.3976 3,0.8835 0,0.4859 2.925,1.1967 6.5,1.5796 3.575,0.3828 6.5,1.083 6.5,1.5559 0,0.4729 3.15,1.1703 7,1.5496 3.85,0.3794 7,1.0375 7,1.4624 0,0.4249 2.7008,1.0861 6.0018,1.4692 3.301,0.3831 6.2525,1.1023 6.559,1.5982 0.3065,0.4959 2.1057,0.9016 3.9982,0.9016 1.8926,0 3.441,0.3976 3.441,0.8835 0,0.4859 2.925,1.1967 6.5,1.5796 3.575,0.3828 6.5,1.0661 6.5,1.5183 0,0.4522 2.7,1.1356 6,1.5186 3.3,0.383 6,1.0553 6,1.4941 0,0.4387 3.6,1.1164 8,1.5059 4.4,0.3895 8,1.0671 8,1.5059 0,0.4387 2.7,1.1111 6,1.4941 3.3,0.383 6,1.1022 6,1.5982 0,0.496 1.575,0.9018 3.5,0.9018 1.925,0 3.5,0.4058 3.5,0.9018 0,0.496 2.7,1.2152 6,1.5982 3.3,0.383 6,1.044 6,1.469 0,0.4249 3.15,1.0829 7,1.4623 3.85,0.3794 7,1.0544 7,1.5 0,0.4456 3.15,1.1206 7,1.5 3.85,0.3794 7,1.0853 7,1.5687 0,0.4834 3.15,1.1893 7,1.5686 3.85,0.3794 7,1.0817 7,1.5606 0,0.4789 1.35,0.8708 3,0.8708 1.65,0 3,0.3976 3,0.8835 0,0.4859 2.925,1.1967 6.5,1.5796 3.575,0.3828 6.5,1.0744 6.5,1.5369 0,0.4624 3.0375,1.1614 6.75,1.5532 3.7125,0.3918 7.0806,1.2152 7.4847,1.8296 0.4041,0.6144 0.7416,2.5797 0.75,4.3672 l 0.015,3.25 -56,0 c -32.8006,0 -56,-0.3754 -56,-0.9062 0,-0.4984 -2.25,-1.2156 -5,-1.5938 -2.75,-0.3782 -5,-1.08 -5,-1.5594 0,-0.4795 -2.2601,-1.1716 -5.0224,-1.538 -2.7624,-0.3664 -5.2639,-1.0569 -5.5591,-1.5344 -0.2951,-0.4775 -1.41,-0.8682 -2.4775,-0.8682 -1.0676,0 -1.941,-0.4176 -1.941,-0.9281 0,-0.5104 -2.475,-1.2372 -5.5,-1.6152 -3.025,-0.3779 -5.5,-1.0529 -5.5,-1.5 0,-0.447 -2.475,-1.122 -5.5,-1.5 -3.025,-0.3779 -5.5,-1.0431 -5.5,-1.4781 0,-0.435 -2.25,-1.1004 -5,-1.4786 -2.75,-0.3782 -5,-1.0955 -5,-1.5939 0,-0.4984 -0.9,-0.9061 -2,-0.9061 -1.1,0 -2,-0.3873 -2,-0.8607 0,-0.4734 -2.3286,-1.1365 -5.1746,-1.4736 -2.8461,-0.3371 -5.4421,-1.0455 -5.7688,-1.5742 -0.3268,-0.5287 -2.9482,-1.2736 -5.8254,-1.6552 -2.8771,-0.3817 -5.2312,-1.0536 -5.2312,-1.4932 0,-0.4396 -2.475,-1.1084 -5.5,-1.4864 -3.025,-0.3779 -5.5,-1.0529 -5.5,-1.5 0,-0.447 -2.475,-1.122 -5.5,-1.5 -3.025,-0.3779 -5.5,-1.0853 -5.5,-1.5719 0,-0.4867 -1.0875,-0.8848 -2.4167,-0.8848 -1.3291,0 -2.5666,-0.4438 -2.75,-0.9863 -0.1833,-0.5424 -2.5833,-1.2866 -5.3333,-1.6538 -2.75,-0.3671 -5.2589,-1.0602 -5.5754,-1.5401 -0.3164,-0.48 -2.9039,-1.1485 -5.75,-1.4855 -2.846,-0.3371 -5.1746,-0.9727 -5.1746,-1.4123 0,-0.4397 -2.025,-1.1031 -4.5,-1.4743 -2.475,-0.3711 -4.5,-1.0737 -4.5,-1.5613 0,-0.4875 -1.35,-0.8864 -3,-0.8864 -1.65,0 -3,-0.3989 -3,-0.8865 0,-0.4875 -2.0145,-1.1885 -4.4767,-1.5578 -2.4622,-0.3692 -4.7307,-1.0822 -5.0411,-1.5845 -0.3104,-0.5023 -2.7959,-1.2093 -5.5233,-1.5711 -2.7274,-0.3618 -4.9589,-1.0174 -4.9589,-1.457 0,-0.4396 -2.475,-1.1084 -5.5,-1.4864 -3.025,-0.3779 -5.5,-1.0431 -5.5,-1.4781 0,-0.435 -2.25,-1.1004 -5,-1.4786 -2.75,-0.3782 -5,-1.0955 -5,-1.5939 0,-0.4984 -1.35,-0.9061 -3,-0.9061 -1.65,0 -3,-0.3989 -3,-0.8865 0,-0.4875 -2.025,-1.1901 -4.5,-1.5613 -2.475,-0.3711 -4.5,-1.0345 -4.5,-1.4742 0,-0.4397 -2.3286,-1.0752 -5.1746,-1.4123 -2.8461,-0.3371 -5.4336,-1.0203 -5.75,-1.5183 -0.3165,-0.4979 -2.9379,-1.2271 -5.8254,-1.6202 -2.8875,-0.3932 -5.25,-1.0708 -5.25,-1.5058 0,-0.4351 -2.475,-1.1002 -5.5,-1.4782 -3.025,-0.3779 -5.5,-1.1048 -5.5,-1.6152 0,-0.5104 -1.0875,-0.928 -2.4167,-0.928 -1.3291,0 -2.5666,-0.4438 -2.75,-0.9863 -0.1833,-0.5424 -2.5833,-1.2866 -5.3333,-1.6538 -2.75,-0.3671 -5.2589,-1.0602 -5.5754,-1.5401 -0.3164,-0.48 -2.9039,-1.1485 -5.74997,-1.4855 -2.846,-0.3371 -5.1746,-0.9847 -5.1746,-1.4392 0,-0.4544 -2.2601,-1.1261 -5.0224,-1.4925 -2.7624,-0.3664 -5.2639,-1.0569 -5.5591,-1.5344 -0.2951,-0.4775 -1.41,-0.8682 -2.4775,-0.8682 -1.0676,0 -1.941,-0.45 -1.941,-1 0,-0.55 -1.3197,-1 -2.9326,-1 -2.0544,0 -3.1227,0.5989 -3.5674,2 -0.3491,1.1 -1.0545,2 -1.5674,2 -0.5129,0 -0.9326,0.4901 -0.9326,1.0892 0,0.599 -2.025,3.0572 -4.5,5.4627 -2.475,2.4054 -4.5,5.0171 -4.5,5.8038 0,0.7867 -0.675,1.6893 -1.5,2.0059 -0.8646,0.3318 -1.5,1.8261 -1.5,3.5275 0,2.4669 0.493,3.0602 3,3.6109 1.65,0.3624 3,1.0731 3,1.5794 0,0.5063 0.7875,0.9233 1.75,0.9267 0.9625,0 3.0389,0.6784 4.6143,1.5 1.5754,0.8216 3.4879,1.4939 4.25,1.4939 0.7621,0 1.3857,0.4447 1.3857,0.9882 0,0.5435 1.8,1.276 4,1.6278 2.2,0.3518 4,0.9963 4,1.4323 0,0.436 1.35,1.0893 3,1.4517 1.65,0.3624 3,1.0309 3,1.4856 0,0.4547 2.25,1.1362 5,1.5144 2.75,0.3782 5,1.0954 5,1.5938 0,0.4984 0.67497,0.9062 1.49997,0.9062 0.825,0 1.5,0.4447 1.5,0.9882 0,0.5435 1.8,1.276 4,1.6278 2.2,0.3518 4,1.0117 4,1.4665 0,0.4548 1.575,1.1223 3.5,1.4835 1.925,0.3611 3.5,1.0064 3.5,1.434 0,0.4276 1.575,1.0729 3.5,1.434 1.925,0.3611 3.5,1.0361 3.5,1.5 0,0.4639 1.575,1.1389 3.5,1.5 1.925,0.3611 3.5,1.0862 3.5,1.6113 0,0.5251 1.125,0.9547 2.5,0.9547 1.375,0 2.5,0.4447 2.5,0.9882 0,0.5435 1.8,1.276 4,1.6278 2.2,0.3518 4,1.0268 4,1.5 0,0.4732 1.8,1.1482 4,1.5 2.2,0.3518 4,1.0268 4,1.5 0,0.4732 1.8,1.1482 4,1.5 2.2,0.3518 4,1.0117 4,1.4665 0,0.4548 1.575,1.1223 3.5,1.4835 1.925,0.3611 3.5,1.0565 3.5,1.5453 0,0.4888 0.675,0.8887 1.5,0.8887 0.825,0 1.5,0.4104 1.5,0.9121 0,0.5016 1.8,1.2162 4,1.5879 2.2,0.3717 4,1.0809 4,1.5761 0,0.4951 1.8,1.1881 4,1.5399 2.2,0.3518 4,1.0268 4,1.5 0,0.4732 1.8,1.1482 4,1.5 2.2,0.3518 4,1.0321 4,1.5118 0,0.4797 0.675,0.8722 1.5,0.8722 0.825,0 1.5,0.3925 1.5,0.8722 0,0.4797 1.9125,1.2672 4.25,1.75 2.893,0.5975 -5.3073,0.9624 -25.6816,1.1429 -17.8183,0.1579 -30.1657,-0.1136 -30.51,-0.6707 -0.3182,-0.5147 -1.8114,-1.2453 -3.3184,-1.6235 -1.507,-0.3783 -2.74,-1.089 -2.74,-1.5793 0,-0.4904 -0.4469,-0.8916 -0.9931,-0.8916 -1.6142,0 -9.0069,-3.4116 -9.0069,-4.1565 0,-0.3765 -1.35,-0.9811 -3,-1.3435 -1.65,-0.3624 -3,-1.0374 -3,-1.5 0,-0.4626 -1.35,-1.1376 -3,-1.5 -1.65,-0.3624 -3,-1.0157 -3,-1.4517 0,-0.436 -1.8,-1.0805 -4,-1.4323 -2.2,-0.3518 -4,-1.0843 -4,-1.6278 0,-0.5435 -0.675,-0.9882 -1.5,-0.9882 -0.825,0 -1.5,-0.4143 -1.5,-0.9206 0,-0.5063 -1.35,-1.217 -3,-1.5794 -1.65,-0.3624 -3,-1.0528 -3,-1.5342 0,-0.4813 -1.57497,-1.1707 -3.49997,-1.5318 -1.925,-0.3611 -3.5,-1.0208 -3.5,-1.4659 0,-0.4451 -1.35,-1.1057 -3,-1.4681 -1.65,-0.3624 -3,-1.0374 -3,-1.5 0,-0.4626 -1.35,-1.1376 -3,-1.5 -1.65,-0.3624 -3,-1.0732 -3,-1.5795 0,-0.5063 -0.675,-0.9205 -1.5,-0.9205 -0.825,0 -1.5,-0.4143 -1.5,-0.9206 0,-0.5063 -1.35,-1.217 -3,-1.5794 -1.65,-0.3624 -3,-1.0231 -3,-1.4682 0,-0.4451 -1.575,-1.1047 -3.5,-1.4658 -1.925,-0.3612 -3.5,-1.0863 -3.5,-1.6113 0,-0.5251 -0.7195,-0.9547 -1.5989,-0.9547 -1.7198,0 -8.5775,-2.9639 -9.4011,-4.0631 -0.275,-0.3671 -1.625,-1.0137 -3,-1.4369 -1.375,-0.4233 -2.7615,-1.1749 -3.081,-1.6702 -0.3195,-0.4954 -2.2593,-1.1731 -4.3107,-1.5059 -3.4171,-0.5546 -4.0534,-0.2582 -7.5909,3.5354 -2.1236,2.2774 -4.3142,4.1407 -4.8679,4.1407 -2.0632,0 -4.1496,3.2495 -4.1496,6.463 0,2.7075 0.4613,3.4359 2.5,3.9476 1.375,0.3451 2.5,1.0689 2.5,1.6084 0,0.5395 0.675,0.981 1.5,0.981 0.825,0 1.5,0.4142 1.5,0.9205 0,0.5063 1.35,1.2171 3,1.5795 1.65,0.3624 3,1.0646 3,1.5604 0,0.4958 1.125,1.1838 2.5,1.5289 1.375,0.3451 2.5,1.0287 2.5,1.5191 0,0.4904 0.6891,0.8916 1.5314,0.8916 0.8422,0 1.7799,0.6475 2.0836,1.4389 0.3037,0.7914 1.864,1.727 3.4674,2.0792 1.6034,0.3521 3.4783,1.4401 4.1665,2.4176 0.6881,0.9775 2.3552,2.1263 3.7046,2.5527 1.3493,0.4265 3.069,1.3911 3.8214,2.1435 0.7524,0.7524 2.0109,1.3681 2.7966,1.3681 0.7857,0 1.4286,0.4012 1.4286,0.8916 0,0.4903 1.2108,1.1955 2.6908,1.5669 1.4799,0.3714 3.3924,1.446 4.25,2.3879 0.8575,0.9419 2.6842,2.2314 4.0592,2.8654 1.9989,0.9217 -1.1855,1.1664 -15.8853,1.2205 -18.2856,0.067 -18.3978,0.054 -20.6649,-2.3919 -1.2537,-1.3527 -3.3563,-2.7298 -4.6725,-3.0602 -1.3162,-0.3303 -3.2176,-1.6985 -4.2253,-3.0404 -1.0077,-1.3419 -2.6211,-2.4398 -3.5852,-2.4398 -0.9641,0 -2.0119,-0.675 -2.3285,-1.5 -0.3166,-0.825 -1.2648,-1.5 -2.107,-1.5 -0.8423,0 -1.5314,-0.4197 -1.5314,-0.9326 0,-0.513 -1.0125,-1.2523 -2.25,-1.6431 -1.2375,-0.3907 -2.9778,-1.546 -3.8673,-2.5674 -0.8892,-1.0213 -2.0267,-1.8569 -2.5275,-1.8569 -0.5007,0 -1.7259,-0.9523 -2.7225,-2.1163 -1.4204,-1.6591 -2.5508,-1.9964 -5.23235,-1.5612 -1.8813,0.3053 -4.123,1.2576 -4.9817,2.1163 -0.8586,0.8586 -2.204,1.5612 -2.9898,1.5612 -0.7857,0 -1.4285,0.45 -1.4285,1 0,0.55 -0.675,1 -1.5,1 -0.8251,0 -1.5001,0.45 -1.5001,1 0,0.55 -0.675,1 -1.5,1 -1.5398,0 -1.9702,2.6111 -0.893,5.4182 0.3338,0.87 1.1992,1.5818 1.9231,1.5818 0.7238,0 2.6661,1.35 4.3161,3 1.65,1.65 3.2785,3 3.6188,3 0.3403,0 1.5847,0.9 2.7654,2 l 2.1468,2 -10.7655,0 c -10.7107,0 -10.7814,-0.016 -13.8724,-3.1069 -2.9106,-2.9106 -3.4795,-3.08 -9.0026,-2.6805 -3.2426,0.2346 -6.1974,0.897 -6.5661,1.4722 -0.3688,0.5751 -1.6831,1.3616 -2.9206,1.7478 -1.2375,0.3862 -2.25,1.1218 -2.25,1.6348 0,0.5726 -57.1293,0.9326 -148,0.9326 -86.0032,0 -147.99998,-0.3735 -147.99998,-0.8916 0,-0.4904 -1.23299,-1.2011 -2.73998,-1.5793 -1.50699,-0.3782 -3.02634,-1.151 -3.37632,-1.7173 -0.81418,-1.3174 -8.97941,-2.2556 -12.32419,-1.4161 -1.40773,0.3533 -2.55951,1.3088 -2.55951,2.1233 0,0.8145 -0.675,1.481 -1.5,1.481 -0.825,0 -1.5,0.45 -1.5,1 0,0.6111 -4.37441,0.9753 -11.25005,0.9366 -7.0093,-0.04 -10.4961,-0.3783 -9.25,-0.8989 1.1,-0.4595 2.6619,-1.7809 3.4708,-2.9366 0.8089,-1.1556 1.9464,-2.1011 2.5278,-2.1011 0.5813,0 1.8003,-0.7875 2.7088,-1.75 0.9086,-0.9625 2.3586,-2.3303 3.22228,-3.0395 2.03315,-1.6694 2.08461,-6.2105 0.0704,-6.2105 -0.82498,0 -1.49998,-0.45 -1.49998,-1 0,-0.55 -0.675,-1 -1.5,-1 -0.825,0 -1.5,-0.4012 -1.5,-0.8916 0,-0.4904 -1.125,-1.174 -2.5,-1.5191 -1.375,-0.3451 -2.5,-1.0689 -2.5,-1.6084 0,-0.5395 -1.125,-0.9809 -2.5,-0.9809 -1.375,0 -2.5,0.4012 -2.5,0.8916 0,0.4903 -1.125,1.1739 -2.5,1.519 -1.375,0.3451 -2.5,1.0689 -2.5,1.6084 0,0.5395 -0.5109,0.981 -1.1354,0.981 -0.6244,0 -2.1291,1.0724 -3.3438,2.383 -1.2147,1.3107 -3.1788,2.691 -4.3647,3.0674 -1.1859,0.3764 -2.1561,1.104 -2.1561,1.617 0,0.5129 -0.6083,0.9326 -1.3517,0.9326 -0.7434,0 -2.7334,1.2375 -4.4221,2.75 -4.8034,4.302 -5.731,4.958 -8.053,5.695 -1.1953,0.3794 -2.1732,1.1094 -2.1732,1.6224 0,0.5428 -7.0005,0.8996 -16.75,0.8536 -12.4493,-0.059 -16.0439,-0.3368 -14,-1.0833 1.5125,-0.5524 2.75,-1.4169 2.75,-1.9211 0,-0.5041 0.675,-0.9166 1.5,-0.9166 0.825,0 1.5,-0.45 1.5,-1 0,-0.55 0.6199,-1 1.3775,-1 0.7577,0 1.9138,-0.6461 2.5691,-1.4357 0.6554,-0.7897 2.4729,-1.7172 4.0389,-2.0612 1.5661,-0.3439 3.0959,-1.2728 3.3996,-2.0642 0.3036,-0.7914 1.1419,-1.4389 1.8627,-1.4389 0.7209,0 1.9474,-0.8835 2.7257,-1.9632 0.7782,-1.0798 2.6775,-2.2406 4.2207,-2.5795 1.5432,-0.3389 2.8058,-1.0219 2.8058,-1.5177 0,-0.4958 1.0924,-1.1757 2.4276,-1.5108 1.3352,-0.3351 2.6711,-1.2437 2.9686,-2.0191 0.2976,-0.7753 1.4551,-1.4097 2.5724,-1.4097 1.1173,0 2.0314,-0.45 2.0314,-1 0,-0.55 0.6891,-1 1.5314,-1 0.8422,0 1.7904,-0.675 2.1069,-1.5 0.3166,-0.825 1.2025,-1.5 1.9687,-1.5 0.7661,0 1.393,-0.45 1.393,-1 0,-0.55 0.675,-1 1.5,-1 1.5398,0 1.9702,-2.6112 0.893,-5.4182 -0.3339,-0.87 -1.2383,-1.5818 -2.0098,-1.5818 -0.7715,0 -2.1734,-0.9 -3.1153,-2 -0.9418,-1.1 -2.0999,-2 -2.5735,-2 -0.4737,0 -2.3907,-1.575 -4.2601,-3.5 -2.4044,-2.4759 -4.282,-3.5 -6.4167,-3.5 -1.6597,0 -3.0176,0.45 -3.0176,1 0,0.55 -0.4469,1 -0.9932,1 -1.6141,0 -9.0068,3.4115 -9.0068,4.1564 0,0.3766 -1.35,0.9812 -3,1.3436 -1.65,0.3624 -3,1.0374 -3,1.5 0,0.4626 -1.35,1.1376 -3,1.5 -1.65,0.3624 -3,1.0678 -3,1.5676 0,0.4998 -1.8,1.1966 -4,1.5484 -2.2,0.3518 -4,1.0321 -4,1.5118 0,0.4797 -0.675,0.8722 -1.5,0.8722 -0.825,0 -1.5,0.4142 -1.5,0.9205 0,0.5063 -1.35,1.2171 -3,1.5795 -1.65,0.3624 -3,1.0527 -3,1.5341 0,0.4814 -1.575,1.1707 -3.5,1.5319 -1.925,0.3611 -3.5,1.0207 -3.5,1.4658 0,0.4451 -1.35,1.1058 -3,1.4682 -1.65,0.3624 -3,1.0374 -3,1.5 0,0.4626 -1.35,1.1376 -3,1.5 -1.65,0.3624 -3,1.0731 -3,1.5794 0,0.5063 -0.675,0.9206 -1.5,0.9206 -0.825,0 -1.5,0.4142 -1.5,0.9205 0,0.5063 -1.35,1.2171 -3,1.5795 -1.65,0.3624 -3,1.0527 -3,1.5341 0,0.4814 -1.575,1.1707 -3.5,1.5319 -1.925,0.3611 -3.5,1.0207 -3.5,1.4658 0,0.4451 -1.35,1.1058 -3,1.4682 -1.65,0.3624 -3,0.9723 -3,1.3553 0,0.383 -2.0208,1.5848 -4.4906,2.6706 -2.4697,1.0857 -4.4947,2.2758 -4.5,2.6446 -0.01,0.3688 -1.3594,0.9671 -3.0094,1.3295 -1.65,0.3624 -3,1.0731 -3,1.5794 0,0.5425 -12.2177,0.8766 -29.75,0.8135 -21.3576,-0.077 -28.5511,-0.3756 -25.5,-1.0589 2.3375,-0.5234 4.25,-1.3752 4.25,-1.8929 0,-0.5176 1.125,-0.9411 2.5,-0.9411 1.375,0 2.5,-0.4296 2.5,-0.9547 0,-0.5251 1.575,-1.2502 3.5,-1.6113 1.925,-0.3611 3.5,-1.0064 3.5,-1.434 0,-0.4276 1.575,-1.0729 3.5,-1.434 1.925,-0.3612 3.5,-1.0362 3.5,-1.5 0,-0.4639 1.575,-1.1389 3.5,-1.5 1.925,-0.3612 3.5,-1.0863 3.5,-1.6113 0,-0.5251 0.9,-0.9547 2,-0.9547 1.1,0 2,-0.3999 2,-0.8887 0,-0.4888 1.575,-1.1842 3.5,-1.5453 1.925,-0.3612 3.5,-1.0287 3.5,-1.4835 0,-0.4548 1.8,-1.1147 4,-1.4665 2.2,-0.3518 4,-1.0268 4,-1.5 0,-0.4732 1.8,-1.1482 4,-1.5 2.2,-0.3518 4,-1.0268 4,-1.5 0,-0.4732 1.8,-1.1482 4,-1.5 2.2,-0.3518 4,-1.0843 4,-1.6278 0,-0.5435 0.675,-0.9882 1.5,-0.9882 0.825,0 1.5,-0.4447 1.5,-0.9882 0,-0.5435 1.8,-1.276 4,-1.6278 2.2,-0.3518 4,-1.0268 4,-1.5 0,-0.4732 1.8,-1.1482 4,-1.5 2.2,-0.3518 4,-1.0117 4,-1.4665 0,-0.4548 1.575,-1.1224 3.5,-1.4835 1.925,-0.3611 3.5,-1.0361 3.5,-1.5 0,-0.4639 1.575,-1.1389 3.5,-1.5 1.925,-0.3611 3.5,-1.0565 3.5,-1.5453 0,-0.4888 0.9,-0.8887 2,-0.8887 1.1,0 2,-0.4447 2,-0.9882 0,-0.5435 1.8,-1.276 4,-1.6278 2.2,-0.3518 4,-0.9964 4,-1.4324 0,-0.436 1.35,-1.0892 3,-1.4516 1.65,-0.3624 3,-1.0157 3,-1.4517 0,-0.436 1.8,-1.0805 4,-1.4323 2.2,-0.3518 4,-1.0843 4,-1.6278 0,-0.5435 1.125,-0.9882 2.5,-0.9882 1.375,0 2.5,-0.4143 2.5,-0.9206 0,-0.5063 1.35,-1.217 3,-1.5794 1.65,-0.3624 3,-1.0732 3,-1.5795 0,-0.5063 1.125,-0.9205 2.5,-0.9205 1.8861,0 2.5,-0.5243 2.5,-2.1354 0,-1.1744 -1.125,-3.1779 -2.5,-4.4522 -1.375,-1.2743 -2.5,-2.6978 -2.5,-3.1632 0,-0.4655 -1.8712,-2.7937 -4.1582,-5.1737 l -4.1581,-4.3274 -6.0359,0.6309 c -3.3197,0.347 -6.2861,1.0345 -6.5919,1.5279 -0.3057,0.4933 -2.6934,1.2172 -5.3059,1.6086 -2.6125,0.3913 -4.75,1.1105 -4.75,1.598 0,0.4876 -0.8735,0.8865 -1.941,0.8865 -1.0675,0 -2.203,0.424 -2.5233,0.9422 -0.3203,0.5182 -2.5969,1.2443 -5.059,1.6135 -2.4622,0.3693 -4.4767,1.0548 -4.4767,1.5234 0,0.4686 -2.2601,1.1518 -5.0225,1.5182 -2.7623,0.3665 -5.2478,1.031 -5.5233,1.4767 -0.2755,0.4457 -2.5154,1.1125 -4.9775,1.4817 -2.4622,0.3693 -4.4767,1.0192 -4.4767,1.4443 0,0.4251 -2.025,1.0766 -4.5,1.4477 -2.475,0.3712 -4.5,1.0972 -4.5,1.6135 0,0.5163 -1.125,0.9388 -2.5,0.9388 -1.375,0 -2.5,0.3981 -2.5,0.8848 0,0.4866 -2.475,1.194 -5.5,1.5719 -3.025,0.378 -5.5,1.0537 -5.5,1.5017 0,0.448 -2.025,1.1182 -4.5,1.4893 -2.475,0.3712 -4.5,1.0649 -4.5,1.5416 0,0.4767 -2.475,1.176 -5.5,1.5539 -3.025,0.378 -5.5,1.0801 -5.5,1.5602 0,0.4801 -1.8,1.1608 -4,1.5126 -2.2,0.3518 -4,1.0321 -4,1.5118 0,0.4797 -1.35,0.8722 -3,0.8722 -1.65,0 -3,0.4077 -3,0.9061 0,0.4984 -2.25,1.2157 -5,1.5939 -2.75,0.3782 -5,1.0799 -5,1.5594 0,0.4794 -2.25,1.1702 -5,1.535 -2.75,0.3648 -5,1.013 -5,1.4406 0,0.4275 -2.25,1.0868 -5,1.465 -2.75,0.3782 -5,1.0954 -5,1.5938 0,0.4984 -0.8735,0.9062 -1.941,0.9062 -1.0675,0 -2.203,0.424 -2.5233,0.9422 -0.3203,0.5182 -2.5969,1.2443 -5.059,1.6135 -2.4622,0.3693 -4.4767,1.0192 -4.4767,1.4443 0,0.4251 -2.025,1.0766 -4.5,1.4477 -2.475,0.3712 -4.5,1.0454 -4.5,1.4983 0,0.453 -2.475,1.1328 -5.5,1.5107 -3.025,0.378 -5.5,1.0537 -5.5,1.5017 0,0.448 -2.025,1.1182 -4.5,1.4893 -2.475,0.3712 -4.5,1.0972 -4.5,1.6135 0,0.5163 -1.575,0.9388 -3.5,0.9388 -1.925,0 -3.5,0.4224 -3.5,0.9387 0,0.5163 -2.025,1.2424 -4.5,1.6135 -2.475,0.3712 -4.5,1.0227 -4.5,1.4478 0,0.4251 -2.025,1.0766 -4.5,1.4477 -2.475,0.3712 -4.5,1.055 -4.5,1.5197 0,0.4647 -2.25,1.1544 -5,1.5326 -2.75,0.3782 -5,1.0954 -5,1.5938 0,0.4984 -1.125,0.9062 -2.5,0.9062 -1.375,0 -2.5,0.392 -2.5,0.8711 0,0.4792 -2.25,1.1697 -5,1.5345 -2.75,0.3648 -5,1.0555 -5,1.535 0,0.4794 -2.25,1.1812 -5,1.5594 -2.75,0.3782 -5,1.0954 -5,1.5938 0,0.5345 -29.6355,0.8491 -72.25,0.767 -52.120801,-0.1005 -70.508701,-0.418 -66.000001,-1.1396 z M 1392.3118,315.43839 c 0.7219,-0.2889 1.5844,-0.2534 1.9167,0.079 0.3323,0.3323 -0.2584,0.5686 -1.3125,0.5252 -1.165,-0.048 -1.4019,-0.285 -0.6042,-0.6042 z"
       id="path4212"
       inkscape:connector-curvature="0" />
  </g>
</svg>
