<?xml version="1.0" encoding="UTF-8" standalone="no"?>
<!-- Created with Inkscape (http://www.inkscape.org/) -->

<svg
   xmlns:dc="http://purl.org/dc/elements/1.1/"
   xmlns:cc="http://creativecommons.org/ns#"
   xmlns:rdf="http://www.w3.org/1999/02/22-rdf-syntax-ns#"
   xmlns:svg="http://www.w3.org/2000/svg"
   xmlns="http://www.w3.org/2000/svg"
   xmlns:sodipodi="http://sodipodi.sourceforge.net/DTD/sodipodi-0.dtd"
   xmlns:inkscape="http://www.inkscape.org/namespaces/inkscape"
   id="svg2"
   version="1.1"
   inkscape:version="0.48.2 r9819"
   width="354.32999"
   height="354.33249"
   xml:space="preserve"
   sodipodi:docname="StudioM-Swatch-MGT Patterns.ai"><metadata
     id="metadata8"><rdf:RDF><cc:Work
         rdf:about=""><dc:format>image/svg+xml</dc:format><dc:type
           rdf:resource="http://purl.org/dc/dcmitype/StillImage" /><dc:title></dc:title></cc:Work></rdf:RDF></metadata><defs
     id="defs6"><clipPath
       clipPathUnits="userSpaceOnUse"
       id="clipPath16"><path
         d="m 0,3529.134 3529.134,0 L 3529.134,0 0,0 0,3529.134 z"
         id="path18"
         inkscape:connector-curvature="0" /></clipPath><clipPath
       clipPathUnits="userSpaceOnUse"
       id="clipPath26"><path
         d="m -141.732,141.733 283.463,0 0,-283.465 -283.463,0 0,283.465 z"
         id="path28"
         inkscape:connector-curvature="0" /></clipPath><clipPath
       clipPathUnits="userSpaceOnUse"
       id="clipPath40"><path
         d="m -141.732,141.733 283.463,0 0,-283.464 -283.463,0 0,283.464 z"
         id="path42"
         inkscape:connector-curvature="0" /></clipPath><clipPath
       clipPathUnits="userSpaceOnUse"
       id="clipPath54"><path
         d="m -141.731,141.733 283.462,0 0,-283.465 -283.462,0 0,283.465 z"
         id="path56"
         inkscape:connector-curvature="0" /></clipPath><clipPath
       clipPathUnits="userSpaceOnUse"
       id="clipPath80"><path
         d="m -141.732,141.733 283.464,0 0,-283.465 -283.464,0 0,283.465 z"
         id="path82"
         inkscape:connector-curvature="0" /></clipPath><clipPath
       clipPathUnits="userSpaceOnUse"
       id="clipPath106"><path
         d="m -141.732,141.733 283.464,0 0,-283.465 -283.464,0 0,283.465 z"
         id="path108"
         inkscape:connector-curvature="0" /></clipPath><clipPath
       clipPathUnits="userSpaceOnUse"
       id="clipPath120"><path
         d="m -141.732,141.733 283.464,0 0,-283.465 -283.464,0 0,283.465 z"
         id="path122"
         inkscape:connector-curvature="0" /></clipPath><clipPath
       clipPathUnits="userSpaceOnUse"
       id="clipPath146"><path
         d="m -141.731,141.733 283.462,0 0,-283.464 -283.462,0 0,283.464 z"
         id="path148"
         inkscape:connector-curvature="0" /></clipPath><clipPath
       clipPathUnits="userSpaceOnUse"
       id="clipPath172"><path
         d="m -141.732,141.733 283.464,0 0,-283.465 -283.464,0 0,283.465 z"
         id="path174"
         inkscape:connector-curvature="0" /></clipPath><clipPath
       clipPathUnits="userSpaceOnUse"
       id="clipPath186"><path
         d="m -141.731,141.733 283.462,0 0,-283.465 -283.462,0 0,283.465 z"
         id="path188"
         inkscape:connector-curvature="0" /></clipPath><clipPath
       clipPathUnits="userSpaceOnUse"
       id="clipPath212"><path
         d="m -141.732,141.733 283.463,0 0,-283.465 -283.463,0 0,283.465 z"
         id="path214"
         inkscape:connector-curvature="0" /></clipPath><clipPath
       clipPathUnits="userSpaceOnUse"
       id="clipPath226"><path
         d="m -141.732,141.733 283.464,0 0,-283.466 -283.464,0 0,283.466 z"
         id="path228"
         inkscape:connector-curvature="0" /></clipPath><clipPath
       clipPathUnits="userSpaceOnUse"
       id="clipPath252"><path
         d="m -141.731,141.733 283.462,0 0,-283.465 -283.462,0 0,283.465 z"
         id="path254"
         inkscape:connector-curvature="0" /></clipPath><clipPath
       clipPathUnits="userSpaceOnUse"
       id="clipPath278"><path
         d="m -141.73,141.733 283.46,0 0,-283.465 -283.46,0 0,283.465 z"
         id="path280"
         inkscape:connector-curvature="0" /></clipPath><clipPath
       clipPathUnits="userSpaceOnUse"
       id="clipPath304"><path
         d="m -141.731,141.733 283.462,0 0,-283.465 -283.462,0 0,283.465 z"
         id="path306"
         inkscape:connector-curvature="0" /></clipPath><clipPath
       clipPathUnits="userSpaceOnUse"
       id="clipPath330"><path
         d="m -141.731,141.731 283.462,0 0,-283.462 -283.462,0 0,283.462 z"
         id="path332"
         inkscape:connector-curvature="0" /></clipPath><clipPath
       clipPathUnits="userSpaceOnUse"
       id="clipPath356"><path
         d="m -141.731,141.733 283.462,0 0,-283.465 -283.462,0 0,283.465 z"
         id="path358"
         inkscape:connector-curvature="0" /></clipPath><clipPath
       clipPathUnits="userSpaceOnUse"
       id="clipPath382"><path
         d="m -141.733,141.733 283.466,0 0,-283.465 -283.466,0 0,283.465 z"
         id="path384"
         inkscape:connector-curvature="0" /></clipPath><clipPath
       clipPathUnits="userSpaceOnUse"
       id="clipPath408"><path
         d="m -141.733,141.733 283.466,0 0,-283.466 -283.466,0 0,283.466 z"
         id="path410"
         inkscape:connector-curvature="0" /></clipPath><clipPath
       clipPathUnits="userSpaceOnUse"
       id="clipPath434"><path
         d="m -141.733,141.733 283.466,0 0,-283.465 -283.466,0 0,283.465 z"
         id="path436"
         inkscape:connector-curvature="0" /></clipPath><clipPath
       clipPathUnits="userSpaceOnUse"
       id="clipPath460"><path
         d="m -141.731,141.733 283.462,0 0,-283.465 -283.462,0 0,283.465 z"
         id="path462"
         inkscape:connector-curvature="0" /></clipPath><clipPath
       clipPathUnits="userSpaceOnUse"
       id="clipPath486"><path
         d="m -141.731,141.733 283.462,0 0,-283.465 -283.462,0 0,283.465 z"
         id="path488"
         inkscape:connector-curvature="0" /></clipPath><clipPath
       clipPathUnits="userSpaceOnUse"
       id="clipPath512"><path
         d="m -141.733,141.734 283.466,0 0,-283.468 -283.466,0 0,283.468 z"
         id="path514"
         inkscape:connector-curvature="0" /></clipPath><clipPath
       clipPathUnits="userSpaceOnUse"
       id="clipPath538"><path
         d="m -141.731,141.734 283.462,0 0,-283.467 -283.462,0 0,283.467 z"
         id="path540"
         inkscape:connector-curvature="0" /></clipPath><clipPath
       clipPathUnits="userSpaceOnUse"
       id="clipPath564"><path
         d="m -141.732,141.733 283.464,0 0,-283.465 -283.464,0 0,283.465 z"
         id="path566"
         inkscape:connector-curvature="0" /></clipPath><clipPath
       clipPathUnits="userSpaceOnUse"
       id="clipPath590"><path
         d="m -141.734,141.734 283.468,0 0,-283.467 -283.468,0 0,283.467 z"
         id="path592"
         inkscape:connector-curvature="0" /></clipPath><clipPath
       clipPathUnits="userSpaceOnUse"
       id="clipPath616"><path
         d="m -141.732,141.733 283.463,0 0,-283.465 -283.463,0 0,283.465 z"
         id="path618"
         inkscape:connector-curvature="0" /></clipPath><clipPath
       clipPathUnits="userSpaceOnUse"
       id="clipPath630"><path
         d="m -141.732,141.733 283.464,0 0,-283.465 -283.464,0 0,283.465 z"
         id="path632"
         inkscape:connector-curvature="0" /></clipPath><clipPath
       clipPathUnits="userSpaceOnUse"
       id="clipPath656"><path
         d="m -141.731,141.734 283.462,0 0,-283.467 -283.462,0 0,283.467 z"
         id="path658"
         inkscape:connector-curvature="0" /></clipPath><clipPath
       clipPathUnits="userSpaceOnUse"
       id="clipPath682"><path
         d="m -141.729,141.729 283.458,0 0,-283.458 -283.458,0 0,283.458 z"
         id="path684"
         inkscape:connector-curvature="0" /></clipPath><clipPath
       clipPathUnits="userSpaceOnUse"
       id="clipPath708"><path
         d="m -141.728,141.729 283.455,0 0,-283.458 -283.455,0 0,283.458 z"
         id="path710"
         inkscape:connector-curvature="0" /></clipPath><clipPath
       clipPathUnits="userSpaceOnUse"
       id="clipPath734"><path
         d="m -141.731,141.733 283.462,0 0,-283.465 -283.462,0 0,283.465 z"
         id="path736"
         inkscape:connector-curvature="0" /></clipPath><clipPath
       clipPathUnits="userSpaceOnUse"
       id="clipPath760"><path
         d="m -141.732,141.733 283.464,0 0,-283.466 -283.464,0 0,283.466 z"
         id="path762"
         inkscape:connector-curvature="0" /></clipPath><clipPath
       clipPathUnits="userSpaceOnUse"
       id="clipPath786"><path
         d="m -141.73,141.73 283.46,0 0,-283.46 -283.46,0 0,283.46 z"
         id="path788"
         inkscape:connector-curvature="0" /></clipPath><clipPath
       clipPathUnits="userSpaceOnUse"
       id="clipPath812"><path
         d="m -141.732,141.731 283.464,0 0,-283.463 -283.464,0 0,283.463 z"
         id="path814"
         inkscape:connector-curvature="0" /></clipPath><clipPath
       clipPathUnits="userSpaceOnUse"
       id="clipPath838"><path
         d="m -141.733,141.73 283.466,0 0,-283.461 -283.466,0 0,283.461 z"
         id="path840"
         inkscape:connector-curvature="0" /></clipPath><clipPath
       clipPathUnits="userSpaceOnUse"
       id="clipPath864"><path
         d="m -141.733,141.731 283.466,0 0,-283.462 -283.466,0 0,283.462 z"
         id="path866"
         inkscape:connector-curvature="0" /></clipPath><clipPath
       clipPathUnits="userSpaceOnUse"
       id="clipPath904"><path
         d="m 0,3529.134 3529.134,0 L 3529.134,0 0,0 0,3529.134 z"
         id="path906"
         inkscape:connector-curvature="0" /></clipPath><clipPath
       clipPathUnits="userSpaceOnUse"
       id="clipPath914"><path
         d="m -141.731,141.733 283.462,0 0,-283.465 -283.462,0 0,283.465 z"
         id="path916"
         inkscape:connector-curvature="0" /></clipPath><clipPath
       clipPathUnits="userSpaceOnUse"
       id="clipPath940"><path
         d="m -141.73,141.733 283.46,0 0,-283.465 -283.46,0 0,283.465 z"
         id="path942"
         inkscape:connector-curvature="0" /></clipPath><clipPath
       clipPathUnits="userSpaceOnUse"
       id="clipPath958"><path
         d="m -141.732,141.731 283.465,0 0,-283.462 -283.465,0 0,283.462 z"
         id="path960"
         inkscape:connector-curvature="0" /></clipPath><clipPath
       clipPathUnits="userSpaceOnUse"
       id="clipPath984"><path
         d="m -141.732,141.733 283.464,0 0,-283.465 -283.464,0 0,283.465 z"
         id="path986"
         inkscape:connector-curvature="0" /></clipPath><clipPath
       clipPathUnits="userSpaceOnUse"
       id="clipPath998"><path
         d="m -141.732,141.733 283.464,0 0,-283.464 -283.464,0 0,283.464 z"
         id="path1000"
         inkscape:connector-curvature="0" /></clipPath><clipPath
       clipPathUnits="userSpaceOnUse"
       id="clipPath1024"><path
         d="m -141.732,141.73 283.464,0 0,-283.461 -283.464,0 0,283.461 z"
         id="path1026"
         inkscape:connector-curvature="0" /></clipPath><clipPath
       clipPathUnits="userSpaceOnUse"
       id="clipPath1050"><path
         d="m -141.732,141.733 283.464,0 0,-283.465 -283.464,0 0,283.465 z"
         id="path1052"
         inkscape:connector-curvature="0" /></clipPath><clipPath
       clipPathUnits="userSpaceOnUse"
       id="clipPath1076"><path
         d="m -141.731,141.733 283.462,0 0,-283.465 -283.462,0 0,283.465 z"
         id="path1078"
         inkscape:connector-curvature="0" /></clipPath><clipPath
       clipPathUnits="userSpaceOnUse"
       id="clipPath1102"><path
         d="m -141.731,141.733 283.462,0 0,-283.464 -283.462,0 0,283.464 z"
         id="path1104"
         inkscape:connector-curvature="0" /></clipPath><clipPath
       clipPathUnits="userSpaceOnUse"
       id="clipPath1120"><path
         d="m -141.731,141.733 283.461,0 0,-283.466 -283.461,0 0,283.466 z"
         id="path1122"
         inkscape:connector-curvature="0" /></clipPath><clipPath
       clipPathUnits="userSpaceOnUse"
       id="clipPath1138"><path
         d="m -141.731,141.733 283.462,0 0,-283.465 -283.462,0 0,283.465 z"
         id="path1140"
         inkscape:connector-curvature="0" /></clipPath><clipPath
       clipPathUnits="userSpaceOnUse"
       id="clipPath1160"><path
         d="m -141.731,141.733 283.462,0 0,-283.466 -283.462,0 0,283.466 z"
         id="path1162"
         inkscape:connector-curvature="0" /></clipPath><clipPath
       clipPathUnits="userSpaceOnUse"
       id="clipPath1186"><path
         d="m -141.731,141.733 283.462,0 0,-283.465 -283.462,0 0,283.465 z"
         id="path1188"
         inkscape:connector-curvature="0" /></clipPath><clipPath
       clipPathUnits="userSpaceOnUse"
       id="clipPath1212"><path
         d="m -141.732,141.733 283.463,0 0,-283.465 -283.463,0 0,283.465 z"
         id="path1214"
         inkscape:connector-curvature="0" /></clipPath><clipPath
       clipPathUnits="userSpaceOnUse"
       id="clipPath1226"><path
         d="m -141.732,141.733 283.463,0 0,-283.465 -283.463,0 0,283.465 z"
         id="path1228"
         inkscape:connector-curvature="0" /></clipPath><clipPath
       clipPathUnits="userSpaceOnUse"
       id="clipPath1240"><path
         d="m -141.732,141.733 283.464,0 0,-283.465 -283.464,0 0,283.465 z"
         id="path1242"
         inkscape:connector-curvature="0" /></clipPath><clipPath
       clipPathUnits="userSpaceOnUse"
       id="clipPath1266"><path
         d="m -141.732,141.733 283.464,0 0,-283.464 -283.464,0 0,283.464 z"
         id="path1268"
         inkscape:connector-curvature="0" /></clipPath><clipPath
       clipPathUnits="userSpaceOnUse"
       id="clipPath1340"><path
         d="m -141.727,141.728 283.454,0 0,-283.457 -283.454,0 0,283.457 z"
         id="path1342"
         inkscape:connector-curvature="0" /></clipPath><clipPath
       clipPathUnits="userSpaceOnUse"
       id="clipPath1366"><path
         d="m -141.732,141.733 283.464,0 0,-283.466 -283.464,0 0,283.466 z"
         id="path1368"
         inkscape:connector-curvature="0" /></clipPath><clipPath
       clipPathUnits="userSpaceOnUse"
       id="clipPath1392"><path
         d="m -141.728,141.729 283.456,0 0,-283.458 -283.456,0 0,283.458 z"
         id="path1394"
         inkscape:connector-curvature="0" /></clipPath><clipPath
       clipPathUnits="userSpaceOnUse"
       id="clipPath1418"><path
         d="m -141.731,141.731 283.462,0 0,-283.463 -283.462,0 0,283.463 z"
         id="path1420"
         inkscape:connector-curvature="0" /></clipPath><clipPath
       clipPathUnits="userSpaceOnUse"
       id="clipPath1444"><path
         d="m -141.732,141.733 283.464,0 0,-283.465 -283.464,0 0,283.465 z"
         id="path1446"
         inkscape:connector-curvature="0" /></clipPath><clipPath
       clipPathUnits="userSpaceOnUse"
       id="clipPath1470"><path
         d="m -141.73,141.733 283.46,0 0,-283.464 -283.46,0 0,283.464 z"
         id="path1472"
         inkscape:connector-curvature="0" /></clipPath><clipPath
       clipPathUnits="userSpaceOnUse"
       id="clipPath1488"><path
         d="m -141.731,141.731 283.462,0 0,-283.463 -283.462,0 0,283.463 z"
         id="path1490"
         inkscape:connector-curvature="0" /></clipPath><clipPath
       clipPathUnits="userSpaceOnUse"
       id="clipPath1502"><path
         d="m -141.728,141.731 283.455,0 0,-283.462 -283.455,0 0,283.462 z"
         id="path1504"
         inkscape:connector-curvature="0" /></clipPath><clipPath
       clipPathUnits="userSpaceOnUse"
       id="clipPath1528"><path
         d="m -141.731,141.733 283.462,0 0,-283.465 -283.462,0 0,283.465 z"
         id="path1530"
         inkscape:connector-curvature="0" /></clipPath><clipPath
       clipPathUnits="userSpaceOnUse"
       id="clipPath1554"><path
         d="m -141.731,141.731 283.463,0 0,-283.463 -283.463,0 0,283.463 z"
         id="path1556"
         inkscape:connector-curvature="0" /></clipPath><clipPath
       clipPathUnits="userSpaceOnUse"
       id="clipPath1580"><path
         d="m -141.732,141.733 283.464,0 0,-283.466 -283.464,0 0,283.466 z"
         id="path1582"
         inkscape:connector-curvature="0" /></clipPath><clipPath
       clipPathUnits="userSpaceOnUse"
       id="clipPath1606"><path
         d="m -141.732,141.733 283.464,0 0,-283.465 -283.464,0 0,283.465 z"
         id="path1608"
         inkscape:connector-curvature="0" /></clipPath><clipPath
       clipPathUnits="userSpaceOnUse"
       id="clipPath1632"><path
         d="m -141.732,141.733 283.464,0 0,-283.465 -283.464,0 0,283.465 z"
         id="path1634"
         inkscape:connector-curvature="0" /></clipPath><clipPath
       clipPathUnits="userSpaceOnUse"
       id="clipPath1646"><path
         d="m -141.731,141.733 283.462,0 0,-283.465 -283.462,0 0,283.465 z"
         id="path1648"
         inkscape:connector-curvature="0" /></clipPath><clipPath
       clipPathUnits="userSpaceOnUse"
       id="clipPath1672"><path
         d="m -141.729,141.728 283.458,0 0,-283.457 -283.458,0 0,283.457 z"
         id="path1674"
         inkscape:connector-curvature="0" /></clipPath><clipPath
       clipPathUnits="userSpaceOnUse"
       id="clipPath1698"><path
         d="m -141.731,141.733 283.462,0 0,-283.465 -283.462,0 0,283.465 z"
         id="path1700"
         inkscape:connector-curvature="0" /></clipPath><clipPath
       clipPathUnits="userSpaceOnUse"
       id="clipPath1724"><path
         d="m -141.732,141.729 283.464,0 0,-283.458 -283.464,0 0,283.458 z"
         id="path1726"
         inkscape:connector-curvature="0" /></clipPath><clipPath
       clipPathUnits="userSpaceOnUse"
       id="clipPath1750"><path
         d="m -141.731,141.733 283.462,0 0,-283.465 -283.462,0 0,283.465 z"
         id="path1752"
         inkscape:connector-curvature="0" /></clipPath><clipPath
       clipPathUnits="userSpaceOnUse"
       id="clipPath1776"><path
         d="m -141.732,141.733 283.464,0 0,-283.465 -283.464,0 0,283.465 z"
         id="path1778"
         inkscape:connector-curvature="0" /></clipPath><clipPath
       clipPathUnits="userSpaceOnUse"
       id="clipPath1802"><path
         d="m -141.731,141.733 283.462,0 0,-283.465 -283.462,0 0,283.465 z"
         id="path1804"
         inkscape:connector-curvature="0" /></clipPath><clipPath
       clipPathUnits="userSpaceOnUse"
       id="clipPath1828"><path
         d="m -141.728,141.729 283.456,0 0,-283.458 -283.456,0 0,283.458 z"
         id="path1830"
         inkscape:connector-curvature="0" /></clipPath><clipPath
       clipPathUnits="userSpaceOnUse"
       id="clipPath1854"><path
         d="m -141.728,141.729 283.456,0 0,-283.458 -283.456,0 0,283.458 z"
         id="path1856"
         inkscape:connector-curvature="0" /></clipPath><clipPath
       clipPathUnits="userSpaceOnUse"
       id="clipPath1880"><path
         d="m -141.729,141.736 283.457,0 0,-283.473 -283.457,0 0,283.473 z"
         id="path1882"
         inkscape:connector-curvature="0" /></clipPath><clipPath
       clipPathUnits="userSpaceOnUse"
       id="clipPath1906"><path
         d="m -141.731,141.734 283.462,0 0,-283.468 -283.462,0 0,283.468 z"
         id="path1908"
         inkscape:connector-curvature="0" /></clipPath><clipPath
       clipPathUnits="userSpaceOnUse"
       id="clipPath1924"><path
         d="m -141.73,141.73 283.46,0 0,-283.46 -283.46,0 0,283.46 z"
         id="path1926"
         inkscape:connector-curvature="0" /></clipPath><clipPath
       clipPathUnits="userSpaceOnUse"
       id="clipPath1950"><path
         d="m -138.188,138.189 276.376,0 0,-276.378 -276.376,0 0,276.378 z"
         id="path1952"
         inkscape:connector-curvature="0" /></clipPath><clipPath
       clipPathUnits="userSpaceOnUse"
       id="clipPath1976"><path
         d="m -141.729,141.733 283.457,0 0,-283.466 -283.457,0 0,283.466 z"
         id="path1978"
         inkscape:connector-curvature="0" /></clipPath><clipPath
       clipPathUnits="userSpaceOnUse"
       id="clipPath1994"><path
         d="m -141.728,141.729 283.456,0 0,-283.458 -283.456,0 0,283.458 z"
         id="path1996"
         inkscape:connector-curvature="0" /></clipPath><clipPath
       clipPathUnits="userSpaceOnUse"
       id="clipPath2020"><path
         d="m -141.728,141.733 283.456,0 0,-283.467 -283.456,0 0,283.467 z"
         id="path2022"
         inkscape:connector-curvature="0" /></clipPath><clipPath
       clipPathUnits="userSpaceOnUse"
       id="clipPath2046"><path
         d="m -141.73,141.731 283.46,0 0,-283.463 -283.46,0 0,283.463 z"
         id="path2048"
         inkscape:connector-curvature="0" /></clipPath><clipPath
       clipPathUnits="userSpaceOnUse"
       id="clipPath2072"><path
         d="m -141.733,141.734 283.466,0 0,-283.468 -283.466,0 0,283.468 z"
         id="path2074"
         inkscape:connector-curvature="0" /></clipPath><clipPath
       clipPathUnits="userSpaceOnUse"
       id="clipPath2098"><path
         d="m -141.732,141.733 283.464,0 0,-283.466 -283.464,0 0,283.466 z"
         id="path2100"
         inkscape:connector-curvature="0" /></clipPath><clipPath
       clipPathUnits="userSpaceOnUse"
       id="clipPath2124"><path
         d="m -141.732,141.731 283.464,0 0,-283.463 -283.464,0 0,283.463 z"
         id="path2126"
         inkscape:connector-curvature="0" /></clipPath><clipPath
       clipPathUnits="userSpaceOnUse"
       id="clipPath2136"><path
         d="m -141.732,141.731 283.464,0 0,-283.461 -283.464,0 0,283.461 z"
         id="path2138"
         inkscape:connector-curvature="0" /></clipPath><clipPath
       clipPathUnits="userSpaceOnUse"
       id="clipPath2154"><path
         d="m -141.728,141.733 283.456,0 0,-283.465 -283.456,0 0,283.465 z"
         id="path2156"
         inkscape:connector-curvature="0" /></clipPath><clipPath
       clipPathUnits="userSpaceOnUse"
       id="clipPath2172"><path
         d="m -141.731,141.733 283.462,0 0,-283.465 -283.462,0 0,283.465 z"
         id="path2174"
         inkscape:connector-curvature="0" /></clipPath><clipPath
       clipPathUnits="userSpaceOnUse"
       id="clipPath2198"><path
         d="m -141.731,141.733 283.463,0 0,-283.465 -283.463,0 0,283.465 z"
         id="path2200"
         inkscape:connector-curvature="0" /></clipPath><clipPath
       clipPathUnits="userSpaceOnUse"
       id="clipPath2224"><path
         d="m -141.729,141.733 283.458,0 0,-283.466 -283.458,0 0,283.466 z"
         id="path2226"
         inkscape:connector-curvature="0" /></clipPath><clipPath
       clipPathUnits="userSpaceOnUse"
       id="clipPath2250"><path
         d="m -141.731,141.733 283.462,0 0,-283.466 -283.462,0 0,283.466 z"
         id="path2252"
         inkscape:connector-curvature="0" /></clipPath><clipPath
       clipPathUnits="userSpaceOnUse"
       id="clipPath2276"><path
         d="m -141.728,141.733 283.457,0 0,-283.465 -283.457,0 0,283.465 z"
         id="path2278"
         inkscape:connector-curvature="0" /></clipPath><clipPath
       clipPathUnits="userSpaceOnUse"
       id="clipPath2302"><path
         d="m -141.729,141.729 283.457,0 0,-283.458 -283.457,0 0,283.458 z"
         id="path2304"
         inkscape:connector-curvature="0" /></clipPath><clipPath
       clipPathUnits="userSpaceOnUse"
       id="clipPath2320"><path
         d="m -141.729,141.729 283.458,0 0,-283.458 -283.458,0 0,283.458 z"
         id="path2322"
         inkscape:connector-curvature="0" /></clipPath><clipPath
       clipPathUnits="userSpaceOnUse"
       id="clipPath2346"><path
         d="m -141.728,141.728 283.456,0 0,-283.457 -283.456,0 0,283.457 z"
         id="path2348"
         inkscape:connector-curvature="0" /></clipPath><clipPath
       clipPathUnits="userSpaceOnUse"
       id="clipPath2372"><path
         d="m -141.729,141.729 283.458,0 0,-283.459 -283.458,0 0,283.459 z"
         id="path2374"
         inkscape:connector-curvature="0" /></clipPath><clipPath
       clipPathUnits="userSpaceOnUse"
       id="clipPath2398"><path
         d="m -141.729,141.73 283.458,0 0,-283.46 -283.458,0 0,283.46 z"
         id="path2400"
         inkscape:connector-curvature="0" /></clipPath><clipPath
       clipPathUnits="userSpaceOnUse"
       id="clipPath2424"><path
         d="m -141.733,141.73 283.466,0 0,-283.461 -283.466,0 0,283.461 z"
         id="path2426"
         inkscape:connector-curvature="0" /></clipPath></defs><sodipodi:namedview
     pagecolor="#ffffff"
     bordercolor="#666666"
     borderopacity="1"
     objecttolerance="10"
     gridtolerance="10"
     guidetolerance="10"
     inkscape:pageopacity="0"
     inkscape:pageshadow="2"
     inkscape:window-width="1313"
     inkscape:window-height="711"
     id="namedview4"
     showgrid="false"
     fit-margin-top="0"
     fit-margin-left="0"
     fit-margin-right="0"
     fit-margin-bottom="0"
     inkscape:zoom="0.42798082"
     inkscape:cx="-209.89179"
     inkscape:cy="168.35369"
     inkscape:window-x="0"
     inkscape:window-y="26"
     inkscape:window-maximized="0"
     inkscape:current-layer="g10" /><g
     id="g10"
     inkscape:groupmode="layer"
     inkscape:label="StudioM-Swatch-MGT Patterns"
     transform="matrix(1.25,0,0,-1.25,-3330.7061,1452.7498)"><g
       id="g900"
       style="fill:#ff3481;fill-opacity:1"><g
         transform="matrix(1,0,0,-1,2806.2969,1020.4668)"
         id="g1574"
         style="fill:#ff3481;fill-opacity:1"><g
           id="g1576"
           style="fill:#ff3481;fill-opacity:1"><g
             clip-path="url(#clipPath1580)"
             id="g1578"
             style="fill:#ff3481;fill-opacity:1"><g
               transform="translate(-70.8652,0)"
               id="g1584"
               style="fill:#ff3481;fill-opacity:1"><path
                 inkscape:connector-curvature="0"
                 id="path1586"
                 style="fill:#ff3481;fill-opacity:1;fill-rule:nonzero;stroke:none"
                 d="M 0,0 17.715,0 0,-17.72 0,0 z m 70.865,-53.15 0,-17.716 -17.715,0 17.715,17.716 z m -124.013,-17.716 -17.719,-17.72 0,53.151 35.433,35.435 0,-17.716 -17.714,-17.719 17.714,0 0,-17.715 17.717,17.715 17.717,0 -35.434,-35.431 -17.714,0 z M -70.867,0 l 17.719,0 -17.719,-17.72 0,17.72 z m 53.152,-141.733 17.715,17.716 0,17.715 35.434,35.436 0,-17.716 -17.717,-17.72 17.717,0 0,-17.715 17.714,17.715 17.717,0 -35.431,-35.431 -53.149,0 z M 0,-88.586 l 0,17.72 -17.715,0 L 0,-53.15 0,-35.435 35.434,0 l 0,-17.716 -17.717,-17.719 17.717,0 0,-17.715 17.714,17.715 17.717,0 -35.431,-35.431 -17.719,0 L 0,-88.586 z m 53.15,-53.147 17.715,17.716 0,-17.716 -17.715,0 z m -106.298,35.431 17.714,0 0,-17.715 17.717,17.715 17.717,0 -35.434,-35.431 -35.433,0 0,35.431 35.433,35.436 0,-17.716 -17.714,-17.72 z" /></g><g
               transform="translate(70.8672,0)"
               id="g1588"
               style="fill:#ff3481;fill-opacity:1"><path
                 inkscape:connector-curvature="0"
                 id="path1590"
                 style="fill:#ff3481;fill-opacity:1;fill-rule:nonzero;stroke:none"
                 d="M 0,0 17.714,0 0,-17.72 0,0 z m 70.865,-53.15 0,-17.716 -17.717,0 17.717,17.716 z m -124.015,-17.716 -17.717,-17.72 0,53.151 35.433,35.435 0,-17.716 -17.714,-17.719 17.714,0 0,-17.715 17.717,17.715 17.717,0 -35.434,-35.431 -17.716,0 z M -70.867,0 l 17.717,0 -17.717,-17.72 0,17.72 z m 53.152,-141.733 17.715,17.716 0,17.715 35.434,35.436 0,-17.716 -17.72,-17.72 17.72,0 0,-17.715 17.712,17.715 17.719,0 -35.431,-35.431 -53.149,0 z M 0,-88.586 l 0,17.72 -17.715,0 L 0,-53.15 0,-35.435 35.434,0 l 0,-17.716 -17.72,-17.719 17.72,0 0,-17.715 17.712,17.715 17.719,0 -35.431,-35.431 -17.72,0 L 0,-88.586 z m 53.148,-53.147 17.717,17.716 0,-17.716 -17.717,0 z m -106.296,35.431 17.714,0 0,-17.715 17.717,17.715 17.717,0 -35.434,-35.431 -35.433,0 0,35.431 35.433,35.436 0,-17.716 -17.714,-17.72 z" /></g><g
               transform="translate(-70.8652,141.7334)"
               id="g1592"
               style="fill:#ff3481;fill-opacity:1"><path
                 inkscape:connector-curvature="0"
                 id="path1594"
                 style="fill:#ff3481;fill-opacity:1;fill-rule:nonzero;stroke:none"
                 d="M 0,0 17.715,0 0,-17.72 0,0 z m 70.865,-53.15 0,-17.716 -17.715,0 17.715,17.716 z m -124.013,-17.716 -17.719,-17.721 0,53.15 35.433,35.437 0,-17.716 -17.714,-17.721 17.714,0 0,-17.713 17.717,17.713 17.717,0 -35.434,-35.429 -17.714,0 z M -70.867,0 l 17.719,0 -17.719,-17.72 0,17.72 z m 53.152,-141.733 17.715,17.715 0,17.715 35.434,35.437 0,-17.717 -17.717,-17.72 17.717,0 0,-17.715 17.714,17.715 17.717,0 -35.431,-35.43 -53.149,0 z M 0,-88.587 l 0,17.721 -17.715,0 L 0,-53.15 0,-35.437 35.434,0 l 0,-17.716 -17.717,-17.721 17.717,0 0,-17.713 17.714,17.713 17.717,0 -35.431,-35.429 -17.719,0 L 0,-88.587 z m 53.15,-53.146 17.715,17.715 0,-17.715 -17.715,0 z m -106.298,35.43 17.714,0 0,-17.715 17.717,17.715 17.717,0 -35.434,-35.43 -35.433,0 0,35.43 35.433,35.437 0,-17.717 -17.714,-17.72 z" /></g><g
               transform="translate(70.8672,141.7334)"
               id="g1596"
               style="fill:#ff3481;fill-opacity:1"><path
                 inkscape:connector-curvature="0"
                 id="path1598"
                 style="fill:#ff3481;fill-opacity:1;fill-rule:nonzero;stroke:none"
                 d="M 0,0 17.714,0 0,-17.72 0,0 z m 70.865,-53.15 0,-17.716 -17.717,0 17.717,17.716 z m -124.015,-17.716 -17.717,-17.721 0,53.15 35.433,35.437 0,-17.716 -17.714,-17.721 17.714,0 0,-17.713 17.717,17.713 17.717,0 -35.434,-35.429 -17.716,0 z M -70.867,0 l 17.717,0 -17.717,-17.72 0,17.72 z m 53.152,-141.733 17.715,17.715 0,17.715 35.434,35.437 0,-17.717 -17.72,-17.72 17.72,0 0,-17.715 17.712,17.715 17.719,0 -35.431,-35.43 -53.149,0 z M 0,-88.587 l 0,17.721 -17.715,0 L 0,-53.15 0,-35.437 35.434,0 l 0,-17.716 -17.72,-17.721 17.72,0 0,-17.713 17.712,17.713 17.719,0 -35.431,-35.429 -17.72,0 L 0,-88.587 z m 53.148,-53.146 17.717,17.715 0,-17.715 -17.717,0 z m -106.296,35.43 17.714,0 0,-17.715 17.717,17.715 17.717,0 -35.434,-35.43 -35.433,0 0,35.43 35.433,35.437 0,-17.717 -17.714,-17.72 z" /></g></g></g></g></g></g></svg>