<?xml version="1.0" encoding="UTF-8" standalone="no"?>
<!-- Created with Inkscape (http://www.inkscape.org/) -->

<svg
   xmlns:dc="http://purl.org/dc/elements/1.1/"
   xmlns:cc="http://creativecommons.org/ns#"
   xmlns:rdf="http://www.w3.org/1999/02/22-rdf-syntax-ns#"
   xmlns:svg="http://www.w3.org/2000/svg"
   xmlns="http://www.w3.org/2000/svg"
   version="1.1"
   width="224.3745"
   height="132.41571"
   id="svg2"
   xml:space="preserve"><metadata
     id="metadata8"><rdf:RDF><cc:Work
         rdf:about=""><dc:format>image/svg+xml</dc:format><dc:type
           rdf:resource="http://purl.org/dc/dcmitype/StillImage" /><dc:title></dc:title></cc:Work></rdf:RDF></metadata><defs
     id="defs6"><clipPath
       id="clipPath18"><path
         d="M 0,0 396,0 396,288 0,288 0,0 z"
         id="path20" /></clipPath></defs><g
     transform="matrix(1.25,0,0,-1.25,-17.723965,321.07118)"
     id="g10"><g
       id="g12" /><g
       id="g14"><g
         clip-path="url(#clipPath18)"
         id="g16"><g
           transform="matrix(0.012375,0,0,-0.01237539,-15.963834,318.6333)"
           id="g26"><path
             d="m 0,0 31998,0 0,23271 L 0,23271 0,0 z"
             id="path28"
             style="fill:none;stroke:#eaf2f3;stroke-width:46.54254913;stroke-linecap:square;stroke-linejoin:miter;stroke-miterlimit:10;stroke-opacity:1;stroke-dasharray:none" /></g><path
           d="m 25.71525,256.6408 164.71125,0 0,-67.1736 -164.71125,0 0,67.1736 z"
           id="path36"
           style="fill:#ffffff;fill-opacity:1;fill-rule:nonzero;stroke:none" /><g
           transform="matrix(0.012375,0,0,-0.01237539,0,288)"
           id="g38"><path
             d="m 2078,2534 13310,0 0,5428 -13310,0 0,-5428 z"
             id="path40"
             style="fill:none;stroke:#ffffff;stroke-width:34.90690994;stroke-linecap:square;stroke-linejoin:miter;stroke-miterlimit:10;stroke-opacity:1;stroke-dasharray:none" /></g><g
           transform="matrix(0.012375,0,0,-0.01237539,0,288)"
           id="g42"><path
             d="m 2078.435,7172.192 13309.585,0"
             id="path44"
             style="fill:none;stroke:#eaf2f3;stroke-width:52.36035919;stroke-linecap:butt;stroke-linejoin:miter;stroke-miterlimit:10;stroke-opacity:1;stroke-dasharray:none" /></g><g
           transform="matrix(0.012375,0,0,-0.01237539,0,288)"
           id="g46"><path
             d="m 2078.435,6108.238 13309.585,0"
             id="path48"
             style="fill:none;stroke:#eaf2f3;stroke-width:52.36035919;stroke-linecap:butt;stroke-linejoin:miter;stroke-miterlimit:10;stroke-opacity:1;stroke-dasharray:none" /></g><g
           transform="matrix(0.012375,0,0,-0.01237539,0,288)"
           id="g50"><path
             d="m 2078.435,5045.283 13309.585,0"
             id="path52"
             style="fill:none;stroke:#eaf2f3;stroke-width:52.36035919;stroke-linecap:butt;stroke-linejoin:miter;stroke-miterlimit:10;stroke-opacity:1;stroke-dasharray:none" /></g><g
           transform="matrix(0.012375,0,0,-0.01237539,0,288)"
           id="g54"><path
             d="m 2078.435,3981.329 13309.585,0"
             id="path56"
             style="fill:none;stroke:#eaf2f3;stroke-width:52.36035919;stroke-linecap:butt;stroke-linejoin:miter;stroke-miterlimit:10;stroke-opacity:1;stroke-dasharray:none" /></g><g
           transform="matrix(0.012375,0,0,-0.01237539,0,288)"
           id="g58"><path
             d="m 4030.374,3610.345 1567.951,605.974"
             id="path60"
             style="fill:none;stroke:#1a476f;stroke-width:52.36035919;stroke-linecap:round;stroke-linejoin:miter;stroke-miterlimit:10;stroke-opacity:1;stroke-dasharray:none" /></g><g
           transform="matrix(0.012375,0,0,-0.01237539,0,288)"
           id="g62"><path
             d="m 5598.325,4216.319 1567.951,553.976"
             id="path64"
             style="fill:none;stroke:#1a476f;stroke-width:52.36035919;stroke-linecap:round;stroke-linejoin:miter;stroke-miterlimit:10;stroke-opacity:1;stroke-dasharray:none" /></g><g
           transform="matrix(0.012375,0,0,-0.01237539,0,288)"
           id="g66"><path
             d="m 7166.276,4770.295 1566.951,409.982"
             id="path68"
             style="fill:none;stroke:#1a476f;stroke-width:52.36035919;stroke-linecap:round;stroke-linejoin:miter;stroke-miterlimit:10;stroke-opacity:1;stroke-dasharray:none" /></g><g
           transform="matrix(0.012375,0,0,-0.01237539,0,288)"
           id="g70"><path
             d="M 8733.227,5180.277 10301.18,7026.198"
             id="path72"
             style="fill:none;stroke:#1a476f;stroke-width:52.36035919;stroke-linecap:round;stroke-linejoin:miter;stroke-miterlimit:10;stroke-opacity:1;stroke-dasharray:none" /></g><g
           transform="matrix(0.012375,0,0,-0.01237539,0,288)"
           id="g74"><path
             d="m 10301.18,7026.198 1567.95,405.983"
             id="path76"
             style="fill:none;stroke:#1a476f;stroke-width:52.36035919;stroke-linecap:round;stroke-linejoin:miter;stroke-miterlimit:10;stroke-opacity:1;stroke-dasharray:none" /></g><g
           transform="matrix(0.012375,0,0,-0.01237539,0,288)"
           id="g78"><path
             d="m 11869.13,7432.181 1566.95,95.996"
             id="path80"
             style="fill:none;stroke:#1a476f;stroke-width:52.36035919;stroke-linecap:round;stroke-linejoin:miter;stroke-miterlimit:10;stroke-opacity:1;stroke-dasharray:none" /></g><g
           transform="matrix(0.012375,0,0,-0.01237539,0,288)"
           id="g82"><path
             d="m 4030.374,3660.343 0,-98.996"
             id="path84"
             style="fill:none;stroke:#90353b;stroke-width:52.36035919;stroke-linecap:butt;stroke-linejoin:miter;stroke-miterlimit:10;stroke-opacity:1;stroke-dasharray:none" /></g><g
           transform="matrix(0.012375,0,0,-0.01237539,0,288)"
           id="g86"><path
             d="m 3897.378,3561.347 265.992,0"
             id="path88"
             style="fill:none;stroke:#90353b;stroke-width:52.36035919;stroke-linecap:round;stroke-linejoin:miter;stroke-miterlimit:10;stroke-opacity:1;stroke-dasharray:none" /></g><g
           transform="matrix(0.012375,0,0,-0.01237539,0,288)"
           id="g90"><path
             d="m 3897.378,3660.343 265.992,0"
             id="path92"
             style="fill:none;stroke:#90353b;stroke-width:52.36035919;stroke-linecap:round;stroke-linejoin:miter;stroke-miterlimit:10;stroke-opacity:1;stroke-dasharray:none" /></g><g
           transform="matrix(0.012375,0,0,-0.01237539,0,288)"
           id="g94"><path
             d="m 5598.325,4279.316 0,-125.994"
             id="path96"
             style="fill:none;stroke:#90353b;stroke-width:52.36035919;stroke-linecap:butt;stroke-linejoin:miter;stroke-miterlimit:10;stroke-opacity:1;stroke-dasharray:none" /></g><g
           transform="matrix(0.012375,0,0,-0.01237539,0,288)"
           id="g98"><path
             d="m 5465.329,4153.322 265.992,0"
             id="path100"
             style="fill:none;stroke:#90353b;stroke-width:52.36035919;stroke-linecap:round;stroke-linejoin:miter;stroke-miterlimit:10;stroke-opacity:1;stroke-dasharray:none" /></g><g
           transform="matrix(0.012375,0,0,-0.01237539,0,288)"
           id="g102"><path
             d="m 5465.329,4279.316 265.992,0"
             id="path104"
             style="fill:none;stroke:#90353b;stroke-width:52.36035919;stroke-linecap:round;stroke-linejoin:miter;stroke-miterlimit:10;stroke-opacity:1;stroke-dasharray:none" /></g><g
           transform="matrix(0.012375,0,0,-0.01237539,0,288)"
           id="g106"><path
             d="m 7166.276,4840.292 0,-139.994"
             id="path108"
             style="fill:none;stroke:#90353b;stroke-width:52.36035919;stroke-linecap:butt;stroke-linejoin:miter;stroke-miterlimit:10;stroke-opacity:1;stroke-dasharray:none" /></g><g
           transform="matrix(0.012375,0,0,-0.01237539,0,288)"
           id="g110"><path
             d="m 7033.28,4700.298 265.992,0"
             id="path112"
             style="fill:none;stroke:#90353b;stroke-width:52.36035919;stroke-linecap:round;stroke-linejoin:miter;stroke-miterlimit:10;stroke-opacity:1;stroke-dasharray:none" /></g><g
           transform="matrix(0.012375,0,0,-0.01237539,0,288)"
           id="g114"><path
             d="m 7033.28,4840.292 265.992,0"
             id="path116"
             style="fill:none;stroke:#90353b;stroke-width:52.36035919;stroke-linecap:round;stroke-linejoin:miter;stroke-miterlimit:10;stroke-opacity:1;stroke-dasharray:none" /></g><g
           transform="matrix(0.012375,0,0,-0.01237539,0,288)"
           id="g118"><path
             d="m 8733.227,5252.274 0,-144.993"
             id="path120"
             style="fill:none;stroke:#90353b;stroke-width:52.36035919;stroke-linecap:butt;stroke-linejoin:miter;stroke-miterlimit:10;stroke-opacity:1;stroke-dasharray:none" /></g><g
           transform="matrix(0.012375,0,0,-0.01237539,0,288)"
           id="g122"><path
             d="m 8600.231,5107.281 265.992,0"
             id="path124"
             style="fill:none;stroke:#90353b;stroke-width:52.36035919;stroke-linecap:round;stroke-linejoin:miter;stroke-miterlimit:10;stroke-opacity:1;stroke-dasharray:none" /></g><g
           transform="matrix(0.012375,0,0,-0.01237539,0,288)"
           id="g126"><path
             d="m 8600.231,5252.274 265.992,0"
             id="path128"
             style="fill:none;stroke:#90353b;stroke-width:52.36035919;stroke-linecap:round;stroke-linejoin:miter;stroke-miterlimit:10;stroke-opacity:1;stroke-dasharray:none" /></g><g
           transform="matrix(0.012375,0,0,-0.01237539,0,288)"
           id="g130"><path
             d="m 10301.18,7087.195 0,-122.994"
             id="path132"
             style="fill:none;stroke:#90353b;stroke-width:52.36035919;stroke-linecap:butt;stroke-linejoin:miter;stroke-miterlimit:10;stroke-opacity:1;stroke-dasharray:none" /></g><g
           transform="matrix(0.012375,0,0,-0.01237539,0,288)"
           id="g134"><path
             d="m 10168.18,6964.201 265.99,0"
             id="path136"
             style="fill:none;stroke:#90353b;stroke-width:52.36035919;stroke-linecap:round;stroke-linejoin:miter;stroke-miterlimit:10;stroke-opacity:1;stroke-dasharray:none" /></g><g
           transform="matrix(0.012375,0,0,-0.01237539,0,288)"
           id="g138"><path
             d="m 10168.18,7087.195 265.99,0"
             id="path140"
             style="fill:none;stroke:#90353b;stroke-width:52.36035919;stroke-linecap:round;stroke-linejoin:miter;stroke-miterlimit:10;stroke-opacity:1;stroke-dasharray:none" /></g><g
           transform="matrix(0.012375,0,0,-0.01237539,0,288)"
           id="g142"><path
             d="m 11869.13,7484.178 0,-103.995"
             id="path144"
             style="fill:none;stroke:#90353b;stroke-width:52.36035919;stroke-linecap:butt;stroke-linejoin:miter;stroke-miterlimit:10;stroke-opacity:1;stroke-dasharray:none" /></g><g
           transform="matrix(0.012375,0,0,-0.01237539,0,288)"
           id="g146"><path
             d="m 11736.13,7380.183 265.99,0"
             id="path148"
             style="fill:none;stroke:#90353b;stroke-width:52.36035919;stroke-linecap:round;stroke-linejoin:miter;stroke-miterlimit:10;stroke-opacity:1;stroke-dasharray:none" /></g><g
           transform="matrix(0.012375,0,0,-0.01237539,0,288)"
           id="g150"><path
             d="m 11736.13,7484.178 265.99,0"
             id="path152"
             style="fill:none;stroke:#90353b;stroke-width:52.36035919;stroke-linecap:round;stroke-linejoin:miter;stroke-miterlimit:10;stroke-opacity:1;stroke-dasharray:none" /></g><g
           transform="matrix(0.012375,0,0,-0.01237539,0,288)"
           id="g154"><path
             d="m 13436.08,7578.174 0,-98.995"
             id="path156"
             style="fill:none;stroke:#90353b;stroke-width:52.36035919;stroke-linecap:butt;stroke-linejoin:miter;stroke-miterlimit:10;stroke-opacity:1;stroke-dasharray:none" /></g><g
           transform="matrix(0.012375,0,0,-0.01237539,0,288)"
           id="g158"><path
             d="m 13303.08,7479.179 266,0"
             id="path160"
             style="fill:none;stroke:#90353b;stroke-width:52.36035919;stroke-linecap:round;stroke-linejoin:miter;stroke-miterlimit:10;stroke-opacity:1;stroke-dasharray:none" /></g><g
           transform="matrix(0.012375,0,0,-0.01237539,0,288)"
           id="g162"><path
             d="m 13303.08,7578.174 266,0"
             id="path164"
             style="fill:none;stroke:#90353b;stroke-width:52.36035919;stroke-linecap:round;stroke-linejoin:miter;stroke-miterlimit:10;stroke-opacity:1;stroke-dasharray:none" /></g><g
           transform="matrix(0.012375,0,0,-0.01237539,0,288)"
           id="g166"><path
             d="m 2078.435,7962.158 0,-5427.767"
             id="path168"
             style="fill:none;stroke:#000000;stroke-width:34.90690994;stroke-linecap:butt;stroke-linejoin:miter;stroke-miterlimit:10;stroke-opacity:1;stroke-dasharray:none" /></g><g
           transform="matrix(0.012375,0,0,-0.01237539,0,288)"
           id="g170"><path
             d="m 2078.435,7172.192 -241.992,0"
             id="path172"
             style="fill:none;stroke:#000000;stroke-width:34.90690994;stroke-linecap:butt;stroke-linejoin:miter;stroke-miterlimit:10;stroke-opacity:1;stroke-dasharray:none" /></g><g
           transform="matrix(0,0.01237539,0.012375,0,21.22864,196.1141)"
           id="g174"><text
             transform="translate(0,-140)"
             id="text176"><tspan
               x="0 168.3468"
               y="0"
               id="tspan178"
               style="font-size:606px;font-variant:normal;font-weight:normal;writing-mode:lr-tb;fill:#000000;fill-opacity:1;fill-rule:nonzero;stroke:none;font-family:Helvetica;-inkscape-font-specification:Helvetica">.2</tspan></text>
</g><g
           transform="matrix(0.012375,0,0,-0.01237539,0,288)"
           id="g180"><path
             d="m 2078.435,6108.238 -241.992,0"
             id="path182"
             style="fill:none;stroke:#000000;stroke-width:34.90690994;stroke-linecap:butt;stroke-linejoin:miter;stroke-miterlimit:10;stroke-opacity:1;stroke-dasharray:none" /></g><g
           transform="matrix(0,0.01237539,0.012375,0,21.22864,209.281)"
           id="g184"><text
             transform="translate(0,-140)"
             id="text186"><tspan
               x="0 168.3468"
               y="0"
               id="tspan188"
               style="font-size:606px;font-variant:normal;font-weight:normal;writing-mode:lr-tb;fill:#000000;fill-opacity:1;fill-rule:nonzero;stroke:none;font-family:Helvetica;-inkscape-font-specification:Helvetica">.4</tspan></text>
</g><g
           transform="matrix(0.012375,0,0,-0.01237539,0,288)"
           id="g190"><path
             d="m 2078.435,5045.283 -241.992,0"
             id="path192"
             style="fill:none;stroke:#000000;stroke-width:34.90690994;stroke-linecap:butt;stroke-linejoin:miter;stroke-miterlimit:10;stroke-opacity:1;stroke-dasharray:none" /></g><g
           transform="matrix(0,0.01237539,0.012375,0,21.22864,222.4354)"
           id="g194"><text
             transform="translate(0,-140)"
             id="text196"><tspan
               x="0 168.3468"
               y="0"
               id="tspan198"
               style="font-size:606px;font-variant:normal;font-weight:normal;writing-mode:lr-tb;fill:#000000;fill-opacity:1;fill-rule:nonzero;stroke:none;font-family:Helvetica;-inkscape-font-specification:Helvetica">.6</tspan></text>
</g><g
           transform="matrix(0.012375,0,0,-0.01237539,0,288)"
           id="g200"><path
             d="m 2078.435,3981.329 -241.992,0"
             id="path202"
             style="fill:none;stroke:#000000;stroke-width:34.90690994;stroke-linecap:butt;stroke-linejoin:miter;stroke-miterlimit:10;stroke-opacity:1;stroke-dasharray:none" /></g><g
           transform="matrix(0,0.01237539,0.012375,0,21.22864,235.6022)"
           id="g204"><text
             transform="translate(0,-140)"
             id="text206"><tspan
               x="0 168.3468"
               y="0"
               id="tspan208"
               style="font-size:606px;font-variant:normal;font-weight:normal;writing-mode:lr-tb;fill:#000000;fill-opacity:1;fill-rule:nonzero;stroke:none;font-family:Helvetica;-inkscape-font-specification:Helvetica">.8</tspan></text>
</g><g
           transform="matrix(0.012375,0,0,-0.01237539,0,288)"
           id="g210"><path
             d="m 2078.435,2918.375 -241.992,0"
             id="path212"
             style="fill:none;stroke:#000000;stroke-width:34.90690994;stroke-linecap:butt;stroke-linejoin:miter;stroke-miterlimit:10;stroke-opacity:1;stroke-dasharray:none" /></g><g
           transform="matrix(0,0.01237539,0.012375,0,21.22864,249.7985)"
           id="g214"><text
             transform="translate(0,-140)"
             id="text216"><tspan
               x="0"
               y="0"
               id="tspan218"
               style="font-size:606px;font-variant:normal;font-weight:normal;writing-mode:lr-tb;fill:#000000;fill-opacity:1;fill-rule:nonzero;stroke:none;font-family:Helvetica;-inkscape-font-specification:Helvetica">1</tspan></text>
</g><g
           transform="matrix(0.012375,0,0,-0.01237539,0,288)"
           id="g220"><path
             d="m 2078.435,7962.158 13309.585,0"
             id="path222"
             style="fill:none;stroke:#000000;stroke-width:34.90690994;stroke-linecap:butt;stroke-linejoin:miter;stroke-miterlimit:10;stroke-opacity:1;stroke-dasharray:none" /></g><g
           transform="matrix(0.012375,0,0,-0.01237539,0,288)"
           id="g224"><path
             d="m 2462.423,7962.158 0,241.989"
             id="path226"
             style="fill:none;stroke:#000000;stroke-width:34.90690994;stroke-linecap:butt;stroke-linejoin:miter;stroke-miterlimit:10;stroke-opacity:1;stroke-dasharray:none" /></g><g
           transform="matrix(0.012375,0,0,-0.01237539,22.13103,184.9608)"
           id="g228"><text
             transform="translate(0,466)"
             id="text230"><tspan
               x="0 337.05719 674.11438 1011.1716"
               y="0"
               id="tspan232"
               style="font-size:606px;font-variant:normal;font-weight:normal;writing-mode:lr-tb;fill:#000000;fill-opacity:1;fill-rule:nonzero;stroke:none;font-family:Helvetica;-inkscape-font-specification:Helvetica">2004</tspan></text>
</g><g
           transform="matrix(0.012375,0,0,-0.01237539,0,288)"
           id="g234"><path
             d="m 5598.325,7962.158 0,241.989"
             id="path236"
             style="fill:none;stroke:#000000;stroke-width:34.90690994;stroke-linecap:butt;stroke-linejoin:miter;stroke-miterlimit:10;stroke-opacity:1;stroke-dasharray:none" /></g><g
           transform="matrix(0.012375,0,0,-0.01237539,60.93782,184.9608)"
           id="g238"><text
             transform="translate(0,466)"
             id="text240"><tspan
               x="0 337.05719 674.11438 1011.1716"
               y="0"
               id="tspan242"
               style="font-size:606px;font-variant:normal;font-weight:normal;writing-mode:lr-tb;fill:#000000;fill-opacity:1;fill-rule:nonzero;stroke:none;font-family:Helvetica;-inkscape-font-specification:Helvetica">2006</tspan></text>
</g><g
           transform="matrix(0.012375,0,0,-0.01237539,0,288)"
           id="g244"><path
             d="m 8733.227,7962.158 0,241.989"
             id="path246"
             style="fill:none;stroke:#000000;stroke-width:34.90690994;stroke-linecap:butt;stroke-linejoin:miter;stroke-miterlimit:10;stroke-opacity:1;stroke-dasharray:none" /></g><g
           transform="matrix(0.012375,0,0,-0.01237539,99.73223,184.9608)"
           id="g248"><text
             transform="translate(0,466)"
             id="text250"><tspan
               x="0 337.05719 674.11438 1011.1716"
               y="0"
               id="tspan252"
               style="font-size:606px;font-variant:normal;font-weight:normal;writing-mode:lr-tb;fill:#000000;fill-opacity:1;fill-rule:nonzero;stroke:none;font-family:Helvetica;-inkscape-font-specification:Helvetica">2008</tspan></text>
</g><g
           transform="matrix(0.012375,0,0,-0.01237539,0,288)"
           id="g254"><path
             d="m 11869.13,7962.158 0,241.989"
             id="path256"
             style="fill:none;stroke:#000000;stroke-width:34.90690994;stroke-linecap:butt;stroke-linejoin:miter;stroke-miterlimit:10;stroke-opacity:1;stroke-dasharray:none" /></g><g
           transform="matrix(0.012375,0,0,-0.01237539,138.539,184.9608)"
           id="g258"><text
             transform="translate(0,466)"
             id="text260"><tspan
               x="0 337.05719 674.11438 1011.1716"
               y="0"
               id="tspan262"
               style="font-size:606px;font-variant:normal;font-weight:normal;writing-mode:lr-tb;fill:#000000;fill-opacity:1;fill-rule:nonzero;stroke:none;font-family:Helvetica;-inkscape-font-specification:Helvetica">2010</tspan></text>
</g><g
           transform="matrix(0.012375,0,0,-0.01237539,0,288)"
           id="g264"><path
             d="m 15004.03,7962.158 0,241.989"
             id="path266"
             style="fill:none;stroke:#000000;stroke-width:34.90690994;stroke-linecap:butt;stroke-linejoin:miter;stroke-miterlimit:10;stroke-opacity:1;stroke-dasharray:none" /></g><g
           transform="matrix(0.012375,0,0,-0.01237539,177.3334,184.9608)"
           id="g268"><text
             transform="translate(0,466)"
             id="text270"><tspan
               x="0 337.05719 674.11438 1011.1716"
               y="0"
               id="tspan272"
               style="font-size:606px;font-variant:normal;font-weight:normal;writing-mode:lr-tb;fill:#000000;fill-opacity:1;fill-rule:nonzero;stroke:none;font-family:Helvetica;-inkscape-font-specification:Helvetica">2012</tspan></text>
</g><g
           transform="matrix(0.012375,0,0,-0.01237539,89.9389,169.2199)"
           id="g274"><text
             transform="translate(0,-140)"
             id="text276"><tspan
               x="0 437.6532 639.45117 976.50842 1414.1616 1548.8148 1706.5566 2055.1277 2392.1851 2729.2422"
               y="0"
               id="tspan278"
               style="font-size:606px;font-variant:normal;font-weight:normal;writing-mode:lr-tb;fill:#000000;fill-opacity:1;fill-rule:nonzero;stroke:none;font-family:Helvetica;-inkscape-font-specification:Helvetica">Crawl Year</tspan></text>
</g><path
           d="m 28.314,165.1248 159.5261,0 0,-13.9842 -159.5261,0 0,13.9842 z"
           id="path280"
           style="fill:#ffffff;fill-opacity:1;fill-rule:nonzero;stroke:none" /><g
           transform="matrix(0.012375,0,0,-0.01237539,0,288)"
           id="g282"><path
             d="m 2288,9929 12891,0 0,1130 -12891,0 0,-1130 z"
             id="path284"
             style="fill:none;stroke:#000000;stroke-width:34.90690994;stroke-linecap:square;stroke-linejoin:miter;stroke-miterlimit:10;stroke-opacity:1;stroke-dasharray:none" /></g><g
           transform="matrix(0.012375,0,0,-0.01237539,0,288)"
           id="g286"><path
             d="m 2587.419,10494.05 2268.929,0"
             id="path288"
             style="fill:none;stroke:#1a476f;stroke-width:52.36035919;stroke-linecap:butt;stroke-linejoin:miter;stroke-miterlimit:10;stroke-opacity:1;stroke-dasharray:none" /></g><g
           transform="matrix(0.012375,0,0,-0.01237539,66.75485,161.0154)"
           id="g290"><text
             transform="translate(0,466)"
             id="text292"><tspan
               x="0 404.202 741.25922 1078.3164 1280.1144 1617.1716 1920.1716 2088.5183 2492.7205 2627.3735 2829.1716 2997.5183 3334.5757 3671.6328 4008.6899 4177.0366 4514.0942 4682.4409 5019.498 5356.5552 5524.9019 5929.104 6130.9019 6467.959 6770.959 6905.6123"
               y="0"
               id="tspan294"
               style="font-size:606px;font-variant:normal;font-weight:normal;writing-mode:lr-tb;fill:#000000;fill-opacity:1;fill-rule:nonzero;stroke:none;font-family:Helvetica;-inkscape-font-specification:Helvetica">Shares Birthdate on Proﬁle</tspan></text>
</g><g
           transform="matrix(0.012375,0,0,-0.01237539,43.585575,306.05482)"
           id="g1074"><text
             transform="translate(0,-261)"
             id="text1076"><tspan
               x="0 754.37701 1383.4392 1760.0623 2325.5623 2954.6245 3583.6865 4212.749 4464.0571 4778.249 5092.4404 5721.5029 6035.6948 6664.7568 7041.3799 7983.5029 8612.5654 8926.7568 9178.0654 9807.127 10436.189 10750.381 11567.189 11818.498 12383.998 12949.498 13200.806 13829.868 14395.368 15024.431 15401.053 16030.115 16324.515 16973.936 17350.559 17979.619 18608.682 19237.744 19803.244 20117.436 20746.498 21375.561 22004.623 22633.686 23010.309 23639.371 24268.432 24814.027"
               y="0"
               id="tspan1078"
               style="font-size:1131px;font-variant:normal;font-weight:normal;writing-mode:lr-tb;fill:#1e2d53;fill-opacity:1;fill-rule:nonzero;stroke:none;font-family:Helvetica;-inkscape-font-specification:Helvetica">Personal Information Disclosure Trends 2005-2011</tspan></text>
</g></g></g></g></svg>